<svg id="Layer_1" data-name="Layer 1" xmlns="http://www.w3.org/2000/svg" viewBox="0 0 40 40"><defs><style>.cls-1{fill:#ab0853;}.cls-2{fill:#fff;}</style></defs><path class="cls-1" d="M19.9,35a15,15,0,1,0-15-15,15,15,0,0,0,15,15"/><path class="cls-2" d="M19.9,27.5a1.4,1.4,0,0,1-1.3-1.4,1.3,1.3,0,0,1,1.3-1.4,1.4,1.4,0,0,1,1.4,1.4h0a1.3,1.3,0,0,1-1.4,1.3Z"/><path class="cls-2" d="M23.1,18.9a3,3,0,0,1-.8.8.8.8,0,0,1-.4.4,4.1,4.1,0,0,0-.8,2.9H18.9a5.8,5.8,0,0,1,1.4-4.4l.5-.5.6-.5a2.2,2.2,0,0,0,.2-1.4,1.4,1.4,0,0,0-.7-1.1,1.7,1.7,0,0,0-2.2.2,1.6,1.6,0,0,0-.5,1.4L16,17a3.7,3.7,0,0,1,1.1-3.3,4.1,4.1,0,0,1,5-.5,3.6,3.6,0,0,1,1.7,2.6A3.8,3.8,0,0,1,23.1,18.9Z"/></svg>