<?xml version="1.0" encoding="UTF-8"?><svg id="Layer_1" xmlns="http://www.w3.org/2000/svg" viewBox="0 0 32.91 30.48"><defs><style>.cls-1{fill:#86a8a8;}</style></defs><g id="Icon_feather-coffee"><path class="cls-1" d="m26.08,22.92h-1.48c-.41,0-.75-.34-.75-.75s.34-.75.75-.75h1.48c2.85,0,5.18-2.32,5.18-5.18s-2.32-5.18-5.18-5.18h-1.48c-.41,0-.75-.34-.75-.75s.34-.75.75-.75h1.48c3.68,0,6.68,3,6.68,6.68s-3,6.68-6.68,6.68Z"/><path class="cls-1" d="m18.68,30.33H6.82c-3.68,0-6.68-3-6.68-6.68v-13.33c0-.41.34-.75.75-.75h23.7c.41,0,.75.34.75.75v13.33c0,3.68-3,6.68-6.68,6.68ZM1.65,11.07v12.58c0,2.85,2.32,5.18,5.18,5.18h11.85c2.85,0,5.18-2.32,5.18-5.18v-12.58H1.65Z"/><path class="cls-1" d="m6.82,6.14c-.41,0-.75-.34-.75-.75V.95c0-.41.34-.75.75-.75s.75.34.75.75v4.44c0,.41-.34.75-.75.75Z"/><path class="cls-1" d="m12.75,6.14c-.41,0-.75-.34-.75-.75V.95c0-.41.34-.75.75-.75s.75.34.75.75v4.44c0,.41-.34.75-.75.75Z"/><path class="cls-1" d="m18.68,6.14c-.41,0-.75-.34-.75-.75V.95c0-.41.34-.75.75-.75s.75.34.75.75v4.44c0,.41-.34.75-.75.75Z"/></g></svg>