<?xml version="1.0" encoding="UTF-8"?><svg id="Layer_1" xmlns="http://www.w3.org/2000/svg" xmlns:xlink="http://www.w3.org/1999/xlink" viewBox="0 0 37.16 29.36"><defs><style>.cls-1{fill:none;}.cls-2{clip-path:url(#clippath);}.cls-3{fill:#86a8a8;}</style><clipPath id="clippath"><polygon class="cls-1" points=".01 -.75 37.16 .26 37.16 29.35 .01 29.35 .01 -.75"/></clipPath></defs><g class="cls-2"><g id="Group_1631"><path id="Path_382" class="cls-3" d="m36.62.34H8.75c-.25,0-.45.19-.46.43v5.17c.05,1.44,1.23,2.59,2.67,2.6v19.87h-5.43v-6.34c.82.39,1.79.32,2.54-.19.89-.58,1.25-1.71.84-2.69.93-.52,1.36-1.63,1.02-2.64-.38-1.02-1.39-1.67-2.48-1.58-.32-1.04-1.29-1.74-2.37-1.72-1.09-.02-2.05.68-2.37,1.72-1.09-.09-2.1.56-2.48,1.58-.34,1.01.08,2.12,1.01,2.64-.41.98-.06,2.12.84,2.69.75.5,1.72.58,2.54.19v6.34H.56c-.24-.02-.45.16-.46.4s.16.45.4.46c.02,0,.04,0,.06,0h36.04c.24.02.45-.16.46-.4.02-.24-.16-.45-.4-.46-.02,0-.04,0-.06,0h-2.19V8.54c1.44-.01,2.62-1.16,2.67-2.6V.77c0-.25-.22-.44-.46-.43ZM2.62,21.18c-.64-.41-.82-1.25-.42-1.88.01-.02.03-.04.04-.06.08-.11.1-.25.06-.37-.05-.13-.15-.23-.28-.27-.74-.22-1.16-1.01-.93-1.75,0-.01,0-.02.01-.03.29-.75,1.09-1.15,1.86-.93.14.04.28.01.4-.07.11-.07.18-.2.19-.33.06-.79.73-1.4,1.52-1.37.79-.03,1.47.58,1.53,1.37,0,.13.08.26.19.33.12.08.26.1.4.07.77-.22,1.58.19,1.86.93.24.73-.16,1.53-.89,1.77-.01,0-.02,0-.03.01-.13.04-.23.14-.28.27-.04.13-.03.26.05.37.44.61.3,1.47-.31,1.9-.02.01-.04.03-.06.04-.67.45-1.56.33-2.09-.27-.18-.2-.48-.22-.68-.04-.02.01-.03.03-.04.04-.53.6-1.43.72-2.1.27h0ZM31.51,5.94c-.07,1.03-.95,1.81-1.98,1.74-.93-.06-1.68-.8-1.74-1.74V1.2h3.72v4.73ZM13.86,1.2h3.72v4.73c-.07,1.03-.95,1.81-1.98,1.74-.93-.06-1.68-.8-1.74-1.74V1.2Zm4.64,0h3.72v4.73c-.07,1.03-.95,1.81-1.98,1.74-.93-.06-1.68-.8-1.74-1.74V1.2Zm4.65,0h3.72v4.73c-.07,1.03-.95,1.81-1.98,1.74-.93-.06-1.68-.8-1.74-1.74V1.2Zm-13.93,4.73V1.2h3.72v4.73c-.07,1.03-.95,1.81-1.98,1.74-.93-.06-1.68-.8-1.74-1.74Zm19.96,22.47h-6.03v-9.82h6.03v9.82Zm-6.95,0h-6.03v-9.82h6.03v9.82Zm7.88,0v-10.26c0-.25-.22-.44-.46-.43h-13.9c-.25,0-.45.19-.46.43v10.26h-3.39V8.44c.61-.17,1.14-.54,1.51-1.06.95,1.28,2.76,1.55,4.04.6.23-.17.43-.37.6-.6.95,1.28,2.76,1.55,4.04.61.23-.17.44-.37.61-.61.95,1.28,2.76,1.55,4.04.61.23-.17.44-.37.61-.61.95,1.28,2.76,1.55,4.04.6.23-.17.43-.37.6-.6.37.51.9.89,1.51,1.06v19.97h-3.39Zm6.06-22.47c-.07,1.03-.95,1.81-1.98,1.74-.93-.06-1.68-.8-1.74-1.74V1.2h3.72v4.73Z"/><path id="Path_383" class="cls-3" d="m33.95,29.35H.56c-.28.02-.53-.19-.55-.48s.19-.53.48-.55c.03,0,.05,0,.08,0h3.97v-6.13c-.82.34-1.76.25-2.5-.25-.91-.58-1.28-1.72-.9-2.73-.92-.56-1.34-1.68-.99-2.7.38-1.04,1.4-1.7,2.5-1.64.35-1.04,1.33-1.74,2.43-1.72,1.1-.02,2.09.67,2.43,1.72,1.1-.06,2.11.6,2.5,1.64.35,1.02-.07,2.14-.99,2.7.38,1.01,0,2.15-.9,2.73-.44.3-.96.46-1.49.45-.35,0-.69-.07-1.01-.21v6.13h5.26V8.62c-1.46-.04-2.63-1.22-2.67-2.68V.77c0-.29.25-.52.55-.51h27.87c.29,0,.54.22.54.51v5.17c-.04,1.46-1.21,2.63-2.67,2.68v19.7h2.1c.28-.01.52.21.54.49.01.28-.21.52-.49.54-.02,0-.03,0-.05,0h-2.64ZM.56,28.49c-.19-.01-.36.13-.38.32-.01.19.13.36.32.38.02,0,.04,0,.05,0h36.04c.19.01.36-.13.38-.32.01-.19-.13-.36-.32-.38-.02,0-.04,0-.05,0h-2.27V8.46h.08c1.4,0,2.54-1.12,2.59-2.52V.77c0-.2-.18-.36-.38-.35H8.75c-.2,0-.37.15-.38.35v5.17c.05,1.4,1.19,2.51,2.59,2.51h.08v20.03h-5.59v-6.55l.12.06c.33.16.7.24,1.06.24.5,0,.98-.15,1.39-.42.86-.56,1.2-1.65.81-2.59l-.03-.06.06-.04c.9-.5,1.31-1.57.98-2.54-.37-.99-1.35-1.61-2.4-1.52h-.07l-.02-.06c-.31-1-1.24-1.68-2.29-1.66-1.05-.02-1.99.65-2.29,1.66l-.02.06h-.07c-1.05-.09-2.03.54-2.4,1.52-.33.97.09,2.04.98,2.54l.06.04-.03.07c-.39.95-.05,2.04.81,2.59.73.49,1.66.56,2.46.18l.12-.06v6.55H.56Zm33.01,0h-3.56v-10.33c0-.2-.18-.36-.38-.35h-13.9c-.2,0-.37.15-.38.35v10.34h-3.55V8.37l.06-.02c.59-.17,1.11-.53,1.47-1.03l.07-.1.07.1c.92,1.25,2.68,1.51,3.92.59.22-.17.42-.36.59-.59l.07-.1.07.1c.92,1.25,2.68,1.51,3.92.59.22-.17.42-.36.59-.59l.07-.1.07.1c.92,1.25,2.68,1.51,3.92.59.22-.17.42-.36.59-.59l.07-.1.07.1c.92,1.25,2.68,1.51,3.92.59.22-.17.42-.36.59-.59l.07-.1.07.1c.36.5.88.86,1.47,1.03l.06.02v20.12Zm-21.6-.17h3.22v-10.17c0-.29.25-.52.55-.51h13.9c.29,0,.54.22.55.51v10.17h3.22V8.5c-.57-.17-1.07-.51-1.43-.98-1.03,1.28-2.9,1.49-4.18.46-.17-.14-.32-.29-.46-.46-1.03,1.28-2.9,1.49-4.18.46-.17-.14-.33-.29-.46-.46-1.03,1.28-2.9,1.49-4.18.46-.17-.14-.33-.29-.46-.46-1.03,1.28-2.9,1.49-4.18.46-.17-.14-.32-.29-.46-.46-.36.47-.86.81-1.43.98v19.83Zm17.29.17h-6.19v-9.99h6.19v9.99Zm-6.02-.17h5.86v-9.66h-5.86v9.66Zm-.92.17h-6.2v-9.99h6.19v9.99Zm-6.02-.17h5.86v-9.66h-5.87v9.66Zm-9.65-6.79c-.48,0-.95-.21-1.26-.57-.08-.09-.18-.14-.3-.14-.11,0-.22.05-.3.14-.56.63-1.5.76-2.2.28-.34-.22-.57-.57-.64-.97-.07-.38.02-.78.25-1.09.06-.09.08-.2.04-.3-.04-.1-.12-.19-.23-.22-.38-.13-.7-.4-.89-.76-.18-.35-.21-.76-.08-1.13.3-.79,1.15-1.22,1.96-.99.11.03.23,0,.33-.06.09-.06.15-.16.15-.27.06-.84.77-1.47,1.61-1.45.84-.03,1.55.61,1.61,1.45,0,.11.06.21.15.27.1.06.22.08.33.06.81-.23,1.66.2,1.96.99.13.37.1.78-.08,1.13-.19.36-.51.63-.89.76-.11.03-.19.12-.23.22-.04.1-.02.21.04.3.23.31.32.71.25,1.09-.07.4-.31.75-.65.98-.28.19-.61.29-.94.29m-1.56-.87c.16,0,.32.07.43.19.5.57,1.35.68,1.99.25.3-.2.51-.51.57-.86.06-.34-.02-.69-.22-.97-.09-.13-.12-.3-.07-.45.05-.15.18-.27.33-.32.34-.11.63-.36.8-.68.16-.31.19-.67.07-1-.27-.71-1.04-1.09-1.76-.88-.16.04-.33.01-.46-.08-.14-.09-.22-.24-.23-.4-.06-.75-.69-1.31-1.44-1.29-.75-.02-1.38.54-1.44,1.29,0,.16-.09.31-.23.4-.14.09-.31.12-.46.08-.73-.21-1.49.17-1.76.88-.12.33-.09.69.07,1,.17.32.46.56.8.68.15.05.28.17.33.32.05.15.03.32-.07.45-.2.28-.28.63-.23.97.07.35.27.67.57.86.63.43,1.48.31,1.99-.26.11-.12.26-.19.43-.19m29.23-12.9c-1.04.03-1.91-.78-1.94-1.82V1.12h3.88v4.82c-.04,1.04-.9,1.85-1.94,1.82m-1.78-6.48v4.66c.07.98.92,1.72,1.9,1.65.88-.06,1.59-.77,1.65-1.65V1.29h-3.56Zm-2.87,6.48c-1.04.03-1.9-.78-1.94-1.82V1.12h3.89v4.82c-.04,1.04-.91,1.85-1.95,1.82m-1.78-6.48v4.66c.07.98.92,1.72,1.9,1.65.88-.06,1.59-.77,1.65-1.65V1.29h-3.56Zm-2.87,6.48c-1.04.03-1.91-.78-1.94-1.82V1.12h3.89v4.82c-.04,1.04-.9,1.85-1.94,1.82m-1.78-6.48v4.66c.07.98.92,1.72,1.9,1.65.88-.06,1.59-.77,1.65-1.65V1.29h-3.56Zm-2.87,6.48c-1.04.03-1.91-.78-1.94-1.82V1.12h3.89v4.82c-.04,1.04-.9,1.85-1.94,1.82m-1.78-6.48v4.66c.07.98.92,1.72,1.9,1.65.88-.06,1.59-.77,1.65-1.65V1.29h-3.56Zm-2.87,6.48c-1.04.03-1.91-.78-1.94-1.82V1.12h3.89v4.82c-.04,1.04-.9,1.85-1.94,1.82m-1.78-6.48v4.66c.07.98.92,1.72,1.9,1.65.88-.06,1.59-.77,1.65-1.65V1.29h-3.55Zm-2.87,6.48c-1.04.03-1.91-.78-1.94-1.82V1.12h3.88v4.82c-.04,1.04-.9,1.85-1.94,1.82m-1.77-6.48v4.66c.04.95.83,1.69,1.78,1.66.95.03,1.74-.71,1.78-1.66V1.29h-3.56Z"/><path id="Path_384" class="cls-3" d="m18.33,9.73c-1.42-.07-2.64,1.02-2.72,2.44v3.85c.01.23.21.41.44.39h4.56c.23.01.43-.16.44-.39v-3.85c-.08-1.42-1.3-2.51-2.72-2.44Zm1.84,5.89h-3.68v-3.45c.11-1.02,1.03-1.75,2.04-1.64.86.09,1.54.78,1.64,1.64v3.45Z"/><path id="Path_386" class="cls-3" d="m27.03,9.73c-1.42-.07-2.64,1.02-2.72,2.44v3.85c.01.23.21.41.44.39h4.56c.23.01.43-.16.44-.39v-3.85c-.08-1.42-1.3-2.51-2.72-2.44Zm1.84,5.89h-3.68v-3.45c.11-1.02,1.02-1.75,2.04-1.64.86.09,1.54.78,1.64,1.64v3.45Z"/></g></g></svg>