<?xml version="1.0" encoding="utf-8"?>
<!-- Generator: Adobe Illustrator 22.1.0, SVG Export Plug-In . SVG Version: 6.00 Build 0)  -->
<svg version="1.1" id="Layer_1" xmlns="http://www.w3.org/2000/svg" xmlns:xlink="http://www.w3.org/1999/xlink" x="0px" y="0px"
	 viewBox="0 0 40 40" style="enable-background:new 0 0 40 40;" xml:space="preserve">
<style type="text/css">
	.st0{fill:#9F236B;}
</style>
<path class="st0" d="M35.6,21.3c-1.7,1.2-2.3,3.5-1.4,5.3c0.2,0.5,0.2,1-0.1,1.5c-0.3,0.5-0.7,0.8-1.2,0.8c-2.1,0.2-3.7,1.8-3.9,3.9
	c0,0.5-0.3,1-0.8,1.2c-0.5,0.3-1,0.3-1.5,0.1c-1.9-0.9-4.1-0.3-5.3,1.4c-0.6,0.9-2,0.9-2.6,0c-0.8-1.2-2.1-1.8-3.5-1.8
	c-0.6,0-1.2,0.1-1.8,0.4c-0.5,0.2-1,0.2-1.5-0.1c-0.5-0.3-0.8-0.7-0.8-1.2c-0.2-2.1-1.8-3.7-3.9-3.9c-0.5,0-1-0.3-1.2-0.8
	s-0.3-1-0.1-1.5c0.9-1.9,0.3-4.1-1.4-5.3C4,21,3.7,20.5,3.7,20c0-0.5,0.2-1,0.7-1.3c1.7-1.2,2.3-3.4,1.4-5.3c-0.2-0.5-0.2-1,0.1-1.5
	c0.3-0.5,0.7-0.8,1.2-0.8c2.1-0.2,3.7-1.8,3.9-3.9c0.1-0.5,0.3-1,0.8-1.2c0.5-0.3,1-0.3,1.5-0.1c1.9,0.9,4.1,0.3,5.3-1.4
	c0.6-0.9,2-0.9,2.6,0l0,0l0,0l0.5,0.7L21.8,5c1.3,1.2,3.2,1.6,4.8,0.8c0.5-0.2,1-0.2,1.5,0.1s0.8,0.7,0.8,1.2
	c0.2,2.1,1.8,3.7,3.9,3.9c0.5,0.1,1,0.3,1.2,0.8s0.3,1,0.1,1.5c-0.9,1.9-0.3,4.1,1.4,5.3c0.4,0.3,0.7,0.8,0.7,1.3
	C36.3,20.5,36,21,35.6,21.3 M36.5,17.4c-1.1-0.7-1.4-2.1-0.9-3.3c0.5-1,0.4-2.1-0.1-3C35,10.1,34,9.5,33,9.4
	c-1.3-0.1-2.3-1.1-2.4-2.4C30.5,6,29.9,5,29,4.5c-0.9-0.5-2-0.6-3-0.1c-1.2,0.6-2.6,0.2-3.3-0.9C22,2.6,21.1,2.1,20,2.1
	s-2,0.5-2.6,1.4c-0.7,1.1-2.1,1.4-3.3,0.9c-1-0.5-2.1-0.4-3,0.1C10.1,5,9.5,5.9,9.4,7C9.3,8.3,8.3,9.3,7,9.4C5.9,9.5,5,10.1,4.5,11
	c-0.5,0.9-0.6,2-0.1,3c0.5,1.2,0.2,2.6-0.9,3.3C2.6,18,2.1,18.9,2.1,20s0.5,2,1.4,2.6c1.1,0.7,1.4,2.1,0.9,3.3c-0.5,1-0.4,2.1,0.1,3
	C5,29.9,5.9,30.5,7,30.6c1.3,0.1,2.3,1.1,2.4,2.4c0.1,1.1,0.7,2,1.6,2.5c0.9,0.5,2,0.6,3,0.1c1.1-0.5,2.6-0.2,3.3,0.9
	c0.6,0.9,1.6,1.4,2.6,1.4c1.1,0,2-0.5,2.6-1.4c0.8-1.1,2.1-1.4,3.3-0.9c1,0.5,2.1,0.4,3-0.1c0.9-0.5,1.5-1.5,1.6-2.5
	c0.1-1.3,1.1-2.3,2.4-2.4c1.1-0.1,2-0.7,2.5-1.6s0.6-2,0.1-3c-0.5-1.2-0.2-2.6,0.9-3.3c0.9-0.6,1.4-1.6,1.4-2.6
	C37.9,18.9,37.4,18,36.5,17.4"/>
<path class="st0" d="M29.2,25.2c-0.7-0.9-1.6-1.8-2.6-2.6c-0.3-0.2-0.6-0.4-1-0.5c-0.7-0.1-1.2,0-1.6,0.5c-0.3,0.3-0.5,0.5-0.8,0.8
	c-0.2,0.2-0.3,0.3-0.5,0.5c0,0,0,0,0,0c0,0,0,0,0,0c-0.2-0.1-0.4-0.2-0.6-0.3l-0.2-0.1c-2.5-1.4-4.4-3.4-5.7-6.1
	c0.3-0.3,1.1-1.1,1.4-1.4c0.3-0.3,0.5-0.7,0.5-1.1c0-0.6-0.3-1.1-0.7-1.6c-0.7-0.9-1.6-1.7-2.7-2.6c-0.3-0.2-0.7-0.4-1.2-0.4
	c-0.4,0-0.7,0.1-1,0.3c-0.7,0.5-1.1,1-1.4,1.6c-0.6,1.2-0.8,2.6-0.6,4.2c0.2,1.3,0.7,2.5,1.5,3.7c1.8,2.8,4.2,5.2,6.9,7.1
	c1.7,1.2,3.5,2,5.3,2.3c0.4,0.1,0.9,0.2,1.4,0.2c0.2,0,0.3,0,0.5,0c1.4-0.2,2.6-0.8,3.5-2c0.1-0.2,0.3-0.4,0.3-0.7
	C29.8,26.4,29.6,25.8,29.2,25.2z M16.5,15.1l-1.3,1.3l-0.9,0.7l0.4,0.9c1.5,3,3.6,5.2,6.3,6.8l0.2,0.1c0.2,0.1,0.4,0.2,0.5,0.3
	c0.2,0.1,0.5,0.2,0.7,0.2c0.3,0,0.7-0.1,1-0.4c0.1-0.1,0.3-0.3,0.4-0.4l0.1-0.1c0.3-0.3,0.6-0.6,0.8-0.8c0.1-0.1,0.1-0.1,0.2-0.1
	c0,0,0.1,0,0.2,0c0.2,0,0.3,0.1,0.4,0.2c1,0.8,1.7,1.5,2.4,2.4c0.3,0.4,0.2,0.6,0.2,0.7c0,0,0,0,0,0c-0.7,0.8-1.5,1.3-2.6,1.5
	c-0.4,0.1-1,0-1.5-0.1c-1.6-0.3-3.2-1-4.8-2.1C17,24.3,14.8,22,13,19.4c-0.7-1.1-1.1-2.1-1.3-3.2c-0.2-1.4-0.1-2.4,0.4-3.4
	c0.2-0.4,0.5-0.8,1-1.2c0,0,0.1,0,0.2,0c0.1,0,0.3,0,0.3,0.1c1.1,0.9,1.9,1.6,2.6,2.4C16.4,14.4,16.5,14.7,16.5,15.1
	C16.6,15,16.6,15,16.5,15.1z"/>
</svg>
