<?xml version="1.0" encoding="utf-8"?>
<!-- Generator: Adobe Illustrator 25.3.1, SVG Export Plug-In . SVG Version: 6.00 Build 0)  -->
<svg version="1.1" id="Layer_1" xmlns="http://www.w3.org/2000/svg" xmlns:xlink="http://www.w3.org/1999/xlink" x="0px" y="0px"
	 viewBox="0 0 40 40" style="enable-background:new 0 0 40 40;" xml:space="preserve">
<style type="text/css">
	.st0{fill:#9F236B;}
</style>
<g>
	<path class="st0" d="M35.7,21.3c-1.7,1.2-2.3,3.5-1.4,5.3c0.2,0.5,0.2,1-0.1,1.5c-0.3,0.5-0.7,0.8-1.2,0.8
		c-2.1,0.2-3.7,1.8-3.9,3.9c0,0.5-0.3,1-0.8,1.2c-0.5,0.3-1,0.3-1.5,0.1c-1.9-0.9-4.1-0.3-5.3,1.4c-0.6,0.9-2,0.9-2.6,0
		c-0.8-1.2-2.1-1.8-3.5-1.8c-0.6,0-1.2,0.1-1.8,0.4c-0.5,0.2-1,0.2-1.5-0.1s-0.8-0.7-0.8-1.2c-0.2-2.1-1.8-3.7-3.9-3.9
		c-0.5,0-1-0.3-1.2-0.8c-0.2-0.5-0.3-1-0.1-1.5c0.9-1.9,0.3-4.1-1.4-5.3C4.1,21,3.8,20.5,3.8,20c0-0.5,0.2-1,0.7-1.3
		c1.7-1.2,2.3-3.4,1.4-5.3c-0.2-0.5-0.2-1,0.1-1.5c0.3-0.5,0.7-0.8,1.2-0.8c2.1-0.2,3.7-1.8,3.9-3.9c0.1-0.5,0.3-1,0.8-1.2
		c0.5-0.3,1-0.3,1.5-0.1c1.9,0.9,4.1,0.3,5.3-1.4c0.6-0.9,2-0.9,2.6,0l0,0l0,0l0.5,0.7L21.9,5c1.3,1.2,3.2,1.6,4.8,0.8
		c0.5-0.2,1-0.2,1.5,0.1C28.7,6.2,29,6.6,29,7.1c0.2,2.1,1.8,3.7,3.9,3.9c0.5,0.1,1,0.3,1.2,0.8c0.2,0.5,0.3,1,0.1,1.5
		c-0.9,1.9-0.3,4.1,1.4,5.3c0.4,0.3,0.7,0.8,0.7,1.3C36.4,20.5,36.1,21,35.7,21.3 M36.6,17.4c-1.1-0.7-1.4-2.1-0.9-3.3
		c0.5-1,0.4-2.1-0.1-3c-0.5-1-1.5-1.6-2.5-1.7c-1.3-0.1-2.3-1.1-2.4-2.4c-0.1-1-0.7-2-1.6-2.5c-0.9-0.5-2-0.6-3-0.1
		c-1.2,0.6-2.6,0.2-3.3-0.9c-0.7-0.9-1.6-1.4-2.7-1.4c-1.1,0-2,0.5-2.6,1.4c-0.7,1.1-2.1,1.4-3.3,0.9c-1-0.5-2.1-0.4-3,0.1
		C10.2,5,9.6,5.9,9.5,7C9.4,8.3,8.4,9.3,7.1,9.4C6,9.5,5.1,10.1,4.6,11c-0.5,0.9-0.6,2-0.1,3c0.5,1.2,0.2,2.6-0.9,3.3
		C2.7,18,2.2,18.9,2.2,20c0,1.1,0.5,2,1.4,2.6c1.1,0.7,1.4,2.1,0.9,3.3c-0.5,1-0.4,2.1,0.1,3c0.5,1,1.4,1.6,2.5,1.7
		c1.3,0.1,2.3,1.1,2.4,2.4c0.1,1.1,0.7,2,1.6,2.5c0.9,0.5,2,0.6,3,0.1c1.1-0.5,2.6-0.2,3.3,0.9c0.6,0.9,1.6,1.4,2.6,1.4
		c1.1,0,2-0.5,2.6-1.4c0.8-1.1,2.1-1.4,3.3-0.9c1,0.5,2.1,0.4,3-0.1c0.9-0.5,1.5-1.5,1.6-2.5c0.1-1.3,1.1-2.3,2.4-2.4
		c1.1-0.1,2-0.7,2.5-1.6s0.6-2,0.1-3c-0.5-1.2-0.2-2.6,0.9-3.3c0.9-0.6,1.4-1.6,1.4-2.6C38,18.9,37.5,18,36.6,17.4"/>
	<g>
		<path class="st0" d="M9.9,25.6l3.1-3.9c1.5-1.9,2.2-3.4,2.2-4.4c0-1.4-0.6-2.4-2.1-2.4c-1.5,0-2.6,1.3-1.5,2.9l-0.5,0.6
			C8.6,16.9,9.5,14,13.1,14c2.3,0,3.6,1.6,3.6,3.2c0,1.6-1,2.8-2.5,4.5l-2.6,2.9h2.9c1.7,0,2-0.3,2.3-1.5h0.4L16.8,26H9.9V25.6z"/>
		<path class="st0" d="M20.6,16.4c-0.7-1-1.4-1.7-2.8-1.7v-0.4h5.5v0.4c-1.6,0-1.6,0.6-1,1.5l1.9,2.8l2.1-2.8c0.7-0.9,0.6-1.5-1-1.5
			v-0.4H30v0.4c-1.6,0-2.1,0.7-2.8,1.7l-2.5,3.3l2.8,4.2c0.7,1.1,1.4,1.7,2.8,1.7V26h-5.6v-0.4c1.6,0,1.7-0.6,1-1.5l-2.2-3.3
			l-2.5,3.3c-0.6,0.8-0.6,1.5,1,1.5V26h-4.7v-0.4c1.4,0,2.2-0.9,2.8-1.7l2.8-3.7L20.6,16.4z"/>
	</g>
</g>
</svg>
