<?xml version="1.0" encoding="utf-8"?>
<!-- Generator: Adobe Illustrator 25.3.1, SVG Export Plug-In . SVG Version: 6.00 Build 0)  -->
<svg version="1.1" id="Layer_1" xmlns="http://www.w3.org/2000/svg" xmlns:xlink="http://www.w3.org/1999/xlink" x="0px" y="0px"
	 viewBox="0 0 40 40" style="enable-background:new 0 0 40 40;" xml:space="preserve">
<style type="text/css">
	.st0{fill:#9F236B;}
</style>
<g>
	<path class="st0" d="M36.2,17.4c-1.1-0.7-1.4-2.1-0.9-3.3c0.5-1,0.4-2.1-0.1-3c-0.5-1-1.5-1.6-2.5-1.7c-1.3-0.1-2.3-1.1-2.4-2.4
		c-0.1-1-0.7-2-1.6-2.5c-0.9-0.5-2-0.6-3-0.1c-1.2,0.6-2.6,0.2-3.3-0.9c-0.7-0.9-1.6-1.4-2.7-1.4c-1.1,0-2,0.5-2.6,1.4
		c-0.7,1.1-2.1,1.4-3.3,0.9c-1-0.5-2.1-0.4-3,0.1C9.8,5,9.2,5.9,9.1,7C9,8.3,8,9.3,6.7,9.4c-1.1,0.1-2,0.7-2.5,1.6
		c-0.5,0.9-0.6,2-0.1,3c0.5,1.2,0.2,2.6-0.9,3.3C2.3,18,1.8,18.9,1.8,20s0.5,2,1.4,2.6c0.7,0.5,1.1,1.3,1.1,2.1c0,0.3,0,1,0.7,1.1
		s1-0.3,1.1-0.6c0.2-1.5-0.4-3-1.7-3.9C3.7,21,3.4,20.5,3.4,20s0.2-1,0.7-1.3c1.7-1.2,2.3-3.4,1.4-5.3c-0.2-0.5-0.2-1,0.1-1.5
		c0.3-0.5,0.7-0.8,1.2-0.8c2.1-0.2,3.7-1.8,3.9-3.9c0.1-0.5,0.3-1,0.8-1.2c0.5-0.3,1-0.3,1.5-0.1c1.9,0.9,4.1,0.3,5.3-1.4
		c0.6-0.9,2-0.9,2.6,0L21.5,5c1.3,1.2,3.2,1.6,4.8,0.8c0.5-0.2,1-0.2,1.5,0.1s0.8,0.7,0.8,1.2c0.2,2.1,1.8,3.7,3.9,3.9
		c0.5,0.1,1,0.3,1.2,0.8c0.2,0.5,0.3,1,0.1,1.5c-0.9,1.9-0.3,4.1,1.4,5.3c0.4,0.3,0.7,0.8,0.7,1.3c0,1,1.4,1,1.5,0.2
		C37.6,18.9,37.1,18,36.2,17.4z"/>
	<g>
		<path class="st0" d="M39.6,25.6l-7.4-7.4c-0.3-0.3-0.8-0.5-1.3-0.5H10.1v0c-0.7,0-1.2,0.5-1.2,1.2v13.6c0,1,0.8,1.8,1.8,1.8h1.2
			c0.1,0.9,0.6,1.7,1.2,2.4h-9v1.2h28.4c2.1,0,3.8-1.5,4.1-3.6H38c1,0,1.8-0.8,1.8-1.8V26C39.7,25.9,39.7,25.7,39.6,25.6z M16,36.7
			c-1.6,0-3-1.3-3-3c0-1.6,1.3-3,3-3c1.6,0,3,1.3,3,3C19,35.4,17.7,36.7,16,36.7z M18.9,36.7c0.7-0.6,1.1-1.5,1.2-2.4h8.4
			c0.1,0.9,0.6,1.7,1.2,2.4H18.9z M32.6,36.7c-1.6,0-3-1.3-3-3c0-1.6,1.3-3,3-3c1.6,0,3,1.3,3,3C35.6,35.4,34.3,36.7,32.6,36.7z
			 M31,18.9c0.2,0,0.3,0.1,0.4,0.2l1,1h-2.7c-0.7,0-1.2,0.5-1.2,1.2v5.3c0,0.7,0.5,1.2,1.2,1.2h8.9v4.7c0,0.3-0.3,0.6-0.6,0.6h-1.2
			c-0.3-2.3-2.4-3.8-4.7-3.5c-1.8,0.3-3.3,1.7-3.5,3.5h-8.4c-0.3-2.3-2.4-3.8-4.7-3.5c-1.8,0.3-3.3,1.7-3.5,3.5h-1.2
			c-0.3,0-0.6-0.3-0.6-0.6v-13c0-0.3,0.3-0.6,0.6-0.6H31z M38.6,26.6h-8.9v-5.3h3.9l5,5V26.6z"/>
		<path class="st0" d="M16,33.2L16,33.2c0.3,0,0.6,0.3,0.6,0.6l0,0c0,0.3-0.3,0.6-0.6,0.6h0c-0.3,0-0.6-0.3-0.6-0.6l0,0
			C15.4,33.4,15.7,33.2,16,33.2z"/>
		<path class="st0" d="M32.6,33.2L32.6,33.2c0.3,0,0.6,0.3,0.6,0.6l0,0c0,0.3-0.3,0.6-0.6,0.6l0,0c-0.3,0-0.6-0.3-0.6-0.6l0,0
			C32,33.4,32.3,33.2,32.6,33.2z"/>
		<rect x="4.2" y="31.4" class="st0" width="3" height="1.2"/>
		<rect x="5.4" y="29" class="st0" width="1.8" height="1.2"/>
		<rect x="6" y="26.6" class="st0" width="1.2" height="1.2"/>
	</g>
	<path class="st0" d="M16.8,15.4C16.8,15.4,16.8,15.4,16.8,15.4c0.5,0,0.8,0.2,1,0.6l0.9,1.7l1.8,0l0.9-1.7c0.2-0.4,0.6-0.6,1-0.6
		c0.9,0,1.5,0.9,1.1,1.7c-0.2,0.4-0.6,0.6-1,0.6h2c0.9-1.6-0.3-3.6-2.1-3.5c-0.8,0-1.5,0.5-1.9,1.2L19.6,17l-0.8-1.6
		c-0.4-0.7-1.1-1.2-1.9-1.2c-1.8-0.1-3,1.9-2.1,3.5l2,0c-0.4,0-0.8-0.2-1-0.6C15.3,16.3,15.9,15.4,16.8,15.4"/>
	<rect x="20.3" y="18.9" class="st0" width="1.2" height="14.2"/>
	<rect x="17.8" y="18.9" class="st0" width="1.2" height="12.2"/>
</g>
</svg>
