<?xml version="1.0" encoding="utf-8"?>
<!-- Generator: Adobe Illustrator 25.3.1, SVG Export Plug-In . SVG Version: 6.00 Build 0)  -->
<svg version="1.1" id="Layer_1" xmlns="http://www.w3.org/2000/svg" xmlns:xlink="http://www.w3.org/1999/xlink" x="0px" y="0px"
	 viewBox="0 0 40 40" style="enable-background:new 0 0 40 40;" xml:space="preserve">
<style type="text/css">
	.st0{fill:#9F236B;}
</style>
<g>
	<g>
		<path class="st0" d="M35.5,21.3c-1.7,1.2-2.3,3.4-1.4,5.3c0.2,0.5,0.2,1-0.1,1.5c-0.3,0.5-0.7,0.7-1.2,0.8
			c-2.1,0.2-3.7,1.8-3.9,3.9c0,0.5-0.3,1-0.8,1.2c-0.5,0.3-1,0.3-1.5,0.1c-1.9-0.9-4.1-0.3-5.3,1.4c-0.6,0.9-2,0.9-2.6,0
			c-0.8-1.1-2.1-1.8-3.5-1.8c-0.6,0-1.2,0.1-1.8,0.4c-0.5,0.2-1,0.2-1.5-0.1c-0.5-0.3-0.7-0.7-0.8-1.2c-0.2-2.1-1.8-3.7-3.9-3.9
			c-0.5,0-1-0.3-1.2-0.8c-0.3-0.5-0.3-1-0.1-1.5c0.9-1.9,0.3-4.1-1.4-5.3C4,21,3.8,20.5,3.8,20c0-0.5,0.2-1,0.7-1.3
			c1.7-1.2,2.3-3.4,1.4-5.3c-0.2-0.5-0.2-1,0.1-1.5c0.3-0.5,0.7-0.7,1.2-0.8c2.1-0.2,3.7-1.8,3.9-3.9c0-0.5,0.3-1,0.8-1.2
			c0.5-0.3,1-0.3,1.5-0.1c1.9,0.9,4.1,0.3,5.3-1.4c0.6-0.9,2-0.9,2.6,0l0,0l0,0l0.5,0.7l0.1,0c1.3,1.2,3.2,1.6,4.8,0.8
			c0.5-0.2,1-0.2,1.5,0.1c0.5,0.3,0.7,0.7,0.8,1.2c0.2,2.1,1.8,3.7,3.9,3.9c0.5,0,1,0.3,1.2,0.8s0.3,1,0.1,1.5
			c-0.9,1.9-0.3,4.1,1.4,5.3c0.4,0.3,0.7,0.8,0.7,1.3C36.2,20.5,36,21,35.5,21.3 M36.5,17.4c-1.1-0.7-1.4-2.1-0.9-3.3
			c0.4-1,0.4-2.1-0.1-3c-0.5-0.9-1.5-1.5-2.5-1.6c-1.3-0.1-2.3-1.1-2.4-2.4c-0.1-1.1-0.7-2-1.6-2.5C28,4,26.9,4,26,4.4
			c-1.2,0.5-2.5,0.2-3.3-0.9C22,2.7,21.1,2.2,20,2.2c-1.1,0-2,0.5-2.6,1.4c-0.7,1.1-2.1,1.4-3.3,0.9c-1-0.4-2.1-0.4-3,0.1
			C10.2,5.1,9.6,6,9.5,7.1C9.4,8.4,8.4,9.4,7.1,9.5c-1.1,0.1-2,0.7-2.5,1.6c-0.5,0.9-0.6,2-0.1,3c0.5,1.2,0.2,2.6-0.9,3.3
			C2.7,18,2.2,18.9,2.2,20c0,1.1,0.5,2,1.4,2.6c1.1,0.7,1.4,2.1,0.9,3.3c-0.4,1-0.4,2.1,0.1,3c0.5,0.9,1.5,1.5,2.5,1.6
			c1.3,0.1,2.3,1.1,2.4,2.4c0.1,1.1,0.7,2,1.6,2.5c0.9,0.5,2,0.6,3,0.1c1.1-0.5,2.6-0.1,3.3,0.9c0.6,0.9,1.6,1.4,2.6,1.4
			c1.1,0,2-0.5,2.6-1.4c0.7-1.1,2.1-1.4,3.3-0.9c1,0.4,2.1,0.4,3-0.1c0.9-0.5,1.5-1.4,1.6-2.5c0.1-1.3,1.1-2.3,2.4-2.4
			c1.1-0.1,2-0.7,2.5-1.6c0.5-0.9,0.6-2,0.1-3c-0.5-1.2-0.2-2.5,0.9-3.3c0.9-0.6,1.4-1.6,1.4-2.6C37.8,18.9,37.3,18,36.5,17.4"/>
		<path class="st0" d="M28.5,22.6l-3.9,4.8c0,0,0,0,0,0c-0.5,0.7-1.4,1.1-2.3,1.1h-5.1c-1.3,0-2.3-0.2-3.5-0.5v-3.5v-0.9l0.4-0.3
			c1.1-1,2.7-1,3.8,0c0.5,0.4,1.1,0.7,1.8,0.7h2.6c0.3,0,0.6,0.2,0.6,0.6c0,0.3-0.3,0.6-0.6,0.6h-4c-0.3,0-0.6,0.2-0.6,0.6
			c0,0.3,0.3,0.6,0.6,0.6h4.4c0.5,0,0.9-0.2,1.2-0.5c0.1-0.1,3.6-3.7,3.7-3.8l0,0l0,0c0.3-0.4,1-0.1,1,0.4
			C28.6,22.4,28.5,22.5,28.5,22.6 M18.3,18.3v3.9c-0.7-0.5-1.5-0.7-2.3-0.7c-0.8,0-1.6,0.2-2.3,0.7v-3.9H18.3z M12.6,17.2v-1.7
			c0-0.3,0.3-0.6,0.6-0.6h5.2v2.2H12.6z M17.1,11.4C17.1,11.4,17.1,11.4,17.1,11.4c0.5,0,0.8,0.2,1,0.6l0.9,1.7h-2
			c-0.4,0-0.8-0.2-1-0.6C15.6,12.4,16.2,11.4,17.1,11.4 M19.4,14.9h1.1v8h-0.9c-0.1,0-0.1,0-0.2,0V14.9z M21.8,12
			c0.2-0.4,0.6-0.6,1-0.6c0.9,0,1.5,0.9,1.1,1.7c-0.2,0.4-0.6,0.6-1,0.6h-2L21.8,12z M26.3,18.3v3.3l-2.4,2.5
			c-0.2-0.7-0.9-1.2-1.6-1.2h-0.6v-4.6H26.3z M26.9,14.9c0.3,0,0.6,0.3,0.6,0.6v1.7h-5.7v-2.2C21.9,14.9,26.7,14.9,26.9,14.9
			 M12.6,24.6v4h-1.1v-5.7h1.1V24.6z M27.4,20.7v-2.4H28c0.3,0,0.6-0.2,0.6-0.6v-2.2c0-0.9-0.8-1.7-1.7-1.7h-2.1
			c0.9-1.6-0.3-3.6-2.1-3.5c-0.8,0-1.5,0.5-1.9,1.2l-0.8,1.6l-0.8-1.6c-0.4-0.7-1.1-1.2-1.9-1.2c-1.8-0.1-3,1.9-2.1,3.5h-2
			c-0.9,0-1.7,0.8-1.7,1.7v2.2c0,0.3,0.3,0.6,0.6,0.6h0.6v3.5h-1.7c-0.3,0-0.6,0.2-0.6,0.6v6.8c0,0.3,0.2,0.6,0.6,0.6h2.3
			c0.3,0,0.5-0.2,0.6-0.5c1.1,0.3,2.3,0.5,3.5,0.5h5.1c1.2,0,2.4-0.6,3.2-1.6c0,0,3.9-4.8,3.9-4.8c0.2-0.3,0.3-0.6,0.3-1
			C29.7,21.1,28.6,20.3,27.4,20.7"/>
	</g>
</g>
</svg>
