<?xml version="1.0" encoding="utf-8"?>
<!-- Generator: Adobe Illustrator 23.0.2, SVG Export Plug-In . SVG Version: 6.00 Build 0)  -->
<svg version="1.1" id="Layer_1" xmlns="http://www.w3.org/2000/svg" xmlns:xlink="http://www.w3.org/1999/xlink" x="0px" y="0px"
	 viewBox="0 0 48 40" style="enable-background:new 0 0 48 40;" xml:space="preserve">
<style type="text/css">
	.st0{fill:#9F236B;}
	.st1{fill:#ACABAE;}
	.st2{fill:#A8A8AA;}
</style>
<path class="st0" d="M45.19,30.3c0,1.38-1.12,2.5-2.51,2.5H21.97c-1.38,0-2.51-1.12-2.51-2.5V18.37c0-1.38,1.12-2.51,2.51-2.51
	h20.71c1.38,0,2.51,1.12,2.51,2.51V30.3z M17.84,18.37v9.64H15.4V17.16H7.18v10.84H4.76V12.83c0.42-0.13,0.8-0.35,1.1-0.65
	c0.5,0.49,1.18,0.8,1.93,0.8c0.75,0,1.43-0.3,1.93-0.8c0.5,0.49,1.18,0.8,1.93,0.8c0.75,0,1.43-0.3,1.93-0.8
	c0.5,0.49,1.18,0.8,1.93,0.8c0.75,0,1.43-0.3,1.93-0.8c0.5,0.49,1.18,0.8,1.93,0.8c0.75,0,1.43-0.3,1.93-0.8
	c0.5,0.49,1.18,0.8,1.93,0.8c0.75,0,1.43-0.3,1.93-0.8c0.5,0.49,1.18,0.8,1.93,0.8c0.75,0,1.43-0.3,1.93-0.8
	c0.5,0.49,1.18,0.8,1.93,0.8c0.75,0,1.43-0.3,1.93-0.8c0.3,0.3,0.68,0.52,1.1,0.65v1.4h-12C19.7,14.24,17.84,16.09,17.84,18.37
	 M13.78,28.01H8.8v-3.8h0.81v-1.63H8.8v-3.8h4.98V28.01z M3.93,11.35c-0.62,0-1.12-0.5-1.12-1.12V3.29h33.11v6.94
	c0,0.62-0.5,1.12-1.12,1.12s-1.12-0.5-1.12-1.12V7.15c0-0.45-0.36-0.81-0.81-0.81s-0.81,0.36-0.81,0.81v3.08
	c0,0.62-0.5,1.12-1.12,1.12c-0.62,0-1.12-0.5-1.12-1.12V7.15c0-0.45-0.36-0.81-0.81-0.81S28.2,6.7,28.2,7.15v3.08
	c0,0.62-0.5,1.12-1.12,1.12c-0.62,0-1.12-0.5-1.12-1.12V7.15c0-0.45-0.36-0.81-0.81-0.81s-0.81,0.36-0.81,0.81v3.08
	c0,0.62-0.5,1.12-1.12,1.12c-0.62,0-1.12-0.5-1.12-1.12V7.15c0-0.45-0.36-0.81-0.81-0.81c-0.45,0-0.81,0.36-0.81,0.81v3.08
	c0,0.62-0.5,1.12-1.12,1.12c-0.62,0-1.12-0.5-1.12-1.12V7.15c0-0.45-0.36-0.81-0.81-0.81c-0.45,0-0.81,0.36-0.81,0.81v3.08
	c0,0.62-0.5,1.12-1.12,1.12c-0.62,0-1.12-0.5-1.12-1.12V7.15c0-0.45-0.36-0.81-0.81-0.81c-0.45,0-0.81,0.36-0.81,0.81v3.08
	c0,0.62-0.5,1.12-1.12,1.12c-0.62,0-1.12-0.5-1.12-1.12V7.15c0-0.45-0.36-0.81-0.81-0.81C9.27,6.34,8.9,6.7,8.9,7.15v3.08
	c0,0.62-0.5,1.12-1.12,1.12c-0.62,0-1.12-0.5-1.12-1.12V7.15c0-0.45-0.36-0.81-0.81-0.81c-0.45,0-0.81,0.36-0.81,0.81v3.08
	C5.05,10.85,4.54,11.35,3.93,11.35 M42.68,14.24H35.6v-1.39c1.12-0.34,1.95-1.38,1.95-2.61V1.67H1.19v8.56
	c0,1.23,0.82,2.27,1.95,2.61v15.97c0,0.45,0.36,0.81,0.81,0.81h3.23h8.23h2.44v0.67c0,2.28,1.85,4.13,4.13,4.13h9.54v2.28h-5.69
	c-0.45,0-0.81,0.36-0.81,0.81c0,0.45,0.36,0.81,0.81,0.81h13c0.45,0,0.81-0.36,0.81-0.81c0-0.45-0.36-0.81-0.81-0.81h-5.69v-2.28
	h9.54c2.28,0,4.13-1.85,4.13-4.13V18.37C46.81,16.09,44.96,14.24,42.68,14.24"/>
</svg>
