<?xml version="1.0" encoding="utf-8"?>
<!-- Generator: Adobe Illustrator 23.0.2, SVG Export Plug-In . SVG Version: 6.00 Build 0)  -->
<svg version="1.1" id="Layer_1" xmlns="http://www.w3.org/2000/svg" xmlns:xlink="http://www.w3.org/1999/xlink" x="0px" y="0px"
	 viewBox="0 0 40 40" style="enable-background:new 0 0 40 40;" xml:space="preserve">
<style type="text/css">
	.st0{fill:#9F236B;}
	.st1{fill:#ACABAE;}
	.st2{fill:#A8A8AA;}
</style>
<g>
	<path class="st0" d="M35.58,21.31c-1.71,1.2-2.31,3.45-1.43,5.34c0.22,0.48,0.2,1.02-0.07,1.48c-0.26,0.46-0.72,0.75-1.25,0.8
		c-2.08,0.19-3.73,1.83-3.91,3.91c-0.05,0.53-0.34,0.98-0.8,1.25c-0.46,0.26-1,0.29-1.48,0.07c-1.89-0.88-4.14-0.28-5.34,1.43
		c-0.61,0.86-2.02,0.87-2.63,0c-0.8-1.15-2.12-1.83-3.52-1.83c-0.63,0-1.24,0.14-1.82,0.4c-0.48,0.22-1.02,0.2-1.48-0.07
		c-0.47-0.27-0.75-0.71-0.8-1.25c-0.18-2.08-1.83-3.72-3.91-3.91c-0.54-0.05-0.98-0.33-1.25-0.8c-0.27-0.47-0.29-0.99-0.07-1.48
		c0.88-1.89,0.28-4.14-1.43-5.34c-0.43-0.3-0.68-0.78-0.68-1.31s0.25-1.01,0.68-1.31c1.71-1.2,2.31-3.45,1.43-5.34
		c-0.22-0.48-0.2-1.02,0.07-1.48c0.27-0.47,0.71-0.75,1.25-0.8c2.08-0.18,3.73-1.83,3.91-3.91c0.05-0.54,0.33-0.98,0.8-1.25
		c0.46-0.27,1-0.29,1.48-0.07c1.9,0.88,4.14,0.28,5.34-1.43c0.61-0.87,2.01-0.87,2.62-0.01l0.01,0.01c0,0,0,0,0,0l0.47,0.67
		l0.06-0.05c1.26,1.22,3.17,1.57,4.81,0.8c0.48-0.22,1.02-0.2,1.48,0.07c0.46,0.27,0.75,0.72,0.8,1.25
		c0.19,2.08,1.83,3.72,3.91,3.91c0.53,0.05,0.98,0.34,1.25,0.8c0.27,0.46,0.29,1,0.07,1.48c-0.88,1.9-0.28,4.14,1.43,5.34
		c0.44,0.31,0.68,0.77,0.68,1.31S36.03,21.01,35.58,21.31 M36.53,17.34c-1.06-0.74-1.43-2.14-0.89-3.31
		c0.45-0.97,0.4-2.06-0.13-2.99c-0.54-0.93-1.46-1.51-2.52-1.61c-1.29-0.11-2.31-1.13-2.42-2.42c-0.09-1.07-0.68-1.99-1.61-2.52
		c-0.93-0.54-2.02-0.58-2.99-0.13c-1.17,0.55-2.56,0.17-3.31-0.89C22.04,2.6,21.07,2.09,20,2.09c-1.07,0-2.04,0.5-2.65,1.38
		c-0.74,1.06-2.14,1.43-3.31,0.89c-0.97-0.45-2.06-0.4-2.99,0.13c-0.93,0.54-1.51,1.45-1.61,2.52C9.32,8.3,8.31,9.32,7.02,9.44
		c-1.07,0.09-1.99,0.68-2.52,1.61c-0.53,0.93-0.58,2.02-0.13,2.99c0.54,1.17,0.17,2.57-0.89,3.31C2.6,17.96,2.09,18.93,2.09,20
		s0.5,2.04,1.38,2.65c1.06,0.74,1.43,2.14,0.89,3.31c-0.45,0.97-0.4,2.06,0.13,2.99c0.54,0.93,1.46,1.51,2.52,1.61
		c1.29,0.11,2.31,1.13,2.42,2.42c0.1,1.07,0.68,1.99,1.61,2.52c0.93,0.53,2.01,0.58,2.99,0.13c1.14-0.53,2.58-0.15,3.31,0.89
		c0.62,0.88,1.59,1.38,2.65,1.38c1.07,0,2.04-0.5,2.65-1.38c0.75-1.06,2.14-1.43,3.31-0.89c0.97,0.45,2.06,0.4,2.99-0.13
		c0.93-0.54,1.51-1.45,1.61-2.52c0.12-1.29,1.13-2.31,2.42-2.42c1.07-0.09,1.99-0.68,2.52-1.61c0.53-0.93,0.58-2.02,0.13-2.99
		c-0.55-1.17-0.17-2.56,0.89-3.31c0.88-0.61,1.38-1.58,1.38-2.65C37.91,18.93,37.4,17.96,36.53,17.34"/>
	<path class="st0" d="M26.15,25.91h-12.3c-0.77,0-1.4-0.63-1.4-1.4v-7.46l6.07,3.78c0.46,0.28,0.97,0.42,1.48,0.42
		c0.51,0,1.02-0.14,1.48-0.42l6.07-3.78v7.46C27.55,25.28,26.92,25.91,26.15,25.91 M13.09,14.97l6.17-3.95
		c0.45-0.28,1.02-0.28,1.47,0l6.17,3.95c0.21,0.13,0.38,0.32,0.49,0.53l-6.66,4.14c-0.46,0.28-1.02,0.28-1.48,0l-6.66-4.14
		C12.71,15.29,12.88,15.1,13.09,14.97 M27.66,13.8l-6.18-3.95c0,0-0.01,0-0.01-0.01c-0.91-0.57-2.04-0.57-2.95,0c0,0,0,0-0.01,0.01
		l-6.18,3.95c-0.81,0.52-1.29,1.4-1.29,2.36v8.37c0,1.54,1.26,2.8,2.8,2.8h12.3c1.51,0,2.73-1.2,2.79-2.7
		c0-0.02,0.01-0.03,0.01-0.05v-8.41C28.95,15.19,28.47,14.31,27.66,13.8"/>
</g>
</svg>
