<?xml version="1.0" encoding="utf-8"?>
<!-- Generator: Adobe Illustrator 23.0.2, SVG Export Plug-In . SVG Version: 6.00 Build 0)  -->
<svg version="1.1" id="Layer_1" xmlns="http://www.w3.org/2000/svg" xmlns:xlink="http://www.w3.org/1999/xlink" x="0px" y="0px"
	 viewBox="0 0 40 40" style="enable-background:new 0 0 40 40;" xml:space="preserve">
<style type="text/css">
	.st0{fill:#9F236B;}
	.st1{fill:#ACABAE;}
	.st2{fill:#A8A8AA;}
</style>
<g>
	<path class="st0" d="M35.58,21.31c-1.71,1.2-2.31,3.45-1.43,5.34c0.22,0.48,0.2,1.02-0.07,1.48c-0.26,0.46-0.72,0.75-1.25,0.8
		c-2.08,0.18-3.73,1.83-3.91,3.91c-0.05,0.53-0.34,0.98-0.8,1.25c-0.46,0.26-1,0.29-1.48,0.07c-1.89-0.88-4.14-0.28-5.34,1.43
		c-0.61,0.86-2.02,0.87-2.63,0c-0.8-1.15-2.12-1.83-3.52-1.83c-0.63,0-1.24,0.14-1.82,0.4c-0.48,0.22-1.02,0.2-1.48-0.07
		c-0.47-0.27-0.75-0.71-0.8-1.25c-0.18-2.08-1.83-3.73-3.91-3.91c-0.54-0.05-0.98-0.33-1.25-0.8c-0.27-0.47-0.29-0.99-0.07-1.48
		c0.88-1.89,0.28-4.14-1.43-5.34c-0.43-0.3-0.68-0.78-0.68-1.31c0-0.53,0.25-1.01,0.68-1.31c1.71-1.2,2.31-3.45,1.43-5.34
		c-0.22-0.48-0.2-1.02,0.07-1.48c0.27-0.47,0.71-0.75,1.25-0.8c2.08-0.18,3.73-1.83,3.91-3.91c0.05-0.54,0.33-0.98,0.8-1.25
		c0.46-0.27,1-0.29,1.48-0.07c1.9,0.88,4.14,0.28,5.34-1.43c0.61-0.87,2.01-0.87,2.62-0.01l0.01,0.01c0,0,0,0,0,0l0.47,0.67
		l0.06-0.05c1.26,1.22,3.17,1.57,4.81,0.8c0.48-0.22,1.02-0.2,1.48,0.07c0.46,0.27,0.75,0.72,0.8,1.25
		c0.19,2.08,1.83,3.72,3.91,3.91c0.53,0.05,0.98,0.34,1.25,0.8c0.27,0.46,0.29,1,0.07,1.48c-0.88,1.9-0.28,4.14,1.43,5.34
		c0.44,0.31,0.68,0.77,0.68,1.31C36.27,20.54,36.03,21,35.58,21.31 M36.53,17.35c-1.06-0.74-1.43-2.14-0.89-3.31
		c0.45-0.97,0.4-2.06-0.13-2.99c-0.54-0.93-1.46-1.51-2.52-1.61c-1.29-0.11-2.31-1.13-2.42-2.42c-0.09-1.07-0.68-1.99-1.61-2.52
		c-0.93-0.54-2.02-0.58-2.99-0.13c-1.17,0.55-2.56,0.17-3.31-0.89C22.04,2.6,21.07,2.1,20,2.1c-1.07,0-2.04,0.5-2.65,1.38
		c-0.74,1.06-2.14,1.43-3.31,0.89c-0.97-0.45-2.06-0.4-2.99,0.13c-0.93,0.54-1.51,1.45-1.61,2.52C9.32,8.31,8.31,9.32,7.02,9.44
		c-1.07,0.09-1.99,0.68-2.52,1.61c-0.53,0.93-0.58,2.02-0.13,2.99c0.54,1.17,0.17,2.57-0.89,3.31C2.6,17.96,2.09,18.93,2.09,20
		c0,1.07,0.5,2.04,1.38,2.65c1.06,0.74,1.43,2.14,0.89,3.31c-0.45,0.97-0.4,2.06,0.13,2.99c0.54,0.93,1.46,1.51,2.52,1.61
		c1.29,0.11,2.31,1.13,2.42,2.42c0.1,1.07,0.68,1.99,1.61,2.52c0.93,0.54,2.01,0.59,2.99,0.13c1.14-0.53,2.58-0.15,3.31,0.89
		c0.62,0.88,1.59,1.38,2.65,1.38c1.07,0,2.04-0.5,2.65-1.38c0.75-1.06,2.14-1.43,3.31-0.89c0.97,0.45,2.06,0.4,2.99-0.13
		c0.93-0.54,1.51-1.45,1.61-2.52c0.12-1.29,1.13-2.31,2.42-2.42c1.07-0.09,1.99-0.68,2.52-1.61c0.53-0.93,0.58-2.02,0.13-2.99
		c-0.55-1.17-0.17-2.56,0.89-3.31c0.88-0.61,1.38-1.58,1.38-2.65C37.91,18.93,37.4,17.96,36.53,17.35"/>
	<path class="st0" d="M21.02,21.49l2.25-2.05c0.87,1.64,2.38,4.47,3.08,5.81c0.44,0.83,0.41,1.8-0.05,2.58L21.02,21.49z
		 M16.99,27.52c0.1,0.23,0.05,0.49-0.12,0.67l-0.57,0.57l-1.94-3.24l0.25-0.25c0.23-0.24,0.23-0.62,0-0.85
		c-0.23-0.23-0.61-0.23-0.85,0l-0.27,0.27l-3.13-1.87l0.57-0.57c0.17-0.17,0.44-0.22,0.67-0.12l2.43,1.09
		c0.24,0.11,0.51,0.05,0.69-0.14c0,0,10.45-11.47,10.45-11.47c0.64-0.72,1.74-0.75,2.42-0.07c0.67,0.67,0.65,1.78-0.07,2.42
		c0,0-11.47,10.45-11.47,10.45c-0.19,0.17-0.25,0.45-0.14,0.69L16.99,27.52z M11.29,12.82c0.78-0.46,1.75-0.5,2.58-0.05
		c0.59,0.31,5.18,2.75,5.81,3.08l-2.05,2.25L11.29,12.82z M27.41,24.69l-3.23-6.08l4.13-3.76c1.23-1.09,1.29-2.99,0.12-4.16
		c-1.16-1.16-3.06-1.11-4.16,0.12l-3.76,4.13l-6.08-3.23c-1.48-0.79-3.32-0.53-4.52,0.68c-0.25,0.25-0.23,0.66,0.04,0.89l6.87,5.72
		l-2.7,2.96l-2.03-0.91c-0.68-0.3-1.48-0.15-2.01,0.37l-1.11,1.11c-0.28,0.28-0.22,0.74,0.12,0.94l3.53,2.12l-1.35,1.35
		c-0.23,0.23-0.23,0.61,0,0.85c0.23,0.23,0.61,0.23,0.85,0l1.38-1.38l2.18,3.64c0.2,0.34,0.66,0.39,0.94,0.11l1.11-1.11
		c0.52-0.52,0.67-1.33,0.37-2.01L17.17,25l2.96-2.7l5.72,6.87c0.22,0.27,0.63,0.29,0.89,0.04C27.92,28.02,28.21,26.19,27.41,24.69"
		/>
</g>
</svg>
