<?xml version="1.0" encoding="utf-8"?>
<!-- Generator: Adobe Illustrator 22.1.0, SVG Export Plug-In . SVG Version: 6.00 Build 0)  -->
<svg version="1.1" id="Layer_1" xmlns="http://www.w3.org/2000/svg" xmlns:xlink="http://www.w3.org/1999/xlink" x="0px" y="0px"
	 viewBox="0 0 40 40" style="enable-background:new 0 0 40 40;" xml:space="preserve">
<style type="text/css">
	.st0{fill:#9F236B;}
</style>
<g>
	<path class="st0" d="M36.2,21.4c-1.8,1.2-2.4,3.6-1.5,5.6c0.2,0.5,0.2,1.1-0.1,1.5c-0.3,0.5-0.7,0.8-1.3,0.8
		c-2.2,0.2-3.9,1.9-4.1,4.1c0,0.5-0.3,1-0.8,1.3c-0.5,0.3-1,0.3-1.5,0.1c-2-0.9-4.3-0.3-5.6,1.5c-0.6,0.9-2.1,0.9-2.7,0
		c-0.8-1.2-2.2-1.9-3.7-1.9c-0.7,0-1.3,0.1-1.9,0.4c-0.5,0.2-1.1,0.2-1.5-0.1c-0.5-0.3-0.8-0.7-0.8-1.3c-0.2-2.2-1.9-3.9-4.1-4.1
		c-0.6,0-1-0.3-1.3-0.8c-0.3-0.5-0.3-1-0.1-1.5c0.9-2,0.3-4.3-1.5-5.6C3.4,21,3.1,20.6,3.1,20c0-0.6,0.3-1,0.7-1.4
		c1.8-1.2,2.4-3.6,1.5-5.6c-0.2-0.5-0.2-1.1,0.1-1.5c0.3-0.5,0.7-0.8,1.3-0.8c2.2-0.2,3.9-1.9,4.1-4.1c0-0.6,0.3-1,0.8-1.3
		c0.5-0.3,1-0.3,1.5-0.1c2,0.9,4.3,0.3,5.5-1.5c0.6-0.9,2.1-0.9,2.7,0l0,0c0,0,0,0,0,0l0.6,0.6c1.3,1.3,3.3,1.6,5,0.8
		c0.5-0.2,1.1-0.2,1.5,0.1c0.5,0.3,0.8,0.7,0.8,1.3c0.2,2.2,1.9,3.9,4.1,4.1c0.5,0,1,0.3,1.3,0.8c0.3,0.5,0.3,1,0.1,1.5
		c-0.9,2-0.3,4.3,1.5,5.6c0.5,0.3,0.7,0.8,0.7,1.4C36.9,20.6,36.7,21,36.2,21.4 M37.2,17.2c-1.1-0.8-1.5-2.2-0.9-3.4
		c0.5-1,0.4-2.1-0.1-3.1c-0.6-1-1.5-1.6-2.6-1.7c-1.3-0.1-2.4-1.2-2.5-2.5c-0.1-1.1-0.7-2.1-1.7-2.6c-1-0.6-2.1-0.6-3.1-0.1
		c-1.2,0.6-2.7,0.2-3.4-0.9c-0.6-0.9-1.6-1.4-2.8-1.4c-1.1,0-2.1,0.5-2.8,1.4c-0.8,1.1-2.2,1.5-3.4,0.9c-1-0.5-2.1-0.4-3.1,0.1
		C9.7,4.4,9.1,5.4,9,6.5C8.9,7.8,7.8,8.9,6.5,9c-1.1,0.1-2.1,0.7-2.6,1.7c-0.6,1-0.6,2.1-0.1,3.1c0.6,1.2,0.2,2.7-0.9,3.4
		c-0.9,0.6-1.4,1.6-1.4,2.8s0.5,2.1,1.4,2.8c1.1,0.8,1.5,2.2,0.9,3.4c-0.5,1-0.4,2.1,0.1,3.1c0.6,1,1.5,1.6,2.6,1.7
		c1.3,0.1,2.4,1.2,2.5,2.5c0.1,1.1,0.7,2.1,1.7,2.6c1,0.6,2.1,0.6,3.1,0.1c1.2-0.6,2.7-0.2,3.4,0.9c0.6,0.9,1.6,1.4,2.8,1.4
		c1.1,0,2.1-0.5,2.8-1.4c0.8-1.1,2.2-1.5,3.4-0.9c1,0.5,2.1,0.4,3.1-0.1c1-0.6,1.6-1.5,1.7-2.6c0.1-1.3,1.2-2.4,2.5-2.5
		c1.1-0.1,2.1-0.7,2.6-1.7c0.6-1,0.6-2.1,0.1-3.1c-0.6-1.2-0.2-2.7,0.9-3.4c0.9-0.6,1.4-1.6,1.4-2.8C38.6,18.9,38.1,17.9,37.2,17.2"
		/>
	<path class="st0" d="M30.3,13.6L27.7,11c-0.3-0.3-0.9-0.3-1.2,0l-9.1,9.1c-2-1.4-4.7-1.2-6.5,0.5c-1,1-1.5,2.2-1.5,3.6
		c0,1.4,0.5,2.6,1.5,3.6c1,1,2.2,1.5,3.6,1.5c1.4,0,2.6-0.5,3.6-1.5c1-1,1.5-2.2,1.5-3.6c0-1.1-0.3-2.1-0.9-2.9l6-6l1.8,1.8
		c0.2,0.2,0.4,0.2,0.6,0.2c0.2,0,0.4-0.1,0.6-0.2c0.3-0.3,0.3-0.9,0-1.2l-1.8-1.8l1.3-1.3l2,2c0.2,0.2,0.4,0.2,0.6,0.2
		c0.2,0,0.4-0.1,0.6-0.2C30.7,14.5,30.7,14,30.3,13.6z M16.9,26.6c-1.3,1.3-3.5,1.3-4.8,0c-0.6-0.6-1-1.5-1-2.4c0-0.9,0.4-1.7,1-2.4
		c0.7-0.7,1.5-1,2.4-1c0.9,0,1.7,0.3,2.4,1c0.6,0.6,1,1.5,1,2.4C17.9,25.1,17.5,25.9,16.9,26.6z"/>
</g>
</svg>
