<?xml version="1.0" encoding="utf-8"?>
<!-- Generator: Adobe Illustrator 25.3.1, SVG Export Plug-In . SVG Version: 6.00 Build 0)  -->
<svg version="1.1" id="Layer_1" xmlns="http://www.w3.org/2000/svg" xmlns:xlink="http://www.w3.org/1999/xlink" x="0px" y="0px"
	 viewBox="0 0 40 40" style="enable-background:new 0 0 40 40;" xml:space="preserve">
<style type="text/css">
	.st0{fill:#9F236B;}
</style>
<g>
	<path class="st0" d="M36.6,15.5c-1.1-0.8-1.4-2.1-0.9-3.3c0.5-1,0.4-2-0.1-3c-0.6-1-1.4-1.5-2.5-1.6c-1.3-0.1-2.3-1.2-2.4-2.4
		c-0.1-1.1-0.7-2-1.6-2.5c-1-0.6-2-0.6-3-0.1c-1.2,0.6-2.6,0.2-3.3-0.9c-0.6-0.9-1.5-1.3-2.7-1.3c-1.1,0-2,0.5-2.7,1.3
		c-0.8,1.1-2.1,1.4-3.3,0.9c-1-0.5-2-0.4-3,0.1c-1.1,0.5-1.6,1.4-1.7,2.5C9.3,6.5,8.2,7.5,7,7.6C5.9,7.7,5,8.3,4.5,9.2
		c-0.6,1-0.6,2-0.1,3c0.6,1.2,0.2,2.6-0.9,3.3c-0.9,0.6-1.3,1.5-1.3,2.7c0,1.1,0.5,2,1.3,2.7C4.6,21.7,5,23,4.4,24.2
		c-0.5,1-0.4,2,0.1,3c0.6,1,1.4,1.5,2.5,1.6c1.3,0.1,2.3,1.2,2.4,2.4c0.1,1.1,0.7,2,1.6,2.5c0.4,0.2,0.9,0.5,1.3,0.3
		c0.4-0.2,0.9-0.7,0.6-1.1c-0.2-0.4-0.8-0.3-1.1-0.5c-0.5-0.3-0.8-0.7-0.8-1.3c-0.2-2.1-1.8-3.8-3.9-3.9c-0.6,0-1-0.3-1.3-0.8
		c-0.3-0.5-0.3-1-0.1-1.4C6.6,23,6,20.8,4.3,19.5c-0.3-0.4-0.6-0.8-0.6-1.3c0-0.6,0.3-1,0.7-1.3c1.7-1.2,2.3-3.5,1.4-5.4
		C5.6,11,5.6,10.4,5.9,10c0.3-0.5,0.7-0.8,1.3-0.8c2.1-0.2,3.8-1.8,3.9-3.9c0-0.6,0.3-1,0.8-1.3c0.5-0.3,1-0.3,1.4-0.1
		c1.9,0.9,4.1,0.3,5.4-1.4c0.6-0.9,2-0.9,2.6,0l0.5,0.7h0.1c1.3,1.3,3.2,1.5,4.8,0.8c0.5-0.2,1.1-0.2,1.4,0.1
		c0.5,0.3,0.8,0.7,0.8,1.3c0.2,2.1,1.8,3.8,3.9,3.9c0.5,0,1,0.3,1.3,0.8c0.3,0.5,0.3,1,0.1,1.4c-0.9,1.9-0.3,4.1,1.4,5.4
		c0.5,0.3,0.7,0.8,0.7,1.3c-0.1,0.6-0.3,1-0.8,1.3c-1.7,1.2-2.3,3.5-1.4,5.4c0.2,0.5,0.2,1.1-0.1,1.4c-0.3,0.5-0.7,0.8-1.3,0.8
		c-2.1,0.2-3.8,1.8-3.9,3.9c0,0.5-0.3,1-0.8,1.3c-0.5,0.3-1,0.3-1.4,0.1c-1.9-0.9-4.1-0.3-5.4,1.4c-0.6,0.9-2,0.9-2.6,0
		c-0.4-0.5-0.7-0.9-1.4-0.7c-0.2,0.1-0.4,0.2-0.4,0.4c-0.1,0.5,0.3,0.7,0.5,1c0.6,0.9,1.5,1.3,2.7,1.3c1.1,0,2-0.5,2.7-1.3
		c0.8-1.1,2.1-1.4,3.3-0.9c1,0.5,2,0.4,3-0.1c1-0.6,1.5-1.4,1.6-2.5c0.1-1.3,1.2-2.3,2.4-2.4c1.1-0.1,2-0.7,2.5-1.6
		c0.6-1,0.6-2,0.1-3c-0.6-1.2-0.2-2.6,0.9-3.3c0.9-0.6,1.3-1.5,1.3-2.7C37.9,17.1,37.4,16.2,36.6,15.5z"/>
	<g>
		<path class="st0" d="M24.7,8.7c0.3-0.2,0.3-0.6,0-0.9c-0.2-0.3-0.6-0.3-0.9,0l-1.5,1.3c-0.3,0.2-0.3,0.6,0,0.9
			c0.2,0.3,0.6,0.3,0.9,0L24.7,8.7z"/>
		<path class="st0" d="M21.3,7.5c-0.1,0.2,0,0.4,0.1,0.6c0.1,0.1,0.2,0.1,0.3,0.2c0.3,0.1,0.7-0.1,0.8-0.4l0.4-1.4
			c0.1-0.3-0.1-0.7-0.4-0.8c-0.3-0.1-0.7,0.1-0.8,0.4L21.3,7.5z"/>
		<path class="st0" d="M24.1,10.8c0,0.1,0.1,0.2,0.1,0.3c0.1,0.2,0.4,0.2,0.6,0.2l1.4-0.3c0.3-0.1,0.6-0.4,0.5-0.7
			C26.6,10,26.3,9.8,26,9.9l-1.4,0.3C24.2,10.2,24,10.5,24.1,10.8z"/>
		<g>
			<path class="st0" d="M22,11.8L16,10.6c-0.3-0.1-0.5,0.1-0.6,0.3c-0.1,0.2-2.2,3.8-3.1,8.5c-0.2,1.1-0.3,2.1-0.3,3.2
				c0,0.8,0.1,1.6,0.3,2.4c0.1,0.2,0.1,0.4,0.2,0.7c0.5,1.6,1.4,2.7,2.5,3.2l-1.3,6.9l-2.8-0.5C10.2,35,9.5,35.4,9.2,36
				c0,0.1-0.1,0.2-0.1,0.3c0,0.1,0,0.2-0.1,0.3c0,0.4,0.1,0.7,0.3,1c0.2,0.3,0.5,0.5,0.9,0.6l6.7,1.3c0.6,0.1,1.2-0.1,1.5-0.6
				c0.1-0.1,0.2-0.3,0.2-0.4c0.1-0.2,0.1-0.4,0.1-0.6c0-0.3-0.1-0.7-0.3-1c-0.2-0.3-0.6-0.5-0.9-0.6l-2.8-0.5l1.3-6.9
				c1.1,0,2.3-0.6,3.3-1.8c0.1-0.1,0.2-0.2,0.2-0.3c0.8-0.9,1.4-2.1,1.9-3.5c0.2-0.7,0.4-1.4,0.6-2.1c0.9-4.7,0.3-8.8,0.3-9
				C22.4,12,22.2,11.8,22,11.8z M17.6,37.7c0,0.1,0,0.2,0,0.2c0,0.1,0,0.2-0.1,0.2c0,0.1-0.2,0.2-0.3,0.2l-6.7-1.3
				c-0.1,0-0.2-0.1-0.2-0.1c-0.1-0.1,0-0.2,0-0.3c0-0.1,0-0.2,0.1-0.3c0.1-0.1,0.2-0.1,0.2-0.1l6.7,1.3
				C17.5,37.6,17.5,37.7,17.6,37.7z M16.2,11.9l5,1c0.1,1.2,0.4,4.5-0.4,8.2c-0.1,0.3-0.1,0.6-0.2,0.9h-7.5c0-0.7,0.1-1.5,0.3-2.3
				C14.2,16,15.7,12.9,16.2,11.9z M19.8,24.4c-0.3,0.6-0.7,1.2-1.1,1.8c-0.7,0.8-1.4,1.3-2,1.5c-0.3,0.1-0.7,0.1-1,0
				c-0.6-0.2-1.1-0.6-1.5-1.3c-0.5-0.8-0.7-1.6-0.8-2.5c0-0.3-0.1-0.5-0.1-0.8h7.1C20.2,23.6,20,24,19.8,24.4z"/>
			<path class="st0" d="M19.8,18.9C19.9,19,19.9,19,19.8,18.9c0.4,0,0.6-0.2,0.7-0.6c0.1-1.3,0.1-2.6,0.1-3.9c0-0.3-0.3-0.6-0.6-0.6
				c-0.3,0-0.6,0.3-0.6,0.6c0,1.3,0,2.5-0.1,3.7C19.3,18.6,19.5,18.9,19.8,18.9z"/>
			<path class="st0" d="M20.2,20.8c0,0.3-0.3,0.6-0.6,0.6c-0.3,0-0.6-0.3-0.6-0.6c0-0.3,0.3-0.6,0.6-0.6
				C19.9,20.2,20.2,20.4,20.2,20.8z"/>
		</g>
	</g>
</g>
</svg>
