<?xml version="1.0" encoding="utf-8"?>
<!-- Generator: Adobe Illustrator 23.0.2, SVG Export Plug-In . SVG Version: 6.00 Build 0)  -->
<svg version="1.1" id="Layer_1" xmlns="http://www.w3.org/2000/svg" xmlns:xlink="http://www.w3.org/1999/xlink" x="0px" y="0px"
	 viewBox="0 0 550 110.01" style="enable-background:new 0 0 550 110.01;" xml:space="preserve">
<style type="text/css">
	.st0{fill:#9F236B;}
	.st1{fill:#FFFFFF;}
	.st2{fill:#AB1E56;}
	.st3{fill:#99999B;}
	.st4{fill:#89898D;}
</style>
<g>
	<g>
		<path class="st0" d="M533.64,43.47H16.36c-0.83,0-1.5-0.67-1.5-1.5c0-0.83,0.67-1.5,1.5-1.5h517.28c0.83,0,1.5,0.67,1.5,1.5
			C535.14,42.8,534.47,43.47,533.64,43.47z"/>
	</g>
	<g>
		<path class="st0" d="M152.11,41.97c0,5.88-4.76,10.64-10.64,10.64s-10.64-4.76-10.64-10.64s4.77-10.64,10.64-10.64
			C147.35,31.33,152.11,36.09,152.11,41.97"/>
	</g>
	<g>
		<path class="st1" d="M141.47,53.11c-6.14,0-11.14-5-11.14-11.14s5-11.14,11.14-11.14s11.14,5,11.14,11.14
			S147.61,53.11,141.47,53.11z M141.47,31.83c-5.59,0-10.14,4.55-10.14,10.14s4.55,10.14,10.14,10.14s10.14-4.55,10.14-10.14
			S147.06,31.83,141.47,31.83z"/>
	</g>
	<g>
		<path class="st1" d="M145.04,37.23c-0.56,0.24-1.37,0.86-2.17,2.23c-0.45-1.83-1.4-3.29-1.4-3.29s-0.95,1.46-1.4,3.29
			c-0.79-1.38-1.61-2-2.17-2.23c-0.27,2.76,0.81,6.08,3.05,6.55v3.47c0,0.29,0.23,0.52,0.52,0.52c0.29,0,0.52-0.23,0.52-0.52v-3.47
			C144.23,43.31,145.31,39.98,145.04,37.23"/>
	</g>
	<g>
		<path class="st0" d="M236.13,41.97c0,3.11-2.53,5.64-5.64,5.64s-5.64-2.53-5.64-5.64c0-3.11,2.53-5.64,5.64-5.64
			S236.13,38.86,236.13,41.97"/>
	</g>
	<g>
		<path class="st1" d="M230.49,48.11c-3.39,0-6.14-2.75-6.14-6.14s2.75-6.14,6.14-6.14s6.14,2.75,6.14,6.14
			C236.63,45.36,233.87,48.11,230.49,48.11z M230.49,36.83c-2.83,0-5.14,2.31-5.14,5.14c0,2.83,2.31,5.14,5.14,5.14
			s5.14-2.31,5.14-5.14C235.63,39.14,233.32,36.83,230.49,36.83z"/>
	</g>
	<g>
		<path class="st0" d="M325.15,41.97c0,3.11-2.52,5.64-5.64,5.64c-3.11,0-5.64-2.53-5.64-5.64c0-3.11,2.53-5.64,5.64-5.64
			S325.15,38.86,325.15,41.97"/>
	</g>
	<g>
		<path class="st1" d="M319.51,48.11c-3.39,0-6.14-2.75-6.14-6.14s2.75-6.14,6.14-6.14c3.38,0,6.14,2.75,6.14,6.14
			C325.65,45.36,322.89,48.11,319.51,48.11z M319.51,36.83c-2.83,0-5.14,2.31-5.14,5.14c0,2.83,2.31,5.14,5.14,5.14
			c2.83,0,5.14-2.31,5.14-5.14C324.65,39.14,322.34,36.83,319.51,36.83z"/>
	</g>
	<g>
		<path class="st0" d="M414.17,41.97c0,3.11-2.52,5.64-5.64,5.64c-3.11,0-5.64-2.53-5.64-5.64c0-3.11,2.53-5.64,5.64-5.64
			S414.17,38.86,414.17,41.97"/>
	</g>
	<g>
		<path class="st1" d="M408.53,48.11c-3.39,0-6.14-2.75-6.14-6.14s2.75-6.14,6.14-6.14c3.38,0,6.14,2.75,6.14,6.14
			C414.67,45.36,411.92,48.11,408.53,48.11z M408.53,36.83c-2.83,0-5.14,2.31-5.14,5.14c0,2.83,2.31,5.14,5.14,5.14
			c2.83,0,5.14-2.31,5.14-5.14C413.67,39.14,411.36,36.83,408.53,36.83z"/>
	</g>
	<g>
		<path class="st0" d="M58.09,41.97c0,3.11-2.53,5.64-5.64,5.64s-5.64-2.53-5.64-5.64c0-3.11,2.53-5.64,5.64-5.64
			S58.09,38.86,58.09,41.97"/>
	</g>
	<g>
		<path class="st1" d="M52.45,48.11c-3.39,0-6.14-2.75-6.14-6.14s2.75-6.14,6.14-6.14s6.14,2.75,6.14,6.14
			C58.59,45.36,55.83,48.11,52.45,48.11z M52.45,36.83c-2.83,0-5.14,2.31-5.14,5.14c0,2.83,2.31,5.14,5.14,5.14s5.14-2.31,5.14-5.14
			C57.59,39.14,55.28,36.83,52.45,36.83z"/>
	</g>
	<g>
		<path class="st0" d="M508.19,41.97c0,5.88-4.76,10.64-10.64,10.64s-10.64-4.76-10.64-10.64s4.77-10.64,10.64-10.64
			C503.43,31.33,508.19,36.09,508.19,41.97"/>
	</g>
	<g>
		<path class="st1" d="M497.55,53.11c-6.14,0-11.14-5-11.14-11.14s5-11.14,11.14-11.14s11.14,5,11.14,11.14
			S503.69,53.11,497.55,53.11z M497.55,31.83c-5.59,0-10.14,4.55-10.14,10.14s4.55,10.14,10.14,10.14s10.14-4.55,10.14-10.14
			S503.14,31.83,497.55,31.83z"/>
	</g>
	<g>
		<path class="st1" d="M497.38,45.99c-0.2-1.39-0.42-2.87-1.94-1.88c0.98-1.52-0.49-1.74-1.88-1.94c1.39-0.2,2.87-0.42,1.88-1.94
			c1.52,0.98,1.74-0.49,1.94-1.88c0.2,1.39,0.42,2.87,1.94,1.88c-0.98,1.52,0.49,1.74,1.88,1.94c-1.39,0.2-2.87,0.42-1.88,1.94
			C497.8,43.13,497.57,44.6,497.38,45.99 M503.9,42.17c-2.38-0.34-4.9-0.72-3.22-3.31c-2.59,1.68-2.98-0.84-3.31-3.22
			c-0.34,2.38-0.72,4.9-3.31,3.22c1.68,2.59-0.84,2.98-3.22,3.31c2.38,0.34,4.9,0.72,3.22,3.31c2.59-1.68,2.98,0.84,3.31,3.22
			c0.34-2.38,0.72-4.9,3.31-3.22C499.01,42.89,501.53,42.51,503.9,42.17"/>
	</g>
	<g>
		<path class="st2" d="M90.03,17.17c0.1,0,0.18,0.04,0.25,0.11l0.69,0.75c-0.38,0.47-0.85,0.83-1.41,1.08
			c-0.56,0.25-1.23,0.38-2.01,0.38c-0.7,0-1.33-0.12-1.88-0.36c-0.56-0.24-1.03-0.57-1.43-0.99c-0.39-0.42-0.7-0.93-0.91-1.52
			c-0.21-0.59-0.32-1.23-0.32-1.93c0-0.71,0.12-1.35,0.35-1.94s0.56-1.09,0.99-1.52c0.42-0.42,0.93-0.75,1.52-0.99
			c0.59-0.24,1.25-0.35,1.96-0.35c0.7,0,1.31,0.11,1.83,0.33c0.52,0.22,0.97,0.52,1.34,0.89l-0.58,0.81
			c-0.03,0.05-0.08,0.1-0.13,0.14s-0.13,0.06-0.22,0.06c-0.1,0-0.2-0.04-0.31-0.12s-0.24-0.16-0.4-0.25
			c-0.16-0.09-0.36-0.18-0.61-0.25c-0.24-0.08-0.56-0.12-0.93-0.12c-0.44,0-0.85,0.08-1.22,0.23c-0.37,0.15-0.69,0.37-0.96,0.66
			c-0.27,0.29-0.47,0.63-0.62,1.04c-0.15,0.41-0.22,0.87-0.22,1.38c0,0.53,0.07,1,0.22,1.41c0.15,0.41,0.35,0.76,0.61,1.04
			c0.26,0.28,0.56,0.5,0.9,0.65s0.72,0.22,1.12,0.22c0.24,0,0.45-0.01,0.65-0.04c0.19-0.03,0.37-0.07,0.53-0.12
			c0.16-0.06,0.32-0.13,0.46-0.22c0.15-0.09,0.29-0.2,0.43-0.33c0.04-0.04,0.09-0.07,0.14-0.09S89.97,17.17,90.03,17.17z"/>
		<path class="st2" d="M95.41,12.61c0.42,0,0.81,0.07,1.16,0.2c0.35,0.13,0.66,0.33,0.91,0.59s0.46,0.57,0.6,0.95
			s0.21,0.8,0.21,1.28c0,0.12-0.01,0.22-0.02,0.3c-0.01,0.08-0.03,0.14-0.06,0.19s-0.07,0.08-0.11,0.1s-0.11,0.03-0.18,0.03H93.8
			c0.05,0.68,0.23,1.19,0.55,1.51s0.75,0.48,1.27,0.48c0.26,0,0.48-0.03,0.67-0.09c0.19-0.06,0.35-0.13,0.49-0.2
			c0.14-0.07,0.26-0.14,0.37-0.2c0.11-0.06,0.21-0.09,0.31-0.09c0.06,0,0.12,0.01,0.17,0.04c0.05,0.03,0.09,0.06,0.12,0.11
			l0.47,0.58c-0.18,0.21-0.38,0.38-0.6,0.52c-0.22,0.14-0.45,0.25-0.69,0.34c-0.24,0.08-0.49,0.14-0.73,0.18
			c-0.25,0.03-0.49,0.05-0.73,0.05c-0.46,0-0.89-0.08-1.29-0.23c-0.4-0.15-0.75-0.38-1.04-0.68c-0.29-0.3-0.53-0.67-0.7-1.12
			s-0.25-0.96-0.25-1.54c0-0.46,0.07-0.88,0.22-1.28c0.15-0.4,0.36-0.75,0.63-1.05c0.28-0.3,0.61-0.53,1.01-0.71
			C94.46,12.7,94.91,12.61,95.41,12.61z M95.44,13.76c-0.47,0-0.83,0.13-1.1,0.4c-0.26,0.26-0.43,0.64-0.51,1.12h3.02
			c0-0.21-0.03-0.4-0.08-0.59c-0.06-0.18-0.14-0.35-0.26-0.48c-0.12-0.14-0.26-0.25-0.44-0.33S95.68,13.76,95.44,13.76z"/>
		<path class="st2" d="M100.17,19.39v-6.67h0.94c0.17,0,0.28,0.03,0.34,0.09s0.11,0.17,0.13,0.31l0.1,0.81
			c0.24-0.41,0.52-0.74,0.84-0.97s0.68-0.36,1.08-0.36c0.33,0,0.6,0.08,0.82,0.23l-0.21,1.2c-0.01,0.08-0.04,0.13-0.08,0.17
			c-0.04,0.03-0.1,0.05-0.18,0.05c-0.06,0-0.15-0.01-0.27-0.04s-0.26-0.05-0.45-0.05c-0.33,0-0.62,0.09-0.86,0.28
			c-0.24,0.18-0.44,0.45-0.6,0.81v4.15H100.17z"/>
		<path class="st2" d="M107.87,10.77c0,0.14-0.03,0.27-0.08,0.39c-0.06,0.12-0.13,0.23-0.22,0.32c-0.09,0.09-0.2,0.16-0.33,0.22
			c-0.13,0.05-0.26,0.08-0.4,0.08c-0.14,0-0.27-0.03-0.39-0.08c-0.12-0.05-0.23-0.13-0.32-0.22c-0.09-0.09-0.16-0.2-0.22-0.32
			c-0.05-0.12-0.08-0.25-0.08-0.39c0-0.14,0.03-0.28,0.08-0.4c0.05-0.13,0.13-0.23,0.22-0.33c0.09-0.09,0.2-0.16,0.32-0.22
			c0.12-0.05,0.25-0.08,0.39-0.08c0.14,0,0.28,0.03,0.4,0.08c0.13,0.05,0.24,0.13,0.33,0.22c0.09,0.09,0.17,0.2,0.22,0.33
			C107.84,10.5,107.87,10.63,107.87,10.77z M107.63,12.72v6.67h-1.61v-6.67H107.63z"/>
		<path class="st2" d="M113.91,14.02c-0.04,0.07-0.09,0.12-0.14,0.15c-0.05,0.03-0.11,0.04-0.18,0.04c-0.08,0-0.16-0.02-0.25-0.06
			c-0.09-0.04-0.19-0.09-0.31-0.15c-0.12-0.05-0.25-0.1-0.4-0.15c-0.15-0.04-0.33-0.06-0.53-0.06c-0.32,0-0.57,0.07-0.75,0.2
			c-0.18,0.13-0.27,0.31-0.27,0.53c0,0.14,0.05,0.26,0.14,0.36c0.09,0.1,0.22,0.18,0.37,0.26c0.15,0.07,0.33,0.14,0.52,0.2
			s0.39,0.12,0.6,0.19s0.4,0.15,0.6,0.24c0.2,0.09,0.37,0.2,0.52,0.34c0.15,0.14,0.28,0.3,0.37,0.49c0.09,0.19,0.14,0.42,0.14,0.69
			c0,0.32-0.06,0.62-0.18,0.89c-0.12,0.27-0.29,0.5-0.51,0.7c-0.23,0.2-0.5,0.35-0.84,0.46c-0.33,0.11-0.71,0.17-1.14,0.17
			c-0.23,0-0.45-0.02-0.67-0.06s-0.43-0.1-0.63-0.17c-0.2-0.07-0.39-0.16-0.56-0.26c-0.17-0.1-0.32-0.21-0.45-0.33l0.37-0.61
			c0.05-0.07,0.1-0.13,0.17-0.17s0.15-0.06,0.25-0.06s0.19,0.03,0.28,0.08c0.09,0.06,0.19,0.12,0.31,0.18
			c0.12,0.07,0.25,0.13,0.41,0.18c0.16,0.06,0.36,0.08,0.6,0.08c0.19,0,0.35-0.02,0.49-0.07c0.14-0.04,0.25-0.1,0.34-0.18
			c0.09-0.07,0.15-0.16,0.2-0.26c0.04-0.1,0.06-0.2,0.06-0.3c0-0.16-0.05-0.28-0.14-0.38s-0.22-0.19-0.37-0.26
			c-0.15-0.07-0.33-0.14-0.53-0.2c-0.2-0.06-0.4-0.12-0.6-0.19c-0.21-0.07-0.41-0.15-0.6-0.24c-0.2-0.09-0.37-0.21-0.53-0.35
			c-0.15-0.14-0.28-0.32-0.37-0.53c-0.09-0.21-0.14-0.46-0.14-0.75c0-0.27,0.05-0.53,0.16-0.78s0.27-0.46,0.48-0.65
			c0.21-0.18,0.47-0.33,0.79-0.44c0.31-0.11,0.68-0.17,1.09-0.17c0.46,0,0.88,0.08,1.25,0.23c0.38,0.15,0.69,0.35,0.94,0.6
			L113.91,14.02z"/>
		<path class="st2" d="M118.95,12.61c0.42,0,0.81,0.07,1.16,0.2c0.35,0.13,0.66,0.33,0.91,0.59s0.46,0.57,0.6,0.95
			s0.21,0.8,0.21,1.28c0,0.12-0.01,0.22-0.02,0.3c-0.01,0.08-0.03,0.14-0.06,0.19s-0.07,0.08-0.11,0.1s-0.11,0.03-0.18,0.03h-4.12
			c0.05,0.68,0.23,1.19,0.55,1.51s0.75,0.48,1.27,0.48c0.26,0,0.48-0.03,0.67-0.09c0.19-0.06,0.35-0.13,0.49-0.2
			c0.14-0.07,0.26-0.14,0.37-0.2c0.11-0.06,0.21-0.09,0.31-0.09c0.06,0,0.12,0.01,0.17,0.04c0.05,0.03,0.09,0.06,0.12,0.11
			l0.47,0.58c-0.18,0.21-0.38,0.38-0.6,0.52c-0.22,0.14-0.45,0.25-0.69,0.34c-0.24,0.08-0.49,0.14-0.73,0.18
			c-0.25,0.03-0.49,0.05-0.73,0.05c-0.46,0-0.89-0.08-1.29-0.23c-0.4-0.15-0.75-0.38-1.04-0.68c-0.29-0.3-0.53-0.67-0.7-1.12
			s-0.25-0.96-0.25-1.54c0-0.46,0.07-0.88,0.22-1.28c0.15-0.4,0.36-0.75,0.63-1.05c0.28-0.3,0.61-0.53,1.01-0.71
			C118,12.7,118.45,12.61,118.95,12.61z M118.98,13.76c-0.47,0-0.83,0.13-1.1,0.4c-0.26,0.26-0.43,0.64-0.51,1.12h3.02
			c0-0.21-0.03-0.4-0.08-0.59c-0.06-0.18-0.14-0.35-0.26-0.48c-0.12-0.14-0.26-0.25-0.44-0.33S119.22,13.76,118.98,13.76z"/>
		<path class="st2" d="M131.96,15.92c0.06,0.15,0.12,0.3,0.19,0.45c0.06-0.16,0.12-0.31,0.19-0.46c0.06-0.15,0.13-0.3,0.21-0.44
			l2.78-5.21c0.03-0.07,0.07-0.12,0.11-0.16c0.04-0.04,0.08-0.07,0.12-0.08c0.05-0.02,0.1-0.03,0.15-0.03c0.06,0,0.12-0.01,0.2-0.01
			h1.32v9.4h-1.54v-6.07c0-0.11,0-0.24,0.01-0.37c0.01-0.13,0.02-0.27,0.03-0.41l-2.84,5.33c-0.06,0.12-0.15,0.22-0.25,0.28
			s-0.23,0.1-0.36,0.1h-0.24c-0.14,0-0.26-0.03-0.36-0.1s-0.19-0.16-0.25-0.28l-2.88-5.35c0.02,0.14,0.03,0.28,0.04,0.42
			c0.01,0.14,0.01,0.26,0.01,0.38v6.07h-1.54v-9.4h1.32c0.08,0,0.15,0,0.2,0.01c0.06,0,0.11,0.02,0.15,0.03
			c0.05,0.02,0.09,0.05,0.13,0.08s0.08,0.09,0.11,0.16l2.81,5.22C131.83,15.63,131.9,15.77,131.96,15.92z"/>
		<path class="st2" d="M142.43,12.61c0.42,0,0.81,0.07,1.16,0.2c0.35,0.13,0.66,0.33,0.91,0.59s0.46,0.57,0.6,0.95
			s0.21,0.8,0.21,1.28c0,0.12-0.01,0.22-0.02,0.3c-0.01,0.08-0.03,0.14-0.06,0.19s-0.07,0.08-0.11,0.1s-0.11,0.03-0.18,0.03h-4.12
			c0.05,0.68,0.23,1.19,0.55,1.51s0.75,0.48,1.27,0.48c0.26,0,0.48-0.03,0.67-0.09c0.19-0.06,0.35-0.13,0.49-0.2
			c0.14-0.07,0.26-0.14,0.37-0.2c0.11-0.06,0.21-0.09,0.31-0.09c0.06,0,0.12,0.01,0.17,0.04c0.05,0.03,0.09,0.06,0.12,0.11
			l0.47,0.58c-0.18,0.21-0.38,0.38-0.6,0.52c-0.22,0.14-0.45,0.25-0.69,0.34c-0.24,0.08-0.49,0.14-0.73,0.18
			c-0.25,0.03-0.49,0.05-0.73,0.05c-0.46,0-0.89-0.08-1.29-0.23c-0.4-0.15-0.75-0.38-1.04-0.68c-0.29-0.3-0.53-0.67-0.7-1.12
			s-0.25-0.96-0.25-1.54c0-0.46,0.07-0.88,0.22-1.28c0.15-0.4,0.36-0.75,0.63-1.05c0.28-0.3,0.61-0.53,1.01-0.71
			C141.49,12.7,141.93,12.61,142.43,12.61z M142.46,13.76c-0.47,0-0.83,0.13-1.1,0.4c-0.26,0.26-0.43,0.64-0.51,1.12h3.02
			c0-0.21-0.03-0.4-0.08-0.59c-0.06-0.18-0.14-0.35-0.26-0.48c-0.12-0.14-0.26-0.25-0.44-0.33S142.7,13.76,142.46,13.76z"/>
		<path class="st2" d="M147.2,19.39v-6.67h0.98c0.21,0,0.34,0.1,0.41,0.29l0.1,0.49c0.12-0.13,0.24-0.25,0.37-0.36
			s0.26-0.2,0.41-0.28c0.15-0.08,0.3-0.14,0.47-0.19c0.17-0.04,0.35-0.07,0.55-0.07c0.42,0,0.77,0.11,1.04,0.34
			c0.27,0.23,0.47,0.53,0.61,0.91c0.1-0.22,0.23-0.41,0.39-0.57c0.16-0.16,0.33-0.29,0.51-0.39c0.19-0.1,0.38-0.17,0.59-0.22
			c0.21-0.05,0.42-0.07,0.63-0.07c0.37,0,0.7,0.06,0.98,0.17c0.29,0.11,0.53,0.28,0.72,0.49c0.19,0.22,0.34,0.48,0.45,0.79
			c0.1,0.31,0.15,0.67,0.15,1.07v4.24h-1.61v-4.24c0-0.42-0.09-0.74-0.28-0.96c-0.19-0.21-0.46-0.32-0.82-0.32
			c-0.16,0-0.32,0.03-0.46,0.08c-0.14,0.06-0.26,0.14-0.37,0.24c-0.11,0.11-0.19,0.24-0.25,0.4s-0.09,0.34-0.09,0.55v4.24h-1.61
			v-4.24c0-0.45-0.09-0.77-0.27-0.98c-0.18-0.2-0.45-0.31-0.8-0.31c-0.23,0-0.45,0.06-0.65,0.17c-0.2,0.11-0.39,0.27-0.56,0.47v4.88
			H147.2z"/>
		<path class="st2" d="M158.73,19.39V9.73h1.61v3.81c0.26-0.28,0.56-0.51,0.9-0.67c0.33-0.17,0.72-0.25,1.17-0.25
			c0.36,0,0.7,0.08,1,0.22s0.56,0.37,0.78,0.65s0.39,0.64,0.51,1.06c0.12,0.42,0.18,0.9,0.18,1.45c0,0.5-0.07,0.96-0.2,1.38
			s-0.33,0.79-0.58,1.1c-0.25,0.31-0.55,0.56-0.9,0.73c-0.35,0.18-0.75,0.26-1.19,0.26c-0.2,0-0.39-0.02-0.56-0.06
			c-0.17-0.04-0.32-0.1-0.46-0.17c-0.14-0.07-0.27-0.16-0.39-0.27s-0.23-0.22-0.34-0.35l-0.07,0.45c-0.03,0.11-0.07,0.19-0.13,0.24
			c-0.06,0.05-0.15,0.07-0.26,0.07H158.73z M161.85,13.86c-0.33,0-0.62,0.07-0.85,0.21c-0.24,0.14-0.46,0.34-0.66,0.59v2.99
			c0.18,0.22,0.38,0.38,0.59,0.47c0.21,0.09,0.45,0.13,0.7,0.13c0.24,0,0.46-0.05,0.66-0.14c0.19-0.09,0.36-0.23,0.5-0.42
			c0.14-0.19,0.24-0.42,0.32-0.71c0.07-0.28,0.11-0.62,0.11-1c0-0.39-0.03-0.72-0.09-0.99c-0.06-0.27-0.15-0.49-0.27-0.66
			c-0.12-0.17-0.26-0.29-0.43-0.37C162.26,13.9,162.07,13.86,161.85,13.86z"/>
		<path class="st2" d="M169.54,12.61c0.42,0,0.81,0.07,1.16,0.2c0.35,0.13,0.66,0.33,0.91,0.59s0.46,0.57,0.6,0.95
			s0.21,0.8,0.21,1.28c0,0.12-0.01,0.22-0.02,0.3c-0.01,0.08-0.03,0.14-0.06,0.19s-0.07,0.08-0.11,0.1s-0.11,0.03-0.18,0.03h-4.12
			c0.05,0.68,0.23,1.19,0.55,1.51s0.75,0.48,1.27,0.48c0.26,0,0.48-0.03,0.67-0.09c0.19-0.06,0.35-0.13,0.49-0.2
			c0.14-0.07,0.26-0.14,0.37-0.2c0.11-0.06,0.21-0.09,0.31-0.09c0.06,0,0.12,0.01,0.17,0.04c0.05,0.03,0.09,0.06,0.12,0.11
			l0.47,0.58c-0.18,0.21-0.38,0.38-0.6,0.52c-0.22,0.14-0.45,0.25-0.69,0.34c-0.24,0.08-0.49,0.14-0.73,0.18
			c-0.25,0.03-0.49,0.05-0.73,0.05c-0.46,0-0.89-0.08-1.29-0.23c-0.4-0.15-0.75-0.38-1.04-0.68c-0.29-0.3-0.53-0.67-0.7-1.12
			s-0.25-0.96-0.25-1.54c0-0.46,0.07-0.88,0.22-1.28c0.15-0.4,0.36-0.75,0.63-1.05c0.28-0.3,0.61-0.53,1.01-0.71
			C168.6,12.7,169.04,12.61,169.54,12.61z M169.58,13.76c-0.47,0-0.83,0.13-1.1,0.4c-0.26,0.26-0.43,0.64-0.51,1.12h3.02
			c0-0.21-0.03-0.4-0.08-0.59c-0.06-0.18-0.14-0.35-0.26-0.48c-0.12-0.14-0.26-0.25-0.44-0.33S169.81,13.76,169.58,13.76z"/>
		<path class="st2" d="M174.31,19.39v-6.67h0.94c0.17,0,0.28,0.03,0.34,0.09s0.11,0.17,0.13,0.31l0.1,0.81
			c0.24-0.41,0.52-0.74,0.84-0.97s0.68-0.36,1.08-0.36c0.33,0,0.6,0.08,0.82,0.23l-0.21,1.2c-0.01,0.08-0.04,0.13-0.08,0.17
			c-0.04,0.03-0.1,0.05-0.18,0.05c-0.06,0-0.15-0.01-0.27-0.04s-0.26-0.05-0.45-0.05c-0.33,0-0.62,0.09-0.86,0.28
			c-0.24,0.18-0.44,0.45-0.6,0.81v4.15H174.31z"/>
		<path class="st2" d="M184.15,14.02c-0.04,0.07-0.09,0.12-0.14,0.15c-0.05,0.03-0.11,0.04-0.18,0.04c-0.08,0-0.16-0.02-0.25-0.06
			c-0.09-0.04-0.19-0.09-0.31-0.15c-0.12-0.05-0.25-0.1-0.4-0.15c-0.15-0.04-0.33-0.06-0.53-0.06c-0.32,0-0.57,0.07-0.75,0.2
			c-0.18,0.13-0.27,0.31-0.27,0.53c0,0.14,0.05,0.26,0.14,0.36c0.09,0.1,0.22,0.18,0.37,0.26c0.15,0.07,0.33,0.14,0.52,0.2
			s0.39,0.12,0.6,0.19s0.4,0.15,0.6,0.24c0.2,0.09,0.37,0.2,0.52,0.34c0.15,0.14,0.28,0.3,0.37,0.49c0.09,0.19,0.14,0.42,0.14,0.69
			c0,0.32-0.06,0.62-0.18,0.89c-0.12,0.27-0.29,0.5-0.51,0.7c-0.23,0.2-0.5,0.35-0.84,0.46c-0.33,0.11-0.71,0.17-1.14,0.17
			c-0.23,0-0.45-0.02-0.67-0.06s-0.43-0.1-0.63-0.17c-0.2-0.07-0.39-0.16-0.56-0.26c-0.17-0.1-0.32-0.21-0.45-0.33l0.37-0.61
			c0.05-0.07,0.1-0.13,0.17-0.17s0.15-0.06,0.25-0.06s0.19,0.03,0.28,0.08c0.09,0.06,0.19,0.12,0.31,0.18
			c0.12,0.07,0.25,0.13,0.41,0.18c0.16,0.06,0.36,0.08,0.6,0.08c0.19,0,0.35-0.02,0.49-0.07c0.14-0.04,0.25-0.1,0.34-0.18
			c0.09-0.07,0.15-0.16,0.2-0.26c0.04-0.1,0.06-0.2,0.06-0.3c0-0.16-0.05-0.28-0.14-0.38s-0.22-0.19-0.37-0.26
			c-0.15-0.07-0.33-0.14-0.53-0.2c-0.2-0.06-0.4-0.12-0.6-0.19c-0.21-0.07-0.41-0.15-0.6-0.24c-0.2-0.09-0.37-0.21-0.53-0.35
			c-0.15-0.14-0.28-0.32-0.37-0.53c-0.09-0.21-0.14-0.46-0.14-0.75c0-0.27,0.05-0.53,0.16-0.78s0.27-0.46,0.48-0.65
			c0.21-0.18,0.47-0.33,0.79-0.44c0.31-0.11,0.68-0.17,1.09-0.17c0.46,0,0.88,0.08,1.25,0.23c0.38,0.15,0.69,0.35,0.94,0.6
			L184.15,14.02z"/>
		<path class="st2" d="M186.44,19.39V9.73h1.61v3.71c0.26-0.25,0.55-0.45,0.86-0.6c0.31-0.15,0.68-0.23,1.1-0.23
			c0.36,0,0.69,0.06,0.97,0.19c0.28,0.12,0.52,0.3,0.71,0.52c0.19,0.22,0.33,0.49,0.43,0.8c0.1,0.31,0.15,0.65,0.15,1.02v4.24h-1.61
			v-4.24c0-0.41-0.09-0.72-0.28-0.95c-0.19-0.22-0.47-0.33-0.85-0.33c-0.28,0-0.54,0.06-0.78,0.19c-0.24,0.13-0.47,0.3-0.69,0.51
			v4.82H186.44z"/>
		<path class="st2" d="M196.26,10.77c0,0.14-0.03,0.27-0.08,0.39c-0.06,0.12-0.13,0.23-0.22,0.32c-0.09,0.09-0.2,0.16-0.33,0.22
			c-0.13,0.05-0.26,0.08-0.4,0.08c-0.14,0-0.27-0.03-0.39-0.08c-0.12-0.05-0.23-0.13-0.32-0.22c-0.09-0.09-0.16-0.2-0.22-0.32
			c-0.05-0.12-0.08-0.25-0.08-0.39c0-0.14,0.03-0.28,0.08-0.4c0.05-0.13,0.13-0.23,0.22-0.33c0.09-0.09,0.2-0.16,0.32-0.22
			c0.12-0.05,0.25-0.08,0.39-0.08c0.14,0,0.28,0.03,0.4,0.08c0.13,0.05,0.24,0.13,0.33,0.22c0.09,0.09,0.17,0.2,0.22,0.33
			C196.24,10.5,196.26,10.63,196.26,10.77z M196.02,12.72v6.67h-1.61v-6.67H196.02z"/>
		<path class="st2" d="M198.31,21.56v-8.85h0.98c0.1,0,0.19,0.02,0.27,0.07s0.12,0.12,0.14,0.22l0.13,0.62
			c0.27-0.31,0.58-0.56,0.93-0.75c0.35-0.19,0.76-0.29,1.23-0.29c0.36,0,0.7,0.08,1,0.23c0.3,0.15,0.56,0.37,0.78,0.66
			s0.39,0.64,0.51,1.07c0.12,0.42,0.18,0.91,0.18,1.45c0,0.5-0.07,0.96-0.2,1.38s-0.33,0.79-0.58,1.1c-0.25,0.31-0.55,0.56-0.9,0.73
			c-0.35,0.18-0.75,0.26-1.19,0.26c-0.38,0-0.7-0.06-0.96-0.17c-0.26-0.11-0.5-0.27-0.71-0.48v2.73H198.31z M201.43,13.86
			c-0.33,0-0.62,0.07-0.85,0.21c-0.24,0.14-0.46,0.34-0.66,0.59v2.99c0.18,0.22,0.38,0.38,0.59,0.47c0.21,0.09,0.45,0.13,0.69,0.13
			c0.24,0,0.46-0.05,0.66-0.14s0.36-0.23,0.5-0.42c0.14-0.19,0.24-0.42,0.32-0.71c0.07-0.28,0.11-0.62,0.11-1
			c0-0.39-0.03-0.72-0.09-0.99c-0.06-0.27-0.15-0.49-0.27-0.66c-0.12-0.17-0.26-0.29-0.43-0.37
			C201.83,13.9,201.64,13.86,201.43,13.86z"/>
	</g>
	<g>
		<path class="st2" d="M376.34,17.17c0.09,0,0.18,0.04,0.25,0.11l0.69,0.75c-0.38,0.47-0.85,0.83-1.41,1.08
			c-0.56,0.25-1.22,0.38-2,0.38c-0.7,0-1.33-0.12-1.88-0.36c-0.56-0.24-1.03-0.57-1.43-0.99s-0.7-0.93-0.91-1.52
			c-0.21-0.59-0.31-1.23-0.31-1.93c0-0.71,0.12-1.35,0.35-1.94s0.56-1.09,0.99-1.52s0.93-0.75,1.52-0.99
			c0.59-0.24,1.24-0.35,1.96-0.35c0.7,0,1.31,0.11,1.83,0.33c0.52,0.22,0.97,0.52,1.34,0.89l-0.58,0.81
			c-0.04,0.05-0.08,0.1-0.13,0.14s-0.13,0.06-0.22,0.06c-0.1,0-0.2-0.04-0.3-0.12c-0.1-0.08-0.24-0.16-0.4-0.25
			c-0.16-0.09-0.36-0.18-0.61-0.25c-0.24-0.08-0.56-0.12-0.93-0.12c-0.44,0-0.85,0.08-1.22,0.23c-0.37,0.15-0.69,0.37-0.96,0.66
			s-0.47,0.63-0.62,1.04c-0.15,0.41-0.22,0.87-0.22,1.38c0,0.53,0.08,1,0.22,1.41c0.15,0.41,0.35,0.76,0.61,1.04
			c0.26,0.28,0.56,0.5,0.9,0.65s0.72,0.22,1.12,0.22c0.24,0,0.45-0.01,0.65-0.04c0.19-0.03,0.37-0.07,0.53-0.12
			c0.16-0.06,0.32-0.13,0.46-0.22c0.14-0.09,0.29-0.2,0.43-0.33c0.04-0.04,0.09-0.07,0.14-0.09S376.29,17.17,376.34,17.17z"/>
		<path class="st2" d="M381.72,12.61c0.42,0,0.81,0.07,1.16,0.2c0.35,0.13,0.66,0.33,0.91,0.59s0.46,0.57,0.6,0.95
			c0.14,0.38,0.21,0.8,0.21,1.28c0,0.12-0.01,0.22-0.02,0.3c-0.01,0.08-0.03,0.14-0.06,0.19c-0.03,0.05-0.07,0.08-0.11,0.1
			s-0.11,0.03-0.18,0.03h-4.12c0.05,0.68,0.23,1.19,0.55,1.51c0.32,0.32,0.75,0.48,1.27,0.48c0.26,0,0.48-0.03,0.67-0.09
			c0.19-0.06,0.35-0.13,0.49-0.2c0.14-0.07,0.26-0.14,0.37-0.2s0.21-0.09,0.31-0.09c0.07,0,0.12,0.01,0.17,0.04
			c0.05,0.03,0.09,0.06,0.12,0.11l0.47,0.58c-0.18,0.21-0.38,0.38-0.6,0.52c-0.22,0.14-0.45,0.25-0.69,0.34
			c-0.24,0.08-0.49,0.14-0.73,0.18c-0.25,0.03-0.49,0.05-0.72,0.05c-0.46,0-0.9-0.08-1.29-0.23c-0.4-0.15-0.75-0.38-1.04-0.68
			c-0.29-0.3-0.53-0.67-0.7-1.12s-0.25-0.96-0.25-1.54c0-0.46,0.07-0.88,0.22-1.28c0.15-0.4,0.36-0.75,0.63-1.05
			c0.27-0.3,0.61-0.53,1.01-0.71C380.77,12.7,381.22,12.61,381.72,12.61z M381.75,13.76c-0.47,0-0.83,0.13-1.1,0.4
			c-0.26,0.26-0.43,0.64-0.51,1.12h3.02c0-0.21-0.03-0.4-0.08-0.59c-0.06-0.18-0.14-0.35-0.26-0.48c-0.12-0.14-0.26-0.25-0.44-0.33
			S381.99,13.76,381.75,13.76z"/>
		<path class="st2" d="M386.48,19.39v-6.67h0.94c0.16,0,0.28,0.03,0.34,0.09c0.07,0.06,0.11,0.17,0.13,0.31l0.1,0.81
			c0.24-0.41,0.52-0.74,0.84-0.97s0.68-0.36,1.08-0.36c0.33,0,0.6,0.08,0.82,0.23l-0.21,1.2c-0.01,0.08-0.04,0.13-0.08,0.17
			c-0.04,0.03-0.1,0.05-0.18,0.05c-0.06,0-0.15-0.01-0.27-0.04c-0.11-0.03-0.26-0.05-0.45-0.05c-0.33,0-0.62,0.09-0.86,0.28
			c-0.24,0.18-0.44,0.45-0.6,0.81v4.15H386.48z"/>
		<path class="st2" d="M394.18,10.77c0,0.14-0.03,0.27-0.08,0.39c-0.06,0.12-0.13,0.23-0.22,0.32c-0.09,0.09-0.2,0.16-0.33,0.22
			c-0.13,0.05-0.26,0.08-0.4,0.08c-0.14,0-0.27-0.03-0.39-0.08c-0.12-0.05-0.23-0.13-0.32-0.22s-0.16-0.2-0.22-0.32
			c-0.05-0.12-0.08-0.25-0.08-0.39c0-0.14,0.03-0.28,0.08-0.4c0.05-0.13,0.13-0.23,0.22-0.33c0.09-0.09,0.2-0.16,0.32-0.22
			c0.12-0.05,0.25-0.08,0.39-0.08c0.14,0,0.28,0.03,0.4,0.08c0.13,0.05,0.24,0.13,0.33,0.22c0.09,0.09,0.17,0.2,0.22,0.33
			C394.16,10.5,394.18,10.63,394.18,10.77z M393.94,12.72v6.67h-1.61v-6.67H393.94z"/>
		<path class="st2" d="M400.22,14.02c-0.04,0.07-0.09,0.12-0.14,0.15s-0.11,0.04-0.18,0.04c-0.08,0-0.16-0.02-0.25-0.06
			c-0.09-0.04-0.19-0.09-0.31-0.15c-0.12-0.05-0.25-0.1-0.4-0.15s-0.33-0.06-0.53-0.06c-0.32,0-0.57,0.07-0.75,0.2
			c-0.18,0.13-0.27,0.31-0.27,0.53c0,0.14,0.05,0.26,0.14,0.36c0.09,0.1,0.22,0.18,0.37,0.26c0.15,0.07,0.33,0.14,0.52,0.2
			s0.39,0.12,0.6,0.19c0.2,0.07,0.4,0.15,0.6,0.24c0.19,0.09,0.37,0.2,0.52,0.34c0.15,0.14,0.28,0.3,0.37,0.49
			c0.09,0.19,0.14,0.42,0.14,0.69c0,0.32-0.06,0.62-0.18,0.89c-0.12,0.27-0.29,0.5-0.51,0.7c-0.23,0.2-0.5,0.35-0.84,0.46
			c-0.33,0.11-0.71,0.17-1.14,0.17c-0.23,0-0.45-0.02-0.67-0.06s-0.43-0.1-0.63-0.17c-0.2-0.07-0.39-0.16-0.56-0.26
			s-0.32-0.21-0.45-0.33l0.37-0.61c0.05-0.07,0.1-0.13,0.17-0.17s0.15-0.06,0.25-0.06s0.19,0.03,0.28,0.08
			c0.09,0.06,0.19,0.12,0.31,0.18c0.12,0.07,0.25,0.13,0.41,0.18c0.16,0.06,0.36,0.08,0.6,0.08c0.19,0,0.35-0.02,0.49-0.07
			c0.14-0.04,0.25-0.1,0.34-0.18c0.09-0.07,0.15-0.16,0.19-0.26s0.06-0.2,0.06-0.3c0-0.16-0.05-0.28-0.14-0.38
			c-0.09-0.1-0.22-0.19-0.37-0.26c-0.15-0.07-0.33-0.14-0.53-0.2s-0.4-0.12-0.6-0.19s-0.41-0.15-0.6-0.24
			c-0.2-0.09-0.37-0.21-0.53-0.35c-0.15-0.14-0.28-0.32-0.37-0.53c-0.09-0.21-0.14-0.46-0.14-0.75c0-0.27,0.05-0.53,0.16-0.78
			c0.11-0.25,0.27-0.46,0.48-0.65c0.21-0.18,0.47-0.33,0.79-0.44s0.68-0.17,1.09-0.17c0.46,0,0.88,0.08,1.25,0.23
			c0.38,0.15,0.69,0.35,0.94,0.6L400.22,14.02z"/>
		<path class="st2" d="M405.27,12.61c0.42,0,0.81,0.07,1.16,0.2c0.35,0.13,0.66,0.33,0.91,0.59s0.46,0.57,0.6,0.95
			c0.14,0.38,0.21,0.8,0.21,1.28c0,0.12-0.01,0.22-0.02,0.3c-0.01,0.08-0.03,0.14-0.06,0.19c-0.03,0.05-0.07,0.08-0.11,0.1
			s-0.11,0.03-0.18,0.03h-4.12c0.05,0.68,0.23,1.19,0.55,1.51c0.32,0.32,0.75,0.48,1.27,0.48c0.26,0,0.48-0.03,0.67-0.09
			c0.19-0.06,0.35-0.13,0.49-0.2c0.14-0.07,0.26-0.14,0.37-0.2s0.21-0.09,0.31-0.09c0.07,0,0.12,0.01,0.17,0.04
			c0.05,0.03,0.09,0.06,0.12,0.11l0.47,0.58c-0.18,0.21-0.38,0.38-0.6,0.52c-0.22,0.14-0.45,0.25-0.69,0.34
			c-0.24,0.08-0.49,0.14-0.73,0.18c-0.25,0.03-0.49,0.05-0.72,0.05c-0.46,0-0.9-0.08-1.29-0.23c-0.4-0.15-0.75-0.38-1.04-0.68
			c-0.29-0.3-0.53-0.67-0.7-1.12s-0.25-0.96-0.25-1.54c0-0.46,0.07-0.88,0.22-1.28c0.15-0.4,0.36-0.75,0.63-1.05
			c0.27-0.3,0.61-0.53,1.01-0.71C404.33,12.7,404.77,12.61,405.27,12.61z M405.31,13.76c-0.47,0-0.83,0.13-1.1,0.4
			c-0.26,0.26-0.43,0.64-0.51,1.12h3.02c0-0.21-0.03-0.4-0.08-0.59c-0.06-0.18-0.14-0.35-0.26-0.48c-0.12-0.14-0.26-0.25-0.44-0.33
			S405.54,13.76,405.31,13.76z"/>
		<path class="st2" d="M418.39,11.7c-0.05,0.1-0.1,0.16-0.17,0.2c-0.06,0.04-0.14,0.06-0.22,0.06s-0.18-0.03-0.29-0.1
			s-0.24-0.14-0.38-0.22c-0.15-0.08-0.32-0.16-0.52-0.22s-0.43-0.1-0.7-0.1c-0.24,0-0.45,0.03-0.63,0.09
			c-0.18,0.06-0.33,0.14-0.46,0.24c-0.12,0.1-0.22,0.23-0.28,0.37c-0.06,0.14-0.09,0.3-0.09,0.48c0,0.22,0.06,0.41,0.19,0.55
			c0.12,0.15,0.29,0.27,0.49,0.38c0.2,0.1,0.44,0.2,0.7,0.28c0.26,0.08,0.53,0.17,0.8,0.26c0.27,0.09,0.54,0.2,0.8,0.32
			c0.26,0.12,0.49,0.28,0.7,0.47c0.2,0.19,0.37,0.42,0.49,0.69c0.12,0.27,0.19,0.6,0.19,1c0,0.42-0.07,0.82-0.22,1.19
			c-0.15,0.37-0.36,0.69-0.64,0.97s-0.62,0.49-1.02,0.65c-0.4,0.16-0.86,0.24-1.38,0.24c-0.3,0-0.59-0.03-0.88-0.09
			s-0.57-0.14-0.83-0.25c-0.27-0.11-0.52-0.24-0.75-0.39c-0.23-0.15-0.44-0.32-0.62-0.51l0.51-0.84c0.05-0.06,0.1-0.11,0.17-0.15
			s0.14-0.06,0.22-0.06c0.11,0,0.22,0.04,0.35,0.13s0.27,0.19,0.45,0.3s0.37,0.21,0.6,0.3s0.51,0.13,0.83,0.13
			c0.5,0,0.88-0.12,1.16-0.35c0.27-0.24,0.41-0.58,0.41-1.02c0-0.25-0.06-0.45-0.19-0.6c-0.12-0.16-0.29-0.29-0.49-0.39
			c-0.2-0.11-0.44-0.2-0.7-0.27c-0.26-0.07-0.52-0.15-0.79-0.24c-0.27-0.09-0.53-0.19-0.79-0.31s-0.49-0.28-0.7-0.47
			c-0.2-0.19-0.37-0.44-0.49-0.73c-0.12-0.29-0.18-0.65-0.18-1.08c0-0.34,0.07-0.68,0.2-1c0.14-0.33,0.34-0.61,0.6-0.86
			c0.26-0.25,0.58-0.45,0.96-0.6c0.38-0.15,0.82-0.23,1.31-0.23c0.55,0,1.07,0.09,1.53,0.26c0.47,0.17,0.87,0.42,1.2,0.73
			L418.39,11.7z"/>
		<path class="st2" d="M422.72,10.77c0,0.14-0.03,0.27-0.08,0.39c-0.06,0.12-0.13,0.23-0.22,0.32c-0.09,0.09-0.2,0.16-0.33,0.22
			c-0.13,0.05-0.26,0.08-0.4,0.08c-0.14,0-0.27-0.03-0.39-0.08c-0.12-0.05-0.23-0.13-0.32-0.22s-0.16-0.2-0.22-0.32
			c-0.05-0.12-0.08-0.25-0.08-0.39c0-0.14,0.03-0.28,0.08-0.4c0.05-0.13,0.13-0.23,0.22-0.33c0.09-0.09,0.2-0.16,0.32-0.22
			c0.12-0.05,0.25-0.08,0.39-0.08c0.14,0,0.28,0.03,0.4,0.08c0.13,0.05,0.24,0.13,0.33,0.22c0.09,0.09,0.17,0.2,0.22,0.33
			C422.69,10.5,422.72,10.63,422.72,10.77z M422.48,12.72v6.67h-1.61v-6.67H422.48z"/>
		<path class="st2" d="M426.91,19.49c-0.58,0-1.02-0.16-1.33-0.49c-0.31-0.33-0.47-0.78-0.47-1.36v-3.72h-0.68
			c-0.09,0-0.16-0.03-0.22-0.08c-0.06-0.06-0.09-0.14-0.09-0.25v-0.64l1.07-0.18l0.34-1.82c0.02-0.09,0.06-0.15,0.12-0.2
			s0.14-0.07,0.24-0.07h0.83v2.1h1.75v1.14h-1.75v3.61c0,0.21,0.05,0.37,0.16,0.49c0.1,0.12,0.24,0.18,0.42,0.18
			c0.1,0,0.18-0.01,0.25-0.04c0.07-0.02,0.13-0.05,0.18-0.07c0.05-0.03,0.09-0.05,0.13-0.08c0.04-0.02,0.08-0.04,0.12-0.04
			c0.05,0,0.09,0.01,0.12,0.04c0.03,0.02,0.06,0.06,0.1,0.11l0.48,0.78c-0.23,0.19-0.5,0.34-0.81,0.44
			C427.55,19.44,427.24,19.49,426.91,19.49z"/>
		<path class="st2" d="M435.51,19.39h-0.72c-0.15,0-0.27-0.02-0.36-0.07c-0.09-0.04-0.15-0.14-0.2-0.28l-0.14-0.47
			c-0.17,0.15-0.33,0.29-0.5,0.4c-0.16,0.11-0.33,0.21-0.5,0.29c-0.17,0.08-0.36,0.14-0.55,0.18c-0.19,0.04-0.41,0.06-0.65,0.06
			c-0.28,0-0.54-0.04-0.78-0.11c-0.24-0.08-0.44-0.19-0.61-0.34s-0.3-0.34-0.4-0.57c-0.1-0.23-0.14-0.49-0.14-0.79
			c0-0.25,0.07-0.5,0.2-0.75c0.13-0.25,0.35-0.47,0.66-0.67c0.31-0.2,0.72-0.36,1.23-0.49c0.51-0.13,1.15-0.2,1.9-0.2v-0.39
			c0-0.45-0.09-0.78-0.28-1c-0.19-0.22-0.46-0.32-0.82-0.32c-0.26,0-0.48,0.03-0.65,0.09c-0.17,0.06-0.32,0.13-0.45,0.2
			c-0.13,0.08-0.25,0.14-0.35,0.21s-0.23,0.09-0.36,0.09c-0.11,0-0.2-0.03-0.28-0.08c-0.08-0.06-0.14-0.13-0.19-0.21l-0.29-0.51
			c0.77-0.7,1.69-1.05,2.78-1.05c0.39,0,0.74,0.06,1.04,0.19s0.56,0.31,0.78,0.53c0.21,0.23,0.37,0.5,0.48,0.82s0.17,0.66,0.17,1.04
			V19.39z M432.39,18.39c0.17,0,0.32-0.01,0.46-0.04c0.14-0.03,0.27-0.07,0.39-0.13c0.12-0.06,0.24-0.13,0.36-0.22
			c0.11-0.09,0.23-0.19,0.35-0.31v-1.12c-0.47,0-0.86,0.03-1.17,0.09c-0.31,0.06-0.57,0.13-0.76,0.23c-0.19,0.09-0.33,0.2-0.41,0.32
			s-0.12,0.25-0.12,0.4c0,0.28,0.08,0.49,0.25,0.61S432.12,18.39,432.39,18.39z"/>
		<path class="st2" d="M437.66,19.39v-6.67h0.94c0.16,0,0.28,0.03,0.34,0.09c0.07,0.06,0.11,0.17,0.13,0.31l0.1,0.81
			c0.24-0.41,0.52-0.74,0.84-0.97s0.68-0.36,1.08-0.36c0.33,0,0.6,0.08,0.82,0.23l-0.21,1.2c-0.01,0.08-0.04,0.13-0.08,0.17
			c-0.04,0.03-0.1,0.05-0.18,0.05c-0.06,0-0.15-0.01-0.27-0.04c-0.11-0.03-0.26-0.05-0.45-0.05c-0.33,0-0.62,0.09-0.86,0.28
			c-0.24,0.18-0.44,0.45-0.6,0.81v4.15H437.66z"/>
		<path class="st2" d="M448.67,19.39h-0.72c-0.15,0-0.27-0.02-0.36-0.07c-0.09-0.04-0.15-0.14-0.2-0.28l-0.14-0.47
			c-0.17,0.15-0.33,0.29-0.5,0.4c-0.16,0.11-0.33,0.21-0.5,0.29c-0.17,0.08-0.36,0.14-0.55,0.18c-0.19,0.04-0.41,0.06-0.65,0.06
			c-0.28,0-0.54-0.04-0.78-0.11c-0.24-0.08-0.44-0.19-0.61-0.34s-0.3-0.34-0.4-0.57c-0.1-0.23-0.14-0.49-0.14-0.79
			c0-0.25,0.07-0.5,0.2-0.75c0.13-0.25,0.35-0.47,0.66-0.67c0.31-0.2,0.72-0.36,1.23-0.49c0.51-0.13,1.15-0.2,1.9-0.2v-0.39
			c0-0.45-0.09-0.78-0.28-1c-0.19-0.22-0.46-0.32-0.82-0.32c-0.26,0-0.48,0.03-0.65,0.09c-0.17,0.06-0.32,0.13-0.45,0.2
			c-0.13,0.08-0.25,0.14-0.35,0.21s-0.23,0.09-0.36,0.09c-0.11,0-0.2-0.03-0.28-0.08c-0.08-0.06-0.14-0.13-0.19-0.21l-0.29-0.51
			c0.77-0.7,1.69-1.05,2.78-1.05c0.39,0,0.74,0.06,1.04,0.19s0.56,0.31,0.78,0.53c0.21,0.23,0.37,0.5,0.48,0.82s0.17,0.66,0.17,1.04
			V19.39z M445.55,18.39c0.17,0,0.32-0.01,0.46-0.04c0.14-0.03,0.27-0.07,0.39-0.13c0.12-0.06,0.24-0.13,0.36-0.22
			c0.11-0.09,0.23-0.19,0.35-0.31v-1.12c-0.47,0-0.86,0.03-1.17,0.09c-0.31,0.06-0.57,0.13-0.76,0.23c-0.19,0.09-0.33,0.2-0.41,0.32
			s-0.12,0.25-0.12,0.4c0,0.28,0.08,0.49,0.25,0.61S445.28,18.39,445.55,18.39z"/>
		<path class="st2" d="M459.04,15.92c0.06,0.15,0.12,0.3,0.18,0.45c0.06-0.16,0.12-0.31,0.19-0.46c0.07-0.15,0.13-0.3,0.21-0.44
			l2.78-5.21c0.04-0.07,0.07-0.12,0.11-0.16s0.08-0.07,0.12-0.08c0.05-0.02,0.1-0.03,0.15-0.03c0.06,0,0.12-0.01,0.2-0.01h1.32v9.4
			h-1.54v-6.07c0-0.11,0-0.24,0.01-0.37c0.01-0.13,0.02-0.27,0.03-0.41l-2.84,5.33c-0.06,0.12-0.15,0.22-0.25,0.28
			c-0.1,0.07-0.23,0.1-0.36,0.1h-0.24c-0.14,0-0.26-0.03-0.36-0.1c-0.1-0.07-0.19-0.16-0.25-0.28l-2.88-5.35
			c0.02,0.14,0.03,0.28,0.04,0.42c0.01,0.14,0.01,0.26,0.01,0.38v6.07h-1.54v-9.4h1.32c0.08,0,0.15,0,0.2,0.01
			c0.06,0,0.11,0.02,0.15,0.03c0.04,0.02,0.09,0.05,0.13,0.08c0.04,0.04,0.08,0.09,0.11,0.16l2.81,5.22
			C458.91,15.63,458.98,15.77,459.04,15.92z"/>
		<path class="st2" d="M469.51,12.61c0.42,0,0.81,0.07,1.16,0.2c0.35,0.13,0.66,0.33,0.91,0.59s0.46,0.57,0.6,0.95
			c0.14,0.38,0.21,0.8,0.21,1.28c0,0.12-0.01,0.22-0.02,0.3c-0.01,0.08-0.03,0.14-0.06,0.19c-0.03,0.05-0.07,0.08-0.11,0.1
			s-0.11,0.03-0.18,0.03h-4.12c0.05,0.68,0.23,1.19,0.55,1.51c0.32,0.32,0.75,0.48,1.27,0.48c0.26,0,0.48-0.03,0.67-0.09
			c0.19-0.06,0.35-0.13,0.49-0.2c0.14-0.07,0.26-0.14,0.37-0.2s0.21-0.09,0.31-0.09c0.07,0,0.12,0.01,0.17,0.04
			c0.05,0.03,0.09,0.06,0.12,0.11l0.47,0.58c-0.18,0.21-0.38,0.38-0.6,0.52c-0.22,0.14-0.45,0.25-0.69,0.34
			c-0.24,0.08-0.49,0.14-0.73,0.18c-0.25,0.03-0.49,0.05-0.72,0.05c-0.46,0-0.9-0.08-1.29-0.23c-0.4-0.15-0.75-0.38-1.04-0.68
			c-0.29-0.3-0.53-0.67-0.7-1.12s-0.25-0.96-0.25-1.54c0-0.46,0.07-0.88,0.22-1.28c0.15-0.4,0.36-0.75,0.63-1.05
			c0.27-0.3,0.61-0.53,1.01-0.71C468.57,12.7,469.01,12.61,469.51,12.61z M469.54,13.76c-0.47,0-0.83,0.13-1.1,0.4
			c-0.26,0.26-0.43,0.64-0.51,1.12h3.02c0-0.21-0.03-0.4-0.08-0.59c-0.06-0.18-0.14-0.35-0.26-0.48c-0.12-0.14-0.26-0.25-0.44-0.33
			S469.78,13.76,469.54,13.76z"/>
		<path class="st2" d="M474.28,19.39v-6.67h0.98c0.21,0,0.34,0.1,0.41,0.29l0.1,0.49c0.12-0.13,0.24-0.25,0.37-0.36
			c0.13-0.11,0.26-0.2,0.41-0.28c0.14-0.08,0.3-0.14,0.47-0.19c0.17-0.04,0.35-0.07,0.55-0.07c0.42,0,0.77,0.11,1.04,0.34
			s0.47,0.53,0.61,0.91c0.1-0.22,0.23-0.41,0.39-0.57s0.33-0.29,0.51-0.39c0.19-0.1,0.38-0.17,0.59-0.22
			c0.21-0.05,0.42-0.07,0.63-0.07c0.37,0,0.7,0.06,0.98,0.17c0.29,0.11,0.53,0.28,0.72,0.49c0.19,0.22,0.34,0.48,0.44,0.79
			c0.1,0.31,0.15,0.67,0.15,1.07v4.24h-1.61v-4.24c0-0.42-0.09-0.74-0.28-0.96c-0.19-0.21-0.46-0.32-0.82-0.32
			c-0.17,0-0.32,0.03-0.46,0.08c-0.14,0.06-0.26,0.14-0.37,0.24c-0.11,0.11-0.19,0.24-0.25,0.4s-0.09,0.34-0.09,0.55v4.24h-1.61
			v-4.24c0-0.45-0.09-0.77-0.27-0.98c-0.18-0.2-0.45-0.31-0.8-0.31c-0.23,0-0.45,0.06-0.65,0.17c-0.2,0.11-0.39,0.27-0.56,0.47v4.88
			H474.28z"/>
		<path class="st2" d="M485.81,19.39V9.73h1.61v3.81c0.26-0.28,0.56-0.51,0.9-0.67s0.72-0.25,1.17-0.25c0.36,0,0.7,0.08,1,0.22
			c0.3,0.15,0.56,0.37,0.78,0.65c0.22,0.29,0.39,0.64,0.51,1.06s0.18,0.9,0.18,1.45c0,0.5-0.07,0.96-0.2,1.38
			c-0.13,0.42-0.33,0.79-0.58,1.1c-0.25,0.31-0.55,0.56-0.9,0.73c-0.35,0.18-0.75,0.26-1.19,0.26c-0.2,0-0.39-0.02-0.56-0.06
			c-0.17-0.04-0.32-0.1-0.46-0.17c-0.14-0.07-0.27-0.16-0.39-0.27c-0.12-0.11-0.23-0.22-0.34-0.35l-0.07,0.45
			c-0.03,0.11-0.07,0.19-0.13,0.24c-0.06,0.05-0.15,0.07-0.26,0.07H485.81z M488.93,13.86c-0.33,0-0.62,0.07-0.85,0.21
			s-0.46,0.34-0.66,0.59v2.99c0.18,0.22,0.38,0.38,0.59,0.47c0.21,0.09,0.45,0.13,0.7,0.13c0.24,0,0.46-0.05,0.66-0.14
			c0.2-0.09,0.36-0.23,0.5-0.42c0.14-0.19,0.24-0.42,0.31-0.71c0.07-0.28,0.11-0.62,0.11-1c0-0.39-0.03-0.72-0.09-0.99
			c-0.06-0.27-0.15-0.49-0.27-0.66s-0.26-0.29-0.43-0.37S489.15,13.86,488.93,13.86z"/>
		<path class="st2" d="M496.62,12.61c0.42,0,0.81,0.07,1.16,0.2c0.35,0.13,0.66,0.33,0.91,0.59s0.46,0.57,0.6,0.95
			c0.14,0.38,0.21,0.8,0.21,1.28c0,0.12-0.01,0.22-0.02,0.3c-0.01,0.08-0.03,0.14-0.06,0.19c-0.03,0.05-0.07,0.08-0.11,0.1
			s-0.11,0.03-0.18,0.03h-4.12c0.05,0.68,0.23,1.19,0.55,1.51c0.32,0.32,0.75,0.48,1.27,0.48c0.26,0,0.48-0.03,0.67-0.09
			c0.19-0.06,0.35-0.13,0.49-0.2c0.14-0.07,0.26-0.14,0.37-0.2s0.21-0.09,0.31-0.09c0.07,0,0.12,0.01,0.17,0.04
			c0.05,0.03,0.09,0.06,0.12,0.11l0.47,0.58c-0.18,0.21-0.38,0.38-0.6,0.52c-0.22,0.14-0.45,0.25-0.69,0.34
			c-0.24,0.08-0.49,0.14-0.73,0.18c-0.25,0.03-0.49,0.05-0.72,0.05c-0.46,0-0.9-0.08-1.29-0.23c-0.4-0.15-0.75-0.38-1.04-0.68
			c-0.29-0.3-0.53-0.67-0.7-1.12s-0.25-0.96-0.25-1.54c0-0.46,0.07-0.88,0.22-1.28c0.15-0.4,0.36-0.75,0.63-1.05
			c0.27-0.3,0.61-0.53,1.01-0.71C495.68,12.7,496.12,12.61,496.62,12.61z M496.66,13.76c-0.47,0-0.83,0.13-1.1,0.4
			c-0.26,0.26-0.43,0.64-0.51,1.12h3.02c0-0.21-0.03-0.4-0.08-0.59c-0.06-0.18-0.14-0.35-0.26-0.48c-0.12-0.14-0.26-0.25-0.44-0.33
			S496.89,13.76,496.66,13.76z"/>
		<path class="st2" d="M501.39,19.39v-6.67h0.94c0.16,0,0.28,0.03,0.34,0.09c0.07,0.06,0.11,0.17,0.13,0.31l0.1,0.81
			c0.24-0.41,0.52-0.74,0.84-0.97s0.68-0.36,1.08-0.36c0.33,0,0.6,0.08,0.82,0.23l-0.21,1.2c-0.01,0.08-0.04,0.13-0.08,0.17
			c-0.04,0.03-0.1,0.05-0.18,0.05c-0.06,0-0.15-0.01-0.27-0.04c-0.11-0.03-0.26-0.05-0.45-0.05c-0.33,0-0.62,0.09-0.86,0.28
			c-0.24,0.18-0.44,0.45-0.6,0.81v4.15H501.39z"/>
		<path class="st2" d="M511.23,14.02c-0.04,0.07-0.09,0.12-0.14,0.15s-0.11,0.04-0.18,0.04c-0.08,0-0.16-0.02-0.25-0.06
			c-0.09-0.04-0.19-0.09-0.31-0.15c-0.12-0.05-0.25-0.1-0.4-0.15s-0.33-0.06-0.53-0.06c-0.32,0-0.57,0.07-0.75,0.2
			c-0.18,0.13-0.27,0.31-0.27,0.53c0,0.14,0.05,0.26,0.14,0.36c0.09,0.1,0.22,0.18,0.37,0.26c0.15,0.07,0.33,0.14,0.52,0.2
			s0.39,0.12,0.6,0.19c0.2,0.07,0.4,0.15,0.6,0.24c0.19,0.09,0.37,0.2,0.52,0.34c0.15,0.14,0.28,0.3,0.37,0.49
			c0.09,0.19,0.14,0.42,0.14,0.69c0,0.32-0.06,0.62-0.18,0.89c-0.12,0.27-0.29,0.5-0.51,0.7c-0.23,0.2-0.5,0.35-0.84,0.46
			c-0.33,0.11-0.71,0.17-1.14,0.17c-0.23,0-0.45-0.02-0.67-0.06s-0.43-0.1-0.63-0.17c-0.2-0.07-0.39-0.16-0.56-0.26
			s-0.32-0.21-0.45-0.33l0.37-0.61c0.05-0.07,0.1-0.13,0.17-0.17s0.15-0.06,0.25-0.06s0.19,0.03,0.28,0.08
			c0.09,0.06,0.19,0.12,0.31,0.18c0.12,0.07,0.25,0.13,0.41,0.18c0.16,0.06,0.36,0.08,0.6,0.08c0.19,0,0.35-0.02,0.49-0.07
			c0.14-0.04,0.25-0.1,0.34-0.18c0.09-0.07,0.15-0.16,0.19-0.26s0.06-0.2,0.06-0.3c0-0.16-0.05-0.28-0.14-0.38
			c-0.09-0.1-0.22-0.19-0.37-0.26c-0.15-0.07-0.33-0.14-0.53-0.2s-0.4-0.12-0.6-0.19s-0.41-0.15-0.6-0.24
			c-0.2-0.09-0.37-0.21-0.53-0.35c-0.15-0.14-0.28-0.32-0.37-0.53c-0.09-0.21-0.14-0.46-0.14-0.75c0-0.27,0.05-0.53,0.16-0.78
			c0.11-0.25,0.27-0.46,0.48-0.65c0.21-0.18,0.47-0.33,0.79-0.44s0.68-0.17,1.09-0.17c0.46,0,0.88,0.08,1.25,0.23
			c0.38,0.15,0.69,0.35,0.94,0.6L511.23,14.02z"/>
		<path class="st2" d="M513.51,19.39V9.73h1.61v3.71c0.26-0.25,0.55-0.45,0.86-0.6c0.31-0.15,0.68-0.23,1.1-0.23
			c0.36,0,0.69,0.06,0.97,0.19c0.28,0.12,0.52,0.3,0.71,0.52c0.19,0.22,0.33,0.49,0.43,0.8c0.1,0.31,0.15,0.65,0.15,1.02v4.24h-1.61
			v-4.24c0-0.41-0.09-0.72-0.28-0.95c-0.19-0.22-0.47-0.33-0.85-0.33c-0.28,0-0.54,0.06-0.78,0.19c-0.24,0.13-0.47,0.3-0.69,0.51
			v4.82H513.51z"/>
		<path class="st2" d="M523.33,10.77c0,0.14-0.03,0.27-0.08,0.39c-0.06,0.12-0.13,0.23-0.22,0.32c-0.09,0.09-0.2,0.16-0.33,0.22
			c-0.13,0.05-0.26,0.08-0.4,0.08c-0.14,0-0.27-0.03-0.39-0.08c-0.12-0.05-0.23-0.13-0.32-0.22s-0.16-0.2-0.22-0.32
			c-0.05-0.12-0.08-0.25-0.08-0.39c0-0.14,0.03-0.28,0.08-0.4c0.05-0.13,0.13-0.23,0.22-0.33c0.09-0.09,0.2-0.16,0.32-0.22
			c0.12-0.05,0.25-0.08,0.39-0.08c0.14,0,0.28,0.03,0.4,0.08c0.13,0.05,0.24,0.13,0.33,0.22c0.09,0.09,0.17,0.2,0.22,0.33
			C523.3,10.5,523.33,10.63,523.33,10.77z M523.09,12.72v6.67h-1.61v-6.67H523.09z"/>
		<path class="st2" d="M525.37,21.56v-8.85h0.98c0.1,0,0.19,0.02,0.27,0.07c0.07,0.05,0.12,0.12,0.14,0.22l0.13,0.62
			c0.27-0.31,0.58-0.56,0.93-0.75c0.35-0.19,0.76-0.29,1.22-0.29c0.36,0,0.7,0.08,1,0.23c0.3,0.15,0.56,0.37,0.78,0.66
			s0.39,0.64,0.51,1.07c0.12,0.42,0.18,0.91,0.18,1.45c0,0.5-0.07,0.96-0.2,1.38c-0.13,0.42-0.33,0.79-0.58,1.1
			c-0.25,0.31-0.55,0.56-0.9,0.73c-0.35,0.18-0.75,0.26-1.19,0.26c-0.38,0-0.7-0.06-0.96-0.17c-0.26-0.11-0.5-0.27-0.71-0.48v2.73
			H525.37z M528.49,13.86c-0.33,0-0.62,0.07-0.85,0.21s-0.46,0.34-0.66,0.59v2.99c0.18,0.22,0.38,0.38,0.59,0.47
			c0.21,0.09,0.45,0.13,0.69,0.13c0.24,0,0.46-0.05,0.66-0.14s0.36-0.23,0.5-0.42c0.14-0.19,0.24-0.42,0.31-0.71
			c0.07-0.28,0.11-0.62,0.11-1c0-0.39-0.03-0.72-0.09-0.99c-0.06-0.27-0.15-0.49-0.27-0.66s-0.26-0.29-0.43-0.37
			S528.71,13.86,528.49,13.86z"/>
	</g>
	<g>
		<path class="st3" d="M51.02,66.14c0,0.63-0.07,1.17-0.2,1.63c-0.13,0.46-0.32,0.84-0.55,1.14c-0.23,0.3-0.51,0.52-0.83,0.67
			c-0.32,0.15-0.66,0.22-1.02,0.22c-0.37,0-0.71-0.07-1.02-0.22c-0.31-0.15-0.59-0.37-0.82-0.67c-0.23-0.3-0.42-0.68-0.55-1.14
			c-0.13-0.46-0.2-1-0.2-1.63s0.07-1.17,0.2-1.63s0.32-0.84,0.55-1.14s0.51-0.53,0.82-0.67c0.31-0.15,0.66-0.22,1.02-0.22
			c0.36,0,0.7,0.07,1.02,0.22c0.32,0.15,0.59,0.37,0.83,0.67s0.42,0.68,0.55,1.14C50.95,64.97,51.02,65.51,51.02,66.14z
			 M50.09,66.14c0-0.55-0.05-1.01-0.14-1.38c-0.09-0.37-0.21-0.67-0.37-0.9c-0.15-0.23-0.33-0.39-0.54-0.49
			c-0.2-0.1-0.41-0.15-0.63-0.15s-0.43,0.05-0.64,0.15c-0.2,0.1-0.38,0.26-0.53,0.49c-0.15,0.23-0.28,0.53-0.37,0.9
			c-0.09,0.37-0.14,0.83-0.14,1.38s0.05,1,0.14,1.38s0.21,0.67,0.37,0.9c0.15,0.23,0.33,0.39,0.53,0.49c0.2,0.1,0.42,0.15,0.64,0.15
			s0.43-0.05,0.63-0.15c0.2-0.1,0.38-0.26,0.54-0.49c0.16-0.23,0.28-0.53,0.37-0.9S50.09,66.69,50.09,66.14z"/>
		<path class="st3" d="M56.08,68.9h3.1v0.82h-4.07v-7.17h0.97V68.9z"/>
	</g>
	<g>
		<path class="st3" d="M135.97,69.04h1.54v-4.89c0-0.15,0-0.29,0.02-0.44l-1.28,1.09c-0.03,0.03-0.07,0.05-0.1,0.06
			s-0.06,0.02-0.09,0.02c-0.05,0-0.1-0.01-0.14-0.03c-0.04-0.02-0.07-0.05-0.09-0.08l-0.28-0.38l2.13-1.84h0.73v6.5h1.41v0.68h-3.84
			V69.04z"/>
		<path class="st3" d="M145.1,68.9h3.1v0.82h-4.07v-7.17h0.97V68.9z"/>
	</g>
	<g>
		<path class="st3" d="M226.56,62.47c0.3,0,0.59,0.04,0.85,0.13c0.26,0.09,0.49,0.22,0.68,0.39c0.19,0.17,0.34,0.38,0.45,0.63
			c0.11,0.25,0.16,0.53,0.16,0.84c0,0.27-0.04,0.51-0.12,0.74s-0.19,0.44-0.33,0.65s-0.29,0.41-0.47,0.6
			c-0.18,0.2-0.37,0.39-0.57,0.6l-1.88,1.93c0.13-0.04,0.27-0.07,0.4-0.09s0.27-0.03,0.4-0.03h2.4c0.1,0,0.17,0.03,0.23,0.08
			s0.08,0.13,0.08,0.22v0.54h-4.78v-0.3c0-0.06,0.01-0.13,0.04-0.2s0.07-0.13,0.12-0.18l2.29-2.31c0.19-0.19,0.36-0.38,0.52-0.56
			c0.16-0.18,0.29-0.36,0.4-0.54s0.2-0.36,0.26-0.55c0.06-0.18,0.09-0.38,0.09-0.59s-0.03-0.39-0.1-0.55
			c-0.07-0.16-0.16-0.29-0.27-0.39s-0.25-0.18-0.41-0.23s-0.33-0.08-0.5-0.08c-0.18,0-0.35,0.03-0.5,0.08
			c-0.15,0.05-0.29,0.13-0.41,0.22c-0.12,0.1-0.22,0.21-0.3,0.34c-0.08,0.13-0.14,0.27-0.17,0.43c-0.03,0.1-0.07,0.17-0.12,0.21
			c-0.05,0.04-0.12,0.07-0.21,0.07c-0.02,0-0.03,0-0.05,0c-0.02,0-0.04,0-0.06-0.01l-0.46-0.08c0.05-0.33,0.14-0.62,0.27-0.87
			c0.13-0.25,0.3-0.46,0.51-0.63s0.44-0.3,0.71-0.39C225.97,62.52,226.25,62.47,226.56,62.47z"/>
		<path class="st3" d="M234.12,68.9h3.1v0.82h-4.07v-7.17h0.97V68.9z"/>
	</g>
	<g>
		<path class="st3" d="M315.67,62.47c0.3,0,0.58,0.04,0.84,0.13c0.26,0.09,0.48,0.21,0.66,0.37c0.18,0.16,0.33,0.35,0.43,0.58
			c0.1,0.23,0.15,0.48,0.15,0.75c0,0.23-0.03,0.43-0.09,0.61c-0.06,0.18-0.14,0.33-0.25,0.47c-0.11,0.13-0.24,0.25-0.39,0.34
			c-0.15,0.09-0.33,0.17-0.52,0.23c0.47,0.12,0.82,0.33,1.05,0.62c0.24,0.29,0.35,0.65,0.35,1.09c0,0.33-0.06,0.63-0.19,0.89
			s-0.3,0.49-0.51,0.67c-0.22,0.18-0.47,0.33-0.76,0.42c-0.29,0.1-0.6,0.15-0.93,0.15c-0.38,0-0.71-0.05-0.97-0.14
			c-0.27-0.09-0.5-0.23-0.69-0.39s-0.34-0.36-0.46-0.59c-0.12-0.23-0.22-0.48-0.3-0.74l0.38-0.16c0.07-0.03,0.14-0.04,0.21-0.04
			c0.07,0,0.13,0.01,0.18,0.04s0.09,0.07,0.12,0.13c0.01,0.01,0.01,0.03,0.02,0.04c0.01,0.01,0.01,0.03,0.02,0.05
			c0.05,0.1,0.1,0.21,0.17,0.33c0.07,0.12,0.16,0.24,0.27,0.34c0.11,0.11,0.25,0.2,0.42,0.27s0.38,0.11,0.63,0.11
			s0.47-0.04,0.66-0.12c0.19-0.08,0.34-0.19,0.47-0.32s0.22-0.27,0.28-0.43c0.06-0.16,0.09-0.32,0.09-0.48
			c0-0.19-0.03-0.37-0.08-0.53c-0.05-0.16-0.14-0.3-0.28-0.42c-0.14-0.12-0.32-0.21-0.56-0.28s-0.54-0.1-0.92-0.1v-0.65
			c0.3,0,0.56-0.03,0.78-0.09s0.39-0.15,0.53-0.26c0.14-0.11,0.24-0.24,0.3-0.39s0.09-0.32,0.09-0.51c0-0.21-0.03-0.39-0.1-0.54
			c-0.07-0.15-0.15-0.28-0.27-0.38c-0.11-0.1-0.25-0.18-0.4-0.23c-0.16-0.05-0.32-0.08-0.5-0.08s-0.35,0.03-0.5,0.08
			c-0.15,0.05-0.29,0.13-0.41,0.22c-0.12,0.09-0.22,0.21-0.3,0.34c-0.08,0.13-0.14,0.27-0.18,0.43c-0.03,0.1-0.07,0.17-0.12,0.21
			c-0.05,0.04-0.12,0.06-0.21,0.06c-0.02,0-0.03,0-0.05,0s-0.04,0-0.06-0.01l-0.46-0.08c0.05-0.33,0.14-0.62,0.27-0.87
			c0.13-0.25,0.3-0.46,0.51-0.63s0.44-0.3,0.71-0.39C315.08,62.52,315.37,62.47,315.67,62.47z"/>
		<path class="st3" d="M323.14,68.9h3.1v0.82h-4.07v-7.17h0.97V68.9z"/>
	</g>
	<g>
		<path class="st3" d="M406.11,67.13h1.08v0.51c0,0.05-0.02,0.1-0.05,0.13c-0.03,0.04-0.08,0.06-0.15,0.06h-0.89v1.88h-0.78v-1.88
			h-3.18c-0.07,0-0.12-0.02-0.17-0.06c-0.05-0.04-0.08-0.09-0.09-0.14l-0.09-0.46l3.48-4.63h0.83V67.13z M405.33,64.18
			c0-0.09,0-0.18,0.01-0.28c0-0.1,0.02-0.2,0.03-0.31l-2.6,3.54h2.57V64.18z"/>
		<path class="st3" d="M412.16,68.9h3.1v0.82h-4.07v-7.17h0.97V68.9z"/>
	</g>
	<g>
		<path class="st3" d="M495.5,62.94c0,0.13-0.04,0.23-0.12,0.31c-0.08,0.08-0.21,0.12-0.4,0.12h-2.25l-0.33,1.88
			c0.37-0.08,0.72-0.12,1.04-0.12c0.37,0,0.7,0.05,0.99,0.17s0.52,0.26,0.72,0.46s0.34,0.42,0.44,0.68c0.1,0.26,0.15,0.55,0.15,0.86
			c0,0.38-0.07,0.72-0.2,1.03c-0.13,0.31-0.32,0.57-0.55,0.79c-0.23,0.22-0.5,0.39-0.82,0.5c-0.31,0.12-0.65,0.17-1.01,0.17
			c-0.21,0-0.41-0.02-0.61-0.06s-0.37-0.1-0.54-0.17c-0.17-0.07-0.32-0.15-0.46-0.24c-0.14-0.09-0.27-0.19-0.38-0.29l0.27-0.38
			c0.06-0.09,0.14-0.13,0.24-0.13c0.06,0,0.14,0.03,0.22,0.08s0.19,0.11,0.31,0.17c0.12,0.06,0.26,0.12,0.42,0.17
			c0.16,0.05,0.35,0.08,0.58,0.08c0.25,0,0.47-0.04,0.67-0.12s0.37-0.19,0.51-0.34s0.25-0.33,0.33-0.53
			c0.08-0.21,0.12-0.44,0.12-0.7c0-0.22-0.03-0.42-0.1-0.61c-0.06-0.18-0.16-0.33-0.29-0.46c-0.13-0.13-0.3-0.22-0.49-0.29
			c-0.2-0.07-0.43-0.1-0.69-0.1c-0.18,0-0.37,0.01-0.56,0.04s-0.39,0.08-0.6,0.14l-0.56-0.17l0.58-3.35h3.39V62.94z"/>
		<path class="st3" d="M501.18,68.9h3.1v0.82h-4.07v-7.17h0.97V68.9z"/>
	</g>
	<g>
		<path class="st4" d="M206.75,99.45h-1.05c-0.12,0-0.22-0.03-0.29-0.09s-0.13-0.14-0.17-0.23l-0.94-2.42h-4.5l-0.94,2.42
			c-0.03,0.08-0.09,0.16-0.17,0.22c-0.08,0.07-0.18,0.1-0.29,0.1h-1.05l4.01-10.03h1.38L206.75,99.45z M200.17,95.72h3.75
			l-1.58-4.08c-0.1-0.25-0.2-0.57-0.3-0.95c-0.05,0.19-0.1,0.37-0.15,0.53c-0.05,0.16-0.1,0.3-0.14,0.42L200.17,95.72z"/>
		<path class="st4" d="M208.53,99.45v-7.09h0.74c0.18,0,0.29,0.09,0.34,0.26l0.1,0.77c0.31-0.34,0.65-0.62,1.03-0.83
			s0.82-0.32,1.32-0.32c0.39,0,0.73,0.06,1.03,0.19c0.3,0.13,0.54,0.31,0.74,0.55c0.2,0.24,0.35,0.52,0.45,0.85
			c0.1,0.33,0.15,0.7,0.15,1.1v4.51h-1.25v-4.51c0-0.54-0.12-0.95-0.37-1.25c-0.25-0.3-0.62-0.44-1.12-0.44
			c-0.37,0-0.71,0.09-1.03,0.27c-0.32,0.18-0.61,0.42-0.89,0.72v5.22H208.53z"/>
		<path class="st4" d="M216.89,99.45v-7.09h0.74c0.18,0,0.29,0.09,0.34,0.26l0.1,0.77c0.31-0.34,0.65-0.62,1.03-0.83
			s0.82-0.32,1.32-0.32c0.39,0,0.73,0.06,1.03,0.19c0.3,0.13,0.54,0.31,0.74,0.55c0.2,0.24,0.35,0.52,0.45,0.85
			c0.1,0.33,0.15,0.7,0.15,1.1v4.51h-1.25v-4.51c0-0.54-0.12-0.95-0.37-1.25c-0.25-0.3-0.62-0.44-1.12-0.44
			c-0.37,0-0.71,0.09-1.03,0.27c-0.32,0.18-0.61,0.42-0.89,0.72v5.22H216.89z"/>
		<path class="st4" d="M226.37,92.36v4.52c0,0.54,0.12,0.95,0.37,1.25c0.25,0.29,0.62,0.44,1.12,0.44c0.36,0,0.71-0.09,1.03-0.26
			c0.32-0.17,0.62-0.41,0.89-0.72v-5.23h1.25v7.09h-0.74c-0.18,0-0.29-0.09-0.34-0.26l-0.1-0.76c-0.31,0.34-0.65,0.62-1.04,0.82
			c-0.38,0.21-0.82,0.31-1.32,0.31c-0.39,0-0.73-0.06-1.03-0.19c-0.3-0.13-0.54-0.31-0.75-0.54s-0.35-0.52-0.45-0.85
			c-0.1-0.33-0.15-0.7-0.15-1.1v-4.52H226.37z"/>
		<path class="st4" d="M238.72,99.45h-0.55c-0.12,0-0.22-0.02-0.29-0.06c-0.07-0.04-0.12-0.12-0.15-0.24l-0.14-0.66
			c-0.19,0.17-0.37,0.32-0.55,0.45c-0.18,0.13-0.36,0.25-0.56,0.34c-0.2,0.09-0.41,0.16-0.63,0.21s-0.47,0.07-0.74,0.07
			c-0.28,0-0.53-0.04-0.77-0.12s-0.45-0.19-0.63-0.35c-0.18-0.15-0.32-0.35-0.42-0.59c-0.1-0.24-0.16-0.52-0.16-0.84
			c0-0.28,0.08-0.55,0.23-0.81s0.4-0.49,0.75-0.69c0.34-0.2,0.79-0.37,1.35-0.5c0.56-0.13,1.23-0.19,2.04-0.19v-0.56
			c0-0.55-0.12-0.97-0.35-1.26c-0.24-0.28-0.58-0.43-1.05-0.43c-0.3,0-0.56,0.04-0.77,0.12s-0.39,0.16-0.54,0.26
			c-0.15,0.1-0.28,0.18-0.39,0.26c-0.11,0.08-0.22,0.12-0.33,0.12c-0.08,0-0.16-0.02-0.22-0.07s-0.11-0.1-0.15-0.17l-0.22-0.4
			c0.39-0.38,0.81-0.66,1.27-0.85c0.45-0.19,0.95-0.28,1.5-0.28c0.4,0,0.75,0.07,1.06,0.2c0.31,0.13,0.57,0.31,0.78,0.55
			c0.21,0.23,0.37,0.52,0.48,0.85s0.16,0.7,0.16,1.09V99.45z M235.48,98.68c0.22,0,0.42-0.02,0.6-0.07
			c0.18-0.04,0.35-0.11,0.51-0.19c0.16-0.08,0.32-0.18,0.46-0.3c0.15-0.12,0.29-0.25,0.43-0.4v-1.46c-0.57,0-1.06,0.04-1.46,0.11
			c-0.4,0.07-0.73,0.17-0.98,0.28c-0.25,0.12-0.44,0.26-0.55,0.42c-0.11,0.16-0.17,0.34-0.17,0.54c0,0.19,0.03,0.35,0.09,0.49
			c0.06,0.14,0.14,0.25,0.24,0.33c0.1,0.09,0.22,0.15,0.36,0.19C235.17,98.66,235.32,98.68,235.48,98.68z"/>
		<path class="st4" d="M242.5,89.14v10.31h-1.25V89.14H242.5z"/>
		<path class="st4" d="M250.46,95.7v3.75h-1.35V89.42h2.96c0.63,0,1.19,0.07,1.66,0.22c0.47,0.15,0.86,0.36,1.17,0.63
			c0.31,0.27,0.54,0.6,0.69,0.98c0.15,0.38,0.23,0.81,0.23,1.28c0,0.47-0.08,0.89-0.25,1.28c-0.16,0.39-0.4,0.72-0.72,1
			c-0.32,0.28-0.71,0.5-1.17,0.65s-1,0.23-1.6,0.23H250.46z M250.46,94.62h1.61c0.39,0,0.73-0.05,1.03-0.15
			c0.3-0.1,0.54-0.25,0.75-0.43c0.2-0.18,0.35-0.41,0.46-0.66s0.15-0.54,0.15-0.85c0-0.64-0.2-1.14-0.59-1.5s-0.99-0.54-1.79-0.54
			h-1.61V94.62z"/>
		<path class="st4" d="M258.97,92.36v4.52c0,0.54,0.12,0.95,0.37,1.25c0.25,0.29,0.62,0.44,1.12,0.44c0.36,0,0.71-0.09,1.03-0.26
			c0.32-0.17,0.62-0.41,0.89-0.72v-5.23h1.25v7.09h-0.74c-0.18,0-0.29-0.09-0.34-0.26l-0.1-0.76c-0.31,0.34-0.65,0.62-1.04,0.82
			c-0.38,0.21-0.82,0.31-1.32,0.31c-0.39,0-0.73-0.06-1.03-0.19c-0.3-0.13-0.54-0.31-0.75-0.54s-0.35-0.52-0.45-0.85
			c-0.1-0.33-0.15-0.7-0.15-1.1v-4.52H258.97z"/>
		<path class="st4" d="M266.17,99.45v-7.09h0.71c0.14,0,0.23,0.03,0.28,0.08c0.05,0.05,0.09,0.14,0.1,0.27l0.08,1.11
			c0.24-0.5,0.54-0.88,0.9-1.16c0.36-0.28,0.78-0.42,1.26-0.42c0.2,0,0.37,0.02,0.53,0.07s0.31,0.11,0.44,0.19l-0.16,0.93
			c-0.03,0.12-0.1,0.17-0.22,0.17c-0.07,0-0.17-0.02-0.3-0.07c-0.14-0.04-0.32-0.07-0.57-0.07c-0.43,0-0.8,0.13-1.09,0.38
			s-0.54,0.62-0.73,1.1v4.51H266.17z"/>
		<path class="st4" d="M277.07,93.62c-0.04,0.05-0.08,0.09-0.11,0.12s-0.09,0.04-0.16,0.04c-0.07,0-0.15-0.03-0.23-0.09
			c-0.08-0.06-0.19-0.12-0.31-0.19c-0.13-0.07-0.28-0.13-0.46-0.19s-0.4-0.09-0.66-0.09c-0.35,0-0.65,0.06-0.92,0.19
			c-0.27,0.12-0.49,0.3-0.67,0.54s-0.31,0.52-0.41,0.85s-0.14,0.7-0.14,1.11c0,0.43,0.05,0.81,0.15,1.14
			c0.1,0.33,0.24,0.61,0.41,0.84s0.39,0.4,0.65,0.52c0.25,0.12,0.54,0.18,0.86,0.18c0.3,0,0.55-0.04,0.75-0.11
			c0.2-0.07,0.36-0.15,0.49-0.24c0.13-0.09,0.24-0.17,0.32-0.24c0.08-0.07,0.17-0.11,0.25-0.11c0.11,0,0.19,0.04,0.24,0.12
			l0.35,0.46c-0.31,0.38-0.69,0.65-1.16,0.83c-0.46,0.17-0.95,0.26-1.46,0.26c-0.44,0-0.85-0.08-1.24-0.25
			c-0.38-0.16-0.71-0.4-0.99-0.71c-0.28-0.31-0.5-0.69-0.66-1.14c-0.16-0.45-0.24-0.97-0.24-1.55c0-0.53,0.07-1.02,0.22-1.46
			c0.15-0.45,0.36-0.83,0.64-1.16c0.28-0.32,0.63-0.58,1.05-0.76c0.42-0.18,0.89-0.27,1.43-0.27c0.49,0,0.93,0.08,1.32,0.24
			c0.38,0.16,0.72,0.39,1.02,0.68L277.07,93.62z"/>
		<path class="st4" d="M279.32,99.45V89.14h1.25v4.17c0.3-0.32,0.64-0.58,1.01-0.77c0.37-0.19,0.79-0.29,1.27-0.29
			c0.39,0,0.73,0.06,1.03,0.19c0.3,0.13,0.54,0.31,0.74,0.55c0.2,0.24,0.35,0.52,0.45,0.85c0.1,0.33,0.15,0.7,0.15,1.1v4.51h-1.25
			v-4.51c0-0.54-0.12-0.95-0.37-1.25c-0.24-0.3-0.62-0.44-1.12-0.44c-0.37,0-0.71,0.09-1.03,0.27c-0.32,0.18-0.61,0.42-0.88,0.72
			v5.22H279.32z"/>
		<path class="st4" d="M292.8,99.45h-0.55c-0.12,0-0.22-0.02-0.29-0.06c-0.07-0.04-0.12-0.12-0.15-0.24l-0.14-0.66
			c-0.19,0.17-0.37,0.32-0.55,0.45c-0.18,0.13-0.36,0.25-0.56,0.34c-0.2,0.09-0.41,0.16-0.63,0.21s-0.47,0.07-0.74,0.07
			c-0.28,0-0.53-0.04-0.77-0.12s-0.45-0.19-0.63-0.35s-0.32-0.35-0.42-0.59c-0.1-0.24-0.16-0.52-0.16-0.84
			c0-0.28,0.08-0.55,0.23-0.81s0.4-0.49,0.75-0.69c0.34-0.2,0.79-0.37,1.35-0.5c0.56-0.13,1.23-0.19,2.04-0.19v-0.56
			c0-0.55-0.12-0.97-0.35-1.26s-0.58-0.43-1.05-0.43c-0.3,0-0.56,0.04-0.77,0.12c-0.21,0.08-0.39,0.16-0.54,0.26
			c-0.15,0.1-0.28,0.18-0.39,0.26c-0.11,0.08-0.22,0.12-0.33,0.12c-0.08,0-0.16-0.02-0.22-0.07s-0.11-0.1-0.15-0.17l-0.22-0.4
			c0.39-0.38,0.81-0.66,1.27-0.85c0.45-0.19,0.96-0.28,1.5-0.28c0.4,0,0.75,0.07,1.06,0.2c0.31,0.13,0.57,0.31,0.78,0.55
			s0.37,0.52,0.48,0.85s0.16,0.7,0.16,1.09V99.45z M289.56,98.68c0.22,0,0.42-0.02,0.6-0.07c0.18-0.04,0.35-0.11,0.51-0.19
			c0.16-0.08,0.32-0.18,0.46-0.3c0.15-0.12,0.29-0.25,0.43-0.4v-1.46c-0.57,0-1.06,0.04-1.46,0.11c-0.4,0.07-0.73,0.17-0.98,0.28
			c-0.25,0.12-0.44,0.26-0.55,0.42c-0.11,0.16-0.17,0.34-0.17,0.54c0,0.19,0.03,0.35,0.09,0.49c0.06,0.14,0.14,0.25,0.25,0.33
			s0.22,0.15,0.36,0.19C289.25,98.66,289.4,98.68,289.56,98.68z"/>
		<path class="st4" d="M299.29,93.53c-0.06,0.1-0.14,0.15-0.26,0.15c-0.07,0-0.15-0.03-0.24-0.08c-0.09-0.05-0.2-0.11-0.33-0.17
			c-0.13-0.06-0.28-0.12-0.46-0.17c-0.18-0.05-0.39-0.08-0.63-0.08c-0.21,0-0.4,0.03-0.57,0.08s-0.31,0.13-0.43,0.22
			c-0.12,0.09-0.21,0.2-0.27,0.33s-0.09,0.26-0.09,0.4c0,0.18,0.05,0.33,0.16,0.46c0.1,0.12,0.24,0.23,0.42,0.32
			c0.17,0.09,0.37,0.17,0.59,0.23c0.22,0.07,0.45,0.14,0.68,0.22s0.46,0.16,0.68,0.26c0.22,0.09,0.42,0.21,0.59,0.35
			c0.17,0.14,0.31,0.31,0.42,0.51s0.16,0.45,0.16,0.73c0,0.33-0.06,0.63-0.18,0.91c-0.12,0.28-0.29,0.52-0.52,0.72
			c-0.23,0.2-0.51,0.36-0.84,0.48c-0.33,0.12-0.71,0.18-1.15,0.18c-0.49,0-0.94-0.08-1.34-0.24c-0.4-0.16-0.74-0.37-1.02-0.62
			l0.29-0.48c0.04-0.06,0.08-0.11,0.13-0.14c0.05-0.03,0.12-0.05,0.2-0.05s0.17,0.03,0.27,0.1c0.09,0.07,0.21,0.14,0.34,0.22
			c0.13,0.08,0.29,0.15,0.48,0.22s0.43,0.1,0.71,0.1c0.24,0,0.46-0.03,0.64-0.09c0.18-0.06,0.33-0.15,0.46-0.25
			c0.12-0.11,0.21-0.23,0.27-0.37c0.06-0.14,0.09-0.29,0.09-0.45c0-0.2-0.05-0.36-0.16-0.49s-0.24-0.24-0.42-0.33
			c-0.17-0.09-0.37-0.17-0.59-0.24c-0.22-0.07-0.45-0.14-0.68-0.21c-0.23-0.08-0.46-0.16-0.68-0.26c-0.22-0.1-0.42-0.22-0.59-0.36
			c-0.17-0.14-0.31-0.32-0.42-0.54c-0.11-0.21-0.16-0.47-0.16-0.77c0-0.27,0.06-0.53,0.17-0.78c0.11-0.25,0.28-0.47,0.49-0.66
			c0.21-0.19,0.48-0.34,0.79-0.45c0.31-0.11,0.67-0.17,1.07-0.17c0.47,0,0.88,0.07,1.26,0.22c0.37,0.15,0.69,0.35,0.96,0.61
			L299.29,93.53z"/>
		<path class="st4" d="M304.71,92.24c0.42,0,0.82,0.07,1.18,0.21s0.67,0.35,0.93,0.62c0.26,0.27,0.46,0.6,0.61,0.99
			c0.15,0.39,0.22,0.84,0.22,1.35c0,0.2-0.02,0.33-0.06,0.39s-0.12,0.1-0.24,0.1h-4.72c0.01,0.45,0.07,0.84,0.18,1.17
			c0.11,0.33,0.27,0.61,0.46,0.83c0.2,0.22,0.43,0.39,0.7,0.5c0.27,0.11,0.57,0.17,0.91,0.17c0.31,0,0.58-0.04,0.81-0.11
			c0.23-0.07,0.42-0.15,0.58-0.23c0.16-0.08,0.3-0.16,0.41-0.24c0.11-0.07,0.2-0.11,0.28-0.11c0.1,0,0.18,0.04,0.24,0.12l0.35,0.46
			c-0.15,0.19-0.34,0.35-0.55,0.49c-0.21,0.14-0.44,0.25-0.69,0.34s-0.5,0.16-0.76,0.2c-0.26,0.04-0.52,0.07-0.78,0.07
			c-0.49,0-0.94-0.08-1.36-0.25c-0.41-0.17-0.77-0.41-1.07-0.73c-0.3-0.32-0.54-0.71-0.7-1.19c-0.17-0.47-0.25-1.01-0.25-1.62
			c0-0.49,0.08-0.96,0.23-1.39c0.15-0.43,0.37-0.8,0.65-1.12c0.29-0.32,0.63-0.56,1.04-0.74C303.73,92.33,304.19,92.24,304.71,92.24
			z M304.73,93.16c-0.6,0-1.08,0.17-1.42,0.52c-0.35,0.35-0.56,0.83-0.64,1.45h3.86c0-0.29-0.04-0.55-0.12-0.79
			c-0.08-0.24-0.2-0.45-0.35-0.62c-0.15-0.17-0.34-0.31-0.56-0.41C305.27,93.21,305.02,93.16,304.73,93.16z"/>
		<path class="st4" d="M312.37,89.42h1.09c0.12,0,0.22,0.03,0.29,0.09c0.08,0.06,0.13,0.14,0.17,0.23l2.84,7.08
			c0.06,0.16,0.12,0.33,0.18,0.52c0.05,0.19,0.11,0.38,0.16,0.58c0.04-0.2,0.09-0.39,0.14-0.58c0.05-0.19,0.11-0.36,0.17-0.52
			l2.82-7.08c0.03-0.08,0.09-0.15,0.17-0.22c0.08-0.07,0.18-0.1,0.29-0.1h1.09l-4.09,10.03h-1.23L312.37,89.42z"/>
		<path class="st4" d="M328.05,99.45h-0.55c-0.12,0-0.22-0.02-0.29-0.06c-0.07-0.04-0.12-0.12-0.15-0.24l-0.14-0.66
			c-0.19,0.17-0.37,0.32-0.55,0.45c-0.18,0.13-0.36,0.25-0.56,0.34c-0.2,0.09-0.41,0.16-0.63,0.21s-0.47,0.07-0.74,0.07
			c-0.28,0-0.53-0.04-0.77-0.12s-0.45-0.19-0.63-0.35c-0.18-0.15-0.32-0.35-0.42-0.59c-0.11-0.24-0.16-0.52-0.16-0.84
			c0-0.28,0.08-0.55,0.23-0.81s0.4-0.49,0.75-0.69c0.34-0.2,0.79-0.37,1.35-0.5c0.56-0.13,1.23-0.19,2.04-0.19v-0.56
			c0-0.55-0.12-0.97-0.35-1.26s-0.58-0.43-1.05-0.43c-0.3,0-0.56,0.04-0.77,0.12c-0.21,0.08-0.39,0.16-0.54,0.26
			c-0.15,0.1-0.28,0.18-0.39,0.26c-0.11,0.08-0.22,0.12-0.33,0.12c-0.08,0-0.16-0.02-0.22-0.07c-0.06-0.04-0.11-0.1-0.15-0.17
			l-0.22-0.4c0.39-0.38,0.81-0.66,1.27-0.85c0.45-0.19,0.95-0.28,1.5-0.28c0.4,0,0.75,0.07,1.06,0.2c0.31,0.13,0.57,0.31,0.78,0.55
			s0.37,0.52,0.48,0.85s0.16,0.7,0.16,1.09V99.45z M324.82,98.68c0.22,0,0.42-0.02,0.6-0.07c0.18-0.04,0.35-0.11,0.51-0.19
			c0.16-0.08,0.32-0.18,0.46-0.3c0.15-0.12,0.29-0.25,0.43-0.4v-1.46c-0.57,0-1.06,0.04-1.46,0.11c-0.4,0.07-0.73,0.17-0.98,0.28
			c-0.25,0.12-0.43,0.26-0.55,0.42c-0.11,0.16-0.17,0.34-0.17,0.54c0,0.19,0.03,0.35,0.09,0.49c0.06,0.14,0.14,0.25,0.25,0.33
			s0.22,0.15,0.36,0.19C324.5,98.66,324.65,98.68,324.82,98.68z"/>
		<path class="st4" d="M331.83,89.14v10.31h-1.25V89.14H331.83z"/>
		<path class="st4" d="M335.59,92.36v4.52c0,0.54,0.12,0.95,0.37,1.25c0.25,0.29,0.62,0.44,1.12,0.44c0.36,0,0.71-0.09,1.03-0.26
			c0.32-0.17,0.62-0.41,0.89-0.72v-5.23h1.25v7.09h-0.74c-0.18,0-0.29-0.09-0.34-0.26l-0.1-0.76c-0.31,0.34-0.65,0.62-1.04,0.82
			c-0.38,0.21-0.82,0.31-1.32,0.31c-0.39,0-0.73-0.06-1.03-0.19c-0.3-0.13-0.54-0.31-0.75-0.54c-0.2-0.23-0.35-0.52-0.45-0.85
			c-0.1-0.33-0.15-0.7-0.15-1.1v-4.52H335.59z"/>
		<path class="st4" d="M345.71,92.24c0.42,0,0.82,0.07,1.18,0.21s0.67,0.35,0.93,0.62c0.26,0.27,0.47,0.6,0.61,0.99
			c0.15,0.39,0.22,0.84,0.22,1.35c0,0.2-0.02,0.33-0.06,0.39s-0.12,0.1-0.24,0.1h-4.72c0.01,0.45,0.07,0.84,0.18,1.17
			c0.11,0.33,0.27,0.61,0.46,0.83c0.2,0.22,0.43,0.39,0.7,0.5c0.27,0.11,0.57,0.17,0.91,0.17c0.31,0,0.58-0.04,0.81-0.11
			s0.42-0.15,0.58-0.23c0.16-0.08,0.3-0.16,0.41-0.24c0.11-0.07,0.2-0.11,0.28-0.11c0.1,0,0.18,0.04,0.24,0.12l0.35,0.46
			c-0.15,0.19-0.34,0.35-0.55,0.49s-0.44,0.25-0.69,0.34s-0.5,0.16-0.76,0.2c-0.26,0.04-0.52,0.07-0.78,0.07
			c-0.49,0-0.94-0.08-1.35-0.25c-0.41-0.17-0.77-0.41-1.07-0.73c-0.3-0.32-0.54-0.71-0.7-1.19c-0.17-0.47-0.25-1.01-0.25-1.62
			c0-0.49,0.08-0.96,0.23-1.39c0.15-0.43,0.37-0.8,0.66-1.12c0.28-0.32,0.63-0.56,1.04-0.74C344.74,92.33,345.2,92.24,345.71,92.24z
			 M345.74,93.16c-0.6,0-1.08,0.17-1.42,0.52c-0.34,0.35-0.56,0.83-0.64,1.45h3.86c0-0.29-0.04-0.55-0.12-0.79
			c-0.08-0.24-0.2-0.45-0.35-0.62c-0.15-0.17-0.34-0.31-0.56-0.41S346.02,93.16,345.74,93.16z"/>
	</g>
</g>
</svg>
