<?xml version="1.0" encoding="utf-8"?>
<!-- Generator: Adobe Illustrator 25.3.1, SVG Export Plug-In . SVG Version: 6.00 Build 0)  -->
<svg version="1.1" id="Layer_1" xmlns="http://www.w3.org/2000/svg" xmlns:xlink="http://www.w3.org/1999/xlink" x="0px" y="0px"
	 viewBox="0 0 40 40" style="enable-background:new 0 0 40 40;" xml:space="preserve">
<style type="text/css">
	.st0{fill:#9F236B;}
</style>
<g>
	<g>
		<path class="st0" d="M36.6,17.3c-1.1-0.8-1.4-2.1-0.9-3.3c0.5-1,0.4-2-0.1-3c-0.6-1-1.4-1.5-2.5-1.6c-1.3-0.1-2.3-1.2-2.4-2.4
			C30.6,5.9,30,5,29,4.5c-1-0.6-2-0.6-3-0.1c-1.2,0.6-2.6,0.2-3.3-0.9c-0.6-0.9-1.5-1.3-2.7-1.3c-1.1,0-2,0.5-2.7,1.3
			c-0.8,1.1-2.1,1.4-3.3,0.9c-1-0.5-2-0.4-3,0.1C10.1,5,9.5,5.9,9.4,7C9.3,8.3,8.2,9.3,7,9.4C5.9,9.5,5,10.1,4.5,11
			c-0.6,1-0.6,2-0.1,3c0.6,1.2,0.2,2.6-0.9,3.3c-0.9,0.6-1.3,1.5-1.3,2.7c0,1.1,0.5,2,1.3,2.7C4.6,23.5,5,24.8,4.4,26
			c-0.5,1-0.4,2,0.1,3c0.6,1,1.4,1.5,2.5,1.6c1.3,0.1,2.3,1.2,2.4,2.4c0.1,1.1,0.7,2,1.6,2.5c1,0.6,2,0.6,3,0.1
			c1.2-0.6,2.6-0.2,3.3,0.9c0.6,0.9,1.5,1.3,2.7,1.3c1.1,0,2-0.5,2.7-1.3c0.8-1.1,2.1-1.4,3.3-0.9c1,0.5,2,0.4,3-0.1
			c1-0.6,1.5-1.4,1.6-2.5c0.1-1.3,1.2-2.3,2.4-2.4c1.1-0.1,2-0.7,2.5-1.6c0.6-1,0.6-2,0.1-3c-0.6-1.2-0.2-2.6,0.9-3.3
			c0.9-0.6,1.3-1.5,1.3-2.7C37.9,18.9,37.4,18,36.6,17.3 M35.6,21.3c-1.7,1.2-2.3,3.5-1.4,5.4c0.2,0.5,0.2,1.1-0.1,1.4
			c-0.3,0.5-0.7,0.8-1.3,0.8c-2.1,0.2-3.8,1.8-3.9,3.9c0,0.5-0.3,1-0.8,1.3c-0.5,0.3-1,0.3-1.4,0.1c-1.9-0.9-4.1-0.3-5.4,1.4
			c-0.6,0.9-2,0.9-2.6,0c-0.8-1.2-2.1-1.8-3.6-1.8c-0.7,0-1.3,0.1-1.8,0.4c-0.5,0.2-1.1,0.2-1.4-0.1c-0.5-0.3-0.8-0.7-0.8-1.3
			c-0.2-2.1-1.8-3.8-3.9-3.9c-0.6,0-1-0.3-1.3-0.8c-0.3-0.5-0.3-1-0.1-1.4c0.9-1.9,0.3-4.1-1.4-5.4C4,21,3.7,20.6,3.7,20
			c0-0.6,0.3-1,0.7-1.3c1.7-1.2,2.3-3.5,1.4-5.4c-0.2-0.5-0.2-1.1,0.1-1.4C6.2,11.3,6.6,11,7.2,11c2.1-0.2,3.8-1.8,3.9-3.9
			c0-0.6,0.3-1,0.8-1.3c0.5-0.3,1-0.3,1.4-0.1c1.9,0.9,4.1,0.3,5.4-1.4c0.6-0.9,2-0.9,2.6,0l0,0l0,0L21.8,5h0.1
			c1.3,1.3,3.2,1.5,4.8,0.8c0.5-0.2,1.1-0.2,1.4,0.1c0.5,0.3,0.8,0.7,0.8,1.3c0.2,2.1,1.8,3.8,3.9,3.9c0.5,0,1,0.3,1.3,0.8
			c0.3,0.5,0.3,1,0.1,1.4c-0.9,1.9-0.3,4.1,1.4,5.4c0.5,0.3,0.7,0.8,0.7,1.3C36.3,20.6,36.1,21,35.6,21.3"/>
		<g>
			<path class="st0" d="M21.2,13.5c0,0,1.5,3.3,6.2,3.4c3.3,0.1,4,1.5,4,1.5s-1.1-2.8-4.5-2.8C22.9,15.8,21.2,13.5,21.2,13.5z"/>
			<polygon class="st0" points="19.4,19.8 19.4,23.2 20.5,24.3 20.5,20.9 			"/>
			<polygon class="st0" points="30.3,19.8 30.3,23.2 31.4,24.3 31.4,20.9 			"/>
			<path class="st0" d="M17.6,19.8c0,0-3.7,4.9-10.8,0c5.4,4.7,9,3.3,10.8,2.1v1.4l1.1,1.1v-3.4L17.6,19.8z"/>
			<path class="st0" d="M21.1,20.3"/>
			<polygon class="st0" points="32.9,19 15.1,19 15.3,19.2 33.1,19.2 			"/>
			<path class="st0" d="M29.1,23c-1.3,0.6-2.4-0.4-3-1.1l0,0c-0.1-0.1-0.1-0.1-0.2-0.2c-2.5-3.3-4.8-1.3-4.8-1.3l1.1,1.1
				c0,0,1.9-1.7,3.9,0.8c2.2,2.6,3.5,2.3,4.1,1.8L29.1,23z"/>
		</g>
	</g>
</g>
</svg>
