<?xml version="1.0" encoding="utf-8"?>
<!-- Generator: Adobe Illustrator 23.0.2, SVG Export Plug-In . SVG Version: 6.00 Build 0)  -->
<svg version="1.1" id="Layer_1" xmlns="http://www.w3.org/2000/svg" xmlns:xlink="http://www.w3.org/1999/xlink" x="0px" y="0px"
	 viewBox="0 0 40 40" style="enable-background:new 0 0 40 40;" xml:space="preserve">
<style type="text/css">
	.st0{fill:#9F236B;}
	.st1{fill:#ACABAE;}
	.st2{fill:#A8A8AA;}
</style>
<g>
	<path class="st0" d="M37.91,20c0-1.07-0.5-2.04-1.38-2.65c-1.06-0.74-1.43-2.13-0.89-3.31c0.45-0.97,0.4-2.06-0.13-2.99
		c-0.54-0.93-1.46-1.51-2.52-1.61c-1.29-0.11-2.31-1.13-2.42-2.42c-0.09-1.07-0.68-1.99-1.61-2.52c-0.93-0.54-2.02-0.58-2.99-0.13
		c-1.17,0.55-2.56,0.17-3.31-0.89C22.04,2.6,21.07,2.1,20,2.1c-1.07,0-2.04,0.5-2.65,1.38c-0.74,1.06-2.14,1.43-3.31,0.89
		c-0.97-0.45-2.06-0.4-2.99,0.13c-0.93,0.53-1.51,1.45-1.61,2.52C9.32,8.31,8.31,9.32,7.02,9.44c-1.07,0.09-1.99,0.68-2.52,1.61
		c-0.53,0.93-0.58,2.02-0.13,2.99c0.54,1.17,0.17,2.57-0.89,3.31C2.6,17.96,2.09,18.93,2.09,20s0.5,2.04,1.38,2.65
		c1.06,0.74,1.43,2.14,0.89,3.31c-0.45,0.97-0.4,2.06,0.13,2.99c0.54,0.93,1.46,1.51,2.52,1.61c1.29,0.12,2.31,1.13,2.42,2.42
		c0.1,1.07,0.68,1.99,1.61,2.52c0.93,0.54,2.01,0.59,2.99,0.13c1.14-0.53,2.58-0.15,3.31,0.89c0.62,0.88,1.58,1.38,2.65,1.38
		c0.79,0,1.53-0.28,2.1-0.77c0.21,0.05,0.42,0.07,0.64,0.07h11.99c1.63,0,2.95-1.32,2.95-2.95V21.63c0-0.11-0.03-0.21-0.08-0.3
		C37.79,20.92,37.91,20.48,37.91,20z M18.69,35.58c-0.8-1.15-2.12-1.83-3.52-1.83c-0.63,0-1.24,0.14-1.82,0.4
		c-0.48,0.22-1.02,0.2-1.48-0.07c-0.47-0.27-0.75-0.71-0.8-1.25c-0.18-2.08-1.83-3.73-3.91-3.91c-0.54-0.05-0.98-0.33-1.25-0.8
		c-0.27-0.47-0.29-0.99-0.07-1.48c0.88-1.89,0.28-4.14-1.43-5.34c-0.43-0.3-0.68-0.78-0.68-1.31s0.25-1.01,0.68-1.31
		c1.71-1.2,2.31-3.45,1.43-5.34c-0.22-0.48-0.2-1.02,0.07-1.48c0.27-0.47,0.71-0.75,1.25-0.8c2.08-0.18,3.73-1.83,3.91-3.91
		c0.05-0.54,0.33-0.98,0.8-1.25c0.46-0.27,1-0.29,1.48-0.07c1.9,0.88,4.14,0.28,5.34-1.43c0.61-0.87,2.01-0.87,2.62-0.01l0.01,0.01
		c0,0,0,0,0,0l0.47,0.67l0.06-0.05c1.26,1.22,3.17,1.57,4.81,0.81c0.48-0.22,1.02-0.2,1.48,0.07c0.46,0.27,0.75,0.72,0.8,1.25
		c0.19,2.08,1.83,3.72,3.91,3.91c0.53,0.05,0.98,0.34,1.25,0.8c0.27,0.46,0.29,1,0.07,1.48c-0.88,1.9-0.28,4.14,1.43,5.34
		c0.44,0.31,0.68,0.77,0.68,1.31c0,0.38-0.13,0.72-0.35,0.99H33.2v-0.85c0-2.46-2-4.46-4.46-4.46c-2.46,0-4.47,2.01-4.47,4.47V21
		h-2.72c-1.24-0.99-2.92-1.59-4.98-1.59h-0.91c-4.27,0-7.14,2.41-7.14,6c0,0.37,0.3,0.67,0.68,0.67h8.97c0.37,0,0.67-0.3,0.67-0.67
		c0-0.37-0.3-0.67-0.67-0.67H9.91c0.33-2.48,2.5-4,5.74-4h0.91c1.27,0,2.37,0.24,3.26,0.68c-0.02,0.07-0.04,0.13-0.04,0.21v12.62
		c0,0.72,0.27,1.37,0.7,1.89C19.85,36.34,19.09,36.16,18.69,35.58z M31.93,20.15V21h-6.4v-0.85c0.01-1.77,1.44-3.2,3.2-3.2
		C30.5,16.95,31.93,18.39,31.93,20.15z M36.42,34.25c0,0.93-0.76,1.69-1.69,1.69H22.74c-0.93,0-1.69-0.76-1.69-1.69V22.26h3.22v1.77
		c0,0.35,0.28,0.63,0.63,0.63c0.35,0,0.63-0.29,0.63-0.63v-1.77h6.4v1.77c0,0.35,0.29,0.63,0.63,0.63c0.35,0,0.63-0.29,0.63-0.63
		v-1.77h3.21V34.25z"/>
	<path class="st0" d="M16.11,18.96c2.62,0,4.75-2.52,4.75-5.62c0-2.97-1.95-5.04-4.75-5.04c-2.8,0-4.75,2.07-4.75,5.04
		C11.36,16.44,13.49,18.96,16.11,18.96z M16.11,9.53c2.11,0,3.52,1.53,3.52,3.81c0,2.42-1.58,4.39-3.52,4.39
		c-1.94,0-3.52-1.97-3.52-4.39C12.59,11.06,14.01,9.53,16.11,9.53z"/>
</g>
</svg>
