<?xml version="1.0" encoding="utf-8"?>
<!-- Generator: Adobe Illustrator 23.0.2, SVG Export Plug-In . SVG Version: 6.00 Build 0)  -->
<svg version="1.1" id="Layer_1" xmlns="http://www.w3.org/2000/svg" xmlns:xlink="http://www.w3.org/1999/xlink" x="0px" y="0px"
	 viewBox="0 0 40 40" style="enable-background:new 0 0 40 40;" xml:space="preserve">
<style type="text/css">
	.st0{fill:#9F236B;}
	.st1{fill:#ACABAE;}
	.st2{fill:#A8A8AA;}
</style>
<g>
	<path class="st0" d="M35.71,15.75c-1.06-0.74-1.43-2.13-0.88-3.29c0.45-0.97,0.4-2.05-0.13-2.98c-0.53-0.92-1.45-1.51-2.51-1.6
		c-1.28-0.11-2.3-1.13-2.41-2.41c-0.09-1.06-0.68-1.98-1.6-2.51c-0.92-0.53-2.01-0.58-2.98-0.13C24.03,3.37,22.64,3,21.9,1.95
		c-0.61-0.87-1.57-1.37-2.64-1.37c-1.06,0-2.03,0.5-2.64,1.37C15.88,3,14.49,3.37,13.32,2.83c-0.96-0.45-2.05-0.4-2.97,0.13
		C9.43,3.5,8.84,4.41,8.75,5.47c-0.11,1.28-1.13,2.3-2.41,2.41c-1.06,0.09-1.98,0.68-2.51,1.6c-0.53,0.93-0.58,2.01-0.13,2.97
		c0.54,1.17,0.17,2.56-0.88,3.29c-0.87,0.61-1.37,1.57-1.37,2.64c0,1.07,0.5,2.03,1.37,2.64c1.05,0.74,1.43,2.13,0.88,3.29
		c-0.45,0.97-0.4,2.05,0.13,2.98c0.53,0.92,1.45,1.51,2.51,1.6c1.28,0.11,2.3,1.13,2.41,2.41c0.1,1.06,0.68,1.98,1.6,2.51
		c0.92,0.53,2.01,0.58,2.98,0.13c1.13-0.53,2.57-0.15,3.29,0.88c0.61,0.87,1.58,1.37,2.64,1.37c1.07,0,2.03-0.5,2.64-1.37
		c0.49-0.7,1.27-1.03,2.08-1.05c-0.18-0.1-0.38-0.19-0.55-0.3c-0.58-0.14-1.39,0-1.85,0.01c-0.22,0-0.38-0.08-0.5-0.18
		c-0.18,0.18-0.35,0.37-0.5,0.59c-0.61,0.86-2.01,0.86-2.62,0c-0.8-1.14-2.11-1.82-3.51-1.82c-0.63,0-1.24,0.14-1.81,0.4
		c-0.47,0.22-1.02,0.2-1.47-0.06c-0.46-0.27-0.75-0.71-0.79-1.24c-0.18-2.07-1.82-3.71-3.89-3.89c-0.53-0.05-0.98-0.33-1.24-0.79
		c-0.27-0.46-0.29-0.99-0.07-1.47c0.88-1.89,0.28-4.12-1.42-5.32c-0.43-0.3-0.68-0.78-0.68-1.31c0-0.53,0.25-1,0.68-1.31
		c1.7-1.19,2.3-3.43,1.42-5.32c-0.22-0.48-0.2-1.01,0.07-1.47c0.27-0.46,0.71-0.75,1.24-0.79c2.07-0.18,3.71-1.82,3.89-3.89
		c0.05-0.53,0.33-0.98,0.79-1.24c0.46-0.27,1-0.29,1.47-0.07c1.89,0.88,4.12,0.28,5.32-1.42c0.61-0.86,2.01-0.86,2.61-0.01
		l0.01,0.01c0,0,0,0,0,0l0.47,0.67l0.06-0.05c1.26,1.21,3.16,1.56,4.78,0.8c0.48-0.22,1.02-0.2,1.47,0.06
		c0.46,0.26,0.75,0.72,0.79,1.24c0.18,2.07,1.82,3.71,3.89,3.89c0.53,0.05,0.98,0.34,1.24,0.79c0.26,0.46,0.29,0.99,0.07,1.47
		c-0.88,1.89-0.28,4.12,1.42,5.32c0.44,0.31,0.68,0.77,0.68,1.31c0,0.54-0.24,1-0.68,1.31c-0.56,0.39-0.98,0.91-1.27,1.48
		c0.82-0.02,1.62-0.13,2.41-0.33c0.74-0.61,1.17-1.48,1.17-2.46C37.08,17.33,36.58,16.37,35.71,15.75"/>
	<path class="st0" d="M24.18,38.19c-0.53,0-0.97-0.43-0.97-0.97c0-0.53,0.43-0.97,0.97-0.97c0.53,0,0.97,0.43,0.97,0.97
		C25.15,37.75,24.72,38.19,24.18,38.19 M24.18,35.03c-1.21,0-2.19,0.98-2.19,2.19c0,1.21,0.98,2.19,2.19,2.19
		c1.21,0,2.19-0.98,2.19-2.19C26.38,36.01,25.39,35.03,24.18,35.03"/>
	<path class="st0" d="M31.88,38.19c-0.53,0-0.97-0.43-0.97-0.97c0-0.53,0.43-0.97,0.97-0.97c0.53,0,0.97,0.43,0.97,0.97
		C32.85,37.75,32.41,38.19,31.88,38.19 M31.88,35.03c-1.21,0-2.19,0.98-2.19,2.19c0,1.21,0.98,2.19,2.19,2.19
		c1.21,0,2.19-0.98,2.19-2.19C34.07,36.01,33.09,35.03,31.88,35.03"/>
	<path class="st0" d="M32.42,23.48h-8.78c-0.34,0-0.61,0.27-0.61,0.61s0.27,0.61,0.61,0.61h8.78c0.34,0,0.61-0.27,0.61-0.61
		S32.76,23.48,32.42,23.48"/>
	<path class="st0" d="M31.94,26.66h-7.82c-0.34,0-0.61,0.27-0.61,0.61s0.27,0.61,0.61,0.61h7.82c0.34,0,0.61-0.27,0.61-0.61
		S32.28,26.66,31.94,26.66"/>
	<path class="st0" d="M35.73,29.84h-15.4l-1.71-8.31h18.82L35.73,29.84z M38.39,20.75c-0.23-0.29-0.58-0.45-0.95-0.45H18.37
		l-0.39-1.87c-0.08-0.39-0.35-0.72-0.71-0.88l-2.69-1.17c-0.31-0.14-0.67,0.01-0.81,0.32c-0.13,0.31,0.01,0.67,0.32,0.81l2.69,1.17
		l2.96,14.38c0.12,0.57,0.62,0.98,1.2,0.98h14.67c0.34,0,0.61-0.27,0.61-0.61c0-0.34-0.27-0.61-0.61-0.61H20.95l-0.36-1.75h15.14
		c0.58,0,1.08-0.41,1.2-0.98l1.71-8.31C38.72,21.41,38.63,21.04,38.39,20.75"/>
	<path class="st0" d="M19.26,6.98c-6.29,0-11.42,5.12-11.42,11.42c0,6.3,5.12,11.42,11.42,11.42c0.12,0,0.24-0.02,0.36-0.03
		c-0.25-0.5-0.4-1.04-0.53-1.61c-5.32-0.09-9.62-4.44-9.62-9.78c0-5.4,4.39-9.79,9.79-9.79s9.79,4.39,9.79,9.79
		c0,0.74-0.09,1.46-0.25,2.16h1.67c0.14-0.7,0.21-1.42,0.21-2.16C30.68,12.1,25.55,6.98,19.26,6.98"/>
</g>
</svg>
