<?xml version="1.0" encoding="utf-8"?>
<!-- Generator: Adobe Illustrator 23.0.2, SVG Export Plug-In . SVG Version: 6.00 Build 0)  -->
<svg version="1.1" id="Layer_1" xmlns="http://www.w3.org/2000/svg" xmlns:xlink="http://www.w3.org/1999/xlink" x="0px" y="0px"
	 viewBox="0 0 40 40" style="enable-background:new 0 0 40 40;" xml:space="preserve">
<style type="text/css">
	.st0{fill:#9F236B;}
	.st1{fill:#ACABAE;}
	.st2{fill:#A8A8AA;}
</style>
<g>
	<path class="st0" d="M15.16,33.75c1.4,0,2.72,0.68,3.52,1.83c0.61,0.87,2.02,0.86,2.63,0c1.2-1.71,3.45-2.31,5.34-1.43
		c0.48,0.22,1.02,0.2,1.48-0.07c0.46-0.27,0.75-0.72,0.8-1.25c0.19-2.08,1.83-3.73,3.91-3.91c0.53-0.05,0.98-0.34,1.25-0.8
		c0.27-0.46,0.29-1,0.07-1.48c-0.88-1.9-0.28-4.14,1.43-5.34c0.44-0.31,0.68-0.78,0.68-1.31c0-0.54-0.24-1.01-0.68-1.31
		c-1.71-1.2-2.31-3.45-1.43-5.34c0.22-0.48,0.2-1.02-0.07-1.48c-0.26-0.46-0.72-0.75-1.25-0.8c-2.08-0.19-3.73-1.83-3.91-3.91
		c-0.05-0.53-0.34-0.98-0.8-1.25c-0.46-0.27-1-0.29-1.48-0.07c-1.63,0.76-3.54,0.41-4.81-0.81l-0.06,0.05l-0.47-0.67c0,0,0,0,0,0
		l0-0.01c-0.61-0.86-2.01-0.86-2.62,0.01c-1.2,1.71-3.44,2.31-5.34,1.43c-0.48-0.22-1.02-0.2-1.48,0.07
		c-0.47,0.27-0.75,0.71-0.8,1.25c-0.18,2.08-1.83,3.72-3.91,3.91c-0.54,0.05-0.98,0.33-1.25,0.8c-0.27,0.46-0.29,1-0.07,1.48
		c0.88,1.9,0.28,4.14-1.43,5.34c-0.43,0.3-0.68,0.78-0.68,1.31s0.25,1.01,0.68,1.31c1.71,1.2,2.31,3.45,1.43,5.34
		c-0.23,0.49-0.2,1.01,0.07,1.48c0.27,0.47,0.71,0.75,1.25,0.8c2.08,0.18,3.73,1.83,3.91,3.91c0.05,0.54,0.33,0.98,0.8,1.25
		c0.46,0.27,1,0.29,1.48,0.07C13.92,33.89,14.53,33.75,15.16,33.75 M20,37.91c-1.07,0-2.04-0.5-2.65-1.38
		c-0.73-1.03-2.17-1.42-3.31-0.89c-0.97,0.45-2.06,0.4-2.99-0.13c-0.93-0.53-1.51-1.45-1.61-2.52c-0.11-1.29-1.13-2.31-2.42-2.42
		c-1.07-0.09-1.99-0.68-2.52-1.61c-0.53-0.93-0.58-2.02-0.13-2.99c0.55-1.17,0.17-2.56-0.89-3.31C2.6,22.04,2.09,21.07,2.09,20
		c0-1.07,0.5-2.04,1.38-2.66c1.06-0.74,1.43-2.13,0.89-3.31c-0.45-0.97-0.4-2.06,0.13-2.99c0.54-0.93,1.46-1.51,2.52-1.61
		C8.3,9.32,9.32,8.31,9.44,7.02c0.1-1.07,0.68-1.99,1.61-2.52s2.02-0.58,2.99-0.13c1.17,0.54,2.57,0.17,3.31-0.89
		C17.96,2.6,18.93,2.09,20,2.09c1.07,0,2.04,0.5,2.65,1.38c0.74,1.06,2.14,1.43,3.31,0.89c0.97-0.45,2.06-0.4,2.99,0.13
		c0.93,0.54,1.51,1.46,1.61,2.52c0.12,1.29,1.13,2.31,2.42,2.42c1.07,0.09,1.99,0.68,2.52,1.61c0.53,0.93,0.58,2.02,0.13,2.99
		c-0.55,1.17-0.17,2.56,0.89,3.31c0.88,0.62,1.38,1.58,1.38,2.66c0,1.07-0.5,2.04-1.38,2.65c-1.06,0.74-1.43,2.14-0.89,3.31
		c0.45,0.97,0.4,2.06-0.13,2.99c-0.54,0.93-1.46,1.52-2.52,1.61c-1.29,0.11-2.31,1.13-2.42,2.42c-0.09,1.07-0.68,1.99-1.61,2.52
		c-0.93,0.54-2.02,0.58-2.99,0.13c-1.17-0.55-2.57-0.17-3.31,0.89C22.04,37.4,21.07,37.91,20,37.91"/>
	<path class="st0" d="M25.66,28.49c-0.25,0-0.5-0.11-0.66-0.33c-0.27-0.36-0.19-0.88,0.17-1.15c2.22-1.64,3.54-4.26,3.54-7.02
		c0-4.81-3.91-8.72-8.72-8.72c-0.45,0-0.82-0.37-0.82-0.82S19.55,9.64,20,9.64c5.71,0,10.36,4.65,10.36,10.36
		c0,3.27-1.57,6.39-4.21,8.33C26,28.44,25.83,28.49,25.66,28.49"/>
	<path class="st0" d="M30.17,28.49h-4.5c-0.45,0-0.82-0.37-0.82-0.82v-4.51c0-0.45,0.37-0.82,0.82-0.82s0.82,0.37,0.82,0.82v3.69
		h3.69c0.45,0,0.82,0.37,0.82,0.82S30.62,28.49,30.17,28.49"/>
	<path class="st0" d="M20,30.36c-5.71,0-10.36-4.65-10.36-10.36c0-3.27,1.57-6.38,4.21-8.33c0.36-0.27,0.87-0.19,1.14,0.17
		c0.27,0.36,0.19,0.88-0.17,1.15c-2.22,1.64-3.54,4.26-3.54,7.02c0,4.81,3.91,8.72,8.72,8.72c0.45,0,0.82,0.37,0.82,0.82
		S20.45,30.36,20,30.36"/>
	<path class="st0" d="M14.34,17.65c-0.45,0-0.82-0.37-0.82-0.82v-3.69H9.83c-0.45,0-0.82-0.37-0.82-0.82c0-0.45,0.37-0.82,0.82-0.82
		h4.5c0.45,0,0.82,0.37,0.82,0.82v4.5C15.16,17.28,14.79,17.65,14.34,17.65"/>
</g>
</svg>
