<?xml version="1.0" encoding="utf-8"?>
<!-- Generator: Adobe Illustrator 25.3.1, SVG Export Plug-In . SVG Version: 6.00 Build 0)  -->
<svg version="1.1" id="Layer_1" xmlns="http://www.w3.org/2000/svg" xmlns:xlink="http://www.w3.org/1999/xlink" x="0px" y="0px"
	 viewBox="0 0 40 40" style="enable-background:new 0 0 40 40;" xml:space="preserve">
<style type="text/css">
	.st0{fill:#9D236B;}
</style>
<g>
	<g>
		<path class="st0" d="M36.6,17.4c-1.1-0.7-1.4-2.1-0.9-3.3c0.4-1,0.4-2.1-0.1-3c-0.5-1-1.4-1.6-2.5-1.7c-1.3-0.1-2.3-1.1-2.4-2.4
			c-0.1-1-0.7-2-1.6-2.5c-0.9-0.5-2-0.6-3-0.1c-1.2,0.6-2.6,0.2-3.3-0.9c-0.7-0.9-1.6-1.4-2.7-1.4c-1.1,0-2,0.5-2.6,1.4
			c-0.7,1.1-2.1,1.4-3.3,0.9c-1-0.4-2.1-0.4-3,0.1C10.2,5,9.7,6,9.6,7C9.4,8.3,8.4,9.3,7.1,9.4c-1,0.1-2,0.7-2.5,1.7
			c-0.5,0.9-0.6,2-0.1,3c0.5,1.2,0.2,2.6-0.9,3.3C2.7,18,2.2,18.9,2.2,20c0,1.1,0.5,2,1.4,2.6c1.1,0.7,1.4,2.1,0.9,3.3
			c-0.4,1-0.4,2.1,0.1,3c0.5,1,1.5,1.6,2.5,1.7c1.3,0.1,2.3,1.1,2.4,2.4c0.1,1.1,0.7,2,1.6,2.5c0.9,0.5,2,0.6,3,0.1
			c1.1-0.5,2.6-0.1,3.3,0.9c0.6,0.9,1.6,1.4,2.6,1.4c1.1,0,2-0.5,2.6-1.4c0.7-1.1,2.1-1.4,3.3-0.9c1,0.5,2.1,0.4,3-0.1
			c0.9-0.5,1.5-1.4,1.6-2.5c0.1-1.3,1.1-2.3,2.4-2.4c1.1-0.1,2-0.7,2.5-1.6s0.6-2,0.1-3c-0.5-1.2-0.2-2.6,0.9-3.3
			c0.9-0.6,1.4-1.6,1.4-2.6C38,18.9,37.5,18,36.6,17.4z M35.7,21.3c-1.7,1.2-2.3,3.4-1.4,5.3c0.2,0.5,0.2,1-0.1,1.5
			c-0.3,0.5-0.7,0.8-1.2,0.8c-2.1,0.2-3.7,1.8-3.9,3.9c0,0.5-0.3,1-0.8,1.2c-0.5,0.3-1,0.3-1.5,0.1c-1.9-0.9-4.1-0.3-5.3,1.4
			c-0.6,0.9-2,0.9-2.6,0c-0.8-1.1-2.1-1.8-3.5-1.8c-0.6,0-1.2,0.1-1.8,0.4c-0.5,0.2-1,0.2-1.5-0.1s-0.8-0.7-0.8-1.2
			c-0.2-2.1-1.8-3.7-3.9-3.9c-0.5,0-1-0.3-1.2-0.8c-0.3-0.5-0.3-1-0.1-1.5c0.9-1.9,0.3-4.1-1.4-5.3C4.1,21,3.8,20.5,3.8,20
			c0-0.5,0.2-1,0.7-1.3c1.7-1.2,2.3-3.4,1.4-5.3c-0.2-0.5-0.2-1,0.1-1.5c0.3-0.5,0.7-0.8,1.2-0.8c2.1-0.2,3.7-1.8,3.9-3.9
			c0-0.5,0.3-1,0.8-1.2c0.5-0.3,1-0.3,1.5-0.1c1.9,0.9,4.1,0.3,5.3-1.4c0.6-0.9,2-0.9,2.6,0l0,0l0.5,0.7h0.1
			c1.3,1.2,3.2,1.6,4.8,0.8c0.5-0.2,1-0.2,1.5,0.1S29,6.8,29,7.3c0.2,2.1,1.8,3.7,3.9,3.9c0.5,0,1,0.3,1.2,0.8
			c0.3,0.5,0.3,1,0.1,1.5c-0.9,1.9-0.3,4.1,1.4,5.3c0.4,0.3,0.7,0.8,0.7,1.3C36.4,20.5,36.1,21,35.7,21.3z"/>
		<g>
			<path class="st0" d="M11.4,15.7c0-0.5,0.1-1,0.3-1.5c0.2-0.5,0.5-0.9,0.8-1.2c0.4-0.4,0.8-0.6,1.2-0.8c0.5-0.2,1-0.3,1.5-0.3
				s1,0.1,1.5,0.3c0.5,0.2,0.9,0.5,1.2,0.8c0.4,0.4,0.6,0.8,0.8,1.2c0.2,0.5,0.3,1,0.3,1.5c0,0.5-0.1,1-0.3,1.5
				c-0.2,0.5-0.5,0.9-0.8,1.2c-0.4,0.4-0.8,0.6-1.2,0.8c-0.5,0.2-1,0.3-1.5,0.3s-1-0.1-1.5-0.3c-0.5-0.2-0.9-0.5-1.2-0.8
				c-0.4-0.4-0.6-0.8-0.8-1.2C11.6,16.8,11.4,16.3,11.4,15.7z M13.2,15.7c0,0.6,0.2,1.1,0.6,1.5c0.4,0.4,0.9,0.6,1.5,0.6
				c0.6,0,1.1-0.2,1.5-0.6c0.4-0.4,0.6-0.9,0.6-1.5c0-0.6-0.2-1.1-0.6-1.6c-0.4-0.4-0.9-0.6-1.5-0.6c-0.6,0-1.1,0.2-1.5,0.6
				C13.4,14.6,13.2,15.1,13.2,15.7z M15.8,28.5l-1.3-0.7l9.8-16.3l1.3,0.7L15.8,28.5z M20.8,24.3c0-0.5,0.1-1,0.3-1.5
				c0.2-0.5,0.5-0.9,0.8-1.2c0.4-0.4,0.8-0.6,1.2-0.8c0.5-0.2,1-0.3,1.5-0.3s1,0.1,1.5,0.3c0.5,0.2,0.9,0.5,1.2,0.8
				c0.4,0.4,0.6,0.8,0.8,1.2c0.2,0.5,0.3,1,0.3,1.5c0,0.5-0.1,1-0.3,1.5c-0.2,0.5-0.5,0.9-0.8,1.2c-0.4,0.4-0.8,0.6-1.2,0.8
				c-0.5,0.2-1,0.3-1.5,0.3s-1-0.1-1.5-0.3c-0.5-0.2-0.9-0.5-1.2-0.8c-0.4-0.4-0.6-0.8-0.8-1.2C20.9,25.3,20.8,24.8,20.8,24.3z
				 M22.5,24.3c0,0.6,0.2,1.1,0.6,1.5c0.4,0.4,0.9,0.6,1.5,0.6c0.6,0,1.1-0.2,1.6-0.6c0.4-0.4,0.6-0.9,0.6-1.5
				c0-0.6-0.2-1.1-0.6-1.6c-0.4-0.4-0.9-0.6-1.6-0.6c-0.6,0-1.1,0.2-1.5,0.6C22.7,23.2,22.5,23.7,22.5,24.3z"/>
		</g>
	</g>
</g>
</svg>
