<?xml version="1.0" encoding="utf-8"?>
<!-- Generator: Adobe Illustrator 22.1.0, SVG Export Plug-In . SVG Version: 6.00 Build 0)  -->
<svg version="1.1" id="Layer_1" xmlns="http://www.w3.org/2000/svg" xmlns:xlink="http://www.w3.org/1999/xlink" x="0px" y="0px"
	 viewBox="0 0 40 40" style="enable-background:new 0 0 40 40;" xml:space="preserve">
<style type="text/css">
	.st0{fill:#9D246B;}
</style>
<g>
	<path class="st0" d="M36.5,17.4c-1.1-0.7-1.4-2.1-0.9-3.3c0.4-1,0.4-2.1-0.1-3C35,10.1,34.1,9.5,33,9.4c-1.3-0.1-2.3-1.1-2.4-2.4
		C30.5,6,29.9,5,29,4.5c-0.9-0.5-2-0.6-3-0.1c-1.2,0.6-2.6,0.2-3.3-0.9C22,2.6,21.1,2.1,20,2.1c-1.1,0-2,0.5-2.6,1.4
		c-0.7,1.1-2.1,1.4-3.3,0.9c-1-0.4-2.1-0.4-3,0.1C10.1,5,9.6,6,9.5,7C9.3,8.3,8.3,9.3,7,9.4C6,9.5,5,10.1,4.5,11.1
		c-0.5,0.9-0.6,2-0.1,3c0.5,1.2,0.2,2.6-0.9,3.3C2.6,18,2.1,18.9,2.1,20s0.5,2,1.4,2.6c1.1,0.7,1.4,2.1,0.9,3.3
		c-0.4,1-0.4,2.1,0.1,3C5,29.9,6,30.5,7,30.6c1.3,0.1,2.3,1.1,2.4,2.4c0.1,1.1,0.7,2,1.6,2.5c0.9,0.5,2,0.6,3,0.1
		c1.1-0.5,2.6-0.1,3.3,0.9c0.6,0.9,1.6,1.4,2.6,1.4c1.1,0,2-0.5,2.6-1.4c0.7-1.1,2.1-1.4,3.3-0.9c1,0.5,2.1,0.4,3-0.1
		c0.9-0.5,1.5-1.4,1.6-2.5c0.1-1.3,1.1-2.3,2.4-2.4c1.1-0.1,2-0.7,2.5-1.6c0.5-0.9,0.6-2,0.1-3c-0.5-1.2-0.2-2.6,0.9-3.3
		c0.9-0.6,1.4-1.6,1.4-2.6C37.9,18.9,37.4,18,36.5,17.4z M35.6,21.3c-1.7,1.2-2.3,3.4-1.4,5.3c0.2,0.5,0.2,1-0.1,1.5
		c-0.3,0.5-0.7,0.8-1.2,0.8c-2.1,0.2-3.7,1.8-3.9,3.9c0,0.5-0.3,1-0.8,1.2c-0.5,0.3-1,0.3-1.5,0.1c-1.9-0.9-4.1-0.3-5.3,1.4
		c-0.6,0.9-2,0.9-2.6,0c-0.8-1.1-2.1-1.8-3.5-1.8c-0.6,0-1.2,0.1-1.8,0.4c-0.5,0.2-1,0.2-1.5-0.1c-0.5-0.3-0.8-0.7-0.8-1.2
		c-0.2-2.1-1.8-3.7-3.9-3.9c-0.5,0-1-0.3-1.2-0.8c-0.3-0.5-0.3-1-0.1-1.5c0.9-1.9,0.3-4.1-1.4-5.3C4,21,3.7,20.5,3.7,20
		c0-0.5,0.2-1,0.7-1.3c1.7-1.2,2.3-3.4,1.4-5.3c-0.2-0.5-0.2-1,0.1-1.5c0.3-0.5,0.7-0.8,1.2-0.8c2.1-0.2,3.7-1.8,3.9-3.9
		c0-0.5,0.3-1,0.8-1.2c0.5-0.3,1-0.3,1.5-0.1c1.9,0.9,4.1,0.3,5.3-1.4c0.6-0.9,2-0.9,2.6,0l0,0l0.5,0.7l0.1,0
		c1.3,1.2,3.2,1.6,4.8,0.8c0.5-0.2,1-0.2,1.5,0.1c0.5,0.3,0.8,0.7,0.8,1.2c0.2,2.1,1.8,3.7,3.9,3.9c0.5,0,1,0.3,1.2,0.8
		c0.3,0.5,0.3,1,0.1,1.5c-0.9,1.9-0.3,4.1,1.4,5.3c0.4,0.3,0.7,0.8,0.7,1.3C36.3,20.5,36,21,35.6,21.3z"/>
	<path class="st0" d="M26.6,17.1c0.9-1.2,1.8-3.2,0.5-4.4c-1.3-1.1-3.1-0.2-4.2,0.7c-0.1-1.7-0.8-4.5-3-4.4c-2,0.1-2.6,2.7-2.8,4.3
		c-1.2-0.9-3.2-1.8-4.4-0.5c-1.1,1.3-0.2,3.1,0.6,4.2c-1.7,0.1-4.6,0.9-4.3,3.1c0.2,1.9,2.8,2.5,4.3,2.6c-0.9,1.2-1.9,3.3-0.4,4.5
		c1.3,1,3,0.1,4.1-0.7c0.1,1.6,0.8,4.5,3,4.3c2-0.1,2.6-2.7,2.8-4.3c1.1,0.8,3.1,1.8,4.3,0.6c1.3-1.2,0.3-3.2-0.6-4.3
		c1.5-0.1,4.4-0.8,4.4-2.8C31,17.9,28.2,17.3,26.6,17.1z M22.9,15c0.7-0.7,1.8-1.5,2.8-1.5c1.9,0.1-0.3,3.1-0.8,3.6l-2.1,0V15z
		 M13.7,13.7c0.8-0.9,2.8,0.8,3.4,1.3v2.1l-2.1,0C14.5,16.5,12.8,14.6,13.7,13.7z M17.1,25c-1,1-2.1,1.5-2.8,1.5
		c-1.9-0.1,0.3-3.1,0.8-3.6h2.1V25z M26.3,26.3c-0.8,0.9-2.8-0.8-3.4-1.3v-2.1H25C25.5,23.5,27.2,25.4,26.3,26.3z M29.4,20.6
		c-1,1.1-2.9,1-4.3,1c-1.1,0-2.3,0-3.4,0c0,1.2,0,2.4,0,3.7c0,0.8-0.1,4.6-1.7,4.4c-1.6,0.2-1.6-3.6-1.6-4.4c0-1.2,0-2.4,0-3.7
		c-1.2,0-2.3,0-3.5,0c-1.1,0-4.3,0.1-4.5-1.6c-0.3-2.4,6.5-1.7,8-1.7c0-1.2,0-2.4,0-3.7c0-1,0-4.5,1.7-4.4c1.6,0.1,1.6,3.4,1.6,4.4
		c0,1.2,0,2.4,0,3.7c1.3,0,2.5,0,3.8,0C26.1,18.3,31.1,18.8,29.4,20.6z"/>
</g>
</svg>
