<?xml version="1.0" encoding="utf-8"?>
<!-- Generator: Adobe Illustrator 22.1.0, SVG Export Plug-In . SVG Version: 6.00 Build 0)  -->
<svg version="1.1" id="Layer_1" xmlns="http://www.w3.org/2000/svg" xmlns:xlink="http://www.w3.org/1999/xlink" x="0px" y="0px"
	 viewBox="0 0 40 40" style="enable-background:new 0 0 40 40;" xml:space="preserve">
<style type="text/css">
	.st0{fill:#9F236B;}
</style>
<g>
	<path class="st0" d="M21.6,28.4h-4.3H13c0.2-1.3,0.8-2.3,1.8-3c0.1-0.1,0.2-0.1,0.4-0.2c0.2-0.1,0.3-0.2,0.5-0.3
		c0.1-0.1,0.3-0.1,0.4-0.2c0.2-0.1,0.4-0.1,0.6-0.2c0.2,0,0.3-0.1,0.5-0.1c0.2,0,0.4-0.1,0.6-0.1c0.2,0,0.5,0,0.8,0
		c0.2,0,0.3,0,0.5,0h0.9c0.2,0,0.3,0,0.5,0c0.3,0,0.5,0,0.8,0c0.2,0,0.4,0.1,0.6,0.1c0.2,0,0.3,0.1,0.5,0.1c0.2,0.1,0.4,0.1,0.5,0.2
		c0.1,0.1,0.3,0.1,0.4,0.2c0.2,0.1,0.3,0.2,0.5,0.3c0.1,0.1,0.2,0.1,0.4,0.2c1,0.7,1.6,1.7,1.8,3H21.6z M25.9,25.1
		C25.9,25.1,25.9,25.1,25.9,25.1C25.9,25.1,25.9,25.1,25.9,25.1c-0.5-0.5-1.1-1-1.7-1.3c0,0-0.1,0-0.1,0c-0.2-0.1-0.4-0.2-0.6-0.3
		c-0.1,0-0.2-0.1-0.3-0.1c-0.1-0.1-0.3-0.1-0.4-0.1c-0.1,0-0.2-0.1-0.4-0.1c-0.1,0-0.3-0.1-0.4-0.1c-0.1,0-0.3-0.1-0.4-0.1
		c-0.1,0-0.3,0-0.4-0.1c-0.1,0-0.3,0-0.4,0c-0.2,0-0.4,0-0.6,0c-0.1,0-0.1,0-0.2,0h0H19h0c-0.1,0-0.1,0-0.2,0c-0.2,0-0.4,0-0.6,0
		c-0.1,0-0.3,0-0.4,0c-0.1,0-0.3,0-0.4,0.1c-0.1,0-0.3,0.1-0.4,0.1c-0.1,0-0.3,0.1-0.4,0.1c-0.1,0-0.2,0.1-0.4,0.1
		c-0.1,0-0.3,0.1-0.4,0.1c-0.1,0-0.2,0.1-0.3,0.1c-0.2,0.1-0.4,0.2-0.6,0.3c0,0-0.1,0-0.1,0c-0.7,0.4-1.3,0.8-1.7,1.3c0,0,0,0,0,0
		c0,0,0,0,0,0c-0.9,1-1.5,2.4-1.5,4c0,0.4,0.3,0.7,0.7,0.7h5h4.3h5c0.4,0,0.7-0.3,0.7-0.7C27.3,27.5,26.8,26.2,25.9,25.1"/>
	<path class="st0" d="M20,21.8c2.7,0,4.9-2.6,4.9-5.8c0-3.1-2-5.2-4.9-5.2c-2.9,0-4.9,2.2-4.9,5.2C15.1,19.2,17.3,21.8,20,21.8
		 M16.4,16c0-2.4,1.5-4,3.7-4s3.7,1.6,3.7,4c0,2.5-1.6,4.6-3.7,4.6C18,20.6,16.4,18.5,16.4,16"/>
	<path class="st0" d="M37.2,17.2c-1.1-0.8-1.5-2.2-0.9-3.4c0.5-1,0.4-2.1-0.1-3.1c-0.6-1-1.5-1.6-2.6-1.7c-1.3-0.1-2.4-1.2-2.5-2.5
		c-0.1-1.1-0.7-2.1-1.7-2.6c-1-0.6-2.1-0.6-3.1-0.1c-1.2,0.6-2.7,0.2-3.4-0.9c-0.6-0.9-1.6-1.4-2.8-1.4c-1.1,0-2.1,0.5-2.8,1.4
		c-0.8,1.1-2.2,1.5-3.4,0.9c-1-0.5-2.1-0.4-3.1,0.1C9.7,4.4,9.1,5.4,9,6.5C8.9,7.8,7.8,8.9,6.5,9c-1.1,0.1-2.1,0.7-2.6,1.7
		c-0.6,1-0.6,2.1-0.1,3.1c0.6,1.2,0.2,2.7-0.9,3.4c-0.9,0.6-1.4,1.6-1.4,2.8c0,1.1,0.5,2.1,1.4,2.8c1.1,0.8,1.5,2.2,0.9,3.4
		c-0.5,1-0.4,2.1,0.1,3.1c0.6,1,1.5,1.6,2.6,1.7c1.3,0.1,2.4,1.2,2.5,2.5c0.1,1.1,0.7,2.1,1.7,2.6c1,0.6,2.1,0.6,3.1,0.1
		c1.2-0.6,2.7-0.2,3.4,0.9c0.6,0.9,1.6,1.4,2.8,1.4c1.1,0,2.1-0.5,2.8-1.4c0.8-1.1,2.2-1.5,3.4-0.9c1,0.5,2.1,0.4,3.1-0.1
		c1-0.6,1.6-1.5,1.7-2.6c0.1-1.3,1.2-2.4,2.5-2.5c1.1-0.1,2.1-0.7,2.6-1.7c0.6-1,0.6-2.1,0.1-3.1c-0.6-1.2-0.2-2.7,0.9-3.4
		c0.9-0.6,1.4-1.6,1.4-2.8C38.6,18.9,38.1,17.9,37.2,17.2 M36.2,21.4c-1.8,1.2-2.4,3.6-1.5,5.6c0.2,0.5,0.2,1.1-0.1,1.5
		c-0.3,0.5-0.7,0.8-1.3,0.8c-2.2,0.2-3.9,1.9-4.1,4.1c0,0.5-0.3,1-0.8,1.3c-0.5,0.3-1,0.3-1.5,0.1c-2-0.9-4.3-0.3-5.6,1.5
		c-0.6,0.9-2.1,0.9-2.7,0c-0.8-1.2-2.2-1.9-3.7-1.9c-0.7,0-1.3,0.1-1.9,0.4c-0.5,0.2-1.1,0.2-1.5-0.1c-0.5-0.3-0.8-0.7-0.8-1.3
		c-0.2-2.2-1.9-3.9-4.1-4.1c-0.6,0-1-0.3-1.3-0.8c-0.3-0.5-0.3-1-0.1-1.5c0.9-2,0.3-4.3-1.5-5.6C3.4,21,3.1,20.6,3.1,20
		c0-0.6,0.3-1,0.7-1.4c1.8-1.2,2.4-3.6,1.5-5.6c-0.2-0.5-0.2-1.1,0.1-1.5c0.3-0.5,0.7-0.8,1.3-0.8c2.2-0.2,3.9-1.9,4.1-4.1
		c0-0.6,0.3-1,0.8-1.3c0.5-0.3,1-0.3,1.5-0.1c2,0.9,4.3,0.3,5.6-1.5c0.6-0.9,2.1-0.9,2.7,0l0,0h0l0.5,0.7l0.1,0
		c1.3,1.3,3.3,1.6,5,0.8c0.5-0.2,1.1-0.2,1.5,0.1c0.5,0.3,0.8,0.7,0.8,1.3c0.2,2.2,1.9,3.9,4.1,4.1c0.5,0,1,0.3,1.3,0.8
		c0.3,0.5,0.3,1,0.1,1.5c-0.9,2-0.3,4.3,1.5,5.6c0.5,0.3,0.7,0.8,0.7,1.4C36.9,20.6,36.7,21,36.2,21.4"/>
</g>
</svg>
