<svg xmlns="http://www.w3.org/2000/svg">
<symbol id="bridal-glasses">
    <path d="M28.42,36.65l-.3-1L30.37,35l-2.11-7.65a2.33,2.33,0,0,1-.36,0h-.34c-3,0-5.82-3-6.95-7.17L20.56,20l-.06.19c-1.12,4.21-4,7.16-6.95,7.16h-.33l-.23,0L10.9,34.91l2.24.64-.3,1.05L7.24,35l.3-1,2.31.66L11.93,27,11.76,27C9,25.69,7.81,21.64,9,17.12a34.76,34.76,0,0,1,1.66-4.88l.67-1.58a1.14,1.14,0,0,1,1.4-.64l7.79,2.11,7.92-2.07a1.12,1.12,0,0,1,.8,0,1.14,1.14,0,0,1,.58.64l.65,1.54a37.75,37.75,0,0,1,1.66,4.87c1.17,4.45,0,8.59-2.8,9.86h0l2.11,7.64,2.3-.66.3,1Zm-16-25.59-.74,1.61a34.83,34.83,0,0,0-1.61,4.73c-1,3.93-.11,7.53,2.19,8.57a3.38,3.38,0,0,0,1,.29h.27c2.43,0,4.91-2.68,5.9-6.36A17.82,17.82,0,0,0,20,17.72V13.11Zm8.65,6.1.05.25c.1.6.25,1.22.4,1.82l.16.69c1,3.66,3.47,6.34,5.9,6.34h.28A4.9,4.9,0,0,0,28.91,26c2.23-1,3.17-4.7,2.15-8.57a37.59,37.59,0,0,0-1.6-4.73l-.67-1.58-7.74,2ZM34.38,31.83a.83.83,0,0,1-.8-1.07l.6-1.94a.34.34,0,0,0,0-.25l-.63-2a.84.84,0,0,1,1-1l1.94.6a.34.34,0,0,0,.25,0l2.06-.77a.83.83,0,0,1,.86.18.82.82,0,0,1,.22.85l-.58,1.9a.44.44,0,0,0,0,.25l.63,2a.83.83,0,0,1-1,1l-1.74-.54c-.3.1-.35,0-.54.1l-2,.63Zm-.08-1.08Zm.47-4.05.45,1.46a1.29,1.29,0,0,1,0,1.07l-.42,1.38,1.47-.45a1,1,0,0,1,.53-.12,1,1,0,0,1,.64,0l1.36.42L38.32,29a1.32,1.32,0,0,1,0-1.06l.39-1.31-1.5.56a1.32,1.32,0,0,1-1.1,0Zm-.47-.15h0Zm4.61-.47ZM4,11.32a.92.92,0,0,1-.82-.49L2.32,9.25A.59.59,0,0,0,2.09,9L.49,8.14a.93.93,0,0,1,0-1.64l1.59-.86a.63.63,0,0,0,.23-.23L3.18,3.8a1,1,0,0,1,1.65,0l.86,1.58a.52.52,0,0,0,.22.24l1.61.87a.93.93,0,0,1,0,1.64L5.93,9a.59.59,0,0,0-.24.23v0l-.86,1.58A.93.93,0,0,1,4,11.32Zm-2.74-4L2.6,8a1.72,1.72,0,0,1,.69.7L4,10.06l.72-1.33a1.75,1.75,0,0,1,.7-.7l1.32-.71L5.41,6.6a1.61,1.61,0,0,1-.69-.7L4,4.58,3.28,5.91a1.69,1.69,0,0,1-.7.7Z"/>
</symbol>
</svg>