<svg id="Layer_1" data-name="Layer 1" xmlns="http://www.w3.org/2000/svg" viewBox="0 0 40 40"><defs><style>.cls-1{fill:#b4296b;}.cls-2{fill:#fff;}</style></defs><path class="cls-1" d="M12.28,12.25l-3-8H3.9a1,1,0,0,0,0,2H8.15l4.07,10.94,3.3,10.06H32.17l4.93-15Zm18.44,13H16.88l-3.61-11H34.33Z"/><path class="cls-1" d="M18.83,28.53a3.63,3.63,0,0,0,0,7.22,3.63,3.63,0,0,0,0-7.22Zm0,5.36a1.76,1.76,0,1,1,1.6-1.75A1.67,1.67,0,0,1,18.83,33.89Z"/><path class="cls-1" d="M28.77,28.53a3.63,3.63,0,0,0,0,7.22,3.63,3.63,0,0,0,0-7.22Zm0,5.36a1.76,1.76,0,1,1,1.6-1.75A1.67,1.67,0,0,1,28.77,33.89Z"/><circle class="cls-1" cx="24.79" cy="11.66" r="7.41"/><path class="cls-2" d="M25.61,8.29a.66.66,0,0,1-.07.3.81.81,0,0,1-.17.24.74.74,0,0,1-.25.17.78.78,0,0,1-.31.06A.77.77,0,0,1,24,8.29.81.81,0,0,1,24.1,8a.74.74,0,0,1,.17-.25,1,1,0,0,1,.24-.17.8.8,0,0,1,.3-.06.78.78,0,0,1,.31.06.92.92,0,0,1,.25.17.74.74,0,0,1,.17.25A.67.67,0,0,1,25.61,8.29Zm-.17,1.49v5.1H24.21V9.78Z"/></svg>