<svg id="icons_edit" xmlns="http://www.w3.org/2000/svg">
    <path class="cls-1"
          d="M31.5,31.31H18.67a.5.5,0,0,1-.5-.5.5.5,0,0,1,.5-.5H31.5a.5.5,0,0,1,.5.5A.5.5,0,0,1,31.5,31.31Z"/>
    <path class="cls-1"
          d="M8.5,31.33a.52.52,0,0,1-.36-.14A.51.51,0,0,1,8,30.77l.61-4.86a.54.54,0,0,1,.15-.29L24.92,9.42a2.55,2.55,0,0,1,1.79-.75h0a2.49,2.49,0,0,1,1.76.76l1.37,1.37a2.52,2.52,0,0,1,0,3.59L13.71,30.52a.47.47,0,0,1-.28.14l-4.87.67ZM9.58,26.2l-.51,4.05,4-.56,16.05-16a1.51,1.51,0,0,0,0-2.13L27.8,10.13a1.54,1.54,0,0,0-1.06-.46,1.45,1.45,0,0,0-1.07.42Z"/>
    <path class="cls-1"
          d="M25,13.8a.49.49,0,0,1-.35-.15l-1.34-1.33a.5.5,0,0,1,.71-.71L25.36,13a.5.5,0,0,1,0,.7A.51.51,0,0,1,25,13.8Z"/>
</svg>