<svg id="Layer_1" data-name="Layer 1" xmlns="http://www.w3.org/2000/svg" viewBox="0 0 40 40"><defs><style>.cls-1{fill:#4C4C4C;}.cls-2{fill:#4C4C4C;}</style></defs><path class="cls-1" d="M23,12.5a.25.25,0,0,0,0-.5H17a.25.25,0,0,0,0,.5Z"/><path class="cls-2" d="M23,12.63H17a.37.37,0,0,1-.37-.38.36.36,0,0,1,.37-.37h6a.37.37,0,0,1,.38.37A.38.38,0,0,1,23,12.63Zm-6-.5a.12.12,0,0,0-.12.12.12.12,0,0,0,.12.13h6a.13.13,0,0,0,.13-.13.12.12,0,0,0-.13-.12Z"/><path class="cls-1" d="M15.75,13.75v-3a.25.25,0,0,0-.5,0v3a.25.25,0,0,0,.5,0"/><path class="cls-2" d="M15.5,14.13a.37.37,0,0,1-.37-.38v-3a.36.36,0,0,1,.37-.37.37.37,0,0,1,.38.37v3A.38.38,0,0,1,15.5,14.13Zm0-3.5a.12.12,0,0,0-.12.12v3a.12.12,0,0,0,.12.13.13.13,0,0,0,.13-.13v-3A.12.12,0,0,0,15.5,10.63Z"/><path class="cls-1" d="M24.75,13.75v-3a.25.25,0,0,0-.5,0v3a.25.25,0,0,0,.5,0"/><path class="cls-2" d="M24.5,14.13a.37.37,0,0,1-.37-.38v-3a.36.36,0,0,1,.37-.37.37.37,0,0,1,.38.37v3A.38.38,0,0,1,24.5,14.13Zm0-3.5a.12.12,0,0,0-.12.12v3a.12.12,0,0,0,.12.13.13.13,0,0,0,.13-.13v-3A.12.12,0,0,0,24.5,10.63Z"/><path class="cls-1" d="M29,29H11c-.15,0-.2-.14-.2-.25V16.5h18.5V28.75A.3.3,0,0,1,29,29m0-17H26a.25.25,0,0,0,0,.5H29a.3.3,0,0,1,.3.25V16H10.75V12.75c0-.11.05-.25.2-.25H14a.25.25,0,0,0,0-.5H11a.71.71,0,0,0-.7.75v16a.71.71,0,0,0,.7.75H29a.79.79,0,0,0,.8-.75v-16A.79.79,0,0,0,29,12"/><path class="cls-2" d="M29,29.63H11a.83.83,0,0,1-.82-.88v-16a.82.82,0,0,1,.82-.87H14a.37.37,0,0,1,.38.37.38.38,0,0,1-.38.38H11c-.07,0-.07.08-.07.12v3.13H29.13V12.75c0-.05-.09-.12-.18-.12H26a.37.37,0,0,1-.37-.38.36.36,0,0,1,.37-.37H29a.92.92,0,0,1,.93.87v16A.93.93,0,0,1,29,29.63ZM11,12.13a.58.58,0,0,0-.57.62v16a.59.59,0,0,0,.57.63H29a.69.69,0,0,0,.68-.63v-16a.67.67,0,0,0-.68-.62H26a.12.12,0,0,0-.12.12.12.12,0,0,0,.12.13H29a.43.43,0,0,1,.43.37v3.38H10.63V12.75a.33.33,0,0,1,.32-.37H14a.13.13,0,0,0,.13-.13.12.12,0,0,0-.13-.12Zm18,17H11a.34.34,0,0,1-.32-.38V16.38H29.38V28.75A.43.43,0,0,1,29,29.13ZM10.88,16.63V28.75s0,.13.07.13H29c.09,0,.18-.08.18-.13V16.63Z"/></svg>