<svg id="Layer_1" data-name="Layer 1" xmlns="http://www.w3.org/2000/svg" viewBox="0 0 40 40"><defs><style>.cls-1{fill:#23b180;}.cls-2{fill:#fff;}</style></defs><path id="_Path_" data-name="&lt;Path&gt;" class="cls-1" d="M36.93,20A16.93,16.93,0,1,1,20,3.07,16.93,16.93,0,0,1,36.93,20Z"/><path class="cls-2" d="M28.49,18.85a8.34,8.34,0,0,0-16.67-.16c0,.13,0,.25,0,.37A8.19,8.19,0,0,0,13,23.33l-1.5,4.44,4.61-1.46a8.44,8.44,0,0,0,4,1,8.31,8.31,0,0,0,8.34-8.28ZM20.15,26a7,7,0,0,1-3.85-1.15l-2.7.85.88-2.58a6.9,6.9,0,0,1-1.34-4.08,5.17,5.17,0,0,1,0-.68,7,7,0,0,1,14,.14,4.75,4.75,0,0,1,0,.54A7,7,0,0,1,20.15,26Z"/><path id="_Path_2" data-name="&lt;Path&gt;" class="cls-2" d="M24,20.73c-.2-.1-1.21-.59-1.39-.66s-.33-.1-.46.1-.53.66-.65.79-.24.16-.44.06a5.54,5.54,0,0,1-1.65-1,5.63,5.63,0,0,1-1.13-1.41.29.29,0,0,1,.08-.41c.1-.09.21-.24.31-.35l.08-.1c.05-.08.08-.15.13-.24a.41.41,0,0,0,0-.36c0-.1-.46-1.1-.63-1.5s-.34-.34-.46-.34l-.39,0a.75.75,0,0,0-.55.26,2.24,2.24,0,0,0-.71,1.69,2.68,2.68,0,0,0,.1.69,4.61,4.61,0,0,0,.73,1.4,8.41,8.41,0,0,0,3.49,3.07c2.08.81,2.08.54,2.46.5a2.07,2.07,0,0,0,1.38-1,1.72,1.72,0,0,0,.12-1A1.18,1.18,0,0,0,24,20.73Z"/></svg>