<svg id="Layer_1" data-name="Layer 1" xmlns="http://www.w3.org/2000/svg" viewBox="0 0 40 40"><defs><style>.cls-1{fill:#4189c9;}.cls-2{fill:#fff;}</style></defs><circle class="cls-1" cx="20" cy="19.98" r="16.93"/><path class="cls-2" d="M27,14.59l-6.84,5.12a.21.21,0,0,1-.24,0L13,14.59a.21.21,0,0,1,.12-.37H26.84A.21.21,0,0,1,27,14.59Z"/><path class="cls-2" d="M28.47,25.13a.61.61,0,0,1-.62.61H12.21a.61.61,0,0,1-.67-.55.34.34,0,0,1,0-.1V15L14.29,17l5.2,3.9a.72.72,0,0,0,1,0s5.85-4.41,7.81-5.86c0,0,.09-.11.13-.1s0,.1,0,.15c.07,2.5,0,10,0,10Z"/></svg>