<svg xmlns="http://www.w3.org/2000/svg">
<symbol id="bridal-ring">
	<path d="M26.48,34.15a10.75,10.75,0,0,1-9.87-6.5l-.05-.1a9.49,9.49,0,0,1-3.66.73A9.67,9.67,0,0,1,5.73,12.19l-3-1,.52-2.5L7.63,5.85l2.52.55L9.84,9.47A9.57,9.57,0,0,1,12.9,9a9.67,9.67,0,0,1,8.26,4.7l.12.21a10.65,10.65,0,0,1,5.2-1.35,10.81,10.81,0,0,1,0,21.62Zm-8.64-7.24.09.19a9.36,9.36,0,1,0,3.91-11.9l.05.09a3.32,3.32,0,0,1,.28.76,9.55,9.55,0,0,1,.35,2.57A9.67,9.67,0,0,1,17.84,26.91ZM12.9,10.4a8.23,8.23,0,0,0,0,16.45,8.08,8.08,0,0,0,3.19-.65l0-.2a10.85,10.85,0,0,1,4-11.35L20,14.47A8.22,8.22,0,0,0,12.9,10.4ZM20.62,16a9.39,9.39,0,0,0-3.48,7.3,9.74,9.74,0,0,0,.25,2.16,8.25,8.25,0,0,0,3.45-8.9h0a3.47,3.47,0,0,0-.19-.5ZM4.41,10.23l2.51.84a8.87,8.87,0,0,1,1.41-.94l.26-2.6L7.9,7.39,4.56,9.55Z"/>
</symbol>
</svg>