<?xml version="1.0" encoding="utf-8"?>
<!-- Generator: Adobe Illustrator 23.0.2, SVG Export Plug-In . SVG Version: 6.00 Build 0)  -->
<svg version="1.1" id="Layer_1" xmlns="http://www.w3.org/2000/svg" xmlns:xlink="http://www.w3.org/1999/xlink" x="0px" y="0px"
	 viewBox="0 0 40 40" style="enable-background:new 0 0 40 40;" xml:space="preserve">
<style type="text/css">
	.st0{clip-path:url(#SVGID_2_);fill:#9F236B;}
	.st1{clip-path:url(#SVGID_4_);fill:#9F236B;}
	.st2{clip-path:url(#SVGID_6_);fill:#9F236B;}
</style>
<g>
	<g>
		<defs>
			<rect id="SVGID_3_" x="2.09" y="2.09" width="35.81" height="35.81"/>
		</defs>
		<clipPath id="SVGID_2_">
			<use xlink:href="#SVGID_3_"  style="overflow:visible;"/>
		</clipPath>
		<path class="st0" d="M20,2.81C10.52,2.81,2.81,10.52,2.81,20S10.52,37.19,20,37.19S37.19,29.48,37.19,20S29.48,2.81,20,2.81
			 M20,37.91c-9.87,0-17.91-8.03-17.91-17.91c0-9.87,8.03-17.91,17.91-17.91S37.91,10.13,37.91,20C37.91,29.87,29.87,37.91,20,37.91
			"/>
		<path class="st0" d="M27.33,16.52L27.33,16.52H9.82c-0.17,0-0.3,0.13-0.3,0.3v0v8.4c0,0.17,0.13,0.3,0.3,0.3h0h11.9
			c0.17,0,0.3-0.13,0.3-0.3c0-0.17-0.13-0.3-0.3-0.3h-11.6v-7.8h16.91v0.75c0,0.17,0.13,0.3,0.3,0.3h0c0.17,0,0.3-0.13,0.3-0.3v0
			v-1.05C27.63,16.66,27.49,16.52,27.33,16.52"/>
		<path class="st0" d="M25.29,15.13l-14.01-3.15c-0.08-0.02-0.16,0-0.23,0.04c-0.07,0.04-0.11,0.11-0.13,0.19l-0.7,3.15
			c-0.04,0.16,0.07,0.32,0.23,0.36c0.16,0.04,0.32-0.07,0.36-0.23l0.63-2.86l13.71,3.08c0.02,0.01,0.04,0.01,0.07,0.01
			c0.17,0,0.3-0.13,0.3-0.3C25.53,15.28,25.43,15.16,25.29,15.13"/>
		<path class="st0" d="M23.59,13.4l-8.4-3.5c-0.15-0.06-0.31,0-0.39,0.14l-0.7,1.4c-0.08,0.15-0.02,0.33,0.12,0.41
			c0.15,0.08,0.33,0.02,0.41-0.12c0-0.01,0.01-0.01,0.01-0.02v0l0.57-1.15l8.14,3.39c0.15,0.06,0.33-0.01,0.39-0.16
			C23.82,13.64,23.75,13.46,23.59,13.4"/>
		<path class="st0" d="M23.8,17.93h-2.78c-0.17,0-0.3,0.13-0.3,0.3c0,0.17,0.13,0.3,0.3,0.3h2.78c0.17,0,0.3-0.13,0.3-0.3
			C24.1,18.06,23.97,17.93,23.8,17.93"/>
		<path class="st0" d="M18.22,23.55c-1.39,0-2.52-1.13-2.52-2.52c0-1.39,1.13-2.52,2.52-2.52c1.39,0,2.52,1.13,2.52,2.52
			C20.75,22.42,19.62,23.55,18.22,23.55 M18.22,17.95c-1.7,0-3.08,1.38-3.08,3.08c0,1.7,1.38,3.08,3.08,3.08
			c1.7,0,3.08-1.38,3.08-3.08S19.93,17.95,18.22,17.95"/>
		<path class="st0" d="M26.63,21.03c-2.05,0-3.1-0.51-3.15-0.69v0c0.06-0.2,1.11-0.7,3.15-0.7c2.03,0,3.08,0.5,3.15,0.7
			C29.71,20.52,28.66,21.03,26.63,21.03 M29.78,21.72c-0.05,0.19-1.1,0.71-3.15,0.71s-3.1-0.51-3.15-0.7v-0.55
			c0.75,0.37,1.98,0.55,3.15,0.55c1.18,0,2.41-0.18,3.15-0.55V21.72z M29.78,23.12c-0.05,0.19-1.1,0.71-3.15,0.71
			s-3.1-0.51-3.15-0.7v-0.55c0.75,0.37,1.98,0.55,3.15,0.55c1.18,0,2.41-0.18,3.15-0.55V23.12z M29.78,24.52
			c-0.05,0.19-1.1,0.71-3.15,0.71s-3.1-0.51-3.15-0.7v-0.55c0.75,0.38,1.98,0.55,3.15,0.55c1.18,0,2.41-0.18,3.15-0.55V24.52z
			 M29.78,25.92c-0.05,0.19-1.1,0.71-3.15,0.71s-3.1-0.51-3.15-0.7v-0.55c0.75,0.38,1.98,0.55,3.15,0.55c1.18,0,2.41-0.18,3.15-0.55
			V25.92z M29.78,27.32c-0.05,0.19-1.1,0.71-3.15,0.71s-3.1-0.51-3.15-0.7v-0.55c0.75,0.38,1.98,0.55,3.15,0.55
			c1.18,0,2.41-0.18,3.15-0.55V27.32z M29.78,28.72c-0.05,0.19-1.1,0.71-3.15,0.71s-3.1-0.51-3.15-0.7v-0.55
			c0.75,0.38,1.98,0.55,3.15,0.55c1.18,0,2.41-0.18,3.15-0.55V28.72z M26.63,18.93c-1.86,0-3.85,0.44-3.85,1.4v8.4
			c0,0.96,2,1.4,3.85,1.4c1.86,0,3.85-0.44,3.85-1.4v-8.4C30.48,19.36,28.48,18.93,26.63,18.93"/>
		<path class="st0" d="M15.42,23.53h-2.65l-1.25-1.37v-2.28l1.39-1.35h2.52c0.17,0,0.3-0.13,0.3-0.3c0-0.17-0.13-0.3-0.3-0.3h-2.64
			c-0.08,0-0.15,0.03-0.21,0.09l-1.56,1.53c-0.06,0.07-0.09,0.16-0.09,0.24v2.49c0,0.07,0.03,0.15,0.08,0.2l1.42,1.56
			c0.06,0.06,0.14,0.1,0.22,0.1h2.78c0.17,0,0.3-0.13,0.3-0.3C15.72,23.66,15.59,23.53,15.42,23.53"/>
		<path class="st0" d="M18.5,22.87c-0.07,0-0.14-0.03-0.2-0.08l-1.27-1.22c-0.08-0.08-0.11-0.2-0.07-0.31
			c0.04-0.11,0.15-0.18,0.26-0.18h0.52c0.27,0,0.49-0.22,0.49-0.49s-0.22-0.49-0.49-0.49h-0.53c-0.16,0-0.28-0.13-0.28-0.28
			c0-0.16,0.13-0.28,0.28-0.28h0.53c0.58,0,1.06,0.48,1.06,1.06c0,0.53-0.39,0.96-0.89,1.05l0.78,0.74c0.11,0.11,0.12,0.29,0.01,0.4
			C18.64,22.84,18.57,22.87,18.5,22.87"/>
		<path class="st0" d="M19.04,20.86h-1.82c-0.16,0-0.28-0.13-0.28-0.28c0-0.16,0.13-0.28,0.28-0.28h1.82c0.16,0,0.28,0.13,0.28,0.28
			C19.32,20.74,19.2,20.86,19.04,20.86"/>
		<path class="st0" d="M19.04,20.1h-1.82c-0.16,0-0.28-0.13-0.28-0.28c0-0.16,0.13-0.28,0.28-0.28h1.82c0.16,0,0.28,0.13,0.28,0.28
			C19.32,19.97,19.2,20.1,19.04,20.1"/>
	</g>
</g>
</svg>
