<?xml version="1.0" encoding="utf-8"?>
<!-- Generator: Adobe Illustrator 23.0.2, SVG Export Plug-In . SVG Version: 6.00 Build 0)  -->
<svg version="1.1" id="Layer_1" xmlns="http://www.w3.org/2000/svg" xmlns:xlink="http://www.w3.org/1999/xlink" x="0px" y="0px"
	 viewBox="0 0 40 40" style="enable-background:new 0 0 40 40;" xml:space="preserve">
<style type="text/css">
	.st0{clip-path:url(#SVGID_2_);fill:#9F236B;}
	.st1{clip-path:url(#SVGID_4_);fill:#9F236B;}
	.st2{clip-path:url(#SVGID_6_);fill:#9F236B;}
</style>
<g>
	<defs>
		<rect id="SVGID_5_" x="2.09" y="2.09" width="35.81" height="35.81"/>
	</defs>
	<clipPath id="SVGID_2_">
		<use xlink:href="#SVGID_5_"  style="overflow:visible;"/>
	</clipPath>
	<path class="st0" d="M16.52,30.68c0.72,0,1.44,0.34,1.87,0.96c0.37,0.53,0.96,0.84,1.61,0.84c0.65,0,1.24-0.31,1.61-0.84
		c0.63-0.9,1.82-1.22,2.81-0.75c0.59,0.27,1.25,0.24,1.81-0.08c0.56-0.33,0.92-0.88,0.98-1.53c0.1-1.1,0.96-1.96,2.06-2.06
		c0.65-0.06,1.21-0.41,1.53-0.98c0.32-0.56,0.35-1.22,0.08-1.81c-0.46-1-0.15-2.18,0.75-2.81c0.53-0.37,0.84-0.96,0.84-1.61
		c0-0.65-0.3-1.24-0.84-1.61c-0.9-0.63-1.22-1.82-0.75-2.81c0.27-0.59,0.24-1.25-0.08-1.81c-0.32-0.56-0.88-0.92-1.53-0.98
		c-1.1-0.1-1.96-0.96-2.06-2.06c-0.06-0.65-0.41-1.21-0.98-1.53c-0.56-0.33-1.22-0.35-1.81-0.08c-1,0.47-2.18,0.15-2.81-0.75
		C21.24,7.83,20.65,7.52,20,7.52c-0.65,0-1.24,0.31-1.61,0.84c-0.63,0.9-1.81,1.22-2.81,0.75c-0.59-0.28-1.25-0.25-1.81,0.08
		c-0.56,0.33-0.92,0.88-0.98,1.53c-0.1,1.1-0.96,1.96-2.06,2.06c-0.65,0.06-1.21,0.41-1.53,0.98c-0.32,0.56-0.35,1.22-0.08,1.81
		c0.46,1,0.15,2.18-0.75,2.81C7.83,18.76,7.52,19.35,7.52,20c0,0.65,0.31,1.24,0.84,1.61c0.9,0.63,1.22,1.82,0.75,2.81
		c-0.27,0.59-0.24,1.25,0.08,1.81c0.32,0.56,0.88,0.92,1.53,0.98c1.1,0.1,1.96,0.96,2.06,2.06c0.06,0.65,0.41,1.21,0.98,1.53
		c0.56,0.33,1.23,0.35,1.81,0.08C15.88,30.75,16.2,30.68,16.52,30.68 M20,33.19c-0.89,0-1.69-0.42-2.19-1.14
		c-0.42-0.6-1.27-0.83-1.93-0.52c-0.8,0.37-1.71,0.33-2.47-0.11c-0.77-0.44-1.25-1.2-1.33-2.08c-0.07-0.75-0.66-1.35-1.41-1.41
		c-0.88-0.08-1.64-0.56-2.09-1.33c-0.44-0.77-0.48-1.67-0.11-2.47c0.32-0.68,0.1-1.5-0.52-1.93C7.23,21.69,6.81,20.89,6.81,20
		c0-0.88,0.42-1.69,1.14-2.19c0.62-0.43,0.83-1.24,0.52-1.93c-0.37-0.8-0.33-1.7,0.11-2.47c0.44-0.77,1.2-1.25,2.09-1.33
		c0.75-0.07,1.35-0.66,1.41-1.41c0.08-0.88,0.56-1.64,1.33-2.09c0.77-0.44,1.67-0.48,2.47-0.11c0.68,0.32,1.5,0.1,1.93-0.52
		c0.51-0.73,1.31-1.14,2.19-1.14c0.89,0,1.69,0.42,2.19,1.14c0.44,0.62,1.25,0.84,1.93,0.52c0.8-0.37,1.7-0.33,2.47,0.11
		c0.77,0.44,1.25,1.2,1.33,2.09c0.07,0.75,0.66,1.35,1.41,1.41c0.88,0.08,1.64,0.56,2.09,1.33c0.44,0.77,0.48,1.67,0.11,2.47
		c-0.32,0.68-0.1,1.5,0.52,1.93c0.72,0.51,1.14,1.31,1.14,2.19s-0.42,1.69-1.14,2.19c-0.62,0.43-0.83,1.24-0.52,1.93
		c0.37,0.8,0.33,1.7-0.11,2.47c-0.44,0.77-1.2,1.25-2.09,1.33c-0.75,0.07-1.35,0.66-1.41,1.41c-0.08,0.88-0.56,1.64-1.33,2.08
		c-0.76,0.44-1.67,0.48-2.47,0.11c-0.69-0.32-1.5-0.1-1.93,0.52C21.69,32.77,20.89,33.19,20,33.19"/>
	<path class="st0" d="M20,2.81C10.52,2.81,2.81,10.52,2.81,20S10.52,37.19,20,37.19S37.19,29.48,37.19,20S29.48,2.81,20,2.81
		 M20,37.91c-9.87,0-17.91-8.03-17.91-17.91c0-9.87,8.03-17.91,17.91-17.91S37.91,10.13,37.91,20C37.91,29.87,29.87,37.91,20,37.91"
		/>
	<path class="st0" d="M20,10.91c-5.01,0-9.09,4.08-9.09,9.09s4.08,9.09,9.09,9.09s9.09-4.08,9.09-9.09S25.01,10.91,20,10.91
		 M20,29.8c-5.4,0-9.8-4.4-9.8-9.8s4.4-9.8,9.8-9.8s9.8,4.4,9.8,9.8S25.4,29.8,20,29.8"/>
	<path class="st0" d="M18.41,25.22c-0.23,0-0.42-0.19-0.42-0.42c0-0.23,0.19-0.42,0.42-0.42c0.23,0,0.42,0.19,0.42,0.42
		C18.83,25.03,18.64,25.22,18.41,25.22 M18.41,23.84c-0.53,0-0.96,0.43-0.96,0.96c0,0.53,0.43,0.96,0.96,0.96
		c0.53,0,0.96-0.43,0.96-0.96C19.37,24.27,18.94,23.84,18.41,23.84"/>
	<path class="st0" d="M21.77,25.22c-0.23,0-0.42-0.19-0.42-0.42c0-0.23,0.19-0.42,0.42-0.42c0.23,0,0.42,0.19,0.42,0.42
		C22.19,25.03,22,25.22,21.77,25.22 M21.77,23.84c-0.53,0-0.96,0.43-0.96,0.96c0,0.53,0.43,0.96,0.96,0.96
		c0.53,0,0.96-0.43,0.96-0.96C22.73,24.27,22.3,23.84,21.77,23.84"/>
	<path class="st0" d="M22.01,18.79h-3.84c-0.15,0-0.27,0.12-0.27,0.27c0,0.15,0.12,0.27,0.27,0.27h3.84c0.15,0,0.27-0.12,0.27-0.27
		C22.27,18.91,22.15,18.79,22.01,18.79"/>
	<path class="st0" d="M21.8,20.18h-3.42c-0.15,0-0.27,0.12-0.27,0.27s0.12,0.27,0.27,0.27h3.42c0.15,0,0.27-0.12,0.27-0.27
		S21.95,20.18,21.8,20.18"/>
	<path class="st0" d="M23.45,21.57h-6.73l-0.75-3.63h8.23L23.45,21.57z M24.62,17.6c-0.1-0.13-0.25-0.2-0.42-0.2h-8.34l-0.17-0.82
		c-0.04-0.17-0.15-0.31-0.31-0.38l-1.17-0.51c-0.14-0.06-0.29,0-0.35,0.14c-0.06,0.14,0,0.29,0.14,0.35l1.17,0.51l1.3,6.29
		c0.05,0.25,0.27,0.43,0.52,0.43h6.41c0.15,0,0.27-0.12,0.27-0.27c0-0.15-0.12-0.27-0.27-0.27h-6.41l-0.16-0.76h6.62
		c0.25,0,0.47-0.18,0.52-0.43l0.75-3.63C24.76,17.89,24.72,17.72,24.62,17.6"/>
</g>
</svg>
