<?xml version="1.0" encoding="utf-8"?>
<!-- Generator: Adobe Illustrator 23.0.2, SVG Export Plug-In . SVG Version: 6.00 Build 0)  -->
<svg version="1.1" id="Layer_1" xmlns="http://www.w3.org/2000/svg" xmlns:xlink="http://www.w3.org/1999/xlink" x="0px" y="0px"
	 viewBox="0 0 40 40" style="enable-background:new 0 0 40 40;" xml:space="preserve">
<style type="text/css">
	.st0{clip-path:url(#SVGID_2_);fill:#9F236B;}
	.st1{clip-path:url(#SVGID_4_);fill:#9F236B;}
	.st2{clip-path:url(#SVGID_6_);fill:#9F236B;}
</style>
<g>
	<defs>
		<rect id="SVGID_1_" x="2.09" y="2.09" width="35.81" height="35.81"/>
	</defs>
	<clipPath id="SVGID_2_">
		<use xlink:href="#SVGID_1_"  style="overflow:visible;"/>
	</clipPath>
	<path class="st0" d="M20,2.81C10.52,2.81,2.81,10.52,2.81,20S10.52,37.19,20,37.19S37.19,29.48,37.19,20S29.48,2.81,20,2.81
		 M20,37.91c-9.87,0-17.91-8.03-17.91-17.91c0-9.87,8.03-17.91,17.91-17.91S37.91,10.13,37.91,20C37.91,29.87,29.87,37.91,20,37.91"
		/>
	<path class="st0" d="M17.56,18.91h-0.54v-2.16c0.34,0.25,0.54,0.65,0.54,1.08V18.91z M14.84,17.83c0-0.41,0.18-0.79,0.5-1.05
		c0.32-0.26,0.73-0.36,1.13-0.28v2.41h-1.63V17.83z M16.2,15.93c-1.05,0-1.9,0.85-1.9,1.9v2.71h0.54v-1.09h2.71v1.09h0.54v-2.71
		C18.1,16.78,17.25,15.93,16.2,15.93"/>
	<path class="st0" d="M20.81,13.49h2.17c0.15,0,0.27,0.12,0.27,0.27v1.36h-2.71v-1.36C20.54,13.61,20.66,13.49,20.81,13.49
		 M23.26,15.66v0.54h0.54v-2.44c0-0.45-0.36-0.81-0.81-0.81h-2.17c-0.45,0-0.81,0.36-0.81,0.81v2.44h0.54v-0.54H23.26z"/>
	<path class="st0" d="M27.6,25.7c0,0.45-0.36,0.81-0.81,0.81h-0.28c0.18-0.23,0.28-0.52,0.28-0.81V15.66h0.81V25.7z M21.63,26.51
		v-7.6h-2.44v-1.09c0-0.79-0.31-1.55-0.87-2.11c-0.02-0.02-0.04-0.04-0.07-0.06h0.67v0.54h0.54v-2.98c0-0.45,0.36-0.81,0.81-0.81
		h3.26c0.45,0,0.81,0.36,0.81,0.81v2.98h0.54v-0.54h1.36V25.7c0,0.45-0.36,0.81-0.81,0.81H21.63z M21.09,26.78
		c0,0.45-0.36,0.81-0.81,0.81h-0.01c0.18-0.23,0.28-0.52,0.28-0.81v-7.33h0.54V26.78z M13.22,27.6c-0.45,0-0.81-0.36-0.81-0.81
		v-7.33h0.81v1.09h0.54v-2.71c0-1.35,1.09-2.44,2.44-2.44c1.35,0,2.44,1.09,2.44,2.44v2.71h0.54v-1.09H20v7.33
		c0,0.45-0.36,0.81-0.81,0.81H13.22z M24.88,15.12v-1.9c0-0.75-0.61-1.36-1.36-1.36h-3.26c-0.75,0-1.36,0.61-1.36,1.36v1.9h-1.47
		c-0.92-0.42-2-0.35-2.85,0.2c-0.85,0.55-1.37,1.5-1.37,2.51v1.09h-1.36v7.87c0,0.75,0.61,1.36,1.36,1.36h7.05
		c0.64,0,1.2-0.45,1.33-1.09h5.18c0.75,0,1.36-0.61,1.36-1.36V15.12H24.88z"/>
	<path class="st0" d="M18.47,24.19c-0.06,0.09-0.2,0.15-0.31,0.17c-0.3,0.06-0.59-0.08-0.61-0.08c-0.21-0.09-0.36-0.11-0.56-0.03
		c0.3,0.21,0.33,0.4,0.33,0.67c0,0.17-0.03,0.39,0.07,0.54c0.05,0.07,0.13,0.13,0.22,0.12c0.01,0,0.02,0,0.03,0
		c0.04,0,0.05,0.02,0.06,0.04c0.01,0.04-0.03,0.07-0.07,0.08c-0.11,0.02-0.25-0.04-0.34-0.09c-0.26-0.16-0.37-0.47-0.38-0.49
		c-0.09-0.21-0.18-0.33-0.38-0.42c0.07,0.36-0.05,0.51-0.24,0.71c-0.11,0.12-0.3,0.26-0.33,0.44c-0.02,0.08,0,0.18,0.07,0.23
		c0.01,0.01,0.01,0.01,0.02,0.02c0.02,0.03,0.02,0.05,0.01,0.07c-0.02,0.04-0.07,0.03-0.1,0.01c-0.09-0.06-0.15-0.2-0.17-0.31
		c-0.07-0.29,0.07-0.59,0.08-0.61c0.08-0.21,0.1-0.37,0.03-0.57c-0.21,0.3-0.4,0.33-0.67,0.34c-0.17,0.01-0.39-0.03-0.55,0.07
		c-0.07,0.05-0.13,0.13-0.12,0.22c0,0.01,0,0.02,0,0.03c0,0.02,0,0.03-0.01,0.04c-0.02,0.06-0.08,0.02-0.1-0.01
		c-0.02-0.04-0.01-0.1,0-0.14c0.02-0.08,0.05-0.17,0.09-0.24c0.16-0.26,0.47-0.37,0.49-0.38c0.2-0.09,0.33-0.19,0.42-0.38l0,0
		c-0.36,0.06-0.51-0.05-0.71-0.24c-0.12-0.11-0.25-0.3-0.43-0.34c-0.08-0.02-0.18,0-0.24,0.07c-0.01,0.01-0.01,0.01-0.02,0.02
		c-0.03,0.02-0.05,0.02-0.07,0.01c-0.04-0.02-0.03-0.07-0.01-0.1c0.07-0.09,0.2-0.15,0.31-0.17c0.3-0.07,0.59,0.07,0.61,0.08
		c0.2,0.08,0.36,0.11,0.56,0.03c-0.3-0.21-0.33-0.4-0.33-0.67c-0.01-0.16,0.03-0.39-0.07-0.54c-0.05-0.07-0.13-0.13-0.22-0.12
		c-0.01,0-0.02,0-0.03,0c-0.04,0-0.05-0.02-0.06-0.04c-0.01-0.04,0.03-0.07,0.07-0.08c0.11-0.02,0.25,0.04,0.34,0.09
		c0.26,0.16,0.37,0.47,0.38,0.49c0.09,0.21,0.18,0.33,0.38,0.42c-0.06-0.36,0.05-0.51,0.24-0.71c0.11-0.12,0.3-0.26,0.34-0.44
		c0.02-0.08,0-0.18-0.07-0.24c-0.01-0.01-0.01-0.01-0.02-0.02c-0.02-0.03-0.02-0.05-0.01-0.07c0.02-0.04,0.07-0.03,0.1-0.01
		c0.09,0.06,0.15,0.2,0.17,0.3c0.07,0.3-0.07,0.59-0.08,0.61c-0.08,0.21-0.1,0.37-0.03,0.57c0.21-0.3,0.4-0.33,0.67-0.34
		c0.17-0.01,0.39,0.03,0.54-0.07c0.07-0.05,0.13-0.13,0.12-0.22c0-0.01,0-0.02,0-0.03c0-0.04,0.02-0.05,0.04-0.06
		c0.04-0.01,0.07,0.03,0.08,0.07c0.02,0.11-0.04,0.25-0.09,0.34c-0.16,0.26-0.47,0.37-0.49,0.38c-0.2,0.09-0.33,0.19-0.42,0.38l0,0
		c0.36-0.06,0.51,0.06,0.71,0.24c0.12,0.11,0.25,0.3,0.43,0.34c0.08,0.02,0.18,0,0.24-0.07c0.01-0.01,0.01-0.01,0.02-0.02
		c0.03-0.02,0.05-0.02,0.07-0.01C18.5,24.11,18.49,24.16,18.47,24.19"/>
</g>
</svg>
