<svg id="Layer_1" data-name="Layer 1" xmlns="http://www.w3.org/2000/svg" viewBox="0 0 203 58"><defs><style>.cls-1{fill:#aa1f56;}.cls-2,.cls-3,.cls-7{isolation:isolate;}.cls-3{font-size:21px;font-family:Lato-Semibold, Lato;font-weight:600;letter-spacing:0.03em;}.cls-3,.cls-6,.cls-7{fill:#fff;}.cls-4{letter-spacing:0.02em;}.cls-5{letter-spacing:0.01em;}.cls-7{font-size:7px;font-family:Lato-Bold, Lato;font-weight:700;letter-spacing:0.05em;}</style></defs><g id="Group_27" data-name="Group 27"><rect id="Rectangle_6" data-name="Rectangle 6" class="cls-1" width="203" height="58"/><g id="View_in_3D" data-name="View in 3D" class="cls-2"><text class="cls-3" transform="translate(69.79 36.9)">Vi<tspan class="cls-4" x="20.87" y="0">e</tspan><tspan class="cls-5" x="32.53" y="0">w</tspan><tspan x="49.41" y="0" xml:space="preserve"> in 3D</tspan></text></g><g id="Group_25" data-name="Group 25"><g id="Group_22" data-name="Group 22"><g id="Group_21" data-name="Group 21"><path id="Path_22" data-name="Path 22" class="cls-6" d="M38.73,43l-.42,0,1.24-2.06h-1.8l-1.14,1.94A4,4,0,0,0,35.89,45a2.29,2.29,0,0,0,2.27,2.31h.22a2.3,2.3,0,0,0,2.47-2.1,1.62,1.62,0,0,0,0-.22,2,2,0,0,0-1.94-2Zm-.36,2.93a.89.89,0,1,1,.87-.9v0a.85.85,0,0,1-.8.88Zm-4.63-2.67,1.25-2v-.28H30.7v1.43h2.1l-1,1.67v.34h1a.76.76,0,0,1,.81.7.77.77,0,0,1-.71.81h0a.7.7,0,0,1-.71-.69v0h-1.6a2.17,2.17,0,0,0,2.16,2.18h.14a2.19,2.19,0,0,0,2.35-2,.86.86,0,0,0,0-.16,1.89,1.89,0,0,0-1.46-1.92Zm10.4-2.44c-1.67,0-2.74,1.28-2.74,3.28s1.08,3.28,2.74,3.28,2.73-1.28,2.73-3.28S45.8,40.77,44.14,40.77Zm0,5.07c-.66,0-1-.64-1-1.79s.37-1.79,1-1.79,1,.65,1,1.8-.37,1.79-1,1.79ZM37,31.75l4.67-2.83A1.08,1.08,0,0,0,42,27.44a1.09,1.09,0,0,0-.37-.37L37,24.25a1.07,1.07,0,0,0-1.48.36,1.1,1.1,0,0,0-.16.56v5.65a1.08,1.08,0,0,0,1.08,1.08A1.09,1.09,0,0,0,37,31.75ZM38.73,10a18,18,0,0,0-9.5,33.3v-2a16.35,16.35,0,1,1,18.66.23,6.51,6.51,0,0,1,.44,1.68A18,18,0,0,0,38.73,10Z"/></g></g><rect id="Rectangle_5" data-name="Rectangle 5" class="cls-1" x="29.74" y="38.58" width="17.99" height="9.43"/><g id="_360" data-name=" 360" class="cls-2"><text class="cls-7" transform="translate(31.15 44.68)">360</text></g></g></g></svg>