<svg id="Layer_1" data-name="Layer 1" xmlns="http://www.w3.org/2000/svg" viewBox="0 0 92 92"><defs><style>.cls-1,.cls-4{fill:#fff;}.cls-1,.cls-3,.cls-4{isolation:isolate;}.cls-1{opacity:0.5;}.cls-2{fill:#aa1f56;}.cls-4{font-size:12px;font-family:Lato-Bold, Lato;font-weight:700;letter-spacing:0.05em;}</style></defs><g id="Group_40" data-name="Group 40"><circle id="Ellipse_2" data-name="Ellipse 2" class="cls-1" cx="46" cy="46" r="46"/><g id="Group_37" data-name="Group 37"><g id="Group_22" data-name="Group 22"><g id="Group_21" data-name="Group 21"><path id="Path_22" data-name="Path 22" class="cls-2" d="M46,75.77a5.42,5.42,0,0,0-.81.06c.81-1.37,1.63-2.72,2.44-4.08H44.06l-2.27,3.83a8.07,8.07,0,0,0-1.41,4.25c0,2.7,2,4.56,4.92,4.56s4.9-1.87,4.9-4.58a4,4,0,0,0-3.86-4Zm-.72,5.78A1.75,1.75,0,1,1,47,79.78v0a1.65,1.65,0,0,1-1.58,1.73Zm-9.14-5.27,2.48-4v-.57H30.13v2.82h4.14l-2,3.31v.68h2a1.49,1.49,0,1,1,.21,3h-.07A1.38,1.38,0,0,1,33,80.18v-.09H29.81a4.28,4.28,0,0,0,4.25,4.3h.3a4.33,4.33,0,0,0,4.65-4c0-.11,0-.22,0-.32A3.72,3.72,0,0,0,36.13,76.28Zm20.54-4.83c-3.29,0-5.4,2.53-5.4,6.49s2.13,6.48,5.4,6.48,5.4-2.53,5.4-6.48S60,71.45,56.67,71.45Zm0,10c-1.3,0-2-1.27-2-3.54s.72-3.54,2-3.54,2,1.28,2,3.55S58,81.48,56.67,81.48ZM42.47,53.63l9.24-5.58a2.13,2.13,0,0,0,.72-2.93,2.07,2.07,0,0,0-.72-.72l-9.24-5.58a2.13,2.13,0,0,0-3.23,1.82V51.8a2.14,2.14,0,0,0,2.13,2.14,2.19,2.19,0,0,0,1.11-.31Zm3.53-43A35.58,35.58,0,0,0,27.23,76.46V72.53A32.31,32.31,0,1,1,64.1,73,13.07,13.07,0,0,1,65,76.32,35.57,35.57,0,0,0,46,10.65Z"/></g></g><g id="Group_35" data-name="Group 35"><rect id="Rectangle_5" data-name="Rectangle 5" class="cls-2" x="26.78" y="65.8" width="38.45" height="18.62"/><g id="_360" data-name=" 360" class="cls-3"><text class="cls-4" transform="translate(33.69 79.14)">360</text></g></g></g></g></svg>