<svg id="Layer_1" data-name="Layer 1" xmlns="http://www.w3.org/2000/svg" viewBox="0 0 71.17 73.78"><defs><style>.cls-1{fill:#aa1f56;}.cls-2,.cls-3{isolation:isolate;}.cls-3{font-size:12px;fill:#fff;font-family:Lato-Bold, Lato;font-weight:700;letter-spacing:0.05em;}</style></defs><g id="Group_37" data-name="Group 37"><g id="Group_22" data-name="Group 22"><g id="Group_21" data-name="Group 21"><path id="Path_22" data-name="Path 22" class="cls-1" d="M35.57,65.12a5.52,5.52,0,0,0-.81.06c.81-1.37,1.63-2.72,2.45-4.08H33.64l-2.27,3.83A8,8,0,0,0,30,69.18c0,2.7,2,4.56,4.92,4.56s4.9-1.87,4.9-4.58a4,4,0,0,0-3.86-4Zm-.71,5.78a1.75,1.75,0,1,1,1.72-1.77v0A1.66,1.66,0,0,1,35,70.9Zm-9.15-5.27,2.48-4v-.57H19.71v2.82h4.14l-2,3.31v.68h2a1.5,1.5,0,0,1,.21,3H24a1.37,1.37,0,0,1-1.39-1.36.27.27,0,0,1,0-.09H19.39a4.28,4.28,0,0,0,4.25,4.3H24a4.33,4.33,0,0,0,4.64-4c0-.11,0-.22,0-.32A3.72,3.72,0,0,0,25.71,65.63ZM46.26,60.8c-3.3,0-5.4,2.53-5.4,6.49s2.12,6.48,5.4,6.48,5.4-2.53,5.4-6.48S49.55,60.8,46.26,60.8Zm0,10c-1.3,0-2-1.27-2-3.54s.72-3.54,2-3.54,2,1.28,2,3.55S47.56,70.83,46.26,70.83ZM32.06,43,41.3,37.4a2.13,2.13,0,0,0,0-3.65l-9.24-5.58A2.12,2.12,0,0,0,28.83,30V41.15A2.13,2.13,0,0,0,31,43.29,2.16,2.16,0,0,0,32.06,43ZM35.58,0A35.58,35.58,0,0,0,16.81,65.81V61.88a32.29,32.29,0,1,1,36.88.46,13.06,13.06,0,0,1,.86,3.33A35.57,35.57,0,0,0,35.58,0Z" transform="translate(0 0)"/></g></g><g id="Group_35" data-name="Group 35"><rect id="Rectangle_5" data-name="Rectangle 5" class="cls-1" x="16.36" y="55.15" width="38.45" height="18.62"/><g id="_360" data-name=" 360" class="cls-2"><text class="cls-3" transform="translate(23.27 68.49)">360</text></g></g></g></svg>