<?xml version="1.0" encoding="UTF-8"?><svg id="Layer_1" xmlns="http://www.w3.org/2000/svg" viewBox="0 0 20 20"><defs><style>.cls-1{font-family:Lato-Black, Lato;font-size:2.76px;letter-spacing:.03em;}.cls-1,.cls-2{fill:#fff;}.cls-3{fill:#7eaaa9;}</style></defs><circle class="cls-2" cx="10.04" cy="10.11" r="8.31"/><path class="cls-3" d="M15.2,17.03l-.3-.4c2.08-1.53,3.32-3.98,3.32-6.56,0-4.49-3.65-8.15-8.15-8.15S1.93,5.58,1.93,10.07c0,2.51,1.13,4.84,3.1,6.4l-.31,.39c-2.09-1.65-3.29-4.13-3.29-6.79C1.43,5.3,5.31,1.42,10.08,1.42s8.65,3.88,8.65,8.65c0,2.73-1.32,5.34-3.52,6.96Z"/><rect class="cls-3" x="2.95" y="14.77" width="13.99" height="3.76"/><text class="cls-1" transform="translate(4.01 17.67)"><tspan x="0" y="0">3D VIEW</tspan></text><g><g><path class="cls-3" d="M8.03,5.67c.12,0,.22,.02,.31,.05,.09,.03,.17,.08,.23,.13s.11,.12,.14,.19,.05,.15,.05,.23c0,.07,0,.14-.02,.2-.01,.06-.04,.11-.07,.15s-.07,.08-.11,.11c-.04,.03-.09,.05-.15,.07,.26,.09,.39,.27,.39,.53,0,.13-.02,.23-.07,.33-.05,.09-.11,.17-.18,.23-.08,.06-.16,.11-.26,.14s-.21,.05-.31,.05-.21-.01-.3-.04c-.09-.02-.17-.06-.23-.11-.07-.05-.13-.12-.18-.2-.05-.08-.1-.17-.13-.28l.22-.09s.04-.01,.06-.02,.04,0,.06,0c.04,0,.07,0,.09,.02s.05,.03,.06,.06c.05,.09,.1,.15,.15,.19s.12,.06,.19,.06c.06,0,.1,0,.15-.03s.08-.04,.1-.07c.03-.03,.05-.06,.06-.1,.01-.04,.02-.08,.02-.11,0-.05,0-.1-.01-.14s-.03-.08-.06-.1c-.03-.03-.08-.05-.15-.07-.07-.02-.16-.02-.27-.02v-.35c.1,0,.18,0,.24-.02,.06-.01,.11-.04,.14-.06s.05-.06,.06-.1c.01-.04,.02-.08,.02-.12,0-.09-.02-.16-.07-.21s-.11-.08-.2-.08c-.04,0-.07,0-.1,.02s-.06,.03-.08,.04c-.02,.02-.05,.04-.06,.06-.02,.03-.03,.05-.04,.08-.02,.05-.04,.08-.07,.11-.03,.02-.06,.03-.11,.03-.01,0-.02,0-.03,0s-.03,0-.04,0l-.27-.05c.02-.12,.05-.22,.1-.31,.05-.09,.11-.16,.18-.22,.07-.06,.16-.1,.25-.13,.09-.03,.19-.04,.3-.04Z"/><path class="cls-3" d="M10.08,6.56c.09,0,.17,.01,.25,.04s.16,.07,.22,.13c.07,.06,.12,.13,.16,.22,.04,.09,.06,.19,.06,.31,0,.11-.02,.21-.06,.31-.04,.1-.1,.18-.17,.26-.08,.07-.17,.13-.27,.18s-.22,.06-.35,.06-.25-.02-.35-.06c-.1-.04-.19-.1-.27-.17-.07-.07-.13-.16-.17-.27-.04-.1-.06-.22-.06-.34s.02-.23,.07-.35c.05-.12,.11-.24,.2-.36l.53-.72s.06-.06,.11-.08,.1-.03,.16-.03h.45l-.7,.83s-.02,.02-.03,.04-.02,.02-.03,.04c.04-.01,.08-.02,.12-.03s.09-.01,.13-.01Zm-.52,.74c0,.06,0,.11,.02,.16s.04,.09,.06,.12,.07,.06,.11,.08c.04,.02,.1,.03,.16,.03,.05,0,.1,0,.14-.03s.08-.05,.12-.08c.03-.03,.06-.07,.08-.12,.02-.05,.03-.1,.03-.15,0-.06,0-.11-.03-.16-.02-.05-.04-.09-.08-.12-.03-.03-.07-.06-.12-.07s-.1-.03-.15-.03c-.05,0-.1,0-.14,.03-.04,.02-.08,.04-.11,.08-.03,.03-.05,.07-.07,.12s-.03,.1-.03,.16Z"/><path class="cls-3" d="M12.74,6.87c0,.21-.02,.38-.07,.54-.04,.15-.11,.28-.18,.37s-.17,.17-.28,.22-.22,.07-.35,.07-.24-.02-.35-.07c-.11-.05-.2-.12-.28-.22-.08-.1-.14-.22-.18-.37-.04-.15-.06-.33-.06-.54s.02-.38,.06-.53c.04-.15,.1-.28,.18-.38,.08-.1,.17-.17,.28-.22,.11-.05,.22-.07,.35-.07s.24,.02,.35,.07c.11,.05,.2,.12,.28,.22,.08,.1,.14,.22,.18,.38,.04,.15,.07,.33,.07,.53Zm-.52,0c0-.16-.01-.3-.03-.4s-.05-.19-.08-.25c-.03-.06-.07-.1-.12-.12s-.09-.03-.13-.03-.09,.01-.13,.03c-.04,.02-.08,.06-.11,.12s-.06,.14-.08,.25c-.02,.1-.03,.24-.03,.4s0,.3,.03,.4c.02,.1,.05,.18,.08,.24,.03,.06,.07,.1,.11,.12,.04,.02,.09,.03,.13,.03s.09-.01,.13-.03c.04-.02,.08-.06,.12-.12,.03-.06,.06-.14,.08-.24,.02-.1,.03-.24,.03-.4Z"/><path class="cls-3" d="M12.87,5.86c0-.06,.01-.11,.03-.16,.02-.05,.05-.09,.09-.13,.04-.04,.08-.06,.13-.09,.05-.02,.1-.03,.16-.03s.11,.01,.16,.03c.05,.02,.09,.05,.13,.09,.04,.04,.07,.08,.09,.13,.02,.05,.03,.1,.03,.16s-.01,.11-.03,.15c-.02,.05-.05,.09-.09,.13-.04,.04-.08,.07-.13,.09s-.1,.03-.16,.03-.11-.01-.16-.03-.09-.05-.13-.09c-.04-.04-.07-.08-.09-.13-.02-.05-.03-.1-.03-.15Zm.24,0s0,.05,.01,.07,.02,.04,.03,.06c.02,.02,.03,.03,.05,.04,.02,0,.04,.01,.07,.01s.05,0,.07-.01c.02,0,.04-.02,.05-.04,.01-.02,.03-.03,.03-.06,0-.02,.01-.04,.01-.07s0-.05-.01-.07c0-.02-.02-.04-.03-.06-.02-.02-.03-.03-.05-.04-.02,0-.04-.01-.07-.01s-.05,0-.07,.01c-.02,0-.04,.02-.05,.04-.01,.02-.03,.04-.03,.06,0,.02-.01,.05-.01,.07Z"/></g><g><path class="cls-3" d="M13.67,6.82v.58c1.23,.42,1.97,1.02,1.97,1.64,0,1.18-2.59,2.18-5.65,2.18-.1,0-.14,0-.25,0l.72-.94c.08-.14,.02-.3-.13-.37-.15-.07-.34-.02-.42,.12l-1.01,1.33s0,0,0,0c0,0,0,.02-.01,.02,0,0,0,.01,0,.02,0,0,0,0,0,0,0,0,0,.02,0,.02h0s0,.02,0,.03h0s0,0,0,0c0,0,0,.01,0,.02h0s0,.02,0,.03c0,0,0,0,0,0,0,.01,0,.02,0,.03,0,0,0,.01,0,.02,0,0,0,0,0,0,0,.01,0,.02,.01,.03,0,0,0,.01,0,.02l1.15,1.36c.05,.1,.16,.15,.27,.15,.05,0,.1,0,.14-.03,.15-.07,.21-.24,.13-.37l-.85-.93c.1,0,.14,0,.23,0,3.51,0,6.26-1.2,6.26-2.73h0c0-.9-.97-1.71-2.59-2.22Z"/><path class="cls-3" d="M6.87,10.84h0c-1.55-.41-2.52-1.1-2.52-1.8,0-.64,.77-1.2,1.96-1.6v-.58c-1.56,.48-2.57,1.26-2.57,2.18,0,.97,1.11,1.84,2.96,2.33,.03,0,.06,.01,.09,.01,.13,0,.26-.08,.3-.2,.05-.15-.04-.3-.21-.34Z"/></g></g></svg>