<svg xmlns="http://www.w3.org/2000/svg" viewBox="0 0 18 16.36"><defs><style>.cls-1,.cls-2{fill:none;stroke:#181818;stroke-width:0.75px;}.cls-1{stroke-linecap:round;stroke-linejoin:round;}.cls-2{stroke-miterlimit:10;}</style></defs><g id="Layer_2" data-name="Layer 2"><g id="Layer_1-2" data-name="Layer 1"><line class="cls-1" x1="4.28" y1="5.44" x2="11.6" y2="12.76"/><line class="cls-1" x1="4.28" y1="12.76" x2="11.6" y2="5.44"/><path class="cls-2" d="M14.43,12.58V5.63a5.28,5.28,0,0,1,.8-1.92,1,1,0,0,0,.12-1.19.85.85,0,0,0-1.19-.11,11.47,11.47,0,0,1-2.52.66H4.24a11.33,11.33,0,0,1-2.52-.66.85.85,0,0,0-1.19.11A1,1,0,0,0,.65,3.71a5.28,5.28,0,0,1,.8,1.92v7a5.24,5.24,0,0,1-.8,1.91C.32,15,.3,15.4.53,15.68a.85.85,0,0,0,1.19.11,11.19,11.19,0,0,1,2.52-.65h7.4a11.33,11.33,0,0,1,2.52.65.85.85,0,0,0,1.19-.11,1,1,0,0,0-.12-1.19A5.24,5.24,0,0,1,14.43,12.58Z"/><path class="cls-2" d="M14.68,13.46a5.91,5.91,0,0,1,1.6.48.85.85,0,0,0,1.19-.11,1,1,0,0,0-.12-1.19,5.24,5.24,0,0,1-.8-1.91v-7a5.31,5.31,0,0,1,.8-1.91A1,1,0,0,0,17.47.67.85.85,0,0,0,16.28.56a11.33,11.33,0,0,1-2.52.66H6.36A11.33,11.33,0,0,1,3.84.56.85.85,0,0,0,2.65.67a1,1,0,0,0,.12,1.19,6.8,6.8,0,0,1,.51,1"/></g></g></svg>