<svg id="Layer_1" data-name="Layer 1" xmlns="http://www.w3.org/2000/svg" viewBox="0 0 40 40"><defs><style>.cls-1{fill:none;stroke:#ab1e56;stroke-miterlimit:10;stroke-width:0.5px;}</style></defs><title>cafe-icon</title><path class="cls-1" d="M19.1,30.34h-.85a6.41,6.41,0,0,1-6.42-6.42V20.66a.49.49,0,0,1,.49-.49H26.15a2,2,0,0,1,2,1.75,1.93,1.93,0,0,1-1.93,2.13H26a.2.2,0,0,1-.2-.2.21.21,0,0,1,.2-.21h.18a1.57,1.57,0,0,0,1.55-1.21,1.54,1.54,0,0,0-1.51-1.86H12.5a.27.27,0,0,0-.27.27v3.08a6,6,0,0,0,6,6h.85a6,6,0,0,0,6-6V21.08a.2.2,0,1,1,.4,0v2.84a6.42,6.42,0,0,1-6.43,6.42"/><path class="cls-1" d="M25.73,32.5H12a.2.2,0,1,1,0-.4h13.7a.2.2,0,1,1,0,.4"/><path class="cls-1" d="M17.34,19.44a.23.23,0,0,1-.15-.07,3.49,3.49,0,0,1-.7-2,3.06,3.06,0,0,1,.63-1.94l.12-.17a2.64,2.64,0,0,0,.55-1.71,3.19,3.19,0,0,0-.6-1.78.2.2,0,1,1,.31-.25,3.44,3.44,0,0,1,.7,2,3,3,0,0,1-.63,1.94l-.12.18a2.63,2.63,0,0,0-.55,1.7,3.07,3.07,0,0,0,.6,1.78.19.19,0,0,1,0,.28.21.21,0,0,1-.13.05"/><path class="cls-1" d="M20,15.53a.22.22,0,0,1-.13,0,.2.2,0,0,1,0-.28,3.09,3.09,0,0,0,.61-1.79,2.69,2.69,0,0,0-.55-1.7l-.13-.17a3.07,3.07,0,0,1-.62-1.94,3.51,3.51,0,0,1,.69-2,.21.21,0,0,1,.32.26,3.08,3.08,0,0,0-.61,1.78,2.69,2.69,0,0,0,.55,1.7l.13.18a3.07,3.07,0,0,1,.62,1.93,3.56,3.56,0,0,1-.69,2,.2.2,0,0,1-.16.07"/></svg>