<svg xmlns="http://www.w3.org/2000/svg" width="13" height="13" viewBox="0 0 13 13">
  <g id="Group_33" data-name="Group 33" transform="translate(-1045.2 -30)">
    <path id="Icon_awesome-phone-alt" data-name="Icon awesome-phone-alt" d="M12.629,9.187,9.785,7.968a.609.609,0,0,0-.711.175L7.815,9.682a9.411,9.411,0,0,1-4.5-4.5L4.855,3.923a.608.608,0,0,0,.175-.711L3.811.369a.613.613,0,0,0-.7-.353L.472.625A.609.609,0,0,0,0,1.219,11.78,11.78,0,0,0,11.781,13a.609.609,0,0,0,.594-.472l.609-2.641A.617.617,0,0,0,12.629,9.187Z" transform="translate(1045.2 30)" fill="#4c4c4c"/>
  </g>
</svg>
