<?xml version="1.0" encoding="UTF-8"?><svg id="Layer_1" xmlns="http://www.w3.org/2000/svg" viewBox="0 0 20 20"><defs><style>.cls-1{fill:#538b8b;stroke-width:0px;}</style></defs><g id="Icon_ionic-ios-checkmark-circle-outline"><path id="Path_401" class="cls-1" d="m14.53,7.32l-.75-.77s-.07-.05-.12-.05h0s-.09.02-.12.05l-5.18,5.22-1.88-1.88c-.06-.07-.17-.07-.23,0,0,0,0,0,0,0l-.76.76c-.07.07-.07.17,0,.24,0,0,0,0,0,0l2.38,2.38c.13.14.31.23.5.24.19-.02.36-.1.49-.24h0l5.68-5.7c.06-.07.06-.18,0-.24Z"/><path id="Path_402" class="cls-1" d="m10,2.36c4.22,0,7.64,3.42,7.63,7.64,0,4.22-3.42,7.64-7.64,7.63-4.22,0-7.64-3.42-7.63-7.64,0-2.02.81-3.97,2.24-5.4,1.43-1.44,3.38-2.24,5.4-2.24m0-1.19C5.12,1.17,1.17,5.12,1.17,10s3.95,8.83,8.83,8.83,8.83-3.95,8.83-8.83h0c0-4.88-3.95-8.83-8.83-8.83Z"/></g></svg>