<?xml version="1.0" encoding="UTF-8"?><svg id="Layer_1" xmlns="http://www.w3.org/2000/svg" xmlns:xlink="http://www.w3.org/1999/xlink" viewBox="0 0 20 20"><defs><style>.cls-1,.cls-2{fill:none;}.cls-2{stroke:#fff;stroke-linecap:round;stroke-linejoin:round;}.cls-3{clip-path:url(#clippath);}.cls-4{fill:#fff;}</style><clipPath id="clippath"><rect class="cls-1" x="2.4" y=".46" width="15.2" height="19.08"/></clipPath></defs><g class="cls-3"><g id="Group_698"><rect id="Rectangle_894" class="cls-2" x="2.9" y="6.39" width="14.19" height="12.65" rx=".62" ry=".62"/><path id="Path_100" class="cls-2" d="m5.46,6.43C5.46,3.41,7.49.96,10,.96s4.54,2.45,4.54,5.47"/><path id="Path_101" class="cls-4" d="m11.75,11.23c0,.97-.78,1.75-1.75,1.75-.97,0-1.75-.78-1.75-1.75s.78-1.75,1.75-1.75c0,0,0,0,0,0,.97,0,1.75.78,1.75,1.75h0"/><path id="Path_102" class="cls-4" d="m10,16.48h0c-.35,0-.64-.29-.64-.64v-3.78c0-.35.29-.64.64-.64s.64.29.64.64v3.78c0,.35-.29.64-.64.64"/></g></g></svg>