<svg id="Layer_1" data-name="Layer 1" xmlns="http://www.w3.org/2000/svg" xmlns:xlink="http://www.w3.org/1999/xlink" viewBox="0 0 64.11 69.5"><defs><style>.cls-1,.cls-4{fill:none;}.cls-2{clip-path:url(#clip-path);}.cls-3{fill:#fff;}.cls-4{stroke:#aa1e56;stroke-miterlimit:10;}.cls-5{font-size:7.09px;fill:#aa1e56;font-family:Lato-Bold, Lato;font-weight:700;}.cls-6{letter-spacing:-0.03em;}</style><clipPath id="clip-path"><rect class="cls-1" width="64.11" height="69.5"/></clipPath></defs><title>close-Shopthelook</title><g class="cls-2"><path class="cls-3" d="M61.2,33.89a8.19,8.19,0,0,1-2.3-2.83,30.53,30.53,0,0,1-2-4.76c-.35-1-.61-2.05-1-3.05a11.49,11.49,0,0,0-2.44-3.94,11.13,11.13,0,0,0-5.27-3.06,13.17,13.17,0,0,0-4.1-.44c-.43,0-.43,0-.43-.39V9.5c0-.21,0-.31-.28-.33a18.19,18.19,0,0,1-2.21-.23A11.65,11.65,0,0,1,32.1,2.09c-.16-.36-.31-.74-.48-1.13a1,1,0,0,0-.18.36A11.7,11.7,0,0,1,22.31,8.9a16.85,16.85,0,0,1-2.45.27c-.25,0-.31.11-.31.35v6.07c0,.16,0,.28-.23.26a11.62,11.62,0,0,0-3.43.21,11.53,11.53,0,0,0-5.65,2.77,11.12,11.12,0,0,0-3,4.54C6.86,24.71,6.5,26.1,6,27.5a23.33,23.33,0,0,1-2,4.42A6.42,6.42,0,0,1,.74,34.68a.14.14,0,0,0-.17.14l.27.11a6,6,0,0,1,1.32.72,7.65,7.65,0,0,1,2.06,2.43A29.2,29.2,0,0,1,6.65,44a20.48,20.48,0,0,0,1.56,4,10.78,10.78,0,0,0,3.13,3.52,12.09,12.09,0,0,0,4.6,1.94,12.12,12.12,0,0,0,3.29.24c.39,0,.39,0,.39.34v6c0,.22,0,.33.29.34a16.87,16.87,0,0,1,3,.38,11.86,11.86,0,0,1,6,3.21,11.66,11.66,0,0,1,2.28,3.55c.16.35.3.71.46,1.09l.07-.09.12-.3A11.68,11.68,0,0,1,41,60.61a20.17,20.17,0,0,1,2.45-.27c.22,0,.28-.1.27-.31V54c0-.36,0-.37.36-.33h.39a13.05,13.05,0,0,0,4.3-.61,11,11,0,0,0,4.4-2.55,11.83,11.83,0,0,0,3.11-5.25c.33-1.08.66-2.16,1-3.22a22.59,22.59,0,0,1,2.08-4.49,6.37,6.37,0,0,1,3-2.64l.46-.19-.33-.14a6.49,6.49,0,0,1-1.32-.72"/><path class="cls-4" d="M61.2,33.89a8.19,8.19,0,0,1-2.3-2.83,30.53,30.53,0,0,1-2-4.76c-.35-1-.61-2.05-1-3.05a11.49,11.49,0,0,0-2.44-3.94,11.13,11.13,0,0,0-5.27-3.06,13.17,13.17,0,0,0-4.1-.44c-.43,0-.43,0-.43-.39V9.5c0-.21,0-.31-.28-.33a18.19,18.19,0,0,1-2.21-.23A11.65,11.65,0,0,1,32.1,2.09c-.16-.36-.31-.74-.48-1.13a1,1,0,0,0-.18.36A11.7,11.7,0,0,1,22.31,8.9a16.85,16.85,0,0,1-2.45.27c-.25,0-.31.11-.31.35v6.07c0,.16,0,.28-.23.26a11.62,11.62,0,0,0-3.43.21,11.53,11.53,0,0,0-5.65,2.77,11.12,11.12,0,0,0-3,4.54C6.86,24.71,6.5,26.1,6,27.5a23.33,23.33,0,0,1-2,4.42A6.42,6.42,0,0,1,.74,34.68a.14.14,0,0,0-.17.14l.27.11a6,6,0,0,1,1.32.72,7.65,7.65,0,0,1,2.06,2.43A29.2,29.2,0,0,1,6.65,44a20.48,20.48,0,0,0,1.56,4,10.78,10.78,0,0,0,3.13,3.52,12.09,12.09,0,0,0,4.6,1.94,12.12,12.12,0,0,0,3.29.24c.39,0,.39,0,.39.34v6c0,.22,0,.33.29.34a16.87,16.87,0,0,1,3,.38,11.86,11.86,0,0,1,6,3.21,11.66,11.66,0,0,1,2.28,3.55c.16.35.3.71.46,1.09l.07-.09.12-.3A11.68,11.68,0,0,1,41,60.61a20.17,20.17,0,0,1,2.45-.27c.22,0,.28-.1.27-.31V54c0-.36,0-.37.36-.33h.39a13.05,13.05,0,0,0,4.3-.61,11,11,0,0,0,4.4-2.55,11.83,11.83,0,0,0,3.11-5.25c.33-1.08.66-2.16,1-3.22a22.59,22.59,0,0,1,2.08-4.49,6.37,6.37,0,0,1,3-2.64l.46-.19-.33-.14A6.26,6.26,0,0,1,61.2,33.89Z"/><text class="cls-5" transform="translate(21.12 36.79)">C<tspan class="cls-6" x="4.69" y="0">L</tspan><tspan x="8.19" y="0">OSE</tspan></text></g></svg>