<svg id="Layer_1" data-name="Layer 1" xmlns="http://www.w3.org/2000/svg" viewBox="0 0 92.9 86.25"><defs><style>.cls-1,.cls-2{fill:#fff;}.cls-1{stroke:#99144a;}.cls-1,.cls-2,.cls-3{stroke-miterlimit:10;stroke-width:2px;}.cls-2,.cls-3{stroke:#ab1e56;}.cls-3{fill:#ab1e56;fill-rule:evenodd;}</style></defs><path class="cls-1" d="M-89.3,37.89a30.53,30.53,0,0,0-3.18-6.17c-1.66-2.41-1.77-4.6-.62-6.06s3.55-2.23,6-.55,12.81,3.33,12.81,3.33h37.6s10.3-1.67,12.8-3.33,4.9-.91,6.06.55,1,3.65-.62,6.06-3.87,7.2-4.08,9.71V76.78c.21,2.5,2.41,7.3,4.08,9.7s1.77,4.6.62,6.06-3.55,2.23-6.06.56c-1.41-.94-5.3-1.88-8.42-2.52v-35c0-2.23,2.51-8.39,4.88-12.54a5.68,5.68,0,0,0-1.35-6c-1.63-1.75-4.09-3.74-8.4-1.67A42.58,42.58,0,0,1-53,38.83l-31.7,0C-88.32,38.78-89.3,37.89-89.3,37.89Z" transform="translate(108.97 -23.15)"/><path class="cls-2" d="M-36.59,91.13V55.78c.21-2.5,2.4-7.31,4.07-9.71s1.76-4.59.62-6a4.35,4.35,0,0,0-6-.56c-2.45,1.67-12.86,3.27-12.86,3.27h-37.6s-10.3-1.67-12.8-3.34-4.91-.91-6.06.56-1,3.65.63,6,3.86,7.29,4.11,9.78V91.13c-.21,2.5-2.4,7.31-4.07,9.71s-1.78,4.6-.63,6.06,3.55,2.23,6.06.56,12.8-3.35,12.8-3.35h37.6s10.24,1.67,12.77,3.35,4.9.9,6-.56,1-3.65-.62-6.06S-36.38,93.63-36.59,91.13Z" transform="translate(108.97 -23.15)"/><path class="cls-3" d="M-84.9,57.94a.19.19,0,0,0-.18.19.18.18,0,0,0,.06.13l15.2,15.2L-85,88.67a.18.18,0,0,0,0,.25h0a.21.21,0,0,0,.26,0h0l15.2-15.21,15.21,15.21a.2.2,0,0,0,.25,0,.17.17,0,0,0,0-.24h0L-69.3,73.46l15.2-15.2a.19.19,0,0,0,0-.26h0a.19.19,0,0,0-.26,0h0l-15.2,15.2L-84.76,58A.2.2,0,0,0-84.9,57.94Z" transform="translate(108.97 -23.15)"/></svg>