<?xml version="1.0" encoding="UTF-8"?><svg id="Layer_1" xmlns="http://www.w3.org/2000/svg" viewBox="0 0 20 20"><defs><style>.cls-1{fill:#ffffff;stroke-width:0px;}</style></defs><path id="Icon_ionic-md-eye" class="cls-1" d="m10,5.39c-3.01,0-5.72,1.82-6.85,4.61,1.53,3.78,5.84,5.61,9.62,4.08,1.85-.75,3.33-2.22,4.08-4.08-1.12-2.79-3.84-4.62-6.85-4.61Zm0,7.69c-1.7-.02-3.06-1.41-3.04-3.11.02-1.7,1.41-3.06,3.11-3.04,1.68.02,3.04,1.39,3.04,3.07-.01,1.71-1.4,3.09-3.11,3.08Zm0-4.92c-1.02.01-1.84.85-1.82,1.87.01,1.02.85,1.84,1.87,1.82,1.01-.01,1.83-.84,1.82-1.85-.01-1.02-.84-1.85-1.87-1.84Z"/></svg>