<svg id="Layer_1" data-name="Layer 1" xmlns="http://www.w3.org/2000/svg" xmlns:xlink="http://www.w3.org/1999/xlink" viewBox="0 0 40 40"><defs><style>.cls-1,.cls-4{fill:none;}.cls-2{clip-path:url(#clip-path);}.cls-3{fill:#ab1e56;}.cls-4{stroke:#ab1e56;stroke-miterlimit:10;stroke-width:0.5px;}</style><clipPath id="clip-path"><rect class="cls-1" x="11.41" y="9.75" width="17.18" height="20.5"/></clipPath></defs><title>gift-wrap-icon</title><g class="cls-2"><path class="cls-3" d="M21.45,17.85h5.18V29.54H21.45Zm-2.44,0h2V29.54H19Zm-5.64,0h5.18V29.54H13.37Zm8.08-3.14h6.43v2.67H21.45Zm-2.44,0h2v2.67H19Zm-6.89,0h6.43v2.67H12.12ZM23,10.46a.67.67,0,0,1,.5.21,1.07,1.07,0,0,1,.35,1,2.05,2.05,0,0,1-.72,1,7.35,7.35,0,0,1-2.85,1.42,5.28,5.28,0,0,1,1.37-2.94,2.56,2.56,0,0,1,1.06-.72,1,1,0,0,1,.29,0m-5.92,0a1,1,0,0,1,.29,0,2.65,2.65,0,0,1,1.07.72,5.34,5.34,0,0,1,1.36,2.94,7.35,7.35,0,0,1-2.85-1.42,2.05,2.05,0,0,1-.72-1,1.07,1.07,0,0,1,.35-1,.67.67,0,0,1,.5-.21M17,10a1.16,1.16,0,0,0-.83.35,1.59,1.59,0,0,0-.48,1.46,2.57,2.57,0,0,0,.87,1.29,6.91,6.91,0,0,0,1.9,1.14H11.89a.23.23,0,0,0-.23.23v3.15a.23.23,0,0,0,.23.23h1V29.77a.23.23,0,0,0,.23.23H26.87a.23.23,0,0,0,.23-.23V17.85h1a.23.23,0,0,0,.23-.23V14.47a.23.23,0,0,0-.23-.23H21.5a6.91,6.91,0,0,0,1.9-1.14,2.57,2.57,0,0,0,.87-1.29,1.59,1.59,0,0,0-.48-1.46,1.22,1.22,0,0,0-1.25-.29,3,3,0,0,0-1.27.85A5.74,5.74,0,0,0,20,13.08a5.74,5.74,0,0,0-1.27-2.17,3,3,0,0,0-1.27-.85A1.52,1.52,0,0,0,17,10"/><path class="cls-4" d="M21.45,17.85h5.18V29.54H21.45Zm-2.44,0h2V29.54H19Zm-5.64,0h5.18V29.54H13.37Zm8.08-3.14h6.43v2.67H21.45Zm-2.44,0h2v2.67H19Zm-6.89,0h6.43v2.67H12.12ZM23,10.46a.67.67,0,0,1,.5.21,1.07,1.07,0,0,1,.35,1,2.05,2.05,0,0,1-.72,1,7.35,7.35,0,0,1-2.85,1.42,5.28,5.28,0,0,1,1.37-2.94,2.56,2.56,0,0,1,1.06-.72A1,1,0,0,1,23,10.46Zm-5.92,0a1,1,0,0,1,.29,0,2.65,2.65,0,0,1,1.07.72,5.34,5.34,0,0,1,1.36,2.94,7.35,7.35,0,0,1-2.85-1.42,2.05,2.05,0,0,1-.72-1,1.07,1.07,0,0,1,.35-1A.67.67,0,0,1,17,10.46ZM17,10a1.16,1.16,0,0,0-.83.35,1.59,1.59,0,0,0-.48,1.46,2.57,2.57,0,0,0,.87,1.29,6.91,6.91,0,0,0,1.9,1.14H11.89a.23.23,0,0,0-.23.23v3.15a.23.23,0,0,0,.23.23h1V29.77a.23.23,0,0,0,.23.23H26.87a.23.23,0,0,0,.23-.23V17.85h1a.23.23,0,0,0,.23-.23V14.47a.23.23,0,0,0-.23-.23H21.5a6.91,6.91,0,0,0,1.9-1.14,2.57,2.57,0,0,0,.87-1.29,1.59,1.59,0,0,0-.48-1.46,1.22,1.22,0,0,0-1.25-.29,3,3,0,0,0-1.27.85A5.74,5.74,0,0,0,20,13.08a5.74,5.74,0,0,0-1.27-2.17,3,3,0,0,0-1.27-.85A1.52,1.52,0,0,0,17,10Z"/></g></svg>