<?xml version="1.0" encoding="UTF-8"?><svg id="Layer_1" xmlns="http://www.w3.org/2000/svg" viewBox="0 0 20 20"><defs><style>.cls-1{fill:#4c4c4d;}</style></defs><path id="Icon_awesome-eye" class="cls-1" d="m16.92,9.64c-1.31-2.63-3.99-4.3-6.93-4.32-2.94.02-5.61,1.69-6.92,4.32-.11.22-.11.49,0,.71,1.31,2.63,3.99,4.29,6.92,4.32,2.94-.02,5.61-1.69,6.92-4.32.11-.22.11-.49,0-.71Zm-6.92,3.86c-1.93,0-3.5-1.57-3.5-3.5s1.57-3.5,3.5-3.5,3.5,1.57,3.5,3.5-1.57,3.5-3.5,3.5h0,0Zm0-5.84c-.21,0-.42.03-.62.09.38.52.27,1.25-.25,1.63-.41.3-.97.3-1.38,0-.34,1.24.4,2.52,1.64,2.86s2.52-.4,2.86-1.64c.34-1.24-.4-2.52-1.64-2.86-.2-.05-.41-.08-.62-.08h0Z"/></svg>