
<svg id="Layer_1" data-name="Layer 1" xmlns="http://www.w3.org/2000/svg" viewBox="0 0 40 40"><defs><style>.cls-1{fill:#ab0853;}</style></defs><path class="cls-1" d="M20.71,16.8a.76.76,0,0,0,.2-.36,2.4,2.4,0,0,0,.07-.67,2.24,2.24,0,0,0-.07-.66.72.72,0,0,0-.22-.36.65.65,0,0,0-.34-.17,2.84,2.84,0,0,0-.62,0H19.4V17H20a2.34,2.34,0,0,0,.45,0A.86.86,0,0,0,20.71,16.8Z"/><path class="cls-1" d="M25.57,8.18H10.77V31.82H29.23v-20Zm-3.18,5.73h2.54v.63H23.14v.88h1.55V16H23.14v1.58h-.75Zm-3.74,0H20a3,3,0,0,1,.7.07,1.22,1.22,0,0,1,.56.35,1.61,1.61,0,0,1,.35.6,2.42,2.42,0,0,1,.13.87,2.3,2.3,0,0,1-.12.79,1.61,1.61,0,0,1-.39.65,1.29,1.29,0,0,1-.53.3,2.33,2.33,0,0,1-.66.07H18.65v-3.7Zm-3.44,0h1.2a3.91,3.91,0,0,1,.88.06,1,1,0,0,1,.54.36,1.18,1.18,0,0,1,.21.72,1.28,1.28,0,0,1-.12.58,1,1,0,0,1-.32.36.86.86,0,0,1-.38.17,3.83,3.83,0,0,1-.78.06H16v1.39h-.74ZM25.53,26.68H14.47v-.74H25.53Zm0-2.62H14.47v-.74H25.53Z"/><path class="cls-1" d="M17,15.53a.46.46,0,0,0,.32-.47.48.48,0,0,0-.12-.33.56.56,0,0,0-.3-.17l-.54,0H16v1.05h.41A1.85,1.85,0,0,0,17,15.53Z"/></svg>