<?xml version="1.0" encoding="UTF-8"?><svg id="Layer_1" xmlns="http://www.w3.org/2000/svg" viewBox="0 0 20 20"><defs><style>.cls-1{fill:#010101;stroke-width:0px;}</style></defs><path class="cls-1" d="m4.94,8.47c.19-.19.19-.5,0-.69-.19-.19-.5-.19-.69,0l-1.59,1.59c-2.18,2.21-2.18,5.79,0,7.98,1.11,1.09,2.55,1.64,4,1.64s2.89-.55,3.98-1.64l1.59-1.59c.19-.19.19-.5,0-.69-.19-.19-.5-.19-.69,0l-1.59,1.59c-1.8,1.8-4.76,1.8-6.59,0-1.8-1.8-1.8-4.76,0-6.59l1.59-1.59Z"/><path class="cls-1" d="m15.06,11.53c-.19.19-.19.5,0,.69.1.1.22.14.35.14s.25-.05.35-.14l1.59-1.59c2.18-2.21,2.18-5.79,0-7.98-2.21-2.18-5.79-2.18-7.97,0l-1.59,1.59c-.19.19-.19.5,0,.69.19.19.5.19.69,0l1.59-1.59c1.8-1.8,4.76-1.8,6.59,0,1.8,1.8,1.8,4.76,0,6.59l-1.59,1.59Z"/><path class="cls-1" d="m6.11,13.77c.1.1.22.14.35.14s.25-.05.35-.14l6.3-6.24c.19-.19.19-.5,0-.69-.19-.19-.5-.19-.69,0l-6.3,6.24c-.19.19-.19.5,0,.69Z"/></svg>