<svg id="Layer_1" data-name="Layer 1" xmlns="http://www.w3.org/2000/svg" viewBox="0 0 40 40"><defs><style>.cls-1{fill:#e6e6e6;}.cls-2{fill:#ffc107;}.cls-3{fill:#ff3d00;}.cls-4{fill:#4caf50;}.cls-5{fill:#1976d2;}</style></defs><title>google</title><path class="cls-1" d="M16.5,12.2c-1.4,0-2.3,1.4-2,3.2a3.1,3.1,0,0,0,2.9,3c1.3.1,2.1-1.1,1.9-2.9S17.9,12.3,16.5,12.2Z"/><path class="cls-1" d="M17.1,22.1c-2,0-3.8,1.3-3.8,2.8s1.5,2.8,3.5,2.8,3.9-1.2,3.9-2.7a1.3,1.3,0,0,0-.1-.6c-.2-.8-1.1-1.3-2.2-2.1Z"/><path class="cls-1" d="M20,2.8A17.2,17.2,0,1,0,37.2,20,17.2,17.2,0,0,0,20,2.8Z"/><path class="cls-2" d="M27.1,18.6H20v3h4.1a4.5,4.5,0,1,1-1.2-4.7l2-2.1a7.2,7.2,0,0,0-4.9-2A7.3,7.3,0,1,0,27.3,20,5.9,5.9,0,0,0,27.1,18.6Z"/><path class="cls-3" d="M13.6,16.6,16,18.4a4.3,4.3,0,0,1,4-2.8,4.5,4.5,0,0,1,2.9,1.2l2-2.1a7.1,7.1,0,0,0-11.3,1.9Z"/><path class="cls-4" d="M20,27.3a7.6,7.6,0,0,0,4.9-1.9l-2.3-1.9a4.5,4.5,0,0,1-2.6.9,4.5,4.5,0,0,1-4.1-2.9l-2.4,1.8A7.5,7.5,0,0,0,20,27.3Z"/><path class="cls-5" d="M27.1,18.6H20v3h4.1a4.3,4.3,0,0,1-1.5,2h0l2.3,1.9A7.5,7.5,0,0,0,27.3,20,5.9,5.9,0,0,0,27.1,18.6Z"/></svg>