<?xml version="1.0" encoding="UTF-8"?><svg id="Layer_1" xmlns="http://www.w3.org/2000/svg" viewBox="0 0 20 20"><defs><style>.cls-1,.cls-2{fill:none;}.cls-3{fill:#fff;}.cls-2{stroke:#fff;}</style></defs><g id="Group_1609"><g id="Ellipse_2"><circle class="cls-1" cx="10" cy="10" r="8.5"/><circle class="cls-2" cx="10" cy="10" r="8"/></g><g id="Icon_ionic-ios-pause"><path id="Path_375" class="cls-3" d="m8.64,14.2h-1.47c-.1,0-.19-.08-.19-.18,0,0,0,0,0,0v-6.98c0-.1.08-.18.19-.18h1.47c.1,0,.19.08.19.18h0v6.98c0,.1-.08.19-.18.19,0,0,0,0,0,0Z"/><path id="Path_376" class="cls-3" d="m12.68,14.2h-1.46c-.1,0-.19-.08-.19-.18h0v-6.98c0-.1.08-.18.19-.18h1.47c.1,0,.19.08.19.18h0v6.98c0,.1-.08.19-.18.19,0,0,0,0,0,0Z"/></g></g></svg>