<svg id="Layer_1" data-name="Layer 1" xmlns="http://www.w3.org/2000/svg" viewBox="0 0 48.75 41.39"><defs><style>.cls-1{fill:none;stroke:#000;stroke-miterlimit:10;stroke-width:0.75px;}</style></defs><path id="Path_1" data-name="Path 1" class="cls-1" d="M39.07,27.07c-.17-.17-.42-.17-.5.08v2.32a.9.9,0,0,1-.83.82H34.6c-9.1.34-9.27,9.94-9.27,9.94a11.1,11.1,0,0,1,9.18-5h3.23a.87.87,0,0,1,.83.83V38.4a.3.3,0,0,0,.34.25h0a.28.28,0,0,0,.15-.08l5.79-5.13a.82.82,0,0,0,0-1.16h0C44.94,32.28,39.07,27.07,39.07,27.07Z" transform="translate(-0.13 -0.13)"/><path id="Path_2" data-name="Path 2" class="cls-1" d="M47.76.5H1.25a.87.87,0,0,0-.75.75v30a.83.83,0,0,0,.75.75H26.74a10.84,10.84,0,0,1,7.86-3.31h2.31V27.15a2,2,0,0,1,1.25-1.83,1.79,1.79,0,0,1,2.06.58s6.29,5.13,6.46,6h1.08a.73.73,0,0,0,.74-.72h0v-30A.87.87,0,0,0,47.76.5ZM46.6,3.56l-18.38,17a5.4,5.4,0,0,1-7.44,0L2.4,3.56A.83.83,0,0,1,2.54,2.4a.84.84,0,0,1,1,0l18.37,17a3.91,3.91,0,0,0,5.22,0l8.41-7.78,10-9.22c.58-.19,1-.19,1.16,0h0A.87.87,0,0,1,46.6,3.56Z" transform="translate(-0.13 -0.13)"/></svg>