<?xml version="1.0" encoding="UTF-8"?>
<svg id="Layer_1" xmlns="http://www.w3.org/2000/svg" xmlns:xlink="http://www.w3.org/1999/xlink" viewBox="0 0 30 30">
  <defs>
    <style>
      .cls-1{fill:#fff;filter:url(#drop-shadow-2);}
    </style>
    <filter id="drop-shadow-2" filterUnits="userSpaceOnUse">
      <feOffset dx="0" dy="0.2"/>
      <feGaussianBlur result="blur" stdDeviation="0.7"/>
      <feFlood flood-color="#000" flood-opacity="1"/>
      <feComposite in2="blur" operator="in"/>
      <feComposite in="SourceGraphic"/>
    </filter>
  </defs>
  <path class="cls-1" d="m10.69,7.15l6.56,7.65-6.58,8.06c-.35.43-.29,1.06.14,1.41.43.35,1.06.29,1.41-.14l7.11-8.71s.03-.07.05-.1c.04-.06.07-.11.09-.18.02-.06.04-.12.05-.18.01-.06.02-.12.02-.19,0-.06,0-.12-.02-.19-.01-.06-.03-.12-.05-.18-.03-.06-.06-.12-.1-.17-.02-.03-.03-.07-.05-.1l-7.11-8.29c-.2-.23-.48-.35-.76-.35-.23,0-.46.08-.65.24-.42.36-.47.99-.11,1.41Z"/>
</svg>
