<svg id="Layer_1" data-name="Layer 1" xmlns="http://www.w3.org/2000/svg" xmlns:xlink="http://www.w3.org/1999/xlink" viewBox="0 0 64.11 69.5"><defs><style>.cls-1,.cls-4{fill:none;}.cls-2{clip-path:url(#clip-path);}.cls-3{fill:#fff;}.cls-4{stroke:#aa1e56;stroke-miterlimit:10;}.cls-5{fill:#aa1e56;}</style><clipPath id="clip-path" transform="translate(0 -374.5)"><rect class="cls-1" y="374.5" width="64.11" height="69.5"/></clipPath></defs><title>Shopthelook</title><g class="cls-2"><path class="cls-3" d="M61.2,408.39a8.19,8.19,0,0,1-2.3-2.83,30.51,30.51,0,0,1-2-4.76c-.35-1-.61-2.05-1-3.05a11.51,11.51,0,0,0-2.44-3.94,11.14,11.14,0,0,0-5.27-3.06,13,13,0,0,0-4.1-.44c-.43,0-.43,0-.43-.39,0-2,0-3.95,0-5.92,0-.21,0-.31-.28-.33a18.78,18.78,0,0,1-2.21-.23,11.65,11.65,0,0,1-9.07-6.85c-.16-.36-.31-.74-.48-1.13a1,1,0,0,0-.18.36,11.7,11.7,0,0,1-9.13,7.58,17.06,17.06,0,0,1-2.45.27c-.25,0-.31.11-.31.35,0,1.36,0,2.72,0,4.07,0,.67,0,1.33,0,2,0,.16,0,.28-.23.26a11.65,11.65,0,0,0-3.43.21,11.47,11.47,0,0,0-5.65,2.77,11.17,11.17,0,0,0-3,4.54C6.86,399.21,6.5,400.6,6,402a23.27,23.27,0,0,1-2.05,4.42,6.42,6.42,0,0,1-3.21,2.76c-.06,0-.15,0-.17.14l.27.11a6.06,6.06,0,0,1,1.32.72,7.64,7.64,0,0,1,2.06,2.43,29.5,29.5,0,0,1,2.43,5.9,20.35,20.35,0,0,0,1.56,4A10.83,10.83,0,0,0,11.34,426a11.93,11.93,0,0,0,4.6,1.94,12.05,12.05,0,0,0,3.29.24c.39,0,.39,0,.39.34,0,2,0,4,0,6,0,.22,0,.33.29.34a17,17,0,0,1,3,.38,11.85,11.85,0,0,1,6,3.21A11.57,11.57,0,0,1,31.19,442c.16.35.3.71.46,1.09a.58.58,0,0,0,.07-.09l.12-.3A11.69,11.69,0,0,1,41,435.11a18.67,18.67,0,0,1,2.45-.27c.22,0,.28-.1.27-.31,0-.67,0-1.33,0-2q0-2,0-4c0-.36,0-.37.36-.33l.39,0a13,13,0,0,0,4.3-.61,11,11,0,0,0,4.4-2.55,11.84,11.84,0,0,0,3.11-5.25c.33-1.08.66-2.16,1-3.22a22.55,22.55,0,0,1,2.08-4.49,6.42,6.42,0,0,1,3-2.64l.46-.19-.33-.14a6.22,6.22,0,0,1-1.32-.72" transform="translate(0 -374.5)"/><path class="cls-4" d="M61.2,408.39a8.19,8.19,0,0,1-2.3-2.83,30.51,30.51,0,0,1-2-4.76c-.35-1-.61-2.05-1-3.05a11.51,11.51,0,0,0-2.44-3.94,11.14,11.14,0,0,0-5.27-3.06,13,13,0,0,0-4.1-.44c-.43,0-.43,0-.43-.39,0-2,0-3.95,0-5.92,0-.21,0-.31-.28-.33a18.78,18.78,0,0,1-2.21-.23,11.65,11.65,0,0,1-9.07-6.85c-.16-.36-.31-.74-.48-1.13a1,1,0,0,0-.18.36,11.7,11.7,0,0,1-9.13,7.58,17.06,17.06,0,0,1-2.45.27c-.25,0-.31.11-.31.35,0,1.36,0,2.72,0,4.07,0,.67,0,1.33,0,2,0,.16,0,.28-.23.26a11.65,11.65,0,0,0-3.43.21,11.47,11.47,0,0,0-5.65,2.77,11.17,11.17,0,0,0-3,4.54C6.86,399.21,6.5,400.6,6,402a23.27,23.27,0,0,1-2.05,4.42,6.42,6.42,0,0,1-3.21,2.76c-.06,0-.15,0-.17.14l.27.11a6.06,6.06,0,0,1,1.32.72,7.64,7.64,0,0,1,2.06,2.43,29.5,29.5,0,0,1,2.43,5.9,20.35,20.35,0,0,0,1.56,4A10.83,10.83,0,0,0,11.34,426a11.93,11.93,0,0,0,4.6,1.94,12.05,12.05,0,0,0,3.29.24c.39,0,.39,0,.39.34,0,2,0,4,0,6,0,.22,0,.33.29.34a17,17,0,0,1,3,.38,11.85,11.85,0,0,1,6,3.21A11.57,11.57,0,0,1,31.19,442c.16.35.3.71.46,1.09a.58.58,0,0,0,.07-.09l.12-.3A11.69,11.69,0,0,1,41,435.11a18.67,18.67,0,0,1,2.45-.27c.22,0,.28-.1.27-.31,0-.67,0-1.33,0-2q0-2,0-4c0-.36,0-.37.36-.33l.39,0a13,13,0,0,0,4.3-.61,11,11,0,0,0,4.4-2.55,11.84,11.84,0,0,0,3.11-5.25c.33-1.08.66-2.16,1-3.22a22.55,22.55,0,0,1,2.08-4.49,6.42,6.42,0,0,1,3-2.64l.46-.19-.33-.14A6.22,6.22,0,0,1,61.2,408.39Z" transform="translate(0 -374.5)"/><path class="cls-5" d="M39.1,414h-.94v5.06h.94v-2.23h.3a.62.62,0,0,1,.25,0,.43.43,0,0,1,.16.13l1.43,1.87a.4.4,0,0,0,.14.14.52.52,0,0,0,.25,0h.83l-1.76-2.37a1.11,1.11,0,0,0-.18-.2.7.7,0,0,0-.21-.12.71.71,0,0,0,.16-.11l.15-.16,1.7-2.1h-.81a.59.59,0,0,0-.24,0,.5.5,0,0,0-.18.16L39.69,416a.37.37,0,0,1-.15.12.57.57,0,0,1-.22,0H39.1Zm-3.28,3.28a1.57,1.57,0,0,1-.32.56,1.37,1.37,0,0,1-.5.35,1.87,1.87,0,0,1-1.33,0,1.38,1.38,0,0,1-.51-.35,1.58,1.58,0,0,1-.32-.56,2.55,2.55,0,0,1,0-1.5,1.6,1.6,0,0,1,.32-.56,1.4,1.4,0,0,1,.51-.35,1.87,1.87,0,0,1,1.33,0,1.39,1.39,0,0,1,.5.35,1.6,1.6,0,0,1,.32.56,2.57,2.57,0,0,1,0,1.5m.89-1.78a2.43,2.43,0,0,0-.52-.82,2.4,2.4,0,0,0-.81-.54,2.7,2.7,0,0,0-1-.2,2.75,2.75,0,0,0-1,.19,2.38,2.38,0,0,0-.81.54,2.44,2.44,0,0,0-.52.82,3,3,0,0,0,0,2.06,2.44,2.44,0,0,0,.52.82,2.38,2.38,0,0,0,.81.54,2.92,2.92,0,0,0,2.1,0,2.37,2.37,0,0,0,.81-.54,2.45,2.45,0,0,0,.52-.82,2.95,2.95,0,0,0,0-2.06m-7,1.78a1.57,1.57,0,0,1-.32.56,1.36,1.36,0,0,1-.5.35,1.87,1.87,0,0,1-1.34,0,1.37,1.37,0,0,1-.51-.35,1.56,1.56,0,0,1-.32-.56,2.55,2.55,0,0,1,0-1.5,1.59,1.59,0,0,1,.32-.56,1.39,1.39,0,0,1,.51-.35,1.87,1.87,0,0,1,1.34,0,1.38,1.38,0,0,1,.5.35,1.6,1.6,0,0,1,.32.56,2.59,2.59,0,0,1,0,1.5m.89-1.78a2.43,2.43,0,0,0-.52-.82,2.4,2.4,0,0,0-.81-.54,2.7,2.7,0,0,0-1-.2,2.75,2.75,0,0,0-1,.19,2.38,2.38,0,0,0-.81.54,2.42,2.42,0,0,0-.52.82,2.95,2.95,0,0,0,0,2.06,2.42,2.42,0,0,0,.52.82,2.38,2.38,0,0,0,.81.54,2.92,2.92,0,0,0,2.09,0,2.37,2.37,0,0,0,.81-.54,2.45,2.45,0,0,0,.52-.82,3,3,0,0,0,0-2.06M23.06,414h-.94v5.06h3v-.78h-2Z" transform="translate(0 -374.5)"/><path class="cls-5" d="M47.19,403v5.06h3.19v-.75H48.14V405.9H49.9v-.72H48.14v-1.4h2.24V403Zm-1.51,0h-.95v2.18H42.36V403h-.95v5.06h.95v-2.21h2.37v2.21h.95Zm-9.35,0v.77h1.53v4.29h.94V403.8h1.52V403Zm-5.31.73h.71a1.49,1.49,0,0,1,.45.06.84.84,0,0,1,.32.18.72.72,0,0,1,.19.28,1,1,0,0,1,.06.37,1.12,1.12,0,0,1-.06.39.75.75,0,0,1-.19.29.83.83,0,0,1-.32.19,1.42,1.42,0,0,1-.45.06H31Zm.71,2.55a2.72,2.72,0,0,0,.86-.12,1.71,1.71,0,0,0,.61-.34,1.4,1.4,0,0,0,.37-.53,1.89,1.89,0,0,0,0-1.32,1.3,1.3,0,0,0-.36-.51,1.68,1.68,0,0,0-.61-.33,2.9,2.9,0,0,0-.88-.12H30.08v5.06H31v-1.78Zm-4,0a1.56,1.56,0,0,1-.32.56,1.37,1.37,0,0,1-.5.35,1.89,1.89,0,0,1-1.33,0,1.39,1.39,0,0,1-.51-.35,1.58,1.58,0,0,1-.32-.56,2.55,2.55,0,0,1,0-1.49,1.6,1.6,0,0,1,.32-.56,1.4,1.4,0,0,1,.51-.35,1.89,1.89,0,0,1,1.33,0,1.37,1.37,0,0,1,.5.35,1.58,1.58,0,0,1,.32.56,2.59,2.59,0,0,1,0,1.49m.89-1.78a2.43,2.43,0,0,0-.52-.82,2.4,2.4,0,0,0-.81-.54,2.7,2.7,0,0,0-1-.2,2.75,2.75,0,0,0-1,.19,2.38,2.38,0,0,0-.81.54,2.44,2.44,0,0,0-.52.82,2.95,2.95,0,0,0,0,2.06,2.44,2.44,0,0,0,.52.82,2.38,2.38,0,0,0,.81.54,2.92,2.92,0,0,0,2.1,0,2.37,2.37,0,0,0,.81-.54,2.45,2.45,0,0,0,.52-.82,3,3,0,0,0,0-2.06M22.45,403H21.5v2.18H19.13V403h-.95v5.06h.95v-2.21H21.5v2.21h.95Zm-5.57.48a1.86,1.86,0,0,0-.64-.39,2.37,2.37,0,0,0-.83-.14,1.91,1.91,0,0,0-.7.12,1.6,1.6,0,0,0-.52.33,1.4,1.4,0,0,0-.43,1,1.5,1.5,0,0,0,.1.58,1.18,1.18,0,0,0,.26.39,1.41,1.41,0,0,0,.38.26,3.78,3.78,0,0,0,.43.17l.43.13a2,2,0,0,1,.38.15.81.81,0,0,1,.26.21.51.51,0,0,1,.1.33.68.68,0,0,1-.22.55.92.92,0,0,1-.62.19,1.26,1.26,0,0,1-.45-.07,1.86,1.86,0,0,1-.32-.16l-.24-.16a.33.33,0,0,0-.19-.07.23.23,0,0,0-.12,0,.33.33,0,0,0-.09.08l-.27.45a2.05,2.05,0,0,0,.34.27,2.32,2.32,0,0,0,.4.21,2.6,2.6,0,0,0,.45.13,2.44,2.44,0,0,0,.48,0A2,2,0,0,0,16,408a1.62,1.62,0,0,0,.55-.35,1.49,1.49,0,0,0,.34-.52,1.75,1.75,0,0,0,.12-.64,1.29,1.29,0,0,0-.1-.54,1.14,1.14,0,0,0-.26-.37,1.5,1.5,0,0,0-.37-.25l-.43-.17-.43-.14a2.54,2.54,0,0,1-.37-.15.85.85,0,0,1-.26-.2.45.45,0,0,1-.1-.3.67.67,0,0,1,0-.26.53.53,0,0,1,.15-.2.72.72,0,0,1,.24-.13,1.09,1.09,0,0,1,.34,0,1.18,1.18,0,0,1,.38.06,1.61,1.61,0,0,1,.28.12l.21.12a.31.31,0,0,0,.16.06.23.23,0,0,0,.12,0,.26.26,0,0,0,.09-.11Z" transform="translate(0 -374.5)"/></g></svg>