<?xml version="1.0" encoding="utf-8"?>
<!-- Generator: Adobe Illustrator 24.0.1, SVG Export Plug-In . SVG Version: 6.00 Build 0)  -->
<svg version="1.1" id="Layer_1" xmlns="http://www.w3.org/2000/svg" xmlns:xlink="http://www.w3.org/1999/xlink" x="0px" y="0px"
	 viewBox="0 0 56.4 43.7" style="enable-background:new 0 0 56.4 43.7;" xml:space="preserve">
<style type="text/css">
	.st0{opacity:0.8;}
</style>
<path class="st0" d="M28.2,5.9c-12.1,0-22.9,7.3-28.2,16c5.2,8.7,16,16,28.2,16c12,0,22.9-7.2,28.2-16C51.2,13.1,40.3,5.9,28.2,5.9z
	 M42.2,21.9c0,7.7-6.3,14-14,14s-14-6.3-14-14s6.3-14,14-14S42.2,14.1,42.2,21.9z M2.4,21.9c1.3-1.9,6.5-8.7,15.4-12.1
	c-3.4,2.9-5.6,7.3-5.6,12.1s2.2,9.2,5.6,12.1C8.9,30.6,3.7,23.8,2.4,21.9z M38.6,33.9c3.4-2.9,5.6-7.3,5.6-12.1S42,12.6,38.6,9.8
	c8.9,3.4,14,10.2,15.4,12.1C52.7,23.8,47.5,30.6,38.6,33.9z M28.2,28.9c3.9,0,7-3.1,7-7s-3.1-7-7-7s-7,3.1-7,7S24.3,28.9,28.2,28.9z
	 M28.2,16.9c2.8,0,5,2.2,5,5s-2.2,5-5,5s-5-2.2-5-5S25.4,16.9,28.2,16.9z"/>
</svg>
