<?xml version="1.0" encoding="UTF-8"?><svg id="Layer_1" xmlns="http://www.w3.org/2000/svg" viewBox="0 0 20 20"><defs><style>.cls-1{fill:#4c4c4d;}</style></defs><path id="Icon_awesome-eye-slash" class="cls-1" d="m10,13.42c-1.79,0-3.27-1.38-3.4-3.16l-2.48-1.92c-.33.41-.63.85-.87,1.32-.11.22-.11.48,0,.69,1.28,2.56,3.89,4.19,6.76,4.21.63,0,1.25-.08,1.85-.24l-1.23-.96c-.2.04-.41.06-.62.06Zm7.46,1.38l-2.63-2.03c.8-.67,1.45-1.5,1.93-2.43.11-.22.11-.48,0-.69-1.28-2.56-3.89-4.19-6.76-4.21-1.22,0-2.43.31-3.5.9l-3.02-2.34c-.17-.13-.4-.1-.53.07l-.47.6c-.13.17-.1.4.07.53l13.98,10.8c.17.13.4.1.53-.07,0,0,0,0,0,0l.47-.6c.13-.17.1-.4-.07-.53h0Zm-4.36-3.37l-.93-.72c.41-1.17-.22-2.46-1.39-2.86-.44-.15-.92-.16-1.37-.03.14.19.22.43.22.67,0,.08-.02.16-.04.24l-1.75-1.35c.61-.51,1.37-.79,2.16-.79,1.89,0,3.42,1.53,3.42,3.42h0c0,.5-.12.98-.33,1.43h0Z"/></svg>