<svg id="WA_icon" data-name="WA icon" xmlns="http://www.w3.org/2000/svg" xmlns:xlink="http://www.w3.org/1999/xlink" width="13.42" height="12.421" viewBox="0 0 13.42 12.421">
  <defs>
    <clipPath id="clip-path">
      <rect id="Rectangle_1351" data-name="Rectangle 1351" width="13.42" height="12.421" fill="#45a339"/>
    </clipPath>
  </defs>
  <g id="Group_1378" data-name="Group 1378" transform="translate(0 0)" clip-path="url(#clip-path)">
    <path id="Path_358" data-name="Path 358" d="M7.209,0A6.218,6.218,0,0,0,1,6.212a6.155,6.155,0,0,0,.52,2.482L.032,11.349a.24.24,0,0,0-.012.038A.241.241,0,0,0,0,11.443.275.275,0,0,0,0,11.5c0,.013,0,.025,0,.039l0,0a.275.275,0,0,0,.086.137.268.268,0,0,0,.022.019.194.194,0,0,0,.024.02.268.268,0,0,0,.135.035.317.317,0,0,0,.059-.006l3.036-.666A6.209,6.209,0,1,0,7.209,0m0,11.87a5.668,5.668,0,0,1-3.6-1.293l0,0a.27.27,0,0,0-.233-.06l-2.559.562L2.066,8.847a.271.271,0,0,0,0-.251l0,0-.021-.045a5.608,5.608,0,0,1-.5-2.337A5.659,5.659,0,1,1,7.209,11.87" transform="translate(0 0)" fill="#45a339"/>
    <path id="Path_359" data-name="Path 359" d="M11.7,8.515a.536.536,0,0,0-.24-.166l-.129-.063c-.378-.186-.895-.436-1.014-.478a.33.33,0,0,0-.456.112c-.1.145-.384.477-.476.582-.049.055-.084.084-.22.015l-.108-.048a3.772,3.772,0,0,1-1.1-.691,4.421,4.421,0,0,1-.83-1.024c-.05-.087-.026-.119.051-.2.044-.043.092-.1.14-.159.032-.039.063-.076.1-.116s.04-.051.062-.082a1.876,1.876,0,0,0,.1-.187.365.365,0,0,0-.012-.351C7.538,5.618,7.4,5.29,7.282,5c-.073-.175-.144-.347-.191-.458-.125-.3-.277-.316-.4-.31l-.029,0c-.04,0-.083,0-.128-.007s-.109-.008-.164-.008a.656.656,0,0,0-.477.22l-.029.031a1.776,1.776,0,0,0-.53,1.3,2.029,2.029,0,0,0,.082.543,5.645,5.645,0,0,0,4.813,3.8c.092,0,.184,0,.277-.011a1.609,1.609,0,0,0,1.11-.784,1.275,1.275,0,0,0,.082-.8" transform="translate(-1.224 -0.969)" fill="#45a339"/>
  </g>
</svg>
