<?xml version="1.0" encoding="utf-8"?>
<!-- Generator: Adobe Illustrator 25.2.0, SVG Export Plug-In . SVG Version: 6.00 Build 0)  -->
<svg version="1.1" id="Layer_1" xmlns="http://www.w3.org/2000/svg" xmlns:xlink="http://www.w3.org/1999/xlink" x="0px" y="0px"
	 viewBox="0 0 33.8 33.8" style="enable-background:new 0 0 33.8 33.8;" xml:space="preserve">
<style type="text/css">
	.st0{fill:#FFFFFF;}
	.st1{fill:#65CF72;}
	.st2{fill-rule:evenodd;clip-rule:evenodd;fill:#FFFFFF;}
</style>
<path class="st0" d="M33.8,16.9c-0.1,9.3-7.6,16.8-16.9,16.7C7.6,33.5,0.1,26,0.2,16.7S7.8-0.1,17.1,0c9.2,0.1,16.6,7.5,16.7,16.7
	l0,0V16.9z"/>
<path class="st1" d="M0.2,33.8l2.4-8.6c-1.5-2.6-2.3-5.5-2.2-8.4C0.3,7.6,7.8,0.1,17,0.1c4.4,0,8.7,1.8,11.7,5c3.2,3.1,5,7.3,5,11.7
	c0,9.2-7.5,16.7-16.7,16.7c0,0,0,0,0,0l0,0c-2.8,0-5.6-0.6-8.1-1.9L0.2,33.8z"/>
<path class="st2" d="M25.5,20.9l-0.9-0.5L21.7,19c-0.3-0.2-0.7-0.2-0.9,0.2l-1.4,1.7h-0.9c-1.2-0.5-2.4-1.2-3.4-2.1
	c-1-0.8-1.7-1.8-2.2-2.9c-0.2-0.4,0-0.5,0.2-0.9l0.7-0.7c0.2-0.2,0.2-0.4,0.3-0.7s0-0.5,0-0.7c-0.5-1-1-2-1.4-3.1
	C12.4,9,12,9.2,11.9,9.2H11c-0.4,0-0.8,0.2-1,0.5c-1,0.9-1.6,2.1-1.6,3.4c0.2,1.6,0.8,3.1,1.7,4.3c1.8,2.7,4.3,4.9,7.2,6.4l2.2,0.9
	h2.8c0.7-0.2,2.4-1,2.8-2.1C25.4,22.1,25.5,21.5,25.5,20.9z"/>
</svg>
