<?xml version="1.0" encoding="UTF-8"?><svg id="Layer_1" xmlns="http://www.w3.org/2000/svg" viewBox="0 0 20 20"><defs><style>.cls-1{fill:#4c4c4d;}</style></defs><path class="cls-1" d="M10.65,1.94C6.2,1.94,2.59,5.55,2.59,10c0,1.12,.23,2.21,.68,3.22l-1.93,3.45s0,.03-.02,.05c0,.02-.02,.05-.02,.07,0,.03,0,.05,0,.08,0,.02,0,.03,0,.05h0c.02,.08,.06,.14,.11,.18,.01,0,.02,.02,.03,.02,.01,0,.02,.02,.03,.03,.06,.03,.12,.05,.17,.05,.03,0,.05,0,.08,0l3.94-.86c1.42,1.12,3.18,1.73,4.98,1.73,4.45,0,8.06-3.62,8.06-8.06S15.09,1.94,10.65,1.94Zm0,15.41c-1.7,0-3.36-.6-4.67-1.68h0c-.08-.06-.19-.1-.3-.07l-3.32,.73,1.63-2.9c.06-.11,.05-.23,0-.33h0l-.03-.06c-.43-.95-.65-1.98-.65-3.03,0-4.05,3.29-7.34,7.34-7.34s7.34,3.29,7.34,7.34-3.29,7.34-7.34,7.34Z"/><path class="cls-1" d="M14.88,11.73c-.06-.09-.16-.14-.31-.22l-.17-.08c-.49-.24-1.16-.57-1.32-.62-.16-.06-.39-.15-.59,.14-.13,.19-.5,.62-.62,.76-.06,.07-.11,.11-.29,.02-.03-.02-.08-.04-.14-.06-.28-.12-.81-.35-1.43-.9-.61-.53-1-1.2-1.08-1.33-.06-.11-.03-.15,.07-.25,.06-.06,.12-.13,.18-.21,.04-.05,.08-.1,.13-.15,.03-.03,.05-.07,.08-.11,.05-.08,.08-.15,.13-.24,.1-.19,.04-.35-.02-.46-.03-.06-.21-.48-.36-.86-.09-.23-.19-.45-.25-.59-.16-.39-.36-.41-.52-.4h-.04c-.05,0-.11,0-.17,0-.07,0-.14-.01-.21-.01-.11,0-.38,.03-.62,.29l-.04,.04c-.21,.22-.69,.73-.69,1.69,0,.22,.04,.45,.11,.71,.69,2.37,3.51,4.93,6.25,4.93,.12,0,.24,0,.36-.01,.38-.03,1.25-.48,1.44-1.02,.16-.45,.19-.9,.11-1.04Z"/></svg>