<?xml version="1.0" encoding="UTF-8"?><svg id="Layer_1" xmlns="http://www.w3.org/2000/svg" viewBox="0 0 20 20"><defs><style>.cls-1{fill:#3d797a;stroke-width:0px;}</style></defs><path class="cls-1" d="m3.67,13.79c-.65-1.21-.98-2.52-.98-3.84-.06-4.1,3.22-7.5,7.32-7.57,1.94,0,3.84.81,5.19,2.19,1.39,1.47,2.15,3.37,2.14,5.38.06,4.1-3.23,7.5-7.33,7.58-1.23,0-2.44-.32-3.51-.92l-3.85,1.02,1.01-3.83Zm3.17,1.68c.96.59,2.05.9,3.17.9,3.5-.06,6.3-2.95,6.25-6.44,0-1.71-.64-3.32-1.82-4.55-1.14-1.2-2.75-1.89-4.41-1.9-3.49.06-6.29,2.95-6.24,6.44,0,1.21.33,2.39.95,3.42l.15.24-.67,2.42,2.42-.65.19.12Zm5.13-1.95c-.24,0-.49-.04-.72-.11l-.12-.04c-.25-.09-.55-.2-.93-.36-1.27-.66-2.35-1.65-3.13-2.85-.43-.57-.68-1.24-.74-1.94,0-.57.22-1.13.62-1.53.12-.13.27-.2.44-.21,0,0,.37,0,.38,0,.12,0,.21.02.31.28l.27.68c.14.35.27.69.3.74.05.09.05.19.01.27-.05.11-.11.21-.18.31-.14.17-.21.26-.27.33-.15.1-.2.32-.09.49.28.5.63.95,1.04,1.35.44.41.95.74,1.51.97.09.04.16.06.23.06.1,0,.18-.04.26-.13.11-.13.47-.56.59-.75.06-.1.11-.11.15-.11.05,0,.11.02.17.04.16.06,1.03.5,1.26.62l.1.05v-.11c.1.1.19.15.22.2.04.27,0,.57-.12.85-.25.44-.69.76-1.19.87-.13.02-.27.03-.41.03Z"/></svg>