<?xml version="1.0" encoding="utf-8"?>
<!-- Generator: Adobe Illustrator 26.0.2, SVG Export Plug-In . SVG Version: 6.00 Build 0)  -->
<svg version="1.1" id="Layer_1" xmlns="http://www.w3.org/2000/svg" xmlns:xlink="http://www.w3.org/1999/xlink" x="0px" y="0px"
	 viewBox="0 0 539.3 532.7" style="enable-background:new 0 0 539.3 532.7;" xml:space="preserve">
<style type="text/css">
	.st0{fill:url(#SVGID_1_);}
	.st1{fill:url(#SVGID_00000157289803655390152600000016261088290416519576_);}
	.st2{fill:url(#SVGID_00000143605518773980187080000014150258476333624227_);}
	.st3{fill:url(#SVGID_00000016046429695946797430000010554545677718686612_);}
	.st4{fill:url(#SVGID_00000020395670672881566960000009749567429842039461_);}
	.st5{fill:url(#SVGID_00000078736122626772620810000005872195118119564167_);}
	.st6{fill:url(#SVGID_00000114048322866725618480000017322166645491533751_);}
	.st7{fill:url(#SVGID_00000072992359770882165420000013387235602960721070_);}
	.st8{fill:url(#SVGID_00000165224773857287816240000007543823801304476545_);}
	.st9{fill:url(#SVGID_00000063622210163030344560000005718976697864892845_);}
	.st10{fill:url(#SVGID_00000121242530877503216000000010270200495473702827_);}
	.st11{fill:url(#SVGID_00000155842689435149263140000017532577343336187275_);}
	.st12{fill:url(#SVGID_00000151530641590371760890000009076531333258700188_);}
	.st13{fill:url(#SVGID_00000066517473166947697170000003737446437200146856_);}
	.st14{fill:url(#SVGID_00000157989518890528511500000000729954428377953687_);}
</style>
<g>
	
		<linearGradient id="SVGID_1_" gradientUnits="userSpaceOnUse" x1="215.5048" y1="402.5077" x2="326.3798" y2="291.6328" gradientTransform="matrix(1 0 0 -1 0 531.8401)">
		<stop  offset="0" style="stop-color:#866633"/>
		<stop  offset="1.712275e-03" style="stop-color:#896835"/>
		<stop  offset="1.460000e-02" style="stop-color:#9A7740"/>
		<stop  offset="3.050000e-02" style="stop-color:#A58147"/>
		<stop  offset="5.300000e-02" style="stop-color:#AC864C"/>
		<stop  offset="0.1154" style="stop-color:#AE884D"/>
		<stop  offset="0.1958" style="stop-color:#B18C51"/>
		<stop  offset="0.2825" style="stop-color:#BA995E"/>
		<stop  offset="0.3722" style="stop-color:#C8AE74"/>
		<stop  offset="0.4634" style="stop-color:#DCCC92"/>
		<stop  offset="0.4973" style="stop-color:#E5D99F"/>
		<stop  offset="0.6477" style="stop-color:#D7C58A"/>
		<stop  offset="0.9563" style="stop-color:#B39055"/>
		<stop  offset="1" style="stop-color:#AE884D"/>
		<stop  offset="1" style="stop-color:#B38F54"/>
		<stop  offset="1" style="stop-color:#E5D99F"/>
		<stop  offset="1" style="stop-color:#CFAD7B"/>
		<stop  offset="1" style="stop-color:#C69C6D"/>
		<stop  offset="1" style="stop-color:#A58150"/>
		<stop  offset="1" style="stop-color:#8E6D3B"/>
		<stop  offset="1" style="stop-color:#866633"/>
	</linearGradient>
	<path class="st0" d="M264.5,143.5C264.5,143.5,264.5,143.5,264.5,143.5L264.5,143.5L264.5,143.5z M255.1,139.3
		C255.1,139.3,255.1,139.3,255.1,139.3L255.1,139.3L255.1,139.3z M263.6,132.8C263.6,132.8,263.6,132.8,263.6,132.8L263.6,132.8z
		 M273.1,142.7l-0.1-0.2c-0.1-0.2-0.9-2-2.5-2.6c-1-0.4-2-0.3-3.2,0.3l-0.1,0.1c-1,0.5-2.5,1.1-3.5-0.1c0,0-0.2-0.2-0.3-0.4
		c0.7,0.3,1.3,0.4,2,0c0.5-0.2,0.9-0.9,1.3-1.4c0,0,0.3-0.4,0.3-0.4c0.3-0.3,0.6-0.4,1.5-0.2l0.8,0.2l-0.5-0.6c-0.9-1-2-1.3-2.9-0.7
		c-0.5,0.2-0.9,0.9-1.2,1.3l-0.3,0.4c-0.5,0.5-1.3,0.3-1.5,0.2c0,0-0.9-0.3-0.9-0.3l0.6,0.7c0.2,0.2,0.4,0.4,0.7,0.6l0,0.5l0,0.2
		c0,0,0,0.6,0.3,1.2l-0.2,0.5l-0.1,0.2c-0.2,0.5-0.3,0.9-0.3,1.3c0,0.6,0.3,1.2,0.8,1.6c0.4,0.3,1.1,0.5,1.8,0.6l0.4,0.1
		c0.4,0.1,0.6,0.4,0.8,1.3l0,0.2l0.1,0.5l0.4-0.7c0.2-0.5,0.3-0.9,0.3-1.3c0-0.6-0.3-1.2-0.8-1.6l0,0l0,0c0,0,0,0,0,0
		c-0.4-0.4-1.1-0.5-1.7-0.6c0,0-0.5-0.1-0.5-0.1c-0.7-0.3-0.8-1.2-0.8-1.4c0,0,0-0.3-0.1-0.6c0.2,0.3,0.5,0.6,0.8,0.8
		c0.9,0.5,2.2,0.4,3.8-0.4c0.3-0.1,2.5-1.1,4.3,0.7l0.1,0.1L273.1,142.7z M264.5,147.4c-0.2-0.5-0.8-0.9-1.3-1.2l-0.4-0.3
		c-0.5-0.5-0.2-1.5-0.2-1.5c0,0,0.2-0.9,0.2-0.9l-0.5,0.5l-0.2,0.2c-0.2,0.2-0.4,0.4-0.6,0.6l-0.5,0l-0.3,0c0,0-0.6,0-1.2,0.4
		l-0.7-0.4c-1.2-0.6-2.3-0.4-2.9,0.5c-0.4,0.4-0.5,1.2-0.7,1.8l-0.1,0.4c-0.2,0.4-0.4,0.6-1.3,0.8l-0.8,0.1l0.7,0.4
		c1.2,0.6,2.3,0.4,3-0.4c0.3-0.4,0.5-1.1,0.6-1.7c0,0,0.1-0.5,0.1-0.5c0.3-0.7,1.3-0.8,1.3-0.8c0,0,0.3,0,0.6-0.1
		c-0.3,0.2-0.6,0.5-0.8,0.8c-0.5,0.9-0.4,2.2,0.4,3.8c0.1,0.2,1.1,2.5-0.7,4.3l-0.1,0.1l0.3,0.4l0.2,0c0,0,1.9-0.8,2.6-2.5
		c0.4-1,0.3-2-0.3-3.2l-0.1-0.1c-0.5-1-1.1-2.5,0.2-3.5l0.2-0.2l0.2-0.1c-0.3,0.6-0.3,1.3,0,2c0.2,0.5,0.8,0.9,1.4,1.3
		c0,0,0.4,0.2,0.4,0.2c0.3,0.3,0.4,0.6,0.2,1.5l-0.2,0.8l0.6-0.5C264.8,149.4,265.1,148.3,264.5,147.4 M253.8,146.1
		c0.5-0.2,0.9-0.8,1.2-1.3l0.1-0.1l0.2-0.3c0.5-0.5,1.4-0.3,1.5-0.2l0.9,0.3l-0.6-0.7c-0.2-0.2-0.4-0.4-0.7-0.6l-0.1-0.7
		c0,0,0-0.6-0.4-1.2l0.4-0.7c0.6-1.2,0.4-2.3-0.5-3c-0.4-0.4-1.2-0.5-1.8-0.6c0,0-0.5-0.1-0.5-0.1c-0.4-0.2-0.6-0.4-0.8-1.3
		l-0.2-0.8l-0.2,0.5l-0.1,0.2c-0.2,0.5-0.3,0.9-0.3,1.3c0,0.6,0.3,1.2,0.8,1.6l0,0c0,0,0,0,0,0c0.4,0.4,1.1,0.5,1.7,0.6
		c0,0,0.1,0,0.1,0l0.4,0.1c0.7,0.3,0.8,1.3,0.8,1.3s0,0.3,0,0.6c-0.2-0.3-0.4-0.6-0.8-0.8c-0.9-0.5-2.2-0.4-3.8,0.4
		c0,0-2.4,1.2-4.3-0.7l-0.1-0.1l-0.1,0.1l-0.3,0.2l0.1,0.1c0.1,0.2,0.8,2,2.5,2.6c1,0.4,2,0.3,3.2-0.3l0.1-0.1
		c0.6-0.3,2.4-1.3,3.5,0.1c0,0,0.2,0.2,0.3,0.4c-0.7-0.3-1.3-0.4-2,0c-0.5,0.2-0.9,0.9-1.3,1.4c0,0-0.3,0.4-0.3,0.4
		c-0.3,0.3-0.6,0.4-1.5,0.2l-0.8-0.1l0.5,0.6C251.8,146.3,252.9,146.6,253.8,146.1 M255.1,135.4c0.2,0.5,0.8,0.9,1.3,1.2l0.4,0.3
		c0.5,0.5,0.2,1.5,0.2,1.6l-0.1,0.3l-0.2,0.7l0.7-0.6c0.2-0.2,0.4-0.4,0.6-0.6l0.7,0c0.2,0,0.7-0.1,1.2-0.4l0.7,0.3
		c1.2,0.6,2.3,0.4,3-0.4c0.3-0.4,0.5-1.2,0.6-1.8c0,0,0.1-0.5,0.1-0.5c0.2-0.4,0.4-0.6,1.3-0.8l0.2-0.1l0.5-0.1l-0.7-0.4
		c-1.2-0.6-2.3-0.4-3,0.5c-0.3,0.4-0.5,1.1-0.6,1.7c0,0,0,0.1,0,0.1l-0.1,0.4c-0.3,0.7-1.3,0.8-1.3,0.8c0,0-0.3,0-0.6,0.1
		c0.3-0.2,0.6-0.4,0.8-0.8c0.5-0.9,0.4-2.2-0.4-3.8c-0.2-0.4-1.1-2.6,0.7-4.3l0.1-0.1l-0.3-0.4l-0.2,0.1c-0.2,0.1-2,0.9-2.6,2.5
		c-0.4,1-0.3,2,0.3,3.2l0.1,0.1c0.5,1,1.1,2.5-0.2,3.5c0,0-0.2,0.1-0.4,0.3c0.3-0.6,0.3-1.4,0-2c-0.2-0.5-0.9-1-1.4-1.3l-0.4-0.3
		c-0.3-0.3-0.4-0.6-0.2-1.5c0,0,0.1-0.8,0.1-0.8l-0.4,0.4l-0.2,0.1C254.9,133.3,254.6,134.4,255.1,135.4 M284.9,144.5
		c-0.7,1-2.3,1.6-3.4,1.9c-3.3,0.7-6.5-0.8-6.8-0.9c-2.3-1-4-1.2-6.3-0.4h0c3.3,2.3,3.6,4.4,3.7,7.5c0.1,1.8-0.3,4.4,0.8,6.1
		c0.5,0.8,1.5,1.4,2.4,1.3c0.1,0,0.2,0,0.3,0c0.4,0,0.6,0.2,0.6,0.5c0.1,0.5-0.3,0.8-0.8,0.9c-1.2,0.2-2.8-0.4-3.8-1
		c-2.8-1.8-4.1-5.2-4.2-5.5c-1-2.3-2-3.7-4.2-4.7c0.7,4-0.5,5.7-2.6,7.9c-1.2,1.3-3.3,2.8-3.7,4.9c-0.2,0.9,0,2,0.8,2.6
		c0.1,0.1,0.2,0.1,0.2,0.2c0.3,0.3,0.2,0.5,0.1,0.8c-0.3,0.4-0.8,0.3-1.2,0.1c-1-0.7-1.6-2.2-1.9-3.4c-0.8-3.3,0.8-6.5,0.9-6.8
		c0.9-2.3,1.2-4.1,0.3-6.3l0,0c-2.3,3.4-4.4,3.6-7.5,3.7c-1.8,0.1-4.4-0.3-6.1,0.8c-0.8,0.5-1.4,1.5-1.3,2.4c0,0.1,0,0.2,0,0.3
		c0,0.2,0,0.3-0.1,0.4c0,0.1-0.1,0.2-0.2,0.3c-1.3,0.9-1,3.4-0.5,4.5c0.9,3,3.4,4.6,6.3,6.3c4,2.2,7,4.4,8.2,7.9l0,0.1
		c0.3,1,0.5,2.2,0.5,3.4c0,1.7-0.3,3.3-0.9,4.6c0,0-0.2,0.5-0.3,0.6l0,0.1c-2.3,4.8-6.1,6.3-8.9,6.7c-2.1,0.3-3.6,0-3.6,0l-0.3,0
		c-1.4-0.2-2.6-0.7-3.4-1.3c-0.1-0.1-0.3-0.3-0.3-0.3c-0.3-0.2-0.5-0.5-0.8-0.7c-1.7-1.8-2.1-4.5-1.9-7c0.3-2.5,1.3-5.1,3-7.1
		c1.1-1.3,2.8-2.8,4.7-3.2c0.2,0,0.3-0.1,0.5-0.1c0.1,0,0.1,0,0.2,0c0.1,0,0.2,0.1,0.4,0.1c0.2,0.2,0.4,0.5,0.2,0.8
		c-0.1,0.1-0.3,0.2-0.5,0.2c-0.8-0.1-1.5,0.2-2.2,0.7c-1.5,1.1-2.3,3.4-2.6,5.1c-0.2,1-0.2,2.1-0.1,3.3c0.5,5.3,4,8.2,7.8,7.8
		c0,0,0.1,0,0.1,0c3.6-0.4,6.3-4.7,5.9-9.6c-0.2-2.1-0.7-3.7-1.7-5c-0.1-0.1-0.5-0.7-0.5-0.7c-1.3-1.7-3-2.9-4.9-4.1l-0.8-0.5
		c-0.8-0.5-1.5-1.1-2.1-1.6l0,0c-2-1.9-2.9-3.8-3.2-5.5c-0.2-1.4-0.2-3,0.1-4.2c0.2-0.7,0.5-1.6,1.1-2.1c0-0.1,0-0.1,0-0.2
		c-0.2-1.2,0.4-2.8,1-3.8c1.8-2.9,5.2-4.1,5.4-4.2c2.3-1,3.7-2.1,4.7-4.2l0,0c-4,0.7-5.7-0.6-7.9-2.7c-1.3-1.3-2.8-3.4-4.8-3.8
		c-0.9-0.2-2,0-2.6,0.8c-0.1,0.1-0.1,0.1-0.2,0.2c-0.3,0.3-0.5,0.2-0.8,0.1c-0.4-0.3-0.3-0.8-0.1-1.1c0.7-1,2.3-1.6,3.4-1.9
		c3.3-0.7,6.5,0.8,6.8,0.9c2.3,0.9,4,1.2,6.3,0.4h0c-3.3-2.3-3.6-4.4-3.7-7.5c-0.1-1.8,0.3-4.4-0.8-6.1c-0.5-0.8-1.5-1.4-2.4-1.3
		c-0.1,0-0.2,0-0.3,0c-0.4,0-0.6-0.2-0.6-0.4c-0.1-0.5,0.3-0.8,0.8-0.9c1.2-0.2,2.8,0.4,3.8,1.1c2.8,1.8,4.1,5.2,4.2,5.4
		c1,2.3,2,3.7,4.2,4.7c-0.7-4,0.5-5.7,2.6-7.9c1.2-1.3,3.3-2.9,3.7-4.9c0.2-0.9,0-2-0.8-2.6c-0.1-0.1-0.2-0.1-0.2-0.2
		c-0.3-0.3-0.2-0.6-0.1-0.8c0.3-0.4,0.8-0.3,1.2-0.1c1,0.7,1.6,2.2,1.9,3.4c0.8,3.3-0.8,6.6-0.9,6.8c-0.9,2.3-1.2,4.1-0.3,6.3v0
		c0,0,0,0,0,0c2.3-3.4,4.4-3.6,7.5-3.7c1.8-0.1,4.4,0.3,6.1-0.8c0.8-0.5,1.4-1.5,1.3-2.4c0-0.1,0-0.2,0-0.3c0-0.4,0.2-0.6,0.5-0.6
		c0.5-0.1,0.8,0.4,0.9,0.8c0.2,1.2-0.4,2.8-1,3.8c-1.8,2.9-5.2,4.1-5.4,4.2c-2.3,1-3.7,2.1-4.7,4.2l0,0c4-0.7,5.7,0.6,7.9,2.7
		c1.3,1.3,2.8,3.4,4.8,3.8c0.9,0.2,2,0,2.6-0.8c0.1-0.1,0.1-0.2,0.2-0.2c0.3-0.3,0.5-0.2,0.8-0.1
		C285.2,143.6,285.1,144.1,284.9,144.5 M334.4,190.9c-0.1,0-0.1,0.1-0.2,0.1c-1.1,0.8-2.5,0.2-3.5-0.4c-2.2-1.3-3.9-3.5-5.2-5.6
		c-0.5-0.7-0.9-1.4-1.3-2.1c2.3-1.4,7.4-5.2,6-9c0,0,0-0.1-0.1-0.1c-0.8-1.4-2.7-2.2-4.9-2.1c0,0-3.8,0-7,0.1h-3.4
		c0.2,2,1.1,13.2-0.3,20.3h3.8v0c-0.3-7.6-0.1-16.7,0-18.5c1.3-0.3,5.6-1.2,7.9,0.1c1,0.6,1.8,2.1,1.2,4v0c0,0.1,0,0.1,0,0.1
		c-0.2,0.7-0.7,1.4-1.3,2.1c-0.7,0.7-1.5,1.4-2.4,1.9c-1,0.6-3.1,1.6-3.3,1.6l0,0c1.9,3,4.6,6.2,7.8,7.9c1.1,0.5,2.3,1,3.6,1.2
		c1,0.1,2.3,0.2,3.1-0.4c0.2-0.2,0.4-0.5,0.3-0.7c0-0.1,0-0.2-0.1-0.3C334.9,190.9,334.7,190.8,334.4,190.9 M374,176.6
		c-0.6-1.8-2.1-4.9-5.2-4.8c-3.4,0-6,2.5-7.9,4.3l0-2.7l0.1-9.3c0,0,0-1.9,0-2h-3.7c0.4,4.6,0.5,9.4,0.5,13.7c0,8-0.5,14.7-0.6,16.3
		h3.6c-0.2-1.9-0.2-3.5-0.2-5c0-4.5,0.5-7,0.8-7.9l0-0.1l0-0.1c0.4-1.2,1-2.3,1.7-3c0.7-0.9,1.5-1.4,2.4-1.6
		c0.4-0.1,0.8-0.1,1.2-0.1c3.2,0.2,5.7,5.3,5.7,11.8v0.3c0,2-0.3,4-0.8,5.7h2.9c0.1-0.9,0.4-4.1,0.4-7.6
		C375,181.5,374.7,178.5,374,176.6 M352.8,187.6c0,0-0.1,0-0.1,0h0c-0.2,0-0.5,0-0.6,0.5c-0.7,2.2-3.9,2.5-5.8,1.9
		c-2.4-0.8-4.3-3.3-4.7-6.3v0c0-0.1,0-0.2,0-0.2c0,0,0,0,0-0.1c-0.1-0.7-0.1-1.4-0.1-1.9v-0.1c0.6-9.5,8.1-9.1,9.9-8.9l0.4-1.2
		c-0.4,0-1.1,0-1.8,0c-1.1,0-1.7,0.1-1.9,0c-0.2-0.1-0.2-0.1,0-0.2c0.8-0.3,3-2,3.5-3.9c-0.1,0.1-0.8,0.6-1.4,1
		c-4.2,2.9-9.5,3.2-12.8,3l-0.3,1.2c4.7-0.4,3.7,1.9,3.2,3.5c-1.2,3.7-1.9,8-1,11.7c0.1,0.4,0.2,0.7,0.3,1.1c0,0,0.1,0.1,0.1,0.2
		c0,0,0.1,0.1,0.1,0.2c0.3,0.7,0.8,1.4,1.4,1.9c0.3,0.3,0.6,0.5,0.8,0.6c2.7,1.7,6.8,0.8,9.4-1.1c0.6-0.4,1.6-1.2,1.8-2
		C353.2,188.1,353,187.8,352.8,187.6 M307.9,192h-3.5l-0.1-6.2c-0.2,0.3-0.3,0.5-0.5,0.8c-1.7,2.4-3.8,4.2-6,5.1
		c-2.4,1-4.9,1-6.8-0.3c-3.6-2.4-3.7-8.5-0.2-13.6c1.9-2.8,4.5-4.7,7-5.4c0.5-0.2,1.1-0.3,1.6-0.3c0,0,2.2-0.3,8.3-0.2
		C307.6,171.8,306.3,184.3,307.9,192 M182.6,184.8c-0.2-0.1-1,0.9-1.1,1.1c-1.9,2.2-4,4.1-7.1,4.1c-4.1,0-6.2-3.8-6.2-7.5
		c0-1.5,0.3-2.9,0.8-4.1c1.8-4,6.2-5.8,10.3-5.3c0,0,0.1,0,0.1,0c0.2,0.2-0.1,0.9-0.2,1.1c-0.1,0.2-0.1,0.4,0.2,0.4h0
		c0.7,0,2.4-1.1,3.2-2.1c0.1-0.2,0.3-0.6,0.3-0.9c0-0.1,0-0.1,0-0.1c0-0.1-0.1-0.1-0.2-0.1H181v0c-3.3,0-4.5,0.2-4.5,0.2
		c-3,0.3-6.4,2.4-8.7,5.8c-3.3,4.9-3.4,10.6-0.4,13.4c0.5,0.5,1.2,0.9,1.8,1.1c2.3,0.9,5.1,0.5,7.4-0.5c1.3-0.5,2.4-1.3,3.6-2
		c0.7-0.5,0.7,0.7,0.8,1c0.2,2.4-0.5,4.7-1.8,6.6c-0.7,1-1.7,2.3-2.9,2.8c-0.5,0.2-1,0.3-1.7,0.1c-0.3-0.1-0.5,0-0.6,0.1
		c-0.1,0.1-0.2,0.3-0.1,0.5c0.1,0.3,0.4,0.5,0.9,0.5c0.4,0,0.8-0.1,1.2-0.2c1.1-0.4,2.2-1.1,3.1-1.9c3.2-2.9,5.2-8,4.6-12.3
		C183.6,185.8,183.2,185,182.6,184.8 M205.9,174c1.2,1.3,1.8,3.2,1.9,5v1.2c-0.1,1.4-0.4,2.8-0.8,3.9c0,0.1-0.3,0.6-0.6,1.3l0,0.1
		c-2.3,4.7-6.1,6.2-8.8,6.6h0c-2.1,0.3-3.6,0-3.6,0l-0.1,0c0,0-0.1,0-0.1,0h-0.1c-1.3-0.2-2.5-0.7-3.4-1.3c-0.1,0-0.3-0.2-0.3-0.2
		c-0.3-0.2-0.5-0.5-0.8-0.7c-1.2-1.3-1.8-3.2-1.9-5v-1.2c0.1-1.4,0.3-2.8,0.8-3.9c0-0.1,0.2-0.6,0.6-1.3l0-0.1
		c2.3-4.7,6.1-6.2,8.8-6.6h0c2.1-0.3,3.6,0,3.6,0l0.1,0c0,0,0.1,0,0.1,0h0.1c1.4,0.2,2.6,0.7,3.4,1.3c0.1,0.1,0.3,0.2,0.3,0.2
		C205.4,173.5,205.6,173.7,205.9,174 M284.5,188.5c0.1,0.2,0.1,0.5,0,0.8c-0.2,0.4-0.7,0.7-1,1c-2,1.4-4.8,2-7.5,2.1
		c-1.4,0-2.8-0.1-4-0.5c-0.4-0.1-0.8-0.2-1.2-0.4c-2-0.8-3.1-2.3-3.7-4.1l0-0.1c-0.2-0.9-0.3-1.8-0.3-2.6v-0.6
		c0.1-5.1,3.4-8.5,3.4-8.5l0.1-0.1c1.7-1.8,3.6-3,5.5-3.6c0.1,0,0.2-0.1,0.3-0.1c0.5-0.1,0.9-0.2,1.4-0.3c0,0,1.5-0.3,6.9,0
		c0.1,0,0.2,0,0.3,0.1c0,0,0,0.1,0,0.2c-0.1,1-1.2,5.8-6.3,8.1l-0.2,0.1c2.7,0,5.2,0.4,6.3,1.8h0c-2.7-0.2-5.8-0.1-8.4,0.2
		c-2.6,0.3-4.8,0.7-5.8,1l-0.1,0c0.1,1.8,0.5,3.3,1.5,4.6c1,1.5,2.7,2.4,4.4,2.9c1.1,0.3,2.2,0.4,3.3,0.2c1.4-0.2,3.7-0.6,4.3-2.1
		c0.2-0.3,0.4-0.4,0.5-0.4C284.3,188.3,284.5,188.4,284.5,188.5 M229.3,174c1.2,1.3,1.8,3.2,1.9,5v1.2c-0.1,1.4-0.4,2.8-0.8,3.9
		c-0.1,0.1-0.3,0.6-0.6,1.3l0,0.1c-2.3,4.7-6.1,6.2-8.8,6.6h0c-2.1,0.3-3.6,0-3.6,0l-0.1,0c0,0-0.1,0-0.1,0H217
		c-1.3-0.2-2.5-0.7-3.4-1.3c-0.1,0-0.3-0.2-0.3-0.2c-0.3-0.2-0.5-0.5-0.8-0.7c-1.2-1.4-1.8-3.2-1.9-5v-1.2c0.1-1.4,0.4-2.8,0.8-3.9
		c0-0.1,0.2-0.6,0.6-1.3l0-0.1c2.3-4.7,6.1-6.2,8.8-6.6h0c2.1-0.3,3.6,0,3.6,0l0.1,0c0,0,0.1,0,0.1,0h0.1c1.4,0.2,2.5,0.7,3.4,1.3
		c0.1,0.1,0.4,0.3,0.4,0.3C228.8,173.5,229.1,173.7,229.3,174 M197.5,173.2L197.5,173.2c-0.3,0-0.6,0-0.9,0v0h-0.1
		c-3.6,0.4-6.3,4.7-5.9,9.5c0.4,4.8,3.4,7.6,6.8,7.7c0,0,0,0,0.1,0c0.3,0,0.6,0,0.9,0v0h0.1c3.6-0.4,6.3-4.6,5.9-9.4
		C203.9,176.3,200.9,173.4,197.5,173.2 M220.9,173.2L220.9,173.2c-0.3,0-0.6,0-0.9,0v0h-0.1c-3.6,0.4-6.3,4.7-5.9,9.5
		c0.4,4.8,3.4,7.6,6.8,7.7c0,0,0,0,0.1,0c0.3,0,0.6,0,0.9,0v0h0.1c3.6-0.4,6.3-4.6,5.9-9.4C227.3,176.3,224.3,173.4,220.9,173.2
		 M299,173.8c-0.5,0-0.9,0-1.3,0.2c-2.5,0.7-4.3,2.9-4.3,2.9c-1.4,1.4-2.3,3.5-2.3,6c0,4.1,2.5,7.4,5.6,7.4c0.3,0,0.6,0,0.9-0.1
		c1.7-0.4,3.1-1.8,4-3.7c2.9-6,2.6-12.6,2.6-12.6L299,173.8L299,173.8z M274.2,180.2c0.5-0.1,1.1-0.3,1.5-0.5c0.1,0,0.2,0,0.3-0.1
		c4.2-1.6,5.3-4.9,5.5-5.9l0.2-0.5c0,0-3.8,0-4.7,0c-0.2,0-0.6,0.1-1,0.2c-0.7,0.2-1.4,0.5-1.9,0.9c-1,0.6-1.7,1.4-2.5,2.7
		c-0.3,0.6-1.1,1.9-1.3,3.9C270.2,180.9,273.8,180.4,274.2,180.2C274.2,180.2,274.2,180.2,274.2,180.2"/>
	
		<linearGradient id="SVGID_00000019645049651490245990000004230627159622661561_" gradientUnits="userSpaceOnUse" x1="81.9666" y1="454.4532" x2="458.9986" y2="77.4212" gradientTransform="matrix(1 0 0 -1 0 531.8401)">
		<stop  offset="0" style="stop-color:#866633"/>
		<stop  offset="1.712275e-03" style="stop-color:#896835"/>
		<stop  offset="1.460000e-02" style="stop-color:#9A7740"/>
		<stop  offset="3.050000e-02" style="stop-color:#A58147"/>
		<stop  offset="5.300000e-02" style="stop-color:#AC864C"/>
		<stop  offset="0.1154" style="stop-color:#AE884D"/>
		<stop  offset="0.1958" style="stop-color:#B18C51"/>
		<stop  offset="0.2825" style="stop-color:#BA995E"/>
		<stop  offset="0.3722" style="stop-color:#C8AE74"/>
		<stop  offset="0.4634" style="stop-color:#DCCC92"/>
		<stop  offset="0.4973" style="stop-color:#E5D99F"/>
		<stop  offset="0.6477" style="stop-color:#D7C58A"/>
		<stop  offset="0.9563" style="stop-color:#B39055"/>
		<stop  offset="1" style="stop-color:#AE884D"/>
		<stop  offset="1" style="stop-color:#B38F54"/>
		<stop  offset="1" style="stop-color:#E5D99F"/>
		<stop  offset="1" style="stop-color:#CFAD7B"/>
		<stop  offset="1" style="stop-color:#C69C6D"/>
		<stop  offset="1" style="stop-color:#A58150"/>
		<stop  offset="1" style="stop-color:#8E6D3B"/>
		<stop  offset="1" style="stop-color:#866633"/>
	</linearGradient>
	<path style="fill:url(#SVGID_00000019645049651490245990000004230627159622661561_);" d="M535.4,287.3l-2.2-0.8
		c-2-0.7-3.9-2-5.3-3.8c-1.3-1.6-2.2-3.6-2.7-6c-0.9-4.9-3.9-8.8-8.2-10.8c4.3-2,7.4-6,8.2-10.8c0.5-2.4,1.4-4.4,2.7-6
		c1.4-1.7,3.2-3,5.3-3.8l2.2-0.8c0.5-0.2,0.8-0.7,0.8-1.2s-0.5-1-1-1.1l-2.3-0.4c-2.1-0.4-4.1-1.4-5.8-2.9c-1.7-1.5-3-3.3-3.7-5.4
		l0,0c-0.9-2.7-2.5-5-4.7-6.7c-1.6-1.2-3.4-2.1-5.4-2.6c1.6-1.1,3-2.5,4.1-4.2c1.1-1.8,2.5-4.6,2.3-7.9c-0.1-4.4,2.4-8.7,6.3-10.9
		l2-1.2c0.5-0.3,0.7-0.8,0.6-1.4c-0.1-0.5-0.6-0.9-1.2-0.9l-2.4,0c-4.5,0-8.7-2.6-10.7-6.5c0,0,0,0,0,0c-2.3-4.3-6.7-7-11.6-7.5
		c1.5-1.4,2.6-3.1,3.3-4.9c1-2.6,1.3-5.4,0.9-8.1c-0.7-4.6,0.9-9.1,4.3-11.9l1.8-1.5c0.4-0.4,0.6-1,0.3-1.5s-0.7-0.8-1.3-0.7
		l-2.3,0.4c-4.3,0.7-8.8-1-11.7-4.6c-1.8-2.2-4.1-3.8-6.7-4.7c-1.9-0.6-3.9-0.9-6-0.7c2.9-3.9,3.7-9.1,2-13.6
		c-1.6-4.1-0.7-9,2.3-12.4l1.5-1.8c0.4-0.4,0.4-1,0.1-1.5s-0.9-0.6-1.4-0.5l-2.2,0.8c-4.2,1.5-9.1,0.5-12.3-2.5c0,0,0,0,0,0
		c-3.7-3.2-8.8-4.4-13.5-3.1c2.2-4.3,2.1-9.4-0.3-13.7c-2.2-4.1-2.2-8.8,0.1-12.6l1.2-2c0.3-0.5,0.2-1.1-0.2-1.5
		c-0.4-0.4-1-0.5-1.5-0.2l-2.1,1.1c-3.8,2.1-8.6,1.9-12.5-0.4c-2.3-1.5-5-2.2-7.8-2.2c0,0-0.1,0-0.1,0c-2,0.1-4,0.5-5.9,1.4
		c0.6-1.9,0.8-4,0.6-6c-0.3-2.9-1.4-5.6-3.2-7.6c-2.8-3.3-3.6-8.2-2-12.4l0.9-2.2c0.2-0.5,0-1.1-0.4-1.4c-0.5-0.3-1.1-0.3-1.5,0
		l-1.9,1.5c-3.5,2.8-8.4,3.5-12.4,1.7c0,0,0,0,0,0c-4.6-1.8-9.7-1.2-13.7,1.4c0.7-4.8-1.1-9.6-4.8-12.9c-1.7-1.5-2.9-3.4-3.7-5.4
		c-0.7-2.1-0.9-4.3-0.4-6.5l0.5-2.3c0.1-0.5-0.2-1.1-0.6-1.3s-1.1-0.1-1.5,0.3l-1.6,1.8c-1.4,1.6-3.3,2.8-5.5,3.4
		c-2.2,0.7-4.5,0.8-6.5,0.3c0,0,0,0,0,0c-2.8-0.6-5.6-0.4-8.2,0.5c-1.9,0.7-3.5,1.8-5,3.2c-0.1-2-0.6-4-1.4-5.8
		c-1.3-2.7-3.2-4.8-5.6-6.1c-3.8-2.2-6.2-6.5-6-11l0.1-2.4c0-0.6-0.3-1.1-0.9-1.2c-0.5-0.2-1.1,0.1-1.4,0.5l-1.3,2
		c-2.4,3.8-6.8,6-11.2,5.7c0,0,0,0,0,0c-4.8-0.2-9.4,2.1-12.3,5.9c-1-4.7-4.3-8.6-8.9-10.4c-4.3-1.8-7.3-5.5-7.8-9.8l-0.3-2.3
		c-0.1-0.6-0.5-1-1.1-1.1c-0.6-0.1-1.1,0.2-1.3,0.8L301.9,4c-1.6,4-5.5,6.9-10.1,7.5c-4.9,0.6-9,3.5-11.2,7.8
		c-1.8-4.4-5.7-7.7-10.5-8.8c-4.3-0.8-8-4-9.3-8.3L260.1,0c-0.2-0.5-0.7-0.9-1.2-0.9c-0.5,0-1,0.4-1.1,0.9l-0.5,2.3
		c-1,4.3-4.5,8-8.6,9.1c-4.7,1.2-8.3,4.9-9.8,9.6c-2.6-4.2-7-6.8-11.8-6.8c-4.3-0.1-8.6-2.8-10.7-6.7l-1.1-2.1
		c-0.2-0.5-0.8-0.8-1.3-0.6c-0.5,0.1-0.9,0.6-1,1.1l-0.1,2.4c-0.2,4.4-3,8.5-7,10.4c0,0,0,0,0,0c-4.4,2.3-7.3,6.4-8,11.2
		c-3.2-3.5-7.9-5.3-12.8-4.7c-2.3,0.2-4.5,0-6.5-0.8c-2.1-0.8-3.9-2.2-5.2-3.9l-1.4-1.9c-0.3-0.4-0.9-0.6-1.4-0.4
		c-0.5,0.2-0.8,0.7-0.8,1.3l0.3,2.4c0.3,2.1-0.1,4.3-1,6.4c-0.9,2.1-2.3,3.9-4,5.1c0,0,0,0,0,0c-2.3,1.7-4.1,3.9-5,6.5
		c-0.7,1.9-1,3.9-0.9,6c-1.5-1.2-3.3-2.2-5.2-2.7c-1.3-0.4-2.7-0.6-4.1-0.6c-1.3,0-2.7,0.2-4.2,0.7c-4.1,1.4-9,0.2-12.3-2.8
		l-1.7-1.6c-0.4-0.4-1-0.4-1.5-0.1c-0.5,0.3-0.7,0.9-0.5,1.4l0.7,2.3c1.3,4.3,0.1,9-3,12.1c0,0,0,0,0,0c-3.4,3.6-4.8,8.6-3.7,13.3
		c-4.2-2.3-9.3-2.5-13.7-0.3c-2.1,1-4.3,1.5-6.4,1.4c-2.2-0.1-4.4-0.8-6.2-2l-2-1.3c-0.5-0.3-1.1-0.3-1.5,0.1
		c-0.4,0.4-0.5,1-0.3,1.5l1,2.1c1,1.9,1.4,4.1,1.2,6.4c-0.1,2.2-0.9,4.4-2.1,6.1c-2.8,3.9-3.3,9-1.5,13.5L91.9,95l0.2,0.3
		c-1.9-0.7-3.9-1-5.9-0.8c-1.5,0.1-2.8,0.4-4.1,0.8c-1.3,0.5-2.5,1.2-3.6,2.1c-3.5,2.7-8.4,3.2-12.5,1.4l-2.1-1
		c-0.5-0.2-1.1-0.1-1.5,0.4c-0.4,0.4-0.4,1,0,1.5l1.4,1.9c2.6,3.6,3,8.5,1.1,12.5c0,0,0,0,0,0c-2,4.5-1.6,9.6,0.9,13.7
		c-4.8-0.9-9.6,0.7-13.1,4.3c-3.1,3.3-7.7,4.7-12,3.6l-2.3-0.6c-0.5-0.1-1.1,0.1-1.4,0.6c-0.3,0.5-0.2,1.1,0.2,1.5l1.7,1.6
		c1.5,1.5,2.6,3.4,3.2,5.6c0.6,2.2,0.6,4.4,0,6.5c-1.4,4.6-0.1,9.6,3.1,13.4c-5,0-9.6,2.4-12.1,6.5c-2.4,3.7-6.8,5.9-11.3,5.5
		l-2.4-0.2c-0.5,0-1.1,0.3-1.2,0.8c-0.2,0.5,0,1.1,0.5,1.4l2,1.3c3.7,2.5,5.7,6.9,5.2,11.4c0,0,0,0,0,0c-0.4,4.9,1.6,9.5,5.3,12.6
		c-4.7,0.8-8.7,3.9-10.8,8.4c-1,2.2-2.4,3.9-4.1,5.1c-1.8,1.3-3.9,2.1-6,2.3L8,219.8c-0.5,0-1,0.5-1.1,1s0.2,1.1,0.7,1.3l2.1,1
		c2,0.9,3.6,2.4,4.9,4.2c1.3,1.9,2.1,4,2.2,6.1l0,0c0.2,2.9,1.2,5.5,2.9,7.7c1.2,1.6,2.7,2.8,4.5,3.8c-1.9,0.7-3.6,1.7-5,3.1
		c-1.5,1.4-3.5,3.8-4.2,7.1c-1,4.3-4.4,7.8-8.7,9L4,264.7c-0.5,0.1-0.9,0.6-0.9,1.2s0.4,1,0.9,1.2l2.3,0.6c4.3,1.2,7.7,4.7,8.7,9
		c0.7,3.3,2.7,5.7,4.2,7.1c1.4,1.3,3.1,2.4,5,3l-0.1,0l0.1,0c-1.7,1-3.2,2.2-4.4,3.8c-1.6,2.2-2.6,4.8-2.9,7.7
		c-0.2,2.1-0.9,4.3-2.3,6.2c-1.2,1.8-2.9,3.3-4.9,4.2l-2.1,1c-0.5,0.2-0.8,0.8-0.7,1.3c0.1,0.5,0.5,1,1.1,1l2.4,0.2
		c2.2,0.2,4.2,1,6,2.3c1.7,1.2,3,2.9,4.1,5.1c2.1,4.5,6.1,7.6,10.8,8.4c-3.7,3-5.7,7.7-5.3,12.6c0.5,4.5-1.6,8.9-5.2,11.4l-2,1.3
		c-0.5,0.3-0.6,0.9-0.5,1.4c0.2,0.5,0.7,0.9,1.2,0.8l2.3-0.2c4.4-0.3,8.9,1.9,11.3,5.5c2.5,4.1,7.1,6.5,12.1,6.5c0,0,0.1,0,0.1,0
		c-3.2,3.7-4.5,8.8-3.1,13.4c0.6,2.1,0.6,4.3,0,6.5c-0.6,2.3-1.7,4.2-3.2,5.6l-1.7,1.7c-0.4,0.4-0.5,1-0.2,1.5
		c0.3,0.5,0.8,0.7,1.4,0.6l2.3-0.6c4.3-1.1,8.9,0.3,12,3.6l0,0c2.9,2.9,6.7,4.5,10.6,4.5c0.9,0,1.7-0.1,2.6-0.2
		c-2.5,4.1-2.9,9.2-0.9,13.8c1.9,4,1.4,8.9-1.1,12.5l-1.4,1.9c-0.3,0.5-0.3,1.1,0,1.5s1,0.6,1.5,0.3l2.1-1c4.1-1.8,9-1.2,12.5,1.4
		c1.1,0.9,2.4,1.5,3.6,2.1c1.2,0.5,2.6,0.7,4,0.8c0.3,0,0.6,0,0.9,0c1.6,0,3.3-0.3,4.8-0.8l-0.1,0.1l0.3-0.2
		c-1.9,4.6-1.4,9.8,1.5,13.7c1.2,1.8,2,3.9,2.1,6.2c0.2,2.2-0.2,4.4-1.2,6.3l-1,2.1c-0.2,0.5-0.1,1.1,0.3,1.5
		c0.2,0.2,0.5,0.3,0.8,0.3c0.2,0,0.5-0.1,0.7-0.2l2-1.3c1.8-1.2,3.9-1.9,6.2-2c2.1-0.1,4.2,0.4,6.4,1.4c4.5,2.2,9.5,2.1,13.7-0.3
		c-1,4.7,0.3,9.7,3.7,13.3c3.1,3.1,4.3,7.8,3,12.1l-0.7,2.3c-0.2,0.5,0,1.1,0.5,1.4c0.2,0.1,0.4,0.2,0.6,0.2c0.3,0,0.6-0.1,0.8-0.3
		l1.7-1.6c3.2-3,8.2-4.2,12.3-2.8h0c1.5,0.5,2.8,0.7,4.2,0.7c1.4,0,2.8-0.2,4.1-0.6c1.9-0.5,3.7-1.5,5.2-2.7c-0.1,2,0.2,4.1,0.9,6
		c0.9,2.5,2.7,4.8,5,6.5c1.7,1.2,3.1,3,4,5.1c0.9,2,1.3,4.2,1,6.3l-0.3,2.3c-0.1,0.5,0.2,1.1,0.8,1.3c0.2,0.1,0.3,0.1,0.5,0.1
		c0.4,0,0.7-0.2,1-0.5l1.4-1.9c1.3-1.7,3.1-3.1,5.2-3.9c2-0.8,4.2-1.1,6.5-0.8c4.9,0.6,9.6-1.2,12.8-4.7c0.6,4.8,3.5,8.9,8,11.2
		c4,1.9,6.7,5.9,7,10.4l0.1,2.4c0,0.5,0.4,1,1,1.1c0.1,0,0.2,0,0.3,0c0.5,0,0.9-0.2,1.1-0.7l1.1-2.1c2-3.9,6.3-6.6,10.6-6.7
		c4.8,0,9.2-2.7,11.8-6.8c1.5,4.7,5.1,8.4,9.8,9.6c4.2,1.2,7.6,4.8,8.6,9.1l0.5,2.3c0.1,0.5,0.6,0.9,1.1,1c0,0,0,0,0,0
		c0.5,0,1-0.3,1.2-0.8l0.7-2.3c1.3-4.2,5-7.5,9.3-8.3c0,0,0,0,0,0c4.8-1.1,8.7-4.4,10.5-8.8c2.2,4.2,6.3,7.2,11.2,7.8
		c4.6,0.7,8.4,3.5,10.1,7.5l0.9,2.2c0.2,0.5,0.6,0.8,1.1,0.8c0,0,0.1,0,0.2,0c0.5-0.1,1-0.5,1.1-1l0.3-2.3c0.6-4.3,3.6-8,7.8-9.8
		c4.6-1.8,7.9-5.7,8.9-10.4c2.9,3.8,7.5,6,12.4,5.8c4.4-0.3,8.8,1.9,11.2,5.7l1.3,2c0.2,0.4,0.6,0.6,1,0.6c0.1,0,0.2,0,0.4,0
		c0.5-0.2,0.9-0.7,0.9-1.2l-0.1-2.3c-0.2-4.5,2.2-8.8,6-11c2.4-1.3,4.3-3.4,5.6-6.1c0.9-1.8,1.3-3.8,1.4-5.8c1.4,1.4,3.1,2.5,5,3.2
		c2.5,1,5.4,1.1,8.2,0.5c2-0.5,4.3-0.3,6.5,0.3c2.1,0.6,4,1.8,5.5,3.5l1.6,1.8c0.2,0.3,0.6,0.4,0.9,0.4c0.2,0,0.4,0,0.5-0.1
		c0.5-0.2,0.8-0.8,0.6-1.3l-0.5-2.3c-0.5-2.1-0.3-4.3,0.4-6.4c0.7-2,2-3.9,3.7-5.4c3.7-3.3,5.5-8.1,4.8-12.9c4,2.6,9.1,3.2,13.7,1.4
		c4-1.8,8.9-1.1,12.4,1.7l1.9,1.5c0.2,0.2,0.5,0.3,0.8,0.3c0.3,0,0.5-0.1,0.7-0.2c0.4-0.3,0.6-0.9,0.4-1.4l-0.9-2.2
		c-1.7-4.2-0.9-9,2-12.4c1.8-2,2.9-4.7,3.2-7.6c0.2-2,0-4.1-0.6-6c1.8,0.8,3.9,1.3,5.9,1.4c0,0,0,0,0.1,0c2.7,0,5.4-0.8,7.7-2.2
		c3.9-2.3,8.7-2.5,12.5-0.4l2.1,1.1c0.5,0.3,1.1,0.2,1.5-0.2c0.4-0.4,0.5-1,0.2-1.5l-1.2-2c-2.3-3.7-2.3-8.4-0.1-12.5
		c2.4-4.3,2.5-9.5,0.3-13.8c1.2,0.3,2.5,0.5,3.8,0.5c3.5,0,7-1.3,9.7-3.7c3.2-3,8-4,12.3-2.5l2.2,0.8c0.5,0.2,1.1,0,1.4-0.5
		c0.3-0.5,0.3-1.1-0.1-1.5l-1.5-1.8c-2.9-3.4-3.8-8.2-2.3-12.4v0c1.7-4.5,0.9-9.7-2-13.6c0.5,0,1,0.1,1.4,0.1c1.6,0,3.2-0.2,4.6-0.7
		c2.6-0.9,4.9-2.5,6.7-4.7c2.9-3.5,7.4-5.3,11.7-4.6l2.3,0.4c0.5,0.1,1.1-0.2,1.3-0.7s0.1-1.1-0.3-1.5l-1.8-1.5
		c-3.3-2.8-5-7.3-4.3-11.8c0.5-2.8,0.2-5.6-0.9-8.1c-0.7-1.8-1.9-3.5-3.4-4.9c4.8-0.4,9.2-3.2,11.6-7.5c2-3.9,6.2-6.5,10.7-6.5
		l2.4,0c0.5,0,1-0.4,1.2-0.9s-0.1-1.1-0.6-1.4l-2-1.2c-3.9-2.2-6.4-6.5-6.3-10.9c0.1-3.4-1.2-6.2-2.3-8c-1.1-1.6-2.5-3.1-4.1-4.2
		c1.9-0.5,3.8-1.4,5.4-2.6c2.1-1.7,3.7-4,4.7-6.7c0.7-2,2-3.9,3.7-5.4c1.6-1.5,3.6-2.5,5.8-2.8l2.3-0.4c0.5-0.1,1-0.5,1-1.1
		C536.2,288,535.9,287.5,535.4,287.3z M505.9,372.5c-4.1,0.5-7.9,2.6-10.7,6c-1.7,2.1-4,3.5-6.5,4c-2.6,0.5-5.3,0-7.7-1.4
		c-0.4-0.2-0.8-0.2-1.1-0.2c-2-2.8-2.8-6.4-1.8-9.7v0c1.1-4.1,0.1-8.5-2.5-11.8l0.4,0.1l-0.6-0.5c0.2,0,0.3,0,0.5,0
		c1.8,0,3.6-0.4,5.2-1.1c2.2-1,4.2-2.7,5.5-4.8c2.2-3.3,5.8-5.2,9.4-5c2.6,0.9,4.7,2.7,6.1,4.9c1.3,2.2,1.8,5,1.4,7.6
		C502.7,364.8,503.6,369.1,505.9,372.5z M457,436.2c-0.4,1.3-0.6,2.5-0.7,3.6c-0.1,1.7,0.1,3.4,0.5,5c-4-0.8-8.4-0.1-12.1,2.1
		c-2.3,1.4-5,2-7.5,1.6c-2.5-0.4-4.9-1.8-6.7-3.7c-1.6-3.5-1.2-7.5,1-10.5c1.5-2,2.3-4.4,2.3-7.1c0-1.8-0.3-3.5-1-5.1l0.1,0.1
		l-0.1-0.1c1.4,0.5,2.9,0.8,4.5,0.8c0.3,0,0.5,0,0.8,0c2.5-0.2,4.8-1.1,6.8-2.7c3.2-2.4,7.3-2.9,10.8-1.4c1.9,1.7,3.3,4,3.8,6.3
		c0.5,2.6,0.1,5.3-1.2,7.6C457.8,433.8,457.3,435,457,436.2z M424,473.9c-4-1.6-8.4-1.6-12.3,0.1c-5,2-10.8,0.1-13.7-4.6
		c-0.5-1.7-0.5-3.5,0-5.2c0.5-1.8,1.5-3.5,2.9-5c3.3-3.3,4.5-7.9,3.3-12.2l0.8,0.7l-0.2-0.6c3.8,1.9,8.2,2,12.2,0.1
		c3-1.6,6.6-1.6,9.7-0.3c0.1,0.3,0.2,0.7,0.4,0.9c1.8,2,2.8,4.6,2.9,7.2c0.1,2.8-0.8,5.4-2.4,7.3C424.9,465.3,423.6,469.7,424,473.9
		z M322.9,500.3c0-0.1-0.1-0.3-0.2-0.4c0.5-3.4,2.8-6.5,6.2-8.3c4.2-2,6.9-5.8,7.4-10.1l0.3,0.4l0-0.4c2.9,3,7.2,4.5,11.5,4
		c3.5-0.5,7.1,0.7,9.5,3.2c0,0.3,0,0.7,0.1,1c1,2.5,1.1,5.3,0.3,7.8c-0.8,2.7-2.5,4.8-4.7,6c-3.6,2.1-6.2,5.7-7.3,9.9
		c-3.2-2.9-7.4-4.3-11.6-4C328.8,509.7,324,505.8,322.9,500.3z M111.4,461.2c-3.9-2-8.2-2.3-12.2-1.1c0.3-1.6,0.3-3.3,0-5
		c-0.3-2.5-1.2-5-2.7-7c-3.1-4.3-2.4-10.5,1.7-14.4c0.2-0.2,0.3-0.5,0.5-0.7c3.2-1.3,7-1,9.9,0.8c1.1,0.7,2.2,1.2,3.4,1.6
		c1.1,0.3,2.4,0.4,3.7,0.4c1.6,0,3.2-0.4,4.7-1l-0.4,0.8l0.9-0.6c-1.5,4.3-0.7,9,2.3,12.4c1.2,1.5,2,3.2,2.3,5.2
		c0.3,1.9,0.1,3.9-0.6,5.6l0,0C121.8,462.3,116.2,463.6,111.4,461.2z M29.6,340.4c-0.4-5.5,3.2-10.5,8.5-11.8c0.1,0,0.2-0.1,0.3-0.1
		c1.6,0.1,3.2,0.6,4.6,1.6c1.5,1,2.8,2.4,3.9,4.3c2.2,4.1,6.2,6.6,10.6,6.9l-0.6,0.4l0.3,0c-2.8,3-4.1,7.2-3.4,11.5
		c0.6,3.5-0.4,7.1-2.7,9.6c-0.3,0-0.6,0-0.9,0.1c-2.5,1.1-5.2,1.4-7.8,0.7c-2.5-0.6-4.8-2.2-6.2-4.5c-2.3-3.5-6-6-10.2-6.9
		C28.7,348.9,30,344.6,29.6,340.4z M26.1,179.7c4.1-0.9,7.9-3.4,10.2-6.9c1.4-2.2,3.6-3.8,6.2-4.5c2.5-0.7,5.3-0.4,7.8,0.7
		c0.3,0.1,0.7,0.2,1.1,0.1c0.9,1,1.6,2.2,2.1,3.6c0.7,1.9,0.9,3.9,0.5,5.9c-0.8,4.2,0.5,8.6,3.5,11.7l-0.5,0l0.4,0.3
		c-4.5,0.4-8.4,2.9-10.4,6.9c-1.8,3.4-5.2,5.6-8.9,5.8c-5.3-1.4-8.9-6.4-8.5-11.8C30,187.3,28.7,183,26.1,179.7z M99.3,76.8
		c0.2-1.7,0.2-3.4,0-5c4,1.2,8.3,0.9,12.2-1.1c4.9-2.4,10.5-1.1,13.9,3.2c1.3,3.6,0.6,7.6-1.9,10.4l0,0c-3,3.7-3.7,8.4-2.2,12.7
		l-1.1-0.7l0.3,0.5c-3.8-1.5-8-1.1-11.6,1c-1.8,1.1-3.6,1.6-5.5,1.7c-1.6,0.1-3.1-0.2-4.6-0.8c-0.1-0.2-0.2-0.4-0.4-0.6
		c-4.1-3.9-4.8-10.1-1.7-14.4C98,81.7,99,79.3,99.3,76.8z M201.9,35.4c-1.6-5.3,0.7-10.9,5.5-13.4c3.8-1.8,6.8-5.1,8.2-9.1
		c3,3.1,7.1,5,11.2,5.1c1.3,0,2.7,0.3,3.9,0.8c1.1,0.5,2.2,1.2,3.2,2.2c1.9,1.8,3.2,4.3,3.5,7c0,0.1,0.1,0.2,0.1,0.3
		c-0.8,3.5-3.5,6.5-6.8,7.7c-4.2,1.5-7.3,5.1-8.3,9.5c0,0,0,0,0,0l-0.2-0.4l0,0.1c-2.7-3.3-6.8-5.1-11-4.8c-3.5,0.2-7-1.4-9.3-4
		C201.9,36,202,35.7,201.9,35.4z M334.3,22.5c4.2,0.3,8.4-1.2,11.6-4c1.1,4.1,3.8,7.8,7.4,9.9c2.2,1.2,3.9,3.4,4.7,6
		c0.8,2.5,0.7,5.3-0.3,7.8c-0.1,0.3-0.1,0.7-0.1,1c-1,1-2.3,1.8-3.7,2.3c-2,0.8-4,1-5.9,0.8h0c-2.6-0.3-5.2,0-7.4,1.1
		c-1.5,0.7-2.9,1.7-4.1,2.9l0-0.4l-0.2,0.3c-0.2-1.8-0.8-3.6-1.8-5.1c-1.4-2.3-3.3-4-5.6-5c-3.4-1.5-5.7-4.8-6.2-8.4
		c0-0.1,0-0.1,0.1-0.1C324,26,328.9,22.3,334.3,22.5z M427.6,69.7c1.7,1.9,2.5,4.5,2.4,7.3c-0.1,2.6-1.1,5.2-2.9,7.2
		c-0.2,0.3-0.3,0.6-0.4,0.9c-3,1.3-6.6,1.2-9.7-0.3c-2.3-1.1-4.8-1.6-7.3-1.4c-1.7,0.2-3.3,0.7-4.8,1.5l0.3-0.7l-0.8,0.6
		c0.5-1.9,0.5-3.8,0.2-5.7c-0.5-2.6-1.7-4.9-3.5-6.5c-2.7-2.6-3.8-6.7-2.8-10.4c3-4.5,8.6-6.4,13.5-4.4c3.9,1.7,8.3,1.7,12.3,0.1
		C423.6,62.2,424.9,66.5,427.6,69.7z M456.8,87c-0.4,1.6-0.6,3.3-0.5,5c0.1,1.2,0.3,2.4,0.7,3.6c0.3,1.2,0.8,2.4,1.4,3.5
		c1.3,2.3,1.7,5,1.2,7.6c-0.5,2.4-1.8,4.6-3.8,6.3c-3.5,1.5-7.7,1-10.6-1.4l0,0c-3.5-2.7-8.1-3.3-12.2-1.9c0,0,0,0,0-0.1l0-0.1l0,0
		c1.6-4,1.1-8.4-1.4-12.1c-2.2-3.3-2.6-7.3-1-10.6c1.8-1.9,4.1-3.2,6.6-3.6c2.6-0.4,5.2,0.1,7.5,1.6C448.5,87.1,452.8,87.8,456.8,87
		z M503.4,171.4c0.5,2.6,0,5.3-1.4,7.6c-1.3,2.2-3.5,4-6.1,4.9c-3.7,0.1-7.4-1.8-9.3-5l0,0c-2.5-3.9-6.8-6.1-11.3-5.9l0.6-0.5
		l-0.3,0.1c1-1.3,1.9-2.8,2.3-4.3c0.7-2.4,0.8-5,0.2-7.5c-0.8-3.5-0.1-7.1,1.8-9.7c0.4,0,0.7,0,1.1-0.2c2.4-1.3,5.1-1.8,7.7-1.4
		c2.6,0.5,4.9,1.9,6.6,4c2.8,3.4,6.6,5.5,10.7,6C503.6,162.8,502.7,167,503.4,171.4z M492.4,344.8c-3.5,0.8-6.7,3-8.8,6.3
		c-1.3,2-3.2,3.4-5.4,4c-2.2,0.6-4.6,0.4-6.8-0.6c-0.4-0.2-0.9-0.2-1.3-0.1c-2-2.3-3-5.5-2.5-8.8c0.4-2.3,0.2-4.7-0.7-6.8
		c-0.6-1.5-1.5-2.8-2.7-4c4.1-0.3,7.8-2.6,9.7-6.4c1.5-2.9,4.3-4.9,7.5-5.2c0.1,0.1,0.2,0.2,0.4,0.2c2.3,0.6,4.3,2,5.7,3.9
		c1.3,1.9,2,4.3,1.8,6.8C489.1,338.1,490.2,341.8,492.4,344.8z M469,358.5c2.2,1,3.9,2.7,4.9,4.9c1.1,2.3,1.3,4.8,0.7,6.9
		c-1,3.6-0.5,7.6,1.3,11c-3.8,0.2-7.3,1.9-9.8,4.7c-3.3,3.5-8.6,4.1-12.6,1.2c-0.4-0.3-0.8-0.4-1.3-0.3c-1.6-2.6-2-6-0.9-8.8v0
		c1.4-3.8,0.7-8.1-1.7-11.4c0.5,0.1,1.1,0.1,1.6,0.1c1.3,0,2.6-0.2,3.8-0.6c2.1-0.8,4-2.1,5.5-4c2.1-2.6,5.2-4,8.2-3.8
		C468.8,358.4,468.9,358.4,469,358.5z M453.4,414.5c-3.6-0.4-7.4,0.6-10.4,2.9c-1.9,1.4-4.2,2.1-6.4,2c-2.3-0.2-4.5-1.2-6.3-2.9
		c-0.3-0.2-0.6-0.4-0.9-0.5c-1.4-2.8-1.3-6.2,0.3-9.2c2-3.6,2.1-7.8,0.2-11.4c1.2,0.4,2.4,0.6,3.7,0.6c2.9,0,5.8-1.1,8-3.1
		c2.2-2.1,5.5-3,8.5-2.3c0.1,0.1,0.2,0.2,0.3,0.3c2,1.4,3.5,3.4,4.1,5.7c0.6,2.3,0.5,4.7-0.5,6.9c-0.5,1-0.8,2.2-1,3.3
		c-0.2,1.2-0.3,2.3-0.3,3.4C452.7,411.6,452.9,413.1,453.4,414.5z M426.3,442.8c-3.7-1.1-7.7-0.7-11,1c-4.4,2.2-9.8,0.8-12.7-3.1
		c-0.1-0.1-0.2-0.2-0.4-0.3c-0.8-3-0.1-6.2,2-8.6c1.5-1.7,2.4-3.8,2.7-6.3c0.2-1.9-0.1-3.7-0.7-5.5c1.5,0.7,3.2,1.1,4.9,1.2
		c0,0,0,0,0.1,0c2.2,0,4.5-0.6,6.4-1.8c2.8-1.7,6.2-1.9,9.1-0.7c0.1,0.3,0.2,0.7,0.5,0.9c1.8,1.7,2.9,3.8,3.2,6.1
		c0.3,2.4-0.3,4.7-1.6,6.5C426.6,435.2,425.7,439.1,426.3,442.8z M370.8,460.4c-0.1-1.3,0-2.7,0.5-4c0.6-1.6,1.6-3.1,3-4.2
		c3.3-2.8,4.8-7,4-11.1c3.4,2.2,7.7,2.7,11.6,1.2c2.8-1.2,6.1-1,8.8,0.5c-0.1,0.5,0.1,0.9,0.3,1.3c3,3.9,2.7,9.1-0.7,12.6
		c-1.6,1.7-2.8,3.6-3.5,5.7c-0.5,1.4-0.7,2.8-0.7,4.3c-1.3-0.6-2.8-1.1-4.2-1.3c-2.4-0.4-4.8-0.2-6.8,0.4c-2.4,0.7-4.8,0.6-6.9-0.3
		c-2.2-1-4-2.7-5.1-4.8C370.9,460.6,370.8,460.5,370.8,460.4z M332.4,476.9c0.7,2.3,0.6,4.7-0.3,6.7c-0.9,2.1-2.6,3.8-4.8,4.9
		c-3.5,1.8-6.1,4.6-7.4,8c-2.6-2.6-6.2-4.1-10.2-4.3c-4.9-0.2-9-3.8-9.6-8.6c0-0.2-0.1-0.4-0.2-0.5c0.7-3,3-5.5,6.2-6.8
		c4-1.5,6.7-4.7,7.6-8.6c2.4,3,6.2,4.7,10.3,4.6c3.2-0.2,6.4,1.2,8.4,3.6C332.3,476.2,332.3,476.5,332.4,476.9z M186,468.6
		c-0.9,2.2-2.6,4-4.7,5.1c-2.2,1.2-4.6,1.5-6.9,1c-3.6-0.9-7.6-0.2-11,1.8c-0.3-3.8-2.2-7.2-5.1-9.5c-3.7-3.2-4.4-8.5-1.8-12.6
		c0.2-0.4,0.3-0.8,0.2-1.2c2.6-1.7,6-2.3,8.8-1.3h0c1.2,0.4,2.4,0.6,3.5,0.6c1.2,0,2.3-0.2,3.4-0.5c1.6-0.4,3.1-1.2,4.4-2.2
		c-0.2,1.8,0.1,3.6,0.7,5.3c0.8,2.1,2.3,3.9,4.3,5.3c1.4,1,2.5,2.4,3.3,4c0.6,1.3,0.9,2.6,0.9,4C186.2,468.4,186.1,468.5,186,468.6z
		 M126.5,432.4c0.3-0.3,0.4-0.7,0.4-1.1c1.1-0.5,2.4-0.8,3.7-0.9c1.7,0,3.4,0.3,5.2,1.1c3.8,1.8,8.1,1.7,11.7-0.3
		c-1.1,4,0,8.4,3,11.5c2.2,2.1,3.2,5.3,2.7,8.3c-0.1,0.1-0.2,0.2-0.3,0.3c-2.6,4.2-7.7,5.9-12.4,4.1c-3.7-1.4-7.6-1.5-11-0.1
		c0.1-1.4,0-2.8-0.4-4.2c-0.5-2.3-1.5-4.3-3-6.1C123,441.5,123.2,436.1,126.5,432.4z M123.1,428.8c-1.6,1.8-3.7,3-6,3.4
		c-1.2,0.2-2.3,0.2-3.4,0c-1.1-0.2-2.2-0.7-3.2-1.3c-3-2-7-2.6-10.6-1.9c0.9-3.6,0.4-7.5-1.5-10.7c-2.3-4.2-1.2-9.5,2.5-12.5
		c0.1-0.1,0.2-0.2,0.2-0.3c3-0.9,6.3-0.3,8.7,1.6c0.9,0.7,1.9,1.3,3,1.7c1,0.4,2.1,0.6,3.3,0.7c0.2,0,0.5,0,0.7,0
		c1.3,0,2.7-0.2,4-0.7c-1.5,3.7-1,7.9,1.3,11.1c1,1.4,1.6,3.1,1.7,4.9c0.1,1.3,0,2.5-0.4,3.7C123.4,428.5,123.3,428.6,123.1,428.8z
		 M97.5,402.2c-3.7,3.1-9.1,3.1-12.6-0.1c-2.8-2.6-6.4-3.9-10.1-3.8c0.5-1.3,0.9-2.7,1.1-4.3c0.3-2.3,0-4.7-0.7-6.8
		c-1.7-4.5,0.3-9.7,4.6-12.2c0.1,0,0.1-0.1,0.2-0.2c3.1-0.5,6.2,0.6,8.5,3.1l0,0c2.4,2.5,5.5,3.8,8.7,3.8c0.9,0,1.7-0.1,2.6-0.3
		c-2.1,3.5-2.4,7.8-0.8,11.6c1.3,2.8,1.2,6.1-0.1,8.8C98.4,401.8,97.9,401.9,97.5,402.2z M76.9,371.1c-2.1,1.2-4.4,1.6-6.7,1.2
		c-2.2-0.4-4.3-1.6-5.7-3.5c-2.2-2.9-5.7-4.9-9.4-5.5c2.1-3.2,2.9-7.1,2.2-10.9c-0.8-4.9,2-9.6,6.6-11.3c0.1,0,0.1-0.1,0.2-0.1
		c3.2,0,6.2,1.7,8,4.5c2.1,3.5,5.9,5.5,9.9,5.5c0.1,0,0.3,0,0.4,0c-2.6,3.1-3.6,7.3-2.5,11.2c0.5,1.7,0.4,3.5,0,5.3
		c-0.4,1.4-1,2.5-1.7,3.5C77.8,370.9,77.3,370.9,76.9,371.1z M63.9,190.5c-4.7-1.7-7.5-6.5-6.5-11.2c0.4-2.2,0.3-4.6-0.4-6.9
		c-0.4-1.5-1-2.8-1.8-4c3.6-0.5,7-2.5,9.3-5.5c3-3.8,8.2-4.8,12.4-2.4c0.4,0.2,0.7,0.2,1.1,0.2c0.8,1,1.4,2.2,1.8,3.6
		c0.5,1.8,0.5,3.6,0,5.3c-1.1,3.9-0.1,8.1,2.5,11.2c-4.2-0.1-8.2,1.9-10.3,5.5c-1.7,2.7-4.6,4.4-7.7,4.5
		C64.2,190.7,64.1,190.6,63.9,190.5z M74.8,133.4c3.7,0.1,7.5-1.3,10.2-3.8c0.9-0.8,1.9-1.4,2.9-1.9c1-0.4,2.2-0.6,3.4-0.6
		c0,0,0,0,0,0c2.3,0,4.6,0.8,6.4,2.4c0.3,0.3,0.7,0.4,1.1,0.4c1.4,2.7,1.5,6.1,0.2,8.9l0,0c-1.7,3.8-1.4,8.1,0.8,11.6
		c-4.1-0.9-8.3,0.3-11.3,3.5c-2.1,2.4-5.2,3.5-8.2,3.1c-0.1-0.1-0.3-0.3-0.4-0.4c-4.2-2.4-6.2-7.6-4.6-12.2
		C76.5,140.9,76.3,136.9,74.8,133.4z M100,102.9c3.6,0.7,7.3,0.1,10.6-1.9c4.2-2.5,9.3-1.7,12.6,2c0.1,0.1,0.2,0.2,0.4,0.3
		c0.4,1.2,0.6,2.6,0.5,4c-0.1,1.8-0.7,3.4-1.7,4.8c-2.3,3.2-2.8,7.4-1.3,11.1c-1.5-0.5-3.1-0.8-4.7-0.7c-1.2,0.1-2.3,0.3-3.3,0.7
		c-1.1,0.4-2.1,1-3,1.7c-2.4,1.9-5.5,2.4-8.4,1.6c-0.1-0.2-0.2-0.4-0.4-0.5c-3.9-3.1-5-8.4-2.5-12.5c1.1-1.9,1.7-4.2,1.8-6.4
		C100.5,105.7,100.3,104.2,100,102.9z M129.5,76.3c3.6,1.4,7.7,1.4,11.1-0.1c2.1-0.9,4.6-1,6.9-0.2c2.2,0.8,4.2,2.3,5.5,4.3
		c0,0.1,0.1,0.1,0.2,0.2c0.6,3.1-0.4,6.4-2.7,8.6l0,0c-3,3.1-4.1,7.4-3,11.5c-3.5-2-7.9-2.1-11.7-0.3c-1.7,0.8-3.5,1.2-5.2,1.1
		c-1.3-0.1-2.5-0.4-3.6-0.8c0,0,0,0,0,0c0-0.5-0.1-0.9-0.5-1.3c-3.3-3.6-3.5-9-0.5-12.7C128.6,83.8,129.8,80.1,129.5,76.3z
		 M162.5,59.5c0.6-1.3,1-2.7,1.1-4.1c1.3,0.8,2.7,1.3,4.1,1.6c2.1,0.5,4.4,0.5,6.8,0.1c4.9-1,9.7,1.5,11.5,6.1
		c0,0.1,0.1,0.1,0.2,0.2c0.1,1.4-0.2,2.9-0.9,4.2c-0.7,1.6-1.9,3-3.3,4l0,0c-2,1.4-3.5,3.2-4.3,5.3c-0.6,1.7-0.9,3.5-0.7,5.3
		c-1.3-1-2.8-1.8-4.4-2.2c-1.1-0.3-2.3-0.5-3.5-0.5c-1.1,0-2.3,0.2-3.5,0.6c-2.9,0.9-6.2,0.4-8.8-1.3c0,0,0,0,0,0
		c0.1-0.5,0-0.9-0.2-1.3c-1.3-2-1.8-4.4-1.5-6.7c0.3-2.2,1.4-4.2,3.3-5.8C160.2,63.5,161.6,61.6,162.5,59.5z M190.1,60.9
		c-1.9-4.4-0.2-9.5,3.9-12c3.3-1.8,5.8-4.9,6.8-8.6c3,2.4,6.8,3.8,10.5,3.6c1.2-0.1,2.4,0.1,3.5,0.4c1,0.3,2.1,0.9,3.1,1.6
		c1.9,1.4,3.2,3.5,3.7,5.8c0,0.1,0.1,0.2,0.1,0.3c-0.4,3.2-2.5,6-5.6,7.4l0,0c-3.8,1.9-6.3,5.4-6.8,9.4c-2.7-2.8-6.6-4.2-10.6-3.7
		c-1.9,0.2-3.7,0-5.3-0.6c-1.3-0.5-2.4-1.2-3.4-2.2C190.3,61.8,190.3,61.3,190.1,60.9z M225.9,50.4c-0.5-2.3-0.2-4.7,0.9-6.7
		c1-2,2.9-3.6,5.1-4.4c3.5-1.3,6.5-4,8.1-7.4c2.5,2.9,6,4.8,9.8,5.1c4.9,0.6,8.6,4.6,8.8,9.4c0,0.2,0.1,0.3,0.1,0.5
		c-1,3.1-3.6,5.6-6.8,6.5c-3.9,1-7,4-8.3,7.8c-2.2-3.3-5.9-5.3-9.8-5.4c-3.2-0.1-6.3-1.8-8.1-4.4C225.9,51.1,226,50.8,225.9,50.4z
		 M371.1,71.1c2.2-4.4,7.3-6.5,12-5.1c3.6,1.2,7.6,0.9,11.1-0.8c0.1,3.8,1.6,7.5,4.2,10c1.6,1.5,2.6,3.7,2.7,6.1
		c0.1,2.3-0.6,4.6-2.1,6.5c-0.3,0.4-0.4,0.8-0.3,1.2c-2.7,1.5-6,1.8-8.9,0.6l0,0c-3.9-1.5-8.2-1-11.5,1.2c0.8-4.1-0.7-8.2-4-11.1
		c-1.3-1.2-2.4-2.7-3-4.2c-0.5-1.3-0.6-2.6-0.5-4C370.9,71.4,371,71.2,371.1,71.1z M426.3,93.3c0.2,1,0.4,2.1,0.9,3.2
		c0.4,1.1,0.9,2.1,1.6,3c1.3,1.9,1.9,4.2,1.7,6.5c-0.2,2.2-1.4,4.4-3.2,6.1c-0.2,0.2-0.4,0.6-0.5,0.9c-2.9,1.3-6.4,1.1-9.2-0.6
		c-2-1.2-4.1-1.9-6.5-1.9c-1.7,0.1-3.4,0.4-4.9,1.2c0.7-1.8,0.9-3.6,0.7-5.5c-0.3-2.4-1.2-4.6-2.7-6.3c-2-2.3-2.7-5.5-2-8.5
		c0.2-0.1,0.3-0.2,0.5-0.4c1.5-1.9,3.5-3.3,5.8-3.9c2.3-0.6,4.7-0.3,6.9,0.8c3.5,1.7,7.4,2,11,1C426.1,90.4,426.1,91.9,426.3,93.3z
		 M454.1,128.4c1,2,1.1,4.5,0.4,6.9c-0.7,2.3-2.1,4.3-4.1,5.6c-0.1,0.1-0.2,0.2-0.3,0.3c-3,0.7-6.3-0.1-8.6-2.3l0,0
		c-3.1-2.9-7.6-3.8-11.6-2.5c1.8-3.6,1.8-7.8-0.2-11.4c-1.6-3-1.7-6.4-0.3-9.2c0.4,0,0.7-0.2,1-0.5c3.5-3.5,8.9-3.9,12.7-1
		c2.9,2.3,6.7,3.4,10.5,2.9C452.3,121,452.5,125,454.1,128.4z M474.7,161.6c0.6,2.3,0.4,4.8-0.6,6.9c-1,2.1-2.8,3.8-5,4.9
		c-0.1,0.1-0.2,0.2-0.3,0.2c-3.1,0.2-6.1-1.2-8.2-3.8c-1.4-1.9-3.3-3.2-5.5-4c-1.7-0.6-3.5-0.7-5.4-0.5c2.4-3.3,3-7.6,1.7-11.5
		c-1.1-2.9-0.7-6.2,0.9-8.9c0,0,0,0,0,0c0.5,0.1,1,0,1.3-0.3c2-1.4,4.3-2,6.6-1.8c2.3,0.2,4.4,1.3,6,3.1c2.7,2.8,6.2,4.4,9.8,4.6
		C474.2,153.8,473.8,157.7,474.7,161.6z M489.4,197.8c0.3,2.2-0.4,4.6-1.8,6.7c-1.4,1.9-3.4,3.3-5.6,3.9c-0.1,0-0.2,0.1-0.4,0.2
		c-3.2-0.3-6-2.3-7.5-5.2l0,0c-2-3.7-5.6-6.1-9.7-6.4c1.2-1.2,2.1-2.5,2.6-4c0.9-2.1,1.1-4.5,0.7-6.8c-0.5-3.3,0.5-6.5,2.5-8.8
		c0.4,0.1,0.9,0.1,1.3-0.1c4.4-2.1,9.6-0.7,12.2,3.4c2,3.2,5.2,5.5,8.9,6.4C490.2,190.1,489,194.1,489.4,197.8z M127.4,423.7
		c-0.3-2.1-1-4.1-2.2-5.8c-2.5-3.4-1.9-8.3,1.4-11.3c0.3-0.3,0.5-0.8,0.5-1.2c0-0.1,0-0.3-0.1-0.4l0.5-0.3c2.7-1.5,6.2-1.4,8.8,0.3
		c0.9,0.6,1.9,1,2.9,1.3c0.9,0.3,2,0.4,3.1,0.4c1.5,0,3-0.4,4.3-1c-1.4,3.7-0.7,7.7,1.8,10.6c1,1.2,1.6,2.6,1.9,4.2
		c0.3,1.5,0.1,3.1-0.5,4.5l-0.1,0.1c-0.4,0.1-0.8,0.3-1,0.6c-2.7,3.5-7.5,4.7-11.4,2.8c-3.2-1.5-6.7-1.9-9.9-1
		C127.6,426.2,127.6,424.9,127.4,423.7z M102.6,130.2c3.4,0.3,6.8-0.6,9.4-2.7c0.8-0.6,1.8-1.1,2.7-1.4c1-0.3,2-0.4,3-0.3
		c2.1,0.2,4.1,1.1,5.6,2.6c0.3,0.3,0.8,0.5,1.2,0.5c0.1,0,0.2,0,0.3-0.1l0.3,0.5c0.8,1.3,1.2,2.8,1.2,4.4c0,1.6-0.3,3.1-1.1,4.4
		c-1.8,3.1-1.9,7-0.3,10.3c-1.6-0.5-3.3-0.7-4.9-0.4c-1.1,0.2-2.1,0.5-3,0.9c-1,0.5-1.8,1.1-2.6,1.8c-2.2,2.1-5.7,2.8-8.6,1.8
		l-0.1,0c-0.1-0.4-0.3-0.8-0.7-1c-3.6-2.5-5-7.3-3.2-11.3C103.5,137.1,103.7,133.5,102.6,130.2z M372,82.3c3.4,2.9,4,7.5,1.6,11.2
		c-0.2,0.4-0.3,0.9-0.2,1.3c0,0.2,0.1,0.4,0.3,0.6l-0.2,0.1c-2.4,2.2-5.9,2.9-8.9,1.9l0,0c-3.6-1-7.3-0.3-10.2,1.8
		c0.3-3.7-1.4-7.2-4.5-9.5c-1.3-1-2.3-2.2-3-3.5c-0.7-1.4-0.9-2.9-0.7-4.4l0-0.2c0.4-0.2,0.7-0.5,0.8-0.9c0.8-2,2.3-3.6,4.2-4.6
		c1.8-1,4-1.3,6.2-0.8c2,0.4,4.1,0.4,6.3-0.1c1.3-0.3,2.5-0.8,3.7-1.4c0.2,1.3,0.5,2.5,1,3.7C369.1,79.2,370.3,80.9,372,82.3z
		 M469.8,267.5c0.3,0.3,0.8,0.5,1.2,0.5c4.3,0,7.9,3.2,8.6,7.6c0.6,3.5,2.3,6.6,4.9,8.7c-1.1,0.6-2.1,1.4-3,2.4
		c-1.5,1.5-2.6,3.4-3.3,5.3c-0.7,2.1-2,3.8-3.8,4.8c-1.8,1-3.9,1.4-6,1.1c-0.6-0.1-1.1,0.1-1.5,0.5l-0.5-0.2c-2.8-1.4-4.8-4.3-5-7.5
		c-0.1-2.1-0.8-4.1-2.2-6c-0.8-1.1-1.8-2-2.9-2.7c1.3-0.5,2.5-1.3,3.6-2.3c1.5-1.4,2.5-3.3,3-5.5c0.3-1.5,1.1-3,2.3-4.2
		c1-1.2,2.3-2,3.8-2.4L469.8,267.5C469.8,267.4,469.8,267.5,469.8,267.5z M467.5,302c2.1,0.4,4,1.5,5.3,3.1c1.5,1.7,2.2,3.8,2.1,5.9
		c-0.1,3.4,1.2,6.8,3.5,9.4c-3.2,1.1-5.9,3.4-7.5,6.5c-2,3.9-6.5,5.6-10.6,4c-0.4-0.2-0.9-0.1-1.3,0.1c-0.2,0.1-0.3,0.2-0.4,0.3
		l-0.4-0.3c-2.5-1.8-3.9-5-3.7-8.3c0.2-2.1-0.2-4.3-1.1-6.2c-0.6-1.2-1.5-2.3-2.5-3.3c3.5-0.6,6.6-3.1,8.1-6.5c1.2-3,3.9-5,7-5.4
		l0.4,0C466.7,301.7,467.1,301.9,467.5,302z M443.9,365.8c1.9,1.1,3.3,2.8,4.1,4.7c0.8,2.1,0.8,4.4,0.1,6.3c-1.2,3.2-1.1,6.8,0.3,10
		c-3.4-0.1-6.7,1.1-9.1,3.5c-3.2,2.9-8,3-11.4,0.1c-0.4-0.3-0.8-0.4-1.3-0.4c-0.2,0-0.5,0.1-0.7,0.2l-0.1-0.1
		c-1.8-2.6-2.1-6-0.8-9.1c1.5-3.5,1.3-7.3-0.6-10.5c0.8,0.2,1.5,0.3,2.3,0.3c3,0,5.9-1.2,8-3.5c2-2.3,5.3-3.3,8.3-2.5l0.2,0
		C443.3,365.3,443.5,365.6,443.9,365.8z M424.4,393.9c1.7,1.4,2.8,3.3,3.2,5.2c0.4,2,0.1,4.1-1,6c-0.5,0.9-0.9,1.9-1.2,2.9
		c-0.3,1-0.5,2-0.5,3c-0.1,1.3,0,2.5,0.3,3.8c-3.2-0.6-6.7,0-9.6,1.8c-1.8,1.1-3.9,1.5-5.9,1.2c-2.1-0.4-4-1.4-5.4-3
		c-0.4-0.4-0.9-0.6-1.5-0.5c-1.4-2.8-1.1-6.2,0.7-8.7c1.2-1.6,1.9-3.7,2-5.9c0-1.4-0.2-2.9-0.8-4.2c1.2,0.5,2.5,0.7,3.8,0.7
		c0.2,0,0.4,0,0.6,0c2.1-0.2,4-0.9,5.7-2.2c2.6-1.9,5.9-2.3,8.7-1.1l0,0C423.8,393.2,424.1,393.6,424.4,393.9z M124.7,402.9
		c-0.4,0-0.9,0.2-1.2,0.5c-1.5,1.5-3.5,2.5-5.6,2.6c-1,0.1-2.1,0-3-0.3c-1-0.3-1.9-0.8-2.8-1.5c-2.6-2-6-3-9.4-2.7
		c1-3.3,0.9-6.9-0.6-10c-1.8-4.1-0.4-8.8,3.2-11.4c0.4-0.3,0.6-0.7,0.7-1.1c2.9-1,6.2-0.3,8.5,1.8l0,0c2.1,1.9,4.7,2.8,7.2,2.8
		c1.1,0,2.2-0.2,3.2-0.6c-1.6,3.2-1.5,7,0.2,10.3c1.6,2.7,1.5,6.1-0.1,8.8l-0.4,0.6C124.8,402.9,124.7,402.9,124.7,402.9z
		 M104.2,376.5l-0.1,0.1c-0.5-0.3-1.3-0.3-1.8,0.1c-3.6,2.5-8.3,2-11.3-1.1c-2.3-2.5-5.5-4.1-8.8-4.3c0.6-1.1,1-2.4,1.3-3.7
		c0.4-2.1,0.4-4.3-0.2-6.3c-1.2-4.2,1-8.7,5-10.6c0.4-0.2,0.7-0.5,0.9-1l0.1,0c3-0.5,6.2,0.8,8.1,3.3c2,2.7,5.1,4.2,8.5,4.2
		c0.4,0,0.9,0,1.3-0.1c-2.1,3-2.7,6.9-1.4,10.3c0.5,1.5,0.7,3.1,0.4,4.7C105.8,373.9,105.1,375.3,104.2,376.5z M70.7,281.3
		c-0.4-0.3-0.8-0.5-1.3-0.4c-2.1,0.2-4.1-0.4-5.8-1.6c-1.8-1.3-3-3.1-3.4-5.1c-0.8-3.4-2.8-6.3-5.6-8.2c2.8-1.9,4.9-4.9,5.6-8.3
		c0.4-2,1.6-3.8,3.4-5.1c1.7-1.2,3.8-1.8,5.8-1.6c0.5,0,0.9-0.1,1.3-0.4c0.1-0.1,0.1-0.1,0.2-0.2l0.5,0.2c1.4,0.5,2.6,1.5,3.6,2.7
		c1,1.3,1.7,2.8,1.9,4.3l0,0c0.3,2.2,1.2,4.2,2.6,5.7c0.9,1,2,1.9,3.2,2.5c-1.2,0.6-2.3,1.5-3.2,2.5c-1,1.2-2.3,3.2-2.6,5.7
		c-0.4,3.2-2.6,6-5.5,7.1L70.7,281.3C70.8,281.4,70.8,281.3,70.7,281.3z M70.1,246.8c-2.1-0.2-4.1-1.1-5.6-2.6
		c-1.5-1.5-2.3-3.4-2.5-5.7c-0.1-2.1-0.8-4.1-1.9-6c-0.6-1.1-1.4-2.2-2.4-3.1c3-1.3,5.5-3.9,6.9-7.1c1.8-4,6-6.2,10.2-5
		c0.6,0.2,1.3,0,1.7-0.5l0.4,0.2c2.7,1.6,4.4,4.7,4.3,8v0c0,3.6,1.7,7,4.4,9.1c-3.4,1-6.1,3.6-7.3,7.2c-0.6,1.6-1.4,3-2.5,4
		c-1.1,1.1-2.5,1.8-4,2l-0.5,0.1C70.9,247,70.5,246.8,70.1,246.8z M88.2,181.2c-4.1-1.9-6.2-6.4-5-10.6c0.5-2,0.6-4.2,0.1-6.3
		c-0.3-1.3-0.7-2.6-1.3-3.7c3.3-0.2,6.5-1.8,8.8-4.3c3-3.2,7.7-3.6,11.3-1.1c0.6,0.4,1.4,0.4,1.9,0l0.1,0.1c2,2.4,2.6,5.9,1.5,9l0,0
		c-1.2,3.5-0.6,7.3,1.4,10.3c-3.7-0.5-7.4,1-9.8,4.1c-2,2.6-5,3.8-8.1,3.3l-0.2,0C88.9,181.6,88.6,181.3,88.2,181.2z M126.5,125.3
		c-3.3-3.1-3.9-7.9-1.4-11.3c1.2-1.7,2-3.7,2.2-5.8c0.2-1.2,0.2-2.5,0-3.8c3.2,0.9,6.7,0.6,9.9-1c4-2,8.7-0.8,11.4,2.8
		c0.3,0.4,0.7,0.6,1.1,0.7c1.2,2.9,0.6,6.2-1.5,8.6l0,0c-2.5,3.1-3.1,7-1.8,10.6c-3.3-1.5-7.1-1.2-10.2,0.7
		c-1.4,0.8-2.9,1.3-4.4,1.4c-1.6,0-3.1-0.3-4.4-1l-0.5-0.3c0-0.1,0-0.2,0-0.3C127.1,126.1,126.9,125.6,126.5,125.3z M152.3,103
		c-2.7-3.5-2.4-8.3,0.6-11.4c2.5-2.4,3.9-5.6,3.9-9c3.2,1.4,6.8,1.7,10,0.7c2-0.7,4.2-0.5,6.2,0.4c2,0.9,3.6,2.4,4.6,4.3
		c0.2,0.4,0.5,0.6,0.9,0.8l0,0.1c0.3,1.5,0.2,3-0.3,4.5c-0.5,1.5-1.4,2.8-2.6,3.8l0,0c-1.7,1.4-2.9,3.2-3.5,5.1
		c-0.5,1.6-0.5,3.2-0.2,4.9c-1.3-0.8-2.7-1.4-4.1-1.7c-1-0.2-2.1-0.2-3.2-0.2c-1,0.1-2,0.4-3.1,0.8c-2.9,1.2-6.5,0.7-9-1.2l0,0
		c0.1-0.2,0.2-0.4,0.2-0.6C152.7,103.8,152.6,103.4,152.3,103z M404.5,117.1c1.4-1.6,3.3-2.7,5.4-3c2-0.3,4.1,0.1,5.9,1.2
		c2.9,1.7,6.3,2.4,9.5,1.8c-0.3,1.2-0.4,2.5-0.3,3.8c0.1,1,0.2,1.9,0.5,3c0.3,1,0.7,2,1.2,2.9c1,1.8,1.4,4,1,6
		c-0.4,2-1.6,3.9-3.2,5.2c-0.4,0.3-0.6,0.7-0.6,1.1c-2.9,1.3-6.2,0.9-8.7-1l0,0c-2.9-2.2-6.7-2.8-10.1-1.6c1.3-3.3,0.9-7-1.2-10
		c-1.8-2.7-2.1-6-0.7-8.7C403.6,117.7,404.1,117.6,404.5,117.1z M425.9,141.6L425.9,141.6c0.2,0.1,0.4,0.2,0.6,0.2
		c0.5,0.1,0.9-0.1,1.3-0.4c3.4-2.9,8.2-2.8,11.4,0.1c2.5,2.3,5.7,3.6,9.2,3.5c-1.3,3.2-1.5,6.8-0.3,10c0.7,1.8,0.7,4.1-0.1,6.2
		c-0.8,2-2.2,3.7-4.1,4.8c-0.4,0.2-0.6,0.6-0.8,1l-0.2,0c-2.9,0.8-6.1-0.2-8.4-2.6c-1.4-1.6-3.3-2.7-5.3-3.2c-1.6-0.4-3.3-0.4-4.9,0
		c1.9-3.2,2.2-7.2,0.6-10.5C423.7,147.8,424,144.2,425.9,141.6z M459.1,200.9c0.4,0.2,0.9,0.2,1.3,0.1c4.1-1.5,8.6,0.2,10.6,4
		c1.5,3.1,4.2,5.4,7.5,6.5c-2.3,2.6-3.6,6-3.5,9.5c0.1,2-0.7,4.1-2.1,5.9c-1.3,1.6-3.2,2.7-5.3,3.1c-0.5,0.1-0.8,0.4-1.1,0.7l-0.4,0
		c-1.5-0.1-2.9-0.7-4.1-1.7c-1.3-1-2.3-2.2-2.9-3.7v0c-0.8-2-2.2-3.7-3.9-4.9c-1.3-0.9-2.7-1.4-4.2-1.7c1-0.9,1.9-2,2.5-3.2
		c0.7-1.4,1.5-3.7,1.2-6.2c-0.3-3.2,1.1-6.5,3.7-8.3l0.3-0.2C458.8,200.7,458.9,200.8,459.1,200.9z M71.3,284.4l0.4,0.1
		c3,0.6,5.6,2.9,6.6,6c0.7,2.5,2.3,4.2,3.5,5.2c1.1,0.9,2.5,1.6,3.9,2c-1.1,0.8-2,1.8-2.8,3c-1.1,1.8-1.6,3.9-1.6,6.1
		c0,1.6-0.4,3.2-1.2,4.6c-0.7,1.4-1.8,2.6-3.1,3.3l-0.5,0.3c-0.4-0.4-1-0.6-1.6-0.4c-4.1,1.1-8.4-1-10.2-5c-1.4-3.3-3.8-5.8-6.9-7.1
		c0.9-0.9,1.7-1.9,2.4-3.1c1.1-1.9,1.8-4,1.9-6c0.2-2.3,1-4.2,2.5-5.7c1.5-1.5,3.5-2.4,5.6-2.6C70.6,285,71,284.8,71.3,284.4z
		 M150.4,400.3c-0.3-0.3-0.8-0.4-1.2-0.4c-0.4,0-0.8,0.2-1.1,0.6c-1.2,1.4-2.9,2.4-4.8,2.7c-0.9,0.2-1.8,0.2-2.7,0
		c-0.9-0.2-1.8-0.5-2.5-1c-2.5-1.6-5.6-2.2-8.5-1.7c0.6-2.9,0.2-6-1.3-8.6c-1.8-3.4-1-7.5,2-10c0.3-0.3,0.6-0.7,0.6-1.1
		s-0.1-0.9-0.4-1.2l-0.8-0.9l-0.4,0.3l-0.2-0.2c-0.3-0.3-0.7-0.5-1.1-0.6c-0.4,0-0.9,0.1-1.2,0.4c-3,2.5-7.2,2.5-10.1-0.1
		c-2.2-2.1-5.1-3.2-8.1-3.2c0,0,0,0,0,0c0.4-1,0.7-2.1,0.8-3.3c0.2-2,0-3.9-0.6-5.7c-1.3-3.6,0.2-7.8,3.7-9.8
		c0.8-0.5,1.1-1.5,0.7-2.2l-0.6-1.1l-0.5,0.3c-0.2-0.4-0.6-0.7-1-0.8c-0.4-0.1-0.9-0.1-1.3,0.2c-1.6,1-3.5,1.3-5.3,1
		c-1.8-0.3-3.4-1.3-4.5-2.8c-1.8-2.4-4.5-4-7.5-4.5c1.6-2.6,2.2-5.8,1.6-8.8c-0.6-3.9,1.6-7.7,5.2-9.1c0.9-0.3,1.3-1.3,1-2.1
		l-0.4-1.1l-0.5,0.2c-0.4-0.8-1.2-1.1-2-0.9c-3.6,1.3-7.5-0.2-9.4-3.6c-1.5-2.8-3.8-4.9-6.6-5.9c0.7-0.9,1.3-1.8,1.8-2.8
		c0.9-1.8,1.3-3.7,1.3-5.6c0-2,0.6-3.8,1.8-5.2c1.2-1.4,2.9-2.4,4.8-2.8c0.9-0.2,1.5-1,1.4-1.9l-0.2-1.2l-0.4,0.1
		c-0.1-0.3-0.3-0.5-0.5-0.7c-0.4-0.3-0.8-0.4-1.3-0.3c-1.8,0.3-3.7,0-5.2-1c-1.7-1-2.9-2.6-3.4-4.3c-0.9-3-2.9-5.5-5.6-7
		c2.4-2,4-4.8,4.4-7.9c0.2-1.8,1.2-3.5,2.7-4.8c1.4-1.2,3.2-1.9,5-1.9c0.4,0,0.9-0.2,1.2-0.5c0.2-0.2,0.3-0.4,0.4-0.7h0.1v-0.5
		c0,0,0,0,0,0l0-1.2h-0.1c-0.2-0.7-0.8-1.2-1.6-1.2c-1.9,0-3.7-0.7-5.1-1.9c-1.4-1.2-2.3-2.9-2.6-4.8c-0.3-1.9-1-3.7-2.1-5.3
		c-0.6-0.9-1.4-1.8-2.2-2.5c2.5-1.5,4.5-3.9,5.5-6.9c1.3-3.7,4.9-5.9,8.6-5.3c0.8,0.1,1.5-0.3,1.8-1l0.4,0.1l0.2-1.2
		c0.1-0.4,0-0.9-0.3-1.2s-0.6-0.6-1.1-0.7c-3.8-0.7-6.5-4-6.6-8c0.1-3.1-1-6.2-3-8.5c2.8-1,5.2-3.1,6.6-5.8c0.9-1.7,2.3-3,4-3.6
		c1.7-0.6,3.6-0.6,5.4,0c0.4,0.2,0.9,0.1,1.3,0c0.3-0.2,0.6-0.5,0.8-0.8l0.5,0.2l0.4-1.2c0.3-0.9-0.2-1.8-1-2.1
		c-3.7-1.4-6-5.2-5.2-9c0.3-1.9,0.2-3.9-0.3-5.7c-0.3-1.1-0.8-2.2-1.3-3.1c2.9-0.5,5.6-2.1,7.5-4.6c2.4-3,6.5-3.8,9.9-1.9
		c0.8,0.5,1.8,0.2,2.2-0.6l0-0.1l0.4,0.3l0.6-1c0.2-0.4,0.3-0.8,0.2-1.2c-0.1-0.4-0.4-0.8-0.8-1c-3.4-1.9-4.9-6.1-3.7-9.8
		c1.1-2.9,1-6.1-0.2-9c3,0,6-1.1,8.2-3.2c0.7-0.6,1.5-1.2,2.3-1.5c0.8-0.3,1.7-0.5,2.7-0.5h0c1.8,0,3.7,0.7,5.1,1.9
		c0.3,0.3,0.8,0.4,1.2,0.4c0.4,0,0.8-0.3,1.1-0.6l0.1-0.1l0.4,0.3l0.8-1c0.3-0.4,0.4-0.8,0.3-1.2c-0.1-0.4-0.3-0.8-0.6-1.1
		c-3.1-2.5-4-6.7-2-9.9c0.9-1.6,1.5-3.5,1.5-5.4c0.1-1.1,0-2.2-0.2-3.2c2.9,0.5,5.9-0.1,8.5-1.7c3.3-2,7.4-1.4,10,1.6
		c0.6,0.7,1.6,0.8,2.3,0.2l1-0.8l-0.3-0.4l0.1-0.1c0.3-0.3,0.6-0.7,0.6-1.1c0-0.5-0.1-0.9-0.4-1.3c-2.6-2.9-2.8-7.1-0.4-10.1
		c2-2.3,3-5.2,2.9-8.3c3,1,6.2,1,9-0.2c1.7-0.7,3.7-0.8,5.5-0.1c1.8,0.6,3.4,1.8,4.4,3.5c0.5,0.8,1.5,1,2.3,0.5l1.1-0.6l-0.3-0.4
		l0.1,0c0.4-0.2,0.6-0.6,0.7-1c0.1-0.4,0-0.9-0.2-1.3c-1-1.6-1.5-3.5-1.2-5.3c0.2-1.8,1.1-3.4,2.6-4.6c1.4-1.2,2.6-2.7,3.3-4.5
		c0.5-1,0.8-2.1,0.9-3.1c1,0.5,2.1,1,3.2,1.2c1.8,0.4,3.7,0.4,5.7,0.1c3.9-0.8,7.8,1.2,9.2,4.8c0.3,0.8,1.3,1.3,2.1,0.9l1.2-0.4
		l-0.2-0.5c0.3-0.2,0.6-0.4,0.8-0.8c0.2-0.4,0.2-0.9,0-1.3c-1.5-3.5-0.2-7.6,3.2-9.6c2.7-1.5,4.7-3.9,5.6-6.8
		c2.4,1.9,5.5,2.9,8.6,2.8c1-0.1,1.9,0.1,2.8,0.3c0.8,0.3,1.7,0.7,2.5,1.3c1.5,1.1,2.5,2.8,3,4.6c0.2,0.9,1.1,1.4,2,1.3l1.2-0.2
		l-0.1-0.5c0.3-0.1,0.6-0.3,0.8-0.6c0.2-0.4,0.3-0.8,0.2-1.3c-0.4-1.8-0.2-3.7,0.7-5.3c0.8-1.6,2.3-2.9,4.1-3.5
		c2.8-1,5.3-3.2,6.7-5.9c2,2.3,4.9,3.8,8,4c4,0.5,6.9,3.7,7.1,7.5c0,0.4,0.2,0.9,0.5,1.1c0.3,0.3,0.8,0.5,1.2,0.4l1.2-0.1l0-0.2
		c0.7-0.2,1.2-0.9,1.1-1.6c-0.2-3.8,2.5-7.1,6.4-7.9c3.1-0.7,5.8-2.4,7.6-4.7c1.6,2.4,4.1,4.3,7.2,5.2c1.9,0.5,3.5,1.7,4.5,3.2
		c1,1.4,1.4,3.3,1.2,5.2c-0.1,0.4,0,0.9,0.3,1.2c0.2,0.2,0.5,0.4,0.7,0.5l-0.1,0.4l1.2,0.2c0.4,0.1,0.9-0.1,1.2-0.3
		c0.3-0.3,0.6-0.7,0.6-1.1c0.5-3.8,3.7-6.7,7.7-6.9c3.1,0,6.1-1.3,8.4-3.4c1.2,2.8,3.4,5.2,6.2,6.4c1.7,0.7,3,2.1,3.8,3.9
		c0.7,1.7,0.8,3.6,0.2,5.4c-0.1,0.4-0.1,0.9,0.1,1.3c0.2,0.3,0.5,0.5,0.8,0.7l-0.2,0.5l1.2,0.4c0.9,0.2,1.8-0.2,2-1.1
		c0.6-1.8,1.8-3.4,3.4-4.4c1.5-1,3.4-1.4,5.4-1.2c1.8,0.2,3.8,0.1,5.7-0.6c1.1-0.3,2.1-0.8,3.1-1.4c0.2,1.1,0.6,2.1,1.2,3.1
		c0.9,1.6,2.1,3,3.7,4.2c3.2,2.3,4.2,6.3,2.3,9.8c-0.4,0.8-0.1,1.8,0.7,2.2l-0.2,0.5l1.1,0.6c0.8,0.4,1.8,0.1,2.2-0.7
		c1.8-3.5,5.9-5.2,9.6-4.1c2.9,1,6.1,0.8,9-0.5c0.1,3,1.4,6,3.5,8c1.3,1.2,2.1,2.9,2.2,4.9c0.1,1.8-0.5,3.7-1.7,5.2
		c-0.3,0.4-0.4,0.8-0.3,1.3c0.1,0.4,0.3,0.8,0.7,1.1l0.1,0.1l-0.3,0.4l1,0.7c0.7,0.5,1.7,0.4,2.3-0.4c1.2-1.5,2.8-2.6,4.7-3.1
		c1.8-0.4,3.7-0.2,5.5,0.6c2.8,1.3,5.9,1.6,8.8,0.9c-0.1,1.1-0.1,2.2,0,3.3c0.1,0.9,0.4,1.7,0.7,2.7c0.3,0.9,0.8,1.8,1.3,2.5
		c1.1,1.5,1.5,3.4,1.3,5.2c-0.2,1.8-1.1,3.5-2.5,4.9c-0.3,0.3-0.5,0.7-0.5,1.2c0,0.4,0.1,0.9,0.4,1.2l0.8,0.9l0.1-0.1
		c0.3,0.3,0.7,0.5,1.1,0.5c0.4,0,0.9-0.2,1.2-0.5c2.8-2.8,7.1-3.1,10.1-0.8c2.4,1.9,5.4,2.8,8.4,2.5c-0.9,3-0.7,6.2,0.6,9
		c0.8,1.6,0.9,3.6,0.3,5.5c-0.5,1.8-1.7,3.4-3.3,4.5c-0.7,0.5-0.9,1.5-0.4,2.3l0.7,1l0.4-0.3l0.1,0.1c0.2,0.4,0.6,0.6,1,0.7
		c0.4,0.1,0.9,0,1.3-0.3c1.6-1.1,3.4-1.6,5.2-1.5c1.8,0.2,3.5,1,4.8,2.5c2.2,2.3,4.9,3.6,7.8,3.9c-1.3,2.7-1.6,5.8-0.9,8.9
		c0.5,1.9,0.3,3.9-0.5,5.5c-0.8,1.7-2.2,3.1-4,3.9c-0.8,0.4-1.2,1.4-0.8,2.2l0.5,1.2l0.5-0.2c0.2,0.4,0.5,0.7,0.9,0.8
		c0.4,0.2,0.9,0.1,1.3,0c3.5-1.7,7.6-0.5,9.7,2.7c1.6,2.6,4.2,4.5,7.1,5.3c-1.8,2.5-2.7,5.7-2.4,8.7c0.2,1.8-0.3,3.7-1.5,5.4
		c-1.1,1.5-2.7,2.6-4.5,3.1c-0.9,0.2-1.4,1.1-1.2,2l0.3,1.2l0.5-0.1c0.1,0.3,0.3,0.6,0.7,0.8c0.4,0.2,0.8,0.3,1.3,0.2
		c1.8-0.5,3.7-0.3,5.4,0.5c1.6,0.8,2.9,2.1,3.7,4c0.7,1.7,1.9,3.3,3.3,4.6c0.8,0.8,1.8,1.4,2.8,1.8c-2.1,2.1-3.5,5-3.7,8.1
		c-0.3,4-3.3,7.1-7.2,7.4c-0.4,0-0.9,0.3-1.1,0.6c-0.3,0.4-0.4,0.8-0.3,1.2l0.1,1.2l0.3,0c0.1,0.3,0.2,0.5,0.4,0.7
		c0.3,0.3,0.8,0.4,1.2,0.4c3.8-0.4,7.2,2.2,8.2,6c0.8,3.1,2.5,5.7,5,7.4c-0.9,0.6-1.7,1.4-2.4,2.3c-1.2,1.5-2.1,3.3-2.6,5.1
		c-0.5,2-1.5,3.5-3,4.6c-1.5,1.1-3.3,1.6-5.2,1.4c-0.8-0.1-1.4,0.4-1.7,1.1l-0.4,0l-0.1,1.2c-0.1,0.9,0.6,1.7,1.5,1.8
		c1.8,0.2,3.6,1,4.9,2.3c1.4,1.4,2.2,3.2,2.3,5.1c0.2,3,1.6,6,3.8,8.2c-2.8,1.3-5,3.6-6.1,6.4c-1.5,3.6-5.3,5.5-9.1,4.4
		c-0.4-0.1-0.9,0-1.3,0.2c-0.3,0.2-0.5,0.5-0.6,0.8l-0.5-0.1l-0.3,1.2c-0.2,0.9,0.3,1.8,1.2,2c1.8,0.5,3.4,1.6,4.5,3.1
		c1.1,1.5,1.6,3.5,1.4,5.4c-0.2,3.2,0.6,6.2,2.3,8.6c-2.8,0.8-5.3,2.6-7.1,5.2c-1,1.6-2.5,2.8-4.3,3.2c-1.8,0.5-3.7,0.3-5.4-0.5
		c-0.4-0.2-0.9-0.2-1.3,0c-0.4,0.1-0.7,0.4-0.9,0.8l-0.5-0.2l-0.5,1.1c-0.4,0.8,0,1.8,0.8,2.2c1.7,0.8,3.1,2.2,3.9,3.9
		c0.9,1.8,1.1,3.9,0.6,5.5c-0.8,3-0.5,6.2,0.9,9c-3,0.2-5.8,1.6-7.8,3.9c-2.6,2.8-6.8,3.2-10,1c-0.4-0.3-0.8-0.4-1.3-0.3
		c-0.4,0.1-0.8,0.4-1,0.7l0,0.1l-0.4-0.3l-0.7,1.1c-0.5,0.8-0.3,1.8,0.5,2.3c1.6,1.1,2.8,2.8,3.3,4.5c0.5,1.8,0.4,3.8-0.4,5.5
		c-0.4,0.9-0.7,1.8-0.8,2.8c-0.2,1-0.3,1.9-0.2,2.8c0,1.1,0.2,2.3,0.5,3.3c-2.9-0.2-5.9,0.6-8.4,2.5c-1.5,1.1-3.3,1.7-5.1,1.6
		c-1.8-0.2-3.6-1-5-2.3c-0.3-0.3-0.8-0.5-1.2-0.5c-0.4,0-0.8,0.2-1.2,0.5l-0.1-0.1l-0.8,0.8c-0.3,0.3-0.5,0.7-0.5,1.2
		c0,0.5,0.2,0.9,0.5,1.2c1.4,1.3,2.3,3,2.5,4.9c0.2,1.9-0.2,3.8-1.3,5.2c-1.7,2.4-2.5,5.5-2.1,8.5c-3-0.8-6.1-0.5-8.8,1
		c-3.5,1.7-7.7,0.7-10.1-2.5c-0.3-0.4-0.7-0.6-1.1-0.7c-0.4-0.1-0.9,0-1.2,0.3l-1,0.7l0.3,0.4l-0.1,0.1c-0.4,0.3-0.6,0.7-0.7,1.1
		c-0.1,0.4,0.1,0.9,0.3,1.3c2.4,3.1,2.2,7.3-0.6,10.1c-1.3,1.4-2.3,3-2.9,4.7c-0.3,1-0.5,2.1-0.6,3.2c-1-0.5-2.1-0.8-3.2-0.9
		c-2-0.3-4-0.2-5.7,0.4c-1.9,0.6-3.8,0.5-5.5-0.3c-1.8-0.8-3.2-2.1-4.1-3.8c-0.4-0.8-1.4-1.1-2.2-0.7l-1.1,0.5l0.2,0.5
		c-0.4,0.2-0.7,0.5-0.8,0.9c-0.1,0.4-0.1,0.9,0.1,1.3c0.9,1.7,1.1,3.6,0.7,5.3c-0.4,1.9-1.5,3.4-3,4.4c-2.5,1.7-4.2,4.3-4.9,7.3
		c-2.6-1.7-5.7-2.5-8.8-2c-4,0.5-7.7-1.9-8.8-5.6c-0.3-0.9-1.2-1.4-2.1-1.1l-1.2,0.4l0.2,0.5c-0.3,0.2-0.6,0.4-0.8,0.7
		c-0.2,0.4-0.2,0.8-0.1,1.3c0.6,1.8,0.5,3.7-0.2,5.3c-0.7,1.7-2.1,3-3.8,3.9c-2.8,1.4-5,3.7-6.1,6.3c-2.2-2-5.1-3.2-8.3-3.4
		c-4-0.1-7.2-3-7.7-6.8c-0.1-0.9-0.9-1.6-1.8-1.5l-1.3,0.1l0.1,0.4c-0.3,0.1-0.5,0.3-0.7,0.5c-0.3,0.3-0.4,0.8-0.3,1.2
		c0.5,3.8-1.9,7.3-5.6,8.4c-3,0.8-5.6,2.7-7.2,5.3c-1.9-2.4-4.6-4.2-7.6-4.7c-1.9-0.3-3.6-1.3-4.7-2.8c-1.1-1.5-1.7-3.3-1.6-5.1
		c0-0.8-0.5-1.4-1.1-1.6l0-0.2l-1.2,0c-0.9,0-1.7,0.7-1.7,1.6c-0.1,1.9-0.8,3.6-2.1,5c-0.7,0.7-1.4,1.3-2.2,1.7
		c-0.9,0.4-1.8,0.7-2.8,0.8c-3,0.3-5.9,1.8-8,4.1c-1.4-2.7-3.8-4.8-6.7-5.8c-3.7-1.5-5.7-5.2-4.9-8.9c0.1-0.4,0-0.9-0.2-1.3
		c-0.2-0.3-0.5-0.5-0.8-0.6l0.1-0.5l-1.2-0.2c-0.9-0.2-1.7,0.4-1.9,1.3c-0.8,3.8-4.2,6.4-8.3,6.2c-2,0-3.9,0.3-5.6,1
		c-1.1,0.4-2.1,1-3,1.7c-0.3-1-0.8-2-1.4-2.9c-1.1-1.6-2.5-3-4.1-3.9c-1.7-1-2.9-2.4-3.4-4.1c-0.6-1.8-0.5-3.7,0.3-5.4
		c0.2-0.4,0.2-0.9,0-1.3c-0.2-0.4-0.5-0.6-0.8-0.8l0.2-0.5l-1.2-0.5c-0.8-0.3-1.8,0.1-2.1,0.9c-0.7,1.8-2.1,3.2-3.7,4.1
		c-1.7,0.9-3.7,1.2-5.5,0.8c-2.9-0.7-6.2-0.2-8.9,1.3c-0.4-3-1.9-5.8-4.2-7.6c-2.9-2.5-3.5-6.7-1.4-10c0.2-0.4,0.3-0.9,0.2-1.3
		c-0.1-0.4-0.4-0.8-0.8-1l0,0l0.3-0.5l-1.1-0.6c-0.8-0.5-1.8-0.2-2.2,0.6c-2.1,3.4-6.2,4.7-10,3.3c-2.9-1.1-6.1-1.2-8.9-0.2
		c0-1.1-0.1-2.2-0.3-3.2c-0.4-1.9-1.3-3.6-2.5-5.1c-2.5-2.8-2.3-7.1,0.4-10.1c0.3-0.3,0.5-0.8,0.4-1.2s-0.2-0.8-0.6-1.1l-0.2-0.1
		l0.3-0.3L150.4,400.3z M471,263.8c-0.5,0-0.9,0.2-1.2,0.5c0,0,0,0.1-0.1,0.1l-0.6-0.2c-1.4-0.4-2.8-1.2-3.8-2.4
		c-1-1.1-1.7-2.5-2.2-4.2c-0.9-3.6-3.4-6.5-6.6-7.8c2.9-1.9,4.8-5,5.1-8.6c0.2-1.8,0.7-3.3,1.5-4.5c0.9-1.3,2-2.4,3.4-3l0.6-0.3
		c0.1,0.1,0.2,0.2,0.2,0.2c0.4,0.3,0.8,0.4,1.3,0.3c2.1-0.4,4.2,0,6,1.1c1.8,1,3.1,2.7,3.8,4.8c0.6,1.9,1.8,3.8,3.3,5.3
		c0.9,0.9,1.9,1.8,3,2.4c-2.6,2.1-4.4,5.2-4.9,8.7C479,260.6,475.3,263.8,471,263.8C471.1,263.8,471,263.8,471,263.8z M464.3,186.8
		c0.4,2.1,0,4.3-1.1,6.2c-1,1.8-2.8,3.2-4.8,4c-0.4,0.1-0.7,0.5-0.9,0.8l-0.3,0c-3.1,0.3-6.2-1.3-7.8-4l0,0c-2-3.2-5.6-5.1-9.3-5
		c1-1.1,1.7-2.5,2.1-3.8c0.6-2,0.7-4.2,0.1-6.3c-0.8-3.3,0.1-6.6,2.3-8.9l0.2-0.2c0.2,0.1,0.4,0.2,0.6,0.3c0.4,0.1,0.9,0.1,1.3-0.2
		c1.9-1.1,4-1.5,6-1.1c2,0.4,3.8,1.5,5.1,3.2c2.2,2.7,5.2,4.5,8.4,5C464.5,179.8,463.8,183.2,464.3,186.8z M401.6,102.2
		c1.3,1.5,2,3.5,1.9,5.7c-0.1,2.1-0.9,4.1-2.4,5.7c-0.3,0.4-0.5,0.8-0.4,1.3c0,0.2,0.1,0.3,0.1,0.5l-0.2,0.1c-2.6,1.7-6.1,1.9-9,0.4
		c-1.9-0.9-4-1.4-6.1-1.2c-1.5,0.2-3,0.6-4.3,1.4c0.4-1.6,0.5-3.3,0.2-4.9c-0.4-2.2-1.5-4.1-3-5.5c-2.2-2.1-3.1-5.5-2.2-8.5l0-0.1
		c0.4-0.1,0.8-0.4,1-0.7c2.4-3.8,7.1-5.3,11.2-3.7c3.2,1.4,6.8,1.4,10,0.2C398.3,96.3,399.4,99.7,401.6,102.2z M343.3,72.4
		c0.6,1.9,0.5,4.1-0.3,6.1c-0.2,0.4-0.2,0.9,0,1.3c0.1,0.2,0.2,0.3,0.3,0.4l-0.2,0.3c-0.9,1.2-2.2,2.1-3.7,2.7
		c-1.6,0.6-3.2,0.8-4.7,0.6h0c-2.2-0.3-4.3,0-6.2,0.9c-1.3,0.6-2.4,1.4-3.4,2.4c-0.2-1.5-0.7-2.9-1.5-4.3c-1.2-1.9-2.8-3.3-4.7-4.2
		c-2.9-1.3-4.8-4.1-5-7.2l0-0.3c0.4-0.2,0.6-0.6,0.7-1.1c0.9-4.3,4.8-7.2,9.3-7.1c3.5,0.2,6.9-0.9,9.6-3.1c1,3.3,3.2,6.1,6.1,7.8
		C341.3,68.7,342.6,70.4,343.3,72.4z M309.6,62.9c1,1.7,1.2,3.9,0.8,6c-0.1,0.6,0.1,1.1,0.5,1.6l-0.2,0.4c-1.5,2.8-4.5,4.6-7.7,4.6
		h0c-3.6,0.2-6.8,2-8.9,4.8c-1.1-3.3-3.9-5.9-7.5-7c-3.2-1-5.6-3.4-6.3-6.3l-0.1-0.5c0.4-0.3,0.6-0.7,0.6-1.2c0.2-4.3,3.5-7.9,8-8.4
		c3.6-0.5,6.7-2.1,8.9-4.6c1.5,2.9,4.1,5.2,7.4,6.6C306.9,59.6,308.6,61,309.6,62.9z M276.9,66.8c-0.9,2.8-3.5,5.1-6.8,5.8
		c-3.7,0.7-6.6,3.1-8,6.2c-1.7-2.9-4.8-5-8.5-5.5c-3.2-0.3-6-2.3-7.3-5.2l-0.2-0.5c0.1-0.1,0.1-0.1,0.2-0.2c0.3-0.4,0.4-0.8,0.3-1.3
		c-0.3-2.1,0.2-4.2,1.3-5.9c1.1-1.8,2.9-3,5-3.6c3.3-0.9,6.2-3.1,8-6c2,2.8,5.1,4.7,8.5,5.3c4.4,0.9,7.4,4.7,7.2,9
		c0,0.5,0.2,0.9,0.5,1.2c0,0,0.1,0,0.1,0.1L276.9,66.8z M233.8,59.3c1.1,0,2.2,0.2,3.2,0.6c0.9,0.4,1.8,0.9,2.6,1.7
		c1.5,1.4,2.6,3.4,2.8,5.4c0.1,0.5,0.3,0.9,0.7,1.1l0,0.4c-0.5,3-2.7,5.8-5.7,6.8c-3.5,1.2-6.1,4.1-6.9,7.7
		c-2.3-2.7-5.7-4.3-9.3-4.1c-3.1,0.2-6.4-1.4-8.1-4l-0.2-0.4c0.1-0.1,0.2-0.2,0.3-0.3c0.2-0.4,0.3-0.9,0.1-1.3
		c-1.3-4.1,0.6-8.5,4.5-10.4c3.2-1.4,5.6-4,6.8-7.2C227,57.7,230.4,59.2,233.8,59.3z M193,67.9c1.9,0.6,4,0.8,6.2,0.6
		c4.5-0.5,8.6,2,9.9,6.2c0.1,0.4,0.4,0.8,0.8,1l0,0.3c0.1,3.1-1.6,6.1-4.4,7.6l0,0c-3.3,2-5.3,5.4-5.4,9c-2.6-2.3-6.3-3.3-9.9-2.6
		c-1.7,0.3-3.3,0.2-4.8-0.2c-1.5-0.5-2.9-1.3-4-2.4l-0.2-0.2c0.1-0.1,0.2-0.3,0.3-0.5c0.1-0.4,0.1-0.9-0.1-1.3c-1-1.9-1.3-4-0.8-6.1
		c0.4-2,1.6-3.7,3.4-5c1.7-1.1,3.1-2.8,4.1-4.6c0.6-1.1,1.1-2.3,1.3-3.6C190.6,66.9,191.7,67.5,193,67.9z M75,188.2
		c1.1-1.8,2.8-3.1,4.8-3.6c2-0.5,4.1-0.3,6.1,0.6c0.4,0.2,0.9,0.2,1.3,0.1c0.2-0.1,0.4-0.2,0.5-0.3l0.2,0.1c1.1,1,2,2.3,2.6,3.9
		c0.5,1.5,0.7,3.2,0.4,4.7c-0.7,3.5,0.5,7.2,2.9,9.8c-3.8,0.3-7.1,2.5-8.7,5.8c-1.5,2.8-4.4,4.6-7.5,4.7h-0.4
		c-0.2-0.3-0.5-0.6-0.9-0.7c-4.2-1.1-7-5.2-6.7-9.6c0.4-3.5-0.6-7-2.7-9.7C70.2,193.1,73.2,191,75,188.2z M69.7,328.3
		c-0.3-4.5,2.5-8.5,6.7-9.6c0.5-0.1,0.8-0.4,1-0.8c0,0,0,0,0,0h0.3c1.5,0,3,0.5,4.3,1.3c1.2,0.8,2.3,1.9,3.1,3.4
		c1.8,3.4,5.1,5.5,8.7,5.8c-2.4,2.5-3.5,6.1-3,9.8c0.6,3.2-0.6,6.5-3,8.6l-0.3,0.2c-0.1-0.1-0.2-0.2-0.4-0.2c-0.4-0.2-0.9-0.1-1.3,0
		c-1.9,0.9-4.1,1.1-6.1,0.5c-2-0.5-3.7-1.8-4.8-3.6c-1.8-2.8-4.7-4.9-8-5.8C69,335.2,70,331.7,69.7,328.3z M152.9,440.3
		c-3-3.1-3.3-7.9-0.6-11.4c0.3-0.4,0.4-0.8,0.3-1.3c0-0.2-0.1-0.5-0.3-0.7l0.1-0.1c1.2-1,2.7-1.6,4.3-1.8c1.5-0.2,3.1,0,4.7,0.6
		c3.5,1.3,7.4,0.9,10.4-1c-0.6,3.7,0.7,7.5,3.7,10.1c2.4,2,3.6,5.2,2.9,8.2l-0.1,0.3c-0.3,0.2-0.6,0.4-0.8,0.7
		c-1,1.9-2.6,3.4-4.6,4.3c-2,0.9-4.2,1-6.2,0.3c-3.2-1-6.8-0.8-10,0.7C156.7,445.8,155.3,442.6,152.9,440.3z M184.1,457.5
		c-1.8-1.3-3-3-3.4-5c-0.5-2-0.2-4.2,0.8-6.1c0.2-0.4,0.3-0.9,0.1-1.3c-0.1-0.2-0.2-0.4-0.3-0.6l0.2-0.2c2.2-2.3,5.7-3.4,8.7-2.7h0
		c1.2,0.3,2.2,0.3,3.2,0.3c1-0.1,2.1-0.3,3.1-0.7c1.3-0.5,2.6-1.2,3.6-2.2c0,1.6,0.4,3.1,1.1,4.5c0.9,1.8,2.4,3.4,4.3,4.5
		c1.3,0.8,2.5,1.9,3.2,3.3c0.8,1.3,1.2,2.8,1.1,4.3l0,0.5c-0.3,0.2-0.6,0.5-0.7,0.9c-1.3,4.2-5.4,6.8-9.9,6.2
		c-2.2-0.2-4.3,0-6.2,0.6c-1.3,0.4-2.5,1-3.5,1.7c-0.3-1.2-0.7-2.4-1.3-3.5C187.1,460.3,185.7,458.7,184.1,457.5z M213.2,458.9
		c0.1-0.4,0.1-0.9-0.1-1.3c-0.1-0.2-0.2-0.3-0.3-0.4l0.2-0.4c0.8-1.3,2-2.3,3.5-3c1.4-0.7,3-1,4.7-1c3.7,0.1,7-1.4,9.2-4
		c0.8,3.5,3.3,6.3,6.9,7.8c3,1.1,5.2,3.7,5.7,6.8l0.1,0.5c-0.3,0.3-0.5,0.6-0.6,1.1c-0.3,2.1-1.3,4-2.8,5.5
		c-0.8,0.8-1.7,1.3-2.6,1.7c-1,0.4-2.1,0.6-3.2,0.6c-3.4,0.1-6.8,1.5-9.2,3.9c-1.2-3.2-3.7-5.8-6.8-7.1
		C213.8,467.4,211.9,463,213.2,458.9z M247.9,471.6c-1.1-1.7-1.6-3.8-1.3-5.9c0.1-0.6-0.2-1.1-0.6-1.5l0.2-0.5
		c1.2-2.8,4.2-4.9,7.3-5.3c3.6-0.3,6.7-2.4,8.5-5.5c1.5,3.3,4.5,5.6,8,6.2c3.1,0.6,5.8,2.9,6.8,5.8l0.2,0.6c0,0,0,0-0.1,0
		c-0.3,0.3-0.5,0.8-0.5,1.2c0.2,4.3-2.8,8.1-7.1,9c-3.4,0.6-6.5,2.5-8.5,5.3c-1.8-2.9-4.7-5.1-8-6
		C250.8,474.6,249,473.3,247.9,471.6z M280.1,464.8c0.7-3,3.2-5.5,6.2-6.2l0,0c3.6-1.1,6.3-3.7,7.5-7c2,2.8,5.2,4.6,8.8,4.7
		c3.4,0.2,6.3,2,7.8,4.7l0.3,0.6c-0.4,0.4-0.6,1-0.5,1.5c0.5,2.1,0.2,4.2-0.8,6c-1,1.8-2.7,3.2-4.7,4c-3.3,1.3-5.9,3.7-7.4,6.6
		c-2.2-2.5-5.3-4.1-8.9-4.6c-4.4-0.5-7.8-4-7.9-8.4c0-0.5-0.3-1-0.7-1.3L280.1,464.8z M323.8,468.8c-4.4,0.2-8.4-2.8-9.3-7.1
		c-0.1-0.5-0.4-0.9-0.8-1.1l0-0.4c0.2-3,2.1-5.7,5.1-7.2c3.5-1.7,5.8-4.8,6.2-8.4c2.5,2.5,6,3.8,9.6,3.3c3.2-0.5,6.5,0.8,8.4,3.3
		l0.3,0.3c-0.1,0.1-0.2,0.2-0.3,0.4c-0.2,0.4-0.2,0.9,0,1.3c0.8,2,0.9,4.1,0.3,6.1c-0.7,2.1-2,3.7-3.8,4.7c-2.9,1.6-5.1,4.5-6.1,7.8
		C330.7,469.7,327.3,468.5,323.8,468.8z M368.3,454.5c-0.5,1.2-0.8,2.4-1,3.7c-1.1-0.6-2.4-1.1-3.6-1.4c-2.2-0.5-4.3-0.5-6.3-0.1
		c-2.2,0.5-4.3,0.2-6.2-0.8c-1.9-1-3.4-2.7-4.2-4.6c-0.2-0.4-0.5-0.8-0.9-0.9l0-0.2c-0.4-3.1,1-6.2,3.6-8c1.8-1.1,3.1-2.8,3.9-4.9
		c0.6-1.5,0.8-3.1,0.7-4.7c1.2,0.9,2.5,1.6,3.9,2c2,0.5,4.2,0.5,6.3-0.2c1.5-0.5,3.1-0.5,4.8-0.1c1.6,0.3,3,1,4.1,2.1l0.2,0.2
		c-0.1,0.2-0.2,0.4-0.2,0.6c-0.1,0.5,0,0.9,0.2,1.3c2.4,3.7,1.7,8.3-1.6,11.2C370.3,451,369.1,452.6,368.3,454.5z M388.5,439.1
		c-4.1,1.6-8.8,0-11.2-3.7c-0.3-0.4-0.7-0.7-1.1-0.8l0-0.1c-0.5-1.4-0.5-3-0.1-4.5c0.4-1.5,1.2-2.8,2.3-4c2.8-2.8,3.8-6.7,2.8-10.3
		c3.2,1.7,7.1,1.8,10.5,0.2c2.8-1.5,6.3-1.3,8.9,0.5l0.3,0.2c0,0.2-0.1,0.3-0.1,0.5c0,0.5,0.1,0.9,0.4,1.3c1.4,1.6,2.3,3.6,2.4,5.7
		c0.1,2.2-0.6,4.2-2,5.7c-2.2,2.5-3.3,5.9-3.1,9.3C395.2,437.7,391.6,437.8,388.5,439.1z M457.8,360c-1.3,1.7-3.1,2.8-5.1,3.2
		c-2,0.4-4.2,0-6-1.1c-0.4-0.2-0.9-0.3-1.3-0.2c-0.2,0.1-0.4,0.2-0.6,0.3l-0.2-0.2c-2.3-2.3-3.2-5.7-2.3-8.8v0
		c0.9-3.5,0.1-7.3-2.2-10.1c0.1,0,0.2,0,0.3,0c1.5,0,3-0.3,4.3-0.9c1.9-0.9,3.5-2.3,4.6-4.1c1.8-2.7,4.9-4.3,7.8-4l0.4,0
		c0.2,0.4,0.5,0.6,0.9,0.8c2,0.8,3.7,2.2,4.8,4c1.1,1.8,1.4,4,1.1,6.2c-0.5,3.5,0.2,7,1.9,9.8C463,355.4,460,357.2,457.8,360z
		 M488.9,245.1c-0.2,0-0.4,0.1-0.6,0.2c-1.3-0.4-2.6-1.1-3.7-2.1c-1.3-1.2-2.3-2.7-2.9-4.4l0,0c-0.8-2.3-2.1-4.2-3.8-5.7
		c-1.3-1-2.8-1.8-4.4-2.2c1.2-0.9,2.3-2,3.1-3.4c0.9-1.5,2-3.9,1.9-6.7c-0.1-3.2,1.5-6.4,4.1-8.3c0.3,0.1,0.7,0.2,1.1,0.1
		c2.3-0.6,4.7-0.4,6.8,0.6c2,1,3.6,2.7,4.6,5c0.9,2,2.2,3.9,4,5.5c1.1,1,2.3,1.8,3.7,2.4c-2.7,2.5-4.4,6-4.7,10
		C497.4,240.9,493.6,244.7,488.9,245.1z M367.1,68.5c-0.2,0.4-0.2,0.9-0.1,1.3c-1,0.8-2.2,1.5-3.5,1.9c-1.8,0.6-3.6,0.6-5.3,0.3h0
		c-2.4-0.5-4.7-0.4-6.9,0.4c-1.5,0.6-2.9,1.4-4.1,2.5c0-1.8-0.4-3.5-1.2-5.1c-1.1-2.2-2.7-3.9-4.7-5c-2.8-1.6-4.6-4.5-4.8-7.6
		c0.1-0.1,0.2-0.3,0.3-0.5c0.7-2.3,2.2-4.2,4.2-5.5c2-1.3,4.3-1.8,6.8-1.5c2.1,0.3,4.5,0.1,6.8-0.7c1.4-0.4,2.8-1.1,4-1.9
		c0.3,1.4,0.8,2.8,1.5,4.1c1,1.9,2.5,3.6,4.5,5C368.3,59,369.4,64.1,367.1,68.5z M332.5,56c-2,2.5-5.2,3.9-8.5,3.7h0
		c-4-0.1-7.8,1.6-10.2,4.6c-0.8-3.9-3.6-7.1-7.6-8.6c-3.2-1.3-5.5-3.8-6.2-6.7c0.1-0.2,0.2-0.4,0.3-0.7c0.6-4.8,4.7-8.4,9.6-8.7
		c3.8-0.1,7.5-1.6,10.2-4.3c1.3,3.5,4.1,6.5,7.5,8c2.1,0.9,3.8,2.6,4.7,4.9c0.9,2.1,1,4.5,0.3,6.8C332.3,55.3,332.4,55.6,332.5,56z
		 M63,194.7c2.3,2.1,3.6,5.4,3.3,8.6v0c-0.3,4.1,1.3,7.9,4.2,10.4c-3.9,0.7-7.3,3.3-9,7.2c-0.8,1.8-1.9,3.2-3.2,4.2
		c-1.1,0.9-2.4,1.4-3.7,1.7c-0.2-0.1-0.4-0.2-0.7-0.3c-4.7-0.8-8.2-5-8.2-10c0.1-3.9-1.4-7.6-3.9-10.4c3.5-1.2,6.6-3.8,8.3-7.1
		c1.1-2.1,2.9-3.7,5-4.5c2.1-0.8,4.6-0.8,6.8,0C62.3,194.8,62.6,194.8,63,194.7z M52.8,230.8c0.3,0.1,0.6,0,0.9-0.1
		c1.2,0.7,2.3,1.8,3.1,3c1,1.5,1.6,3.3,1.8,5v0c0.2,2.4,1,4.6,2.3,6.5c0.9,1.2,2.1,2.3,3.4,3.1c-1.5,0.6-2.9,1.4-4,2.6
		c-1.2,1.2-2.8,3.2-3.4,6c-0.7,3.2-3,5.8-5.9,7c-0.2-0.1-0.5-0.2-0.8-0.2c-2.3,0-4.6-0.8-6.4-2.3c-1.8-1.5-2.9-3.6-3.3-6
		c-0.3-2.2-1.2-4.4-2.6-6.3c-0.8-1.2-1.8-2.3-3-3.2c3.2-1.7,5.7-4.7,7-8.5C43.6,232.7,48.1,229.9,52.8,230.8z M50.2,268
		c0.2,0,0.3,0,0.5-0.1c3,1.1,5.4,3.8,6.1,7.1c0.6,2.8,2.2,4.8,3.4,6c1.2,1.1,2.5,2,4,2.6c-1.3,0.8-2.5,1.8-3.4,3.1
		c-1.3,1.8-2.1,4.1-2.3,6.5c-0.1,1.8-0.7,3.5-1.8,5c-0.8,1.2-1.8,2.2-2.9,2.9c-0.3-0.1-0.6-0.2-1-0.2c-2.3,0.4-4.6,0-6.6-1.2
		c-2.1-1.3-3.6-3.2-4.3-5.3c-1.1-3.6-3.7-6.7-7-8.5c3-2.3,5-5.8,5.6-9.6c0.3-2.2,1.5-4.4,3.4-6C45.7,268.8,47.9,268,50.2,268z
		 M54,305.1c0.1,0,0.2-0.1,0.3-0.1c1.4,0.3,2.8,0.9,4,1.8c1.3,1,2.4,2.4,3.2,4.2c1.7,3.9,5,6.5,9,7.2c-2.9,2.6-4.5,6.4-4.1,10.5
		c0.3,3.2-0.9,6.4-3.2,8.5c-0.4-0.1-0.8-0.2-1.3,0c-4.5,1.7-9.5-0.2-11.8-4.5c-1.9-3.5-4.8-6-8.3-7.1c1-1.1,1.8-2.3,2.4-3.7
		c1-2.1,1.6-4.5,1.5-6.7c0-2.5,0.8-4.8,2.3-6.5C49.6,306.8,51.7,305.6,54,305.1z M190.1,470.8c0.2-0.4,0.2-0.8,0-1.2
		c0.9-0.9,2.1-1.7,3.4-2.2c1.6-0.6,3.4-0.8,5.3-0.7c4.1,0.5,8-1,10.6-3.7c0.5,4,3,7.5,6.8,9.4c3,1.3,5.1,4.1,5.5,7.2
		c-0.1,0.2-0.2,0.3-0.2,0.5c-1,4.8-5.2,7.9-10.3,7.8c-2.4,0-4.7,0.3-6.7,1.2c-1.4,0.6-2.7,1.4-3.8,2.3c-0.4-1.4-1-2.7-1.8-3.9
		c-1.3-2-3-3.6-4.9-4.7c-2.1-1.3-3.6-3.1-4.3-5.2C189.1,475.4,189.2,473,190.1,470.8z M225.7,480.5c1.8-2.6,5-4.4,8.2-4.5
		c4,0,7.6-2.1,9.8-5.3c1.2,3.8,4.3,6.8,8.3,7.8c3.1,0.8,5.7,3.3,6.8,6.2c-0.1,0.2-0.2,0.4-0.2,0.7c-0.1,2.3-1,4.6-2.6,6.3
		c-0.8,0.9-1.8,1.6-2.7,2.1c-1.1,0.5-2.2,0.8-3.4,1c-3.7,0.4-7.3,2.3-9.8,5.2c-1.6-3.4-4.5-6.1-8.1-7.3c-4.6-1.8-7.1-6.5-6-11.2
		C225.9,481.1,225.8,480.8,225.7,480.5z M341.2,467.1c2-1.1,3.7-2.8,4.7-5c0.8-1.6,1.2-3.3,1.2-5.1c1.2,1.1,2.6,2,4.1,2.5
		c2.1,0.8,4.5,0.9,6.9,0.4c1.7-0.4,3.5-0.3,5.3,0.3c1.3,0.4,2.5,1,3.5,1.8c-0.1,0.4-0.1,0.9,0.1,1.3c1.1,2.1,1.4,4.5,0.9,6.7
		c-0.5,2.4-1.9,4.3-3.8,5.6c-3.1,2.1-5.2,5.4-5.9,9.1c-3.1-2.2-7-3.2-10.8-2.6c-4.9,0.6-9.5-2.4-11-7c0-0.1-0.1-0.2-0.2-0.3
		C336.6,471.6,338.4,468.7,341.2,467.1z M482.5,319.3c-2.6-1.9-4.1-5.1-4.1-8.3c0.1-2.9-1-5.2-1.9-6.7c-0.8-1.3-1.9-2.5-3.1-3.4
		c1.6-0.4,3.1-1.2,4.4-2.2c1.7-1.4,3-3.4,3.8-5.7c0.5-1.7,1.5-3.2,2.9-4.4c1.1-1,2.3-1.7,3.6-2.1c0.2,0.1,0.4,0.2,0.7,0.2
		c2.3,0.2,4.5,1.2,6.2,2.9c1.8,1.8,2.8,4,2.9,6.3c0.2,3.8,2,7.4,4.8,10c-3.5,1.5-6.3,4.3-7.7,7.8c-1.9,4.5-6.7,6.8-11.4,5.5
		C483.2,319.1,482.8,319.2,482.5,319.3z M488.6,282.6c-1.3-0.6-2.5-1.5-3.4-2.8c-1-1.3-1.7-2.9-2.1-4.9c-0.7-4-3.1-7.3-6.5-9.1
		c3.4-1.7,5.8-5,6.5-9c0.4-2,1.1-3.6,2.1-4.9c0.9-1.2,2.1-2.1,3.4-2.8c0.3,0.1,0.6,0.2,0.9,0.2c4.8-0.4,9,2.7,10.3,7.5
		c0.9,3.8,3.2,7,6.3,9c-1.2,0.8-2.3,1.8-3.2,3c-1.5,1.8-2.6,3.9-3.1,6.1c-0.6,2.4-1.9,4.4-3.7,5.7c-1.9,1.3-4.2,2-6.5,1.8
		C489.2,282.4,488.9,282.5,488.6,282.6z M294.5,40.8c1.2,1.8,1.8,4.2,1.5,6.6c0,0.3,0,0.6,0.1,0.9c-1.5,2.8-4.4,4.8-7.9,5.3
		c-4,0.5-7.5,2.8-9.3,6.1c-1.6-3.5-4.8-6.1-8.9-7c-3.2-0.6-6-2.8-7.3-5.7c0.2-0.3,0.2-0.6,0.2-0.9c-0.2-4.8,3.1-9,8-10
		c3.9-0.9,7.2-3,9.3-5.9c1.9,3.1,4.9,5.4,8.8,6.6C291.2,37.5,293.2,38.9,294.5,40.8z M264.9,492.1c-1.4-1.8-2.2-4.1-2-6.5
		c0-0.3,0-0.5-0.1-0.7c1.3-2.9,4-5.2,7.3-5.7l0,0c4-0.9,7.2-3.5,8.8-7c1.9,3.3,5.3,5.6,9.3,6.1c3.4,0.5,6.3,2.4,7.8,5.1
		c-0.1,0.3-0.2,0.6-0.1,0.9c0.7,4.7-2.3,9.2-7,10.6c-3.7,1-6.9,3.4-8.8,6.6c-2.2-3.1-5.6-5.3-9.3-6
		C268.4,495.2,266.3,494,264.9,492.1z M510.5,263.8c-0.2,0-0.5,0-0.7,0.1c-1.5-0.6-2.8-1.5-4-2.7c-1.2-1.3-2.2-3.1-2.7-5.2
		c-1.1-4.4-4.1-7.8-8.1-9.3l0.1,0l-0.1,0c3.6-2.2,5.9-6,6.3-10.4c0.2-2.2,0.9-4.1,1.9-5.6c0.9-1.4,2-2.5,3.3-3.3
		c0.3,0.1,0.6,0.1,0.9,0.1c2.7-0.5,5.4,0,7.7,1.3c2.2,1.3,3.9,3.3,4.8,5.9c0.8,2.3,2.2,4.5,4,6.3c1.2,1.2,2.5,2.2,4,3
		c-3.3,2.5-5.6,6.2-6.4,10.5C520.7,259.9,516,263.8,510.5,263.8z M506.6,223.2c-0.1,0-0.2,0.1-0.3,0.1c-1.6-0.3-3.2-0.9-4.5-2
		c-1.6-1.2-2.8-2.8-3.6-4.6l0,0c-1-2.4-2.6-4.4-4.7-5.8c-1.6-1-3.3-1.7-5.1-2l0.4-0.2h-0.3c1.2-1.1,2.2-2.4,3-3.9
		c0.9-1.7,1.8-4.4,1.4-7.4c-0.4-3.5,1-7,3.6-9.4c0.3,0.1,0.7,0.1,1,0c5.3-1.9,11,0.2,13.6,5c2,3.8,5.4,6.5,9.5,7.8
		c-3,3.1-4.7,7.3-4.6,11.5c0.1,2.5-0.8,5.1-2.7,7.2C511.6,221.4,509.2,222.7,506.6,223.2z M484,133.4c0.9,2.3,0.8,5.1-0.2,7.7
		c-0.9,2.4-2.7,4.3-4.9,5.7c-3.6,0.9-7.5-0.4-10.3-3.2c-1.7-1.9-3.9-3.2-6.3-3.8c-1.9-0.5-3.9-0.5-5.9,0l0.7-0.9l-0.5,0.2
		c2-3.7,2.3-8.2,0.5-12.1c-1.4-3-1.3-6.6,0.1-9.7c0.4,0,0.7-0.1,1-0.4c4.3-3.6,10.5-3.5,14.5,0.1c3.1,2.9,7.3,4.3,11.6,4.1
		C482.7,125,482.5,129.4,484,133.4z M394.1,60.1c-0.2,0.3-0.3,0.7-0.2,1.1c-2.8,1.9-6.5,2.4-9.7,1.4l0,0c-4.2-1.2-8.6-0.4-12,2.1
		l0.1-0.5l-0.5,0.5c0.3-4.4-1.7-8.6-5.4-11.4c-1.6-1.2-2.9-2.7-3.7-4.4c-0.8-1.6-1.1-3.4-0.9-5.2c1-2.5,2.8-4.5,5.1-5.8
		c2.3-1.3,4.9-1.6,7.6-1c2.3,0.5,4.9,0.5,7.5-0.1c1.6-0.4,3.2-1,4.7-1.9c0.1,1.7,0.5,3.3,1.2,4.9c1,2.2,2.4,4.2,4.3,6
		C396.3,49.4,397.1,55.3,394.1,60.1z M318.7,31.3c-2,2.9-5.4,4.7-9,4.8h0c-4.4,0.2-8.4,2.5-10.7,6c0-0.1,0-0.1-0.1-0.2v0v0
		c-1.3-4-4.6-7.2-8.9-8.4c-3.7-1.1-6.5-3.8-7.5-7c0.1-0.2,0.1-0.3,0.1-0.5c0.2-5.6,4.3-10.1,9.8-10.8c4.3-0.6,8.1-2.8,10.7-5.9
		c1.7,3.7,4.8,6.7,8.9,8.4c2.5,1,4.5,2.8,5.7,5.1c1.2,2.2,1.5,5,1,7.7C318.5,30.8,318.6,31,318.7,31.3z M270.1,32.6
		c-4.5,0.9-8,3.8-9.7,7.7c0,0,0-0.1,0-0.1l0-0.1l0,0c-2.1-3.6-5.8-6.1-10.2-6.7c-3.6-0.3-6.8-2.5-8.5-5.5c0.1-0.2,0.1-0.5,0.1-0.8
		c-0.3-2.7,0.2-5.4,1.7-7.6c1.4-2.2,3.5-3.9,6.1-4.6c4-1.1,7.5-4,9.6-7.7c2.4,3.6,6.1,6,10.2,6.8c5.4,1.2,9.1,6.1,8.8,11.6
		c0,0.2,0,0.4,0.1,0.6C276.9,29.4,273.9,31.8,270.1,32.6z M197.7,36.9c-0.1,3.7-2.1,7.1-5.4,9l0,0c-4,2.4-6.4,6.6-6.4,11
		c0,0-0.1-0.1-0.1-0.1l-0.4-0.5l0,0.2c-3.1-2.6-7.4-3.8-11.6-2.9c-2.1,0.4-4.1,0.3-5.9-0.2c-1.4-0.4-2.7-1.1-3.8-2
		c0-0.3,0-0.7-0.2-1c-1.2-2.4-1.6-5.2-1-7.8c0.5-2.5,2-4.7,4.2-6.4c2-1.4,3.6-3.4,4.8-5.7c0.8-1.5,1.3-3.1,1.6-4.7
		c1.4,1,2.9,1.8,4.5,2.3c2.2,0.8,4.7,1,7.4,0.7C191.1,28.1,196.1,31.4,197.7,36.9C197.7,36.8,197.7,36.8,197.7,36.9z M159.9,52.2
		c0.3,1.7,0.2,3.5-0.5,5.2c-0.7,1.9-1.8,3.5-3.2,4.7l0,0c-2,1.7-3.4,3.8-4.1,6.2c-0.5,1.9-0.6,4-0.2,6l-0.9-0.8l0.1,0.4
		c-1.4-0.8-2.9-1.4-4.5-1.7c-1.2-0.2-2.5-0.3-3.8-0.2c-1.2,0.1-2.4,0.4-3.7,1c-3,1.3-6.8,1-9.7-0.6c0-0.3-0.1-0.7-0.3-0.9
		c-3.3-4.4-3-10.6,0.7-14.5c3-2.9,4.7-7.1,4.7-11.4c3.9,1.9,8.4,2.3,12.3,1c2.4-0.8,5.2-0.7,7.7,0.4
		C156.8,48.1,158.7,49.9,159.9,52.2z M95.9,101.8c0.6,1.4,1,2.9,1,4.4c0,2-0.4,3.9-1.4,5.5c-2.1,3.6-2.2,8.1-0.5,11.9l-0.8-0.3
		l0.6,0.8c-1.8-0.5-3.7-0.7-5.6-0.4c-1.3,0.2-2.5,0.6-3.6,1.1c-1.1,0.6-2.2,1.3-3.1,2.2c-2.8,2.6-7,3.5-10.6,2.3
		c-4.2-3.2-5.8-8.8-3.7-13.6c1.8-3.8,2-8.3,0.6-12.3c4.2,0.5,8.6-0.6,11.9-3.1c1.1-0.8,2.2-1.4,3.5-1.8c1.2-0.3,2.6-0.4,3.9-0.3
		c2.6,0.2,5.2,1.4,7.1,3.2C95.4,101.6,95.7,101.7,95.9,101.8z M70.9,133.6c1.7,2.9,2.1,6.5,0.9,9.7l0,0c-1.4,4.1-0.8,8.6,1.6,12.1
		l-0.6-0.2l0.5,0.6c-4.4-0.5-8.7,1.3-11.6,4.9c-2.4,3.1-6.2,4.7-10,4.1c-4.9-2.4-7.5-7.9-6-12.9c0.7-2.4,0.7-5,0.2-7.5
		c-0.4-1.7-0.9-3.3-1.7-4.7c4.2-0.2,8.2-2,11.1-5.1c3.8-3.9,9.9-4.5,14.5-1.4C70.1,133.5,70.5,133.6,70.9,133.6z M36.9,207.5
		c0.4,0.1,0.7,0,1-0.1c2.7,2.1,4.3,5.5,4.3,9.1v0c0,4.5,2.1,8.5,5.5,11l-0.3,0l0.1,0.1c-4.1,1.1-7.4,4.3-8.8,8.5
		c-0.7,2-1.8,3.7-3.2,4.9c-1.3,1.2-2.8,2-4.3,2.4c-0.1,0-0.2-0.1-0.3-0.1c-2.7-0.2-5.2-1.4-7.1-3.2c-1.9-1.8-3-4.2-3.2-7
		c-0.2-2.4-1-4.9-2.3-7.1c-0.8-1.5-1.9-2.8-3.2-3.9c3.9-1.5,7-4.6,8.8-8.5C26.1,208.7,31.6,206.1,36.9,207.5z M30.4,247.7
		c0.3,0,0.5,0,0.8-0.1c1.3,0.7,2.5,1.7,3.5,2.9c1.3,1.6,2.1,3.4,2.4,5.4l0,0c0.4,2.6,1.5,5,3.1,6.8c1.2,1.3,2.6,2.4,4.2,3.1
		c0,0,0,0,0,0l-0.3,0.1l0.1,0c-1.5,0.8-2.8,1.8-3.9,3c-1.2,1.4-2.8,3.8-3.2,6.8c-0.5,3.6-2.9,6.8-6.1,8.4c-0.2,0-0.4-0.1-0.5-0.1
		c-2.7,0.2-5.4-0.5-7.5-2c-2.3-1.6-3.9-3.9-4.4-6.3c-1-4.1-3.6-7.7-7.2-9.9c3.6-2.2,6.3-5.8,7.3-10c0.5-2.4,2.1-4.7,4.4-6.3
		C25.1,248.2,27.7,247.5,30.4,247.7z M30.9,288.5c0.2,0,0.4-0.1,0.6-0.2c3.4,1,6.1,3.7,7.2,7.1c0.9,3,2.8,5,4.2,6.2
		c1.4,1.2,3.1,2,4.8,2.5l-0.4,0.2l0.2,0c-1.3,1-2.4,2.2-3.3,3.6c-1.3,2.1-2,4.6-2,7.2c0,2-0.5,3.9-1.5,5.7c-0.8,1.4-1.8,2.6-3,3.5
		c-0.3-0.1-0.5-0.1-0.8,0c-5.3,1.4-10.8-1.2-13.1-6.2c-1.8-3.9-4.9-7-8.8-8.5c1.2-1.1,2.3-2.4,3.1-3.9c1.4-2.2,2.2-4.7,2.4-7.1
		c0.2-2.8,1.3-5.2,3.2-7C25.7,289.8,28.2,288.7,30.9,288.5z M45.9,387.4c0.5-2.5,0.5-5.1-0.2-7.5c-1.5-5.1,1.2-10.7,6.4-13
		c3.6-0.4,7.4,1.2,9.6,4.1c2.4,3.2,6.1,5.1,10.1,5.1c0.6,0,1.1,0,1.7-0.1l-0.7,0.8l0.4-0.1c-2.3,3.6-2.9,8-1.4,11.9
		c0.7,1.8,0.8,3.9,0.5,5.8c-0.3,1.5-0.8,2.8-1.5,4c-0.3,0-0.6,0.1-0.9,0.3c-4.6,3.1-10.6,2.5-14.4-1.4c-2.9-3.1-7-4.9-11.1-5.1
		C45,390.7,45.6,389.1,45.9,387.4z M68.3,416.2c-2.2-5-0.5-10.8,4-13.9c3.5-1.1,7.4-0.2,10.2,2.4l0,0c2.5,2.2,5.6,3.4,8.7,3.4
		c1.3,0,2.6-0.3,3.9-0.7l-0.8,1.1l0.6-0.3c-1.6,3.7-1.5,8,0.5,11.7c1.8,3.1,1.9,7,0.4,10.2c-0.2,0.1-0.4,0.2-0.5,0.3
		c-2,1.9-4.5,3-7.1,3.2c-1.3,0.1-2.6,0-3.9-0.3c-1.3-0.4-2.4-1-3.5-1.8c-3.3-2.5-7.6-3.6-11.9-3.1C70.3,424.5,70.1,420,68.3,416.2z
		 M129.1,460.4c0.2-0.3,0.3-0.8,0.3-1.2c1.2-0.6,2.5-1.1,3.9-1.2c1.9-0.2,3.8,0,5.8,0.7c4.1,1.6,8.5,1.1,12-1l-0.2,0.6l0.7-0.7
		c-0.7,4.4,0.9,8.8,4.4,11.9c3,2.4,4.5,6.5,3.7,10.3c-1.2,2.2-3.1,4-5.4,5c-2.5,1.1-5.2,1.3-7.7,0.5c-3.9-1.3-8.4-0.9-12.3,1
		c0-4.3-1.6-8.4-4.6-11.3C126.1,471,125.8,464.8,129.1,460.4z M164,481.5c0.2-0.4,0.2-0.8,0.1-1.2c2.7-2.1,6.3-3,9.6-2.2h0
		c1.4,0.3,2.6,0.4,3.9,0.3c1.3-0.1,2.5-0.4,3.7-0.8c1.5-0.6,3-1.4,4.2-2.5l-0.1,0.5l0.4-0.5c0,1.9,0.5,3.7,1.3,5.5
		c1.1,2.2,2.8,4,5.1,5.4c1.7,1,3,2.4,4,4.2c0.9,1.6,1.4,3.4,1.4,5.2c-1.7,5.3-6.6,8.5-12.1,7.8c-2.6-0.3-5.1,0-7.4,0.7
		c-1.6,0.5-3.1,1.3-4.5,2.3c-0.3-1.7-0.8-3.2-1.6-4.7c-1.2-2.3-2.9-4.3-4.8-5.7c-2.2-1.7-3.7-3.8-4.2-6.4
		C162.4,486.7,162.8,483.9,164,481.5z M201.8,495.3c1-1.1,2.1-2,3.5-2.7c1.7-0.8,3.7-1.2,5.8-1.2c4.4,0.1,8.5-1.7,11.1-4.9l0,0.3
		l0.2-0.3c0.9,4.2,4,7.7,8.2,9.4c3.5,1.3,6.2,4.3,6.9,7.9c0,0.1,0,0.1-0.1,0.2c-0.3,2.7-1.6,5.2-3.5,7c-1,1-2.1,1.7-3.2,2.2
		c-1.2,0.5-2.5,0.8-3.9,0.8c-4.1,0.1-8.2,2-11.2,5.1c-1.4-4-4.3-7.3-8.2-9.1c-4.9-2.5-7.2-8.2-5.6-13.4
		C202,496.1,201.9,495.7,201.8,495.3z M241.8,504.6c0-0.3,0-0.6-0.1-0.9c1.8-3,5-5.2,8.5-5.5c4.3-0.4,8.1-3,10.2-6.8l0,0.2l0-0.1
		c1.8,4,5.3,6.9,9.6,7.6c3.6,0.7,6.7,3.2,8.2,6.5c0,0.2-0.1,0.3-0.1,0.5c0.2,5.5-3.5,10.4-8.8,11.6c-4.2,0.8-7.9,3.2-10.3,6.8
		c-2.1-3.7-5.6-6.5-9.6-7.7c-2.6-0.7-4.8-2.3-6.1-4.6C242,510,241.4,507.3,241.8,504.6z M289.8,498.4L289.8,498.4
		c4.4-1.3,7.7-4.5,9-8.6l0.1,0.2l0-0.2c2.3,3.5,6.2,5.6,10.7,5.8c3.8,0.2,7.2,2.1,9.1,4.9c-0.1,0.3-0.1,0.5,0,0.8
		c0.6,2.7,0.2,5.5-1,7.7c-1.2,2.3-3.3,4.1-5.8,5.1c-4,1.7-7.2,4.7-8.9,8.4c-2.6-3.2-6.4-5.3-10.7-5.9c-5.4-0.7-9.5-5.2-9.7-10.8
		c0-0.2-0.1-0.5-0.2-0.7C283.5,501.9,286.3,499.3,289.8,498.4z M361.7,488C361.7,488,361.7,488,361.7,488c-0.3-3.7,1.5-7.4,4.5-9.5
		c2.1-1.4,3.7-3.4,4.6-5.8c0.7-1.8,1-3.7,0.8-5.6l0.6,0.6l-0.1-0.5c1.3,1,2.8,1.7,4.4,2.2c2.4,0.7,5,0.6,7.5-0.2
		c1.8-0.6,3.8-0.6,5.9-0.2c1.4,0.3,2.8,0.9,3.9,1.6c0,0.3,0,0.7,0.2,1c3,4.8,2.2,10.7-2,14.4c-1.9,1.7-3.4,3.8-4.3,6
		c-0.7,1.6-1.1,3.2-1.2,4.9c-1.4-0.9-3-1.5-4.7-1.9c-2.6-0.6-5.2-0.7-7.5-0.1c-2.7,0.6-5.3,0.2-7.6-1
		C364.5,492.6,362.7,490.5,361.7,488z M457.3,414.7c-1.4-2.9-1.5-6.5-0.1-9.8c1.8-4,1.5-8.4-0.5-12l0.6,0.2l-0.7-0.9
		c0.9,0.2,1.8,0.3,2.7,0.3c3.5,0,7-1.5,9.5-4.2c2.5-2.9,6.6-4.1,10.3-3.2c2.2,1.3,3.9,3.3,4.8,5.6c1,2.6,1.1,5.4,0.2,7.7
		c-1.5,3.9-1.3,8.4,0.5,12.3c-4.3-0.2-8.5,1.2-11.5,4.1c-4.1,3.6-10.2,3.7-14.5,0.1C458.1,414.8,457.7,414.7,457.3,414.7z
		 M497.5,343.9c-0.3-0.1-0.7-0.1-1.1,0c-2.4-2.3-3.8-5.8-3.5-9.5c0.2-2.6-0.3-5.1-1.4-7.4c-0.7-1.5-1.8-2.8-3-3.9h0.3l-0.4-0.2
		c4.3-0.7,8-3.6,9.8-7.8c1.4-3.5,4.5-5.9,8.1-6.5c0.1,0,0.2,0.1,0.2,0.1c2.7,0.5,5.1,1.8,6.8,3.8c1.8,2.1,2.8,4.7,2.7,7.2
		c-0.1,4.1,1.6,8.3,4.6,11.4c-4.1,1.2-7.6,4-9.5,7.8C508.5,343.7,502.8,345.8,497.5,343.9z M507.4,304.4c-0.3,0-0.6,0-0.8,0.1
		c-3-1.9-5-5.2-5.2-8.8c-0.1-3.1-1.5-5.6-2.6-7.1c-1-1.4-2.3-2.5-3.8-3.4l0.2,0l-0.1,0c1.6-0.6,3.2-1.6,4.5-2.8c1.8-1.7,3-4,3.6-6.5
		c0.4-1.9,1.4-3.7,2.8-5.2c1.1-1.2,2.4-2.1,3.9-2.7c0.2,0.1,0.4,0.1,0.7,0.1c5.5,0,10.2,3.9,11.1,9.3c0.7,4.2,3,8,6.4,10.5
		c-1.5,0.8-2.8,1.8-4,3c-1.9,1.8-3.3,4-4,6.3c-0.9,2.6-2.6,4.7-4.8,6C512.8,304.4,510.1,304.8,507.4,304.4z"/>
	<g>
		
			<linearGradient id="SVGID_00000013872528450512123450000002280280245712381836_" gradientUnits="userSpaceOnUse" x1="113.207" y1="281.9401" x2="144.5689" y2="250.5782" gradientTransform="matrix(1 0 0 -1 0 531.8401)">
			<stop  offset="0" style="stop-color:#866633"/>
			<stop  offset="1.712275e-03" style="stop-color:#896835"/>
			<stop  offset="1.460000e-02" style="stop-color:#9A7740"/>
			<stop  offset="3.050000e-02" style="stop-color:#A58147"/>
			<stop  offset="5.300000e-02" style="stop-color:#AC864C"/>
			<stop  offset="0.1154" style="stop-color:#AE884D"/>
			<stop  offset="0.1958" style="stop-color:#B18C51"/>
			<stop  offset="0.2825" style="stop-color:#BA995E"/>
			<stop  offset="0.3722" style="stop-color:#C8AE74"/>
			<stop  offset="0.4634" style="stop-color:#DCCC92"/>
			<stop  offset="0.4973" style="stop-color:#E5D99F"/>
			<stop  offset="0.6477" style="stop-color:#D7C58A"/>
			<stop  offset="0.9563" style="stop-color:#B39055"/>
			<stop  offset="1" style="stop-color:#AE884D"/>
			<stop  offset="1" style="stop-color:#B38F54"/>
			<stop  offset="1" style="stop-color:#E5D99F"/>
			<stop  offset="1" style="stop-color:#CFAD7B"/>
			<stop  offset="1" style="stop-color:#C69C6D"/>
			<stop  offset="1" style="stop-color:#A58150"/>
			<stop  offset="1" style="stop-color:#8E6D3B"/>
			<stop  offset="1" style="stop-color:#866633"/>
		</linearGradient>
		<path style="fill:url(#SVGID_00000013872528450512123450000002280280245712381836_);" d="M113.1,282c-4-4-6-9.4-6-16s2-12,6-16
			c4-4,9.4-6.1,16-6.1c5.4,0,10.2,1.4,14.4,4.1l1.2,8.6h-0.5c-0.9-3.5-2.7-6.2-5.4-8.1c-2.7-1.9-5.9-2.8-9.7-2.8
			c-5.3,0-9.6,1.9-12.7,5.5c-3.2,3.7-4.8,8.6-4.8,14.7c0,6.1,1.6,11,4.7,14.7c3.2,3.7,7.3,5.6,12.4,5.8c4.5,0,8.3-1.2,11.4-3.7
			c3.3-2.7,5.3-7,6-13.1h0.5l-0.7,9.5c-3.7,6-9.4,9.1-17.1,9.1C122.4,288.1,117.2,286.1,113.1,282"/>
		
			<linearGradient id="SVGID_00000121991797042334057930000013878321025705764796_" gradientUnits="userSpaceOnUse" x1="179.4371" y1="282.9901" x2="213.332" y2="249.0951" gradientTransform="matrix(1 0 0 -1 0 531.8401)">
			<stop  offset="0" style="stop-color:#866633"/>
			<stop  offset="1.712275e-03" style="stop-color:#896835"/>
			<stop  offset="1.460000e-02" style="stop-color:#9A7740"/>
			<stop  offset="3.050000e-02" style="stop-color:#A58147"/>
			<stop  offset="5.300000e-02" style="stop-color:#AC864C"/>
			<stop  offset="0.1154" style="stop-color:#AE884D"/>
			<stop  offset="0.1958" style="stop-color:#B18C51"/>
			<stop  offset="0.2825" style="stop-color:#BA995E"/>
			<stop  offset="0.3722" style="stop-color:#C8AE74"/>
			<stop  offset="0.4634" style="stop-color:#DCCC92"/>
			<stop  offset="0.4973" style="stop-color:#E5D99F"/>
			<stop  offset="0.6477" style="stop-color:#D7C58A"/>
			<stop  offset="0.9563" style="stop-color:#B39055"/>
			<stop  offset="1" style="stop-color:#AE884D"/>
			<stop  offset="1" style="stop-color:#B38F54"/>
			<stop  offset="1" style="stop-color:#E5D99F"/>
			<stop  offset="1" style="stop-color:#CFAD7B"/>
			<stop  offset="1" style="stop-color:#C69C6D"/>
			<stop  offset="1" style="stop-color:#A58150"/>
			<stop  offset="1" style="stop-color:#8E6D3B"/>
			<stop  offset="1" style="stop-color:#866633"/>
		</linearGradient>
		<path style="fill:url(#SVGID_00000121991797042334057930000013878321025705764796_);" d="M184.3,286.7c1,0,2-0.4,2.7-1.1
			c0.8-0.8,1.1-1.6,1.2-2.7v-34.1c-0.1-1-0.5-1.8-1.3-2.5c-0.7-0.7-1.6-1-2.6-1h-0.7l-0.1-0.6h17.8c1.2,0,2.6-0.1,4.1-0.4
			s2.5-0.5,3.1-0.7v7.7H208v-1.1c0-1-0.3-1.8-1-2.5s-1.5-1-2.4-1.1h-12.4v18.8h10.3c0.8,0,1.5-0.3,2.1-0.9c0.6-0.6,0.8-1.3,0.8-2.1
			v-0.9h0.6v9.6h-0.6v-0.9c0-0.8-0.3-1.5-0.8-2.1c-0.5-0.6-1.2-0.9-2-0.9h-10.3v18.2h8.7c3,0,5.3-0.7,6.9-2s2.9-3.3,4-6h0.6
			l-3.5,9.9h-25.2v-0.6L184.3,286.7L184.3,286.7z"/>
		
			<linearGradient id="SVGID_00000121244561663339899670000014754787844039401094_" gradientUnits="userSpaceOnUse" x1="238.3049" y1="281.9479" x2="278.6799" y2="241.573" gradientTransform="matrix(1 0 0 -1 0 531.8401)">
			<stop  offset="0" style="stop-color:#866633"/>
			<stop  offset="1.712275e-03" style="stop-color:#896835"/>
			<stop  offset="1.460000e-02" style="stop-color:#9A7740"/>
			<stop  offset="3.050000e-02" style="stop-color:#A58147"/>
			<stop  offset="5.300000e-02" style="stop-color:#AC864C"/>
			<stop  offset="0.1154" style="stop-color:#AE884D"/>
			<stop  offset="0.1958" style="stop-color:#B18C51"/>
			<stop  offset="0.2825" style="stop-color:#BA995E"/>
			<stop  offset="0.3722" style="stop-color:#C8AE74"/>
			<stop  offset="0.4634" style="stop-color:#DCCC92"/>
			<stop  offset="0.4973" style="stop-color:#E5D99F"/>
			<stop  offset="0.6477" style="stop-color:#D7C58A"/>
			<stop  offset="0.9563" style="stop-color:#B39055"/>
			<stop  offset="1" style="stop-color:#AE884D"/>
			<stop  offset="1" style="stop-color:#B38F54"/>
			<stop  offset="1" style="stop-color:#E5D99F"/>
			<stop  offset="1" style="stop-color:#CFAD7B"/>
			<stop  offset="1" style="stop-color:#C69C6D"/>
			<stop  offset="1" style="stop-color:#A58150"/>
			<stop  offset="1" style="stop-color:#8E6D3B"/>
			<stop  offset="1" style="stop-color:#866633"/>
		</linearGradient>
		<path style="fill:url(#SVGID_00000121244561663339899670000014754787844039401094_);" d="M256,246.6h-3.9v36.2c0,1,0.4,2,1.1,2.7
			c0.8,0.8,1.7,1.1,2.8,1.1h0.7l0.1,0.6h-13.3v-0.6h0.8c1,0,2-0.4,2.7-1.1c0.8-0.7,1.1-1.6,1.2-2.7v-33.8c0-1-0.4-2-1.2-2.7
			c-0.8-0.8-1.7-1.1-2.7-1.1h-0.8v-0.6h16.4c3.7,0,6.6,1,8.7,3.1c2.1,2,3.2,4.7,3.2,8c0,3.3-1,6.1-3,8.5c-2,2.4-4.5,3.6-7.3,3.6
			c0.6,0.3,1.3,0.8,2.2,1.7c0.8,0.8,1.6,1.7,2.2,2.6c3.5,5,5.8,8.1,6.8,9.2c1,1.2,1.8,2,2.2,2.4s0.9,0.8,1.5,1.2
			c0.5,0.4,1,0.7,1.6,1c1.2,0.6,2.4,0.9,3.8,0.9v0.6h-3.3c-1.7,0-3.4-0.3-4.9-0.9c-1.5-0.6-2.6-1.3-3.4-2s-1.4-1.3-2-1.9
			c-0.5-0.6-2.1-2.7-4.5-6.3c-2.5-3.6-3.9-5.6-4.3-6.1c-0.4-0.5-0.8-1-1.3-1.5c-1.3-1.4-2.6-2.1-3.9-2.1v-0.6c0.3,0,0.8,0.1,1.3,0.1
			s1.2,0,1.9-0.1c5-0.1,8.2-2.2,9.5-6.3c0.2-0.8,0.4-1.6,0.4-2.3V256c-0.1-2.7-0.8-4.9-2.1-6.6s-3.1-2.5-5.4-2.7
			C258.6,246.7,257.4,246.6,256,246.6"/>
		
			<linearGradient id="SVGID_00000081610554268089282930000010156685456593293463_" gradientUnits="userSpaceOnUse" x1="296.4521" y1="279.775" x2="324.402" y2="251.8251" gradientTransform="matrix(1 0 0 -1 0 531.8401)">
			<stop  offset="0" style="stop-color:#866633"/>
			<stop  offset="1.712275e-03" style="stop-color:#896835"/>
			<stop  offset="1.460000e-02" style="stop-color:#9A7740"/>
			<stop  offset="3.050000e-02" style="stop-color:#A58147"/>
			<stop  offset="5.300000e-02" style="stop-color:#AC864C"/>
			<stop  offset="0.1154" style="stop-color:#AE884D"/>
			<stop  offset="0.1958" style="stop-color:#B18C51"/>
			<stop  offset="0.2825" style="stop-color:#BA995E"/>
			<stop  offset="0.3722" style="stop-color:#C8AE74"/>
			<stop  offset="0.4634" style="stop-color:#DCCC92"/>
			<stop  offset="0.4973" style="stop-color:#E5D99F"/>
			<stop  offset="0.6477" style="stop-color:#D7C58A"/>
			<stop  offset="0.9563" style="stop-color:#B39055"/>
			<stop  offset="1" style="stop-color:#AE884D"/>
			<stop  offset="1" style="stop-color:#B38F54"/>
			<stop  offset="1" style="stop-color:#E5D99F"/>
			<stop  offset="1" style="stop-color:#CFAD7B"/>
			<stop  offset="1" style="stop-color:#C69C6D"/>
			<stop  offset="1" style="stop-color:#A58150"/>
			<stop  offset="1" style="stop-color:#8E6D3B"/>
			<stop  offset="1" style="stop-color:#866633"/>
		</linearGradient>
		<path style="fill:url(#SVGID_00000081610554268089282930000010156685456593293463_);" d="M304.6,286.7c1,0,2-0.4,2.7-1.1
			c0.8-0.8,1.1-1.6,1.2-2.7v-33.8c0-1-0.4-2-1.2-2.7c-0.8-0.7-1.7-1.1-2.7-1.1h-0.8v-0.6h13.3v0.6h-0.8c-1.1,0-2,0.4-2.7,1.1
			s-1.2,1.6-1.2,2.7v33.8c0,1,0.4,2,1.2,2.7c0.8,0.8,1.7,1.1,2.7,1.1h0.8v0.6h-13.3v-0.6H304.6z"/>
		
			<linearGradient id="SVGID_00000076571166064679901230000004227940622970829233_" gradientUnits="userSpaceOnUse" x1="347.7579" y1="278.9184" x2="374.2317" y2="252.4446" gradientTransform="matrix(1 0 0 -1 0 531.8401)">
			<stop  offset="0" style="stop-color:#866633"/>
			<stop  offset="1.712275e-03" style="stop-color:#896835"/>
			<stop  offset="1.460000e-02" style="stop-color:#9A7740"/>
			<stop  offset="3.050000e-02" style="stop-color:#A58147"/>
			<stop  offset="5.300000e-02" style="stop-color:#AC864C"/>
			<stop  offset="0.1154" style="stop-color:#AE884D"/>
			<stop  offset="0.1958" style="stop-color:#B18C51"/>
			<stop  offset="0.2825" style="stop-color:#BA995E"/>
			<stop  offset="0.3722" style="stop-color:#C8AE74"/>
			<stop  offset="0.4634" style="stop-color:#DCCC92"/>
			<stop  offset="0.4973" style="stop-color:#E5D99F"/>
			<stop  offset="0.6477" style="stop-color:#D7C58A"/>
			<stop  offset="0.9563" style="stop-color:#B39055"/>
			<stop  offset="1" style="stop-color:#AE884D"/>
			<stop  offset="1" style="stop-color:#B38F54"/>
			<stop  offset="1" style="stop-color:#E5D99F"/>
			<stop  offset="1" style="stop-color:#CFAD7B"/>
			<stop  offset="1" style="stop-color:#C69C6D"/>
			<stop  offset="1" style="stop-color:#A58150"/>
			<stop  offset="1" style="stop-color:#8E6D3B"/>
			<stop  offset="1" style="stop-color:#866633"/>
		</linearGradient>
		<path style="fill:url(#SVGID_00000076571166064679901230000004227940622970829233_);" d="M349.9,284.8c-0.1-0.6-0.2-1.7-0.2-3.3
			s0.3-3.4,0.9-5.2h0.5c0,0.5-0.1,0.9-0.1,1.3c0,2.5,0.8,4.5,2.2,6.2c1.5,1.6,3.5,2.5,6,2.5c2.5,0,4.7-0.8,6.3-2.3
			c1.6-1.5,2.5-3.5,2.5-5.8s-0.8-4.2-2.4-5.7l-11.7-10.8c-2.2-2-3.3-4.5-3.3-7.4c0-2.9,1-5.3,2.9-7.4c1.9-2,4.5-3.1,7.8-3.1
			c1.5,0,3.3,0.2,5.2,0.6h2.4v7.5h-0.5c0-1.9-0.7-3.4-2-4.6c-1.3-1.1-3-1.7-5.1-1.7s-3.8,0.7-5.2,2.1s-2.1,3.1-2.1,5.2
			s0.8,3.9,2.4,5.4l12,11.1c2,1.9,3,4.4,3,7.7c0,3.2-1,5.9-3.1,8c-2.1,2.1-4.8,3.1-8.3,3.1c-1.8,0-3.7-0.3-5.7-0.8
			C352.6,286.8,351,286,349.9,284.8"/>
		
			<linearGradient id="SVGID_00000087395661662544122430000006601258338766332831_" gradientUnits="userSpaceOnUse" x1="400.1921" y1="282.9851" x2="434.082" y2="249.0951" gradientTransform="matrix(1 0 0 -1 0 531.8401)">
			<stop  offset="0" style="stop-color:#866633"/>
			<stop  offset="1.712275e-03" style="stop-color:#896835"/>
			<stop  offset="1.460000e-02" style="stop-color:#9A7740"/>
			<stop  offset="3.050000e-02" style="stop-color:#A58147"/>
			<stop  offset="5.300000e-02" style="stop-color:#AC864C"/>
			<stop  offset="0.1154" style="stop-color:#AE884D"/>
			<stop  offset="0.1958" style="stop-color:#B18C51"/>
			<stop  offset="0.2825" style="stop-color:#BA995E"/>
			<stop  offset="0.3722" style="stop-color:#C8AE74"/>
			<stop  offset="0.4634" style="stop-color:#DCCC92"/>
			<stop  offset="0.4973" style="stop-color:#E5D99F"/>
			<stop  offset="0.6477" style="stop-color:#D7C58A"/>
			<stop  offset="0.9563" style="stop-color:#B39055"/>
			<stop  offset="1" style="stop-color:#AE884D"/>
			<stop  offset="1" style="stop-color:#B38F54"/>
			<stop  offset="1" style="stop-color:#E5D99F"/>
			<stop  offset="1" style="stop-color:#CFAD7B"/>
			<stop  offset="1" style="stop-color:#C69C6D"/>
			<stop  offset="1" style="stop-color:#A58150"/>
			<stop  offset="1" style="stop-color:#8E6D3B"/>
			<stop  offset="1" style="stop-color:#866633"/>
		</linearGradient>
		<path style="fill:url(#SVGID_00000087395661662544122430000006601258338766332831_);" d="M405.1,286.7c1,0,2-0.4,2.7-1.1
			c0.8-0.8,1.1-1.6,1.2-2.7v-34.1c-0.1-1-0.5-1.8-1.3-2.5c-0.7-0.7-1.6-1-2.6-1h-0.7l-0.1-0.6h17.8c1.2,0,2.6-0.1,4.1-0.4
			s2.5-0.5,3.1-0.7v7.7h-0.6v-1.1c0-1-0.3-1.8-1-2.5s-1.5-1-2.4-1.1h-12.4v18.8h10.3c0.8,0,1.5-0.3,2.1-0.9c0.6-0.6,0.8-1.3,0.8-2.1
			v-0.9h0.6v9.6h-0.6v-0.9c0-0.8-0.3-1.5-0.8-2.1c-0.5-0.6-1.2-0.9-2-0.9h-10.3v18.2h8.7c3,0,5.3-0.7,6.9-2s2.9-3.3,4-6h0.6
			l-3.5,9.9h-25.2v-0.6L405.1,286.7L405.1,286.7z"/>
	</g>
	<g>
		
			<linearGradient id="SVGID_00000172404106586511982770000015700181497302742681_" gradientUnits="userSpaceOnUse" x1="182.5804" y1="185.7734" x2="201.1305" y2="167.2235" gradientTransform="matrix(1 0 0 -1 0 531.8401)">
			<stop  offset="0" style="stop-color:#866633"/>
			<stop  offset="1.712275e-03" style="stop-color:#896835"/>
			<stop  offset="1.460000e-02" style="stop-color:#9A7740"/>
			<stop  offset="3.050000e-02" style="stop-color:#A58147"/>
			<stop  offset="5.300000e-02" style="stop-color:#AC864C"/>
			<stop  offset="0.1154" style="stop-color:#AE884D"/>
			<stop  offset="0.1958" style="stop-color:#B18C51"/>
			<stop  offset="0.2825" style="stop-color:#BA995E"/>
			<stop  offset="0.3722" style="stop-color:#C8AE74"/>
			<stop  offset="0.4634" style="stop-color:#DCCC92"/>
			<stop  offset="0.4973" style="stop-color:#E5D99F"/>
			<stop  offset="0.6477" style="stop-color:#D7C58A"/>
			<stop  offset="0.9563" style="stop-color:#B39055"/>
			<stop  offset="1" style="stop-color:#AE884D"/>
			<stop  offset="1" style="stop-color:#B38F54"/>
			<stop  offset="1" style="stop-color:#E5D99F"/>
			<stop  offset="1" style="stop-color:#CFAD7B"/>
			<stop  offset="1" style="stop-color:#C69C6D"/>
			<stop  offset="1" style="stop-color:#A58150"/>
			<stop  offset="1" style="stop-color:#8E6D3B"/>
			<stop  offset="1" style="stop-color:#866633"/>
		</linearGradient>
		<path style="fill:url(#SVGID_00000172404106586511982770000015700181497302742681_);" d="M197.1,358.1c1.7,2,3.7,3.6,5.7,3.9v0.9
			h-5.4l-5.8-7.9h-1.2v2.1c0,4.2,0.5,5,3.3,5v0.9h-9.7v-0.9c2.8,0,3.3-0.7,3.3-5v-6.8c0-4.2-0.5-4.9-3.3-4.9v-0.9h8.8
			c4.4,0,6.8,2.2,6.8,5.3c0,2.6-2,4.7-5.1,5.1L197.1,358.1z M192.9,346.1h-2.4v7.4h2.4c2.4,0,3.5-1.6,3.5-3.6
			C196.3,347.8,195.2,346.1,192.9,346.1z"/>
		
			<linearGradient id="SVGID_00000033334434774311718540000014877004077925164693_" gradientUnits="userSpaceOnUse" x1="208.017" y1="186.4001" x2="225.122" y2="169.2951" gradientTransform="matrix(1 0 0 -1 0 531.8401)">
			<stop  offset="0" style="stop-color:#866633"/>
			<stop  offset="1.712275e-03" style="stop-color:#896835"/>
			<stop  offset="1.460000e-02" style="stop-color:#9A7740"/>
			<stop  offset="3.050000e-02" style="stop-color:#A58147"/>
			<stop  offset="5.300000e-02" style="stop-color:#AC864C"/>
			<stop  offset="0.1154" style="stop-color:#AE884D"/>
			<stop  offset="0.1958" style="stop-color:#B18C51"/>
			<stop  offset="0.2825" style="stop-color:#BA995E"/>
			<stop  offset="0.3722" style="stop-color:#C8AE74"/>
			<stop  offset="0.4634" style="stop-color:#DCCC92"/>
			<stop  offset="0.4973" style="stop-color:#E5D99F"/>
			<stop  offset="0.6477" style="stop-color:#D7C58A"/>
			<stop  offset="0.9563" style="stop-color:#B39055"/>
			<stop  offset="1" style="stop-color:#AE884D"/>
			<stop  offset="1" style="stop-color:#B38F54"/>
			<stop  offset="1" style="stop-color:#E5D99F"/>
			<stop  offset="1" style="stop-color:#CFAD7B"/>
			<stop  offset="1" style="stop-color:#C69C6D"/>
			<stop  offset="1" style="stop-color:#A58150"/>
			<stop  offset="1" style="stop-color:#8E6D3B"/>
			<stop  offset="1" style="stop-color:#866633"/>
		</linearGradient>
		<path style="fill:url(#SVGID_00000033334434774311718540000014877004077925164693_);" d="M224,358.6l0.2-0.9h0.8l-0.3,5.1h-15.8
			v-0.9c2.8,0,3.3-0.7,3.3-5v-6.8c0-4.2-0.5-4.9-3.3-4.9v-0.9h9.4h5.5l0.3,5.1h-0.9l-0.2-0.9c-0.5-2-1-2.7-4.9-2.7h-2.8v6.3h0.2
			c4.2,0,4.6-0.5,4.6-3.4h0.8v8.3h-0.8c0-2.8-0.3-3.4-4.6-3.4h-0.2v2.5c0,4.2,0.5,4.9,3.3,4.9h0.5C223,361.4,223.5,360.6,224,358.6z
			"/>
		
			<linearGradient id="SVGID_00000024000016046686363200000006807216761485516221_" gradientUnits="userSpaceOnUse" x1="235.6096" y1="191.6926" x2="254.4895" y2="172.8126" gradientTransform="matrix(1 0 0 -1 0 531.8401)">
			<stop  offset="0" style="stop-color:#866633"/>
			<stop  offset="1.712275e-03" style="stop-color:#896835"/>
			<stop  offset="1.460000e-02" style="stop-color:#9A7740"/>
			<stop  offset="3.050000e-02" style="stop-color:#A58147"/>
			<stop  offset="5.300000e-02" style="stop-color:#AC864C"/>
			<stop  offset="0.1154" style="stop-color:#AE884D"/>
			<stop  offset="0.1958" style="stop-color:#B18C51"/>
			<stop  offset="0.2825" style="stop-color:#BA995E"/>
			<stop  offset="0.3722" style="stop-color:#C8AE74"/>
			<stop  offset="0.4634" style="stop-color:#DCCC92"/>
			<stop  offset="0.4973" style="stop-color:#E5D99F"/>
			<stop  offset="0.6477" style="stop-color:#D7C58A"/>
			<stop  offset="0.9563" style="stop-color:#B39055"/>
			<stop  offset="1" style="stop-color:#AE884D"/>
			<stop  offset="1" style="stop-color:#B38F54"/>
			<stop  offset="1" style="stop-color:#E5D99F"/>
			<stop  offset="1" style="stop-color:#CFAD7B"/>
			<stop  offset="1" style="stop-color:#C69C6D"/>
			<stop  offset="1" style="stop-color:#A58150"/>
			<stop  offset="1" style="stop-color:#8E6D3B"/>
			<stop  offset="1" style="stop-color:#866633"/>
		</linearGradient>
		<path style="fill:url(#SVGID_00000024000016046686363200000006807216761485516221_);" d="M250.4,357.3l2.9-8.6
			c0.8-2.5,0.5-3.2-2.2-3.2v-0.9h8v0.9c-2.6,0-3.3,0.6-4.3,3.7l-4.9,14.5h-0.5l-4.3-13.3l-4.4,13.3H240l-4.7-14.5
			c-1-3.1-1.7-3.7-4.2-3.7v-0.9h9.4v0.9c-2.5,0-3.1,0.6-2.3,3.2l2.8,8.6l4.3-12.7h0.8L250.4,357.3z"/>
		
			<linearGradient id="SVGID_00000108295137959352356400000001706330896610855815_" gradientUnits="userSpaceOnUse" x1="264.7045" y1="180.7276" x2="279.7295" y2="165.7026" gradientTransform="matrix(1 0 0 -1 0 531.8401)">
			<stop  offset="0" style="stop-color:#866633"/>
			<stop  offset="1.712275e-03" style="stop-color:#896835"/>
			<stop  offset="1.460000e-02" style="stop-color:#9A7740"/>
			<stop  offset="3.050000e-02" style="stop-color:#A58147"/>
			<stop  offset="5.300000e-02" style="stop-color:#AC864C"/>
			<stop  offset="0.1154" style="stop-color:#AE884D"/>
			<stop  offset="0.1958" style="stop-color:#B18C51"/>
			<stop  offset="0.2825" style="stop-color:#BA995E"/>
			<stop  offset="0.3722" style="stop-color:#C8AE74"/>
			<stop  offset="0.4634" style="stop-color:#DCCC92"/>
			<stop  offset="0.4973" style="stop-color:#E5D99F"/>
			<stop  offset="0.6477" style="stop-color:#D7C58A"/>
			<stop  offset="0.9563" style="stop-color:#B39055"/>
			<stop  offset="1" style="stop-color:#AE884D"/>
			<stop  offset="1" style="stop-color:#B38F54"/>
			<stop  offset="1" style="stop-color:#E5D99F"/>
			<stop  offset="1" style="stop-color:#CFAD7B"/>
			<stop  offset="1" style="stop-color:#C69C6D"/>
			<stop  offset="1" style="stop-color:#A58150"/>
			<stop  offset="1" style="stop-color:#8E6D3B"/>
			<stop  offset="1" style="stop-color:#866633"/>
		</linearGradient>
		<path style="fill:url(#SVGID_00000108295137959352356400000001706330896610855815_);" d="M267.1,358.8c-1.1,2.5-1.1,3.2,2.3,3.2
			v0.9h-8V362c2.6,0,3-0.5,4.4-3.7l6.2-14.5h0.6l6.2,14.5c1.4,3.2,1.9,3.7,4.2,3.7v0.9h-9.5V362c3,0,3.3-0.7,2.3-3.2l-0.8-2h-7
			L267.1,358.8z M271.4,348.8l-2.8,6.5h5.6L271.4,348.8z"/>
		
			<linearGradient id="SVGID_00000071521472885740621320000016128781094382755493_" gradientUnits="userSpaceOnUse" x1="287.7104" y1="185.7734" x2="306.2604" y2="167.2235" gradientTransform="matrix(1 0 0 -1 0 531.8401)">
			<stop  offset="0" style="stop-color:#866633"/>
			<stop  offset="1.712275e-03" style="stop-color:#896835"/>
			<stop  offset="1.460000e-02" style="stop-color:#9A7740"/>
			<stop  offset="3.050000e-02" style="stop-color:#A58147"/>
			<stop  offset="5.300000e-02" style="stop-color:#AC864C"/>
			<stop  offset="0.1154" style="stop-color:#AE884D"/>
			<stop  offset="0.1958" style="stop-color:#B18C51"/>
			<stop  offset="0.2825" style="stop-color:#BA995E"/>
			<stop  offset="0.3722" style="stop-color:#C8AE74"/>
			<stop  offset="0.4634" style="stop-color:#DCCC92"/>
			<stop  offset="0.4973" style="stop-color:#E5D99F"/>
			<stop  offset="0.6477" style="stop-color:#D7C58A"/>
			<stop  offset="0.9563" style="stop-color:#B39055"/>
			<stop  offset="1" style="stop-color:#AE884D"/>
			<stop  offset="1" style="stop-color:#B38F54"/>
			<stop  offset="1" style="stop-color:#E5D99F"/>
			<stop  offset="1" style="stop-color:#CFAD7B"/>
			<stop  offset="1" style="stop-color:#C69C6D"/>
			<stop  offset="1" style="stop-color:#A58150"/>
			<stop  offset="1" style="stop-color:#8E6D3B"/>
			<stop  offset="1" style="stop-color:#866633"/>
		</linearGradient>
		<path style="fill:url(#SVGID_00000071521472885740621320000016128781094382755493_);" d="M302.3,358.1c1.7,2,3.7,3.6,5.7,3.9v0.9
			h-5.4l-5.8-7.9h-1.2v2.1c0,4.2,0.5,5,3.3,5v0.9h-9.7v-0.9c2.8,0,3.3-0.7,3.3-5v-6.8c0-4.2-0.5-4.9-3.3-4.9v-0.9h8.8
			c4.4,0,6.8,2.2,6.8,5.3c0,2.6-2,4.7-5.1,5.1L302.3,358.1z M298,346.1h-2.4v7.4h2.4c2.4,0,3.5-1.6,3.5-3.6
			C301.5,347.8,300.4,346.1,298,346.1z"/>
		
			<linearGradient id="SVGID_00000090987736178894595490000018399864469848316571_" gradientUnits="userSpaceOnUse" x1="312.9768" y1="186.2298" x2="329.2318" y2="169.9747" gradientTransform="matrix(1 0 0 -1 0 531.8401)">
			<stop  offset="0" style="stop-color:#866633"/>
			<stop  offset="1.712275e-03" style="stop-color:#896835"/>
			<stop  offset="1.460000e-02" style="stop-color:#9A7740"/>
			<stop  offset="3.050000e-02" style="stop-color:#A58147"/>
			<stop  offset="5.300000e-02" style="stop-color:#AC864C"/>
			<stop  offset="0.1154" style="stop-color:#AE884D"/>
			<stop  offset="0.1958" style="stop-color:#B18C51"/>
			<stop  offset="0.2825" style="stop-color:#BA995E"/>
			<stop  offset="0.3722" style="stop-color:#C8AE74"/>
			<stop  offset="0.4634" style="stop-color:#DCCC92"/>
			<stop  offset="0.4973" style="stop-color:#E5D99F"/>
			<stop  offset="0.6477" style="stop-color:#D7C58A"/>
			<stop  offset="0.9563" style="stop-color:#B39055"/>
			<stop  offset="1" style="stop-color:#AE884D"/>
			<stop  offset="1" style="stop-color:#B38F54"/>
			<stop  offset="1" style="stop-color:#E5D99F"/>
			<stop  offset="1" style="stop-color:#CFAD7B"/>
			<stop  offset="1" style="stop-color:#C69C6D"/>
			<stop  offset="1" style="stop-color:#A58150"/>
			<stop  offset="1" style="stop-color:#8E6D3B"/>
			<stop  offset="1" style="stop-color:#866633"/>
		</linearGradient>
		<path style="fill:url(#SVGID_00000090987736178894595490000018399864469848316571_);" d="M314,362.1c2.8,0,3.3-0.7,3.3-5v-6.8
			c0-4.2-0.5-4.9-3.3-4.9v-0.9h9c7.2,0,10.3,4.2,10.3,9.2c0,5-3.1,9.2-10.3,9.2h-9V362.1z M323.1,346.1c-0.2,0-2,0-2.8,0v12
			c0,2.8,0.3,3.2,2.4,3.2h0.3c5.6,0,6.7-4.2,6.7-7.6C329.8,350.4,328.7,346.1,323.1,346.1z"/>
		
			<linearGradient id="SVGID_00000034050672294025783710000018356464652741976229_" gradientUnits="userSpaceOnUse" x1="342.0456" y1="184.2415" x2="354.9222" y2="171.3649" gradientTransform="matrix(1 0 0 -1 0 531.8401)">
			<stop  offset="0" style="stop-color:#866633"/>
			<stop  offset="1.712275e-03" style="stop-color:#896835"/>
			<stop  offset="1.460000e-02" style="stop-color:#9A7740"/>
			<stop  offset="3.050000e-02" style="stop-color:#A58147"/>
			<stop  offset="5.300000e-02" style="stop-color:#AC864C"/>
			<stop  offset="0.1154" style="stop-color:#AE884D"/>
			<stop  offset="0.1958" style="stop-color:#B18C51"/>
			<stop  offset="0.2825" style="stop-color:#BA995E"/>
			<stop  offset="0.3722" style="stop-color:#C8AE74"/>
			<stop  offset="0.4634" style="stop-color:#DCCC92"/>
			<stop  offset="0.4973" style="stop-color:#E5D99F"/>
			<stop  offset="0.6477" style="stop-color:#D7C58A"/>
			<stop  offset="0.9563" style="stop-color:#B39055"/>
			<stop  offset="1" style="stop-color:#AE884D"/>
			<stop  offset="1" style="stop-color:#B38F54"/>
			<stop  offset="1" style="stop-color:#E5D99F"/>
			<stop  offset="1" style="stop-color:#CFAD7B"/>
			<stop  offset="1" style="stop-color:#C69C6D"/>
			<stop  offset="1" style="stop-color:#A58150"/>
			<stop  offset="1" style="stop-color:#8E6D3B"/>
			<stop  offset="1" style="stop-color:#866633"/>
		</linearGradient>
		<path style="fill:url(#SVGID_00000034050672294025783710000018356464652741976229_);" d="M349.1,363.6c-2.2,0-4-1.1-4.8-1.6
			c-0.3,0.3-0.7,0.9-0.8,1.6h-0.8v-7.3h0.8c0.3,3.6,2.6,5.6,5.8,5.6c1.8,0,3.3-1,3.3-2.8c0-1.5-1.2-2.6-3.5-3.8l-2.9-1.5
			c-2-1.1-3.5-2.8-3.5-5.2c0-2.7,2.2-4.8,5.3-4.8c1.7,0,3.1,0.6,4,1.3c0.2-0.2,0.5-0.6,0.7-1.3h0.8v7.2h-0.8
			c-0.3-2.5-1.4-5.5-4.5-5.5c-1.7,0-3,0.9-3,2.5c0,1.5,1.1,2.3,3.7,3.6l2.8,1.5c2.4,1.2,3.3,3.1,3.3,4.8
			C355.1,361.3,352.4,363.6,349.1,363.6z"/>
	</g>
</g>
</svg>
