<?xml version="1.0" encoding="UTF-8"?><svg id="Layer_1" xmlns="http://www.w3.org/2000/svg" viewBox="0 0 30 30"><defs><style>.cls-1{fill:#B59C77;}</style></defs><path class="cls-1" d="M9.39,25.05c-.62,0-1.13-.51-1.13-1.13V14.76h-.57c-.63,0-1.14-.51-1.14-1.13v-2.57c0-.62,.5-1.13,1.13-1.13h4.33l-.13-.18c-.4-.56-.6-1.13-.6-1.69,0-1.33,1.08-2.41,2.41-2.41,.81,0,1.7,.47,2.15,1.15,.56-.73,1.37-1.15,2.14-1.15,1.33,0,2.41,1.08,2.41,2.41,0,.59-.22,1.16-.63,1.61l-.17,.19,4.39,.08c.62,0,1.13,.51,1.13,1.13v2.57c0,.62-.5,1.13-1.12,1.13h-.43l-.16,9.17c0,.62-.5,1.13-1.13,1.13H9.39Zm-.59-1.13c0,.32,.27,.59,.59,.59h5.23V14.76h-5.83v9.17Zm8.07,.59h5.39c.33,0,.59-.26,.59-.59V14.76h-5.98v9.76Zm-1.64-14.05v14.05h1.01V10.47h-1.01Zm-7.56,0c-.33,0-.59,.26-.59,.59v2.57c0,.33,.26,.59,.59,.59h6.95v-3.75H7.67Zm9.2,3.75h7.1c.33,0,.59-.26,.59-.59v-2.57c0-.33-.26-.59-.59-.59h-7.1v3.75Zm-3.19-8.04c-1.04,0-1.88,.84-1.88,1.88s.84,1.88,1.88,1.88h1.88v-1.87c0-1.04-.84-1.88-1.88-1.88Zm4.29,0c-1.04,0-1.88,.84-1.88,1.88v1.88h1.87c1.04,0,1.88-.84,1.88-1.88s-.84-1.88-1.88-1.88Z"/><path class="cls-1" d="M21.15,19.13c-1.87,0-3.39,1.52-3.39,3.39s1.52,3.39,3.39,3.39,3.39-1.52,3.39-3.39-1.52-3.39-3.39-3.39Zm1.35,3.63h-1.11v1.11c0,.14-.11,.25-.25,.25s-.25-.11-.25-.25v-1.11h-1.11c-.14,0-.25-.11-.25-.25s.11-.25,.25-.25h1.11v-1.11c0-.14,.11-.25,.25-.25s.25,.11,.25,.25v1.11h1.11c.14,0,.25,.11,.25,.25s-.11,.25-.25,.25Z"/></svg>