<?xml version="1.0" encoding="UTF-8"?><svg id="Layer_1" xmlns="http://www.w3.org/2000/svg" viewBox="0 0 20 20"><defs><style>.cls-1{fill:#9C7D50;}</style></defs><path class="cls-1" d="M18.5,4.34h-3.41l.17-.34c.03-.06,.06-.12,.08-.18,.17-.43,.21-.91,.1-1.34-.11-.44-.31-.81-.6-1.1-.27-.27-.6-.46-.99-.56-.21-.06-.43-.08-.66-.08-.28,0-.56,.04-.84,.13-.51,.15-.97,.43-1.33,.81-.31,.32-.58,.72-.81,1.2l-.21,.43-.21-.43c-.23-.48-.5-.87-.81-1.2-.36-.38-.82-.65-1.33-.81-.28-.08-.56-.13-.84-.13-.23,0-.45,.03-.66,.08-.39,.1-.72,.29-.99,.56-.29,.29-.49,.66-.6,1.1-.11,.43-.07,.91,.1,1.34,.02,.06,.05,.12,.08,.17l.18,.35H1.51c-.38,0-.69,.31-.69,.69v2.77c0,.37,.3,.67,.67,.67h.44v10.13c0,.38,.31,.68,.68,.68h14.77c.38,0,.69-.31,.69-.69V8.46h.42c.38,0,.68-.31,.68-.68v-2.76c0-.38-.31-.68-.68-.68Zm-7.97-.31c.17-.52,.47-1.27,1.03-1.85,.42-.44,1.02-.7,1.62-.7,.16,0,.32,.02,.47,.06,.54,.14,.91,.53,1.06,1.12,.15,.59-.12,1.26-.62,1.54l-.31,.14h-3.35l.11-.31Zm-5.26-1.37c.15-.59,.51-.98,1.05-1.12,.15-.04,.31-.06,.47-.06,.6,0,1.2,.26,1.62,.7,.56,.58,.85,1.34,1.03,1.86l.11,.31-3.46-.03-.21-.11c-.5-.29-.77-.95-.62-1.54Zm12.03,5.86h-6.96v10.01h-.7V8.51H2.66v-.7h6.98v-2.75h.7v2.75h6.96v.7Z"/></svg>