<?xml version="1.0" encoding="UTF-8"?><svg id="Layer_1" xmlns="http://www.w3.org/2000/svg" viewBox="0 0 30 30"><defs><style>.cls-1{fill:#B59C77;}</style></defs><path class="cls-1" d="M9.69,24.98c-.88,0-1.59-.72-1.59-1.61V7.65c0-.89,.71-1.61,1.59-1.61h8.69c.07,0,.13,.02,.17,.07l1.04,.96c-.08,.03-.18,.08-.26,.15-.07,.04-.12,.11-.16,.17l-.88-.82-8.61-.02c-.59,0-1.08,.49-1.08,1.09v15.73c0,.6,.48,1.09,1.08,1.09h11.31c.59,0,1.08-.49,1.08-1.09V10.09l-.4-.4s.03,0,.05,0c.06,0,.12-.04,.17-.09,.08-.07,.15-.17,.21-.25l.41,.4c.05,.05,.08,.12,.08,.19v13.42c0,.89-.71,1.61-1.59,1.61H9.69Z"/><rect class="cls-1" x="12.16" y="13.18" width="8.25" height=".5"/><rect class="cls-1" x="10.53" y="12.95" width=".95" height=".9"/><rect class="cls-1" x="12.16" y="15.63" width="8.25" height=".5"/><rect class="cls-1" x="10.53" y="15.4" width=".95" height=".9"/><rect class="cls-1" x="12.16" y="18.06" width="8.25" height=".5"/><rect class="cls-1" x="10.53" y="17.83" width=".95" height=".9"/><rect class="cls-1" x="12.16" y="20.45" width="8.25" height=".5"/><rect class="cls-1" x="10.53" y="20.22" width=".95" height=".9"/><path class="cls-1" d="M20.46,5.02c-1.87,0-3.39,1.52-3.39,3.39s1.52,3.39,3.39,3.39,3.39-1.52,3.39-3.39-1.52-3.39-3.39-3.39Zm1.35,3.63h-1.11v1.11c0,.14-.11,.25-.25,.25s-.25-.11-.25-.25v-1.11h-1.11c-.14,0-.25-.11-.25-.25s.11-.25,.25-.25h1.11v-1.11c0-.14,.11-.25,.25-.25s.25,.11,.25,.25v1.11h1.11c.14,0,.25,.11,.25,.25s-.11,.25-.25,.25Z"/></svg>