<?xml version="1.0" encoding="UTF-8"?><svg id="Layer_1" xmlns="http://www.w3.org/2000/svg" viewBox="0 0 30 30"><defs><style>.cls-1{fill:#B59C77;}</style></defs><path class="cls-1" d="M21.11,4.17l-.36,1.42-1.42,.36,1.42,.36,.36,1.42,.36-1.42,1.42-.36-1.42-.36-.36-1.42Zm2.24-.51l-.18,.71-.71,.18,.71,.18,.18,.71,.18-.71,.71-.18-.71-.18-.18-.71Zm-10.76,2.67c-1.47,0-2.67,1.2-2.67,2.67,0,.69,.27,1.3,.69,1.78H6.37c-.74,0-1.33,.6-1.33,1.33v2.67c0,.74,.6,1.33,1.33,1.33h.44v9.33c0,.74,.6,1.33,1.33,1.33h13.33c.74,0,1.33-.6,1.33-1.33v-9.33h.44c.74,0,1.33-.6,1.33-1.33v-2.67c0-.74-.6-1.33-1.33-1.33h-4.25c.43-.47,.69-1.09,.69-1.78,0-1.47-1.2-2.67-2.67-2.67-.93,0-1.74,.48-2.22,1.2-.48-.72-1.29-1.2-2.22-1.2Zm0,.89c.98,0,1.78,.8,1.78,1.78v1.78h-1.78c-.98,0-1.78-.8-1.78-1.78s.8-1.78,1.78-1.78Zm4.44,0c.98,0,1.78,.8,1.78,1.78s-.8,1.78-1.78,1.78h-1.78v-1.78c0-.98,.8-1.78,1.78-1.78Zm5.78,0l-.18,.71-.71,.18,.71,.18,.18,.71,.18-.71,.71-.18-.71-.18-.18-.71Zm-16.18-.74l-.29,1.17-1.17,.29,1.17,.29,.29,1.17,.29-1.17,1.17-.29-1.17-.29-.29-1.17Zm1.69-1.32l-.18,.71-.71,.18,.71,.18,.18,.71,.18-.71,.71-.18-.71-.18-.18-.71Zm-1.96,6.5h7.11v3.56H6.37c-.25,0-.44-.2-.44-.44v-2.67c0-.24,.2-.44,.44-.44Zm8,0h.89v14.22h-.89V11.67Zm1.78,0h7.11c.25,0,.44,.2,.44,.44v2.67c0,.24-.2,.44-.44,.44h-7.11v-3.56Zm-8.44,4.44h5.78v9.78h-5.33c-.25,0-.45-.2-.45-.44v-9.33Zm8.44,0h5.78v9.33c0,.24-.2,.44-.44,.44h-5.33v-9.78Z"/></svg>