<?xml version="1.0" encoding="UTF-8"?><svg id="Layer_1" xmlns="http://www.w3.org/2000/svg" viewBox="0 0 30 30"><defs><style>.cls-1,.cls-2{fill:#B59C77;}.cls-2{fill-rule:evenodd;}</style></defs><path class="cls-1" d="M13.44,13.91h-4.61c-.39,0-.71-.32-.71-.71v-4.61c0-.39,.32-.71,.71-.71h4.61c.39,0,.71,.32,.71,.71v4.61c0,.39-.32,.71-.71,.71Zm-4.61-5.53c-.12,0-.21,.09-.21,.21v4.61c0,.12,.09,.21,.21,.21h4.61c.12,0,.21-.09,.21-.21v-4.61c0-.12-.09-.21-.21-.21h-4.61Z"/><path class="cls-1" d="M22.11,13.95h-1.05c-.14,0-.25-.11-.25-.25s.11-.25,.25-.25h1.02c.14,0,.26,.11,.26,.25s-.1,.25-.24,.25Zm-2.07,0h-1.02c-.14,0-.25-.11-.25-.25s.11-.25,.25-.25h1.02c.14,0,.25,.11,.25,.25s-.11,.25-.25,.25Zm-2.04,0h-1.02c-.14,0-.25-.11-.25-.25s.11-.25,.25-.25h1.02c.14,0,.25,.11,.25,.25s-.11,.25-.25,.25Zm-2.04,0h-.06c-.47,0-.86-.38-.87-.86,0-.14,.11-.25,.25-.25h0c.14,0,.25,.11,.25,.25,0,.2,.17,.37,.37,.37,.14,0,.28,.11,.28,.25s-.08,.25-.22,.25Zm6.75-.7c-.14,0-.25-.11-.25-.25v-1.02c0-.14,.11-.25,.25-.25s.25,.11,.25,.25v1.02c0,.14-.11,.25-.25,.25Zm-7.43-.94c-.14,0-.25-.11-.25-.25v-1.02c0-.14,.11-.25,.25-.25s.25,.11,.25,.25v1.02c0,.14-.11,.25-.25,.25Zm7.43-1.11c-.14,0-.25-.11-.25-.25v-1.02c0-.14,.11-.25,.25-.25s.25,.11,.25,.25v1.02c0,.14-.11,.25-.25,.25Zm-7.43-.94c-.14,0-.25-.11-.25-.25v-1.02c0-.14,.11-.25,.25-.25s.25,.11,.25,.25v1.02c0,.14-.11,.25-.25,.25Zm7.43-1.11c-.14,0-.25-.11-.25-.25v-1.02c0-.14,.11-.25,.25-.25s.25,.11,.25,.25v1.02c0,.14-.11,.25-.25,.25Zm-7.43-.94c-.14,0-.25-.11-.25-.25v-1.02c0-.14,.11-.25,.25-.25s.25,.11,.25,.25v1.02c0,.14-.11,.25-.25,.25Zm7.43-1.11c-.13,0-.25-.11-.25-.24,0-.2-.17-.36-.37-.36h-.07c-.14,0-.25-.11-.25-.25s.11-.25,.25-.25h.07c.46,0,.85,.38,.87,.84,0,.14-.1,.25-.24,.26h0Zm-1.71-.6h-1.02c-.14,0-.25-.11-.25-.25s.11-.25,.25-.25h1.02c.14,0,.25,.11,.25,.25s-.11,.25-.25,.25Zm-2.04,0h-1.02c-.14,0-.25-.11-.25-.25s.11-.25,.25-.25h1.02c.14,0,.25,.11,.25,.25s-.11,.25-.25,.25Zm-2.04,0h-1.01c-.14,0-.26-.11-.26-.25s.11-.25,.24-.25h1.02c.14,0,.25,.11,.25,.25s-.11,.25-.25,.25Z"/><path class="cls-1" d="M13.74,22.73H7.54c-.48,0-.87-.39-.87-.87v-6.19c0-.48,.39-.87,.87-.87h6.19c.48,0,.87,.39,.87,.87v6.19c0,.48-.39,.87-.87,.87Zm-6.19-7.43c-.2,0-.37,.17-.37,.37v6.19c0,.2,.17,.37,.37,.37h6.19c.2,0,.37-.17,.37-.37v-6.19c0-.2-.17-.37-.37-.37H7.54Z"/><path class="cls-2" d="M18.86,14.93c-1.87,0-3.39,1.52-3.39,3.39s1.52,3.39,3.39,3.39,3.39-1.52,3.39-3.39-1.52-3.39-3.39-3.39Zm1.08,3.51c-.31,.35-.8,.49-1.2,.55l.07,.6s-.01,.06-.04,.08c-.03,.02-.06,.02-.09,0l-1.46-.73h0s-.04-.04-.04-.06,0-.05,.02-.07l1.26-1.02s.06-.03,.09-.02c.03,.01,.05,.04,.06,.07l.07,.63c.99-.12,1.16-.51,1.17-1.43,0-.02,.48-.09,.48-.07,.02,.66-.04,1.1-.39,1.47Z"/></svg>