<?xml version="1.0" encoding="UTF-8"?><svg id="Layer_1" xmlns="http://www.w3.org/2000/svg" viewBox="0 0 20 20"><defs><style>.cls-1{fill:#171717;}</style></defs><path class="cls-1" d="M2.61,19.27c-.38,0-.68-.31-.68-.68V8.46h-.44c-.37,0-.67-.3-.67-.67v-2.77c0-.38,.31-.69,.69-.69h3.39l-.18-.35c-.03-.06-.06-.12-.08-.17-.17-.43-.21-.91-.1-1.34,.11-.44,.31-.81,.6-1.1,.27-.27,.6-.46,.99-.56,.21-.06,.43-.08,.66-.08,.28,0,.56,.04,.84,.13,.51,.15,.97,.43,1.33,.81,.31,.33,.58,.72,.81,1.2l.21,.43,.21-.43c.23-.48,.5-.87,.81-1.2,.36-.38,.82-.65,1.33-.81,.28-.08,.56-.13,.84-.13,.23,0,.45,.03,.66,.08,.38,.1,.72,.29,.99,.56,.29,.29,.49,.66,.6,1.1,.11,.43,.07,.91-.1,1.34-.02,.06-.05,.12-.08,.18l-.17,.34h3.41c.38,0,.68,.3,.68,.68v2.76c0,.38-.31,.68-.68,.68h-.42v10.12c0,.38-.31,.69-.69,.69H2.61Zm7.75-.75h6.97V8.58h-6.97v9.94Zm-7.69,0h6.94V8.58H2.67v9.94ZM10.36,7.75h8.1v-2.69H10.36v2.69ZM1.53,7.75H9.61v-2.69H1.53v2.69ZM13.18,1.47c-.6,0-1.21,.26-1.62,.7-.56,.58-.85,1.34-1.03,1.85l-.11,.31h3.35l.31-.14c.51-.29,.77-.95,.62-1.54-.15-.59-.51-.98-1.06-1.12-.15-.04-.31-.06-.47-.06Zm-6.38,0c-.17,0-.32,.02-.47,.06-.54,.14-.91,.53-1.05,1.12-.15,.59,.12,1.26,.62,1.54l.21,.11,3.46,.03-.11-.31c-.17-.52-.47-1.27-1.03-1.86-.42-.44-1.02-.7-1.62-.7Z"/></svg>