<?xml version="1.0" encoding="UTF-8"?><svg id="Layer_1" xmlns="http://www.w3.org/2000/svg" viewBox="0 0 30 30"><defs><style>.cls-1{fill:#B59C77;}</style></defs><g><path class="cls-1" d="M22.22,9.39l-3.99-3.69s-.1-.06-.16-.06H9.29c-.88,0-1.59,.72-1.59,1.61v15.19c.14-.08,.29-.12,.48-.13V7.24c0-.62,.5-1.12,1.11-1.12l8.7,.02,3.82,3.57v13.41c0,.62-.5,1.12-1.11,1.12H9.29c-.07,0-.13-.03-.2-.04-.13,.16-.33,.26-.56,.32,.23,.13,.48,.2,.76,.2h11.42c.88,0,1.59-.72,1.59-1.61V9.57c0-.07-.03-.13-.08-.18Z"/><path class="cls-1" d="M18.89,9.81c-.59,0-1.07-.49-1.07-1.08v-2.85c0-.13,.11-.24,.24-.24s.24,.11,.24,.24v2.85c0,.33,.26,.6,.59,.6h3.16c.13,0,.24,.11,.24,.24s-.11,.24-.24,.24h-3.16Z"/></g><path class="cls-1" d="M9.86,19.76c-1.87,0-3.39,1.52-3.39,3.39s1.52,3.39,3.39,3.39,3.39-1.52,3.39-3.39-1.52-3.39-3.39-3.39Zm1.67,3l-1.3,1.04s-.06,.02-.09,0c-.03-.01-.05-.04-.05-.07v-.59c-.47-.03-1.29,.16-1.62,1.08,0,.02-.03,.03-.05,.03,0,0,0,0,0,0-.02,0-.04-.03-.04-.05,.02-.66,.21-1.14,.59-1.46,.32-.27,.73-.39,1.13-.51v-.59s.02-.06,.05-.07c.03-.01,.06,0,.09,0l1.3,1.04h0s.03,.04,.03,.06-.01,.05-.03,.06Z"/><path class="cls-1" d="M18.26,12.78h-1.23l.03-.06s.02-.05,.03-.07c.07-.18,.08-.37,.04-.55-.04-.18-.13-.33-.25-.45-.11-.11-.25-.19-.4-.23-.19-.05-.4-.04-.6,.02-.2,.06-.39,.17-.53,.32-.12,.13-.23,.28-.32,.47l-.04,.07-.04-.07c-.09-.19-.2-.34-.32-.47-.14-.15-.33-.26-.53-.32-.21-.06-.42-.07-.6-.02-.16,.04-.29,.12-.4,.23-.12,.12-.2,.27-.25,.45-.04,.18-.03,.37,.04,.55,0,.02,.02,.05,.03,.07l.03,.06h-1.22c-.17,0-.32,.14-.32,.32v1.06c0,.17,.14,.31,.31,.31h.12v3.84c0,.17,.14,.31,.31,.31h5.67c.17,0,.32-.14,.32-.32v-3.83h.11c.17,0,.31-.14,.31-.31v-1.06c0-.17-.14-.31-.31-.31Zm-.5,1.73v3.72h-2.57v-3.72h2.57Zm-2.53-1.73l.02-.05c.07-.2,.18-.48,.38-.69,.19-.2,.5-.3,.75-.23,.19,.05,.32,.18,.37,.39,.05,.21-.04,.44-.21,.54l-.11,.05h-1.2Zm2.97,.38v.93h-3.01v-.93h3.01Zm-3.4,1.35v3.72h-2.56v-3.72h2.56Zm-1.57-2.31c.05-.21,.18-.34,.37-.39,.25-.06,.56,.03,.76,.23,.21,.22,.32,.5,.38,.69l.02,.05h-1.25s-.07-.04-.07-.04c-.17-.1-.27-.33-.21-.54Zm1.57,.96v.93h-3v-.93h3Z"/></svg>