<svg id="email" xmlns="http://www.w3.org/2000/svg" xmlns:xlink="http://www.w3.org/1999/xlink" width="17.601" height="14.305" viewBox="0 0 17.601 14.305">
  <defs>
    <clipPath id="clip-path">
      <rect id="Rectangle_1339" data-name="Rectangle 1339" width="17.601" height="14.305" transform="translate(0 0)" fill="#4c4c4c"/>
    </clipPath>
  </defs>
  <g id="Group_1363" data-name="Group 1363" transform="translate(0 0)">
    <g id="Group_1362" data-name="Group 1362" clip-path="url(#clip-path)">
      <path id="Path_344" data-name="Path 344" d="M17.226,14.305H.375A.375.375,0,0,1,0,13.93V.375A.375.375,0,0,1,.375,0H17.226A.375.375,0,0,1,17.6.375V13.93a.375.375,0,0,1-.375.375M.75,13.555h16.1V.75H.75Z" fill="#4c4c4c"/>
      <path id="Path_345" data-name="Path 345" d="M8.824,9.3a.376.376,0,0,1-.27-.114L.3.636A.375.375,0,0,1,.565,0H17.034a.375.375,0,0,1,.27.635L9.1,9.184a.377.377,0,0,1-.27.115ZM1.449.75,8.823,8.383,16.154.75Z" fill="#4c4c4c"/>
    </g>
  </g>
</svg>
