<svg id="link" xmlns="http://www.w3.org/2000/svg" xmlns:xlink="http://www.w3.org/1999/xlink" width="16.39" height="16.361" viewBox="0 0 16.39 16.361">
  <defs>
    <clipPath id="clip-path">
      <rect id="Rectangle_1340" data-name="Rectangle 1340" width="16.39" height="16.361" transform="translate(0 0)" fill="#4c4c4c"/>
    </clipPath>
  </defs>
  <g id="Group_1365" data-name="Group 1365" transform="translate(0 0)">
    <g id="Group_1364" data-name="Group 1364" clip-path="url(#clip-path)">
      <path id="Path_346" data-name="Path 346" d="M2.714,16.361A2.714,2.714,0,0,1,.793,11.727L5.9,6.617a2.72,2.72,0,0,1,3.842,0,.4.4,0,1,1-.564.566,1.918,1.918,0,0,0-2.711,0l-5.11,5.11A1.916,1.916,0,0,0,1.36,15a1.972,1.972,0,0,0,2.709,0l3.04-3.04a.4.4,0,0,1,.565.566L4.635,15.568a2.7,2.7,0,0,1-1.921.793" fill="#4c4c4c"/>
      <path id="Path_347" data-name="Path 347" d="M8.565,10.512a2.708,2.708,0,0,1-1.92-.794.4.4,0,1,1,.565-.566,1.916,1.916,0,0,0,2.709,0l5.111-5.11a1.917,1.917,0,0,0,0-2.709,1.97,1.97,0,0,0-2.709,0l-2.9,2.9a.4.4,0,1,1-.566-.567L11.754.767a2.789,2.789,0,0,1,3.842,0,2.72,2.72,0,0,1,0,3.841l-5.11,5.11a2.709,2.709,0,0,1-1.921.794" fill="#4c4c4c"/>
    </g>
  </g>
</svg>
