<svg id="Layer_1" data-name="Layer 1" xmlns="http://www.w3.org/2000/svg" viewBox="0 0 40 40"><path d="M26.9,25.4A4.4,4.4,0,0,0,24,26.5l-7.2-4.6a3.3,3.3,0,0,0,.4-1.7,4.7,4.7,0,0,0-.3-1.7L24,13.9a4.5,4.5,0,0,0,2.9,1.2,4.2,4.2,0,1,0-4.1-4.2,4.1,4.1,0,0,0,.3,1.6L16,17.2A4,4,0,0,0,13.1,16a4.2,4.2,0,1,0,2.7,7.3l7.3,4.6a4.5,4.5,0,0,0-.3,1.6,4.2,4.2,0,1,0,4.1-4.1Zm0-16.9A2.5,2.5,0,1,1,24.4,11,2.5,2.5,0,0,1,26.9,8.5ZM13.1,22.7a2.5,2.5,0,0,1-2.5-2.5,2.5,2.5,0,0,1,5,0A2.5,2.5,0,0,1,13.1,22.7ZM26.9,32a2.5,2.5,0,1,1,2.5-2.5A2.5,2.5,0,0,1,26.9,32Z"/></svg>