<svg xmlns="http://www.w3.org/2000/svg" viewBox="0 0 32 32"><defs><style>.cls-1{fill:#066c9a;}</style></defs><title>share</title><g id="Vector_Graphics" data-name="Vector Graphics"><path class="cls-1" d="M17,14.8Z"/><path class="cls-1" d="M16,0A16,16,0,1,0,32,16,16,16,0,0,0,16,0ZM11.6,23.6H8.2V13.3h3.4ZM9.9,11.9h0A1.8,1.8,0,0,1,8,10.1,1.7,1.7,0,0,1,9.9,8.4a1.8,1.8,0,0,1,2,1.7A1.8,1.8,0,0,1,9.9,11.9ZM24,23.6H20.6V18.1c0-1.4-.5-2.3-1.8-2.3A1.8,1.8,0,0,0,17.1,17a2.8,2.8,0,0,0-.1.9v5.7H13.5s.1-9.3,0-10.3H17v1.5a3.3,3.3,0,0,1,3.1-1.7c2.2,0,3.9,1.5,3.9,4.6Z"/></g></svg>