<svg id="Layer_1" data-name="Layer 1" xmlns="http://www.w3.org/2000/svg" viewBox="0 0 40 40"><defs><style>.cls-1,.cls-2{fill:#ab0853;}.cls-1{fill-rule:evenodd;}.cls-2{stroke:#fff;stroke-miterlimit:10;stroke-width:0.5px;}.cls-3{fill:#fff;}</style></defs><path class="cls-1" d="M26.5,20.3a.4.4,0,0,1-.4.4H13.9a.4.4,0,0,1-.4-.4c0-.2.2-.3.4-.3H26.1C26.3,20,26.5,20.1,26.5,20.3Zm0,2.7a.4.4,0,0,1-.4.4H13.9a.4.4,0,0,1-.4-.4c0-.2.2-.3.4-.3H26.1C26.3,22.7,26.5,22.8,26.5,23Zm0,2.7a.4.4,0,0,1-.4.4H13.9a.4.4,0,0,1,0-.8H26.1A.4.4,0,0,1,26.5,25.7Zm-6.4,3.1H13.9a.4.4,0,0,1,0-.8h6.2a.4.4,0,0,1,0,.8ZM14.2,18Zm6.3-.3v.2c-.1,0-.1,0-.1.1H14.2a.4.4,0,0,1-.1-.3h0a3.4,3.4,0,0,1,.5-1.7A4.5,4.5,0,0,1,16,15h0a.4.4,0,0,1,.5.2h0l.3.5h1l.3-.4h0c.1-.1.3-.3.5-.2h0A4.5,4.5,0,0,1,20,16a3.4,3.4,0,0,1,.5,1.7Zm-2-3.6a1.7,1.7,0,0,1-2.4,0,2.1,2.1,0,0,1-.5-1.3,1.8,1.8,0,0,1,.5-1.2,1.7,1.7,0,0,1,2.4,0,1.8,1.8,0,0,1,.5,1.2A2.1,2.1,0,0,1,18.5,14.1ZM11.4,8.6V31.4c0,.3.1.4.3.4H28.3c.2,0,.3-.1.3-.4V11.9c0-.1,0-.2-.1-.2L25.2,8.3H11.7C11.5,8.2,11.4,8.3,11.4,8.6Z"/><circle class="cls-2" cx="25.6" cy="31.1" r="3.1"/><path class="cls-3" d="M26.8,30.9H25.7V29.8a.1.1,0,0,0-.1-.1c-.1,0-.2,0-.2.1v1.1h-1a.2.2,0,0,0-.2.2h1.2v1.2h.3V31.2h1.2A.3.3,0,0,0,26.8,30.9Z"/><path class="cls-3" d="M25.6,32.6a.2.2,0,0,1-.2-.2V31.3h-1l-.2-.2a.2.2,0,0,1,.2-.2h1V29.8a.2.2,0,0,1,.4,0v1.1h1a.2.2,0,0,1,.2.2l-.2.2h-1v1.1A.2.2,0,0,1,25.6,32.6ZM24.4,31a.1.1,0,0,0-.1.1h1.2v1.2h.1V31.2h0V29.8h0a.1.1,0,0,0-.1.1V31Z"/></svg>