<?xml version="1.0" encoding="utf-8"?>
<!-- Generator: Adobe Illustrator 26.4.0, SVG Export Plug-In . SVG Version: 6.00 Build 0)  -->
<svg version="1.1" id="Layer_1" xmlns="http://www.w3.org/2000/svg" xmlns:xlink="http://www.w3.org/1999/xlink" x="0px" y="0px"
	 viewBox="0 0 30 30" style="enable-background:new 0 0 30 30;" xml:space="preserve">
<style type="text/css">
	.st0{fill:#548B8B;}
</style>
<path class="st0" d="M29.4,4.8l-0.6-0.6l-5,5l-0.3-0.5c-2.2-3.8-6.3-6.2-10.7-6.2c0,0,0,0,0,0C9.5,2.6,6.4,3.9,4,6.2
	C1.7,8.5,0.4,11.7,0.4,15c0,6.9,5.6,12.4,12.4,12.5c0,0,0,0,0,0c3.3,0,6.4-1.3,8.8-3.6c2.4-2.3,3.7-5.5,3.7-8.8v0
	c0-1.6-0.3-3.2-0.9-4.7L24.2,10L29.4,4.8L29.4,4.8z M12.5,20.6l-7-7l-0.1-0.1l-0.5,0.6l7.6,7.6l0.1,0.1l11.1-11.1l0.2,0.7
	c0.4,1.2,0.6,2.5,0.6,3.7c0,3.1-1.2,6-3.4,8.2c-2.2,2.2-5.1,3.4-8.2,3.4C6.4,26.6,1.2,21.4,1.2,15c0-6.4,5.2-11.6,11.6-11.6
	c0,0,0,0,0,0c4.3,0,8.2,2.4,10.2,6.2l0.2,0.3L12.5,20.6z"/>
</svg>
