<svg id="Layer_1" data-name="Layer 1" xmlns="http://www.w3.org/2000/svg" viewBox="0 0 30 30"><defs><style>.cls-1{fill:none;}</style></defs>
    <path class="cls-1" d="M12.46,23,3.53,14.11,5.4,12.24l7.07,7.06,9.64-9.6A10.69,10.69,0,1,0,23.52,15a11.07,11.07,0,0,0-.33-2.66Z"/><path d="M24.13,10l5.16-5.16-.46-.46-5,5-.33-.56A12.28,12.28,0,0,0,12.84,2.64,12.36,12.36,0,1,0,25.18,15a12.24,12.24,0,0,0-.92-4.71ZM12.84,26.7A11.68,11.68,0,1,1,23.17,9.55l.18.33L12.46,20.71,5.4,13.65,5,14.11l7.52,7.52L23.66,10.48l.25.77A12.38,12.38,0,0,1,24.52,15,11.69,11.69,0,0,1,12.84,26.7Z"/>
</svg>