<svg id="Layer_1" data-name="Layer 1" xmlns="http://www.w3.org/2000/svg" viewBox="0 0 30 30">
    <path d="M23.27.25H15a.27.27,0,0,0-.28.27v29a.27.27,0,0,0,.28.27h8.26a.27.27,0,0,0,.27-.27V.52A.27.27,0,0,0,23.27.25Zm-.26,29H15.27V24.58h3.87a.27.27,0,0,0,.27-.27.28.28,0,0,0-.27-.27H15.27V21.47h1.8a.26.26,0,0,0,.27-.26.28.28,0,0,0-.27-.27h-1.8V18.37h3.87a.26.26,0,0,0,.27-.27.27.27,0,0,0-.27-.26H15.27V15.27h1.8a.27.27,0,0,0,.27-.27.28.28,0,0,0-.27-.27h-1.8V12.16h3.87a.26.26,0,0,0,.27-.26.28.28,0,0,0-.27-.27H15.27V9.06h1.8a.27.27,0,0,0,.27-.27.27.27,0,0,0-.27-.26h-1.8V6h3.87a.27.27,0,0,0,.27-.27.28.28,0,0,0-.27-.27H15.27V.78H23Z"/><path d="M13.16,8.25,10.06,3a.26.26,0,0,0-.23-.13A.25.25,0,0,0,9.6,3L6.49,8.25a.32.32,0,0,0,0,.14V27.92a1.82,1.82,0,0,0,1.82,1.83h3.1a1.83,1.83,0,0,0,1.82-1.83V8.39A.32.32,0,0,0,13.16,8.25Zm-.5,19.67a1.27,1.27,0,0,1-1.28,1.3H8.28A1.3,1.3,0,0,1,7,27.92V25.61h5.67ZM7,25.08v-16H9.56v16Zm3.1,0v-16h2.57v16ZM7,8.53,9.82,3.62l2.86,4.91Z"/>
</svg>