<?xml version="1.0" encoding="utf-8"?>
<!-- Generator: Adobe Illustrator 26.4.0, SVG Export Plug-In . SVG Version: 6.00 Build 0)  -->
<svg version="1.1" id="Layer_1" xmlns="http://www.w3.org/2000/svg" xmlns:xlink="http://www.w3.org/1999/xlink" x="0px" y="0px"
	 viewBox="0 0 30 30" style="enable-background:new 0 0 30 30;" xml:space="preserve">
<style type="text/css">
	.st0{fill:#548B8B;}
</style>
<path class="st0" d="M23.3,0.2H15c-0.1,0-0.3,0.1-0.3,0.3c0,0,0,0,0,0v29c0,0.1,0.1,0.3,0.3,0.3c0,0,0,0,0,0h8.3
	c0.1,0,0.3-0.1,0.3-0.3l0,0v-29C23.5,0.4,23.4,0.3,23.3,0.2z M23,29.2h-7.7v-4.7h3.9c0.1,0,0.3-0.1,0.3-0.3l0,0
	c0-0.1-0.1-0.3-0.3-0.3h-3.9v-2.6h1.8c0.1,0,0.3-0.1,0.3-0.2c0,0,0,0,0,0c0-0.1-0.1-0.3-0.3-0.3h-1.8v-2.6h3.9
	c0.1,0,0.3-0.1,0.3-0.2c0,0,0,0,0,0c0-0.1-0.1-0.3-0.3-0.3h-3.9v-2.6h1.8c0.1,0,0.3-0.1,0.3-0.3v0c0-0.1-0.1-0.3-0.3-0.3h-1.8v-2.6
	h3.9c0.1,0,0.3-0.1,0.3-0.2c0,0,0,0,0,0c0-0.1-0.1-0.3-0.3-0.3h-3.9V9.1h1.8c0.1,0,0.3-0.1,0.3-0.3v0c0-0.1-0.1-0.3-0.3-0.3h-1.8V6
	h3.9c0.1,0,0.3-0.1,0.3-0.3v0c0-0.1-0.1-0.3-0.3-0.3h-3.9V0.8H23L23,29.2z"/>
<path class="st0" d="M13.2,8.2L10.1,3c0-0.1-0.1-0.1-0.2-0.1c-0.1,0-0.2,0-0.2,0.1L6.5,8.2c0,0,0,0.1,0,0.1v19.5
	c0,1,0.8,1.8,1.8,1.8c0,0,0,0,0,0h3.1c1,0,1.8-0.8,1.8-1.8V8.4C13.2,8.3,13.2,8.3,13.2,8.2z M12.7,27.9c0,0.7-0.5,1.3-1.2,1.3
	c0,0,0,0,0,0H8.3c-0.7,0-1.3-0.6-1.3-1.3v-2.3h5.7L12.7,27.9z M7,25.1v-16h2.6v16H7z M10.1,25.1v-16h2.6v16H10.1z M7,8.5l2.8-4.9
	l2.9,4.9H7z"/>
</svg>
