<?xml version="1.0" encoding="utf-8"?>
<!-- Generator: Adobe Illustrator 26.4.0, SVG Export Plug-In . SVG Version: 6.00 Build 0)  -->
<svg version="1.1" id="Layer_1" xmlns="http://www.w3.org/2000/svg" xmlns:xlink="http://www.w3.org/1999/xlink" x="0px" y="0px"
	 viewBox="0 0 30 30" style="enable-background:new 0 0 30 30;" xml:space="preserve">
<style type="text/css">
	.st0{fill:#548B8B;}
</style>
<path class="st0" d="M25.5,1.1c-0.2-0.3-0.4-0.5-0.7-0.7C24.4,0.1,23.9,0,23.4,0H8.6l0,0c-0.4,0-0.7,0.2-1,0.4
	C7.4,0.6,7.2,0.8,7,1.1C6.7,1.5,6.6,2,6.6,2.5v1.6H4.3c-0.1,0-0.2,0.1-0.2,0.2c0,0,0,0,0,0v7.4c0,0.1,0.1,0.2,0.2,0.2c0,0,0,0,0,0
	h12.5v2.9h-2.5v12.3c0,1.6,1.3,2.9,2.9,2.9h0.4c1.6,0,2.9-1.3,2.9-2.9l0,0V14.8h-2.5v-3.9c0-0.1-0.1-0.2-0.2-0.2l0,0H5.3V5.3h1.2V7
	c0,0.5,0.2,1,0.4,1.4C7.2,8.6,7.4,8.8,7.7,9C8.1,9.3,8.5,9.4,9,9.4h14.4c0.5,0,1-0.2,1.4-0.4c0.3-0.2,0.5-0.4,0.7-0.7
	c0.3-0.4,0.4-0.8,0.4-1.3V2.5C25.9,2,25.7,1.5,25.5,1.1z M18.1,15.2h2.1v11.9c0,1.4-1.1,2.5-2.5,2.5h-0.4c-1.4,0-2.5-1.1-2.5-2.5
	c0,0,0,0,0,0V15.2H18.1z M6.6,4.9H5.1C5,4.9,4.9,5,4.9,5.1l0,0v5.7c0,0.1,0.1,0.2,0.2,0.2l0,0h12.5v3.7h-0.4v-3.1
	c0-0.1-0.1-0.2-0.2-0.2c0,0,0,0,0,0H4.5v-7h2.1V4.9z M25.5,3.8V7c0,1.1-0.9,2-2,2H9C7.9,9,7,8.1,7,7V2.5c0-1.1,0.9-2,2-2.1h14.4
	c1.1,0,2.1,0.9,2.1,2.1V3.8z"/>
<path class="st0" d="M17.5,25.5c-0.6,0-1,0.5-1,1s0.5,1,1,1s1-0.5,1-1S18,25.5,17.5,25.5z M17.5,27.1c-0.3,0-0.6-0.3-0.6-0.6
	c0,0,0,0,0,0c0-0.3,0.3-0.6,0.6-0.6h0c0.3,0,0.6,0.3,0.6,0.6c0,0,0,0,0,0C18.1,26.8,17.8,27.1,17.5,27.1
	C17.5,27.1,17.5,27.1,17.5,27.1z"/>
</svg>
