<svg id="Layer_1" data-name="Layer 1" xmlns="http://www.w3.org/2000/svg" viewBox="0 0 30 30">
    <path d="M25.48,1.1a2.52,2.52,0,0,0-.69-.69A2.45,2.45,0,0,0,23.43,0H8.63V0a2.25,2.25,0,0,0-1,.37A2.39,2.39,0,0,0,7,1.1a2.46,2.46,0,0,0-.42,1.37V4.11H4.31a.2.2,0,0,0-.2.21v7.39a.2.2,0,0,0,.2.21H16.85v2.87H14.38V27.12A2.88,2.88,0,0,0,17.26,30h.41a2.88,2.88,0,0,0,2.88-2.88V14.8H18.08V10.89a.2.2,0,0,0-.2-.2H5.34V5.34H6.57V7A2.46,2.46,0,0,0,7,8.35,2.39,2.39,0,0,0,7.68,9,2.45,2.45,0,0,0,9,9.45H23.43A2.45,2.45,0,0,0,24.79,9a2.52,2.52,0,0,0,.69-.69A2.45,2.45,0,0,0,25.89,7V2.47A2.46,2.46,0,0,0,25.48,1.1Zm-7.4,14.11h2.06V27.12a2.47,2.47,0,0,1-2.47,2.47h-.41a2.46,2.46,0,0,1-2.46-2.47V15.21h3.28ZM6.57,4.93H5.14a.21.21,0,0,0-.21.21v5.75a.21.21,0,0,0,.21.21H17.67v3.7h-.41V11.71a.2.2,0,0,0-.21-.2H4.52v-7H6.57Zm18.91-1.1V7a2.05,2.05,0,0,1-2.05,2H9A2.05,2.05,0,0,1,7,7V2.47A2.05,2.05,0,0,1,9,.41H23.42a2.06,2.06,0,0,1,2.06,2.06V3.83Z"/><path d="M17.47,25.48a1,1,0,1,0,0,2.05,1,1,0,0,0,0-2.05Zm0,1.64a.61.61,0,0,1-.62-.61.62.62,0,0,1,.62-.62.61.61,0,0,1,.61.62A.61.61,0,0,1,17.47,27.12Z"/>
</svg>