<?xml version="1.0" encoding="utf-8"?>
<!-- Generator: Adobe Illustrator 26.4.0, SVG Export Plug-In . SVG Version: 6.00 Build 0)  -->
<svg version="1.1" id="Layer_1" xmlns="http://www.w3.org/2000/svg" xmlns:xlink="http://www.w3.org/1999/xlink" x="0px" y="0px"
	 viewBox="0 0 30 30" style="enable-background:new 0 0 30 30;" xml:space="preserve">
<style type="text/css">
	.st0{fill:#548B8B;}
</style>
<path class="st0" d="M22.5,7.5c0-0.3,0.1-0.7,0.3-0.9C23,6.3,23.3,6.1,23.6,6l0.8-0.2c0.4-0.1,0.7-0.4,1-0.8
	c0.3-0.3,0.4-0.8,0.4-1.2V2.6c0-0.2-0.1-0.4-0.2-0.6c-0.2-0.3-0.4-0.5-0.6-0.6c-0.1-0.1-0.2-0.1-0.4-0.2C24.4,1.1,24.1,1,23.9,1
	H10.1C10,1,9.9,1,9.8,1.1C9.7,1.2,9.6,1.3,9.6,1.4c0,0.1,0,0.1,0,0.2L11,5.1c0.1,0.1,0.1,0.2,0.3,0.3c0.1,0.1,0.2,0.1,0.4,0.2
	l2.2,0.3l-1.3,3.5c0,0.1,0,0.3,0.1,0.3c0.1,0,0.3,0,0.3-0.1L14.3,6l1.1,0.2l0,0c0.1,0,0.3,0.1,0.4,0.2c0.2,0.2,0.3,0.4,0.5,0.6
	l0.1,0.2v0.1l0,0l0,0c0.1,0.2,0.1,0.4,0.1,0.6v3.4c0,0.3-0.1,0.7-0.3,1c-0.1,0.3-0.3,0.6-0.5,0.8c-0.1,0.2-0.2,0.3-0.4,0.5l-5.1,4.7
	c-0.5,0.5-0.8,1-1,1.7c-0.1,0.4-0.1,0.7-0.1,1.1v8.5c0,0.3,0.3,0.6,0.6,0.6c0,0,0,0,0.1,0h15.1c0.3,0,0.6-0.3,0.6-0.6V18.2
	c0-0.1,0-0.2,0-0.3c0-0.4-0.1-0.8-0.2-1.2c-0.1-0.5-0.3-0.8-0.3-0.9c-0.1-0.2-0.2-0.5-0.3-0.6l-1.5-2.7c-0.1-0.2-0.2-0.3-0.2-0.5
	c-0.1-0.4-0.4-1.4-0.5-1.9c0-0.2,0-0.4,0-0.6L22.5,7.5L22.5,7.5z M16.6,6.5c-0.1-0.2-0.3-0.3-0.4-0.5c-0.2-0.2-0.4-0.3-0.6-0.3l0,0
	l-3.9-0.5c-0.1,0-0.1,0-0.2-0.1c0,0-0.1-0.1-0.1-0.1l-1.3-3.5h13.8c0.2,0,0.4,0,0.5,0.1l0,0c0.2,0.1,0.3,0.2,0.5,0.3
	C25,2,25.1,2.1,25.2,2.2c0.1,0.1,0.1,0.2,0.1,0.3v1.2c0,0.7-0.5,1.3-1.1,1.5l-0.8,0.2c-0.4,0.1-0.7,0.4-1,0.8C22.2,6.6,22,7,22,7.5
	v0.3h-4.9c0-0.2-0.1-0.4-0.1-0.7C16.9,6.8,16.7,6.6,16.6,6.5L16.6,6.5z M25,24.5h-6.6v-6.2H25V24.5z M22.5,12.1
	c0.1,0.2,0.2,0.4,0.3,0.7l1.5,2.7c0.1,0.2,0.2,0.4,0.3,0.6v0.1c0,0.1,0.2,0.5,0.3,0.9c0.1,0.2,0.1,0.5,0.2,0.7h-6.8
	c-0.1,0-0.2,0.1-0.2,0.2v6.7c0,0.1,0.1,0.2,0.2,0.2H25v4.5v0.1h-0.1H9.8H9.7v-0.1v-8.5c0-0.3,0-0.6,0.1-0.9c0.1-0.6,0.4-1.1,0.8-1.5
	l5.1-4.7c0.2-0.2,0.3-0.3,0.5-0.6c0.2-0.3,0.4-0.6,0.5-0.9c0.2-0.4,0.3-0.8,0.3-1.2v-3H22v1.3c0,0.2,0,0.5,0,0.7
	C22.1,10.7,22.4,11.6,22.5,12.1z"/>
<path class="st0" d="M8.4,3H4.4C4.3,3,4.2,3.1,4.2,3.2c0,0,0,0,0,0c0,0.1,0.1,0.2,0.2,0.2h3.9c0.1,0,0.2-0.1,0.2-0.2c0,0,0,0,0,0
	C8.6,3.1,8.5,3,8.4,3z"/>
<path class="st0" d="M5.2,0.4L8.2,2c0.1,0.1,0.3,0,0.3-0.1c0.1-0.1,0-0.3-0.1-0.3L5.4,0C5.3-0.1,5.1,0,5.1,0.1
	C5,0.2,5.1,0.4,5.2,0.4C5.2,0.4,5.2,0.4,5.2,0.4z"/>
<path class="st0" d="M8.2,4.7L5.2,6.2C5.1,6.3,5,6.4,5.1,6.6s0.2,0.2,0.3,0.1l3.1-1.5c0.1-0.1,0.2-0.2,0.1-0.3
	C8.5,4.7,8.4,4.7,8.2,4.7L8.2,4.7z"/>
</svg>
