<svg id="Layer_1" data-name="Layer 1" xmlns="http://www.w3.org/2000/svg" viewBox="0 0 30 30">
    <path d="M22.45,7.47a1.6,1.6,0,0,1,.33-.93A1.65,1.65,0,0,1,23.57,6l.78-.23a2.15,2.15,0,0,0,1-.75,2.12,2.12,0,0,0,.43-1.21V2.58A1.13,1.13,0,0,0,25.6,2,2.07,2.07,0,0,0,25,1.37a2.19,2.19,0,0,0-.36-.2A1.86,1.86,0,0,0,23.89,1H10.12a.45.45,0,0,0-.33.12.41.41,0,0,0-.15.32.65.65,0,0,0,0,.19L11,5.12a.88.88,0,0,0,.26.34.87.87,0,0,0,.38.17l2.23.3L12.6,9.4a.23.23,0,0,0,.44.16L14.34,6l1.14.16h0a.72.72,0,0,1,.38.19,2.1,2.1,0,0,1,.47.57l.13.24,0,.07v0h0a1.68,1.68,0,0,1,.11.55v3.36a2.38,2.38,0,0,1-.27,1,7.46,7.46,0,0,1-.5.84,2.88,2.88,0,0,1-.39.46L10.3,18.13a3.56,3.56,0,0,0-1,1.67,3.74,3.74,0,0,0-.12,1.09v8.54A.57.57,0,0,0,9.8,30H24.9a.58.58,0,0,0,.57-.57V18.2a2.28,2.28,0,0,0,0-.27,7,7,0,0,0-.25-1.17c-.13-.47-.26-.84-.26-.85-.07-.19-.19-.46-.28-.64l-1.45-2.74A4,4,0,0,1,23,12c-.14-.45-.38-1.4-.47-1.86a6.06,6.06,0,0,1,0-.62v-2Zm-5.87-1A2.25,2.25,0,0,0,16.16,6a1.26,1.26,0,0,0-.6-.3h0L11.7,5.16a.35.35,0,0,1-.16-.07A.45.45,0,0,1,11.43,5L10.12,1.48H23.89a1.46,1.46,0,0,1,.55.11h0a2.84,2.84,0,0,1,.5.32,1.4,1.4,0,0,1,.28.32.62.62,0,0,1,.11.34V3.77a1.71,1.71,0,0,1-1.12,1.51l-.79.23a2.15,2.15,0,0,0-1,.75A2.1,2.1,0,0,0,22,7.46v.26h-4.9a2.21,2.21,0,0,0-.15-.65A2.9,2.9,0,0,0,16.58,6.44ZM25,24.5H18.42V18.25H25ZM22.51,12.09a4.36,4.36,0,0,0,.28.66l1.45,2.74a6,6,0,0,1,.26.58l0,.06c.05.14.17.52.28.93.06.24.12.5.16.72H18.19A.24.24,0,0,0,18,18v6.71a.24.24,0,0,0,.24.24H25v4.46l0,.07-.07,0H9.8l-.07,0,0-.07V20.89A3.41,3.41,0,0,1,9.8,20a3.09,3.09,0,0,1,.81-1.47l5.15-4.68a3.1,3.1,0,0,0,.47-.55,6.71,6.71,0,0,0,.53-.9,2.71,2.71,0,0,0,.32-1.19v-3H22V9.48a4.31,4.31,0,0,0,.05.71C22.13,10.68,22.36,11.62,22.51,12.09Z"/><path d="M8.35,3H4.43a.23.23,0,0,0-.24.23.24.24,0,0,0,.24.24H8.35a.23.23,0,0,0,.23-.24A.23.23,0,0,0,8.35,3Z"/><path d="M5.18.45,8.24,2a.24.24,0,0,0,.32-.1.25.25,0,0,0-.11-.32L5.39,0a.25.25,0,0,0-.32.11A.25.25,0,0,0,5.18.45Z"/><path d="M8.24,4.72,5.18,6.25a.23.23,0,1,0,.21.42L8.45,5.14a.23.23,0,1,0-.21-.42Z"/>
</svg>