<?xml version="1.0" encoding="utf-8"?>
<!-- Generator: Adobe Illustrator 25.3.1, SVG Export Plug-In . SVG Version: 6.00 Build 0)  -->
<svg version="1.1" id="Layer_1" xmlns="http://www.w3.org/2000/svg" xmlns:xlink="http://www.w3.org/1999/xlink" x="0px" y="0px"
	 viewBox="0 0 218 218" style="enable-background:new 0 0 218 218;" xml:space="preserve">
<style type="text/css">
	.st0{fill:#A4206A;}
</style>
<g>
	<path class="st0" d="M107,59.9C107,59.9,107,59.9,107,59.9L107,59.9L107,59.9z M103.2,58.2C103.2,58.2,103.2,58.2,103.2,58.2
		L103.2,58.2L103.2,58.2z M106.6,55.6C106.6,55.6,106.6,55.6,106.6,55.6L106.6,55.6z M110.4,59.6L110.4,59.6c-0.1-0.1-0.4-0.8-1-1.1
		c-0.4-0.1-0.8-0.1-1.3,0.1l0,0c-0.4,0.2-1,0.5-1.4-0.1c0,0-0.1-0.1-0.1-0.1c0.3,0.1,0.5,0.1,0.8,0c0.2-0.1,0.4-0.4,0.5-0.6
		c0,0,0.1-0.2,0.1-0.2c0.1-0.1,0.2-0.2,0.6-0.1l0.3,0.1l-0.2-0.2c-0.3-0.4-0.8-0.5-1.2-0.3c-0.2,0.1-0.4,0.3-0.5,0.5l-0.1,0.2
		c-0.2,0.2-0.5,0.1-0.6,0.1c0,0-0.4-0.1-0.4-0.1l0.2,0.3c0.1,0.1,0.2,0.2,0.3,0.2l0,0.2l0,0.1c0,0,0,0.2,0.1,0.5l-0.1,0.2l-0.1,0.1
		c-0.1,0.2-0.1,0.4-0.1,0.5c0,0.3,0.1,0.5,0.3,0.7c0.1,0.1,0.4,0.2,0.7,0.3l0.2,0c0.1,0.1,0.2,0.2,0.3,0.5l0,0.1l0,0.2l0.2-0.3
		c0.1-0.2,0.1-0.4,0.1-0.5c0-0.3-0.1-0.5-0.3-0.6h0l0,0c0,0,0,0,0,0c-0.1-0.1-0.4-0.2-0.7-0.2c0,0-0.2,0-0.2,0
		c-0.3-0.1-0.3-0.5-0.3-0.5c0,0,0-0.1,0-0.2c0.1,0.1,0.2,0.2,0.3,0.3c0.4,0.2,0.9,0.2,1.5-0.1c0.1-0.1,1-0.5,1.7,0.3l0,0L110.4,59.6
		z M107,61.5c-0.1-0.2-0.3-0.4-0.5-0.5l-0.2-0.1c-0.2-0.2-0.1-0.6-0.1-0.6c0,0,0.1-0.4,0.1-0.4l-0.2,0.2l-0.1,0.1
		c-0.1,0.1-0.2,0.2-0.2,0.3l-0.2,0l-0.1,0c0,0-0.2,0-0.5,0.1l-0.3-0.1c-0.5-0.2-0.9-0.2-1.2,0.2c-0.2,0.2-0.2,0.5-0.3,0.7l0,0.2
		c-0.1,0.1-0.2,0.2-0.5,0.3l-0.3,0.1l0.3,0.1c0.5,0.2,0.9,0.2,1.2-0.2c0.1-0.1,0.2-0.4,0.2-0.7c0,0,0-0.2,0-0.2
		c0.1-0.3,0.5-0.3,0.5-0.3c0,0,0.1,0,0.2,0c-0.1,0.1-0.2,0.2-0.3,0.3c-0.2,0.4-0.2,0.9,0.1,1.5c0.1,0.1,0.5,1-0.3,1.7l-0.1,0
		l0.1,0.2l0.1,0c0,0,0.8-0.3,1-1c0.1-0.4,0.1-0.8-0.1-1.3l0-0.1c-0.2-0.4-0.5-1,0.1-1.4l0.1-0.1l0.1-0.1c-0.1,0.3-0.1,0.5,0,0.8
		c0.1,0.2,0.3,0.4,0.6,0.5c0,0,0.1,0.1,0.1,0.1c0.1,0.1,0.2,0.2,0.1,0.6l-0.1,0.3l0.2-0.2C107.1,62.3,107.2,61.8,107,61.5
		 M102.7,60.9c0.2-0.1,0.3-0.3,0.5-0.5l0,0l0.1-0.1c0.2-0.2,0.6-0.1,0.6-0.1l0.4,0.1L104,60c-0.1-0.1-0.2-0.2-0.3-0.2l0-0.3
		c0,0,0-0.2-0.1-0.5l0.1-0.3c0.2-0.5,0.2-0.9-0.2-1.2c-0.2-0.1-0.5-0.2-0.7-0.3c0,0-0.2,0-0.2,0c-0.1-0.1-0.2-0.2-0.3-0.5
		c0,0-0.1-0.3-0.1-0.3l-0.1,0.2l0,0.1c-0.1,0.2-0.1,0.4-0.1,0.5c0,0.3,0.1,0.5,0.3,0.6l0,0c0,0,0,0,0,0c0.2,0.1,0.5,0.2,0.7,0.2
		c0,0,0,0,0,0l0.2,0c0.3,0.1,0.3,0.5,0.3,0.5c0,0,0,0.1,0,0.2c-0.1-0.1-0.2-0.2-0.3-0.3c-0.4-0.2-0.9-0.2-1.5,0.1c0,0-1,0.5-1.7-0.3
		l0,0l-0.1,0l-0.1,0.1l0,0.1c0,0.1,0.3,0.8,1,1c0.4,0.2,0.8,0.1,1.3-0.1l0.1,0c0.2-0.1,1-0.5,1.4,0.1c0,0,0.1,0.1,0.1,0.2
		c-0.3-0.1-0.5-0.1-0.8,0c-0.2,0.1-0.4,0.4-0.5,0.6c0,0-0.1,0.2-0.1,0.2c-0.1,0.1-0.2,0.2-0.6,0.1l-0.3-0.1l0.2,0.2
		C101.9,61,102.3,61.2,102.7,60.9 M103.2,56.7c0.1,0.2,0.3,0.4,0.5,0.5l0.2,0.1c0.2,0.2,0.1,0.6,0.1,0.6l0,0.1l-0.1,0.3l0.3-0.3
		c0.1-0.1,0.2-0.2,0.2-0.3l0.3,0c0.1,0,0.3,0,0.5-0.1l0.3,0.1c0.5,0.2,0.9,0.2,1.2-0.2c0.1-0.2,0.2-0.5,0.3-0.7c0,0,0-0.2,0-0.2
		c0.1-0.1,0.2-0.2,0.5-0.3l0.1,0l0.2,0l-0.3-0.2c-0.5-0.2-0.9-0.2-1.2,0.2c-0.1,0.1-0.2,0.4-0.2,0.7c0,0,0,0,0,0l0,0.2
		c-0.1,0.3-0.5,0.3-0.5,0.3c0,0-0.1,0-0.2,0c0.1-0.1,0.2-0.2,0.3-0.3c0.2-0.4,0.2-0.9-0.1-1.5c-0.1-0.2-0.4-1,0.3-1.7l0,0l-0.1-0.2
		l-0.1,0c-0.1,0-0.8,0.3-1,1c-0.1,0.4-0.1,0.8,0.1,1.3l0,0.1c0.2,0.4,0.5,1-0.1,1.4c0,0-0.1,0.1-0.1,0.1c0.1-0.3,0.1-0.5,0-0.8
		c-0.1-0.2-0.4-0.4-0.6-0.5l-0.1-0.1c-0.1-0.1-0.2-0.2-0.1-0.6c0,0,0.1-0.3,0.1-0.3l-0.2,0.1l-0.1,0.1
		C103.1,55.8,103,56.3,103.2,56.7 M115.1,60.3c-0.3,0.4-0.9,0.6-1.4,0.8c-1.3,0.3-2.6-0.3-2.7-0.4c-0.9-0.4-1.6-0.5-2.5-0.1l0,0
		c1.3,0.9,1.5,1.8,1.5,3c0,0.7-0.1,1.7,0.3,2.4c0.2,0.3,0.6,0.6,1,0.5c0,0,0.1,0,0.1,0c0.2,0,0.2,0.1,0.3,0.2c0,0.2-0.1,0.3-0.3,0.3
		c-0.5,0.1-1.1-0.2-1.5-0.4c-1.1-0.7-1.6-2.1-1.7-2.2c-0.4-0.9-0.8-1.5-1.7-1.9c0.3,1.6-0.2,2.3-1.1,3.2c-0.5,0.5-1.3,1.1-1.5,1.9
		c-0.1,0.4,0,0.8,0.3,1c0,0,0.1,0.1,0.1,0.1c0.1,0.1,0.1,0.2,0,0.3c-0.1,0.2-0.3,0.1-0.5,0c-0.4-0.3-0.7-0.9-0.8-1.4
		c-0.3-1.3,0.3-2.6,0.3-2.7c0.4-0.9,0.5-1.6,0.1-2.5l0,0c-0.9,1.3-1.8,1.5-3,1.5c-0.7,0-1.8-0.1-2.4,0.3c-0.3,0.2-0.6,0.6-0.5,1
		c0,0,0,0.1,0,0.1c0,0.1,0,0.1,0,0.2c0,0,0,0.1-0.1,0.1c-0.5,0.3-0.4,1.4-0.2,1.8c0.4,1.2,1.4,1.9,2.5,2.5c1.6,0.9,2.8,1.8,3.3,3.2
		l0,0c0.1,0.4,0.2,0.9,0.2,1.4c0,0.7-0.1,1.3-0.4,1.9c0,0-0.1,0.2-0.1,0.3l0,0c-0.9,1.9-2.4,2.5-3.6,2.7c-0.8,0.1-1.5,0-1.5,0
		l-0.1,0c-0.6-0.1-1-0.3-1.4-0.5c0,0-0.1-0.1-0.1-0.1c-0.1-0.1-0.2-0.2-0.3-0.3c-0.7-0.7-0.9-1.8-0.7-2.8c0.1-1,0.5-2,1.2-2.8
		c0.4-0.5,1.1-1.1,1.9-1.3c0.1,0,0.1,0,0.2,0c0,0,0,0,0.1,0c0.1,0,0.1,0,0.1,0.1c0.1,0.1,0.2,0.2,0.1,0.3c0,0.1-0.1,0.1-0.2,0.1
		c-0.3,0-0.6,0.1-0.9,0.3c-0.6,0.5-0.9,1.4-1,2c-0.1,0.4-0.1,0.9-0.1,1.3c0.2,2.1,1.6,3.3,3.1,3.1c0,0,0,0,0,0
		c1.4-0.2,2.5-1.9,2.4-3.8c-0.1-0.8-0.3-1.5-0.7-2c0-0.1-0.2-0.3-0.2-0.3c-0.5-0.7-1.2-1.1-2-1.6l-0.3-0.2c-0.3-0.2-0.6-0.4-0.9-0.7
		l0,0c-0.8-0.8-1.2-1.5-1.3-2.2c-0.1-0.5-0.1-1.2,0.1-1.7c0.1-0.3,0.2-0.7,0.4-0.8c0,0,0,0,0-0.1c-0.1-0.5,0.2-1.1,0.4-1.5
		c0.7-1.1,2.1-1.6,2.2-1.7c0.9-0.4,1.5-0.8,1.9-1.7l0,0c-1.6,0.3-2.3-0.2-3.2-1.1c-0.5-0.5-1.1-1.3-1.9-1.5c-0.4-0.1-0.8,0-1.1,0.3
		c0,0-0.1,0.1-0.1,0.1c-0.1,0.1-0.2,0.1-0.3,0c-0.2-0.1-0.1-0.3,0-0.5c0.3-0.4,0.9-0.7,1.4-0.8c1.3-0.3,2.6,0.3,2.7,0.4
		c0.9,0.4,1.6,0.5,2.5,0.1l0,0c-1.3-0.9-1.5-1.8-1.5-3c0-0.7,0.1-1.8-0.3-2.4c-0.2-0.3-0.6-0.6-1-0.5c0,0-0.1,0-0.1,0
		c-0.2,0-0.2-0.1-0.3-0.2c0-0.2,0.1-0.3,0.3-0.4c0.5-0.1,1.1,0.2,1.5,0.4c1.1,0.7,1.6,2.1,1.7,2.2c0.4,0.9,0.8,1.5,1.7,1.9
		c-0.3-1.6,0.2-2.3,1.1-3.2c0.5-0.5,1.3-1.1,1.5-1.9c0.1-0.4,0-0.8-0.3-1.1c0,0-0.1,0-0.1-0.1c-0.1-0.1-0.1-0.2-0.1-0.3
		c0.1-0.2,0.3-0.1,0.5,0c0.4,0.3,0.7,0.9,0.8,1.4c0.3,1.3-0.3,2.6-0.3,2.7c-0.4,0.9-0.5,1.6-0.1,2.5l0,0c0,0,0,0,0,0
		c0.9-1.3,1.8-1.5,3-1.5c0.7,0,1.8,0.1,2.4-0.3c0.3-0.2,0.6-0.6,0.5-1c0,0,0-0.1,0-0.1c0-0.2,0.1-0.2,0.2-0.2c0.2,0,0.3,0.1,0.4,0.3
		c0.1,0.5-0.2,1.1-0.4,1.5c-0.7,1.1-2.1,1.6-2.2,1.7c-0.9,0.4-1.5,0.8-1.9,1.7l0,0c1.6-0.3,2.3,0.2,3.2,1.1c0.5,0.5,1.1,1.3,1.9,1.5
		c0.4,0.1,0.8,0,1.1-0.3c0,0,0-0.1,0.1-0.1c0.1-0.1,0.2-0.1,0.3,0C115.2,59.9,115.2,60.2,115.1,60.3 M135,78.9
		C135,78.9,134.9,79,135,78.9c-0.5,0.4-1.1,0.1-1.5-0.1c-0.9-0.5-1.5-1.4-2.1-2.3c-0.2-0.3-0.4-0.6-0.5-0.9c0.9-0.6,3-2.1,2.4-3.6
		c0,0,0,0,0-0.1c-0.3-0.6-1.1-0.9-2-0.9c0,0-1.5,0-2.8,0h-1.4c0.1,0.8,0.5,5.3-0.1,8.1h1.5v0c-0.1-3.1,0-6.7,0-7.4
		c0.5-0.1,2.3-0.5,3.2,0.1c0.4,0.2,0.7,0.8,0.5,1.6v0c0,0,0,0,0,0.1c-0.1,0.3-0.3,0.6-0.5,0.8c-0.3,0.3-0.6,0.6-0.9,0.8
		c-0.4,0.3-1.3,0.6-1.3,0.6l0,0c0.8,1.2,1.8,2.5,3.1,3.2c0.4,0.2,0.9,0.4,1.4,0.5c0.4,0,0.9,0.1,1.3-0.2c0.1-0.1,0.2-0.2,0.1-0.3
		c0,0,0-0.1,0-0.1C135.2,78.9,135.1,78.9,135,78.9 M150.8,73.2c-0.3-0.7-0.8-2-2.1-1.9c-1.4,0-2.4,1-3.2,1.7l0-1.1l0-3.7
		c0,0,0-0.8,0-0.8h-1.5c0.2,1.8,0.2,3.8,0.2,5.5c0,3.2-0.2,5.9-0.2,6.5h1.4c-0.1-0.7-0.1-1.4-0.1-2c0-1.8,0.2-2.8,0.3-3.2l0,0l0,0
		c0.2-0.5,0.4-0.9,0.7-1.2c0.3-0.4,0.6-0.6,1-0.6c0.2,0,0.3-0.1,0.5,0c1.3,0.1,2.3,2.1,2.3,4.7v0.1c0,0.8-0.1,1.6-0.3,2.3h1.2
		c0-0.3,0.2-1.7,0.2-3.1C151.3,75.1,151.2,73.9,150.8,73.2 M142.4,77.6C142.3,77.6,142.3,77.6,142.4,77.6L142.4,77.6
		c-0.2,0-0.2,0-0.3,0.2c-0.3,0.9-1.6,1-2.3,0.8c-1-0.3-1.7-1.3-1.9-2.5v0c0,0,0-0.1,0-0.1c0,0,0,0,0,0c0-0.3,0-0.5,0-0.8v0
		c0.3-3.8,3.3-3.6,4-3.6L142,71c-0.2,0-0.4,0-0.7,0c-0.5,0-0.7,0-0.8,0c-0.1,0-0.1-0.1,0-0.1c0.3-0.1,1.2-0.8,1.4-1.6
		c0,0-0.3,0.2-0.6,0.4c-1.7,1.2-3.8,1.3-5.1,1.2l-0.1,0.5c1.9-0.2,1.5,0.8,1.3,1.4c-0.5,1.5-0.8,3.2-0.4,4.7c0,0.2,0.1,0.3,0.1,0.4
		c0,0,0,0,0,0.1c0,0,0,0.1,0,0.1c0.1,0.3,0.3,0.5,0.5,0.8c0.1,0.1,0.2,0.2,0.3,0.3c1.1,0.7,2.7,0.3,3.8-0.4c0.2-0.2,0.7-0.5,0.7-0.8
		C142.5,77.8,142.5,77.7,142.4,77.6 M124.4,79.4h-1.4l-0.1-2.5c-0.1,0.1-0.1,0.2-0.2,0.3c-0.7,1-1.5,1.7-2.4,2c-1,0.4-2,0.4-2.7-0.1
		c-1.4-1-1.5-3.4-0.1-5.5c0.8-1.1,1.8-1.9,2.8-2.2c0.2-0.1,0.4-0.1,0.6-0.1c0,0,0.9-0.1,3.3-0.1C124.2,71.3,123.7,76.3,124.4,79.4
		 M74.1,76.5c-0.1,0-0.4,0.4-0.4,0.4c-0.8,0.9-1.6,1.7-2.8,1.7c-1.6,0-2.5-1.5-2.5-3c0-0.6,0.1-1.2,0.3-1.6c0.7-1.6,2.5-2.3,4.1-2.1
		c0,0,0,0,0,0c0.1,0.1,0,0.3-0.1,0.4c0,0.1,0,0.2,0.1,0.2h0c0.3,0,1-0.5,1.3-0.9c0.1-0.1,0.1-0.2,0.1-0.3c0,0,0-0.1,0-0.1
		c0,0,0,0-0.1,0h-0.7v0c-1.3,0-1.8,0.1-1.8,0.1c-1.2,0.1-2.5,1-3.5,2.3c-1.3,1.9-1.4,4.3-0.2,5.4c0.2,0.2,0.5,0.3,0.7,0.4
		c0.9,0.4,2,0.2,3-0.2c0.5-0.2,1-0.5,1.4-0.8c0.3-0.2,0.3,0.3,0.3,0.4c0.1,1-0.2,1.9-0.7,2.6c-0.3,0.4-0.7,0.9-1.1,1.1
		c-0.2,0.1-0.4,0.1-0.7,0c-0.1,0-0.2,0-0.2,0.1c-0.1,0.1-0.1,0.1,0,0.2c0,0.1,0.2,0.2,0.4,0.2c0.2,0,0.3,0,0.5-0.1
		c0.4-0.1,0.9-0.4,1.3-0.8c1.3-1.1,2.1-3.2,1.8-4.9C74.5,76.9,74.4,76.5,74.1,76.5 M83.4,72.1c0.5,0.5,0.7,1.3,0.8,2v0.5
		c0,0.6-0.2,1.1-0.3,1.6c0,0.1-0.1,0.3-0.2,0.5l0,0c-0.9,1.9-2.4,2.5-3.5,2.7h0c-0.8,0.1-1.4,0-1.4,0l0,0c0,0,0,0,0,0h0
		c-0.5-0.1-1-0.3-1.4-0.5c0,0-0.1-0.1-0.1-0.1c-0.1-0.1-0.2-0.2-0.3-0.3c-0.5-0.5-0.7-1.3-0.8-2V76c0-0.6,0.1-1.1,0.3-1.6
		c0-0.1,0.1-0.3,0.2-0.5l0,0c0.9-1.9,2.4-2.5,3.5-2.7h0c0.8-0.1,1.4,0,1.4,0l0,0c0,0,0,0,0,0h0c0.5,0.1,1,0.3,1.4,0.5
		c0,0,0.1,0.1,0.1,0.1C83.2,71.9,83.3,72,83.4,72.1 M115,78c0,0.1,0,0.2,0,0.3c-0.1,0.1-0.3,0.3-0.4,0.4c-0.8,0.6-1.9,0.8-3,0.8
		c-0.6,0-1.1-0.1-1.6-0.2c-0.2,0-0.3-0.1-0.5-0.2c-0.8-0.3-1.2-0.9-1.5-1.7l0,0c-0.1-0.4-0.1-0.7-0.1-1v-0.2c0-2,1.4-3.4,1.4-3.4
		l0,0c0.7-0.7,1.4-1.2,2.2-1.4c0,0,0.1,0,0.1,0c0.2,0,0.4-0.1,0.6-0.1c0,0,0.6-0.1,2.7,0c0.1,0,0.1,0,0.1,0c0,0,0,0,0,0.1
		c-0.1,0.4-0.5,2.3-2.5,3.2l-0.1,0c1.1,0,2.1,0.1,2.5,0.7h0c-1.1-0.1-2.3,0-3.4,0.1c-1,0.1-1.9,0.3-2.3,0.4l0,0
		c0,0.7,0.2,1.3,0.6,1.8c0.4,0.6,1.1,1,1.8,1.2c0.4,0.1,0.9,0.1,1.3,0.1c0.6-0.1,1.5-0.2,1.7-0.8c0.1-0.1,0.1-0.2,0.2-0.1
		C114.9,77.9,115,77.9,115,78 M92.8,72.1c0.5,0.5,0.7,1.3,0.8,2v0.5c0,0.6-0.2,1.1-0.3,1.6c0,0.1-0.1,0.3-0.2,0.5l0,0
		c-0.9,1.9-2.4,2.5-3.5,2.7h0c-0.8,0.1-1.4,0-1.4,0l0,0c0,0,0,0,0,0h0c-0.5-0.1-1-0.3-1.4-0.5c0,0-0.1-0.1-0.1-0.1
		c-0.1-0.1-0.2-0.2-0.3-0.3c-0.5-0.5-0.7-1.3-0.8-2V76c0-0.6,0.2-1.1,0.3-1.6c0-0.1,0.1-0.3,0.2-0.5l0,0c0.9-1.9,2.4-2.5,3.5-2.7h0
		c0.8-0.1,1.4,0,1.4,0l0,0c0,0,0,0,0,0h0c0.5,0.1,1,0.3,1.4,0.5c0,0,0.1,0.1,0.1,0.1C92.6,71.9,92.7,72,92.8,72.1 M80.1,71.8
		L80.1,71.8c-0.1,0-0.3,0-0.4,0v0h0c-1.4,0.2-2.5,1.9-2.4,3.8c0.2,1.9,1.3,3.1,2.7,3.1c0,0,0,0,0,0c0.1,0,0.2,0,0.3,0v0h0
		c1.4-0.2,2.5-1.8,2.4-3.8C82.6,73,81.4,71.9,80.1,71.8 M89.5,71.8L89.5,71.8c-0.1,0-0.3,0-0.4,0v0h0c-1.4,0.2-2.5,1.9-2.4,3.8
		c0.2,1.9,1.3,3.1,2.7,3.1c0,0,0,0,0,0c0.1,0,0.2,0,0.3,0v0h0c1.4-0.2,2.5-1.8,2.4-3.8C92,73,90.8,71.9,89.5,71.8 M120.8,72
		c-0.2,0-0.4,0-0.5,0.1c-1,0.3-1.7,1.1-1.7,1.1c-0.6,0.5-0.9,1.4-0.9,2.4c0,1.6,1,3,2.3,3c0.1,0,0.2,0,0.4,0
		c0.7-0.2,1.2-0.7,1.6-1.5c1.2-2.4,1-5.1,1-5.1H120.8z M110.8,74.6c0.2,0,0.4-0.1,0.6-0.2c0,0,0.1,0,0.1,0c1.7-0.7,2.1-2,2.2-2.4
		l0.1-0.2c0,0-1.5,0-1.9,0c-0.1,0-0.3,0-0.4,0.1c-0.3,0.1-0.6,0.2-0.8,0.3c-0.4,0.2-0.7,0.6-1,1.1c-0.1,0.2-0.4,0.8-0.5,1.6
		C109.3,74.9,110.7,74.7,110.8,74.6C110.8,74.6,110.8,74.6,110.8,74.6"/>
	<path class="st0" d="M215.6,117.6l-0.9-0.3c-0.8-0.3-1.5-0.8-2.1-1.5c-0.5-0.6-0.9-1.4-1.1-2.4c-0.3-1.9-1.6-3.5-3.3-4.3
		c1.7-0.8,3-2.4,3.3-4.3c0.2-1,0.5-1.8,1.1-2.4c0.6-0.7,1.3-1.2,2.1-1.5l0.9-0.3c0.2-0.1,0.3-0.3,0.3-0.5c0-0.2-0.2-0.4-0.4-0.4
		l-0.9-0.2c-0.8-0.2-1.6-0.5-2.3-1.1c-0.7-0.6-1.2-1.3-1.5-2.2c0,0,0,0,0,0c-0.4-1.1-1-2-1.9-2.7c-0.6-0.5-1.4-0.8-2.1-1
		c0.6-0.4,1.2-1,1.6-1.7c0.5-0.7,1-1.8,0.9-3.2c0-1.8,0.9-3.5,2.5-4.4l0.8-0.5c0.2-0.1,0.3-0.3,0.2-0.6c-0.1-0.2-0.2-0.4-0.5-0.4
		l-1,0c-1.8,0-3.5-1-4.3-2.6c0,0,0,0,0,0c-0.9-1.7-2.7-2.8-4.6-3c0.6-0.6,1.1-1.2,1.3-1.9c0.4-1,0.5-2.2,0.3-3.3
		c-0.3-1.8,0.4-3.6,1.7-4.8l0.7-0.6c0.2-0.1,0.2-0.4,0.1-0.6c-0.1-0.2-0.3-0.3-0.5-0.3l-0.9,0.2c-1.7,0.3-3.5-0.4-4.7-1.8
		c-0.7-0.9-1.6-1.5-2.7-1.9c-0.7-0.3-1.6-0.3-2.4-0.3c1.2-1.6,1.5-3.6,0.8-5.5c-0.6-1.6-0.3-3.6,0.9-5l0.6-0.7
		c0.1-0.2,0.2-0.4,0-0.6c-0.1-0.2-0.4-0.3-0.6-0.2l-0.9,0.3c-1.7,0.6-3.6,0.2-4.9-1c0,0,0,0,0,0c-1.5-1.3-3.5-1.8-5.4-1.3
		c0.9-1.7,0.9-3.8-0.1-5.5c-0.9-1.7-0.9-3.5,0-5l0.5-0.8c0.1-0.2,0.1-0.4-0.1-0.6c-0.2-0.2-0.4-0.2-0.6-0.1l-0.8,0.5
		c-1.5,0.8-3.5,0.8-5-0.2c-0.9-0.6-2-0.9-3.1-0.9c0,0,0,0,0,0c-0.8,0-1.6,0.2-2.4,0.6c0.2-0.8,0.3-1.6,0.2-2.4
		c-0.1-1.2-0.6-2.2-1.3-3c-1.1-1.3-1.4-3.3-0.8-5l0.3-0.9c0.1-0.2,0-0.4-0.2-0.6c-0.2-0.1-0.4-0.1-0.6,0l-0.7,0.6
		c-1.4,1.1-3.4,1.4-5,0.7c0,0,0,0,0,0c-1.8-0.7-3.9-0.5-5.5,0.6c0.3-1.9-0.4-3.8-1.9-5.2c-0.7-0.6-1.2-1.4-1.5-2.2
		c-0.3-0.8-0.4-1.7-0.2-2.6l0.2-0.9c0-0.2-0.1-0.4-0.3-0.5c-0.2-0.1-0.4-0.1-0.6,0.1l-0.6,0.7c-0.6,0.6-1.3,1.1-2.2,1.4
		c-0.9,0.3-1.8,0.3-2.6,0.1c0,0,0,0,0,0c-1.1-0.2-2.3-0.2-3.3,0.2c-0.7,0.3-1.4,0.7-2,1.3c0-0.8-0.2-1.6-0.6-2.3
		c-0.5-1.1-1.3-1.9-2.2-2.4c-1.5-0.9-2.5-2.6-2.4-4.4l0-0.9c0-0.2-0.1-0.4-0.3-0.5c-0.2-0.1-0.4,0-0.6,0.2l-0.5,0.8
		c-1,1.5-2.7,2.4-4.5,2.3c0,0,0,0,0,0c-1.9-0.1-3.8,0.8-4.9,2.3c-0.4-1.9-1.7-3.4-3.6-4.2c-1.7-0.7-2.9-2.2-3.1-3.9l-0.1-0.9
		c0-0.2-0.2-0.4-0.4-0.4c-0.2,0-0.4,0.1-0.5,0.3L121.9,4c-0.7,1.6-2.2,2.8-4,3c-2,0.2-3.6,1.4-4.5,3.1c-0.7-1.8-2.3-3.1-4.2-3.5
		c-1.7-0.3-3.2-1.6-3.7-3.3l-0.3-0.9c-0.1-0.2-0.3-0.4-0.5-0.3c-0.2,0-0.4,0.2-0.5,0.4L104,3.3c-0.4,1.7-1.8,3.2-3.5,3.7
		c-1.9,0.5-3.3,2-3.9,3.9c-1-1.7-2.8-2.7-4.7-2.7c-1.7,0-3.4-1.1-4.3-2.7l-0.4-0.8c-0.1-0.2-0.3-0.3-0.5-0.3c-0.2,0-0.4,0.2-0.4,0.5
		l0,0.9c-0.1,1.8-1.2,3.4-2.8,4.2c0,0,0,0,0,0c-1.8,0.9-2.9,2.6-3.2,4.5c-1.3-1.4-3.2-2.1-5.1-1.9c-0.9,0.1-1.8,0-2.6-0.3
		c-0.8-0.3-1.5-0.9-2.1-1.6l-0.6-0.8c-0.1-0.2-0.4-0.2-0.6-0.2C69.1,9.7,69,9.9,69,10.1l0.1,0.9c0.1,0.9,0,1.7-0.4,2.6
		c-0.4,0.8-0.9,1.5-1.6,2c0,0,0,0,0,0c-0.9,0.7-1.6,1.6-2,2.6c-0.3,0.8-0.4,1.6-0.4,2.4c-0.6-0.5-1.3-0.9-2.1-1.1
		c-0.5-0.2-1.1-0.2-1.6-0.2c-0.5,0-1.1,0.1-1.7,0.3c-1.6,0.5-3.6,0.1-4.9-1.1l-0.7-0.6c-0.2-0.2-0.4-0.2-0.6-0.1
		c-0.2,0.1-0.3,0.3-0.2,0.6l0.3,0.9c0.5,1.7,0,3.6-1.2,4.9c0,0,0,0,0,0c-1.4,1.5-1.9,3.4-1.5,5.3c-1.7-0.9-3.7-1-5.5-0.1
		c-0.9,0.4-1.7,0.6-2.6,0.6c-0.9,0-1.8-0.3-2.5-0.8l-0.8-0.5c-0.2-0.1-0.4-0.1-0.6,0c-0.2,0.1-0.2,0.4-0.1,0.6l0.4,0.9
		c0.4,0.8,0.5,1.6,0.5,2.5c-0.1,0.9-0.4,1.8-0.8,2.5c-1.1,1.6-1.3,3.6-0.6,5.4l-0.1,0l0.1,0.1c-0.8-0.3-1.6-0.4-2.4-0.3
		c-0.6,0-1.1,0.1-1.6,0.3c-0.5,0.2-1,0.5-1.5,0.8c-1.4,1.1-3.4,1.3-5,0.6l-0.9-0.4c-0.2-0.1-0.4,0-0.6,0.1c-0.1,0.2-0.1,0.4,0,0.6
		l0.6,0.8c1,1.4,1.2,3.4,0.5,5c0,0,0,0,0,0c-0.8,1.8-0.7,3.9,0.3,5.5c-1.9-0.3-3.9,0.3-5.3,1.7c-1.2,1.3-3.1,1.9-4.8,1.4l-0.9-0.2
		c-0.2-0.1-0.4,0-0.5,0.2c-0.1,0.2-0.1,0.4,0.1,0.6l0.7,0.7c0.6,0.6,1,1.3,1.3,2.3c0.2,0.9,0.2,1.8,0,2.6c-0.5,1.8-0.1,3.9,1.2,5.4
		c-2,0-3.8,1-4.9,2.6c-1,1.5-2.7,2.4-4.5,2.2L8.7,73c-0.2,0-0.4,0.1-0.5,0.3c-0.1,0.2,0,0.4,0.2,0.6l0.8,0.5c1.5,1,2.3,2.8,2.1,4.6
		c0,0,0,0,0,0c-0.1,2,0.7,3.8,2.1,5c-1.9,0.3-3.5,1.6-4.3,3.4c-0.4,0.9-1,1.6-1.6,2C6.7,90,5.9,90.3,5,90.4l-0.9,0.1
		c-0.2,0-0.4,0.2-0.4,0.4c0,0.2,0.1,0.4,0.3,0.5l0.9,0.4c0.8,0.4,1.5,0.9,2,1.7c0.5,0.7,0.8,1.6,0.9,2.5c0,0,0,0,0,0
		c0.1,1.1,0.5,2.2,1.2,3.1c0.5,0.6,1.1,1.1,1.8,1.5c-0.7,0.3-1.4,0.7-2,1.2c-0.6,0.6-1.4,1.5-1.7,2.8c-0.4,1.7-1.8,3.1-3.5,3.6
		l-0.9,0.2c-0.2,0.1-0.4,0.3-0.4,0.5c0,0.2,0.1,0.4,0.4,0.5l0.9,0.2c1.7,0.5,3.1,1.9,3.5,3.6c0.3,1.3,1.1,2.3,1.7,2.9
		c0.6,0.5,1.3,0.9,2,1.2l0,0l0.1,0c-0.7,0.4-1.3,0.9-1.8,1.5c-0.7,0.9-1.1,1.9-1.1,3.1c-0.1,0.9-0.4,1.7-0.9,2.5
		c-0.5,0.7-1.2,1.3-2,1.7l-0.9,0.4c-0.2,0.1-0.3,0.3-0.3,0.5c0,0.2,0.2,0.4,0.4,0.4l0.9,0.1c0.9,0.1,1.7,0.4,2.4,0.9
		c0.7,0.5,1.2,1.2,1.6,2c0.8,1.8,2.4,3.1,4.3,3.4c-1.5,1.2-2.3,3.1-2.1,5.1c0.2,1.8-0.6,3.6-2.1,4.6l-0.8,0.5
		c-0.2,0.1-0.3,0.4-0.2,0.6c0.1,0.2,0.3,0.4,0.5,0.3l0.9-0.1c1.8-0.1,3.5,0.7,4.5,2.2c1,1.6,2.9,2.6,4.8,2.6c0,0,0,0,0,0
		c-1.3,1.5-1.8,3.5-1.2,5.4c0.2,0.8,0.2,1.7,0,2.6c-0.3,0.9-0.7,1.7-1.3,2.3l-0.7,0.7c-0.2,0.2-0.2,0.4-0.1,0.6
		c0.1,0.2,0.3,0.3,0.5,0.2l0.9-0.2c1.7-0.4,3.6,0.1,4.8,1.4c0,0,0,0,0,0c1.1,1.2,2.7,1.8,4.2,1.8c0.3,0,0.7,0,1-0.1
		c-1,1.6-1.2,3.7-0.3,5.5c0.8,1.6,0.6,3.6-0.5,5l-0.6,0.8c-0.1,0.2-0.1,0.4,0,0.6c0.1,0.2,0.4,0.2,0.6,0.1l0.9-0.4
		c1.6-0.7,3.6-0.5,5,0.6c0.4,0.3,0.9,0.6,1.5,0.8c0.5,0.2,1,0.3,1.6,0.3c0.1,0,0.2,0,0.4,0c0.7,0,1.3-0.1,1.9-0.3l0,0l0.1-0.1
		c-0.8,1.8-0.6,3.9,0.6,5.5c0.5,0.7,0.8,1.6,0.8,2.5c0.1,0.9-0.1,1.8-0.5,2.5l-0.4,0.8c-0.1,0.2-0.1,0.4,0.1,0.6
		c0.1,0.1,0.2,0.1,0.3,0.1c0.1,0,0.2,0,0.3-0.1l0.8-0.5c0.7-0.5,1.6-0.8,2.5-0.8c0.8,0,1.7,0.1,2.6,0.6c1.8,0.9,3.8,0.8,5.5-0.1
		c-0.4,1.9,0.1,3.9,1.5,5.4c1.3,1.2,1.7,3.1,1.2,4.9l-0.3,0.9c-0.1,0.2,0,0.4,0.2,0.6c0.1,0,0.2,0.1,0.3,0.1c0.1,0,0.2,0,0.3-0.1
		l0.7-0.6c1.3-1.2,3.3-1.7,4.9-1.1c0,0,0,0,0,0c0.6,0.2,1.1,0.3,1.7,0.3c0.6,0,1.1-0.1,1.6-0.2c0.8-0.2,1.5-0.6,2.1-1.1
		c0,0.8,0.1,1.6,0.4,2.4c0.4,1,1.1,1.9,2,2.6c0.7,0.5,1.3,1.2,1.6,2.1c0.4,0.8,0.5,1.7,0.4,2.5l-0.1,0.9c0,0.2,0.1,0.4,0.3,0.5
		c0.1,0,0.1,0,0.2,0c0.2,0,0.3-0.1,0.4-0.2l0.6-0.8c0.5-0.7,1.2-1.2,2.1-1.6c0.8-0.3,1.7-0.4,2.6-0.3c2,0.2,3.9-0.5,5.1-1.9
		c0.2,1.9,1.4,3.6,3.2,4.5c1.6,0.7,2.7,2.4,2.8,4.2l0,1c0,0.2,0.2,0.4,0.4,0.5c0,0,0.1,0,0.1,0c0.2,0,0.4-0.1,0.4-0.3l0.4-0.8
		c0.8-1.6,2.5-2.7,4.3-2.7c1.9,0,3.7-1.1,4.7-2.7c0.6,1.9,2.1,3.4,3.9,3.9c1.7,0.5,3.1,1.9,3.5,3.7l0.2,0.9c0,0.2,0.2,0.4,0.5,0.4
		c0,0,0,0,0,0c0.2,0,0.4-0.1,0.5-0.3l0.3-0.9c0.5-1.7,2-3,3.7-3.3c0,0,0,0,0,0c1.9-0.4,3.5-1.8,4.2-3.5c0.9,1.7,2.5,2.9,4.5,3.1
		c1.8,0.3,3.4,1.4,4,3l0.4,0.9c0.1,0.2,0.3,0.3,0.5,0.3c0,0,0,0,0.1,0c0.2,0,0.4-0.2,0.4-0.4l0.1-0.9c0.2-1.7,1.4-3.2,3.1-3.9
		c1.9-0.7,3.2-2.3,3.6-4.2c1.2,1.5,3,2.4,5,2.3c1.8-0.1,3.5,0.8,4.5,2.3l0.5,0.8c0.1,0.1,0.2,0.2,0.4,0.2c0,0,0.1,0,0.1,0
		c0.2-0.1,0.4-0.3,0.3-0.5l0-0.9c-0.1-1.8,0.9-3.5,2.4-4.4c1-0.5,1.7-1.4,2.2-2.4c0.3-0.7,0.5-1.5,0.6-2.3c0.6,0.5,1.3,1,2,1.3
		c1,0.4,2.2,0.5,3.3,0.2c0.8-0.2,1.7-0.1,2.6,0.1c0.9,0.3,1.6,0.7,2.2,1.4l0.6,0.7c0.1,0.1,0.2,0.2,0.4,0.2c0.1,0,0.2,0,0.2-0.1
		c0.2-0.1,0.3-0.3,0.3-0.5l-0.2-0.9c-0.2-0.9-0.1-1.7,0.2-2.6c0.3-0.8,0.8-1.6,1.5-2.2c1.5-1.3,2.2-3.3,1.9-5.2
		c1.6,1.1,3.7,1.3,5.5,0.6c1.6-0.7,3.6-0.4,5,0.7l0.7,0.6c0.1,0.1,0.2,0.1,0.3,0.1c0.1,0,0.2,0,0.3-0.1c0.2-0.1,0.2-0.4,0.2-0.6
		l-0.3-0.9c-0.7-1.7-0.4-3.6,0.8-5c0.7-0.8,1.2-1.9,1.3-3c0.1-0.8,0-1.6-0.2-2.4c0.7,0.3,1.5,0.5,2.4,0.6c0,0,0,0,0,0
		c1.1,0,2.2-0.3,3.1-0.9c1.6-0.9,3.5-1,5-0.2l0.8,0.5c0.2,0.1,0.4,0.1,0.6-0.1c0.2-0.2,0.2-0.4,0.1-0.6l-0.5-0.8
		c-0.9-1.5-0.9-3.4,0-5c1-1.7,1-3.8,0.1-5.5c0.5,0.1,1,0.2,1.5,0.2c1.4,0,2.8-0.5,3.9-1.5c1.3-1.2,3.2-1.6,4.9-1l0.9,0.3
		c0.2,0.1,0.4,0,0.6-0.2c0.1-0.2,0.1-0.4,0-0.6l-0.6-0.7c-1.2-1.4-1.5-3.3-0.9-5c0,0,0,0,0,0c0.7-1.8,0.3-3.9-0.8-5.5
		c0.2,0,0.4,0,0.6,0c0.6,0,1.3-0.1,1.8-0.3c1-0.4,2-1,2.7-1.9c1.2-1.4,3-2.1,4.7-1.8l0.9,0.2c0.2,0,0.4-0.1,0.5-0.3s0-0.4-0.1-0.6
		l-0.7-0.6c-1.3-1.1-2-2.9-1.7-4.7c0.2-1.1,0.1-2.2-0.3-3.3c-0.3-0.7-0.8-1.4-1.4-2c1.9-0.2,3.7-1.3,4.7-3c0.8-1.6,2.5-2.6,4.3-2.6
		l1,0c0.2,0,0.4-0.2,0.5-0.4c0.1-0.2,0-0.4-0.2-0.6l-0.8-0.5c-1.6-0.9-2.6-2.6-2.5-4.4c0.1-1.4-0.5-2.5-0.9-3.2
		c-0.4-0.7-1-1.2-1.6-1.7c0.8-0.2,1.5-0.6,2.2-1.1c0.9-0.7,1.5-1.6,1.9-2.7c0.3-0.8,0.8-1.6,1.5-2.2c0.7-0.6,1.5-1,2.3-1.1l0.9-0.2
		c0.2,0,0.4-0.2,0.4-0.4C215.9,117.9,215.8,117.6,215.6,117.6z M203.8,151.7c-1.6,0.2-3.2,1.1-4.3,2.4c-0.7,0.8-1.6,1.4-2.6,1.6
		c-1,0.2-2.1,0-3.1-0.5c-0.1-0.1-0.3-0.1-0.5-0.1c-0.8-1.1-1.1-2.6-0.7-3.9l0,0c0.4-1.6,0-3.4-1-4.7l0.2,0l-0.2-0.2
		c0.1,0,0.1,0,0.2,0c0.7,0,1.5-0.1,2.1-0.4c0.9-0.4,1.7-1.1,2.2-1.9c0.9-1.3,2.3-2.1,3.8-2c1,0.4,1.9,1.1,2.4,2c0.5,0.9,0.7,2,0.5,3
		C202.5,148.7,202.9,150.4,203.8,151.7z M184.1,177.3c-0.1,0.5-0.2,1-0.3,1.5c0,0.7,0,1.4,0.2,2c-1.6-0.3-3.4,0-4.8,0.8
		c-0.9,0.6-2,0.8-3,0.6c-1-0.2-2-0.7-2.7-1.5c-0.6-1.4-0.5-3,0.4-4.2c0.6-0.8,0.9-1.8,0.9-2.8c0-0.7-0.1-1.4-0.4-2.1l0,0l0-0.1
		c0.6,0.2,1.2,0.3,1.8,0.3c0.1,0,0.2,0,0.3,0c1-0.1,1.9-0.4,2.7-1.1c1.3-1,2.9-1.2,4.3-0.6c0.8,0.7,1.3,1.6,1.5,2.5
		c0.2,1,0,2.1-0.5,3C184.5,176.3,184.3,176.8,184.1,177.3z M170.9,192.4c-1.6-0.7-3.4-0.7-4.9,0c-2,0.8-4.3,0-5.5-1.8
		c-0.2-0.7-0.2-1.4,0-2.1c0.2-0.7,0.6-1.4,1.1-2c1.3-1.3,1.8-3.2,1.3-4.9l0.3,0.3l-0.1-0.3c1.5,0.8,3.3,0.8,4.9,0
		c1.2-0.6,2.7-0.7,3.9-0.1c0,0.1,0.1,0.3,0.2,0.4c0.7,0.8,1.1,1.8,1.2,2.9c0,1.1-0.3,2.2-1,2.9C171.3,189,170.8,190.7,170.9,192.4z
		 M130.4,203c0-0.1,0-0.1-0.1-0.2c0.2-1.4,1.1-2.6,2.5-3.3c1.7-0.8,2.7-2.3,3-4l0.1,0.2l0-0.2c1.2,1.2,2.9,1.8,4.6,1.6
		c1.4-0.2,2.8,0.3,3.8,1.3c0,0.1,0,0.3,0,0.4c0.4,1,0.5,2.1,0.1,3.1c-0.3,1.1-1,1.9-1.9,2.4c-1.4,0.8-2.5,2.3-2.9,4
		c-1.3-1.1-3-1.7-4.7-1.6C132.7,206.7,130.8,205.2,130.4,203z M45.6,187.3c-1.6-0.8-3.3-0.9-4.9-0.4c0.1-0.7,0.1-1.3,0-2
		c-0.1-1-0.5-2-1.1-2.8c-1.2-1.7-1-4.2,0.7-5.8c0.1-0.1,0.1-0.2,0.2-0.3c1.3-0.5,2.8-0.4,4,0.3c0.4,0.3,0.9,0.5,1.4,0.6
		c0.4,0.1,0.9,0.2,1.5,0.2c0.7,0,1.3-0.2,1.9-0.4l-0.2,0.3l0.4-0.2c-0.6,1.7-0.3,3.6,0.9,5c0.5,0.6,0.8,1.3,0.9,2.1
		c0.1,0.8,0.1,1.6-0.2,2.2l0,0C49.7,187.7,47.5,188.3,45.6,187.3z M12.8,138.9c-0.2-2.2,1.3-4.2,3.4-4.7c0,0,0.1,0,0.1-0.1
		c0.7,0.1,1.3,0.3,1.9,0.6c0.6,0.4,1.1,1,1.6,1.7c0.9,1.6,2.5,2.7,4.3,2.8l-0.2,0.2l0.1,0c-1.1,1.2-1.6,2.9-1.4,4.6
		c0.3,1.4-0.2,2.8-1.1,3.9c-0.1,0-0.3,0-0.4,0.1c-1,0.4-2.1,0.5-3.1,0.3c-1-0.3-1.9-0.9-2.5-1.8c-0.9-1.4-2.4-2.4-4.1-2.8
		C12.4,142.3,12.9,140.6,12.8,138.9z M11.3,74.4c1.7-0.4,3.2-1.4,4.1-2.8c0.6-0.9,1.5-1.5,2.5-1.8c1-0.3,2.1-0.2,3.1,0.3
		c0.1,0.1,0.3,0.1,0.4,0c0.3,0.4,0.6,0.9,0.8,1.5c0.3,0.8,0.3,1.6,0.2,2.3c-0.3,1.7,0.2,3.4,1.4,4.7l-0.2,0l0.2,0.1
		c-1.8,0.1-3.4,1.2-4.2,2.8c-0.7,1.4-2.1,2.2-3.6,2.3c-2.1-0.6-3.6-2.5-3.4-4.7C12.9,77.5,12.4,75.7,11.3,74.4z M40.7,33.1
		c0.1-0.7,0.1-1.3,0-2c1.6,0.5,3.3,0.3,4.9-0.4c2-1,4.2-0.4,5.6,1.3c0.5,1.4,0.2,3-0.8,4.2l0,0c-1.2,1.5-1.5,3.4-0.9,5.1L49.1,41
		l0.1,0.2c-1.5-0.6-3.2-0.5-4.7,0.4c-0.7,0.4-1.5,0.7-2.2,0.7c-0.6,0-1.3-0.1-1.8-0.3c0-0.1-0.1-0.2-0.2-0.2c-1.6-1.6-1.9-4-0.7-5.8
		C40.2,35.1,40.6,34.2,40.7,33.1z M81.8,16.6c-0.7-2.1,0.3-4.4,2.2-5.4c1.5-0.7,2.7-2,3.3-3.7c1.2,1.2,2.8,2,4.5,2
		c0.5,0,1.1,0.1,1.6,0.3c0.4,0.2,0.9,0.5,1.3,0.9c0.8,0.7,1.3,1.7,1.4,2.8c0,0,0,0.1,0,0.1c-0.3,1.4-1.4,2.6-2.7,3.1
		c-1.7,0.6-2.9,2-3.3,3.8c0,0,0,0,0,0L90,20.4l0,0.1c-1.1-1.3-2.7-2.1-4.4-1.9c-1.4,0.1-2.8-0.6-3.7-1.6
		C81.9,16.8,81.9,16.7,81.8,16.6z M134.9,11.4c1.7,0.1,3.4-0.5,4.7-1.6c0.4,1.7,1.5,3.1,2.9,4c0.9,0.5,1.6,1.4,1.9,2.4
		c0.3,1,0.3,2.1-0.1,3.1c-0.1,0.1-0.1,0.3,0,0.4c-0.4,0.4-0.9,0.7-1.5,0.9c-0.8,0.3-1.6,0.4-2.3,0.3l0,0c-1-0.1-2.1,0-3,0.4
		c-0.6,0.3-1.2,0.7-1.6,1.2l0-0.2l-0.1,0.1c-0.1-0.7-0.3-1.4-0.7-2.1c-0.5-0.9-1.3-1.6-2.2-2c-1.4-0.6-2.3-1.9-2.5-3.4
		c0,0,0,0,0-0.1C130.8,12.8,132.8,11.3,134.9,11.4z M172.3,30.3c0.7,0.8,1,1.8,1,2.9c0,1.1-0.5,2.1-1.2,2.9
		c-0.1,0.1-0.1,0.2-0.2,0.4c-1.2,0.5-2.6,0.5-3.9-0.1c-0.9-0.5-1.9-0.7-2.9-0.6c-0.7,0.1-1.3,0.3-1.9,0.6l0.1-0.3l-0.3,0.2
		c0.2-0.7,0.2-1.5,0.1-2.3c-0.2-1-0.7-2-1.4-2.6c-1.1-1.1-1.5-2.7-1.1-4.2c1.2-1.8,3.5-2.6,5.4-1.8c1.6,0.7,3.3,0.7,4.9,0
		C170.8,27.3,171.3,29,172.3,30.3z M184.1,37.2c-0.2,0.7-0.2,1.3-0.2,2c0,0.5,0.1,0.9,0.3,1.5c0.1,0.5,0.3,1,0.6,1.4
		c0.5,0.9,0.7,2,0.5,3c-0.2,0.9-0.7,1.9-1.5,2.5c-1.4,0.6-3.1,0.4-4.3-0.6l0,0c-1.4-1.1-3.2-1.3-4.9-0.8c0,0,0,0,0,0l0,0l0,0
		c0.6-1.6,0.4-3.4-0.6-4.8c-0.9-1.3-1-2.9-0.4-4.3c0.7-0.8,1.6-1.3,2.6-1.4c1-0.2,2.1,0.1,3,0.6C180.7,37.3,182.5,37.6,184.1,37.2z
		 M202.8,71.1c0.2,1.1,0,2.1-0.5,3c-0.5,0.9-1.4,1.6-2.4,2c-1.5,0.1-3-0.7-3.7-2l0,0c-1-1.5-2.7-2.4-4.5-2.4l0.2-0.2l-0.1,0
		c0.4-0.5,0.8-1.1,0.9-1.7c0.3-1,0.3-2,0.1-3c-0.3-1.4,0-2.8,0.7-3.9c0.1,0,0.3,0,0.4-0.1c1-0.5,2.1-0.7,3.1-0.5
		c1,0.2,2,0.8,2.6,1.6c1.1,1.3,2.6,2.2,4.3,2.4C202.9,67.6,202.5,69.3,202.8,71.1z M198.4,140.6c-1.4,0.3-2.7,1.2-3.5,2.5
		c-0.5,0.8-1.3,1.4-2.2,1.6c-0.9,0.2-1.9,0.2-2.7-0.3c-0.2-0.1-0.3-0.1-0.5,0c-0.8-0.9-1.2-2.2-1-3.5c0.2-0.9,0.1-1.9-0.3-2.7
		c-0.2-0.6-0.6-1.1-1.1-1.6c1.6-0.1,3.1-1.1,3.9-2.5c0.6-1.2,1.7-2,3-2.1c0.1,0,0.1,0.1,0.2,0.1c0.9,0.3,1.7,0.8,2.3,1.6
		c0.5,0.8,0.8,1.7,0.7,2.7C197,137.9,197.5,139.4,198.4,140.6z M189,146.1c0.9,0.4,1.6,1.1,2,1.9c0.4,0.9,0.5,1.9,0.3,2.8
		c-0.4,1.5-0.2,3.1,0.5,4.4c-1.5,0.1-2.9,0.7-3.9,1.9c-1.3,1.4-3.4,1.6-5.1,0.5c-0.1-0.1-0.3-0.1-0.5-0.1c-0.6-1.1-0.8-2.4-0.4-3.5
		l0,0c0.5-1.5,0.3-3.3-0.7-4.6c0.2,0,0.4,0,0.6,0c0.5,0,1-0.1,1.5-0.3c0.9-0.3,1.6-0.9,2.2-1.6c0.8-1,2.1-1.6,3.3-1.5
		C188.9,146.1,188.9,146.1,189,146.1z M182.7,168.6c-1.5-0.2-3,0.2-4.2,1.2c-0.8,0.6-1.7,0.9-2.6,0.8c-0.9-0.1-1.8-0.5-2.5-1.2
		c-0.1-0.1-0.2-0.2-0.4-0.2c-0.6-1.1-0.5-2.5,0.1-3.7c0.8-1.4,0.8-3.1,0.1-4.6c0.5,0.2,1,0.3,1.5,0.3c1.2,0,2.3-0.4,3.2-1.2
		c0.9-0.9,2.2-1.2,3.4-0.9c0,0,0.1,0.1,0.1,0.1c0.8,0.6,1.4,1.4,1.6,2.3c0.3,0.9,0.2,1.9-0.2,2.8c-0.2,0.4-0.3,0.9-0.4,1.3
		c-0.1,0.5-0.1,0.9-0.1,1.3C182.4,167.4,182.5,168,182.7,168.6z M171.8,179.9c-1.5-0.4-3.1-0.3-4.4,0.4c-1.8,0.9-3.9,0.3-5.1-1.2
		c0-0.1-0.1-0.1-0.1-0.1c-0.3-1.2,0-2.5,0.8-3.4c0.6-0.7,1-1.5,1.1-2.5c0.1-0.7,0-1.5-0.3-2.2c0.6,0.3,1.3,0.5,2,0.5c0,0,0,0,0,0
		c0.9,0,1.8-0.3,2.6-0.7c1.1-0.7,2.5-0.8,3.7-0.3c0,0.1,0.1,0.3,0.2,0.4c0.7,0.7,1.2,1.5,1.3,2.4c0.1,1-0.1,1.9-0.6,2.6
		C171.9,176.9,171.6,178.4,171.8,179.9z M149.6,187c-0.1-0.5,0-1.1,0.2-1.6c0.2-0.6,0.6-1.2,1.2-1.7c1.3-1.1,1.9-2.8,1.6-4.4
		c1.4,0.9,3.1,1.1,4.6,0.5c1.1-0.5,2.5-0.4,3.5,0.2c0,0.2,0,0.4,0.1,0.5c1.2,1.6,1.1,3.7-0.3,5.1c-0.6,0.7-1.1,1.4-1.4,2.3
		c-0.2,0.6-0.3,1.1-0.3,1.7c-0.5-0.3-1.1-0.4-1.7-0.5c-1-0.1-1.9-0.1-2.7,0.2c-1,0.3-1.9,0.2-2.8-0.1c-0.9-0.4-1.6-1.1-2-1.9
		C149.6,187.1,149.6,187,149.6,187z M134.2,193.6c0.3,0.9,0.2,1.9-0.1,2.7c-0.4,0.8-1,1.5-1.9,2c-1.4,0.7-2.5,1.8-3,3.2
		c-1-1-2.5-1.6-4.1-1.7c-2-0.1-3.6-1.5-3.8-3.5c0-0.1,0-0.1-0.1-0.2c0.3-1.2,1.2-2.2,2.5-2.7c1.6-0.6,2.7-1.9,3-3.4
		c1,1.2,2.5,1.9,4.1,1.8c1.3-0.1,2.6,0.5,3.4,1.5C134.1,193.3,134.1,193.5,134.2,193.6z M75.5,190.3c-0.4,0.9-1,1.6-1.9,2.1
		c-0.9,0.5-1.8,0.6-2.8,0.4c-1.4-0.3-3.1-0.1-4.4,0.7c-0.1-1.5-0.9-2.9-2-3.8c-1.5-1.3-1.8-3.4-0.7-5c0.1-0.1,0.1-0.3,0.1-0.5
		c1-0.7,2.4-0.9,3.5-0.5l0,0c0.5,0.2,1,0.2,1.4,0.2c0.5,0,0.9-0.1,1.4-0.2c0.6-0.2,1.2-0.5,1.8-0.9c-0.1,0.7,0,1.4,0.3,2.1
		c0.3,0.8,0.9,1.6,1.7,2.1c0.6,0.4,1,0.9,1.3,1.6c0.2,0.5,0.4,1,0.3,1.6C75.5,190.2,75.5,190.2,75.5,190.3z M51.6,175.8
		c0.1-0.1,0.2-0.3,0.2-0.5c0.5-0.2,1-0.3,1.5-0.3c0.7,0,1.4,0.1,2.1,0.4c1.5,0.7,3.3,0.7,4.7-0.1c-0.5,1.6,0,3.4,1.2,4.6
		c0.9,0.9,1.3,2.1,1.1,3.3c0,0-0.1,0.1-0.1,0.1c-1.1,1.7-3.1,2.4-5,1.6c-1.5-0.6-3-0.6-4.4,0c0-0.6,0-1.1-0.1-1.7
		c-0.2-0.9-0.6-1.7-1.2-2.4C50.2,179.4,50.3,177.2,51.6,175.8z M50.3,174.3c-0.6,0.7-1.5,1.2-2.4,1.3c-0.5,0.1-0.9,0.1-1.4,0
		c-0.5-0.1-0.9-0.3-1.3-0.5c-1.2-0.8-2.8-1.1-4.3-0.8c0.4-1.5,0.2-3-0.6-4.3c-0.9-1.7-0.5-3.8,1-5c0,0,0.1-0.1,0.1-0.1
		c1.2-0.4,2.5-0.1,3.5,0.6c0.4,0.3,0.8,0.5,1.2,0.7c0.4,0.2,0.9,0.2,1.3,0.3c0.1,0,0.2,0,0.3,0c0.5,0,1.1-0.1,1.6-0.3
		c-0.6,1.5-0.4,3.2,0.5,4.5c0.4,0.6,0.6,1.2,0.7,1.9c0,0.5,0,1-0.2,1.5C50.4,174.2,50.3,174.2,50.3,174.3z M40,163.7
		c-1.5,1.3-3.6,1.2-5.1-0.1c-1.1-1-2.6-1.6-4.1-1.5c0.2-0.5,0.4-1.1,0.4-1.7c0.1-0.9,0-1.9-0.3-2.7c-0.7-1.8,0.1-3.9,1.9-4.9
		c0,0,0.1,0,0.1-0.1c1.2-0.2,2.5,0.3,3.4,1.2l0,0c0.9,1,2.2,1.5,3.5,1.5c0.3,0,0.7-0.1,1-0.1c-0.8,1.4-1,3.1-0.3,4.7
		c0.5,1.1,0.5,2.4,0,3.5C40.3,163.5,40.1,163.5,40,163.7z M31.7,151.2c-0.8,0.5-1.8,0.6-2.7,0.5c-0.9-0.2-1.7-0.7-2.3-1.4
		c-0.9-1.2-2.3-2-3.8-2.2c0.8-1.3,1.1-2.9,0.9-4.4c-0.3-2,0.8-3.9,2.6-4.5c0,0,0.1,0,0.1-0.1c1.3,0,2.5,0.7,3.2,1.8
		c0.8,1.4,2.3,2.2,4,2.2c0.1,0,0.1,0,0.2,0c-1.1,1.3-1.4,2.9-1,4.5c0.2,0.7,0.2,1.4,0,2.1c-0.1,0.5-0.4,1-0.7,1.4
		C32.1,151.1,31.9,151.1,31.7,151.2z M26.5,78.8c-1.9-0.7-3-2.6-2.6-4.5c0.2-0.9,0.1-1.8-0.2-2.7c-0.2-0.6-0.4-1.1-0.7-1.6
		c1.5-0.2,2.8-1,3.7-2.2c1.2-1.5,3.3-1.9,5-0.9c0.1,0.1,0.3,0.1,0.4,0.1c0.3,0.4,0.6,0.9,0.7,1.4c0.2,0.7,0.2,1.4,0,2.1
		c-0.4,1.5,0,3.2,1,4.5c-1.7-0.1-3.3,0.8-4.1,2.2c-0.7,1.1-1.9,1.8-3.1,1.8C26.6,78.8,26.6,78.8,26.5,78.8z M30.9,55.8
		c1.5,0,3-0.5,4.1-1.5c0.3-0.3,0.7-0.6,1.2-0.7c0.4-0.2,0.9-0.2,1.3-0.2c0,0,0,0,0,0c0.9,0,1.8,0.3,2.6,0.9c0.1,0.1,0.3,0.2,0.5,0.2
		c0.5,1.1,0.6,2.4,0.1,3.6l0,0c-0.7,1.5-0.5,3.3,0.3,4.7c-1.6-0.4-3.3,0.1-4.5,1.4c-0.9,0.9-2.1,1.4-3.3,1.3
		c-0.1-0.1-0.1-0.1-0.2-0.2c-1.7-1-2.5-3-1.9-4.9C31.5,58.9,31.5,57.3,30.9,55.8z M41,43.6c1.4,0.3,2.9,0,4.2-0.8
		c1.7-1,3.7-0.7,5,0.8c0,0,0.1,0.1,0.1,0.1c0.2,0.5,0.2,1,0.2,1.6c0,0.7-0.3,1.4-0.7,1.9c-0.9,1.3-1.1,3-0.5,4.5
		c-0.6-0.2-1.2-0.3-1.9-0.3c-0.5,0-0.9,0.1-1.3,0.3c-0.4,0.2-0.8,0.4-1.2,0.7c-0.9,0.7-2.2,1-3.4,0.7c0-0.1-0.1-0.1-0.2-0.2
		c-1.5-1.2-2-3.4-1-5c0.4-0.8,0.7-1.7,0.7-2.6C41.2,44.7,41.1,44.2,41,43.6z M52.8,33c1.5,0.5,3.1,0.5,4.4,0
		c0.8-0.4,1.8-0.4,2.8-0.1c0.9,0.3,1.7,0.9,2.2,1.7c0,0,0,0,0.1,0.1c0.3,1.2-0.1,2.6-1.1,3.5l0,0c-1.2,1.3-1.6,3-1.2,4.6
		c-1.4-0.8-3.2-0.9-4.7-0.1c-0.7,0.3-1.4,0.5-2.1,0.4c-0.5,0-1-0.1-1.4-0.3c0,0,0,0,0,0c0-0.2-0.1-0.4-0.2-0.5
		c-1.3-1.4-1.4-3.6-0.2-5.1C52.4,36,52.9,34.5,52.8,33z M66,26.2c0.2-0.5,0.4-1.1,0.4-1.7c0.5,0.3,1.1,0.5,1.7,0.7
		c0.8,0.2,1.8,0.2,2.7,0c2-0.4,3.9,0.6,4.6,2.4c0,0,0,0.1,0.1,0.1c0,0.6-0.1,1.1-0.3,1.7c-0.3,0.7-0.7,1.2-1.3,1.6l0,0
		c-0.8,0.6-1.4,1.3-1.7,2.1c-0.3,0.7-0.4,1.4-0.3,2.1c-0.5-0.4-1.1-0.7-1.8-0.9c-0.4-0.1-0.9-0.2-1.4-0.2c-0.5,0-0.9,0.1-1.4,0.2
		c-1.1,0.4-2.5,0.2-3.5-0.5c0,0,0,0,0,0c0-0.2,0-0.4-0.1-0.5c-0.5-0.8-0.7-1.8-0.6-2.7c0.1-0.9,0.6-1.7,1.3-2.3
		C65.1,27.8,65.7,27.1,66,26.2z M77.1,26.8C76.4,25,77.1,23,78.7,22c1.3-0.7,2.3-2,2.7-3.4c1.2,1,2.7,1.5,4.2,1.4c0.5,0,1,0,1.4,0.2
		c0.4,0.1,0.8,0.4,1.2,0.7c0.7,0.6,1.3,1.4,1.5,2.3c0,0,0,0.1,0.1,0.1c-0.2,1.3-1,2.4-2.2,3l0,0c-1.5,0.8-2.5,2.2-2.7,3.7
		c-1.1-1.1-2.6-1.7-4.3-1.5c-0.8,0.1-1.5,0-2.1-0.3c-0.5-0.2-1-0.5-1.3-0.9C77.2,27.1,77.2,27,77.1,26.8z M91.5,22.6
		c-0.2-0.9-0.1-1.9,0.4-2.7c0.4-0.8,1.2-1.5,2.1-1.8c1.4-0.5,2.6-1.6,3.3-3c1,1.2,2.4,1.9,3.9,2.1c2,0.3,3.5,1.8,3.5,3.8
		c0,0.1,0,0.1,0,0.2c-0.4,1.2-1.5,2.3-2.7,2.6c-1.6,0.4-2.8,1.6-3.3,3.1c-0.9-1.3-2.4-2.1-3.9-2.1c-1.3,0-2.5-0.7-3.3-1.8
		C91.5,22.9,91.5,22.7,91.5,22.6z M149.7,30.9c0.9-1.7,2.9-2.6,4.8-2.1c1.4,0.5,3,0.4,4.4-0.3c0,1.5,0.6,3,1.7,4
		c0.7,0.6,1,1.5,1.1,2.5c0,0.9-0.3,1.8-0.8,2.6c-0.1,0.1-0.2,0.3-0.1,0.5c-1.1,0.6-2.4,0.7-3.6,0.2l0,0c-1.6-0.6-3.3-0.4-4.6,0.5
		c0.3-1.6-0.3-3.3-1.6-4.4c-0.5-0.5-1-1.1-1.2-1.7c-0.2-0.5-0.3-1.1-0.2-1.6C149.6,31,149.7,30.9,149.7,30.9z M171.8,39.8
		c0.1,0.4,0.2,0.8,0.4,1.3c0.2,0.4,0.4,0.8,0.6,1.2c0.5,0.8,0.8,1.7,0.7,2.6c-0.1,0.9-0.6,1.8-1.3,2.4c-0.1,0.1-0.2,0.2-0.2,0.4
		c-1.2,0.5-2.6,0.4-3.7-0.3c-0.8-0.5-1.6-0.7-2.6-0.7c-0.7,0-1.4,0.2-2,0.5c0.3-0.7,0.4-1.5,0.3-2.2c-0.1-1-0.5-1.8-1.1-2.5
		c-0.8-0.9-1.1-2.2-0.8-3.4c0.1,0,0.1-0.1,0.2-0.2c0.6-0.8,1.4-1.3,2.3-1.6c0.9-0.2,1.9-0.1,2.8,0.3c1.4,0.7,3,0.8,4.4,0.4
		C171.8,38.6,171.8,39.2,171.8,39.8z M183,53.9c0.4,0.8,0.5,1.8,0.2,2.8c-0.3,0.9-0.8,1.7-1.6,2.3c0,0-0.1,0.1-0.1,0.1
		c-1.2,0.3-2.5-0.1-3.4-0.9l0,0c-1.3-1.2-3-1.5-4.7-1c0.7-1.4,0.7-3.1-0.1-4.6c-0.6-1.2-0.7-2.5-0.1-3.7c0.2,0,0.3-0.1,0.4-0.2
		c1.4-1.4,3.6-1.6,5.1-0.4c1.2,0.9,2.7,1.4,4.2,1.2C182.3,50.9,182.3,52.5,183,53.9z M191.2,67.1c0.2,0.9,0.1,1.9-0.3,2.8
		c-0.4,0.8-1.1,1.5-2,2c-0.1,0-0.1,0.1-0.1,0.1c-1.2,0.1-2.5-0.5-3.3-1.5c-0.6-0.7-1.3-1.3-2.2-1.6c-0.7-0.2-1.4-0.3-2.2-0.2
		c0.9-1.3,1.2-3.1,0.7-4.6c-0.4-1.2-0.3-2.5,0.4-3.6c0,0,0,0,0,0c0.2,0,0.4,0,0.5-0.1c0.8-0.6,1.7-0.8,2.6-0.7
		c0.9,0.1,1.8,0.5,2.4,1.2c1.1,1.1,2.5,1.8,3.9,1.9C191.1,64,190.9,65.6,191.2,67.1z M197.1,81.7c0.1,0.9-0.1,1.9-0.7,2.7
		c-0.5,0.8-1.3,1.3-2.3,1.6c-0.1,0-0.1,0-0.2,0.1c-1.3-0.1-2.4-0.9-3-2.1l0,0c-0.8-1.5-2.3-2.4-3.9-2.5c0.5-0.5,0.8-1,1.1-1.6
		c0.3-0.9,0.4-1.8,0.3-2.7c-0.2-1.3,0.2-2.6,1-3.5c0.2,0.1,0.4,0.1,0.5,0c1.8-0.8,3.8-0.3,4.9,1.4c0.8,1.3,2.1,2.2,3.6,2.5
		C197.5,78.6,197,80.2,197.1,81.7z M52,172.3c-0.1-0.8-0.4-1.6-0.9-2.3c-1-1.4-0.8-3.3,0.6-4.5c0.1-0.1,0.2-0.3,0.2-0.5
		c0-0.1,0-0.1,0-0.2l0.2-0.1c1.1-0.6,2.5-0.5,3.5,0.1c0.4,0.2,0.7,0.4,1.1,0.5c0.4,0.1,0.8,0.2,1.2,0.1c0.6,0,1.2-0.2,1.7-0.4
		c-0.5,1.5-0.3,3.1,0.7,4.3c0.4,0.5,0.7,1,0.8,1.7c0.1,0.6,0,1.2-0.2,1.8l0,0.1c-0.2,0-0.3,0.1-0.4,0.3c-1.1,1.4-3,1.9-4.6,1.1
		c-1.3-0.6-2.7-0.8-4-0.4C52,173.3,52,172.8,52,172.3z M42,54.6c1.4,0.1,2.7-0.2,3.8-1.1c0.3-0.3,0.7-0.5,1.1-0.6
		c0.4-0.1,0.8-0.1,1.2-0.1c0.8,0.1,1.6,0.4,2.2,1.1c0.1,0.1,0.3,0.2,0.5,0.2c0,0,0.1,0,0.1,0l0.1,0.2c0.3,0.5,0.5,1.1,0.5,1.8
		c0,0.6-0.1,1.2-0.4,1.8c-0.7,1.2-0.8,2.8-0.1,4.1c-0.6-0.2-1.3-0.3-2-0.2c-0.4,0.1-0.8,0.2-1.2,0.4c-0.4,0.2-0.7,0.4-1,0.7
		c-0.9,0.8-2.3,1.1-3.4,0.7l0,0c0-0.2-0.1-0.3-0.3-0.4c-1.5-1-2-2.9-1.3-4.5C42.4,57.3,42.5,55.9,42,54.6z M150,35.4
		c1.3,1.1,1.6,3,0.6,4.5c-0.1,0.2-0.1,0.3-0.1,0.5c0,0.1,0.1,0.2,0.1,0.2l-0.1,0.1c-1,0.9-2.3,1.2-3.6,0.8l0,0
		c-1.4-0.4-2.9-0.1-4.1,0.7c0.1-1.5-0.6-2.9-1.8-3.8c-0.5-0.4-0.9-0.9-1.2-1.4c-0.3-0.6-0.4-1.2-0.3-1.8l0-0.1
		c0.1-0.1,0.3-0.2,0.3-0.4c0.3-0.8,0.9-1.5,1.7-1.9c0.7-0.4,1.6-0.5,2.5-0.3c0.8,0.2,1.7,0.2,2.5,0c0.5-0.1,1-0.3,1.5-0.6
		c0.1,0.5,0.2,1,0.4,1.5C148.9,34.1,149.4,34.8,150,35.4z M189.3,109.6c0.1,0.1,0.3,0.2,0.5,0.2c1.7,0,3.2,1.3,3.5,3
		c0.2,1.4,0.9,2.6,2,3.5c-0.4,0.3-0.9,0.6-1.2,0.9c-0.6,0.6-1.1,1.4-1.3,2.1c-0.3,0.9-0.8,1.5-1.5,1.9c-0.7,0.4-1.6,0.6-2.4,0.4
		c-0.2,0-0.4,0.1-0.6,0.2l-0.2-0.1c-1.1-0.5-1.9-1.7-2-3c0-0.8-0.3-1.7-0.9-2.4c-0.3-0.4-0.7-0.8-1.2-1.1c0.5-0.2,1-0.5,1.4-0.9
		c0.6-0.6,1-1.3,1.2-2.2c0.1-0.6,0.5-1.2,0.9-1.7c0.4-0.5,0.9-0.8,1.5-1L189.3,109.6C189.3,109.6,189.3,109.6,189.3,109.6z
		 M188.4,123.5c0.8,0.1,1.6,0.6,2.1,1.2c0.6,0.7,0.9,1.5,0.8,2.4c0,1.4,0.5,2.7,1.4,3.8c-1.3,0.4-2.4,1.4-3,2.6
		c-0.8,1.6-2.6,2.2-4.3,1.6c-0.2-0.1-0.4-0.1-0.5,0c-0.1,0-0.1,0.1-0.2,0.1l-0.1-0.1c-1-0.7-1.6-2-1.5-3.3c0.1-0.9-0.1-1.7-0.5-2.5
		c-0.2-0.5-0.6-0.9-1-1.3c1.4-0.3,2.7-1.2,3.2-2.6c0.5-1.2,1.6-2,2.8-2.1l0.2,0C188,123.3,188.2,123.4,188.4,123.5z M178.9,149.1
		c0.7,0.4,1.3,1.1,1.6,1.9c0.3,0.9,0.3,1.8,0,2.5c-0.5,1.3-0.4,2.7,0.1,4c-1.4,0-2.7,0.5-3.7,1.4c-1.3,1.2-3.2,1.2-4.6,0
		c-0.1-0.1-0.3-0.2-0.5-0.2c-0.1,0-0.2,0-0.3,0.1l0,0c-0.7-1-0.9-2.4-0.3-3.6c0.6-1.4,0.5-2.9-0.2-4.2c0.3,0.1,0.6,0.1,0.9,0.1
		c1.2,0,2.4-0.5,3.2-1.4c0.8-0.9,2.1-1.3,3.4-1l0.1,0C178.6,148.8,178.7,149,178.9,149.1z M171.1,160.3c0.7,0.5,1.1,1.3,1.3,2.1
		c0.2,0.8,0,1.7-0.4,2.4c-0.2,0.4-0.4,0.8-0.5,1.2c-0.1,0.4-0.2,0.8-0.2,1.2c0,0.5,0,1,0.1,1.5c-1.3-0.2-2.7,0-3.8,0.7
		c-0.7,0.4-1.6,0.6-2.4,0.5c-0.8-0.1-1.6-0.6-2.2-1.2c-0.2-0.2-0.4-0.2-0.6-0.2c-0.6-1.1-0.5-2.5,0.3-3.5c0.5-0.7,0.8-1.5,0.8-2.4
		c0-0.6-0.1-1.1-0.3-1.7c0.5,0.2,1,0.3,1.5,0.3c0.1,0,0.2,0,0.3,0c0.8-0.1,1.6-0.4,2.3-0.9c1-0.8,2.4-0.9,3.5-0.4l0,0
		C170.8,160,170.9,160.2,171.1,160.3z M50.9,163.9c-0.2,0-0.4,0.1-0.5,0.2c-0.6,0.6-1.4,1-2.2,1.1c-0.4,0-0.8,0-1.2-0.1
		c-0.4-0.1-0.8-0.3-1.1-0.6c-1-0.8-2.4-1.2-3.8-1.1c0.4-1.3,0.3-2.8-0.2-4c-0.7-1.6-0.2-3.5,1.3-4.6c0.2-0.1,0.3-0.3,0.3-0.5
		c1.2-0.4,2.5-0.1,3.4,0.7l0,0c0.8,0.7,1.9,1.1,2.9,1.1c0.4,0,0.9-0.1,1.3-0.2c-0.6,1.3-0.6,2.8,0.1,4.1c0.6,1.1,0.6,2.5,0,3.5
		L50.9,163.9C50.9,163.9,50.9,163.9,50.9,163.9z M42.6,153.3L42.6,153.3c-0.3-0.1-0.6-0.1-0.8,0.1c-1.4,1-3.3,0.8-4.5-0.4
		c-0.9-1-2.2-1.6-3.5-1.7c0.2-0.4,0.4-0.9,0.5-1.5c0.2-0.9,0.2-1.7-0.1-2.5c-0.5-1.7,0.4-3.5,2-4.2c0.2-0.1,0.3-0.2,0.4-0.4l0,0
		c1.2-0.2,2.5,0.3,3.3,1.3c0.8,1.1,2.1,1.7,3.4,1.7c0.2,0,0.4,0,0.5,0c-0.9,1.2-1.1,2.8-0.6,4.1c0.2,0.6,0.3,1.2,0.1,1.9
		C43.3,152.3,43,152.9,42.6,153.3z M29.2,115.2c-0.1-0.1-0.3-0.2-0.5-0.2c-0.8,0.1-1.7-0.2-2.3-0.6c-0.7-0.5-1.2-1.3-1.4-2.1
		c-0.3-1.4-1.1-2.5-2.3-3.3c1.1-0.8,2-1.9,2.3-3.3c0.2-0.8,0.6-1.5,1.4-2.1c0.7-0.5,1.5-0.7,2.3-0.6c0.2,0,0.4,0,0.5-0.2
		c0,0,0-0.1,0.1-0.1l0.2,0.1c0.6,0.2,1.1,0.6,1.4,1.1c0.4,0.5,0.7,1.1,0.8,1.7v0c0.1,0.9,0.5,1.7,1,2.3c0.4,0.4,0.8,0.8,1.3,1
		c-0.5,0.3-0.9,0.6-1.3,1c-0.4,0.5-0.9,1.3-1.1,2.3c-0.2,1.3-1,2.4-2.2,2.8L29.2,115.2C29.3,115.2,29.3,115.2,29.2,115.2z M29,101.3
		c-0.8-0.1-1.6-0.4-2.2-1c-0.6-0.6-0.9-1.4-1-2.3c-0.1-0.8-0.3-1.7-0.8-2.4c-0.3-0.5-0.6-0.9-0.9-1.2c1.2-0.5,2.2-1.5,2.7-2.9
		c0.7-1.6,2.4-2.5,4.1-2c0.3,0.1,0.5,0,0.7-0.2l0.2,0.1c1.1,0.6,1.7,1.9,1.7,3.2v0c0,1.5,0.7,2.8,1.8,3.6c-1.4,0.4-2.5,1.4-2.9,2.9
		c-0.2,0.7-0.6,1.2-1,1.6c-0.5,0.4-1,0.7-1.6,0.8l-0.2,0C29.3,101.4,29.2,101.3,29,101.3z M36.3,75c-1.6-0.8-2.5-2.6-2-4.3
		c0.2-0.8,0.2-1.7,0.1-2.5c-0.1-0.5-0.3-1-0.5-1.5c1.3-0.1,2.6-0.7,3.5-1.7c1.2-1.3,3.1-1.5,4.5-0.4c0.2,0.2,0.5,0.2,0.8,0l0,0
		c0.8,1,1.1,2.4,0.6,3.6l0,0c-0.5,1.4-0.3,2.9,0.6,4.1c-1.5-0.2-3,0.4-3.9,1.7c-0.8,1-2,1.5-3.2,1.3l-0.1,0
		C36.5,75.2,36.4,75.1,36.3,75z M51.6,52.6c-1.3-1.2-1.6-3.2-0.6-4.5c0.5-0.7,0.8-1.5,0.9-2.3c0.1-0.5,0.1-1,0-1.5
		c1.3,0.4,2.7,0.2,4-0.4c1.6-0.8,3.5-0.3,4.6,1.1c0.1,0.2,0.3,0.2,0.5,0.3c0.5,1.2,0.2,2.5-0.6,3.4l0,0c-1,1.2-1.3,2.8-0.7,4.3
		c-1.3-0.6-2.8-0.5-4.1,0.3c-0.6,0.3-1.2,0.5-1.8,0.5c-0.6,0-1.2-0.1-1.8-0.4l-0.2-0.1c0,0,0-0.1,0-0.1
		C51.8,52.9,51.8,52.7,51.6,52.6z M61.9,43.7c-1.1-1.4-1-3.3,0.2-4.6c1-0.9,1.5-2.2,1.6-3.6c1.3,0.6,2.7,0.7,4,0.3
		c0.8-0.3,1.7-0.2,2.5,0.1c0.8,0.3,1.4,0.9,1.8,1.7c0.1,0.2,0.2,0.3,0.4,0.3l0,0c0.1,0.6,0.1,1.2-0.1,1.8c-0.2,0.6-0.6,1.1-1,1.5
		l0,0c-0.7,0.6-1.2,1.3-1.4,2.1c-0.2,0.6-0.2,1.3-0.1,2c-0.5-0.3-1.1-0.6-1.7-0.7c-0.4-0.1-0.8-0.1-1.3-0.1c-0.4,0-0.8,0.1-1.3,0.3
		c-1.2,0.5-2.6,0.3-3.6-0.5l0,0c0-0.1,0.1-0.1,0.1-0.2C62.1,44,62.1,43.8,61.9,43.7z M163.1,49.3c0.6-0.6,1.3-1.1,2.2-1.2
		c0.8-0.1,1.6,0,2.4,0.5c1.2,0.7,2.5,0.9,3.8,0.7c-0.1,0.5-0.2,1-0.1,1.5c0,0.4,0.1,0.8,0.2,1.2c0.1,0.4,0.3,0.8,0.5,1.2
		c0.4,0.7,0.5,1.6,0.4,2.4c-0.2,0.8-0.6,1.6-1.3,2.1c-0.1,0.1-0.2,0.3-0.3,0.5c-1.1,0.5-2.5,0.4-3.5-0.4l0,0
		c-1.2-0.9-2.7-1.1-4.1-0.6c0.5-1.3,0.4-2.8-0.5-4c-0.7-1.1-0.8-2.4-0.3-3.5C162.7,49.6,162.9,49.5,163.1,49.3z M171.7,59.1
		L171.7,59.1c0.1,0,0.2,0.1,0.3,0.1c0.2,0,0.4,0,0.5-0.2c1.4-1.1,3.3-1.1,4.6,0c1,0.9,2.3,1.4,3.7,1.4c-0.5,1.3-0.6,2.7-0.1,4
		c0.3,0.7,0.3,1.6,0,2.5c-0.3,0.8-0.9,1.5-1.6,1.9c-0.2,0.1-0.3,0.2-0.3,0.4l-0.1,0c-1.2,0.3-2.5-0.1-3.4-1
		c-0.6-0.6-1.3-1.1-2.1-1.3c-0.6-0.2-1.3-0.2-2,0c0.8-1.3,0.9-2.9,0.3-4.2C170.8,61.6,170.9,60.2,171.7,59.1z M185,82.9
		c0.2,0.1,0.4,0.1,0.5,0c1.6-0.6,3.4,0.1,4.3,1.6c0.6,1.2,1.7,2.2,3,2.6c-0.9,1-1.4,2.4-1.4,3.8c0,0.8-0.3,1.7-0.8,2.3
		c-0.5,0.6-1.3,1.1-2.1,1.2c-0.2,0-0.3,0.1-0.4,0.3l-0.2,0c-0.6-0.1-1.2-0.3-1.7-0.7c-0.5-0.4-0.9-0.9-1.2-1.5l0,0
		c-0.3-0.8-0.9-1.5-1.6-2c-0.5-0.3-1.1-0.6-1.7-0.7c0.4-0.4,0.8-0.8,1-1.3c0.3-0.6,0.6-1.5,0.5-2.5c-0.1-1.3,0.5-2.6,1.5-3.3
		l0.1-0.1C184.9,82.8,184.9,82.9,185,82.9z M29.5,116.4l0.1,0c1.2,0.2,2.3,1.2,2.6,2.4c0.3,1,0.9,1.7,1.4,2.1c0.5,0.4,1,0.6,1.5,0.8
		c-0.4,0.3-0.8,0.7-1.1,1.2c-0.4,0.7-0.7,1.6-0.7,2.4c0,0.6-0.2,1.3-0.5,1.9c-0.3,0.6-0.7,1-1.3,1.3l-0.2,0.1
		c-0.2-0.1-0.4-0.2-0.6-0.2c-1.7,0.5-3.4-0.4-4.1-2c-0.6-1.3-1.5-2.3-2.7-2.9c0.4-0.4,0.7-0.8,0.9-1.2c0.4-0.8,0.7-1.6,0.8-2.4
		c0.1-0.9,0.4-1.7,1-2.3c0.6-0.6,1.4-1,2.2-1C29.2,116.7,29.4,116.5,29.5,116.4z M61.2,162.9c-0.1-0.1-0.3-0.2-0.5-0.2
		c-0.2,0-0.3,0.1-0.4,0.2c-0.5,0.6-1.2,1-1.9,1.1c-0.4,0.1-0.7,0.1-1.1,0c-0.4-0.1-0.7-0.2-1-0.4c-1-0.6-2.2-0.9-3.4-0.7
		c0.3-1.2,0.1-2.4-0.5-3.4c-0.7-1.3-0.4-3,0.8-4c0.1-0.1,0.2-0.3,0.2-0.5c0-0.2,0-0.3-0.2-0.5l-0.3-0.4l-0.1,0.1l-0.1-0.1
		c-0.1-0.1-0.3-0.2-0.5-0.2c-0.2,0-0.3,0-0.5,0.2c-1.2,1-2.9,1-4,0c-0.9-0.8-2.1-1.3-3.2-1.3c0,0,0,0,0,0c0.2-0.4,0.3-0.8,0.3-1.3
		c0.1-0.8,0-1.6-0.2-2.3c-0.5-1.4,0.1-3.1,1.5-3.9c0.3-0.2,0.4-0.6,0.3-0.9L46,144l-0.2,0.1c-0.1-0.2-0.2-0.3-0.4-0.3
		c-0.2-0.1-0.4,0-0.5,0.1c-0.7,0.4-1.4,0.5-2.1,0.4c-0.7-0.1-1.4-0.5-1.8-1.1c-0.7-1-1.8-1.6-3-1.8c0.6-1.1,0.9-2.3,0.7-3.5
		c-0.2-1.6,0.6-3.1,2.1-3.6c0.3-0.1,0.5-0.5,0.4-0.9l-0.2-0.5l-0.2,0.1c-0.1-0.3-0.5-0.5-0.8-0.3c-1.4,0.5-3-0.1-3.8-1.5
		c-0.6-1.1-1.5-1.9-2.6-2.3c0.3-0.3,0.5-0.7,0.7-1.1c0.3-0.7,0.5-1.5,0.5-2.2c0-0.8,0.2-1.5,0.7-2.1c0.5-0.6,1.2-1,1.9-1.1
		c0.4-0.1,0.6-0.4,0.5-0.8l-0.1-0.5l-0.2,0c0-0.1-0.1-0.2-0.2-0.3c-0.1-0.1-0.3-0.1-0.5-0.1c-0.7,0.1-1.5,0-2.1-0.4
		c-0.7-0.4-1.2-1-1.4-1.7c-0.4-1.2-1.2-2.2-2.2-2.8c0.9-0.8,1.6-1.9,1.8-3.2c0.1-0.7,0.5-1.4,1.1-1.9c0.6-0.5,1.3-0.7,2-0.8
		c0.2,0,0.3-0.1,0.5-0.2c0.1-0.1,0.1-0.2,0.2-0.3h0l0-0.2c0,0,0,0,0,0l0-0.5l0,0c-0.1-0.3-0.3-0.5-0.6-0.5c-0.7,0-1.5-0.3-2-0.7
		c-0.6-0.5-0.9-1.1-1-1.9c-0.1-0.7-0.4-1.5-0.9-2.1c-0.3-0.4-0.6-0.7-0.9-1c1-0.6,1.8-1.6,2.2-2.8c0.5-1.5,2-2.4,3.5-2.1
		c0.3,0.1,0.6-0.1,0.7-0.4l0.2,0l0.1-0.5c0-0.2,0-0.4-0.1-0.5c-0.1-0.1-0.3-0.2-0.4-0.3c-1.5-0.3-2.6-1.6-2.6-3.2
		c0-1.3-0.4-2.5-1.2-3.4c1.1-0.4,2.1-1.3,2.7-2.3c0.3-0.7,0.9-1.2,1.6-1.4c0.7-0.3,1.5-0.3,2.2,0c0.2,0.1,0.4,0.1,0.5,0
		c0.1-0.1,0.2-0.2,0.3-0.3l0.2,0.1l0.2-0.5c0.1-0.3-0.1-0.7-0.4-0.8c-1.5-0.5-2.4-2.1-2.1-3.6c0.1-0.7,0.1-1.5-0.1-2.3
		c-0.1-0.5-0.3-0.9-0.5-1.2c1.2-0.2,2.2-0.9,3-1.8c1-1.2,2.6-1.5,4-0.8c0.3,0.2,0.7,0.1,0.9-0.2l0,0l0.2,0.1l0.2-0.4
		c0.1-0.2,0.1-0.3,0.1-0.5c0-0.2-0.2-0.3-0.3-0.4c-1.4-0.8-2-2.4-1.5-3.9c0.4-1.2,0.4-2.5-0.1-3.6c1.2,0,2.4-0.5,3.3-1.3
		c0.3-0.3,0.6-0.5,0.9-0.6c0.3-0.1,0.7-0.2,1.1-0.2c0,0,0,0,0,0c0.7,0,1.5,0.3,2.1,0.8c0.1,0.1,0.3,0.2,0.5,0.2
		c0.2,0,0.3-0.1,0.4-0.2l0-0.1l0.2,0.1l0.3-0.4c0.1-0.1,0.2-0.3,0.1-0.5c0-0.2-0.1-0.3-0.2-0.4c-1.2-1-1.6-2.7-0.8-4
		c0.4-0.6,0.6-1.4,0.6-2.2c0-0.4,0-0.9-0.1-1.3c1.2,0.2,2.4,0,3.4-0.7c1.3-0.8,3-0.5,4,0.6c0.2,0.3,0.7,0.3,0.9,0.1l0.4-0.3
		l-0.1-0.1l0.1,0c0.1-0.1,0.2-0.3,0.2-0.5c0-0.2-0.1-0.4-0.2-0.5c-1.1-1.2-1.1-2.9-0.2-4c0.8-0.9,1.2-2.1,1.1-3.3
		c1.2,0.4,2.5,0.4,3.6-0.1c0.7-0.3,1.5-0.3,2.2-0.1c0.7,0.2,1.3,0.7,1.8,1.4c0.2,0.3,0.6,0.4,0.9,0.2l0.4-0.3l-0.1-0.2l0,0
		c0.2-0.1,0.3-0.2,0.3-0.4c0-0.2,0-0.4-0.1-0.5c-0.4-0.6-0.6-1.4-0.5-2.1c0.1-0.7,0.5-1.3,1.1-1.9c0.6-0.5,1-1.1,1.3-1.8
		c0.2-0.4,0.3-0.8,0.4-1.3c0.4,0.2,0.8,0.4,1.3,0.5c0.7,0.2,1.5,0.2,2.3,0c1.6-0.3,3.1,0.5,3.7,1.9c0.1,0.3,0.5,0.5,0.9,0.4l0.5-0.2
		l-0.1-0.2c0.1-0.1,0.3-0.2,0.3-0.3c0.1-0.2,0.1-0.4,0-0.5c-0.6-1.4-0.1-3,1.3-3.8c1.1-0.6,1.9-1.6,2.2-2.7c1,0.8,2.2,1.2,3.4,1.1
		c0.4,0,0.8,0,1.1,0.1c0.3,0.1,0.7,0.3,1,0.5c0.6,0.5,1,1.1,1.2,1.9c0.1,0.4,0.4,0.6,0.8,0.5l0.5-0.1l0-0.2c0.1-0.1,0.2-0.1,0.3-0.2
		c0.1-0.1,0.1-0.3,0.1-0.5c-0.2-0.7-0.1-1.5,0.3-2.1c0.3-0.7,0.9-1.2,1.7-1.4c1.1-0.4,2.1-1.3,2.7-2.4c0.8,0.9,2,1.5,3.2,1.6
		c1.6,0.2,2.8,1.5,2.8,3c0,0.2,0.1,0.3,0.2,0.5c0.1,0.1,0.3,0.2,0.5,0.2l0.5,0l0-0.1c0.3-0.1,0.5-0.3,0.5-0.7
		c-0.1-1.5,1-2.9,2.6-3.2c1.3-0.3,2.3-0.9,3-1.9c0.6,1,1.6,1.7,2.9,2.1c0.7,0.2,1.4,0.7,1.8,1.3c0.4,0.6,0.6,1.3,0.5,2.1
		c0,0.2,0,0.4,0.1,0.5c0.1,0.1,0.2,0.2,0.3,0.2l0,0.2l0.5,0.1c0.2,0,0.4,0,0.5-0.1c0.1-0.1,0.2-0.3,0.3-0.4c0.2-1.5,1.5-2.7,3.1-2.8
		c1.2,0,2.4-0.5,3.4-1.4c0.5,1.1,1.4,2.1,2.5,2.6c0.7,0.3,1.2,0.8,1.5,1.6c0.3,0.7,0.3,1.4,0.1,2.2c-0.1,0.2,0,0.4,0.1,0.5
		c0.1,0.1,0.2,0.2,0.3,0.3l-0.1,0.2l0.5,0.1c0.3,0.1,0.7-0.1,0.8-0.4c0.2-0.7,0.7-1.3,1.4-1.8c0.6-0.4,1.4-0.6,2.2-0.5
		c0.7,0.1,1.5,0,2.3-0.2c0.4-0.1,0.9-0.3,1.2-0.6c0.1,0.4,0.3,0.8,0.5,1.2c0.4,0.6,0.9,1.2,1.5,1.7c1.3,0.9,1.7,2.5,0.9,3.9
		c-0.2,0.3,0,0.7,0.3,0.9l-0.1,0.2l0.4,0.2c0.3,0.2,0.7,0,0.9-0.3c0.7-1.4,2.3-2.1,3.9-1.6c1.2,0.4,2.5,0.3,3.6-0.2
		c0.1,1.2,0.6,2.4,1.4,3.2c0.5,0.5,0.8,1.2,0.9,2c0,0.7-0.2,1.5-0.7,2.1c-0.1,0.1-0.2,0.3-0.1,0.5c0,0.2,0.1,0.3,0.3,0.4l0,0
		l-0.1,0.2l0.4,0.3c0.3,0.2,0.7,0.1,0.9-0.1c0.5-0.6,1.1-1.1,1.9-1.2c0.7-0.2,1.5-0.1,2.2,0.3c1.1,0.5,2.4,0.7,3.5,0.4
		c-0.1,0.4-0.1,0.9,0,1.3c0,0.3,0.1,0.7,0.3,1.1c0.1,0.4,0.3,0.7,0.5,1c0.4,0.6,0.6,1.4,0.5,2.1c-0.1,0.7-0.4,1.4-1,1.9
		c-0.1,0.1-0.2,0.3-0.2,0.5c0,0.2,0.1,0.3,0.2,0.5l0.3,0.4l0,0c0.1,0.1,0.3,0.2,0.4,0.2c0.2,0,0.4-0.1,0.5-0.2
		c1.1-1.1,2.8-1.3,4-0.3c0.9,0.8,2.2,1.1,3.4,1c-0.4,1.2-0.3,2.5,0.2,3.6c0.3,0.6,0.4,1.4,0.1,2.2c-0.2,0.7-0.7,1.4-1.3,1.8
		c-0.3,0.2-0.4,0.6-0.2,0.9l0.3,0.4l0.2-0.1l0,0c0.1,0.1,0.2,0.2,0.4,0.3c0.2,0,0.4,0,0.5-0.1c0.6-0.4,1.4-0.6,2.1-0.6
		c0.7,0.1,1.4,0.4,1.9,1c0.9,0.9,2,1.5,3.1,1.6c-0.5,1.1-0.7,2.3-0.4,3.6c0.2,0.8,0.1,1.5-0.2,2.2c-0.3,0.7-0.9,1.2-1.6,1.6
		c-0.3,0.2-0.5,0.5-0.3,0.9l0.2,0.5l0.2-0.1c0.1,0.1,0.2,0.3,0.3,0.3c0.2,0.1,0.4,0.1,0.5,0c1.4-0.7,3-0.2,3.9,1.1
		c0.6,1.1,1.7,1.8,2.8,2.1c-0.7,1-1.1,2.3-1,3.5c0.1,0.7-0.1,1.5-0.6,2.1c-0.4,0.6-1.1,1.1-1.8,1.3c-0.4,0.1-0.6,0.5-0.5,0.8
		l0.1,0.5l0.2-0.1c0.1,0.1,0.1,0.2,0.3,0.3c0.2,0.1,0.3,0.1,0.5,0.1c0.7-0.2,1.5-0.1,2.2,0.2c0.7,0.3,1.2,0.9,1.5,1.6
		c0.3,0.7,0.8,1.3,1.3,1.8c0.3,0.3,0.7,0.5,1.1,0.7c-0.9,0.8-1.4,2-1.5,3.3c-0.1,1.6-1.3,2.8-2.9,3c-0.2,0-0.3,0.1-0.5,0.2
		c-0.1,0.1-0.2,0.3-0.1,0.5l0.1,0.5l0.1,0c0,0.1,0.1,0.2,0.2,0.3c0.1,0.1,0.3,0.2,0.5,0.2c1.5-0.1,2.9,0.9,3.3,2.4
		c0.3,1.2,1,2.3,2,3c-0.4,0.3-0.7,0.6-1,0.9c-0.5,0.6-0.9,1.3-1,2c-0.2,0.8-0.6,1.4-1.2,1.8c-0.6,0.4-1.3,0.6-2.1,0.6
		c-0.3,0-0.6,0.2-0.7,0.4l-0.1,0l0,0.5c0,0.4,0.2,0.7,0.6,0.7c0.7,0.1,1.4,0.4,2,0.9c0.6,0.6,0.9,1.3,0.9,2c0.1,1.2,0.6,2.4,1.5,3.3
		c-1.1,0.5-2,1.4-2.5,2.6c-0.6,1.4-2.1,2.2-3.6,1.8c-0.2,0-0.4,0-0.5,0.1c-0.1,0.1-0.2,0.2-0.3,0.3l-0.2-0.1l-0.1,0.5
		c-0.1,0.4,0.1,0.7,0.5,0.8c0.7,0.2,1.4,0.7,1.8,1.3c0.4,0.6,0.6,1.4,0.6,2.2c-0.1,1.3,0.3,2.5,0.9,3.5c-1.1,0.3-2.1,1-2.8,2.1
		c-0.4,0.6-1,1.1-1.7,1.3c-0.7,0.2-1.5,0.1-2.2-0.2c-0.2-0.1-0.3-0.1-0.5,0c-0.2,0.1-0.3,0.2-0.4,0.3l-0.2-0.1l-0.2,0.5
		c-0.1,0.3,0,0.7,0.3,0.9c0.7,0.3,1.2,0.9,1.6,1.6c0.3,0.7,0.4,1.5,0.2,2.2c-0.3,1.2-0.2,2.5,0.4,3.6c-1.2,0.1-2.3,0.6-3.1,1.6
		c-1,1.1-2.7,1.3-4,0.4c-0.1-0.1-0.3-0.1-0.5-0.1c-0.2,0-0.3,0.1-0.4,0.3l0,0l-0.2-0.1l-0.3,0.4c-0.2,0.3-0.1,0.7,0.2,0.9
		c0.6,0.4,1.1,1.1,1.3,1.8c0.2,0.7,0.1,1.5-0.2,2.2c-0.2,0.3-0.3,0.7-0.3,1.1c-0.1,0.4-0.1,0.8-0.1,1.1c0,0.5,0.1,0.9,0.2,1.3
		c-1.2-0.1-2.4,0.2-3.4,1c-0.6,0.5-1.3,0.7-2,0.6c-0.7-0.1-1.5-0.4-2-0.9c-0.1-0.1-0.3-0.2-0.5-0.2c-0.2,0-0.3,0.1-0.5,0.2l0,0
		l-0.3,0.3c-0.1,0.1-0.2,0.3-0.2,0.5c0,0.2,0.1,0.4,0.2,0.5c0.6,0.5,0.9,1.2,1,2c0.1,0.8-0.1,1.5-0.5,2.1c-0.7,1-1,2.2-0.8,3.4
		c-1.2-0.3-2.5-0.2-3.5,0.4c-1.4,0.7-3.1,0.3-4-1c-0.1-0.1-0.3-0.2-0.4-0.3c-0.2,0-0.3,0-0.5,0.1l-0.4,0.3l0.1,0.2l0,0
		c-0.1,0.1-0.2,0.3-0.3,0.4c0,0.2,0,0.4,0.1,0.5c1,1.3,0.9,2.9-0.2,4c-0.5,0.6-0.9,1.2-1.2,1.9c-0.1,0.4-0.2,0.9-0.2,1.3
		c-0.4-0.2-0.9-0.3-1.3-0.4c-0.8-0.1-1.6-0.1-2.3,0.1c-0.8,0.2-1.5,0.2-2.2-0.1c-0.7-0.3-1.3-0.9-1.6-1.5c-0.2-0.3-0.6-0.5-0.9-0.3
		l-0.5,0.2l0.1,0.2c-0.2,0.1-0.3,0.2-0.3,0.4c-0.1,0.2,0,0.4,0,0.5c0.4,0.7,0.5,1.4,0.3,2.1c-0.2,0.7-0.6,1.4-1.2,1.8
		c-1,0.7-1.7,1.7-2,2.9c-1-0.7-2.3-1-3.5-0.8c-1.6,0.2-3.1-0.8-3.5-2.3c-0.1-0.3-0.5-0.5-0.8-0.4l-0.5,0.1l0.1,0.2
		c-0.1,0.1-0.2,0.2-0.3,0.3c-0.1,0.2-0.1,0.3,0,0.5c0.2,0.7,0.2,1.5-0.1,2.1c-0.3,0.7-0.8,1.2-1.5,1.6c-1.1,0.6-2,1.5-2.4,2.5
		c-0.9-0.8-2-1.3-3.3-1.4c-1.6-0.1-2.9-1.2-3.1-2.7c0-0.4-0.4-0.6-0.7-0.6l-0.5,0l0,0.2c-0.1,0-0.2,0.1-0.3,0.2
		c-0.1,0.1-0.2,0.3-0.1,0.5c0.2,1.5-0.7,2.9-2.2,3.4c-1.2,0.3-2.2,1.1-2.9,2.1c-0.8-1-1.9-1.7-3.1-1.9c-0.8-0.1-1.4-0.5-1.9-1.1
		c-0.5-0.6-0.7-1.3-0.7-2.1c0-0.3-0.2-0.6-0.5-0.6l0-0.1l-0.5,0c-0.4,0-0.7,0.3-0.7,0.6c0,0.7-0.3,1.5-0.8,2
		c-0.3,0.3-0.6,0.5-0.9,0.7c-0.3,0.2-0.7,0.3-1.1,0.3c-1.2,0.1-2.4,0.7-3.2,1.6c-0.6-1.1-1.5-1.9-2.7-2.3c-1.5-0.6-2.3-2.1-1.9-3.6
		c0-0.2,0-0.4-0.1-0.5c-0.1-0.1-0.2-0.2-0.3-0.2l0-0.2l-0.5-0.1c-0.4-0.1-0.7,0.2-0.8,0.5c-0.3,1.5-1.7,2.6-3.3,2.5
		c-0.8,0-1.6,0.1-2.2,0.4c-0.4,0.2-0.8,0.4-1.2,0.7c-0.1-0.4-0.3-0.8-0.6-1.2c-0.4-0.7-1-1.2-1.6-1.6c-0.7-0.4-1.2-1-1.4-1.7
		c-0.2-0.7-0.2-1.5,0.1-2.2c0.1-0.2,0.1-0.4,0-0.5c-0.1-0.1-0.2-0.3-0.3-0.3l0.1-0.2l-0.5-0.2c-0.3-0.1-0.7,0-0.9,0.4
		c-0.3,0.7-0.8,1.3-1.5,1.6c-0.7,0.4-1.5,0.5-2.2,0.3c-1.2-0.3-2.5-0.1-3.6,0.5c-0.1-1.2-0.8-2.3-1.7-3.1c-1.2-1-1.4-2.7-0.6-4
		c0.1-0.2,0.1-0.3,0.1-0.5c0-0.2-0.2-0.3-0.3-0.4l0,0l0.1-0.2l-0.4-0.3c-0.3-0.2-0.7-0.1-0.9,0.2c-0.9,1.3-2.5,1.9-4,1.3
		c-1.2-0.5-2.4-0.5-3.6-0.1c0-0.4,0-0.9-0.1-1.3c-0.2-0.8-0.5-1.5-1-2c-1-1.1-0.9-2.9,0.1-4c0.1-0.1,0.2-0.3,0.2-0.5
		c0-0.2-0.1-0.3-0.2-0.5l-0.1-0.1l0.1-0.1L61.2,162.9z M189.8,108.2c-0.2,0-0.4,0.1-0.5,0.2c0,0,0,0,0,0l-0.2-0.1
		c-0.6-0.2-1.1-0.5-1.5-1c-0.4-0.4-0.7-1-0.9-1.7c-0.4-1.5-1.4-2.6-2.6-3.1c1.1-0.7,1.9-2,2-3.5c0.1-0.7,0.3-1.3,0.6-1.8
		c0.3-0.5,0.8-1,1.4-1.2l0.2-0.1c0,0,0.1,0.1,0.1,0.1c0.1,0.1,0.3,0.1,0.5,0.1c0.8-0.1,1.7,0,2.4,0.4c0.7,0.4,1.2,1.1,1.5,1.9
		c0.3,0.8,0.7,1.5,1.3,2.1c0.4,0.4,0.8,0.7,1.2,1c-1,0.8-1.8,2.1-2,3.5C193,106.9,191.5,108.2,189.8,108.2
		C189.8,108.2,189.8,108.2,189.8,108.2z M187.1,77.3c0.1,0.9,0,1.7-0.4,2.5c-0.4,0.7-1.1,1.3-1.9,1.6c-0.2,0.1-0.3,0.2-0.4,0.3
		l-0.1,0c-1.2,0.1-2.5-0.5-3.1-1.6l0,0c-0.8-1.3-2.2-2-3.7-2c0.4-0.5,0.7-1,0.8-1.5c0.2-0.8,0.3-1.7,0.1-2.5c-0.3-1.3,0-2.7,0.9-3.5
		l0.1-0.1c0.1,0.1,0.1,0.1,0.2,0.1c0.2,0,0.4,0,0.5-0.1c0.7-0.4,1.6-0.6,2.4-0.4c0.8,0.2,1.5,0.6,2.1,1.3c0.9,1.1,2.1,1.8,3.4,2
		C187.1,74.4,186.9,75.8,187.1,77.3z M161.9,43.4c0.5,0.6,0.8,1.4,0.8,2.3c0,0.8-0.4,1.6-0.9,2.3c-0.1,0.1-0.2,0.3-0.2,0.5
		c0,0.1,0,0.1,0.1,0.2l-0.1,0.1c-1,0.7-2.4,0.8-3.6,0.2c-0.8-0.4-1.6-0.5-2.5-0.5c-0.6,0.1-1.2,0.3-1.7,0.6c0.2-0.6,0.2-1.3,0.1-2
		c-0.2-0.9-0.6-1.6-1.2-2.2c-0.9-0.9-1.2-2.2-0.9-3.4l0,0c0.2,0,0.3-0.1,0.4-0.3c0.9-1.5,2.8-2.1,4.5-1.5c1.3,0.5,2.7,0.6,4,0.1
		C160.6,41,161,42.4,161.9,43.4z M138.5,31.4c0.3,0.8,0.2,1.6-0.1,2.4c-0.1,0.2-0.1,0.4,0,0.5c0,0.1,0.1,0.1,0.1,0.2l-0.1,0.1
		c-0.4,0.5-0.9,0.9-1.5,1.1c-0.6,0.2-1.3,0.3-1.9,0.3l0,0c-0.9-0.1-1.7,0-2.5,0.4c-0.5,0.2-1,0.6-1.4,1c-0.1-0.6-0.3-1.2-0.6-1.7
		c-0.5-0.8-1.1-1.3-1.9-1.7c-1.2-0.5-1.9-1.7-2-2.9l0-0.1c0.1-0.1,0.2-0.2,0.3-0.4c0.4-1.7,1.9-2.9,3.7-2.8c1.4,0.1,2.8-0.4,3.8-1.2
		c0.4,1.3,1.3,2.5,2.5,3.1C137.7,29.9,138.3,30.6,138.5,31.4z M125,27.6c0.4,0.7,0.5,1.6,0.3,2.4c-0.1,0.2,0,0.5,0.2,0.6l-0.1,0.2
		c-0.6,1.1-1.8,1.8-3.1,1.9l0,0c-1.4,0.1-2.7,0.8-3.6,1.9c-0.5-1.3-1.5-2.4-3-2.8c-1.3-0.4-2.3-1.4-2.5-2.5l0-0.2
		c0.1-0.1,0.2-0.3,0.3-0.5c0.1-1.7,1.4-3.1,3.2-3.4c1.4-0.2,2.7-0.9,3.6-1.8c0.6,1.2,1.6,2.1,3,2.6C124,26.3,124.6,26.8,125,27.6z
		 M111.9,29.2c-0.4,1.1-1.4,2-2.7,2.3c-1.5,0.3-2.6,1.2-3.2,2.5c-0.7-1.2-1.9-2-3.4-2.2c-1.3-0.1-2.4-0.9-2.9-2.1l-0.1-0.2
		c0,0,0.1,0,0.1-0.1c0.1-0.1,0.2-0.3,0.1-0.5c-0.1-0.8,0.1-1.7,0.5-2.4c0.4-0.7,1.2-1.2,2-1.4c1.3-0.4,2.5-1.2,3.2-2.4
		c0.8,1.1,2,1.9,3.4,2.1c1.7,0.4,3,1.9,2.9,3.6c0,0.2,0.1,0.4,0.2,0.5c0,0,0,0,0,0L111.9,29.2z M94.6,26.1c0.4,0,0.9,0.1,1.3,0.3
		c0.4,0.1,0.7,0.4,1.1,0.7c0.6,0.6,1,1.3,1.1,2.2c0,0.2,0.1,0.3,0.3,0.5l0,0.1c-0.2,1.2-1.1,2.3-2.3,2.7c-1.4,0.5-2.4,1.7-2.8,3.1
		c-0.9-1.1-2.3-1.7-3.7-1.6c-1.3,0.1-2.6-0.6-3.3-1.6l-0.1-0.1c0,0,0.1-0.1,0.1-0.1c0.1-0.2,0.1-0.4,0-0.5c-0.5-1.6,0.2-3.4,1.8-4.2
		c1.3-0.6,2.2-1.6,2.7-2.9C91.9,25.5,93.3,26.1,94.6,26.1z M78.3,29.6c0.8,0.2,1.6,0.3,2.5,0.2c1.8-0.2,3.4,0.8,4,2.5
		c0.1,0.2,0.2,0.3,0.3,0.4l0,0.1c0,1.2-0.6,2.4-1.8,3l0,0c-1.3,0.8-2.1,2.2-2.2,3.6c-1.1-0.9-2.5-1.3-4-1c-0.7,0.1-1.3,0.1-1.9-0.1
		c-0.6-0.2-1.2-0.5-1.6-1l-0.1-0.1c0-0.1,0.1-0.1,0.1-0.2c0.1-0.2,0-0.4,0-0.5c-0.4-0.8-0.5-1.6-0.3-2.4c0.2-0.8,0.6-1.5,1.4-2
		c0.7-0.5,1.2-1.1,1.6-1.9c0.2-0.4,0.4-0.9,0.5-1.4C77.3,29.2,77.8,29.4,78.3,29.6z M30.9,77.8c0.5-0.7,1.1-1.2,1.9-1.5
		c0.8-0.2,1.7-0.1,2.4,0.2c0.2,0.1,0.4,0.1,0.5,0c0.1,0,0.1-0.1,0.2-0.1l0.1,0.1c0.5,0.4,0.8,0.9,1,1.6c0.2,0.6,0.3,1.3,0.2,1.9
		c-0.3,1.4,0.2,2.9,1.2,3.9c-1.5,0.1-2.8,1-3.5,2.3c-0.6,1.1-1.8,1.9-3,1.9l-0.2,0c-0.1-0.1-0.2-0.2-0.4-0.3
		c-1.7-0.4-2.8-2.1-2.7-3.8c0.1-1.4-0.3-2.8-1.1-3.9C29,79.8,30.2,79,30.9,77.8z M28.8,134c-0.1-1.8,1-3.4,2.7-3.9
		c0.2,0,0.3-0.2,0.4-0.3c0,0,0,0,0,0l0.1,0c0.6,0,1.2,0.2,1.7,0.5c0.5,0.3,0.9,0.8,1.3,1.4c0.7,1.4,2,2.2,3.5,2.3
		c-1,1-1.4,2.5-1.2,3.9c0.2,1.3-0.2,2.6-1.2,3.4l-0.1,0.1c-0.1,0-0.1-0.1-0.2-0.1c-0.2-0.1-0.4-0.1-0.5,0c-0.8,0.4-1.6,0.4-2.4,0.2
		c-0.8-0.2-1.5-0.7-1.9-1.5c-0.7-1.1-1.9-2-3.2-2.3C28.6,136.8,29,135.4,28.8,134z M62.2,178.9c-1.2-1.3-1.3-3.2-0.2-4.6
		c0.1-0.1,0.2-0.3,0.1-0.5c0-0.1-0.1-0.2-0.1-0.3l0,0c0.5-0.4,1.1-0.6,1.7-0.7c0.6-0.1,1.2,0,1.9,0.2c1.4,0.5,3,0.4,4.2-0.4
		c-0.3,1.5,0.3,3,1.5,4c1,0.8,1.4,2.1,1.2,3.3l0,0.1c-0.1,0.1-0.3,0.2-0.3,0.3c-0.4,0.8-1.1,1.4-1.8,1.7c-0.8,0.4-1.7,0.4-2.5,0.1
		c-1.3-0.4-2.7-0.3-4,0.3C63.7,181.1,63.2,179.8,62.2,178.9z M74.7,185.8c-0.7-0.5-1.2-1.2-1.4-2c-0.2-0.8-0.1-1.7,0.3-2.4
		c0.1-0.2,0.1-0.4,0-0.5c0-0.1-0.1-0.2-0.1-0.2l0.1-0.1c0.9-0.9,2.3-1.4,3.5-1.1l0,0c0.5,0.1,0.9,0.1,1.3,0.1c0.4,0,0.8-0.1,1.2-0.3
		c0.5-0.2,1-0.5,1.5-0.9c0,0.6,0.2,1.2,0.4,1.8c0.4,0.7,1,1.3,1.7,1.8c0.5,0.3,1,0.8,1.3,1.3c0.3,0.5,0.5,1.1,0.4,1.7l0,0.2
		c-0.1,0.1-0.2,0.2-0.3,0.4c-0.5,1.7-2.2,2.7-4,2.5c-0.9-0.1-1.7,0-2.5,0.2c-0.5,0.2-1,0.4-1.4,0.7c-0.1-0.5-0.3-1-0.5-1.4
		C75.9,186.9,75.4,186.3,74.7,185.8z M86.4,186.4c0.1-0.2,0-0.4-0.1-0.5c0-0.1-0.1-0.1-0.1-0.2l0.1-0.2c0.3-0.5,0.8-0.9,1.4-1.2
		c0.6-0.3,1.2-0.4,1.9-0.4c1.5,0,2.8-0.6,3.7-1.6c0.3,1.4,1.3,2.5,2.8,3.1c1.2,0.4,2.1,1.5,2.3,2.7l0,0.2c-0.1,0.1-0.2,0.3-0.2,0.4
		c-0.1,0.8-0.5,1.6-1.1,2.2c-0.3,0.3-0.7,0.5-1.1,0.7c-0.4,0.2-0.8,0.2-1.3,0.3c-1.4,0-2.7,0.6-3.7,1.6c-0.5-1.3-1.5-2.3-2.7-2.9
		C86.6,189.8,85.8,188,86.4,186.4z M100.3,191.5c-0.5-0.7-0.6-1.5-0.5-2.4c0-0.2-0.1-0.5-0.2-0.6l0.1-0.2c0.5-1.1,1.7-2,2.9-2.1
		c1.4-0.1,2.7-1,3.4-2.2c0.6,1.3,1.8,2.3,3.2,2.5c1.2,0.2,2.3,1.2,2.7,2.3l0.1,0.2c0,0,0,0,0,0c-0.1,0.1-0.2,0.3-0.2,0.5
		c0.1,1.7-1.1,3.2-2.9,3.6c-1.4,0.2-2.6,1-3.4,2.1c-0.7-1.2-1.9-2-3.2-2.4C101.5,192.7,100.7,192.2,100.3,191.5z M113.2,188.8
		c0.3-1.2,1.3-2.2,2.5-2.5l0,0c1.4-0.4,2.5-1.5,3-2.8c0.8,1.1,2.1,1.8,3.6,1.9c1.4,0.1,2.5,0.8,3.1,1.9l0.1,0.2
		c-0.2,0.2-0.2,0.4-0.2,0.6c0.2,0.8,0.1,1.7-0.3,2.4c-0.4,0.7-1.1,1.3-1.9,1.6c-1.3,0.5-2.4,1.5-3,2.6c-0.9-1-2.1-1.6-3.6-1.8
		c-1.8-0.2-3.1-1.6-3.2-3.4c0-0.2-0.1-0.4-0.3-0.5L113.2,188.8z M130.7,190.3c-1.8,0.1-3.4-1.1-3.7-2.8c0-0.2-0.2-0.3-0.3-0.4l0-0.1
		c0.1-1.2,0.8-2.3,2-2.9c1.4-0.7,2.3-1.9,2.5-3.4c1,1,2.4,1.5,3.9,1.3c1.3-0.2,2.6,0.3,3.4,1.3l0.1,0.1c0,0-0.1,0.1-0.1,0.2
		c-0.1,0.2-0.1,0.4,0,0.5c0.3,0.8,0.4,1.6,0.1,2.4c-0.3,0.8-0.8,1.5-1.5,1.9c-1.2,0.7-2.1,1.8-2.5,3.1
		C133.5,190.7,132.1,190.3,130.7,190.3z M148.6,184.6c-0.2,0.5-0.3,1-0.4,1.5c-0.5-0.3-0.9-0.4-1.5-0.6c-0.9-0.2-1.7-0.2-2.5,0
		c-0.9,0.2-1.7,0.1-2.5-0.3c-0.8-0.4-1.4-1.1-1.7-1.9c-0.1-0.2-0.2-0.3-0.4-0.4l0-0.1c-0.2-1.2,0.4-2.5,1.5-3.2
		c0.7-0.5,1.2-1.1,1.6-2c0.2-0.6,0.3-1.2,0.3-1.9c0.5,0.4,1,0.6,1.6,0.8c0.8,0.2,1.7,0.2,2.5-0.1c0.6-0.2,1.2-0.2,1.9-0.1
		c0.6,0.1,1.2,0.4,1.7,0.8l0.1,0.1c0,0.1-0.1,0.1-0.1,0.2c0,0.2,0,0.4,0.1,0.5c1,1.5,0.7,3.3-0.7,4.5
		C149.4,183.2,148.9,183.9,148.6,184.6z M156.7,178.4c-1.7,0.6-3.5,0-4.5-1.5c-0.1-0.2-0.3-0.3-0.4-0.3l0,0c-0.2-0.6-0.2-1.2,0-1.8
		c0.2-0.6,0.5-1.1,0.9-1.6c1.1-1.1,1.5-2.7,1.1-4.1c1.3,0.7,2.8,0.7,4.2,0.1c1.1-0.6,2.5-0.5,3.6,0.2l0.1,0.1c0,0.1,0,0.1-0.1,0.2
		c0,0.2,0.1,0.4,0.2,0.5c0.6,0.6,0.9,1.5,0.9,2.3c0,0.9-0.2,1.7-0.8,2.3c-0.9,1-1.3,2.4-1.2,3.7
		C159.4,177.9,157.9,177.9,156.7,178.4z M184.5,146.7c-0.5,0.7-1.3,1.1-2.1,1.3c-0.8,0.1-1.7,0-2.4-0.4c-0.2-0.1-0.4-0.1-0.5-0.1
		c-0.1,0-0.2,0.1-0.2,0.1l-0.1-0.1c-0.9-0.9-1.3-2.3-0.9-3.5l0,0c0.4-1.4,0-2.9-0.9-4.1c0,0,0.1,0,0.1,0c0.6,0,1.2-0.1,1.7-0.4
		c0.8-0.3,1.4-0.9,1.9-1.6c0.7-1.1,1.9-1.7,3.1-1.6l0.1,0c0.1,0.1,0.2,0.3,0.4,0.3c0.8,0.3,1.5,0.9,1.9,1.6c0.4,0.7,0.6,1.6,0.4,2.5
		c-0.2,1.4,0.1,2.8,0.8,3.9C186.6,144.9,185.4,145.6,184.5,146.7z M196.9,100.7c-0.1,0-0.2,0-0.3,0.1c-0.5-0.2-1-0.4-1.5-0.8
		c-0.5-0.5-0.9-1.1-1.2-1.8v0c-0.3-0.9-0.8-1.7-1.5-2.3c-0.5-0.4-1.1-0.7-1.8-0.9c0.5-0.4,0.9-0.8,1.3-1.4c0.4-0.6,0.8-1.5,0.7-2.7
		c0-1.3,0.6-2.6,1.6-3.3c0.1,0.1,0.3,0.1,0.4,0c0.9-0.2,1.9-0.2,2.7,0.2c0.8,0.4,1.5,1.1,1.9,2c0.3,0.8,0.9,1.6,1.6,2.2
		c0.4,0.4,0.9,0.7,1.5,0.9c-1.1,1-1.8,2.4-1.9,4C200.3,99,198.8,100.5,196.9,100.7z M148.1,29.8c-0.1,0.2-0.1,0.3-0.1,0.5
		c-0.4,0.3-0.9,0.6-1.4,0.7c-0.7,0.2-1.5,0.3-2.1,0.1l0,0c-0.9-0.2-1.9-0.1-2.8,0.2c-0.6,0.2-1.2,0.6-1.7,1c0-0.7-0.2-1.4-0.5-2
		c-0.4-0.9-1.1-1.6-1.9-2c-1.1-0.6-1.8-1.8-1.9-3.1c0-0.1,0.1-0.1,0.1-0.2c0.3-0.9,0.9-1.7,1.7-2.2c0.8-0.5,1.7-0.7,2.7-0.6
		c0.9,0.1,1.8,0,2.7-0.3c0.6-0.2,1.1-0.4,1.6-0.8c0.1,0.6,0.3,1.1,0.6,1.6c0.4,0.8,1,1.4,1.8,2C148.6,26,149,28.1,148.1,29.8z
		 M134.2,24.8c-0.8,1-2.1,1.6-3.4,1.5l0,0c-1.6-0.1-3.1,0.6-4.1,1.8c-0.3-1.6-1.5-2.8-3-3.4c-1.3-0.5-2.2-1.5-2.5-2.7
		c0.1-0.1,0.1-0.2,0.1-0.3c0.2-1.9,1.9-3.4,3.8-3.5c1.5,0,3-0.7,4.1-1.7c0.5,1.4,1.6,2.6,3,3.2c0.8,0.4,1.5,1.1,1.9,2
		c0.4,0.8,0.4,1.8,0.1,2.7C134.1,24.5,134.2,24.7,134.2,24.8z M26.1,80.4c0.9,0.8,1.4,2.2,1.3,3.5l0,0c-0.1,1.6,0.5,3.2,1.7,4.2
		c-1.6,0.3-2.9,1.3-3.6,2.9c-0.3,0.7-0.8,1.3-1.3,1.7c-0.4,0.3-1,0.6-1.5,0.7c-0.1-0.1-0.2-0.1-0.3-0.1c-1.9-0.3-3.3-2-3.3-4
		c0-1.5-0.5-3-1.6-4.2c1.4-0.5,2.6-1.5,3.3-2.8c0.4-0.9,1.2-1.5,2-1.8c0.9-0.3,1.8-0.3,2.7,0C25.9,80.5,26,80.5,26.1,80.4z
		 M22.1,94.9c0.1,0,0.2,0,0.4,0c0.5,0.3,0.9,0.7,1.3,1.2c0.4,0.6,0.7,1.3,0.7,2v0c0.1,1,0.4,1.9,0.9,2.6c0.4,0.5,0.8,0.9,1.4,1.2
		c-0.6,0.2-1.1,0.6-1.6,1c-0.5,0.5-1.1,1.3-1.4,2.4c-0.3,1.3-1.2,2.3-2.4,2.8c-0.1,0-0.2-0.1-0.3-0.1c-0.9,0-1.8-0.3-2.6-0.9
		c-0.7-0.6-1.2-1.4-1.3-2.4c-0.1-0.9-0.5-1.8-1-2.5c-0.3-0.5-0.7-0.9-1.2-1.3c1.3-0.7,2.3-1.9,2.8-3.4
		C18.3,95.7,20.2,94.6,22.1,94.9z M21,109.8c0.1,0,0.1,0,0.2,0c1.2,0.4,2.2,1.5,2.5,2.8c0.2,1.1,0.9,1.9,1.4,2.4
		c0.5,0.5,1,0.8,1.6,1c-0.5,0.3-1,0.7-1.4,1.2c-0.5,0.7-0.9,1.6-0.9,2.6c-0.1,0.7-0.3,1.4-0.7,2c-0.3,0.5-0.7,0.9-1.2,1.2
		c-0.1-0.1-0.3-0.1-0.4-0.1c-0.9,0.2-1.9,0-2.7-0.5c-0.9-0.5-1.5-1.3-1.7-2.1c-0.5-1.5-1.5-2.7-2.8-3.4c1.2-0.9,2-2.3,2.2-3.9
		c0.1-0.9,0.6-1.8,1.3-2.4C19.2,110.1,20.1,109.8,21,109.8z M22.5,124.7c0,0,0.1,0,0.1-0.1c0.6,0.1,1.1,0.3,1.6,0.7
		c0.5,0.4,1,1,1.3,1.7c0.7,1.6,2,2.6,3.6,2.9c-1.2,1-1.8,2.6-1.7,4.2c0.1,1.3-0.4,2.6-1.3,3.4c-0.2-0.1-0.3-0.1-0.5,0
		c-1.8,0.7-3.8-0.1-4.7-1.8c-0.7-1.4-1.9-2.4-3.3-2.8c0.4-0.4,0.7-0.9,1-1.5c0.4-0.9,0.6-1.8,0.6-2.7c0-1,0.3-1.9,0.9-2.6
		C20.8,125.4,21.6,124.9,22.5,124.7z M77.1,191.2c0.1-0.2,0.1-0.3,0-0.5c0.4-0.4,0.8-0.7,1.4-0.9c0.6-0.3,1.4-0.3,2.1-0.3
		c1.6,0.2,3.2-0.4,4.3-1.5c0.2,1.6,1.2,3,2.7,3.8c1.2,0.5,2,1.7,2.2,2.9c0,0.1-0.1,0.1-0.1,0.2c-0.4,1.9-2.1,3.2-4.1,3.1
		c-1,0-1.9,0.1-2.7,0.5c-0.6,0.2-1.1,0.5-1.5,0.9c-0.2-0.6-0.4-1.1-0.7-1.6c-0.5-0.8-1.2-1.4-2-1.9c-0.9-0.5-1.5-1.2-1.7-2.1
		C76.7,193,76.7,192,77.1,191.2z M91.4,195c0.7-1,2-1.8,3.3-1.8c1.6,0,3.1-0.8,3.9-2.1c0.5,1.5,1.7,2.7,3.3,3.1
		c1.2,0.3,2.3,1.3,2.7,2.5c0,0.1-0.1,0.2-0.1,0.3c0,0.9-0.4,1.8-1,2.5c-0.3,0.4-0.7,0.7-1.1,0.8c-0.4,0.2-0.9,0.3-1.4,0.4
		c-1.5,0.2-2.9,0.9-3.9,2.1c-0.7-1.4-1.8-2.4-3.3-2.9c-1.8-0.7-2.9-2.6-2.4-4.5C91.5,195.3,91.4,195.2,91.4,195z M137.7,189.7
		c0.8-0.4,1.5-1.1,1.9-2c0.3-0.6,0.5-1.3,0.5-2c0.5,0.4,1,0.8,1.7,1c0.9,0.3,1.8,0.4,2.8,0.2c0.7-0.1,1.4-0.1,2.1,0.1
		c0.5,0.1,1,0.4,1.4,0.7c0,0.2,0,0.3,0.1,0.5c0.4,0.8,0.6,1.8,0.4,2.7c-0.2,0.9-0.7,1.7-1.5,2.2c-1.2,0.8-2.1,2.2-2.4,3.7
		c-1.3-0.9-2.8-1.3-4.3-1.1c-2,0.2-3.8-0.9-4.4-2.8c0-0.1,0-0.1-0.1-0.1C135.8,191.5,136.6,190.3,137.7,189.7z M194.4,130.4
		c-1-0.8-1.7-2-1.6-3.3c0-1.1-0.4-2.1-0.8-2.7c-0.3-0.5-0.8-1-1.2-1.4c0.6-0.2,1.2-0.5,1.8-0.9c0.7-0.6,1.2-1.4,1.5-2.3
		c0.2-0.7,0.6-1.3,1.2-1.8c0.4-0.4,0.9-0.7,1.5-0.8c0.1,0,0.2,0.1,0.3,0.1c0.9,0.1,1.8,0.5,2.5,1.2c0.7,0.7,1.1,1.6,1.2,2.5
		c0.1,1.5,0.8,3,1.9,4c-1.4,0.6-2.5,1.7-3.1,3.1c-0.8,1.8-2.7,2.7-4.6,2.2C194.6,130.3,194.5,130.4,194.4,130.4z M196.8,115.7
		c-0.5-0.2-1-0.6-1.4-1.1c-0.4-0.5-0.7-1.2-0.8-2c-0.3-1.6-1.3-2.9-2.6-3.6c1.4-0.7,2.3-2,2.6-3.6c0.1-0.8,0.4-1.4,0.8-2
		c0.4-0.5,0.8-0.9,1.4-1.1c0.1,0.1,0.2,0.1,0.4,0.1c1.9-0.2,3.6,1.1,4.1,3c0.4,1.5,1.3,2.8,2.5,3.6c-0.5,0.3-0.9,0.7-1.3,1.2
		c-0.6,0.7-1,1.6-1.2,2.4c-0.2,1-0.8,1.8-1.5,2.3c-0.8,0.5-1.7,0.8-2.6,0.7C197,115.6,196.9,115.7,196.8,115.7z M119,18.7
		c0.5,0.7,0.7,1.7,0.6,2.6c0,0.1,0,0.2,0.1,0.3c-0.6,1.1-1.8,1.9-3.2,2.1c-1.6,0.2-3,1.1-3.7,2.5c-0.6-1.4-1.9-2.5-3.6-2.8
		c-1.3-0.2-2.4-1.1-2.9-2.3c0.1-0.1,0.1-0.2,0.1-0.4c-0.1-1.9,1.2-3.6,3.2-4c1.6-0.3,2.9-1.2,3.7-2.4c0.7,1.2,2,2.2,3.5,2.7
		C117.7,17.4,118.5,18,119,18.7z M107.1,199.7c-0.6-0.7-0.9-1.7-0.8-2.6c0-0.1,0-0.2-0.1-0.3c0.5-1.2,1.6-2.1,2.9-2.3l0,0
		c1.6-0.3,2.9-1.4,3.5-2.8c0.8,1.3,2.1,2.3,3.7,2.5c1.4,0.2,2.5,1,3.1,2.1c0,0.1-0.1,0.2-0.1,0.4c0.3,1.9-0.9,3.7-2.8,4.3
		c-1.5,0.4-2.8,1.4-3.5,2.7c-0.9-1.2-2.3-2.1-3.7-2.4C108.5,201,107.7,200.5,107.1,199.7z M205.6,108.1c-0.1,0-0.2,0-0.3,0.1
		c-0.6-0.2-1.1-0.6-1.6-1.1c-0.5-0.5-0.9-1.2-1.1-2.1c-0.4-1.8-1.7-3.1-3.2-3.7l0,0l0,0c1.4-0.9,2.4-2.4,2.5-4.2
		c0.1-0.9,0.3-1.6,0.8-2.2c0.4-0.5,0.8-1,1.3-1.3c0.1,0,0.2,0.1,0.3,0c1.1-0.2,2.2,0,3.1,0.5c0.9,0.5,1.6,1.3,1.9,2.4
		c0.3,0.9,0.9,1.8,1.6,2.5c0.5,0.5,1,0.9,1.6,1.2c-1.3,1-2.3,2.5-2.5,4.2C209.7,106.6,207.8,108.1,205.6,108.1z M204,91.9
		c0,0-0.1,0-0.1,0c-0.6-0.1-1.3-0.4-1.8-0.8c-0.6-0.5-1.1-1.1-1.4-1.8v0c-0.4-1-1.1-1.8-1.9-2.3c-0.6-0.4-1.3-0.7-2.1-0.8l0.2-0.1
		l-0.1,0c0.5-0.4,0.9-1,1.2-1.6c0.3-0.7,0.7-1.8,0.6-3c-0.1-1.4,0.4-2.8,1.4-3.8c0.1,0,0.3,0,0.4,0c2.1-0.8,4.4,0.1,5.5,2
		c0.8,1.5,2.2,2.6,3.8,3.1c-1.2,1.2-1.9,2.9-1.8,4.6c0,1-0.3,2-1.1,2.9C206.1,91.1,205.1,91.7,204,91.9z M195,55.8
		c0.4,0.9,0.3,2-0.1,3.1c-0.4,0.9-1.1,1.7-2,2.3c-1.4,0.3-3-0.2-4.1-1.3c-0.7-0.8-1.6-1.3-2.5-1.5c-0.7-0.2-1.6-0.2-2.4,0l0.3-0.3
		l-0.2,0.1c0.8-1.5,0.9-3.3,0.2-4.8c-0.6-1.2-0.5-2.7,0.1-3.9c0.1,0,0.3-0.1,0.4-0.1c1.7-1.4,4.2-1.4,5.8,0c1.2,1.2,2.9,1.7,4.6,1.7
		C194.5,52.5,194.4,54.3,195,55.8z M158.9,26.5c-0.1,0.1-0.1,0.3-0.1,0.4c-1.1,0.8-2.6,1-3.9,0.6l0,0c-1.7-0.5-3.4-0.2-4.8,0.8
		l0-0.2l-0.2,0.2c0.1-1.8-0.7-3.5-2.2-4.6c-0.6-0.5-1.2-1.1-1.5-1.8c-0.3-0.7-0.4-1.4-0.4-2.1c0.4-1,1.1-1.8,2.1-2.3
		c0.9-0.5,2-0.6,3-0.4c0.9,0.2,2,0.2,3-0.1c0.7-0.2,1.3-0.4,1.9-0.8c0.1,0.7,0.2,1.3,0.5,2c0.4,0.9,1,1.7,1.7,2.4
		C159.8,22.2,160.1,24.6,158.9,26.5z M128.7,14.9c-0.8,1.2-2.2,1.9-3.6,1.9l0,0c-1.8,0.1-3.4,1-4.3,2.4c0,0,0,0,0-0.1l0,0l0,0
		c-0.5-1.6-1.8-2.9-3.6-3.4c-1.5-0.5-2.6-1.5-3-2.8c0-0.1,0-0.1,0.1-0.2c0.1-2.2,1.7-4,3.9-4.3c1.7-0.3,3.3-1.1,4.3-2.4
		c0.7,1.5,1.9,2.7,3.6,3.4c1,0.4,1.8,1.1,2.3,2.1c0.5,0.9,0.6,2,0.4,3.1C128.6,14.7,128.6,14.8,128.7,14.9z M109.2,15.5
		c-1.8,0.4-3.2,1.5-3.9,3.1c0,0,0,0,0,0l0,0l0,0c-0.8-1.4-2.3-2.5-4.1-2.7c-1.4-0.1-2.7-1-3.4-2.2c0-0.1,0-0.2,0-0.3
		c-0.1-1.1,0.1-2.2,0.7-3.1c0.5-0.9,1.4-1.6,2.5-1.8c1.6-0.4,3-1.6,3.8-3.1c1,1.4,2.4,2.4,4.1,2.7c2.2,0.5,3.6,2.4,3.5,4.6
		c0,0.1,0,0.2,0,0.2C111.9,14.2,110.7,15.1,109.2,15.5z M80.2,17.1c0,1.5-0.9,2.9-2.2,3.6l0,0c-1.6,1-2.6,2.6-2.6,4.4c0,0,0,0,0,0
		l-0.2-0.2l0,0.1c-1.3-1.1-3-1.5-4.6-1.2C69.8,24,69,24,68.2,23.7c-0.6-0.2-1.1-0.4-1.5-0.8c0-0.1,0-0.3-0.1-0.4
		c-0.5-1-0.6-2.1-0.4-3.1c0.2-1,0.8-1.9,1.7-2.6c0.8-0.6,1.5-1.4,1.9-2.3c0.3-0.6,0.5-1.2,0.7-1.9c0.5,0.4,1.2,0.7,1.8,0.9
		c0.9,0.3,1.9,0.4,3,0.3C77.5,13.6,79.5,15,80.2,17.1C80.2,17.1,80.2,17.1,80.2,17.1z M65,23.3c0.1,0.7,0.1,1.4-0.2,2.1
		c-0.3,0.8-0.7,1.4-1.3,1.9l0,0c-0.8,0.7-1.4,1.5-1.6,2.5c-0.2,0.8-0.2,1.6-0.1,2.4l-0.3-0.3l0.1,0.2c-0.5-0.3-1.1-0.6-1.8-0.7
		c-0.5-0.1-1-0.1-1.5-0.1c-0.5,0-1,0.2-1.5,0.4c-1.2,0.5-2.7,0.4-3.9-0.2c0-0.1,0-0.3-0.1-0.4c-1.3-1.8-1.2-4.2,0.3-5.8
		c1.2-1.2,1.9-2.8,1.9-4.6c1.5,0.8,3.4,0.9,4.9,0.4c1-0.3,2.1-0.3,3.1,0.2C63.7,21.6,64.5,22.4,65,23.3z M39.3,43.2
		c0.2,0.5,0.4,1.1,0.4,1.8c0,0.8-0.2,1.6-0.6,2.2c-0.9,1.4-0.9,3.2-0.2,4.8l-0.3-0.1l0.2,0.3c-0.7-0.2-1.5-0.3-2.3-0.2
		c-0.5,0.1-1,0.2-1.4,0.4c-0.5,0.2-0.9,0.5-1.2,0.9c-1.1,1.1-2.8,1.4-4.3,0.9c-1.7-1.3-2.3-3.5-1.5-5.5c0.7-1.5,0.8-3.3,0.2-4.9
		c1.7,0.2,3.4-0.2,4.8-1.2c0.4-0.3,0.9-0.6,1.4-0.7c0.5-0.1,1-0.2,1.6-0.1c1.1,0.1,2.1,0.6,2.9,1.3C39.1,43.1,39.2,43.2,39.3,43.2z
		 M29.3,55.9c0.7,1.1,0.8,2.6,0.4,3.9l0,0c-0.6,1.7-0.3,3.4,0.6,4.8l-0.2-0.1l0.2,0.2c-1.8-0.2-3.5,0.5-4.6,2c-1,1.3-2.5,1.9-4,1.7
		c-2-1-3-3.1-2.4-5.2c0.3-1,0.3-2,0.1-3c-0.1-0.7-0.4-1.3-0.7-1.9c1.7-0.1,3.3-0.8,4.5-2c1.5-1.6,4-1.8,5.8-0.6
		C29,55.9,29.2,55.9,29.3,55.9z M15.7,85.6c0.1,0,0.3,0,0.4,0c1.1,0.8,1.7,2.2,1.7,3.6v0c0,1.8,0.8,3.4,2.2,4.4l-0.1,0l0,0
		c-1.6,0.5-3,1.7-3.5,3.4c-0.3,0.8-0.7,1.5-1.3,2c-0.5,0.5-1.1,0.8-1.7,0.9c0,0-0.1,0-0.1,0c-1.1-0.1-2.1-0.6-2.9-1.3
		C9.6,98,9.2,97,9.1,95.9c-0.1-1-0.4-2-0.9-2.8c-0.3-0.6-0.8-1.1-1.3-1.6c1.5-0.6,2.8-1.8,3.5-3.4C11.3,86,13.5,85,15.7,85.6z
		 M13.1,101.7c0.1,0,0.2,0,0.3,0c0.5,0.3,1,0.7,1.4,1.2c0.5,0.6,0.8,1.4,1,2.2l0,0c0.2,1,0.6,2,1.2,2.7c0.5,0.5,1,0.9,1.7,1.3
		c0,0,0,0,0,0l-0.1,0l0,0c-0.6,0.3-1.1,0.7-1.6,1.2c-0.5,0.6-1.1,1.5-1.3,2.7c-0.2,1.5-1.2,2.7-2.4,3.4c-0.1,0-0.1,0-0.2,0
		c-1.1,0.1-2.1-0.2-3-0.8c-0.9-0.6-1.6-1.6-1.8-2.5c-0.4-1.7-1.4-3.1-2.9-4c1.5-0.9,2.5-2.3,2.9-4c0.2-1,0.8-1.9,1.8-2.5
		C10.9,101.9,12,101.6,13.1,101.7z M13.3,118c0.1,0,0.2,0,0.2-0.1c1.4,0.4,2.5,1.5,2.9,2.9c0.3,1.2,1.1,2,1.7,2.5
		c0.6,0.5,1.2,0.8,1.9,1l-0.1,0.1l0.1,0c-0.5,0.4-1,0.9-1.3,1.4c-0.5,0.8-0.8,1.8-0.8,2.9c0,0.8-0.2,1.6-0.6,2.3
		c-0.3,0.6-0.7,1-1.2,1.4c-0.1,0-0.2,0-0.3,0c-2.1,0.6-4.3-0.5-5.2-2.5c-0.7-1.6-2-2.8-3.5-3.4c0.5-0.4,0.9-1,1.3-1.5
		c0.5-0.9,0.9-1.9,0.9-2.9c0.1-1.1,0.5-2.1,1.3-2.8C11.2,118.6,12.2,118.1,13.3,118z M19.3,157.7c0.2-1,0.2-2-0.1-3
		c-0.6-2,0.5-4.3,2.6-5.2c1.5-0.1,2.9,0.5,3.8,1.7c0.9,1.3,2.5,2,4.1,2c0.2,0,0.5,0,0.7,0l-0.3,0.3l0.2,0c-0.9,1.4-1.2,3.2-0.6,4.8
		c0.3,0.7,0.3,1.5,0.2,2.3c-0.1,0.6-0.3,1.1-0.6,1.6c-0.1,0-0.3,0-0.4,0.1c-1.8,1.3-4.3,1-5.8-0.6c-1.2-1.2-2.8-2-4.5-2
		C18.9,159,19.1,158.4,19.3,157.7z M28.3,169.3c-0.9-2-0.2-4.3,1.6-5.6c1.4-0.4,3-0.1,4.1,1l0,0c1,0.9,2.2,1.3,3.5,1.3
		c0.5,0,1-0.1,1.6-0.3l-0.3,0.4l0.2-0.1c-0.7,1.5-0.6,3.2,0.2,4.7c0.7,1.2,0.8,2.8,0.1,4.1c-0.1,0-0.1,0.1-0.2,0.1
		c-0.8,0.8-1.8,1.2-2.9,1.3c-0.5,0-1.1,0-1.5-0.1c-0.5-0.2-1-0.4-1.4-0.7c-1.3-1-3.1-1.5-4.8-1.2C29.1,172.6,29,170.8,28.3,169.3z
		 M52.7,187c0.1-0.1,0.1-0.3,0.1-0.5c0.5-0.3,1-0.4,1.5-0.5c0.8-0.1,1.5,0,2.3,0.3c1.6,0.6,3.4,0.5,4.8-0.4l-0.1,0.2l0.3-0.3
		c-0.3,1.8,0.4,3.5,1.8,4.8c1.2,1,1.8,2.6,1.5,4.1c-0.5,0.9-1.3,1.6-2.2,2c-1,0.5-2.1,0.5-3.1,0.2c-1.6-0.5-3.4-0.4-4.9,0.4
		c0-1.7-0.6-3.4-1.9-4.5C51.5,191.2,51.3,188.8,52.7,187z M66.6,195.4c0.1-0.1,0.1-0.3,0.1-0.5c1.1-0.8,2.5-1.2,3.8-0.9l0,0
		c0.6,0.1,1.1,0.2,1.5,0.1c0.5,0,1-0.2,1.5-0.3c0.6-0.2,1.2-0.6,1.7-1l0,0.2l0.2-0.2c0,0.8,0.2,1.5,0.5,2.2c0.4,0.9,1.1,1.6,2.1,2.2
		c0.7,0.4,1.2,1,1.6,1.7c0.4,0.6,0.6,1.4,0.6,2.1c-0.7,2.1-2.7,3.4-4.9,3.1c-1.1-0.1-2.1,0-3,0.3c-0.6,0.2-1.3,0.5-1.8,0.9
		c-0.1-0.7-0.3-1.3-0.7-1.9c-0.5-0.9-1.2-1.7-1.9-2.3c-0.9-0.7-1.5-1.5-1.7-2.6C66,197.5,66.1,196.4,66.6,195.4z M81.8,201
		c0.4-0.4,0.9-0.8,1.4-1.1c0.7-0.3,1.5-0.5,2.3-0.5c1.8,0,3.4-0.7,4.4-2l0,0.1l0.1-0.1c0.4,1.7,1.6,3.1,3.3,3.8
		c1.4,0.5,2.5,1.7,2.8,3.2c0,0,0,0,0,0.1c-0.1,1.1-0.6,2.1-1.4,2.8c-0.4,0.4-0.9,0.7-1.3,0.9c-0.5,0.2-1,0.3-1.6,0.3
		c-1.7,0-3.3,0.8-4.5,2c-0.6-1.6-1.7-2.9-3.3-3.7c-2-1-2.9-3.3-2.2-5.4C81.9,201.3,81.9,201.1,81.8,201z M97.8,204.7
		c0-0.1,0-0.2,0-0.3c0.7-1.2,2-2.1,3.4-2.2c1.7-0.2,3.3-1.2,4.1-2.7l0,0.1l0,0c0.7,1.6,2.1,2.8,3.9,3c1.4,0.3,2.7,1.3,3.3,2.6
		c0,0.1,0,0.1,0,0.2c0.1,2.2-1.4,4.2-3.5,4.6c-1.7,0.3-3.2,1.3-4.1,2.7c-0.8-1.5-2.3-2.6-3.8-3.1c-1-0.3-1.9-0.9-2.5-1.8
		C97.9,206.9,97.7,205.8,97.8,204.7z M117.1,202.2L117.1,202.2c1.8-0.5,3.1-1.8,3.6-3.4l0,0.1l0-0.1c0.9,1.4,2.5,2.3,4.3,2.3
		c1.5,0.1,2.9,0.8,3.6,2c0,0.1,0,0.2,0,0.3c0.2,1.1,0.1,2.2-0.4,3.1c-0.5,0.9-1.3,1.7-2.3,2.1c-1.6,0.7-2.9,1.9-3.6,3.4
		c-1-1.3-2.6-2.1-4.3-2.4c-2.2-0.3-3.8-2.1-3.9-4.3c0-0.1,0-0.2-0.1-0.3C114.6,203.6,115.7,202.6,117.1,202.2z M145.9,198.1
		C145.9,198.1,145.9,198.1,145.9,198.1c-0.1-1.5,0.6-3,1.8-3.8c0.8-0.5,1.5-1.4,1.9-2.3c0.3-0.7,0.4-1.5,0.3-2.3l0.2,0.3l0-0.2
		c0.5,0.4,1.1,0.7,1.8,0.9c1,0.3,2,0.2,3-0.1c0.7-0.2,1.5-0.3,2.4-0.1c0.6,0.1,1.1,0.3,1.6,0.7c0,0.1,0,0.3,0.1,0.4
		c1.2,1.9,0.9,4.3-0.8,5.8c-0.8,0.7-1.4,1.5-1.7,2.4c-0.3,0.6-0.4,1.3-0.5,2c-0.6-0.3-1.2-0.6-1.9-0.8c-1-0.2-2.1-0.3-3-0.1
		c-1.1,0.2-2.1,0.1-3.1-0.4C147.1,199.9,146.3,199.1,145.9,198.1z M184.3,168.6c-0.6-1.2-0.6-2.6-0.1-3.9c0.7-1.6,0.6-3.4-0.2-4.8
		l0.2,0.1l-0.3-0.3c0.4,0.1,0.7,0.1,1.1,0.1c1.4,0,2.8-0.6,3.8-1.7c1-1.2,2.6-1.7,4.1-1.3c0.9,0.5,1.6,1.3,1.9,2.3
		c0.4,1.1,0.4,2.2,0.1,3.1c-0.6,1.6-0.5,3.4,0.2,4.9c-1.7-0.1-3.4,0.5-4.6,1.6c-1.6,1.5-4.1,1.5-5.8,0
		C184.6,168.7,184.4,168.7,184.3,168.6z M200.4,140.3c-0.1-0.1-0.3,0-0.4,0c-1-0.9-1.5-2.3-1.4-3.8c0.1-1-0.1-2-0.5-2.9
		c-0.3-0.6-0.7-1.1-1.2-1.6l0.1,0l-0.2-0.1c1.7-0.3,3.2-1.5,3.9-3.1c0.6-1.4,1.8-2.4,3.3-2.6c0,0,0.1,0,0.1,0c1.1,0.2,2,0.7,2.7,1.5
		c0.7,0.9,1.1,1.9,1.1,2.9c0,1.7,0.6,3.3,1.8,4.6c-1.6,0.5-3,1.6-3.8,3.1C204.8,140.2,202.5,141,200.4,140.3z M204.4,124.4
		c-0.1,0-0.2,0-0.3,0c-1.2-0.7-2-2.1-2.1-3.5c-0.1-1.2-0.6-2.2-1.1-2.8c-0.4-0.6-0.9-1-1.5-1.4l0.1,0l0,0c0.7-0.2,1.3-0.6,1.8-1.1
		c0.7-0.7,1.2-1.6,1.5-2.6c0.2-0.8,0.6-1.5,1.1-2.1c0.4-0.5,1-0.8,1.6-1.1c0.1,0,0.2,0,0.3,0.1c2.2,0,4.1,1.6,4.4,3.7
		c0.3,1.7,1.2,3.2,2.6,4.2c-0.6,0.3-1.1,0.7-1.6,1.2c-0.7,0.7-1.3,1.6-1.6,2.5c-0.4,1-1,1.9-1.9,2.4
		C206.5,124.4,205.4,124.6,204.4,124.4z"/>
	<g>
		<path class="st0" d="M46.2,115.5c-1.6-1.6-2.4-3.8-2.4-6.4s0.8-4.8,2.4-6.4c1.6-1.6,3.8-2.4,6.4-2.4c2.2,0,4.1,0.6,5.8,1.7
			l0.5,3.4h-0.2c-0.4-1.4-1.1-2.5-2.2-3.2c-1.1-0.8-2.4-1.1-3.9-1.1c-2.1,0-3.8,0.7-5.1,2.2c-1.3,1.5-1.9,3.4-1.9,5.9
			c0,2.4,0.6,4.4,1.9,5.9c1.3,1.5,2.9,2.3,5,2.3c1.8,0,3.3-0.5,4.6-1.5c1.3-1.1,2.1-2.8,2.4-5.2h0.2l-0.3,3.8
			c-1.5,2.4-3.8,3.6-6.9,3.6C50,117.9,47.9,117.1,46.2,115.5"/>
		<path class="st0" d="M74.8,117.3c0.4,0,0.8-0.2,1.1-0.5c0.3-0.3,0.5-0.7,0.5-1.1v-13.7c0-0.4-0.2-0.7-0.5-1
			c-0.3-0.3-0.6-0.4-1-0.4h-0.3l0-0.2h7.1c0.5,0,1.1,0,1.6-0.1c0.6-0.1,1-0.2,1.3-0.3v3.1h-0.2v-0.4c0-0.4-0.1-0.7-0.4-1
			c-0.3-0.3-0.6-0.4-1-0.4h-5v7.5h4.1c0.3,0,0.6-0.1,0.8-0.4c0.2-0.2,0.3-0.5,0.3-0.9v-0.3h0.2v3.9h-0.2v-0.4c0-0.3-0.1-0.6-0.3-0.8
			c-0.2-0.2-0.5-0.3-0.8-0.4H78v7.3h3.5c1.2,0,2.1-0.3,2.8-0.8c0.6-0.5,1.2-1.3,1.6-2.4H86l-1.4,4H74.5v-0.2H74.8z"/>
		<path class="st0" d="M103.5,101.3H102v14.5c0,0.4,0.2,0.8,0.5,1.1c0.3,0.3,0.7,0.5,1.1,0.5h0.3l0,0.2h-5.3v-0.2h0.3
			c0.4,0,0.8-0.1,1.1-0.4c0.3-0.3,0.5-0.7,0.5-1.1v-13.5c0-0.4-0.2-0.8-0.5-1.1c-0.3-0.3-0.7-0.5-1.1-0.5h-0.3v-0.2h6.6
			c1.5,0,2.6,0.4,3.5,1.2c0.8,0.8,1.3,1.9,1.3,3.2c0,1.3-0.4,2.4-1.2,3.4c-0.8,1-1.8,1.4-2.9,1.4c0.2,0.1,0.5,0.3,0.9,0.7
			c0.3,0.3,0.6,0.7,0.9,1c1.4,2,2.3,3.2,2.7,3.7c0.4,0.5,0.7,0.8,0.9,1c0.2,0.2,0.4,0.3,0.6,0.5c0.2,0.2,0.4,0.3,0.6,0.4
			c0.5,0.2,1,0.3,1.5,0.3v0.2h-1.3c-0.7,0-1.3-0.1-2-0.4c-0.6-0.3-1.1-0.5-1.4-0.8c-0.3-0.3-0.6-0.5-0.8-0.8
			c-0.2-0.3-0.8-1.1-1.8-2.5c-1-1.4-1.6-2.2-1.7-2.5c-0.2-0.2-0.3-0.4-0.5-0.6c-0.5-0.6-1-0.8-1.6-0.8V109c0.1,0,0.3,0,0.5,0
			c0.2,0,0.5,0,0.8,0c2-0.1,3.3-0.9,3.8-2.5c0.1-0.3,0.1-0.6,0.1-0.9V105c0-1.1-0.3-2-0.9-2.6c-0.5-0.7-1.3-1-2.2-1.1
			C104.6,101.3,104.1,101.3,103.5,101.3"/>
		<path class="st0" d="M123,117.3c0.4,0,0.8-0.2,1.1-0.5c0.3-0.3,0.5-0.7,0.5-1.1v-13.5c0-0.4-0.2-0.8-0.5-1.1
			c-0.3-0.3-0.7-0.4-1.1-0.4h-0.3v-0.2h5.3v0.2h-0.3c-0.4,0-0.8,0.1-1.1,0.4c-0.3,0.3-0.5,0.7-0.5,1.1v13.5c0,0.4,0.2,0.8,0.5,1.1
			c0.3,0.3,0.7,0.5,1.1,0.5h0.3v0.2h-5.3v-0.2H123z"/>
		<path class="st0" d="M141.2,116.6c-0.1-0.2-0.1-0.7-0.1-1.3c0-0.7,0.1-1.3,0.4-2.1h0.2c0,0.2,0,0.4,0,0.5c0,1,0.3,1.8,0.9,2.5
			c0.6,0.7,1.4,1,2.4,1c1,0,1.9-0.3,2.5-0.9c0.7-0.6,1-1.4,1-2.3c0-0.9-0.3-1.7-1-2.3l-4.7-4.3c-0.9-0.8-1.3-1.8-1.3-3
			c0-1.2,0.4-2.1,1.2-3c0.8-0.8,1.8-1.2,3.1-1.2c0.6,0,1.3,0.1,2.1,0.2h1v3h-0.2c0-0.8-0.3-1.4-0.8-1.8c-0.5-0.5-1.2-0.7-2-0.7
			s-1.5,0.3-2.1,0.8c-0.6,0.6-0.8,1.2-0.8,2.1s0.3,1.5,1,2.1l4.8,4.4c0.8,0.7,1.2,1.8,1.2,3.1c0,1.3-0.4,2.4-1.2,3.2
			c-0.8,0.8-1.9,1.3-3.3,1.3c-0.7,0-1.5-0.1-2.3-0.3C142.3,117.4,141.6,117,141.2,116.6"/>
		<path class="st0" d="M163.3,117.3c0.4,0,0.8-0.2,1.1-0.5c0.3-0.3,0.5-0.7,0.5-1.1v-13.7c0-0.4-0.2-0.7-0.5-1
			c-0.3-0.3-0.6-0.4-1-0.4H163l0-0.2h7.1c0.5,0,1.1,0,1.6-0.1c0.6-0.1,1-0.2,1.3-0.3v3.1h-0.2v-0.4c0-0.4-0.1-0.7-0.4-1
			c-0.3-0.3-0.6-0.4-1-0.4h-5v7.5h4.1c0.3,0,0.6-0.1,0.8-0.4c0.2-0.2,0.3-0.5,0.3-0.9v-0.3h0.2v3.9h-0.2v-0.4c0-0.3-0.1-0.6-0.3-0.8
			c-0.2-0.2-0.5-0.3-0.8-0.4h-4.1v7.3h3.5c1.2,0,2.1-0.3,2.8-0.8c0.6-0.5,1.2-1.3,1.6-2.4h0.2l-1.4,4H163v-0.2H163.3z"/>
	</g>
	<g>
		<path class="st0" d="M79.9,146c0.7,0.8,1.5,1.5,2.3,1.6v0.3H80l-2.3-3.2h-0.5v0.8c0,1.7,0.2,2,1.3,2v0.3h-3.9v-0.3
			c1.1,0,1.3-0.3,1.3-2v-2.7c0-1.7-0.2-2-1.3-2v-0.3h3.5c1.8,0,2.7,0.9,2.7,2.1c0,1-0.8,1.9-2.1,2.1L79.9,146z M78.2,141.2h-1v3h1
			c1,0,1.4-0.7,1.4-1.5C79.6,141.8,79.2,141.2,78.2,141.2z"/>
		<path class="st0" d="M90.7,146.2l0.1-0.3h0.3l-0.1,2.1h-6.4v-0.3c1.1,0,1.3-0.3,1.3-2v-2.7c0-1.7-0.2-2-1.3-2v-0.3h3.8h2.2l0.1,2
			h-0.4l-0.1-0.3c-0.2-0.8-0.4-1.1-2-1.1h-1.1v2.5h0.1c1.7,0,1.8-0.2,1.8-1.3h0.3v3.3h-0.3c0-1.1-0.1-1.3-1.8-1.3h-0.1v1
			c0,1.7,0.2,2,1.3,2h0.2C90.3,147.3,90.5,147,90.7,146.2z"/>
		<path class="st0" d="M101.3,145.6l1.2-3.5c0.3-1,0.2-1.3-0.9-1.3v-0.3h3.2v0.3c-1.1,0-1.3,0.3-1.7,1.5l-2,5.8h-0.2l-1.7-5.3
			l-1.8,5.3h-0.2l-1.9-5.8c-0.4-1.2-0.7-1.5-1.7-1.5v-0.3h3.8v0.3c-1,0-1.3,0.2-0.9,1.3l1.1,3.5l1.7-5.1h0.3L101.3,145.6z"/>
		<path class="st0" d="M108,146.3c-0.4,1-0.4,1.3,0.9,1.3v0.4h-3.2v-0.4c1,0,1.2-0.2,1.8-1.5l2.5-5.8h0.2l2.5,5.8
			c0.6,1.3,0.8,1.5,1.7,1.5v0.4h-3.8v-0.4c1.2,0,1.3-0.3,0.9-1.3l-0.3-0.8h-2.8L108,146.3z M109.7,142.2l-1.1,2.6h2.2L109.7,142.2z"
			/>
		<path class="st0" d="M122.1,146c0.7,0.8,1.5,1.5,2.3,1.6v0.3h-2.2l-2.3-3.2h-0.5v0.8c0,1.7,0.2,2,1.3,2v0.3h-3.9v-0.3
			c1.1,0,1.3-0.3,1.3-2v-2.7c0-1.7-0.2-2-1.3-2v-0.3h3.5c1.8,0,2.7,0.9,2.7,2.1c0,1-0.8,1.9-2.1,2.1L122.1,146z M120.4,141.2h-1v3h1
			c1,0,1.4-0.7,1.4-1.5C121.8,141.8,121.3,141.2,120.4,141.2z"/>
		<path class="st0" d="M126.8,147.6c1.1,0,1.3-0.3,1.3-2v-2.7c0-1.7-0.2-2-1.3-2v-0.3h3.6c2.9,0,4.1,1.7,4.1,3.7
			c0,2-1.3,3.7-4.1,3.7h-3.6V147.6z M130.5,141.2c-0.1,0-0.8,0-1.1,0v4.8c0,1.1,0.1,1.3,1,1.3h0.1c2.2,0,2.7-1.7,2.7-3.1
			C133.1,142.9,132.7,141.2,130.5,141.2z"/>
		<path class="st0" d="M140.9,148.2c-0.9,0-1.6-0.4-1.9-0.6c-0.1,0.1-0.3,0.3-0.3,0.6h-0.3v-2.9h0.3c0.1,1.4,1.1,2.3,2.3,2.3
			c0.7,0,1.3-0.4,1.3-1.1c0-0.6-0.5-1.1-1.4-1.5l-1.2-0.6c-0.8-0.4-1.4-1.1-1.4-2.1c0-1.1,0.9-1.9,2.1-1.9c0.7,0,1.2,0.3,1.6,0.5
			c0.1-0.1,0.2-0.3,0.3-0.5h0.3v2.9h-0.3c-0.1-1-0.6-2.2-1.8-2.2c-0.7,0-1.2,0.4-1.2,1c0,0.6,0.4,0.9,1.5,1.5l1.1,0.6
			c1,0.5,1.3,1.3,1.3,1.9C143.3,147.3,142.2,148.2,140.9,148.2z"/>
	</g>
</g>
</svg>
