<?xml version="1.0" encoding="utf-8"?>
<!-- Generator: Adobe Illustrator 25.3.1, SVG Export Plug-In . SVG Version: 6.00 Build 0)  -->
<svg version="1.1" id="Layer_1" xmlns="http://www.w3.org/2000/svg" xmlns:xlink="http://www.w3.org/1999/xlink" x="0px" y="0px"
	 viewBox="0 0 109 56.5" style="enable-background:new 0 0 109 56.5;" xml:space="preserve">
<style type="text/css">
	.st0{fill:#A47C46;}
</style>
<g>
	<g>
		<path class="st0" d="M6.6,15.9c-1.2-1.3-1.9-2.9-1.9-5s0.6-3.7,1.9-5c1.2-1.3,2.9-1.9,5-1.9c1.7,0,3.2,0.4,4.5,1.3L16.4,8h-0.2
			c-0.3-1.1-0.8-1.9-1.7-2.5c-0.8-0.6-1.8-0.9-3-0.9c-1.6,0-3,0.6-3.9,1.7c-1,1.1-1.5,2.7-1.5,4.5c0,1.9,0.5,3.4,1.5,4.5
			c1,1.2,2.3,1.7,3.9,1.8c1.4,0,2.6-0.4,3.5-1.1c1-0.8,1.6-2.2,1.8-4.1H17l-0.2,3c-1.1,1.9-2.9,2.8-5.3,2.8
			C9.5,17.8,7.9,17.1,6.6,15.9"/>
		<path class="st0" d="M28.7,17.3c0.3,0,0.6-0.1,0.8-0.3c0.2-0.2,0.4-0.5,0.4-0.8V5.6c0-0.3-0.2-0.6-0.4-0.8
			c-0.2-0.2-0.5-0.3-0.8-0.3h-0.2l0-0.2h5.5c0.4,0,0.8,0,1.3-0.1c0.5-0.1,0.8-0.2,1-0.2v2.4H36V6c0-0.3-0.1-0.6-0.3-0.8
			c-0.2-0.2-0.5-0.3-0.7-0.3h-3.8v5.8h3.2c0.3,0,0.5-0.1,0.6-0.3c0.2-0.2,0.3-0.4,0.3-0.7V9.5h0.2v3h-0.2v-0.3
			c0-0.3-0.1-0.5-0.3-0.6c-0.2-0.2-0.4-0.3-0.6-0.3h-3.2v5.6h2.7c0.9,0,1.6-0.2,2.1-0.6c0.5-0.4,0.9-1,1.2-1.8h0.2l-1.1,3.1h-7.8
			v-0.2H28.7z"/>
		<path class="st0" d="M50.9,4.9h-1.2v11.2c0,0.3,0.1,0.6,0.3,0.8c0.2,0.2,0.5,0.3,0.9,0.3h0.2l0,0.2H47v-0.2h0.2
			c0.3,0,0.6-0.1,0.8-0.3c0.2-0.2,0.4-0.5,0.4-0.8V5.7c0-0.3-0.1-0.6-0.4-0.8c-0.2-0.2-0.5-0.4-0.8-0.4H47V4.3h5.1
			c1.1,0,2,0.3,2.7,1c0.7,0.6,1,1.5,1,2.5c0,1-0.3,1.9-0.9,2.6c-0.6,0.7-1.4,1.1-2.3,1.1c0.2,0.1,0.4,0.3,0.7,0.5
			c0.3,0.3,0.5,0.5,0.7,0.8c1.1,1.5,1.8,2.5,2.1,2.9c0.3,0.4,0.6,0.6,0.7,0.7s0.3,0.3,0.5,0.4c0.2,0.1,0.3,0.2,0.5,0.3
			c0.4,0.2,0.8,0.3,1.2,0.3v0.2h-1c-0.5,0-1-0.1-1.5-0.3s-0.8-0.4-1-0.6c-0.2-0.2-0.4-0.4-0.6-0.6c-0.2-0.2-0.6-0.8-1.4-1.9
			c-0.8-1.1-1.2-1.7-1.3-1.9c-0.1-0.2-0.3-0.3-0.4-0.5c-0.4-0.4-0.8-0.6-1.2-0.6v-0.2c0.1,0,0.2,0,0.4,0c0.2,0,0.4,0,0.6,0
			c1.6,0,2.5-0.7,2.9-2c0.1-0.3,0.1-0.5,0.1-0.7V7.8c0-0.8-0.2-1.5-0.7-2c-0.4-0.5-1-0.8-1.7-0.8C51.7,4.9,51.3,4.9,50.9,4.9"/>
		<path class="st0" d="M65.9,17.3c0.3,0,0.6-0.1,0.8-0.3c0.2-0.2,0.4-0.5,0.4-0.8V5.7c0-0.3-0.1-0.6-0.4-0.8
			c-0.2-0.2-0.5-0.3-0.8-0.3h-0.2V4.3h4.1v0.2h-0.2c-0.3,0-0.6,0.1-0.8,0.3c-0.2,0.2-0.4,0.5-0.4,0.8v10.5c0,0.3,0.1,0.6,0.4,0.8
			c0.2,0.2,0.5,0.3,0.8,0.3h0.2v0.2h-4.1v-0.2H65.9z"/>
		<path class="st0" d="M80,16.8c0-0.2-0.1-0.5-0.1-1c0-0.5,0.1-1,0.3-1.6h0.2c0,0.1,0,0.3,0,0.4c0,0.8,0.2,1.4,0.7,1.9
			c0.5,0.5,1.1,0.8,1.8,0.8c0.8,0,1.4-0.2,1.9-0.7c0.5-0.5,0.8-1.1,0.8-1.8c0-0.7-0.2-1.3-0.7-1.8l-3.6-3.4c-0.7-0.6-1-1.4-1-2.3
			c0-0.9,0.3-1.7,0.9-2.3c0.6-0.6,1.4-1,2.4-1c0.5,0,1,0.1,1.6,0.2h0.7v2.3h-0.2c0-0.6-0.2-1.1-0.6-1.4c-0.4-0.4-0.9-0.5-1.6-0.5
			c-0.6,0-1.2,0.2-1.6,0.6c-0.4,0.4-0.6,1-0.6,1.6c0,0.6,0.3,1.2,0.8,1.7l3.7,3.4c0.6,0.6,0.9,1.4,0.9,2.4c0,1-0.3,1.8-1,2.5
			c-0.6,0.6-1.5,1-2.6,1c-0.6,0-1.1-0.1-1.8-0.3C80.8,17.4,80.3,17.1,80,16.8"/>
		<path class="st0" d="M97,17.3c0.3,0,0.6-0.1,0.8-0.3c0.2-0.2,0.4-0.5,0.4-0.8V5.6c0-0.3-0.2-0.6-0.4-0.8c-0.2-0.2-0.5-0.3-0.8-0.3
			h-0.2l0-0.2h5.5c0.4,0,0.8,0,1.3-0.1c0.5-0.1,0.8-0.2,1-0.2v2.4h-0.2V6c0-0.3-0.1-0.6-0.3-0.8c-0.2-0.2-0.5-0.3-0.7-0.3h-3.8v5.8
			h3.2c0.3,0,0.5-0.1,0.6-0.3c0.2-0.2,0.3-0.4,0.3-0.7V9.5h0.2v3h-0.2v-0.3c0-0.3-0.1-0.5-0.3-0.6c-0.2-0.2-0.4-0.3-0.6-0.3h-3.2
			v5.6h2.7c0.9,0,1.6-0.2,2.1-0.6c0.5-0.4,0.9-1,1.2-1.8h0.2l-1.1,3.1h-7.8v-0.2H97z"/>
	</g>
	<g>
		<path class="st0" d="M32.1,41c-0.8,0-1.4-0.4-1.7-0.6c-0.1,0.1-0.3,0.4-0.3,0.6h-0.4v-2.5h0.4c0.1,1.2,1,1.9,2.1,1.9
			c0.6,0,1.1-0.3,1.1-0.9c0-0.5-0.4-0.8-1.2-1.2L31,37.9c-0.8-0.3-1.3-0.9-1.3-1.7c0-0.9,0.8-1.6,2-1.6c0.6,0,1.1,0.2,1.5,0.5
			c0.1-0.1,0.2-0.3,0.2-0.5h0.4v2.1h-0.4c-0.1-0.8-0.6-1.5-1.6-1.5c-0.5,0-1,0.3-1,0.7c0,0.5,0.4,0.7,1.3,1.1l1.1,0.5
			c0.9,0.4,1.2,1.1,1.2,1.6C34.3,40.2,33.3,41,32.1,41z"/>
		<path class="st0" d="M37.7,40.8v-0.3c1.1,0,1.2-0.2,1.2-1.5v-2.3c0-1.3-0.2-1.5-1.2-1.5v-0.3h3.7v0.3c-1.1,0-1.2,0.2-1.2,1.5v2.3
			c0,1.3,0.2,1.5,1.2,1.5v0.3H37.7z"/>
		<path class="st0" d="M46.3,35.4c-1.4,0-1.6,0.2-1.7,0.8l-0.1,0.3h-0.3l0.2-1.7h6.9l0.1,1.7h-0.3L51,36.2c-0.2-0.6-0.4-0.8-1.7-0.8
			h-0.8v3.6c0,1.3,0.2,1.5,1.2,1.5v0.3h-3.7v-0.3c1,0,1.2-0.2,1.2-1.5v-3.6H46.3z"/>
		<path class="st0" d="M55.3,39.4c-0.4,0.7-0.4,1,0.8,1v0.3h-3v-0.3c0.9,0,1.1-0.2,1.6-1.2l2.3-4.6h0.3l2.3,4.6
			c0.5,1,0.7,1.2,1.5,1.2v0.3h-3.6v-0.3c1.1,0,1.2-0.3,0.8-1l-0.3-0.6h-2.4L55.3,39.4z M56.8,36.4l-0.9,1.9h1.9L56.8,36.4z"/>
		<path class="st0" d="M66.3,38.3v0.6c0,1.3,0.2,1.5,1.2,1.5v0.3h-3.7v-0.3c1.1,0,1.2-0.2,1.2-1.5v-2.3c0-1.3-0.2-1.5-1.2-1.5v-0.3
			h3.3c1.7,0,2.5,0.7,2.5,1.7c0,0.8-0.6,1.5-1.8,1.7l0.9,0.9c0.8,0.8,1.3,1.2,2.1,1.3v0.3h-2.1l-2.1-2.5H66.3z M67.1,35.4h-0.8v2.4
			h0.8c0.8,0,1.2-0.6,1.2-1.2C68.3,35.9,68,35.4,67.1,35.4z"/>
		<path class="st0" d="M74.9,39.4c-0.4,0.7-0.4,1,0.8,1v0.3h-3v-0.3c0.9,0,1.1-0.2,1.6-1.2l2.3-4.6H77l2.3,4.6
			c0.5,1,0.7,1.2,1.5,1.2v0.3h-3.6v-0.3c1.1,0,1.2-0.3,0.8-1l-0.3-0.6h-2.4L74.9,39.4z M76.4,36.4l-0.9,1.9h1.9L76.4,36.4z"/>
	</g>
</g>
</svg>
