<svg id="Layer_1" data-name="Layer 1" xmlns="http://www.w3.org/2000/svg" viewBox="0 0 101.8 49.2"><defs><style>.cls-1{fill:#acacae;}</style></defs><title>cerise-club-Branding</title><path class="cls-1" d="M42.3,32.5c-.1.1-.2.3-.4.3a.7.7,0,0,1-.9-.1c-.1-.2-.1-.6-.3-.7a1.9,1.9,0,0,0-1.3-.3,5.3,5.3,0,0,0-1.9.4l-1.2.7a2.8,2.8,0,0,0-1.1,1.1,4.4,4.4,0,0,0-.2,1.6,13.6,13.6,0,0,0,.4,1.7,7.1,7.1,0,0,0,.8,1.5l.6,1.3,3.7-.3h1.6a7.6,7.6,0,0,1,2.6,0c0,.1.1.1,0,.3s-.4.1-1.1.4l-.6-.2h-.5l-2.4.3a16,16,0,0,0-3,.3,11.4,11.4,0,0,1,.6,1.5c.5,1.3-.2,3.3-2.1,4.4a33.3,33.3,0,0,1-3.7,1.7,30,30,0,0,1-7.4.9,6.9,6.9,0,0,1-2.4-.3c-.6-.3-1.2-.7-1.3-1.2a2,2,0,0,1,.6-1.7,12.9,12.9,0,0,1,3-2.1,20,20,0,0,1,3.3-1.4,49.4,49.4,0,0,1,5.5-1.5l2.5-.6a27.3,27.3,0,0,1-1.3-4.1A4.7,4.7,0,0,1,36.2,32a3.1,3.1,0,0,1,1-.5,7.7,7.7,0,0,1,2.8-.6,2.5,2.5,0,0,1,2,.4c.2.2.4.2.5.5A.7.7,0,0,1,42.3,32.5Zm-6.4,8.2-3.1.7A38.6,38.6,0,0,0,28,43a21.7,21.7,0,0,0-3.5,1.5c-.3.1-2.3,1.2-2.3,2.4s1.9,1.4,3,1.5a18.5,18.5,0,0,0,3.9-.3l2.5-.4a13,13,0,0,0,3.5-1.5,3.2,3.2,0,0,0,1.4-3.4A5.6,5.6,0,0,0,35.9,40.7Z"/><path class="cls-1" d="M42.5,41.1c.3-.5.5-1,.8-1.4a1.7,1.7,0,0,1,1.1-.6.7.7,0,0,1,.5.4c.1.2-.1.3-.2.5l-.6.4c-.1.1-.3.2-.3.3a1.3,1.3,0,0,0-.5.6,1.2,1.2,0,0,0-.2,1c.1.5.8.4,1.2.3a9.5,9.5,0,0,0,2.3-.5,5.9,5.9,0,0,0,1.4-.6c.3-.1.5,0,.3.1A11.1,11.1,0,0,1,44,43.5c-.7.1-1.6,0-1.8-.7S42.2,41.8,42.5,41.1Zm4.3-6.2c.1.1.3.2,0,.5a2.6,2.6,0,0,1-.9.9c-.1,0-.5.1-.7-.1a.4.4,0,0,1-.1-.3c-.2-.4.5-.7.9-.8h.8Z"/><path class="cls-1" d="M51,36.1l.8-1.2c0-.1.1-.2.1-.3l.2-.3c.2-.6.1-1.1.4-1.3H53a.6.6,0,0,1,.8.6A11.1,11.1,0,0,1,52.1,36l3.6-.3H58c.8.2,2.6.4,2.6,1.5s-.9-.2-.9-.4v-.2h-.1a4,4,0,0,0-1.5-.3h-.4a26.3,26.3,0,0,0-3.1.1h-.9l-2.2.4a15.5,15.5,0,0,0-2,2.8,4.1,4.1,0,0,0-.7,1.1,7,7,0,0,0-.3,1.2c0,.4.3.5.7.6h1.1L52,42l1.8-.8c.3-.1.4-.1.3.2l-1.6,1a9.1,9.1,0,0,1-2.2.9l-1.3.3a1.3,1.3,0,0,1-.9-.4,1.4,1.4,0,0,1-.3-1.3,11.1,11.1,0,0,1,1.4-3L50.4,37a4.8,4.8,0,0,1-1.7,0,.6.6,0,0,1-.5-.5h0a.9.9,0,0,1,.8-.6Z"/><path class="cls-1" d="M59.1,40c-.1-.2-.7-.3-1-.2l-.8.3-1.8,1.1a2.5,2.5,0,0,0-1.3,1.3c.2.1.5,0,.6,0l1.9-.8,1.2-.5a16.5,16.5,0,0,1,2.6-1.1c.2,0,.5.2.5.4s-.9,1.5-.9,1.9.1.3.4.3H61a9.1,9.1,0,0,0,2.8-1.1c.3,0,.3.2.1.4s-3.2,2.1-4.4,1.4a1.2,1.2,0,0,1-.3-.9,8.3,8.3,0,0,1,.4-1.2c.1-.3-.3-.2-.5-.1a9.4,9.4,0,0,0-1,.4l-.6.3L55.2,43l-1.6.5h-.5a.8.8,0,0,1-.4-.4,4.3,4.3,0,0,1,.1-.5,3.1,3.1,0,0,1,.8-1L55,40.4l2-1,1.2-.4h1a.9.9,0,0,1,.6.3l.2.2C60.1,39.9,59.6,40.5,59.1,40Z"/><path class="cls-1" d="M65,41.5a2.2,2.2,0,0,1-.1.8,6,6,0,0,1-1.1,1.2c-.4.2-.8,0-.8-.4a4.7,4.7,0,0,1,.5-1A9,9,0,0,1,67.6,39a3.2,3.2,0,0,1,2.3-.3H70l.4.2.2.4c0,.3-.5.8-.8.9h-.5c0-.1.1-.4-.2-.4l-.7-.2h-.9a6.7,6.7,0,0,0-1.2.6l-1,.8Z"/><path class="cls-1" d="M75.7,40c-.1-.2-.7-.3-1-.2l-.8.3-1.8,1.1a2.5,2.5,0,0,0-1.3,1.3c.2.1.5,0,.6,0l2-.8,1.1-.5a16.5,16.5,0,0,1,2.6-1.1c.2,0,.5.2.5.4s-.9,1.5-.9,1.9.1.3.5.3h.5a9.5,9.5,0,0,0,2.7-1.1c.3,0,.4.2.1.4s-3.2,2.1-4.4,1.4a1.2,1.2,0,0,1-.3-.9,8.3,8.3,0,0,1,.4-1.2c.1-.3-.3-.2-.5-.1a9.4,9.4,0,0,0-1,.4l-.6.3L71.9,43l-1.7.5h-.5l-.4-.4a4.3,4.3,0,0,1,.1-.5,5.8,5.8,0,0,1,.8-1l1.4-1.1,2-1,1.3-.4h.9a.7.7,0,0,1,.6.3l.2.2C76.7,39.9,76.2,40.5,75.7,40Z"/><path class="cls-1" d="M1.9,12A6.8,6.8,0,0,1,0,7,6.5,6.5,0,0,1,6.9.1a7.7,7.7,0,0,1,4.5,1.3L11.8,4h-.2A4.4,4.4,0,0,0,9.9,1.5a4.9,4.9,0,0,0-3-.9,4.9,4.9,0,0,0-4,1.8A6.6,6.6,0,0,0,1.4,6.9a6.7,6.7,0,0,0,1.5,4.6,4.8,4.8,0,0,0,3.9,1.8,5.6,5.6,0,0,0,3.5-1.1,5.7,5.7,0,0,0,1.9-4.1h.1l-.2,3a5.7,5.7,0,0,1-5.3,2.8A6.8,6.8,0,0,1,1.9,12Z"/><path class="cls-1" d="M24.1,13.4a1.4,1.4,0,0,0,.9-.3,1.2,1.2,0,0,0,.3-.9V1.6a1,1,0,0,0-.4-.8,1.1,1.1,0,0,0-.8-.3h-.2V.3h6.8l1-.2V2.4h-.2V2.1a1,1,0,0,0-.3-.8,1.2,1.2,0,0,0-.8-.4H26.6V6.8h3.2a.9.9,0,0,0,.6-.3.9.9,0,0,0,.3-.7V5.6h.2v3h-.2V8.3a.6.6,0,0,0-.3-.6.6.6,0,0,0-.6-.3H26.6V13h2.7a3.3,3.3,0,0,0,2.1-.6,5.2,5.2,0,0,0,1.3-1.8h.2l-1.1,3H23.9v-.2Z"/><path class="cls-1" d="M46.5.9H45.3V12.2a1.1,1.1,0,0,0,1.2,1.2h.2v.2H42.6v-.2h.2a1.6,1.6,0,0,0,.9-.3,1.1,1.1,0,0,0,.3-.8V1.7a1.1,1.1,0,0,0-.3-.8,1.2,1.2,0,0,0-.9-.4h-.2V.3h5.1a4.1,4.1,0,0,1,2.7,1,3.2,3.2,0,0,1,1,2.5,3.9,3.9,0,0,1-.9,2.6,2.8,2.8,0,0,1-2.3,1.1,1.7,1.7,0,0,1,.6.6,2.7,2.7,0,0,1,.7.8,20.3,20.3,0,0,0,2.2,2.8,3,3,0,0,0,.7.8c.1.1.3.2.4.4l.5.3a2.5,2.5,0,0,0,1.2.2v.2H53.4l-1.5-.3-1-.6-.6-.6a12.7,12.7,0,0,1-1.4-1.9l-1.4-2-.4-.4a1.9,1.9,0,0,0-1.2-.7V6.9h1c1.6,0,2.6-.6,3-1.9s.1-.5.1-.7V3.8a4,4,0,0,0-.7-2A2.1,2.1,0,0,0,47.6,1Z"/><path class="cls-1" d="M61.6,13.4a1.2,1.2,0,0,0,.9-.3,1.9,1.9,0,0,0,.4-.9V1.7a2,2,0,0,0-.4-.8,1,1,0,0,0-.9-.4h-.2V.3h4.2V.5h-.3a.9.9,0,0,0-.8.4.9.9,0,0,0-.4.8V12.2a1,1,0,0,0,.4.9,1.1,1.1,0,0,0,.8.3h.3v.2H61.4v-.2Z"/><path class="cls-1" d="M75.8,12.9V11.8a4.7,4.7,0,0,1,.2-1.6h.2v.4a2.9,2.9,0,0,0,.7,2A2.6,2.6,0,1,0,80.7,9L77.1,5.6a2.9,2.9,0,0,1-1-2.3A3.3,3.3,0,0,1,77,1,3.2,3.2,0,0,1,79.4.1a5.6,5.6,0,0,1,1.7.2h.7V2.6h-.2A1.7,1.7,0,0,0,81,1.2,2.1,2.1,0,0,0,79.4.6a2.4,2.4,0,0,0-2.3,2.3,2.3,2.3,0,0,0,.8,1.7L81.6,8a3,3,0,0,1,1,2.4,3.2,3.2,0,0,1-1,2.5,3.3,3.3,0,0,1-2.6,1l-1.7-.3A3,3,0,0,1,75.8,12.9Z"/><path class="cls-1" d="M93,13.4a1.4,1.4,0,0,0,.9-.3,1.2,1.2,0,0,0,.3-.9V1.6a1,1,0,0,0-.4-.8A1.1,1.1,0,0,0,93,.5h-.2V.3h6.8l1-.2V2.4h-.2V2.1a1,1,0,0,0-.3-.8,1.3,1.3,0,0,0-.7-.4H95.5V6.8h3.2a.7.7,0,0,0,.6-.3.9.9,0,0,0,.3-.7V5.6h.2v3h-.2V8.3a.6.6,0,0,0-.3-.6.6.6,0,0,0-.6-.3H95.5V13h2.7a3.3,3.3,0,0,0,2.1-.6,5.2,5.2,0,0,0,1.3-1.8h.2l-1.1,3H92.8v-.2Z"/><path class="cls-1" d="M54.9,24.2c-1.5-.2-3-.4-2-2-1.6,1-1.8-.5-2-2-.2,1.5-.5,3-2.1,2,1.1,1.6-.5,1.8-1.9,2,1.4.2,3,.5,1.9,2.1,1.6-1.1,1.9.5,2.1,1.9.2-1.4.4-3,2-1.9C51.9,24.7,53.4,24.4,54.9,24.2Zm-4,2.4c-.1-.9-.3-1.8-1.2-1.2s-.3-1.1-1.2-1.2c.9-.1,1.8-.2,1.2-1.2.9.6,1.1-.3,1.2-1.1.1.8.2,1.7,1.2,1.1-.6,1,.3,1.1,1.1,1.2-.8.1-1.7.3-1.1,1.2C51.1,24.8,51,25.7,50.9,26.6Z"/></svg>