<svg id="Layer_1" data-name="Layer 1" xmlns="http://www.w3.org/2000/svg" viewBox="0 0 314.4 314.7"><defs><style>.cls-1,.cls-2{fill:#a57d47;}.cls-2{fill-rule:evenodd;}</style></defs><title>cerise-club-Branding</title><path class="cls-1" d="M141.2,205.6c-.2.2-.3.5-.7.7s-1.6.1-1.7-.3-.2-1.1-.6-1.4a4.3,4.3,0,0,0-2.4-.5,11.1,11.1,0,0,0-5.8,2,6.7,6.7,0,0,0-2.1,2.2,5.7,5.7,0,0,0-.4,2.9,11.6,11.6,0,0,0,.8,3.2,27.5,27.5,0,0,0,1.4,3c.4.9.9,1.7,1.3,2.5a48.9,48.9,0,0,1,6.8-.7,12.8,12.8,0,0,0,3-.2,11.6,11.6,0,0,1,4.9.1c.2.1.3.2.2.5s-.9.3-2.2.8-.4-.3-1.1-.4l-1-.2c-1.7.2-3.4.5-4.5.5l-5.7.5c.6,1.4,1,2.3,1.2,2.9.9,2.6-.5,6.4-4,8.4a49.1,49.1,0,0,1-6.9,3.1,59.8,59.8,0,0,1-14,1.9c-1.1-.1-3.5-.1-4.5-.7s-2.3-1.4-2.5-2.2a3.7,3.7,0,0,1,1.1-3.2,21.9,21.9,0,0,1,5.6-4.1,67,67,0,0,1,6.3-2.5c3.5-1.4,6.6-1.9,10.4-2.9l4.8-1.1a41.1,41.1,0,0,1-2.5-7.8,8.8,8.8,0,0,1,3.3-7.9,5.9,5.9,0,0,1,1.9-1.1,24.4,24.4,0,0,1,5.4-1.1c1.5,0,2.9.1,3.7.8s.7.4.9,1A1.2,1.2,0,0,1,141.2,205.6Zm-12,15.6a40.8,40.8,0,0,0-5.9,1.2c-3.3,1.1-5.8,1.8-9,3s-4.3,1.6-6.6,2.8c-.6.3-4.3,2.3-4.4,4.6s3.5,2.7,5.6,2.8a29.4,29.4,0,0,0,7.5-.6c1.3-.3,3.2-.4,4.6-.6a25.8,25.8,0,0,0,6.7-2.8c2.6-1.6,2.9-4.6,2.7-6.5A11,11,0,0,0,129.2,221.2Z"/><path class="cls-1" d="M141.7,222a13.3,13.3,0,0,1,1.4-2.7,2.5,2.5,0,0,1,2.1-1.1.8.8,0,0,1,.9.6c.2.4-.1.7-.4.9a2.8,2.8,0,0,1-1,.8,1.9,1.9,0,0,1-.7.6,5.4,5.4,0,0,0-.9,1.2,2.3,2.3,0,0,0-.3,1.8c.2,1,1.5.8,2.2.7a29.9,29.9,0,0,0,4.3-1,14.3,14.3,0,0,0,2.8-1.3c.4,0,.9.1.6.4-2.3,1.4-5.4,3.2-8.2,3.6-1.3.1-3,0-3.4-1.4S141.2,223.1,141.7,222Zm8-11.9c.3.2.6.4.1,1a3.4,3.4,0,0,1-1.8,1.6,1.1,1.1,0,0,1-1.3-.1c-.2-.1-.1-.4-.2-.6s.9-1.2,1.8-1.6h.5Z"/><path class="cls-1" d="M157.7,212.4a21,21,0,0,0,1.5-2.2.8.8,0,0,1,.2-.5l.4-.8c.3-1.1.2-2,.8-2.3l.9-.3a1.1,1.1,0,0,1,1.4,1.2,26,26,0,0,1-3,4.7c2.2-.2,4.5-.4,6.7-.4a17,17,0,0,1,3.2,0h1c1.7.4,5,.8,5.1,2.8s-1.7-.3-1.8-.8v-.3h-.2a14.7,14.7,0,0,0-2.7-.6h-.9c-1.2-.3-5.6.2-5.7.2h-1.9c-1.3.1-2.8.6-4.1.7-1.2,1.6-2.5,3.3-3.8,5.3l-1.2,2.1a7.3,7.3,0,0,0-.6,2.2c0,.8.5,1.1,1.4,1.1a4.4,4.4,0,0,0,2-.2l3.1-.8,3.6-1.5c.4-.3.6-.2.4.3a18.2,18.2,0,0,1-2.9,1.9,31.5,31.5,0,0,1-4.1,1.8,6.6,6.6,0,0,1-2.6.4,2.4,2.4,0,0,1-1.8-.6,3.4,3.4,0,0,1-.4-2.6,20.5,20.5,0,0,1,2.6-5.6c.7-1.2,1.5-2.5,2.3-3.6a7.2,7.2,0,0,1-3.3-.1.7.7,0,0,1-.8-.7h0a1.7,1.7,0,0,1,1.4-1.2Z"/><path class="cls-1" d="M173.1,219.9a2.4,2.4,0,0,0-2-.5,8.7,8.7,0,0,0-1.6.6l-3.3,2.1c-1.5.8-2.5,1.9-2.4,2.4a1.1,1.1,0,0,0,1.1-.1l3.7-1.5,2.2-.9c1.2-.5,4.2-2,4.9-2s.9.4.9.7-1.8,2.9-1.8,3.7.3.5.9.5h1a18.7,18.7,0,0,0,5.2-1.9c.6-.1.6.3.2.6s-6,4.1-8.3,2.7a1.6,1.6,0,0,1-.5-1.6,5.7,5.7,0,0,1,.7-2.3c.1-.6-.7-.4-.9-.3s-1.1.3-1.9.7l-1.2.8c-1.3.5-3,1.4-4.3,2a12.1,12.1,0,0,1-3,.8h-1a.9.9,0,0,1-.7-.8,3.7,3.7,0,0,1,.2-.9,6.5,6.5,0,0,1,1.4-1.9,21.2,21.2,0,0,1,2.7-2.1,26.9,26.9,0,0,1,3.8-1.8c1.2-.5,1.9-.5,2.3-.7a5.2,5.2,0,0,1,1.7-.2,1,1,0,0,1,1.2.4l.4.4C175,219.7,173.9,220.7,173.1,219.9Z"/><path class="cls-1" d="M184.1,222.6c0,.4.1,1.1-.1,1.4a9.1,9.1,0,0,1-2.1,2.3c-.8.5-1.5.2-1.5-.6a5.2,5.2,0,0,1,.9-2,17.5,17.5,0,0,1,7.8-5.8c1.3-.5,3.3-1.1,4.4-.7a.1.1,0,0,1,.1.1,1,1,0,0,1,.8.5,1.1,1.1,0,0,1,.3.6,2.7,2.7,0,0,1-1.5,1.8c-.4,0-.7,0-.9-.2s.1-.8-.3-.8-1-.3-1.4-.3h-1.8a10.6,10.6,0,0,0-2.1,1.1,9,9,0,0,0-1.9,1.5A3.5,3.5,0,0,0,184.1,222.6Z"/><path class="cls-1" d="M204.4,219.9a2.1,2.1,0,0,0-1.9-.5,8.7,8.7,0,0,0-1.6.6l-3.4,2.1c-1.4.8-2.4,1.9-2.3,2.4a1.1,1.1,0,0,0,1.1-.1l3.6-1.5,2.3-.9c1.2-.5,4.1-2,4.8-2s.9.4.9.7-1.7,2.9-1.7,3.7.3.5.9.5h1a18.7,18.7,0,0,0,5.2-1.9c.5-.1.6.3.2.6s-6.1,4.1-8.3,2.7a1.9,1.9,0,0,1-.6-1.6,7.6,7.6,0,0,1,.8-2.3c.1-.6-.7-.4-.9-.3s-1.1.3-1.9.7l-1.3.8-4.2,2a12.1,12.1,0,0,1-3,.8h-1c-.5-.2-.7-.4-.7-.8a1.1,1.1,0,0,1,.2-.9,6.5,6.5,0,0,1,1.4-1.9,15.9,15.9,0,0,1,2.7-2.1,31.8,31.8,0,0,1,3.7-1.8,21.5,21.5,0,0,1,2.4-.7,5.2,5.2,0,0,1,1.7-.2,1.1,1.1,0,0,1,1.2.4l.3.4C206.3,219.7,205.3,220.7,204.4,219.9Z"/><path class="cls-2" d="M147.8,104.3m12.1-.4.9-.3h.2a5,5,0,0,0,3.2-3.4v-.4H161l-1.2.5a3.8,3.8,0,0,0-1.4,1.6,6.3,6.3,0,0,0-.8,2.3l2.3-.4h0m14.7-3.9-.8.2a5.3,5.3,0,0,0-2.6,1.6,5.1,5.1,0,0,0-1.3,3.6c0,2.4,1.5,4.3,3.3,4.3h.6a3.6,3.6,0,0,0,2.3-2.2,17.6,17.6,0,0,0,1.5-7.5Zm-46.1-.3h-.6c-2.1.2-3.7,2.7-3.5,5.6s2,4.5,4,4.5h.6c2.2-.2,3.8-2.7,3.5-5.5s-2-4.6-4-4.7m-13.8,0h-.6c-2.1.2-3.7,2.7-3.5,5.6s2,4.5,4,4.5h.6c2.1-.2,3.8-2.7,3.5-5.5s-2-4.6-4-4.7m18.7.5a4.5,4.5,0,0,1,1.2,2.9v.8a15.5,15.5,0,0,1-.5,2.3l-.4.8h0a6.7,6.7,0,0,1-5.2,3.9h0a9.3,9.3,0,0,1-2.2.1h-.1a5.2,5.2,0,0,1-2-.7l-.2-.2-.5-.4a5.2,5.2,0,0,1-1.1-3v-.7a5.2,5.2,0,0,1,.5-2.3,2.7,2.7,0,0,1,.3-.8h.1a6.6,6.6,0,0,1,5.2-3.9h0a6.1,6.1,0,0,1,2.1,0h.2a5.2,5.2,0,0,1,2,.8h.2l.4.5m32.6,8.6c.1.1.1.2,0,.4s-.4.4-.6.6A8.3,8.3,0,0,1,161,111l-2.4-.2-.8-.3a3.6,3.6,0,0,1-2.1-2.4h0a4.7,4.7,0,0,1-.2-1.6v-.3a7.7,7.7,0,0,1,2-5h0a8,8,0,0,1,3.3-2.1h.2l.8-.2a17.7,17.7,0,0,1,4,0h.2a6.6,6.6,0,0,1-3.7,4.8h-.1c1.6,0,3.1.2,3.7,1.1h0a26.6,26.6,0,0,0-4.9.1,14,14,0,0,0-3.4.6h-.1a4.8,4.8,0,0,0,.9,2.7,4.3,4.3,0,0,0,2.6,1.7,4.1,4.1,0,0,0,1.9.1c.8-.1,2.2-.3,2.6-1.2s.2-.2.3-.2l.2.2m-46.4-8.6a4.4,4.4,0,0,1,1.1,2.9v.8a8.5,8.5,0,0,1-.4,2.3l-.4.8h0a6.7,6.7,0,0,1-5.2,3.9h0a9.2,9.2,0,0,1-2.2.1h-.2a4.7,4.7,0,0,1-1.9-.7l-.2-.2-.5-.4a4.6,4.6,0,0,1-1.1-3v-.7a5.2,5.2,0,0,1,.5-2.3,2.7,2.7,0,0,1,.3-.8h0a6.9,6.9,0,0,1,5.3-3.9h0a6.1,6.1,0,0,1,2.1,0h.2a5.2,5.2,0,0,1,2,.8h.2l.4.5m-13.7,6.4c-.1-.1-.6.5-.6.6s-2.4,2.5-4.2,2.5-3.7-2.3-3.7-4.5a6.4,6.4,0,0,1,.5-2.4,5.9,5.9,0,0,1,6.1-3.1h.1c.1.1-.1.5-.1.6s-.1.3.1.3h0a4,4,0,0,0,1.9-1.3.8.8,0,0,0,.2-.5h-3.9a7.4,7.4,0,0,0-5.1,3.4c-2,2.9-2.1,6.3-.3,7.9a2.4,2.4,0,0,0,1.1.6,6.1,6.1,0,0,0,4.4-.2l2.1-1.2c.4-.4.4.4.5.6a6.8,6.8,0,0,1-1.1,3.9,5.2,5.2,0,0,1-1.7,1.6h-1.3a.4.4,0,0,0-.1.3.5.5,0,0,0,.5.4l.7-.2a5.2,5.2,0,0,0,1.9-1.1,8.6,8.6,0,0,0,2.7-7.2c-.1-.6-.3-1-.7-1.1m73.9,4.2h-2.1v-3.7l-.3.5a8.2,8.2,0,0,1-3.5,3,4,4,0,0,1-4-.2c-2.1-1.4-2.2-5-.1-8a7.8,7.8,0,0,1,4.1-3.2l.9-.2a32.2,32.2,0,0,1,4.9-.1s-.7,7.4.2,11.9m26.5-2.6h-.1a.4.4,0,0,0-.4.3c-.4,1.3-2.3,1.4-3.4,1.1a4.8,4.8,0,0,1-2.8-3.7h0a4.8,4.8,0,0,1,0-1.2h0c.3-5.6,4.7-5.4,5.8-5.3l.3-.7h-2.2c-.1,0-.2,0,0-.1a4.7,4.7,0,0,0,2-2.3l-.8.6a12,12,0,0,1-7.6,1.8l-.2.7c2.8-.2,2.2,1.1,2,2.1s-1.2,4.7-.6,6.8a1.4,1.4,0,0,0,.2.7h.1a4.4,4.4,0,0,0,.8,1.1l.5.4c1.6,1,4,.5,5.5-.6s1-.8,1.1-1.2a.8.8,0,0,0-.2-.5m12.4-6.5c-.3-1.1-1.2-2.9-3-2.8s-3.5,1.4-4.7,2.5V93.1h-2.2c.2,2.7.3,5.5.3,8.1,0,4.7-.2,8.7-.3,9.6H211c-.1-1.1-.1-2.1-.1-2.9a22.9,22.9,0,0,1,.4-4.7h.1a5.2,5.2,0,0,1,1-1.8,2.4,2.4,0,0,1,1.4-.9h.7c1.9.1,3.3,3.2,3.3,7v.2a11.9,11.9,0,0,1-.4,3.3h1.7a30.6,30.6,0,0,0,.3-4.5,12.4,12.4,0,0,0-.7-4.6m-23.3,8.5h-.1a2,2,0,0,1-2.1-.3,10.8,10.8,0,0,1-3.1-3.3,5.4,5.4,0,0,1-.7-1.3c1.3-.8,4.4-3,3.5-5.2h0a3.1,3.1,0,0,0-2.9-1.3h-6.2c.1,1.2.7,7.8-.2,11.9h2.2c-.2-4.5,0-9.8,0-10.9s3.3-.7,4.7.1a1.8,1.8,0,0,1,.7,2.3h0a4.2,4.2,0,0,1-.8,1.2,8.1,8.1,0,0,1-1.4,1.2l-1.9.9h0a13,13,0,0,0,4.6,4.7,7.4,7.4,0,0,0,2.1.7,3.1,3.1,0,0,0,1.9-.3.8.8,0,0,0,.2-.4c0-.1,0-.1-.1-.2s-.2-.1-.4,0M166.2,82.8a3.6,3.6,0,0,1-2,1.1,6.6,6.6,0,0,1-4-.6,4.8,4.8,0,0,0-3.7-.2h0c2,1.4,2.1,2.6,2.2,4.4s-.2,2.6.4,3.6a1.9,1.9,0,0,0,1.5.8h.1c.3,0,.4.1.4.2a.4.4,0,0,1-.4.5,3.2,3.2,0,0,1-2.3-.6,6.2,6.2,0,0,1-2.4-3.2,4.9,4.9,0,0,0-2.5-2.8,4.5,4.5,0,0,1-1.6,4.7c-.7.8-1.9,1.7-2.2,2.9a1.7,1.7,0,0,0,.5,1.5h.1c.2.2.2.4.1.5s-.5.2-.7,0a4.3,4.3,0,0,1-1.1-2,8.2,8.2,0,0,1,.5-4,4.4,4.4,0,0,0,.2-3.7h0a4.4,4.4,0,0,1-4.4,2.2c-1.1.1-2.6-.2-3.6.5a1.3,1.3,0,0,0-.7,1.4v.2a.3.3,0,0,1-.1.2c0,.1-.1.1-.1.2s-.6,2-.4,2.7,2.1,2.7,3.8,3.7,4.1,2.6,4.8,4.6h0a6.4,6.4,0,0,1,.3,2,8.7,8.7,0,0,1-.5,2.8l-.2.3h0a6.7,6.7,0,0,1-5.3,3.9,6.1,6.1,0,0,1-2.1,0h-.2a4,4,0,0,1-2-.8h-.2l-.4-.4a5.2,5.2,0,0,1-1.1-4.2,7.9,7.9,0,0,1,1.7-4.1,5.4,5.4,0,0,1,2.8-1.9h.6a.4.4,0,0,1,.1.5h-.3a2,2,0,0,0-1.3.4,4.6,4.6,0,0,0-1.5,3,4.1,4.1,0,0,0-.1,1.9c.3,3.1,2.3,4.9,4.6,4.7h0c2.1-.3,3.7-2.8,3.5-5.7a5,5,0,0,0-1-2.9l-.3-.4a11.3,11.3,0,0,0-2.9-2.4l-.5-.3-1.3-1h0a5.8,5.8,0,0,1-1.9-3.2,6.9,6.9,0,0,1,.1-2.5,3.1,3.1,0,0,1,.6-1.3h0a3.5,3.5,0,0,1,.6-2.2,7.8,7.8,0,0,1,3.2-2.5,4.6,4.6,0,0,0,2.8-2.5h0c-2.4.4-3.4-.4-4.7-1.6s-1.6-2-2.8-2.2a1.6,1.6,0,0,0-1.6.4c0,.1,0,.1-.1.2s-.3.1-.4,0-.2-.5-.1-.7a5.3,5.3,0,0,1,2.1-1.1,6.8,6.8,0,0,1,4,.6,4.7,4.7,0,0,0,3.7.2h0a4.4,4.4,0,0,1-2.2-4.4c-.1-1.1.2-2.6-.5-3.6a1.7,1.7,0,0,0-1.4-.8h-.2l-.4-.3a.5.5,0,0,1,.5-.5,3.5,3.5,0,0,1,2.2.6,7.8,7.8,0,0,1,2.5,3.2,4.6,4.6,0,0,0,2.5,2.8c-.5-2.4.3-3.4,1.5-4.7s2-1.7,2.2-2.9a1.4,1.4,0,0,0-.5-1.5h-.1c-.2-.2-.2-.4-.1-.5a.5.5,0,0,1,.7,0,3.1,3.1,0,0,1,1.1,2,6.3,6.3,0,0,1-.5,4,4.8,4.8,0,0,0-.1,3.7h0c1.3-2,2.6-2.1,4.4-2.2s2.5.2,3.5-.5a1.4,1.4,0,0,0,.8-1.4v-.2c0-.2.1-.3.2-.3s.5.2.6.4a3.6,3.6,0,0,1-.7,2.2,6.7,6.7,0,0,1-3.2,2.5,4.7,4.7,0,0,0-2.7,2.5h0c2.3-.4,3.3.4,4.6,1.6s1.7,2,2.9,2.2a1.4,1.4,0,0,0,1.5-.4h.1c.2-.2.3-.2.5-.1a.5.5,0,0,1,0,.7m-17.5-5.4c.1.3.5.5.8.7l.2.2c.3.3.1.9.1.9v.6l.4-.4.4-.4h.4l.7-.2.4.2a1.3,1.3,0,0,0,1.7-.3,3,3,0,0,0,.4-1,1,1,0,0,1,.1-.3c.1-.2.2-.4.8-.5h.4l-.4-.3a1.3,1.3,0,0,0-1.7.3,2.3,2.3,0,0,0-.4,1h0v.3c-.1.4-.7.5-.8.5h-.3c.2-.1.3-.3.5-.5a2.3,2.3,0,0,0-.3-2.2,2.4,2.4,0,0,1,.4-2.6h.1l-.2-.3h0a2.7,2.7,0,0,0-1.6,1.4,2.6,2.6,0,0,0,.2,1.9h0a1.5,1.5,0,0,1,0,2.1l-.3.2a1.3,1.3,0,0,0,0-1.2,2,2,0,0,0-.8-.8h-.2c-.2-.2-.2-.4-.1-.9v-.5l-.3.2h-.1a1.3,1.3,0,0,0-.4,1.7m-.8,6.3c.3-.1.5-.5.7-.7h.1v-.2c.3-.3.9-.2.9-.1h.6l-.4-.4-.4-.4v-.4l-.3-.7.3-.4a1.3,1.3,0,0,0-.3-1.7,3,3,0,0,0-1-.4h-.3c-.2-.1-.4-.2-.5-.8v-.1h-.1a2.4,2.4,0,0,0-.2.8,1.2,1.2,0,0,0,.5.9h0a2.3,2.3,0,0,0,1,.4h.3c.4.1.5.7.5.7v.4c-.1-.2-.3-.3-.5-.5a2.5,2.5,0,0,0-2.2.2,2.1,2.1,0,0,1-2.6-.3h-.2a2.7,2.7,0,0,0,1.4,1.6,2.6,2.6,0,0,0,1.9-.2h.1c.3-.1,1.4-.7,2.1.1a1,1,0,0,1,.1.3,1.1,1.1,0,0,0-1.1,0,2,2,0,0,0-.8.8v.2c-.2.2-.4.2-.9.1h-.5l.3.4a1.3,1.3,0,0,0,1.7.4m6.3.8c-.1-.3-.5-.5-.8-.7l-.2-.2c-.3-.3-.2-.9-.1-.9v-.6l-.3.3h-.1c-.2.1-.3.3-.4.4H152l-.7.2-.4-.2a1.3,1.3,0,0,0-1.7.3c-.3.2-.3.7-.4,1.1v.2c-.1.2-.2.4-.8.5h-.4l.4.2a1.3,1.3,0,0,0,1.7-.3,2.3,2.3,0,0,0,.4-1v-.3c.2-.4.8-.4.8-.4h.4l-.5.5a2.5,2.5,0,0,0,.2,2.2,2.3,2.3,0,0,1-.3,2.6h-.1v.3h.1a2.8,2.8,0,0,0,1.6-1.4,2.6,2.6,0,0,0-.2-1.9H152a1.7,1.7,0,0,1,.1-2.1h.3a1.1,1.1,0,0,0,0,1.1c.1.3.4.5.8.8h.2c.2.2.2.4.1.9v.5l.4-.3a1.3,1.3,0,0,0,.4-1.7m5.1-2.7h-.1a2.7,2.7,0,0,0-1.4-1.6,2.5,2.5,0,0,0-1.9.2h-.1a1.7,1.7,0,0,1-2.1-.1l-.2-.2a1.3,1.3,0,0,0,1.2-.1,2,2,0,0,0,.8-.8V79c.2-.2.4-.2.9-.1h.5l-.3-.4a1.3,1.3,0,0,0-1.7-.4c-.3.1-.5.5-.7.8l-.2.2a1.1,1.1,0,0,1-.9.2l-.6-.2.4.4c.1.2.3.3.4.4v.4l.2.7v.3h-.1a2.4,2.4,0,0,0-.2.8,1.1,1.1,0,0,0,.5.9,2.3,2.3,0,0,0,1.1.4h.2c.2.1.4.2.5.8h0v.3l.2-.4a2.4,2.4,0,0,0,.2-.8,1.2,1.2,0,0,0-.5-.9h0a2.3,2.3,0,0,0-1-.4h-.3c-.4-.1-.4-.6-.5-.7v-.4l.5.5a2.5,2.5,0,0,0,2.2-.2,2.3,2.3,0,0,1,2.6.3h.3Zm-5.6-5.9Zm-5,3.8Zm5.5,2.5Z"/><path class="cls-1" d="M314.1,170.2l-1.3-.5a7.9,7.9,0,0,1-3.3-2.3,9,9,0,0,1-1.7-3.7,8.5,8.5,0,0,0-4.8-6.3h0a8.6,8.6,0,0,0,4.8-6.3,9,9,0,0,1,1.7-3.7,7.9,7.9,0,0,1,3.3-2.3l1.3-.5a.5.5,0,0,0,.3-.5.7.7,0,0,0-.4-.5l-1.4-.2a6.5,6.5,0,0,1-3.6-1.8,6.9,6.9,0,0,1-2.3-3.3h0a8.3,8.3,0,0,0-2.7-3.9,9.9,9.9,0,0,0-3.1-1.5h0a9.2,9.2,0,0,0,2.3-2.5,7.6,7.6,0,0,0,1.4-4.6,7.8,7.8,0,0,1,3.9-6.8l1.2-.7a.5.5,0,0,0,.3-.5.5.5,0,0,0-.5-.4h-1.4a7.6,7.6,0,0,1-6.7-4h0a8.8,8.8,0,0,0-6.7-4.3h0a7,7,0,0,0,1.9-2.7,8.7,8.7,0,0,0,.5-4.8,7.9,7.9,0,0,1,2.7-7.3l1.1-.9a.5.5,0,0,0,.1-.6c-.1-.2-.3-.4-.5-.3l-1.4.2a7.7,7.7,0,0,1-7.3-2.8,8.3,8.3,0,0,0-3.9-2.8,9.4,9.4,0,0,0-3.4-.4h0a8.3,8.3,0,0,0,1.1-7.9,7.7,7.7,0,0,1,1.5-7.7l.9-1.1a.5.5,0,0,0,0-.6c-.1-.2-.3-.2-.6-.2l-1.3.5a7.8,7.8,0,0,1-7.6-1.5h-.1a8.4,8.4,0,0,0-7.7-1.9h0a8.5,8.5,0,0,0-.2-7.9,7.8,7.8,0,0,1,0-7.8l.8-1.2c.1-.2.1-.5-.1-.6a.5.5,0,0,0-.6-.1l-1.2.7a7.8,7.8,0,0,1-7.8-.3,9.4,9.4,0,0,0-4.6-1.3h-.1a8,8,0,0,0-3.3.8h0a9.3,9.3,0,0,0,.3-3.3,8,8,0,0,0-1.9-4.5,7.8,7.8,0,0,1-1.2-7.7l.5-1.3c.1-.2.1-.5-.1-.6h-.6l-1.2.9a7.4,7.4,0,0,1-7.7,1.1h0a8.3,8.3,0,0,0-7.9.8h0a8.5,8.5,0,0,0-2.9-7.4,8,8,0,0,1-2.2-3.3,6.9,6.9,0,0,1-.3-4l.3-1.4a.6.6,0,0,0-.3-.6.7.7,0,0,0-.6.1l-.9,1.1a7.5,7.5,0,0,1-3.4,2.1,7.2,7.2,0,0,1-4.1.2h0a9.7,9.7,0,0,0-4.8.3,10.3,10.3,0,0,0-2.8,1.8h-.1a7.2,7.2,0,0,0-.8-3.2,7.5,7.5,0,0,0-3.2-3.6,8,8,0,0,1-3.8-6.9V7.2a.5.5,0,0,0-.4-.5.4.4,0,0,0-.5.2l-.8,1.2a7.6,7.6,0,0,1-6.9,3.6h0a8.8,8.8,0,0,0-7.2,3.4h-.1a8.4,8.4,0,0,0-5.1-6A8.2,8.2,0,0,1,178.1,3l-.2-1.4c0-.3-.2-.4-.4-.5a.5.5,0,0,0-.5.3l-.6,1.4a7.8,7.8,0,0,1-6.2,4.7,8.3,8.3,0,0,0-6.5,4.5h0a8.7,8.7,0,0,0-6.2-5.1,7.5,7.5,0,0,1-5.7-5.2L151.3.4c0-.3-.2-.4-.5-.4a.4.4,0,0,0-.4.4l-.3,1.4a8.2,8.2,0,0,1-5.4,5.7,8.1,8.1,0,0,0-5.6,5.5H139v.2a8.1,8.1,0,0,0-6.9-4,8.2,8.2,0,0,1-6.6-4.2l-.6-1.3a.4.4,0,0,0-.6-.2c-.2,0-.3.2-.4.4V5.3a7.8,7.8,0,0,1-4.3,6.4h-.1a8.7,8.7,0,0,0-4.6,6.5h0a8.6,8.6,0,0,0-7.5-2.7,10.7,10.7,0,0,1-4-.5,8,8,0,0,1-3.2-2.5l-.8-1.1c-.2-.2-.4-.3-.6-.2s-.4.3-.3.5v1.4a6.9,6.9,0,0,1-.6,4,7.2,7.2,0,0,1-2.5,3.2h0a7.7,7.7,0,0,0-2.9,3.8,9.2,9.2,0,0,0-.6,3.3h0a8.5,8.5,0,0,0-3-1.5,9.9,9.9,0,0,0-2.4-.3,6.7,6.7,0,0,0-2.4.4,8.1,8.1,0,0,1-7.6-1.7l-1.1-1c-.1-.2-.4-.2-.6-.1a.5.5,0,0,0-.2.6l.4,1.4a7.5,7.5,0,0,1-1.9,7.5h0A8.9,8.9,0,0,0,71,40.3h-.1v.2a8.5,8.5,0,0,0-7.9-.1,8.4,8.4,0,0,1-4,.8,7.1,7.1,0,0,1-3.8-1.2l-1.2-.8a.6.6,0,0,0-.6,0,.5.5,0,0,0-.1.6L54,41a7.7,7.7,0,0,1,.7,4,7.2,7.2,0,0,1-1.3,3.8,8.3,8.3,0,0,0-.9,7.8h0a9.6,9.6,0,0,0-3.4-.4,8.5,8.5,0,0,0-2.3.4,9.4,9.4,0,0,0-2.2,1.2,7.4,7.4,0,0,1-7.7.9l-1.3-.5c-.2-.1-.5-.1-.6.1a.4.4,0,0,0,0,.6l.8,1.2a7.6,7.6,0,0,1,.7,7.7h0a9.1,9.1,0,0,0,.4,7.9H37a8.6,8.6,0,0,0-7.6,2.5A7.4,7.4,0,0,1,22,80.6l-1.4-.3a.5.5,0,0,0-.6.2c-.1.2-.1.5.1.6l1,1a7.2,7.2,0,0,1,2,3.5,8.2,8.2,0,0,1,.1,4.1,8.1,8.1,0,0,0,1.7,7.6H25a8.8,8.8,0,0,0-7.1,3.8,7.5,7.5,0,0,1-7,3.4H9.5a.7.7,0,0,0-.5.4c-.1.2,0,.4.2.6l1.2.8a7.3,7.3,0,0,1,3.2,7h0a8.6,8.6,0,0,0,3,7.3h.1a8.6,8.6,0,0,0-6.2,4.9,8,8,0,0,1-2.6,3.1,6.7,6.7,0,0,1-3.7,1.5H2.7a.4.4,0,0,0-.4.4.5.5,0,0,0,.3.6l1.3.6a6.8,6.8,0,0,1,3,2.6,7.3,7.3,0,0,1,1.4,3.8h0a8,8,0,0,0,1.7,4.5,7.2,7.2,0,0,0,2.5,2.1h.1a7.9,7.9,0,0,0-2.9,1.8,7.8,7.8,0,0,0-2.5,4.1,7.5,7.5,0,0,1-5.4,5.6l-1.4.4a.4.4,0,0,0-.4.4.5.5,0,0,0,.4.5l1.4.4a7.5,7.5,0,0,1,5.4,5.6,7.8,7.8,0,0,0,2.5,4.1,7.3,7.3,0,0,0,2.8,1.7h.1a9.2,9.2,0,0,0-2.6,2.2,8,8,0,0,0-1.7,4.5,7.7,7.7,0,0,1-1.4,3.8,6.8,6.8,0,0,1-3,2.6l-1.3.6a.5.5,0,0,0-.3.6.4.4,0,0,0,.4.4H4.2A6.7,6.7,0,0,1,7.9,186a8,8,0,0,1,2.6,3.1,8.6,8.6,0,0,0,6.2,4.9,8.9,8.9,0,0,0-3.1,7.4,7.3,7.3,0,0,1-3.2,7l-1.2.8c-.2.2-.3.4-.2.6a.7.7,0,0,0,.5.4l1.4-.2a8,8,0,0,1,7,3.5,8.6,8.6,0,0,0,6.9,3.8H25a8.1,8.1,0,0,0-1.8,7.7,8.2,8.2,0,0,1-.1,4.1,7.2,7.2,0,0,1-2,3.5l-1,1c-.2.1-.2.4-.1.6a.5.5,0,0,0,.6.2l1.4-.3a7.4,7.4,0,0,1,7.4,2.2h0a8.7,8.7,0,0,0,6.2,2.6H37a9,9,0,0,0-.5,8,7.6,7.6,0,0,1-.7,7.7l-.8,1.2a.4.4,0,0,0,0,.6c.1.2.4.2.6.1l1.3-.5a7.4,7.4,0,0,1,7.7.9,9.4,9.4,0,0,0,2.2,1.2,8.5,8.5,0,0,0,2.3.4h.6a8.6,8.6,0,0,0,2.7-.5h.1a8.5,8.5,0,0,0,.9,7.9,7.2,7.2,0,0,1,1.3,3.8,7.7,7.7,0,0,1-.7,4l-.6,1.3a.5.5,0,0,0,.1.6h.6l1.2-.8a7.1,7.1,0,0,1,3.8-1.2,8.4,8.4,0,0,1,4,.8,8.5,8.5,0,0,0,7.9-.1,9.1,9.1,0,0,0,2.2,7.7,7.5,7.5,0,0,1,1.9,7.5l-.4,1.4a.5.5,0,0,0,.2.6h.6l1.1-1a8.1,8.1,0,0,1,7.6-1.7h0a6.7,6.7,0,0,0,2.4.4,9.9,9.9,0,0,0,2.4-.3,8,8,0,0,0,2.9-1.5h0c.1,0,.1,0,.1-.1a9.7,9.7,0,0,0,.6,3.4,7.7,7.7,0,0,0,2.9,3.8,7.2,7.2,0,0,1,2.5,3.2,6.9,6.9,0,0,1,.6,4V303c-.1.2.1.4.3.5H99a.4.4,0,0,0,.4-.2l.8-1.1a8,8,0,0,1,3.2-2.5,9,9,0,0,1,4-.5,8.5,8.5,0,0,0,7.5-2.7,8.9,8.9,0,0,0,4.7,6.5,7.8,7.8,0,0,1,4.3,6.4v1.5c.1.2.2.4.4.4h.1l.5-.2.6-1.3a8.1,8.1,0,0,1,6.6-4.2,8.3,8.3,0,0,0,6.9-3.9h0a8.2,8.2,0,0,0,5.7,5.6,8,8,0,0,1,5.4,5.7l.3,1.4a.4.4,0,0,0,.4.4h.1a.4.4,0,0,0,.4-.4l.5-1.3a7.5,7.5,0,0,1,5.7-5.2h.1a8.5,8.5,0,0,0,6-5h.1a8.3,8.3,0,0,0,6.5,4.5,7.8,7.8,0,0,1,6.2,4.7l.6,1.4c.1.1.2.3.4.3h.1c.2-.1.4-.2.4-.5l.2-1.4a8.2,8.2,0,0,1,4.9-6.1,8.5,8.5,0,0,0,5.2-6,8.6,8.6,0,0,0,7.2,3.4,7.6,7.6,0,0,1,6.9,3.6l.8,1.2.4.2h.1a.5.5,0,0,0,.4-.5v-1.4a8,8,0,0,1,3.8-6.9,7.5,7.5,0,0,0,3.2-3.6,7.2,7.2,0,0,0,.8-3.2h.1v-.2h0a11.7,11.7,0,0,0,3,1.9,9.3,9.3,0,0,0,4.7.3,7.2,7.2,0,0,1,4.1.2,7.5,7.5,0,0,1,3.4,2.1l.9,1.1h.6a.6.6,0,0,0,.3-.6l-.3-1.4a6.9,6.9,0,0,1,.3-4,8,8,0,0,1,2.2-3.3,8.5,8.5,0,0,0,2.9-7.4h0a8.2,8.2,0,0,0,7.9.8,7.4,7.4,0,0,1,7.7,1.1l1.2.9h.6a.5.5,0,0,0,.1-.6l-.5-1.3a7.8,7.8,0,0,1,1.2-7.7,8,8,0,0,0,1.9-4.5,9.3,9.3,0,0,0-.3-3.3h0a8.1,8.1,0,0,0,3.4.8h0a8.7,8.7,0,0,0,4.5-1.3,8,8,0,0,1,7.9-.3l1.2.7a.5.5,0,0,0,.7-.7l-.8-1.2a7.8,7.8,0,0,1,0-7.8,8.5,8.5,0,0,0,.2-7.9h0a7.6,7.6,0,0,0,2.1.3,8.9,8.9,0,0,0,5.7-2.2,7.8,7.8,0,0,1,7.6-1.5l1.3.5c.3,0,.5,0,.6-.2a.5.5,0,0,0,0-.6l-.9-1.1a7.7,7.7,0,0,1-1.5-7.7h.1a8.6,8.6,0,0,0-1.1-7.8h.6a7.7,7.7,0,0,0,2.7-.4,8.3,8.3,0,0,0,3.9-2.8,7.7,7.7,0,0,1,7.3-2.8l1.4.2c.2.1.4-.1.5-.3a.5.5,0,0,0-.1-.6l-1.1-.9a7.9,7.9,0,0,1-2.7-7.3,8.7,8.7,0,0,0-.5-4.8,7,7,0,0,0-1.9-2.7h0a8.7,8.7,0,0,0,6.7-4.4,7.6,7.6,0,0,1,6.7-4h1.4a.5.5,0,0,0,.5-.4.5.5,0,0,0-.3-.5l-1.2-.7a7.8,7.8,0,0,1-3.9-6.8,7.4,7.4,0,0,0-1.4-4.6,7.6,7.6,0,0,0-2.3-2.4h0a9.9,9.9,0,0,0,3.1-1.5,8.3,8.3,0,0,0,2.7-3.9,6.9,6.9,0,0,1,2.3-3.3,6.5,6.5,0,0,1,3.6-1.8l1.4-.3a.4.4,0,0,0,.4-.4A.5.5,0,0,0,314.1,170.2Zm-17,50.3a9.8,9.8,0,0,0-6.6,3.5,7.1,7.1,0,0,1-4.1,2.5,7,7,0,0,1-4.3-.6,6.7,6.7,0,0,1-1.6-6.6h0a8.2,8.2,0,0,0-1.6-7.1h0a8,8,0,0,0,3-.6,7.7,7.7,0,0,0,3.3-2.9,7.4,7.4,0,0,1,6.2-3.1,7.9,7.9,0,0,1,3.2,2.8,7,7,0,0,1,.8,4.7A10,10,0,0,0,297.1,220.5Zm-29,37.4a15.5,15.5,0,0,0-.4,2.1,12.7,12.7,0,0,0,.4,3.4,9.5,9.5,0,0,0-7.5,1.1,7.1,7.1,0,0,1-4.7,1,8.2,8.2,0,0,1-3.8-2,7.2,7.2,0,0,1,.7-6.8,7.2,7.2,0,0,0,1.3-4.2,6.3,6.3,0,0,0-.5-3h0a7.8,7.8,0,0,0,2.6.4h.5a8,8,0,0,0,4.1-1.6,6.9,6.9,0,0,1,6.9-.8,7.6,7.6,0,0,1,2,3.6,6.9,6.9,0,0,1-.7,4.7A9.5,9.5,0,0,0,268.1,257.9Zm-19.5,22.6a9.3,9.3,0,0,0-7.5-.1,7,7,0,0,1-8.3-2.4,6.5,6.5,0,0,1,0-3.4,7.8,7.8,0,0,1,1.8-3.2,8.1,8.1,0,0,0,2.1-6.9h0a7.8,7.8,0,0,0,7.3.1,6.9,6.9,0,0,1,6.8.3,6.2,6.2,0,0,1,1.4,3.9,5.9,5.9,0,0,1-1.5,4.5A10,10,0,0,0,248.6,280.5Zm-21.4,10.4a9.3,9.3,0,0,0-.7,3.3,10.9,10.9,0,0,0-3.1-1.4,10.4,10.4,0,0,0-4.3,0,7.1,7.1,0,0,1-4.8-.7,6.7,6.7,0,0,1-2.9-3.1,7,7,0,0,1,2.8-6.2,6.8,6.8,0,0,0,2.7-3.5,7.9,7.9,0,0,0,.5-3h.1a8.7,8.7,0,0,0,2.7,1.4,8.2,8.2,0,0,0,4.4-.1,6.6,6.6,0,0,1,3.7-.1,6.4,6.4,0,0,1,3.1,1.5,7,7,0,0,1-1.6,8.4A11,11,0,0,0,227.2,290.9Zm-38.9,5.2a7.2,7.2,0,0,1,3.9-5.5,8.2,8.2,0,0,0,4.3-5.9h0a7.9,7.9,0,0,0,6.8,2.5,6.9,6.9,0,0,1,6.5,2.6,7.1,7.1,0,0,1-.1,4.1,6.3,6.3,0,0,1-2.9,3.8,9.7,9.7,0,0,0-4.4,6.2,9.5,9.5,0,0,0-7.1-2.7A6.9,6.9,0,0,1,188.3,296.1Zm-103.6-9a9.8,9.8,0,0,0-7.5.7,9.5,9.5,0,0,0-2.7-7,7.1,7.1,0,0,1-.8-8.7,8.4,8.4,0,0,1,3.1-1.2,7.7,7.7,0,0,1,3.6.5,7.6,7.6,0,0,0,7.2-.7h0a7.9,7.9,0,0,0,2.7,6.7,6.9,6.9,0,0,1,2.3,6.6,7.4,7.4,0,0,1-3.1,2.7A6.7,6.7,0,0,1,84.7,287.1ZM56.4,269a8.6,8.6,0,0,0-1.6-4.1,7,7,0,0,1,.7-8.6,7.2,7.2,0,0,1,6.7.4,10,10,0,0,0,2.1,1,7.8,7.8,0,0,0,2.2.2,8,8,0,0,0,3-.6h0a7.8,7.8,0,0,0,1.4,7.1,6.6,6.6,0,0,1,1.5,3.4,7.4,7.4,0,0,1-.3,3.6,7.2,7.2,0,0,1-8.3,1.5,9.4,9.4,0,0,0-7.5-.5A9.7,9.7,0,0,0,56.4,269ZM38.1,246a7,7,0,0,1,2.1-8.3,7,7,0,0,1,6.6,1.5h0a7.9,7.9,0,0,0,5.2,2l1.8-.2h0a7.8,7.8,0,0,0,.3,7.1,7.3,7.3,0,0,1,0,7,6.7,6.7,0,0,1-3.8,1.5,6.3,6.3,0,0,1-2.4-.2,5.7,5.7,0,0,1-2.2-1.1,9.7,9.7,0,0,0-7.4-1.8A9.6,9.6,0,0,0,38.1,246ZM23.3,215.3a6.5,6.5,0,0,1-3.9-2.8,10,10,0,0,0-6.4-4.1,9.1,9.1,0,0,0,2.3-7.2,7.2,7.2,0,0,1,4.8-7.2,7.5,7.5,0,0,1,3.2,1,7.3,7.3,0,0,1,2.5,2.7,8,8,0,0,0,6.1,4h-.1a7.9,7.9,0,0,0-2.1,6.9,7.1,7.1,0,0,1-2.4,6.6A6.8,6.8,0,0,1,23.3,215.3ZM13,106.3a10,10,0,0,0,6.4-4.1,6.5,6.5,0,0,1,3.9-2.8,7,7,0,0,1,4.3.2,7.5,7.5,0,0,1,1.8,2.7,7.8,7.8,0,0,1,.3,3.7,7.7,7.7,0,0,0,2.2,6.9,8,8,0,0,0-6.1,4,7,7,0,0,1-5.9,3.7,7.2,7.2,0,0,1-4.6-7.1A9.1,9.1,0,0,0,13,106.3ZM24.8,90.1a8.2,8.2,0,0,0,.1-4.4,8.4,8.4,0,0,0-1.2-3.1h.1a9.7,9.7,0,0,0,6.9-3,6.9,6.9,0,0,1,8.5-1.1,6.8,6.8,0,0,1,1,6.6h0a8.1,8.1,0,0,0,1,7.1,7.8,7.8,0,0,0-6.6,3,7.4,7.4,0,0,1-6.5,2.6A7,7,0,0,1,24.8,90.1ZM38.1,68.7a9.6,9.6,0,0,0,.2-7.6,9.7,9.7,0,0,0,7.4-1.8,5.7,5.7,0,0,1,2.2-1.1,6.3,6.3,0,0,1,2.4-.2,7.1,7.1,0,0,1,3.9,1.6,7.2,7.2,0,0,1,.8,3.2,7.4,7.4,0,0,1-.9,3.6,7.8,7.8,0,0,0-.2,7.3,8,8,0,0,0-3.1-.2,7.3,7.3,0,0,0-2.1.6l-1.9,1.3A7,7,0,0,1,40,76.8,6.8,6.8,0,0,1,38.1,68.7Zm18.3-23a9.7,9.7,0,0,0-.1-3.4,9.4,9.4,0,0,0,7.5-.5,7.1,7.1,0,0,1,8.4,1.6A7.2,7.2,0,0,1,71,50.2h0a7.7,7.7,0,0,0-1.5,7.1,7.7,7.7,0,0,0-7.2.6,7.8,7.8,0,0,1-3.5,1,6.5,6.5,0,0,1-3.4-.7,6.8,6.8,0,0,1-.6-8.4A8.6,8.6,0,0,0,56.4,45.7ZM77.2,26.9a9.8,9.8,0,0,0,7.5.7,6.7,6.7,0,0,1,4.8.3,7,7,0,0,1,3.1,2.8,6.1,6.1,0,0,1-.3,3.3,6.7,6.7,0,0,1-2,3.1h0a7.9,7.9,0,0,0-2.4,3.7,8.1,8.1,0,0,0-.2,3.1,7.7,7.7,0,0,0-2.8-1.2H82.6l-2.2.6a7.2,7.2,0,0,1-6.8-.8,7.1,7.1,0,0,1,.9-8.5A9.5,9.5,0,0,0,77.2,26.9ZM195.3,13.5a9.5,9.5,0,0,0,7.1-2.7,9.7,9.7,0,0,0,4.4,6.2,6.3,6.3,0,0,1,2.9,3.8,6.7,6.7,0,0,1,0,4.2,6,6,0,0,1-2.7,2,6.8,6.8,0,0,1-3.7.5h0a7.8,7.8,0,0,0-4.3.6,7.9,7.9,0,0,0-2.5,1.9,7.7,7.7,0,0,0-1-2.9,7.1,7.1,0,0,0-3.2-3,7.1,7.1,0,0,1-3.9-5.7A6.8,6.8,0,0,1,195.3,13.5Zm31.9,10.3a11,11,0,0,0,2.6,3.5,6.9,6.9,0,0,1,1.5,8.4,6.8,6.8,0,0,1-6.7,1.4h0a7.9,7.9,0,0,0-7.1,1.3,8.1,8.1,0,0,0-3.2-6.5A8,8,0,0,1,212,29a6.3,6.3,0,0,1-.6-3.3,7.9,7.9,0,0,1,2.9-3.1,7.1,7.1,0,0,1,4.8-.7,10.4,10.4,0,0,0,4.3,0,10.9,10.9,0,0,0,3.1-1.4A9.3,9.3,0,0,0,227.2,23.8Zm23.5,17.7a5.9,5.9,0,0,1,1.5,4.5,6.7,6.7,0,0,1-1.4,4,7.1,7.1,0,0,1-6.8.2,7.9,7.9,0,0,0-7.3.1h0a7.6,7.6,0,0,0,0-3,7.1,7.1,0,0,0-2.1-3.9,7.1,7.1,0,0,1-1.7-6.7,7,7,0,0,1,8.2-2.3,9,9,0,0,0,7.5-.2A10.1,10.1,0,0,0,250.7,41.5Zm17.4,9.8a12.7,12.7,0,0,0-.4,3.4,15.5,15.5,0,0,0,.4,2.1,9.5,9.5,0,0,0,.9,2.1,6.9,6.9,0,0,1,.7,4.7,6.8,6.8,0,0,1-2,3.6,6.9,6.9,0,0,1-6.9-.9h0a7.8,7.8,0,0,0-7.1-1.1,7.7,7.7,0,0,0-.9-7.2,6.9,6.9,0,0,1-.6-6.8,7.5,7.5,0,0,1,3.7-2,7.1,7.1,0,0,1,4.7,1A9.5,9.5,0,0,0,268.1,51.3Zm27.3,50.3a7,7,0,0,1-.8,4.7,7.9,7.9,0,0,1-3.2,2.8,6.9,6.9,0,0,1-6.1-3.1h0a7.8,7.8,0,0,0-6.4-3.5,7.2,7.2,0,0,0,1.5-2.7,8.2,8.2,0,0,0,.1-4.4,7.1,7.1,0,0,1,1.6-6.6,7.2,7.2,0,0,1,4.3-.6,7.1,7.1,0,0,1,4.1,2.5,9.8,9.8,0,0,0,6.6,3.5A10,10,0,0,0,295.4,101.6Zm-132,195.7a8.8,8.8,0,0,0-5.7-3.9,6,6,0,0,1-3.6-2.4,6.6,6.6,0,0,1-1.3-3.6,6.3,6.3,0,0,1,4.7-4.1h0a7.5,7.5,0,0,0,5.1-4.2,7.3,7.3,0,0,0,5.5,3.7,5.1,5.1,0,0,1,.6,10.1A8.6,8.6,0,0,0,163.4,297.3Zm5.4-275.6a6.5,6.5,0,0,1,4.4,6.4,6.5,6.5,0,0,1-5.1,3.8,7.3,7.3,0,0,0-5.5,3.7,7.5,7.5,0,0,0-5.1-4.2,6.1,6.1,0,0,1-4.6-3.9,6.2,6.2,0,0,1,4.9-6.2,9.7,9.7,0,0,0,5.7-3.9A8.6,8.6,0,0,0,168.8,21.7ZM289.6,204a9.1,9.1,0,0,0-5.8,3.8,6.1,6.1,0,0,1-3.5,2.6,6.9,6.9,0,0,1-4-.3,6.6,6.6,0,0,1-2-5.9,6.9,6.9,0,0,0-.4-4,8.3,8.3,0,0,0-1.5-2.3,7.2,7.2,0,0,0,5.5-3.6,6.1,6.1,0,0,1,5.3-3.3,6.2,6.2,0,0,1,3.2,2.3,6.8,6.8,0,0,1,1.1,4.2A8.8,8.8,0,0,0,289.6,204Zm-9.8,21.7a8.7,8.7,0,0,0-6.3,2.7,5.1,5.1,0,0,1-8.8-5.1h0a6.9,6.9,0,0,0-.9-6.5h.5a6.2,6.2,0,0,0,2.3-.4,6.9,6.9,0,0,0,3.3-2.3,6.3,6.3,0,0,1,5.8-2.4,6.6,6.6,0,0,1,2.7,2.8,5.5,5.5,0,0,1,.4,4.3A8.8,8.8,0,0,0,279.8,225.7Zm-13.3,19.7a8.9,8.9,0,0,0-6.7,1.6,6.4,6.4,0,0,1-4.2,1.2,6.1,6.1,0,0,1-3.6-1.5,6.2,6.2,0,0,1,0-6.2,7.3,7.3,0,0,0,.3-6.6l1.6.2a7.9,7.9,0,0,0,4.8-1.8,6.5,6.5,0,0,1,6.1-1.4,7.7,7.7,0,0,1,2.2,3.2,6.7,6.7,0,0,1-.3,4.4,6,6,0,0,0-.6,1.9,7.1,7.1,0,0,0-.2,2A8,8,0,0,0,266.5,245.4ZM250,262.5a8.5,8.5,0,0,0-6.8.5,6.4,6.4,0,0,1-7.7-1.6,6.3,6.3,0,0,1,1.1-6.1,6.9,6.9,0,0,0,1.6-3.8,6.3,6.3,0,0,0-.3-2.7,8.8,8.8,0,0,0,2.7.6h.1a7.3,7.3,0,0,0,3.8-1.1,6.4,6.4,0,0,1,6.3-.3,6,6,0,0,1,1.6,3.5,5.8,5.8,0,0,1-1,4.3A9.2,9.2,0,0,0,250,262.5Zm-18.6,11.2a7.6,7.6,0,0,0-.5,3,8.5,8.5,0,0,0-2.8-1,8.9,8.9,0,0,0-4,.3,6.6,6.6,0,0,1-4.4-.2,6.9,6.9,0,0,1-2.9-2.7,5.5,5.5,0,0,1,.3-3.1,7.1,7.1,0,0,1,1.8-2.8,6.9,6.9,0,0,0,2.4-6.1,7.4,7.4,0,0,0,6.6.6,5.1,5.1,0,0,1,5.5,8.5A10.3,10.3,0,0,0,231.4,273.7Zm-21.7,13.7a8.4,8.4,0,0,0-6.6-1.8,6.5,6.5,0,0,1-6.7-4.1,6.3,6.3,0,0,1,3.1-5.4,6.9,6.9,0,0,0,2.7-3.1,7.7,7.7,0,0,0,.7-2.6,11.4,11.4,0,0,0,2.3,1.5,8.1,8.1,0,0,0,4.1.2,6.9,6.9,0,0,1,6,1.8,6.5,6.5,0,0,1,.3,3.9,5.6,5.6,0,0,1-2.3,3.6A9.4,9.4,0,0,0,209.7,287.4ZM187,294.3a9.1,9.1,0,0,0-6.3-2.9,6.5,6.5,0,0,1-5.9-5.2,6.7,6.7,0,0,1,4-4.8,7,7,0,0,0,4.3-4.9,7.5,7.5,0,0,0,6.1,2.7,6.7,6.7,0,0,1,5.6,2.8,8.4,8.4,0,0,1-.3,3.9,6.7,6.7,0,0,1-3,3.2A8.8,8.8,0,0,0,187,294.3Zm-52.2-2.8a6.4,6.4,0,0,1-3.9-6.8,6.7,6.7,0,0,1,5.3-3.3,7,7,0,0,0,5.8-3.2,7,7,0,0,0,4.7,4.6,6.5,6.5,0,0,1,4.4,4.4,6.6,6.6,0,0,1-1.6,3.6,5.5,5.5,0,0,1-1.7,1.4,5.7,5.7,0,0,1-2.2.7,8.4,8.4,0,0,0-5.9,3.4A8.6,8.6,0,0,0,134.8,291.5Zm-19.5-2.9a10,10,0,0,0-2.9-2.9,6,6,0,0,1-2.7-3.4,6.5,6.5,0,0,1,.1-3.9,6,6,0,0,1,2.5-1.9,7.2,7.2,0,0,1,3.3-.4,7.5,7.5,0,0,0,6.2-2.2,7.5,7.5,0,0,0,3.9,5.3,5.1,5.1,0,0,1-2.8,9.7,8.7,8.7,0,0,0-4,.8,9.6,9.6,0,0,0-2.5,1.6A8.1,8.1,0,0,0,115.3,288.6ZM91.4,276.3a6.4,6.4,0,0,1-1.4-7.7,6.2,6.2,0,0,1,6.1-1.3h0l2.1.4,2-.3a7,7,0,0,0,2.4-1.3,5.9,5.9,0,0,0,.5,2.7,6.7,6.7,0,0,0,2.5,3.3,5.9,5.9,0,0,1,2,2.6,6.5,6.5,0,0,1,.6,3,7.5,7.5,0,0,1-2.7,2.9,6.5,6.5,0,0,1-4.3.6,8.6,8.6,0,0,0-6.8,1.2A8.4,8.4,0,0,0,91.4,276.3ZM74,267a8.5,8.5,0,0,0-1.8-3.7,6.3,6.3,0,0,1-.1-7.7,6.7,6.7,0,0,1,3.1-1,7.7,7.7,0,0,1,3.2.7,7,7,0,0,0,6.6,0,7.6,7.6,0,0,0,1.9,6.4,5.9,5.9,0,0,1,1.6,5.9,6.4,6.4,0,0,1-7.5,2.3,8.9,8.9,0,0,0-6.8,0A9.5,9.5,0,0,0,74,267ZM55.5,247.4a6.4,6.4,0,0,1,1.2-7.6,6.2,6.2,0,0,1,6.3.8h0l1.8,1,2,.4h.5a5.7,5.7,0,0,0,2.2-.4,7.3,7.3,0,0,0,.8,6.6,5.9,5.9,0,0,1,1.1,3.2,6.3,6.3,0,0,1-.5,3,6.9,6.9,0,0,1-3.5,1.8,8.1,8.1,0,0,1-2.2,0l-2.1-.9a8.8,8.8,0,0,0-6.8-1A8.8,8.8,0,0,0,55.5,247.4ZM41.8,228.9a6.1,6.1,0,0,1,2.4-7.3,6.6,6.6,0,0,1,6.1,1.8h0a7.1,7.1,0,0,0,5.2,2.3h1a7.3,7.3,0,0,0-.3,6.6,6.6,6.6,0,0,1-.4,6.1,6.5,6.5,0,0,1-7.9-.3,8.8,8.8,0,0,0-6.5-2.2,9.6,9.6,0,0,0,.8-2.9A8.8,8.8,0,0,0,41.8,228.9ZM31.3,208.3a6.4,6.4,0,0,1,3.7-6.8,6.5,6.5,0,0,1,5.6,2.8,7,7,0,0,0,5.8,3.2A7.4,7.4,0,0,0,45,214a6.2,6.2,0,0,1,0,3.3,6.5,6.5,0,0,1-1.5,2.7,6.5,6.5,0,0,1-3.9.5,5.5,5.5,0,0,1-3.7-2.2,9.5,9.5,0,0,0-6.1-3.3A8.4,8.4,0,0,0,31.3,208.3Zm-.2-106a8.4,8.4,0,0,0-1.3-2.7,8.7,8.7,0,0,0,6.1-3.3,6.3,6.3,0,0,1,7.5-1.7A5.9,5.9,0,0,1,45,97.4a6.2,6.2,0,0,1,0,3.3,7.4,7.4,0,0,0,1.4,6.5,7,7,0,0,0-5.8,3.2,6.4,6.4,0,0,1-5.5,2.8,6.3,6.3,0,0,1-3.7-6.9A9.1,9.1,0,0,0,31.1,102.3ZM41.8,85.7a8.7,8.7,0,0,0-.4-6.9A8.9,8.9,0,0,0,48,76.6a4.5,4.5,0,0,1,1.9-1.1,4.9,4.9,0,0,1,2.1-.4h0a7,7,0,0,1,3.7,1.1,6.4,6.4,0,0,1,.5,6.3h0a7.3,7.3,0,0,0,.3,6.6,7.2,7.2,0,0,0-6.2,2.2,6.5,6.5,0,0,1-5.9,1.9A6.4,6.4,0,0,1,41.8,85.7ZM56.4,60.4a9.2,9.2,0,0,0,6.8-1.1,6.2,6.2,0,0,1,7.6.8,5.9,5.9,0,0,1,.6,3.2,5.9,5.9,0,0,1-1.1,3.2,7.3,7.3,0,0,0-.8,6.6,8,8,0,0,0-2.7-.4l-2,.4-1.8,1a6.3,6.3,0,0,1-6.1.9,6.3,6.3,0,0,1-1.3-7.8,9.8,9.8,0,0,0,1.1-3.9A9.2,9.2,0,0,0,56.4,60.4ZM74.2,44.6a8.3,8.3,0,0,0,6.9.1,6.2,6.2,0,0,1,7.4,2.2A6.2,6.2,0,0,1,86.9,53h0A7.3,7.3,0,0,0,85,59.4a7,7,0,0,0-6.6,0,7.7,7.7,0,0,1-3.2.7,7,7,0,0,1-2.9-.9,6.5,6.5,0,0,1-.1-7.9A8.6,8.6,0,0,0,74.2,44.6ZM94.4,32.2a9.9,9.9,0,0,0,2.8,1.2,9,9,0,0,0,4,0,6.4,6.4,0,0,1,7,3.4,5.9,5.9,0,0,1-.6,3.2,5.9,5.9,0,0,1-2,2.6h0a6.7,6.7,0,0,0-2.5,3.3,5.9,5.9,0,0,0-.5,2.7,7,7,0,0,0-2.4-1.3l-2-.3a7.8,7.8,0,0,0-2.1.4,6.3,6.3,0,0,1-6-1.2,6.9,6.9,0,0,1-.8-4,6.1,6.1,0,0,1,2.1-3.8,8.6,8.6,0,0,0,2.3-3.3A7.3,7.3,0,0,0,94.4,32.2Zm22.1-8.9a8.3,8.3,0,0,0,6.5,2.4,8.3,8.3,0,0,1,2.2.3,6.2,6.2,0,0,1,1.9,1.1,6.4,6.4,0,0,1,2.1,3.2,6.3,6.3,0,0,1-3.5,5.2h0a7.5,7.5,0,0,0-3.9,5.3,7.4,7.4,0,0,0-6.2-2.2,7.2,7.2,0,0,1-3.3-.4,6.4,6.4,0,0,1-2.5-1.8,6.5,6.5,0,0,1,2.6-7.5A8.4,8.4,0,0,0,116.5,23.3Zm70.5-3a9.1,9.1,0,0,0,4.5,5.3,5.6,5.6,0,0,1,3,3.2,6.2,6.2,0,0,1,.3,3.8,6.3,6.3,0,0,1-5.6,2.9h-.1a7.4,7.4,0,0,0-6,2.7,7,7,0,0,0-4.3-4.9,6.6,6.6,0,0,1-3.9-4.7,6.4,6.4,0,0,1,5.9-5.4A8.3,8.3,0,0,0,187,20.3Zm23.7,9.9a9.3,9.3,0,0,0,2.6,3,6.4,6.4,0,0,1,2,7.5,5.5,5.5,0,0,1-2.7,1.7,6.3,6.3,0,0,1-3.3.2h0a8.1,8.1,0,0,0-4.1.2,11.4,11.4,0,0,0-2.3,1.5,7.7,7.7,0,0,0-.7-2.6,6.9,6.9,0,0,0-2.7-3.1,6,6,0,0,1-3.1-5.3,6.6,6.6,0,0,1,2.5-3.2,6.2,6.2,0,0,1,4.2-1,7.9,7.9,0,0,0,4-.4,8.7,8.7,0,0,0,2.7-1.4A7.5,7.5,0,0,0,210.7,30.2Zm22.8,14.3a6.1,6.1,0,0,1,1.7,4,6.9,6.9,0,0,1-1,3.7,6.2,6.2,0,0,1-6.3.8h0a7.3,7.3,0,0,0-6.6.6,6.8,6.8,0,0,0-2.4-6.1,7.1,7.1,0,0,1-1.8-2.8,5.5,5.5,0,0,1-.3-3.1,6.3,6.3,0,0,1,7.3-2.9A8.8,8.8,0,0,0,231,38,8.7,8.7,0,0,0,233.5,44.5ZM250,55.2a7.7,7.7,0,0,0,.5,1.9,5.1,5.1,0,0,0,.9,1.8,6.6,6.6,0,0,1,1.1,4.3,7.2,7.2,0,0,1-1.7,3.5,6.5,6.5,0,0,1-6.3-.3,7.3,7.3,0,0,0-3.8-1.1h-.1a8.8,8.8,0,0,0-2.7.6,6.3,6.3,0,0,0,.3-2.7,6.9,6.9,0,0,0-1.6-3.8,6.3,6.3,0,0,1-1.1-6.1,6.8,6.8,0,0,1,3.4-2.1,5.9,5.9,0,0,1,4.3.5,9.2,9.2,0,0,0,6.9.5A7.6,7.6,0,0,0,250,55.2Zm28.9,40.6a6.7,6.7,0,0,1-.4,4.4,7.5,7.5,0,0,1-2.8,2.8,6.3,6.3,0,0,1-5.8-2.4,6.9,6.9,0,0,0-3.3-2.3,8.6,8.6,0,0,0-2.8-.4,6.9,6.9,0,0,0,.9-6.5,6.2,6.2,0,0,1,1-6.1,6.9,6.9,0,0,1,3.9-1,6.4,6.4,0,0,1,3.9,2,9,9,0,0,0,6.3,2.7A8.9,8.9,0,0,0,278.9,95.8Zm8.6,21.5a5.4,5.4,0,0,1-1.2,4.1,5.9,5.9,0,0,1-3.1,2.3,6.1,6.1,0,0,1-5.3-3.3h0a7.4,7.4,0,0,0-5.6-3.6,6.8,6.8,0,0,0,2-6.3,6.6,6.6,0,0,1,2-5.9,6.4,6.4,0,0,1,7.6,2.3,8.8,8.8,0,0,0,5.7,3.8A9.2,9.2,0,0,0,287.5,117.3Zm-113.8,167a8.1,8.1,0,0,0-5.4-3.1,5.8,5.8,0,0,1-5-5.6c0-.1-.1-.2-.1-.3h0a5.7,5.7,0,0,1,3.9-4.2h.1a6.4,6.4,0,0,0,4.2-4.1,6.8,6.8,0,0,0,5.2,2.9,5.7,5.7,0,0,1,4.9,3.1l.2.2c0,.1-.1.1,0,.2a6.8,6.8,0,0,1-.5,4,5.9,5.9,0,0,1-3,2.6A8.4,8.4,0,0,0,173.7,284.3Zm-26.5-3.1a5.1,5.1,0,0,1-3.2-2.4,5.8,5.8,0,0,1-.8-3.9v-.3h0a5.9,5.9,0,0,1,4.6-3.5,6.1,6.1,0,0,0,4.9-3.3,6.3,6.3,0,0,0,4.7,3.7,6.2,6.2,0,0,1,4.3,3.9v.4a5.9,5.9,0,0,1-4.5,6,8.2,8.2,0,0,0-5.2,3.5A8.2,8.2,0,0,0,147.2,281.2ZM144,35.9a5.1,5.1,0,0,1,3.2-2.4,8.2,8.2,0,0,0,4.8-4,8.2,8.2,0,0,0,5.2,3.5,5.9,5.9,0,0,1,4.5,6v.4a5.6,5.6,0,0,1-4.3,3.8,6.6,6.6,0,0,0-4.6,3.8,6.7,6.7,0,0,0-5-3.4,5.6,5.6,0,0,1-4.6-3.5h0v-.2A5.8,5.8,0,0,1,144,35.9ZM198.6,40a5.9,5.9,0,0,1,2.5,3.1,6.4,6.4,0,0,1-.2,4.1.3.3,0,0,0-.1.2h0a5.5,5.5,0,0,1-2.4,1.8,5.2,5.2,0,0,1-3,.4h0a6.9,6.9,0,0,0-5.6,2,6.3,6.3,0,0,0-.8-2.3,6.5,6.5,0,0,0-2.7-2.5,5.7,5.7,0,0,1-3.2-4.8h0c0-.1.1-.2.1-.3a5.8,5.8,0,0,1,5.9-4.6,8.4,8.4,0,0,0,5.9-2.2A7.7,7.7,0,0,0,198.6,40Zm77.3,118.1a5.8,5.8,0,0,1,5.8,4.8,7.5,7.5,0,0,0,3.3,5.3,8.6,8.6,0,0,0-2.2,1.5,9.1,9.1,0,0,0-2,3.2,5.3,5.3,0,0,1-2.5,3,6.1,6.1,0,0,1-4,.7H274a6.1,6.1,0,0,1-3.4-4.8,5.9,5.9,0,0,0-1.3-3.5,6.9,6.9,0,0,0-1.8-1.6,7.2,7.2,0,0,0,2.1-1.2,6.8,6.8,0,0,0,1.8-3.2,7.2,7.2,0,0,1,1.5-2.7,6.1,6.1,0,0,1,2.6-1.5h.4Zm-1.8,20a6.9,6.9,0,0,1,3.5,2,5.9,5.9,0,0,1,1.4,3.7,7.6,7.6,0,0,0,2.4,5.8,7.9,7.9,0,0,0-5,3.9,5.9,5.9,0,0,1-7,2.6H269a6,6,0,0,1-2.4-5.3,7.3,7.3,0,0,0-.7-3.6,7,7,0,0,0-1.5-1.9,6.7,6.7,0,0,0,4.6-3.8,5.5,5.5,0,0,1,4.7-3.3h.4Zm-5.2,19.5a5.5,5.5,0,0,1,3.1,2.5,5.2,5.2,0,0,1,.7,3.9,8.6,8.6,0,0,0,1.4,6.1,8.2,8.2,0,0,0-5.5,3,5.7,5.7,0,0,1-7.3,1.3h-.4a5.7,5.7,0,0,1-1.5-5.6h0a6.7,6.7,0,0,0-1.3-5.8,7.1,7.1,0,0,0,2.4-.6,7,7,0,0,0,2.8-2.3,5.6,5.6,0,0,1,5.2-2.6h.2ZM263.5,229a8,8,0,0,0-5.9,2.1,5.8,5.8,0,0,1-7.5,0h-.4a5.7,5.7,0,0,1-.5-5.8,6.5,6.5,0,0,0-.2-5.9h.8a6.8,6.8,0,0,0,4.8-2.1,5.6,5.6,0,0,1,5.5-1.6h.2c.1.1.1.2.2.2a5.9,5.9,0,0,1,2.6,3,5.5,5.5,0,0,1,.1,4A7.9,7.9,0,0,0,263.5,229Zm-13.6,16.9a8.5,8.5,0,0,0-6.2,1,6,6,0,0,1-3.9.8,5.7,5.7,0,0,1-3.5-2l-.3-.2h0a5.7,5.7,0,0,1,.4-5.8,7,7,0,0,0,1.2-3.6,8.5,8.5,0,0,0-.4-2.3,6.4,6.4,0,0,0,2,.3h.4a7.1,7.1,0,0,0,3.4-1.3,5.8,5.8,0,0,1,5.8-.7h.2a.3.3,0,0,0,.1.2,5.7,5.7,0,0,1,1.5,7.3,8.7,8.7,0,0,0-.7,1.7,6.2,6.2,0,0,0-.3,1.8A6.3,6.3,0,0,0,249.9,245.9Zm-16.3,14.4a8.1,8.1,0,0,0-6.3-.1,5.8,5.8,0,0,1-7.1-2.4c0-.1-.1-.2-.2-.3h0a6.1,6.1,0,0,1-.1-3,7.2,7.2,0,0,1,1.5-2.7,6.2,6.2,0,0,0,1.7-5.6,7,7,0,0,0,6,0,5.3,5.3,0,0,1,5.7.3h.2v.2a5.6,5.6,0,0,1,1.5,3.7,5.3,5.3,0,0,1-1.2,3.7A7.8,7.8,0,0,0,233.6,260.3Zm-130.2,2.4a5.9,5.9,0,0,1-6.8,3.1,7.5,7.5,0,0,0-6.2.6,8.4,8.4,0,0,0-2.3-5.9,5.8,5.8,0,0,1-.4-7.5.4.4,0,0,0,.1-.3h0a5,5,0,0,1,2.8-1.2,6.3,6.3,0,0,1,3,.4,6.4,6.4,0,0,0,5.9-.5,6.4,6.4,0,0,0,2.2,5.5,5.7,5.7,0,0,1,1.9,5.5v.2ZM73,250.8a7.2,7.2,0,0,0-1.4-3.5,5.8,5.8,0,0,1,.9-7.5l.2-.2h0a6,6,0,0,1,5.8.2h0a6.5,6.5,0,0,0,1.7.8,5.8,5.8,0,0,0,1.9.2,6.9,6.9,0,0,0,2.4-.5,6.3,6.3,0,0,0,1.2,5.8,5.8,5.8,0,0,1,1.2,2.8,5.2,5.2,0,0,1-.3,3v.2h-.1a5.7,5.7,0,0,1-7.2,1.8,8.2,8.2,0,0,0-6.3-.5A7.7,7.7,0,0,0,73,250.8Zm-1.6-12.1a5.8,5.8,0,0,1-3.6,1.7,6.5,6.5,0,0,1-2-.2,5.1,5.1,0,0,1-1.8-.9,7.9,7.9,0,0,0-6.1-1.5,8.1,8.1,0,0,0-.2-6.3,5.7,5.7,0,0,1,2.1-7.2c.1,0,.1-.1.2-.2h0a5.7,5.7,0,0,1,5.7,1.1h0a6.7,6.7,0,0,0,4.4,1.7l1.4-.2a6.7,6.7,0,0,0,.2,6,5.6,5.6,0,0,1,0,5.7v.2ZM58.9,223a5.9,5.9,0,0,1-7.5-.7,7.6,7.6,0,0,0-5.7-2.5,10.9,10.9,0,0,0,1-2.5,9.7,9.7,0,0,0-.1-3.8,5.6,5.6,0,0,1,3.3-6.7.2.2,0,0,0,.2-.2h.1a5.9,5.9,0,0,1,5.4,2.1,6.1,6.1,0,0,0,5.1,2.5H61a6.6,6.6,0,0,0-.8,5.9,5.1,5.1,0,0,1,.3,3,5.7,5.7,0,0,1-1.3,2.7h-.3Zm-9.7-17.6a6.2,6.2,0,0,1-4,.4,5.8,5.8,0,0,1-3.2-2.3,8.2,8.2,0,0,0-5.2-3.5,7.6,7.6,0,0,0,1.8-6,5.8,5.8,0,0,1,4.4-6l.4-.2h0a6,6,0,0,1,2.9.8,5.4,5.4,0,0,1,2,2.2,6.4,6.4,0,0,0,4.9,3.3,6.9,6.9,0,0,0-1.7,5.7,5.5,5.5,0,0,1-2,5.4v.2Zm-9.8-38.8a6,6,0,0,1-3.9-1,5,5,0,0,1-2.2-3.2,8.2,8.2,0,0,0-3.8-5.1,7.7,7.7,0,0,0,3.8-5,5,5,0,0,1,2.2-3.2,6,6,0,0,1,3.9-1h.4a5.6,5.6,0,0,1,2.4,1.7,5.5,5.5,0,0,1,1.2,2.7h0a7.7,7.7,0,0,0,1.6,3.4,9,9,0,0,0,2,1.4,6.7,6.7,0,0,0-1.9,1.4,6.1,6.1,0,0,0-1.7,3.4,5.7,5.7,0,0,1-3.7,4.5h-.3Zm.1-20.1a6,6,0,0,1-3.6-1.6,5.6,5.6,0,0,1-1.7-3.6,7.7,7.7,0,0,0-1.2-3.5,6.8,6.8,0,0,0-1.7-2.1,8.1,8.1,0,0,0,4.6-4.3,5.6,5.6,0,0,1,6.7-3.1H43a5.7,5.7,0,0,1,2.9,5h0a6.5,6.5,0,0,0,2.6,5.3,6.6,6.6,0,0,0-4.2,4.1,5.8,5.8,0,0,1-1.7,2.5,4.9,4.9,0,0,1-2.7,1.3h-.4ZM43,126.7a5.8,5.8,0,0,1-4.4-6,7.6,7.6,0,0,0-1.8-6,8.2,8.2,0,0,0,5.2-3.5,5.8,5.8,0,0,1,3.2-2.3,6.2,6.2,0,0,1,4,.4h.4a5.5,5.5,0,0,1,1.9,5.4,6.4,6.4,0,0,0,1.8,5.7,6.8,6.8,0,0,0-5,3.3,5.6,5.6,0,0,1-4.9,3H43Zm3.7-29.3a10.9,10.9,0,0,0-1-2.5,7.6,7.6,0,0,0,5.7-2.5,5.9,5.9,0,0,1,7.5-.7h.3a5.4,5.4,0,0,1,1,5.7h0a6.5,6.5,0,0,0,.8,5.9,6.4,6.4,0,0,0-5.4,2.5,5.9,5.9,0,0,1-5.4,2.1H50c0-.1-.1-.1-.1-.2a5.6,5.6,0,0,1-3.3-6.7A9.1,9.1,0,0,0,46.7,97.4ZM72.9,61.3a8.2,8.2,0,0,0,6.3-.5,5.7,5.7,0,0,1,7.2,1.8l.2.2h0a5.4,5.4,0,0,1-.9,5.6h0a6.7,6.7,0,0,0-1.2,5.8,6.5,6.5,0,0,0-5.9.5,8.1,8.1,0,0,1-2.9.9,5.9,5.9,0,0,1-2.9-.7h-.1c-.1,0-.1-.1-.2-.2a5.5,5.5,0,0,1-.8-7.4A8.3,8.3,0,0,0,73,64,8.2,8.2,0,0,0,72.9,61.3Zm36.8-22.7a7.7,7.7,0,0,0,2.4,1.2,9,9,0,0,0,3.7.4,5.6,5.6,0,0,1,6.2,4.1l.2.3h0a5.9,5.9,0,0,1-2.8,5h0a6.5,6.5,0,0,0-3.1,5.1,6.8,6.8,0,0,0-5.8-1.5,6.1,6.1,0,0,1-3-.1,6,6,0,0,1-2.5-1.6h-.1v-.3a5.5,5.5,0,0,1-.6-4,6.1,6.1,0,0,1,2.2-3.3,8,8,0,0,0,3.2-5.3ZM220.2,56.9a5.8,5.8,0,0,1,7.1-2.4,8.1,8.1,0,0,0,6.3-.1,7.8,7.8,0,0,0,1.8,6.1,5.2,5.2,0,0,1,1.2,3.7,5.6,5.6,0,0,1-1.5,3.7.4.4,0,0,0-.1.3h-.1a5.5,5.5,0,0,1-5.8.3,7.7,7.7,0,0,0-3.7-.7,10.1,10.1,0,0,0-2.3.7,4.9,4.9,0,0,0,0-2.4,5.9,5.9,0,0,0-1.7-3.3,5.7,5.7,0,0,1-1.4-5.6h0C220.1,57,220.2,57,220.2,56.9ZM236.3,69a5.7,5.7,0,0,1,3.5-2,6,6,0,0,1,3.9.8,8.5,8.5,0,0,0,6.2,1,6.3,6.3,0,0,0-.3,2.7,6.2,6.2,0,0,0,.3,1.8,8.7,8.7,0,0,0,.7,1.7,5.7,5.7,0,0,1-1.5,7.3v.2h-.2a5.6,5.6,0,0,1-5.7-.7h0a6.9,6.9,0,0,0-5.9-1,6.6,6.6,0,0,0-.7-5.9,5.8,5.8,0,0,1-.5-5.8h.1C236.1,69.1,236.2,69.1,236.3,69Zm13.8,14.6a5.8,5.8,0,0,1,7.5,0,8,8,0,0,0,5.9,2.1,7.9,7.9,0,0,0-.3,6.2,5.5,5.5,0,0,1-.1,4,5.9,5.9,0,0,1-2.6,3l-.2.2h-.2a5.8,5.8,0,0,1-5.5-1.6,6.3,6.3,0,0,0-3.2-1.9,6.5,6.5,0,0,0-2.4-.1,6.7,6.7,0,0,0,.2-6,5.8,5.8,0,0,1,.6-5.7h.3Zm11.2,16.7a5.7,5.7,0,0,1,7.3,1.3,8.2,8.2,0,0,0,5.5,3,8.6,8.6,0,0,0-1.4,6.1,5.2,5.2,0,0,1-.7,3.9,5.5,5.5,0,0,1-3.1,2.5l-.3.2h-.1a5.6,5.6,0,0,1-5.2-2.6h0a6.6,6.6,0,0,0-5.2-2.9,4.5,4.5,0,0,0,1.2-2.1,6.6,6.6,0,0,0,.1-3.7,6,6,0,0,1,1.5-5.6h.4Zm8.1,18.3a5.7,5.7,0,0,1,7,2.6,7.9,7.9,0,0,0,5,3.9,7.6,7.6,0,0,0-2.4,5.8,5.9,5.9,0,0,1-1.4,3.7,6.1,6.1,0,0,1-3.5,1.9l-.3.2h-.1a5.7,5.7,0,0,1-2.8-1.1,5.3,5.3,0,0,1-1.9-2.3h0a6.8,6.8,0,0,0-2.4-2.9,9.2,9.2,0,0,0-2.3-.9,4,4,0,0,0,1.5-1.9,5.5,5.5,0,0,0,.8-3.6,5.9,5.9,0,0,1,2.4-5.3h.4ZM169.6,47.3a5.2,5.2,0,0,1,.7,3.5,1.4,1.4,0,0,0,.2.6v.2h1v-.2h.1l.3-.5a5.1,5.1,0,0,1,4.8-4.6,7.1,7.1,0,0,0,5.2-2.4,7.2,7.2,0,0,0,3.7,4.3,4.7,4.7,0,0,1,2.4,2.6,5,5,0,0,1,.1,3.6c0,.2,0,.5.1.6v.2l.5.2h.4v-.2a.8.8,0,0,0,.4-.4,5.5,5.5,0,0,1,2.2-3,4.9,4.9,0,0,1,3.4-.7,8.1,8.1,0,0,0,3.4-.4,7.1,7.1,0,0,0,2.1-1.1,6.2,6.2,0,0,0,.7,2.3,7.5,7.5,0,0,0,2.2,2.5,5.2,5.2,0,0,1,1.5,6.6.6.6,0,0,0,0,.6V62l.4.2h0l.5.2h.1a.8.8,0,0,0,.4-.4,5.2,5.2,0,0,1,6.2-2.7,7.3,7.3,0,0,0,5.6-.5,7.4,7.4,0,0,0,2.1,5.2,5.3,5.3,0,0,1,1.4,3.3,4.8,4.8,0,0,1-1.1,3.4,1.3,1.3,0,0,0-.1.6h-.1l.4.3h0l.4.3h.1l.6-.4a5.2,5.2,0,0,1,3-2,5.4,5.4,0,0,1,3.5.4,7.8,7.8,0,0,0,5.6.5,6.5,6.5,0,0,0,0,2.4,5.3,5.3,0,0,0,.4,1.6,5.5,5.5,0,0,0,.8,1.5,4.6,4.6,0,0,1,.8,3.4,5.4,5.4,0,0,1-1.6,3.3.4.4,0,0,0-.2.6H234l.3.3.4.4h.2l.5-.2a5.2,5.2,0,0,1,6.7-.6,7.8,7.8,0,0,0,5.5,1.5,7.2,7.2,0,0,0,.2,5.6,5.2,5.2,0,0,1,.3,3.5,5.3,5.3,0,0,1-2.2,2.9c-.1.2-.3.3-.3.5h-.2l.3.4h0l.3.4h.2a.7.7,0,0,0,.6-.1,5.4,5.4,0,0,1,3.5-.9,5,5,0,0,1,3.2,1.5,6.9,6.9,0,0,0,5.1,2.3,7.8,7.8,0,0,0-.7,5.6,5,5,0,0,1-.4,3.6,5.7,5.7,0,0,1-2.6,2.5c-.2,0-.3.2-.4.4h-.2l.2.5h0l.2.4h.8a5.3,5.3,0,0,1,6.5,1.8,7.2,7.2,0,0,0,4.7,3.1,8,8,0,0,0-1.7,5.5,4.9,4.9,0,0,1-.9,3.4,5.7,5.7,0,0,1-3,2,.9.9,0,0,0-.5.3h-.2v.5h0v.5h.2a.6.6,0,0,0,.7.1,5.6,5.6,0,0,1,3.6.3,4.7,4.7,0,0,1,2.4,2.6,9,9,0,0,0,2.1,2.7,8.2,8.2,0,0,0,2,1.2,7.1,7.1,0,0,0-2.5,5,5.3,5.3,0,0,1-4.8,4.7.9.9,0,0,0-.6.3h-.1v.5h0v.5h.2a.7.7,0,0,0,.6.2,5.2,5.2,0,0,1,5.5,3.8,7.9,7.9,0,0,0,3.4,4.6,6.5,6.5,0,0,0-1.8,1.5,7.3,7.3,0,0,0-1.6,3,5,5,0,0,1-2,2.9,5.3,5.3,0,0,1-3.5.9l-.6.2h-.2v.5h0v.5h.2l.6.3a5.3,5.3,0,0,1,3.3,1.5,5,5,0,0,1,1.5,3.2,7.3,7.3,0,0,0,2.6,5,6.9,6.9,0,0,0-4.1,3.9,5.3,5.3,0,0,1-6.1,2.9h-.6a.1.1,0,0,1-.1.1h-.1l-.2.5h0v.5h.2a.7.7,0,0,0,.5.4,6.4,6.4,0,0,1,3,2,5.3,5.3,0,0,1,.9,3.5,7.9,7.9,0,0,0,1.7,5.4,7.1,7.1,0,0,0-4.7,3.1,5,5,0,0,1-6.5,1.7c-.2-.1-.4,0-.6,0h-.2l-.2.4h0l-.2.5h.2c0,.2.2.3.4.4a5.7,5.7,0,0,1,2.6,2.5,5.1,5.1,0,0,1,.4,3.6,7,7,0,0,0,.7,5.6,6.8,6.8,0,0,0-5.2,2.3,5.2,5.2,0,0,1-6.7.6.4.4,0,0,0-.5-.1h-.3l-.2.4h0l-.3.4h.2a.9.9,0,0,0,.3.6A5.1,5.1,0,0,1,248,221a4.7,4.7,0,0,1-.2,3.5,4.9,4.9,0,0,0-.5,1.6,11.1,11.1,0,0,0-.2,1.7,5.9,5.9,0,0,0,.5,2.3,8.3,8.3,0,0,0-5.5,1.4,4.7,4.7,0,0,1-3.4,1,5.3,5.3,0,0,1-3.3-1.5l-.6-.2h-.1l-.4.3h0l-.3.4h.1a.8.8,0,0,0,.2.5,5.9,5.9,0,0,1,1.7,3.2,5.3,5.3,0,0,1-.9,3.5,7.1,7.1,0,0,0-1.1,5.5,7.3,7.3,0,0,0-5.6.5,5.4,5.4,0,0,1-6.6-1.6,1,1,0,0,0-.5-.4h0v-.2l-.4.3h0l-.4.3v.2a.7.7,0,0,0,.1.6,5.3,5.3,0,0,1-.3,6.7,7.9,7.9,0,0,0-1.8,2.9,8.5,8.5,0,0,0-.3,2.3,6.2,6.2,0,0,0-2.3-.7,7.2,7.2,0,0,0-3.3.2,4.9,4.9,0,0,1-3.6-.2,5.7,5.7,0,0,1-2.6-2.5,1,1,0,0,0-.5-.4v-.2l-.4.3h0l-.5.2v.2h0c-.1.2,0,.4,0,.6a5,5,0,0,1,.5,3.6,4.6,4.6,0,0,1-1.9,2.9,7.6,7.6,0,0,0-3,4.9,7,7,0,0,0-5.4-1.5,5.1,5.1,0,0,1-5.6-3.7,1,1,0,0,0-.4-.5h0V259l-.5.2h-.5v.2a1.5,1.5,0,0,0-.1.7,5.5,5.5,0,0,1-.1,3.6,5.7,5.7,0,0,1-2.5,2.6,7.3,7.3,0,0,0-3.7,4.2,7.9,7.9,0,0,0-5.1-2.4,5.1,5.1,0,0,1-4.9-4.5.6.6,0,0,0-.3-.6v-.2h-1v.2h0c-.2.1-.2.3-.2.5a5.2,5.2,0,0,1-3.6,5.7,7.1,7.1,0,0,0-4.4,3.6,7.4,7.4,0,0,0-4.6-3.2,4.6,4.6,0,0,1-3-1.9,5.4,5.4,0,0,1-1.1-3.5.8.8,0,0,0-.2-.5v-.2h-1v.2a.6.6,0,0,0-.3.6,5.7,5.7,0,0,1-1.3,3.3,7.5,7.5,0,0,1-1.4,1.2l-1.8.5a7.1,7.1,0,0,0-4.9,2.8,6.9,6.9,0,0,0-4.1-3.9,5.2,5.2,0,0,1-3-6,.7.7,0,0,0-.2-.6h0v-.2h-1v.2a.9.9,0,0,0-.3.5,5.3,5.3,0,0,1-5.3,4.1,8.8,8.8,0,0,0-3.3.6,13.7,13.7,0,0,0-2,1.3,5.8,5.8,0,0,0-1-2.1,6.6,6.6,0,0,0-2.3-2.4,5,5,0,0,1-2.2-2.8,5.5,5.5,0,0,1,.1-3.6.9.9,0,0,0,0-.7h.1l-.5-.2h0l-.5-.2v.2h-.1c-.2,0-.3.2-.4.4a5.3,5.3,0,0,1-2.4,2.7,4.8,4.8,0,0,1-3.5.5,7.2,7.2,0,0,0-5.5,1,7.2,7.2,0,0,0-2.6-5,5.4,5.4,0,0,1-.9-6.7.7.7,0,0,0,.1-.6h0v-.2l-.4-.3-.5-.2H101a1,1,0,0,0-.5.4,5,5,0,0,1-6.3,2.1,7.5,7.5,0,0,0-5.7.1,6.5,6.5,0,0,0-.1-2.4,8.9,8.9,0,0,0-1.5-3.1,5.2,5.2,0,0,1,.2-6.7c.2-.1.2-.4.2-.6h.1l-.3-.3h0l-.4-.4v.2l-.6.2a5.2,5.2,0,0,1-3.2,1.8H81a4.6,4.6,0,0,1-1.6-.7,7.8,7.8,0,0,0-5.6-.9,7.3,7.3,0,0,0-.7-5.6,5.2,5.2,0,0,1,1.3-6.6.5.5,0,0,0,.3-.5h.2l-.4-.4h0l-.3-.3h-.1a.6.6,0,0,0-.6.1,5.4,5.4,0,0,1-6.8,0,7,7,0,0,0-5.3-1.9,8.8,8.8,0,0,0,.7-2.3,8,8,0,0,0-.4-3.4,5.1,5.1,0,0,1,2.4-6.2,1,1,0,0,0,.4-.5h.2l-.3-.4h0l-.2-.5H64a.7.7,0,0,0-.6.1,5.7,5.7,0,0,1-3.6.6,4.5,4.5,0,0,1-3-1.8,7.9,7.9,0,0,0-5-2.8,6.6,6.6,0,0,0,1.2-5.5,5.2,5.2,0,0,1,3.5-5.7,1,1,0,0,0,.5-.4h.2l-.2-.5h0l-.2-.5H56a5.3,5.3,0,0,1-6.3-2.4,7.3,7.3,0,0,0-4.4-3.5,8.5,8.5,0,0,0,1.4-1.9,6.6,6.6,0,0,0,.7-3.3,4.7,4.7,0,0,1,1.3-3.3,5,5,0,0,1,3.1-1.8c.3,0,.4-.2.6-.4h.2v-1h-.8a5.6,5.6,0,0,1-3.6-.6,5.4,5.4,0,0,1-2.3-2.7,7.2,7.2,0,0,0-3.7-4.3,7.1,7.1,0,0,0,3-4.8,4.6,4.6,0,0,1,1.8-3,5,5,0,0,1,3.4-1.2.5.5,0,0,0,.5-.3h.2v-.5h0v-.5h-.2a.5.5,0,0,0-.5-.3,5.5,5.5,0,0,1-3.5-1.2,4.8,4.8,0,0,1-1.7-3,8.5,8.5,0,0,0-1.3-3.1,6.9,6.9,0,0,0-1.7-1.7,7.3,7.3,0,0,0,3.7-4.2,5.3,5.3,0,0,1,5.8-3.4.6.6,0,0,0,.6-.1h.2v-.5h0v-.5h-.2l-.5-.3a5.2,5.2,0,0,1-4.4-5.1,7.3,7.3,0,0,0-2.1-5.2,7.8,7.8,0,0,0,4.4-3.5,4.7,4.7,0,0,1,2.7-2.3,5.6,5.6,0,0,1,3.6,0,.9.9,0,0,0,.7-.1h.1l.2-.5h0l.2-.4H57a.8.8,0,0,0-.5-.5,5.1,5.1,0,0,1-3.4-5.7,7.8,7.8,0,0,0-.2-3.4,10.2,10.2,0,0,0-1-2.1,7.3,7.3,0,0,0,4.9-2.7,5.2,5.2,0,0,1,6.6-1.3.5.5,0,0,0,.6.1h.2l.2-.4h0l.3-.5h-.2a.7.7,0,0,0-.4-.5,5.2,5.2,0,0,1-2.4-6.2,7.5,7.5,0,0,0-.2-5.7,7.3,7.3,0,0,0,5.3-1.8,6.5,6.5,0,0,1,1.5-1l1.8-.3h0a5.4,5.4,0,0,1,3.4,1.2.7.7,0,0,0,.6.2h.2l.3-.4.3-.4h-.1c-.1-.2-.1-.4-.3-.6a5,5,0,0,1-1.4-6.5,6.3,6.3,0,0,0,.9-3.3,5.8,5.8,0,0,0-.2-2.3,7.4,7.4,0,0,0,5.6-1A5.1,5.1,0,0,1,86,77.3l.6.2v.2l.4-.3.4-.4h-.2a.4.4,0,0,0-.2-.5,5.3,5.3,0,0,1-.2-6.7,7.3,7.3,0,0,0,1.7-5.5,7.3,7.3,0,0,0,5.6.1,5,5,0,0,1,3.6-.1,5.7,5.7,0,0,1,2.8,2.3c.1.1.2.3.4.3h.1v.2l.4-.3h0l.4-.3h-.1a.9.9,0,0,0,0-.7,4.8,4.8,0,0,1-.8-3.5,4.4,4.4,0,0,1,1.7-3.1,7,7,0,0,0,1.9-2.8,9,9,0,0,0,.6-2.2,8.5,8.5,0,0,0,2.2.9,9.1,9.1,0,0,0,3.3,0,5.2,5.2,0,0,1,5.9,3.2,1.2,1.2,0,0,0,.5.5h.5l.5-.2v-.2h0a1.3,1.3,0,0,0,.1-.6,5.1,5.1,0,0,1,2-6.4,7.1,7.1,0,0,0,3.3-4.6,7.3,7.3,0,0,0,5.4,1.9,5.7,5.7,0,0,1,1.8.3,3.7,3.7,0,0,1,1.5.8,5.6,5.6,0,0,1,1.9,3.1,1,1,0,0,0,.4.5v.2h1v-.2a1.3,1.3,0,0,0,.1-.6,5,5,0,0,1,.5-3.6,4.7,4.7,0,0,1,2.6-2.4,7,7,0,0,0,4-3.9,7.3,7.3,0,0,0,5,2.8,5.2,5.2,0,0,1,4.5,5,.8.8,0,0,0,.2.5h0v.2h1v-.2a.9.9,0,0,0,.3-.6,5.1,5.1,0,0,1,4-5.3,7.9,7.9,0,0,0,4.7-3.2,7.4,7.4,0,0,0,4.4,3.5A5.4,5.4,0,0,1,169.6,47.3Zm-66,4.9h0a5.1,5.1,0,0,1-.2,3,5.4,5.4,0,0,1-1.6,2.5h0a7.8,7.8,0,0,0-2.1,3.1,9.7,9.7,0,0,0-.2,2.4,5.3,5.3,0,0,0-2.2-.8,4,4,0,0,0-1.9-.1,6.5,6.5,0,0,0-1.8.4,5.6,5.6,0,0,1-5.7-.8h-.1a.3.3,0,0,0-.1-.2,5.8,5.8,0,0,1,.4-7.5,8.4,8.4,0,0,0,2.3-5.9,7.5,7.5,0,0,0,6.2.6,5.6,5.6,0,0,1,4,.3,6,6,0,0,1,2.9,2.8A.3.3,0,0,0,103.6,52.2Zm-31.9,24h0a5.5,5.5,0,0,1,.8,2.9,5.9,5.9,0,0,1-.7,2.9,6.2,6.2,0,0,0-.3,5.9,9.7,9.7,0,0,0-2.4-.1,6.4,6.4,0,0,0-1.8.6,4.9,4.9,0,0,0-1.5,1,5.9,5.9,0,0,1-5.7,1.2h-.3a5.7,5.7,0,0,1-2.1-7.2,8.1,8.1,0,0,0,.2-6.3A8.3,8.3,0,0,0,64,75.4a5.1,5.1,0,0,1,1.8-.9,6.5,6.5,0,0,1,2-.2A5.8,5.8,0,0,1,71.4,76ZM39.9,168.1a5.7,5.7,0,0,1,4.4,3.7,6.3,6.3,0,0,0,2.1,3.1,9.1,9.1,0,0,0,2.2,1.1,5.5,5.5,0,0,0-1.7,1.7,6.5,6.5,0,0,0-1,3.6,6,6,0,0,1-.8,2.9,5.3,5.3,0,0,1-2.1,2.1h-.4a5.6,5.6,0,0,1-6.7-3.1,8.1,8.1,0,0,0-4.6-4.3,6.8,6.8,0,0,0,1.7-2.1,7.7,7.7,0,0,0,1.2-3.5,5.6,5.6,0,0,1,1.7-3.6,6,6,0,0,1,3.6-1.6Zm65,95.4v-.4h0a6.2,6.2,0,0,1,5.6-1.8h0a6.2,6.2,0,0,0,1.9.2l1.8-.4a6.3,6.3,0,0,0,2-1.3,10.5,10.5,0,0,0,.6,2.4,6.7,6.7,0,0,0,2.6,2.7,6.1,6.1,0,0,1,2,2.2,5,5,0,0,1,.7,2.9v.2c0,.1-.1.1-.1.2a5.7,5.7,0,0,1-6.2,4.1,9,9,0,0,0-3.7.4,7.7,7.7,0,0,0-2.4,1.2,8,8,0,0,0-3.2-5.3,6.1,6.1,0,0,1-2.2-3.3A5.5,5.5,0,0,1,104.9,263.5Zm97.3,3.2h0a5.6,5.6,0,0,1,2.3-5.3,5.8,5.8,0,0,0,2.2-2.9,6.9,6.9,0,0,0,.5-2.4,5.3,5.3,0,0,0,2.1,1.1,6.7,6.7,0,0,0,3.7-.1,6.1,6.1,0,0,1,3-.1,5.9,5.9,0,0,1,2.7,1.4h.1c0,.1,0,.2.1.2a5.8,5.8,0,0,1-1,7.4,8.9,8.9,0,0,0-2.2,3,8.2,8.2,0,0,0-.6,2.6,10.9,10.9,0,0,0-2.5-1,9.3,9.3,0,0,0-3.7-.1,5.8,5.8,0,0,1-3.9-.5,6.3,6.3,0,0,1-2.6-3C202.3,266.8,202.2,266.8,202.2,266.7Zm73.4-110.1h-.1a6.1,6.1,0,0,1-2.6-1.5,5.9,5.9,0,0,1-1.5-2.7,6.6,6.6,0,0,0-3.9-4.4,6.5,6.5,0,0,0,3.1-5.1,7.7,7.7,0,0,1,1-2.8,5.3,5.3,0,0,1,2.3-1.9h.4a6.1,6.1,0,0,1,4,.7,5.3,5.3,0,0,1,2.5,3,7.9,7.9,0,0,0,2,3.1,6.9,6.9,0,0,0,2.2,1.6,7.5,7.5,0,0,0-3.3,5.3,5.8,5.8,0,0,1-5.8,4.8ZM218.9,56.1v.2h-.1a5.8,5.8,0,0,1-5.6,1.3h0a6.8,6.8,0,0,0-5.9,1,6.6,6.6,0,0,0-2.7-5.3,7.5,7.5,0,0,1-1.9-2.4,5.7,5.7,0,0,1-.4-2.9h0l.2-.3a5.9,5.9,0,0,1,2.6-3,5.3,5.3,0,0,1,3.9-.5,9.3,9.3,0,0,0,3.7-.1,10.9,10.9,0,0,0,2.5-1,8.2,8.2,0,0,0,.6,2.6,8.9,8.9,0,0,0,2.2,3A5.8,5.8,0,0,1,218.9,56.1ZM181.2,37.4a6.8,6.8,0,0,1,.5,4c-.1.1-.1.2,0,.2h-.1a5.6,5.6,0,0,1-4.9,3.1h0a6.8,6.8,0,0,0-5.2,2.9,6.8,6.8,0,0,0-4.3-4.1,5.8,5.8,0,0,1-4-4.2h0c.1,0,.1-.1.1-.2a5.8,5.8,0,0,1,5-5.6,8.1,8.1,0,0,0,5.4-3.1,8.4,8.4,0,0,0,4.5,4.4A5.9,5.9,0,0,1,181.2,37.4Zm-39.5,2.9a5.9,5.9,0,0,1-3.6,4.6,6.4,6.4,0,0,0-3.9,4.4,6.5,6.5,0,0,0-5.4-2.4,6.1,6.1,0,0,1-5.2-2.7h0c0-.1,0-.2-.1-.2a6,6,0,0,1,2.9-7,8,8,0,0,0,4.1-4.7,8.5,8.5,0,0,0,5.7,2.7,4.8,4.8,0,0,1,2,.4,5.1,5.1,0,0,1,1.6,1.1,5.4,5.4,0,0,1,1.8,3.6c0,.1.1.2.1.3ZM126.4,277.8a6,6,0,0,1-2.9-7,.2.2,0,0,0,0-.3h.1a6.1,6.1,0,0,1,2.2-2,6.8,6.8,0,0,1,2.9-.6,6.4,6.4,0,0,0,5.4-2.5,6.9,6.9,0,0,0,4,4.5,5.8,5.8,0,0,1,3.6,4.5v.2c0,.1-.1.1-.1.2a5.4,5.4,0,0,1-1.8,3.6,5.1,5.1,0,0,1-1.6,1.1,4.8,4.8,0,0,1-2,.4,8.5,8.5,0,0,0-5.7,2.7A8,8,0,0,0,126.4,277.8Zm62.7-.2a5.8,5.8,0,0,1-5.9-4.6.5.5,0,0,0-.2-.4h0a6.2,6.2,0,0,1,3.2-4.9,6.4,6.4,0,0,0,3.6-4.7,6.8,6.8,0,0,0,5.6,2,5.5,5.5,0,0,1,5.3,2.2h.2v.2a6.4,6.4,0,0,1,.2,4.1,5.9,5.9,0,0,1-2.5,3.1,7.7,7.7,0,0,0-3.6,5.1A8.4,8.4,0,0,0,189.1,277.6ZM287,145.5a6.4,6.4,0,0,1-4.7-4.2h0A6.4,6.4,0,0,0,280,138a5.8,5.8,0,0,0-2.5-1.2,7.5,7.5,0,0,0,3.1-5.9,6.3,6.3,0,0,1,3-5.5,6.5,6.5,0,0,1,3.9.5,5.4,5.4,0,0,1,3,3.1,9.6,9.6,0,0,0,2.5,3.2,11,11,0,0,0,2.6,1.5,9,9,0,0,0-3.2,6.1A6.5,6.5,0,0,1,287,145.5ZM264.8,83.8a6.2,6.2,0,0,1-6.1-1.4h0a7.5,7.5,0,0,0-6.4-1.6,7.3,7.3,0,0,0-.3-6.6,6.5,6.5,0,0,1-.1-6.2,6.3,6.3,0,0,1,7.9-.3,8.8,8.8,0,0,0,6.7,1.6,8.7,8.7,0,0,0,.2,6.9,5.6,5.6,0,0,1,.3,4.4A6.2,6.2,0,0,1,264.8,83.8ZM34.4,114.7a6.2,6.2,0,0,1,2.6,5.8h0a7.6,7.6,0,0,0,2.5,6.1,7.4,7.4,0,0,0-5.1,4.2,6.7,6.7,0,0,1-2.1,2.6,6.9,6.9,0,0,1-2.8,1.1,6.4,6.4,0,0,1-5-6.1,8.4,8.4,0,0,0-2.6-6.4,9,9,0,0,0,5.4-4.3,6.1,6.1,0,0,1,3.3-2.8A7,7,0,0,1,34.4,114.7ZM29,136.1a5.6,5.6,0,0,1,2.4,2.2,5.9,5.9,0,0,1,1.2,3.1h0a7.3,7.3,0,0,0,1.4,3.8,9.1,9.1,0,0,0,2.1,1.8,6.8,6.8,0,0,0-2.3,1.4,6.7,6.7,0,0,0-2.1,3.6,6.2,6.2,0,0,1-4.2,4.4,6.6,6.6,0,0,1-3.8-1.4,5.8,5.8,0,0,1-2.1-3.8,8.7,8.7,0,0,0-1.6-3.7,10.4,10.4,0,0,0-2.1-2.1,8.9,8.9,0,0,0,4.6-5.1A6.4,6.4,0,0,1,29,136.1Zm-1.7,22.1a6.4,6.4,0,0,1,4.4,4.5,6.7,6.7,0,0,0,2.1,3.6,8.8,8.8,0,0,0,2.3,1.4,9.1,9.1,0,0,0-2.1,1.8,7.3,7.3,0,0,0-1.4,3.8,5.9,5.9,0,0,1-1.2,3.1,4.7,4.7,0,0,1-2.2,2,6.5,6.5,0,0,1-3.9-.7,5.8,5.8,0,0,1-2.8-3.4,8.3,8.3,0,0,0-4.6-5.1,8.9,8.9,0,0,0,3.7-5.9,5.6,5.6,0,0,1,2.2-3.7A6.4,6.4,0,0,1,27.3,158.2Zm2,22a6.4,6.4,0,0,1,3,1.1,6.7,6.7,0,0,1,2.1,2.6,7.4,7.4,0,0,0,5.1,4.2,7.6,7.6,0,0,0-2.5,6.1,6.1,6.1,0,0,1-2.4,5.6,6.4,6.4,0,0,1-7.3-2.9,8.6,8.6,0,0,0-5.4-4.3,8.1,8.1,0,0,0,1.7-2.4,9.5,9.5,0,0,0,1-4,6.3,6.3,0,0,1,1.4-4A6.7,6.7,0,0,1,29.3,180.2Zm254.3,9.1a6.3,6.3,0,0,1-3-5.5,7.5,7.5,0,0,0-3.1-5.9,5.8,5.8,0,0,0,2.5-1.2,6.4,6.4,0,0,0,2.3-3.3,6.4,6.4,0,0,1,4.7-4.2,6.6,6.6,0,0,1,3.5,1.8,5.4,5.4,0,0,1,1.9,3.9,8.8,8.8,0,0,0,3.2,6.1,8.9,8.9,0,0,0-5,4.7A6.4,6.4,0,0,1,283.6,189.3Zm3.6-21.8a6.8,6.8,0,0,1-2.6-1.8,8.9,8.9,0,0,1-1.4-3.1,7.3,7.3,0,0,0-3.9-5.3,7,7,0,0,0,3.9-5.2,8.9,8.9,0,0,1,1.4-3.1,7.2,7.2,0,0,1,2.5-1.8,6.2,6.2,0,0,1,6.3,4.7,9.3,9.3,0,0,0,4.2,5.5,7.1,7.1,0,0,0-2.3,1.9,8.6,8.6,0,0,0-1.9,3.5,5.8,5.8,0,0,1-2.4,3.6A6.5,6.5,0,0,1,287.2,167.5ZM139.7,18.3a8.4,8.4,0,0,0,6,3.5,6.4,6.4,0,0,1,5.4,5.5,6.4,6.4,0,0,1-4.4,4.6,7,7,0,0,0-4.7,4.6,7.3,7.3,0,0,0-5.8-3.3,6.2,6.2,0,0,1-5.2-3.1,6.8,6.8,0,0,1,.6-4,5.7,5.7,0,0,1,3.2-2.9A8.5,8.5,0,0,0,139.7,18.3ZM299.8,156.5a9.2,9.2,0,0,1-3-1.8,8.1,8.1,0,0,1-1.8-3.3,7.5,7.5,0,0,0-4.8-5.3h0a8.2,8.2,0,0,0,3.9-6.2,6.3,6.3,0,0,1,1.2-3.4,7.1,7.1,0,0,1,2.6-2.3,7.3,7.3,0,0,1,4.1.9,6.4,6.4,0,0,1,3.1,3.7,8.2,8.2,0,0,0,2.3,3.6,11,11,0,0,0,2.8,2,9.1,9.1,0,0,0-4.1,6.3A7,7,0,0,1,299.8,156.5Zm-2.3-24.1a6.1,6.1,0,0,1-3.1-1.3,7,7,0,0,1-2.3-2.8h0a8,8,0,0,0-2.9-3.4,8.6,8.6,0,0,0-2.8-1.1h0a8.8,8.8,0,0,0,1.9-2.4,7.6,7.6,0,0,0,.9-4.3,6.8,6.8,0,0,1,2.8-6.3,6.9,6.9,0,0,1,7.8,3.3,9.3,9.3,0,0,0,6,4.6,9.6,9.6,0,0,0-2.9,7,7,7,0,0,1-1.7,4.5A7.8,7.8,0,0,1,297.5,132.4ZM284,79.1a6.2,6.2,0,0,1-.1,4.8,7.5,7.5,0,0,1-2.6,3.3,7.3,7.3,0,0,1-6.6-2.1,7,7,0,0,0-3.8-2.2,6.4,6.4,0,0,0-3.1-.1h.1a7.7,7.7,0,0,0,.3-7.2,6.9,6.9,0,0,1,.6-6.8,6.9,6.9,0,0,1,8.5.4,9,9,0,0,0,7.2,2.4A9.6,9.6,0,0,0,284,79.1ZM186.6,18a7.1,7.1,0,0,1-5.8,3.6h-.1a8.1,8.1,0,0,0-6.3,3.6,7.7,7.7,0,0,0-5.1-5.1,7,7,0,0,1-4.8-4.8,6.9,6.9,0,0,1,5.9-6.1A10.1,10.1,0,0,0,177,5.4a9.7,9.7,0,0,0,5.4,5.3,6.8,6.8,0,0,1,3.5,3.2A6.4,6.4,0,0,1,186.6,18Zm-29.1,1.7a7.3,7.3,0,0,0-5.6,4.6,8,8,0,0,0-6-4.2,6.9,6.9,0,0,1-5.6-4,7.2,7.2,0,0,1,1.1-4.1,6.6,6.6,0,0,1,3.8-2.9A9.5,9.5,0,0,0,151,4.3a9.8,9.8,0,0,0,6.2,4.3,7.1,7.1,0,0,1,5.5,6.5A7.5,7.5,0,0,1,157.5,19.7Zm-23.3,1.9a7.7,7.7,0,0,0-4.7,5.5h-.1a7.4,7.4,0,0,0-6.5-3,7.3,7.3,0,0,1-6.2-3.2,7,7,0,0,1,3.6-7.6,8.9,8.9,0,0,0,4.9-5.8,9.9,9.9,0,0,0,6.9,3.3,6.9,6.9,0,0,1,2.4.5,6.6,6.6,0,0,1,2,1.4,6.7,6.7,0,0,1,2,3.7A6.9,6.9,0,0,1,134.2,21.6Zm-22.6,5.9h0a8.2,8.2,0,0,0-3.8,6.2,8,8,0,0,0-7-1.9,6.3,6.3,0,0,1-3.6-.2,6.1,6.1,0,0,1-2.9-1.7,6.8,6.8,0,0,1-.4-4.2,6.3,6.3,0,0,1,2.6-4,8.8,8.8,0,0,0,2.9-3.4,11.2,11.2,0,0,0,1-3.1,10.2,10.2,0,0,0,2.9,1.6,10.5,10.5,0,0,0,4.4.4,6.8,6.8,0,0,1,7.3,4.3A7,7,0,0,1,111.6,27.5Zm-92,94.8a6.9,6.9,0,0,1,3.2,6h0a8.1,8.1,0,0,0,3.4,6.5,8.1,8.1,0,0,0-5.3,4.9,8.7,8.7,0,0,1-2,3.1,7.4,7.4,0,0,1-3.2,1.6,7.7,7.7,0,0,1-3.7-1.9,7.2,7.2,0,0,1-2-4.3A9,9,0,0,0,8.7,134a8.8,8.8,0,0,0-2.2-2.5,9.7,9.7,0,0,0,5.5-5.2A7.2,7.2,0,0,1,19.6,122.3Zm-7.9,25.1a7.2,7.2,0,0,1,4-1.2,6,6,0,0,1,2.7,2,6.7,6.7,0,0,1,1.5,3.3h0a8.3,8.3,0,0,0,1.9,4,7.2,7.2,0,0,0,2.5,1.8h-.1a6.6,6.6,0,0,0-2.3,1.7,6.9,6.9,0,0,0-2,4,6.9,6.9,0,0,1-4.4,5.4,6.4,6.4,0,0,1-3.8-1.2,6.3,6.3,0,0,1-2.8-3.9,9.5,9.5,0,0,0-4.6-6.1,9.1,9.1,0,0,0,4.6-6A6.3,6.3,0,0,1,11.7,147.4ZM16,170.3a6.9,6.9,0,0,1,4.9,4.5,6.9,6.9,0,0,0,2.6,3.6,7.8,7.8,0,0,0,2.7,1.4h0a7,7,0,0,0-2.1,2.1,7.7,7.7,0,0,0-1.2,4.3,6.4,6.4,0,0,1-1,3.5,6.9,6.9,0,0,1-2.5,2.6,7.1,7.1,0,0,1-7.4-4,9.7,9.7,0,0,0-5.5-5.2,8.8,8.8,0,0,0,2.2-2.5,9,9,0,0,0,1.3-4.2,7.2,7.2,0,0,1,2-4.3A7.5,7.5,0,0,1,16,170.3Zm7.7,61.8a8.4,8.4,0,0,0,1.2-3.1,8.2,8.2,0,0,0-.1-4.4,7,7,0,0,1,3.4-7.9,7.4,7.4,0,0,1,6.3,2.6,7.7,7.7,0,0,0,6.1,3h.5a8,8,0,0,0-.9,7.2,6.9,6.9,0,0,1-1.2,6.8,7,7,0,0,1-8.3-1.2,9.7,9.7,0,0,0-6.9-3Zm70.6,52.6a7.2,7.2,0,0,1,6.5-1.9h0a6,6,0,0,0,2.3.2,8,8,0,0,0,2.1-.5,8.7,8.7,0,0,0,2.6-1.6h0a7.9,7.9,0,0,0,3.7,6.2,7.5,7.5,0,0,1,2.6,2.7,6.2,6.2,0,0,1,.8,3.5,6.8,6.8,0,0,1-7.2,4.2,10.5,10.5,0,0,0-4.4.4,10.2,10.2,0,0,0-2.9,1.6,11.2,11.2,0,0,0-1-3.1,8.8,8.8,0,0,0-2.9-3.4,6.3,6.3,0,0,1-2.6-4A7.9,7.9,0,0,1,94.3,284.7Zm22.4,8.9a6.7,6.7,0,0,1,2.5-2.2,7.3,7.3,0,0,1,3.6-.8,8.1,8.1,0,0,0,6.6-3.1h0a8.1,8.1,0,0,0,4.7,5.5,4.9,4.9,0,0,1,2.4,8.9,6.6,6.6,0,0,1-2,1.4,6.9,6.9,0,0,1-2.4.5,9.9,9.9,0,0,0-6.9,3.3,8.9,8.9,0,0,0-4.9-5.8A7.1,7.1,0,0,1,116.7,293.6Zm23.6,4.9a7.5,7.5,0,0,1,5.5-4,7.4,7.4,0,0,0,6-4.1h0a7.6,7.6,0,0,0,5.6,4.6,7.2,7.2,0,0,1,5.3,4.7,7.1,7.1,0,0,1-5.5,6.4,9.8,9.8,0,0,0-6.2,4.3,9.5,9.5,0,0,0-5.8-4.8,6.6,6.6,0,0,1-3.8-2.9A7.8,7.8,0,0,1,140.3,298.5Zm28.9-4h0a8.1,8.1,0,0,0,5.2-5h0a7.7,7.7,0,0,0,6.3,3.6,7.3,7.3,0,0,1,5.9,3.7,6.3,6.3,0,0,1-.7,4.1,6.7,6.7,0,0,1-3.6,3.2,9.8,9.8,0,0,0-5.3,5.3,10.1,10.1,0,0,0-6.6-3.8,5.5,5.5,0,0,1-1.2-11Zm99.5-48.6a6.9,6.9,0,0,1-.5-6.7,7.7,7.7,0,0,0-.4-7.2H269a7.8,7.8,0,0,0,5.7-2.4,5,5,0,0,1,9.2,1.2,6.2,6.2,0,0,1,.1,4.8,9.6,9.6,0,0,0,.5,7.6,9.3,9.3,0,0,0-7.2,2.3A6.8,6.8,0,0,1,268.7,245.9Zm23.3-42a7.1,7.1,0,0,1-2.8-6.3,8,8,0,0,0-.9-4.3,7.2,7.2,0,0,0-1.9-2.4h0a7.7,7.7,0,0,0,5.7-4.5,6.9,6.9,0,0,1,5.5-4.1,7.5,7.5,0,0,1,3.6,2.2,7,7,0,0,1,1.7,4.5,9.6,9.6,0,0,0,2.9,7,8.9,8.9,0,0,0-5.9,4.6A7.1,7.1,0,0,1,292,203.9Zm10-24.3a7.1,7.1,0,0,1-4.1.9,6.8,6.8,0,0,1-3.8-5.7,7.4,7.4,0,0,0-1.6-4.1,7.2,7.2,0,0,0-2.3-2h0a7.4,7.4,0,0,0,2.6-1.5,7.3,7.3,0,0,0,2.2-3.9,8.2,8.2,0,0,1,1.9-3.2,7.9,7.9,0,0,1,2.9-1.8,7,7,0,0,1,6.3,5.8,9.1,9.1,0,0,0,4.1,6.3,13.8,13.8,0,0,0-2.8,1.9,9.2,9.2,0,0,0-2.3,3.7A6.4,6.4,0,0,1,302,179.6Z"/><path class="cls-1" d="M64.9,166.9c-2.4-2.4-3.5-5.6-3.5-9.5s1.1-7.1,3.5-9.4a12.9,12.9,0,0,1,9.5-3.6,15.3,15.3,0,0,1,8.5,2.4l.7,5.1h-.3a8.2,8.2,0,0,0-3.2-4.8,9.8,9.8,0,0,0-5.7-1.7,9.2,9.2,0,0,0-7.5,3.3,12.9,12.9,0,0,0-2.9,8.7,13.3,13.3,0,0,0,2.8,8.6,9.6,9.6,0,0,0,7.4,3.4,10.2,10.2,0,0,0,6.7-2.2c1.9-1.6,3.1-4.1,3.5-7.7h.3l-.5,5.6c-2.1,3.6-5.5,5.4-10,5.4A13,13,0,0,1,64.9,166.9Z"/><path class="cls-1" d="M106.9,169.6a2.3,2.3,0,0,0,1.6-.6,2.1,2.1,0,0,0,.7-1.6V147.3a2.1,2.1,0,0,0-.7-1.5,2.5,2.5,0,0,0-1.6-.6h-.4v-.3H117l2.4-.2a6.9,6.9,0,0,0,1.8-.5v4.5h-.3v-.6a2,2,0,0,0-.6-1.5,2,2,0,0,0-1.4-.6h-7.3v11.1h6a1.7,1.7,0,0,0,1.2-.6,1.3,1.3,0,0,0,.5-1.2v-.5h.4v5.6h-.4v-.5a1.6,1.6,0,0,0-.4-1.2,2.3,2.3,0,0,0-1.2-.6h-6.1v10.8h5.1a5.8,5.8,0,0,0,4-1.2,9.4,9.4,0,0,0,2.4-3.5h.3l-2.1,5.8H106.5v-.4Z"/><path class="cls-1" d="M149.2,146h-2.3v21.4a2.5,2.5,0,0,0,.6,1.6,2.5,2.5,0,0,0,1.7.6h.4v.4h-7.8v-.4h.4a2.2,2.2,0,0,0,2.3-2.2V147.5a2,2,0,0,0-.7-1.6,1.9,1.9,0,0,0-1.6-.7h-.4v-.3h9.7a7.2,7.2,0,0,1,5.1,1.8,6.5,6.5,0,0,1,1.9,4.7,7.5,7.5,0,0,1-1.8,5,5.4,5.4,0,0,1-4.3,2.1,6.1,6.1,0,0,1,1.2.9,6.5,6.5,0,0,1,1.3,1.6,65.3,65.3,0,0,0,4.1,5.4,9.6,9.6,0,0,0,1.3,1.4,2.7,2.7,0,0,0,.8.7l1,.6a5.4,5.4,0,0,0,2.2.5v.4h-2a6.4,6.4,0,0,1-2.8-.6,7.1,7.1,0,0,1-2-1.1,6.8,6.8,0,0,1-1.2-1.2c-.3-.3-1.2-1.6-2.7-3.7l-2.5-3.6-.8-.9a3.1,3.1,0,0,0-2.2-1.2v-.3H150c2.9-.1,4.8-1.4,5.5-3.8a3.5,3.5,0,0,0,.3-1.3v-.8a6.7,6.7,0,0,0-1.3-3.9,4.2,4.2,0,0,0-3.2-1.6Z"/><path class="cls-1" d="M177.8,169.6a2.3,2.3,0,0,0,1.6-.6,2.1,2.1,0,0,0,.7-1.6v-20a1.8,1.8,0,0,0-.7-1.5,2,2,0,0,0-1.6-.7h-.4v-.3h7.8v.3h-.5a1.8,1.8,0,0,0-1.5.7,2.2,2.2,0,0,0-.8,1.5v20a2.6,2.6,0,0,0,.7,1.6,2.5,2.5,0,0,0,1.6.6h.5v.4h-7.8v-.4Z"/><path class="cls-1" d="M204.6,168.5a8.7,8.7,0,0,1-.1-1.9,11.8,11.8,0,0,1,.5-3.1h.3v.8a4.8,4.8,0,0,0,1.3,3.6,4.5,4.5,0,0,0,3.5,1.5,5.6,5.6,0,0,0,3.8-1.4,4.6,4.6,0,0,0,1.4-3.4,4.2,4.2,0,0,0-1.4-3.3l-6.9-6.4a5.8,5.8,0,0,1-1.9-4.4,6.1,6.1,0,0,1,1.7-4.3,6,6,0,0,1,4.6-1.8l3.1.3h1.4v4.4h-.3a3.4,3.4,0,0,0-1.2-2.7,4.9,4.9,0,0,0-3-1,4.2,4.2,0,0,0-3.1,1.3,4.1,4.1,0,0,0-1.2,3,4.5,4.5,0,0,0,1.4,3.2l7.1,6.5a5.8,5.8,0,0,1,1.8,4.5,6.4,6.4,0,0,1-1.8,4.7,6.6,6.6,0,0,1-4.9,1.9,14,14,0,0,1-3.4-.5A5.1,5.1,0,0,1,204.6,168.5Z"/><path class="cls-1" d="M237.1,169.6a2.3,2.3,0,0,0,1.6-.6,2.1,2.1,0,0,0,.7-1.6V147.3a2.6,2.6,0,0,0-.7-1.5,2.5,2.5,0,0,0-1.6-.6h-.4v-.3h10.6l2.4-.2a8.4,8.4,0,0,0,1.8-.5v4.5h-.3v-.6a2,2,0,0,0-.6-1.5,2,2,0,0,0-1.4-.6h-7.4v11.1h6.1a1.7,1.7,0,0,0,1.2-.6,1.3,1.3,0,0,0,.5-1.2v-.5h.4v5.6h-.4v-.5a1.3,1.3,0,0,0-.5-1.2,1.7,1.7,0,0,0-1.2-.6h-6.1v10.8h5.2a6,6,0,0,0,4-1.2,9.4,9.4,0,0,0,2.4-3.5h.3l-2.1,5.8H236.6v-.4Z"/><path class="cls-1" d="M165.1,190c-2.8-.4-5.7-.9-3.8-3.9-3,2-3.4-1-3.8-3.7-.4,2.7-.9,5.7-3.9,3.7,2,3-1,3.5-3.7,3.9,2.7.4,5.7.8,3.7,3.8,3-1.9,3.5,1,3.9,3.8.4-2.8.8-5.7,3.8-3.8C159.4,190.8,162.3,190.4,165.1,190Zm-7.6,4.4c-.2-1.6-.5-3.3-2.3-2.2,1.2-1.7-.5-2-2.2-2.2,1.7-.3,3.4-.5,2.2-2.3,1.8,1.2,2.1-.6,2.3-2.2.2,1.6.5,3.4,2.2,2.2-1.1,1.8.6,2,2.2,2.3-1.6.2-3.3.5-2.2,2.2C158,191.1,157.7,192.8,157.5,194.4Z"/></svg>