<?xml version="1.0" encoding="UTF-8"?><svg id="a" xmlns="http://www.w3.org/2000/svg" viewBox="0 0 20 20"><defs><style>.h{fill:#4c4c4d;}</style></defs><g id="b" transform="translate(-0.2 -0.2)"><path id="c" class="h" d="M7.53,17.05c.71,0,1.38,.35,1.8,.93,.26,.37,.77,.46,1.14,.2,.08-.05,.14-.12,.2-.2,.61-.88,1.76-1.18,2.73-.72,.25,.11,.54,.09,.77-.05,.23-.13,.38-.36,.41-.62,.09-1.07,.94-1.92,2.01-2.01,.27,0,.51-.16,.62-.41,.14-.23,.16-.52,.05-.77-.46-.96-.16-2.12,.72-2.73,.22-.16,.35-.4,.36-.67,.01-.27-.13-.53-.36-.67-.88-.61-1.18-1.76-.72-2.73,.11-.25,.09-.54-.05-.77-.13-.23-.36-.38-.62-.41-1.07-.09-1.92-.94-2.01-2.01,0-.27-.16-.51-.41-.62-.24-.12-.52-.14-.77-.05-.83,.39-1.81,.23-2.47-.41h-.05l-.26-.36c-.26-.37-.77-.46-1.14-.2-.08,.05-.14,.12-.2,.2-.61,.88-1.76,1.18-2.73,.72-.25-.11-.54-.09-.77,.05-.23,.13-.38,.36-.41,.62-.09,1.07-.94,1.92-2.01,2.01-.27,0-.51,.16-.62,.41-.14,.23-.16,.52-.05,.77,.46,.96,.16,2.12-.72,2.73-.17,.2-.28,.45-.31,.72-.01,.27,.13,.53,.36,.67,.88,.61,1.18,1.76,.72,2.73-.11,.25-.09,.54,.05,.77,.13,.23,.36,.38,.62,.41,1.07,.09,1.92,.94,2.01,2.01,0,.27,.16,.51,.41,.62,.23,.14,.52,.16,.77,.05,.29-.14,.61-.21,.93-.21Zm2.47,2.11c-.54,0-1.05-.26-1.34-.72-.4-.52-1.09-.71-1.7-.46-.5,.22-1.06,.2-1.54-.05-.47-.26-.78-.75-.82-1.29-.05-.66-.57-1.19-1.23-1.23-.54-.04-1.02-.35-1.29-.82-.27-.47-.29-1.05-.05-1.54,.27-.6,.08-1.32-.46-1.7-.74-.49-.94-1.48-.46-2.22,.12-.18,.27-.34,.46-.46,.55-.38,.75-1.09,.46-1.7-.22-.5-.2-1.06,.05-1.54,.26-.47,.75-.78,1.29-.82,.66-.05,1.19-.57,1.23-1.23,.04-.54,.35-1.02,.82-1.29,.47-.27,1.05-.29,1.54-.05,.6,.28,1.32,.09,1.7-.46,.49-.74,1.48-.94,2.22-.46,.18,.12,.34,.27,.46,.46,.38,.55,1.09,.75,1.7,.46,.5-.22,1.06-.2,1.54,.05,.46,.27,.77,.75,.82,1.29,.05,.66,.57,1.19,1.23,1.23,.54,.04,1.02,.35,1.29,.82,.27,.47,.29,1.05,.05,1.54-.27,.6-.08,1.32,.46,1.7,.45,.3,.72,.8,.72,1.34,0,.54-.26,1.05-.72,1.34-.55,.38-.75,1.09-.46,1.7,.22,.5,.2,1.06-.05,1.54-.27,.46-.75,.77-1.29,.82-.66,.05-1.19,.57-1.23,1.23-.04,.54-.35,1.02-.82,1.29-.47,.27-1.05,.29-1.54,.05-.6-.28-1.32-.09-1.7,.46-.29,.46-.8,.73-1.34,.72Z"/><path id="d" class="h" d="M12.9,14.19c-.13,0-.25-.06-.35-.15-.13-.15-.12-.37,.03-.5,.02-.02,.04-.04,.07-.05,1.92-1.42,2.32-4.13,.9-6.05-.82-1.1-2.11-1.75-3.47-1.75-.22,0-.4-.18-.4-.4s.18-.4,.4-.4c2.82,0,5.11,2.29,5.11,5.11,0,1.63-.77,3.16-2.09,4.12-.06,.03-.13,.05-.2,.05Z"/><path id="e" class="h" d="M15.19,14.34h-2.23c-.21-.01-.38-.18-.4-.4v-2.23c0-.22,.18-.4,.4-.4,.22,0,.4,.18,.4,.4v1.84h1.84c.21,.01,.38,.18,.4,.4,0,.22-.17,.39-.39,.4,0,0,0,0-.01,0Z"/><path id="f" class="h" d="M9.87,15.15c-2.82,0-5.11-2.29-5.11-5.11,0-1.63,.77-3.16,2.09-4.12,.15-.13,.37-.12,.5,.03,.02,.02,.04,.04,.05,.07,.1,.2,.1,.45-.1,.55-1.92,1.43-2.31,4.13-.89,6.05,.82,1.1,2.1,1.74,3.47,1.74,.21,.01,.38,.18,.4,.4,0,.22-.17,.39-.38,.4,0,0,0,0-.01,0Z"/><path id="g" class="h" d="M7.05,8.74c-.21-.01-.38-.18-.4-.4v-1.84h-1.84c-.22,0-.4-.18-.4-.4,0-.22,.18-.4,.4-.4h2.23c.21,.01,.38,.18,.4,.4v2.23c-.01,.21-.18,.38-.4,.4Z"/></g></svg>