<svg id="Layer_1" data-name="Layer 1" xmlns="http://www.w3.org/2000/svg" xmlns:xlink="http://www.w3.org/1999/xlink" viewBox="0 0 164.79 45.93"><defs><style>.cls-1{fill:none;}.cls-2{clip-path:url(#clip-path);}.cls-3{fill:#fff;}.cls-4{fill:#aa1e56;}</style><clipPath id="clip-path"><rect class="cls-1" width="164.79" height="45.93"/></clipPath></defs><g class="cls-2"><path class="cls-3" d="M26.53,1c-3.36,0-7.68,1.51-8.2,9.1h-.18A13.34,13.34,0,0,0,6.89,16.85C4.57,20.79,3,22.31,2.28,22.67c.74.37,2.25,2,4.5,5.95A12.15,12.15,0,0,0,17.44,35a5.5,5.5,0,0,0,.64,0c.4,8,5.49,9.37,8.93,9.37A13,13,0,0,0,30.15,44l103.19.53a14.57,14.57,0,0,0,3.4.39c3.55,0,8.7-1.32,9.39-8.8h.22a13.52,13.52,0,0,0,11.48-6.71c2.33-4,3.91-5.47,4.66-5.83-.74-.36-2.29-2-4.54-5.94a13.15,13.15,0,0,0-11.33-6.76h-.23C146.32,3,141.68,1.5,138,1.5a14.93,14.93,0,0,0-4.28.65L30.57,1.66a13.1,13.1,0,0,0-4-.66"/><path class="cls-4" d="M26.53,1c-3.36,0-7.68,1.51-8.2,9.1h-.18A13.34,13.34,0,0,0,6.89,16.85C4.57,20.79,3,22.31,2.28,22.67c.74.37,2.25,2,4.5,5.95A12.15,12.15,0,0,0,17.44,35a5.5,5.5,0,0,0,.64,0c.4,8,5.49,9.37,8.93,9.37A13,13,0,0,0,30.15,44l103.19.53a14.57,14.57,0,0,0,3.4.39c3.55,0,8.7-1.32,9.39-8.8h.22a13.52,13.52,0,0,0,11.48-6.71c2.33-4,3.91-5.47,4.66-5.83-.74-.36-2.29-2-4.54-5.94a13.15,13.15,0,0,0-11.33-6.76h-.23C146.32,3,141.68,1.5,138,1.5a14.93,14.93,0,0,0-4.28.65L30.57,1.66a13.1,13.1,0,0,0-4-.66"/></g></svg>