<svg id="Layer_1" data-name="Layer 1" xmlns="http://www.w3.org/2000/svg" xmlns:xlink="http://www.w3.org/1999/xlink" viewBox="0 0 158.6 39.5"><defs><style>.cls-1,.cls-4{fill:none;}.cls-2{clip-path:url(#clip-path);}.cls-3{fill:#fff;}.cls-4{stroke:#c2c0c2;stroke-miterlimit:10;}</style><clipPath id="clip-path"><rect class="cls-1" x="1.4" width="155.8" height="39.48"/></clipPath></defs><title>track-button</title><g class="cls-2"><path class="cls-3" d="M121.8,37.9s17.8,5.3,20.2-7.5c0,0,5.8,2.2,8.7-2.1s2.2-7.5,6-8.6c-3.8-1-3.2-4.2-6-8.5S142,9.1,142,9.1c-2.4-12.8-20.2-7.5-20.2-7.5H36.9S19.1-3.7,16.6,9.1c0,0-5.8-2.2-8.6,2.1s-2.3,7.5-6.1,8.5C5.7,20.8,5.1,24,8,28.3s8.6,2.1,8.6,2.1c2.5,12.8,20.3,7.5,20.3,7.5Z"/><path class="cls-4" d="M121.8,37.9s17.8,5.3,20.2-7.5c0,0,5.8,2.2,8.7-2.1s2.2-7.5,6-8.6c-3.8-1-3.2-4.2-6-8.5S142,9.1,142,9.1c-2.4-12.8-20.2-7.5-20.2-7.5H36.9S19.1-3.7,16.6,9.1c0,0-5.8-2.2-8.6,2.1s-2.3,7.5-6.1,8.5C5.7,20.8,5.1,24,8,28.3s8.6,2.1,8.6,2.1c2.5,12.8,20.3,7.5,20.3,7.5Z"/></g></svg>