<svg id="Layer_1" data-name="Layer 1" xmlns="http://www.w3.org/2000/svg" xmlns:xlink="http://www.w3.org/1999/xlink" viewBox="0 0 40 40"><defs><style>.cls-1{fill:none;}.cls-2{clip-path:url(#clip-path);}.cls-3{fill:#ab1e56;}</style><clipPath id="clip-path"><rect class="cls-1" x="8.7" y="10.9" width="24.7" height="18.21"/></clipPath></defs><g class="cls-2"><path class="cls-3" d="M29.8,11.3a1,1,0,0,0-1.6,0,1.2,1.2,0,0,0,0,1.6,10,10,0,0,1,0,14.3,1.2,1.2,0,0,0,0,1.6,1.2,1.2,0,0,0,.8.4.9.9,0,0,0,.8-.4,12.4,12.4,0,0,0,0-17.5"/><path class="cls-3" d="M26.1,15a1,1,0,0,0-1.6,0,1.2,1.2,0,0,0,0,1.6,4.9,4.9,0,0,1,0,6.9,1.2,1.2,0,0,0,0,1.6,1.2,1.2,0,0,0,1.6,0,7.1,7.1,0,0,0,0-10.1"/><path class="cls-3" d="M13.9,12.9a1.2,1.2,0,0,0,0-1.6,1,1,0,0,0-1.6,0,12.4,12.4,0,0,0,0,17.5,1.2,1.2,0,0,0,1.6,0,1.2,1.2,0,0,0,0-1.6,10,10,0,0,1,0-14.3"/><path class="cls-3" d="M17.6,16.6a1.2,1.2,0,0,0,0-1.6A1,1,0,0,0,16,15a7.1,7.1,0,0,0,0,10.1,1.2,1.2,0,0,0,1.6,0,1.2,1.2,0,0,0,0-1.6,4.9,4.9,0,0,1,0-6.9"/><path class="cls-3" d="M21.1,18.1A2,2,0,0,1,23,20a1.9,1.9,0,0,1-1.9,1.9A1.8,1.8,0,0,1,19.2,20a1.9,1.9,0,0,1,1.9-1.9"/></g></svg>