<svg id="Layer_1" data-name="Layer 1" xmlns="http://www.w3.org/2000/svg" xmlns:xlink="http://www.w3.org/1999/xlink" viewBox="0 0 155.8 39.5"><defs><style>.cls-1,.cls-4{fill:none;}.cls-2{clip-path:url(#clip-path);}.cls-3{fill:#fff;}.cls-4{stroke:#ab1e56;stroke-miterlimit:10;}</style><clipPath id="clip-path"><rect class="cls-1" width="155.8" height="39.48"/></clipPath></defs><title>track-button</title><g class="cls-2"><path class="cls-3" d="M120.4,37.9s17.7,5.3,20.2-7.5c0,0,5.8,2.2,8.6-2.1s2.3-7.5,6.1-8.6c-3.8-1-3.2-4.2-6.1-8.5s-8.6-2.1-8.6-2.1c-2.5-12.8-20.2-7.5-20.2-7.5h-85S17.6-3.7,15.2,9.1c0,0-5.8-2.2-8.6,2.1S4.3,18.7.5,19.7c3.8,1.1,3.2,4.3,6.1,8.6s8.6,2.1,8.6,2.1c2.4,12.8,20.2,7.5,20.2,7.5Z"/><path class="cls-4" d="M120.4,37.9s17.7,5.3,20.2-7.5c0,0,5.8,2.2,8.6-2.1s2.3-7.5,6.1-8.6c-3.8-1-3.2-4.2-6.1-8.5s-8.6-2.1-8.6-2.1c-2.5-12.8-20.2-7.5-20.2-7.5h-85S17.6-3.7,15.2,9.1c0,0-5.8-2.2-8.6,2.1S4.3,18.7.5,19.7c3.8,1.1,3.2,4.3,6.1,8.6s8.6,2.1,8.6,2.1c2.4,12.8,20.2,7.5,20.2,7.5Z"/></g></svg>